<svg width="30" height="30" fill="none" xmlns="http://www.w3.org/2000/svg"><path d="m26.26 15.11-.555.017-.556.018-.778.3c-.518.2-1.094.715-1.729 1.546a11.878 11.878 0 0 0-1.554 2.719c-.402.982-.868 2.175-1.398 3.582-.53 1.406-.89 2.14-1.08 2.2a.894.894 0 0 1-.565-.006.894.894 0 0 1-.455-.336c-.116-.162-.251-.492-.407-.992-.155-.5-.55-1.756-1.185-3.768a530.805 530.805 0 0 0-1.944-6.039 577.533 577.533 0 0 1-1.788-5.53c-.531-1.673-.914-2.793-1.15-3.36-.235-.566-.506-.477-.812.268a33.736 33.736 0 0 0-.933 2.612 99.008 99.008 0 0 1-.96 2.88c-.324.924-.754 1.715-1.291 2.373-.537.658-1.366 1.042-2.489 1.152-1.122.11-1.827.108-2.114-.005a.861.861 0 0 1-.544-.62.861.861 0 0 1 .18-.803.861.861 0 0 1 .757-.327c.308.02.544.16.71.42.164.26.19.534.076.82a.861.861 0 0 1-.619.545.861.861 0 0 1-.804-.18.861.861 0 0 1-.327-.757.861.861 0 0 1 .42-.709c.261-.165 1.033-.41 2.316-.733 1.284-.323 2.12-.895 2.508-1.716a32.52 32.52 0 0 0 1.13-2.718c.366-.992.83-1.916 1.396-2.772.565-.857 1.111-.955 1.64-.295.528.66 1.092 1.847 1.693 3.563a870.44 870.44 0 0 1 1.931 5.577A85.376 85.376 0 0 0 17 19.394c.66 1.57 1.123 2.856 1.39 3.858.266 1.001.417 1.61.453 1.826.035.216-.042.354-.232.413a.894.894 0 0 1-.565-.005.894.894 0 0 1-.455-.336c-.116-.162.038-.964.46-2.408.422-1.444.77-2.683 1.046-3.716.276-1.033.675-2.148 1.197-3.346.522-1.197 1.183-1.991 1.983-2.38.8-.39 1.478-.596 2.036-.616a21.17 21.17 0 0 1 1.393-.013c.37.011.664.017.88.017a2.2 2.2 0 0 1 .679.116c.237.077.429.216.575.418.147.202.22.428.22.677 0 .25-.073.475-.22.677l-1.578.534Z" fill="currentColor"/><path d="M18.61 25.491c.19-.06.55-.793 1.08-2.2.53-1.405.996-2.6 1.398-3.581.402-.981.92-1.888 1.554-2.719.635-.831 1.21-1.347 1.73-1.546l.776-.3.557-.018.556-.017 1.578-.534c.147-.202.22-.428.22-.677 0-.25-.073-.475-.22-.677a1.124 1.124 0 0 0-.575-.418 2.2 2.2 0 0 0-.68-.116 29.5 29.5 0 0 1-.88-.017c-.37-.012-.834-.008-1.392.013-.558.02-1.237.226-2.036.615-.8.39-1.46 1.184-1.983 2.381a24.012 24.012 0 0 0-1.197 3.346 167.969 167.969 0 0 1-1.046 3.716c-.422 1.444-.576 2.246-.46 2.408m1.02.341a.894.894 0 0 1-.565-.005.894.894 0 0 1-.455-.336m1.02.341c.19-.06.267-.197.232-.413-.036-.216-.187-.825-.453-1.826-.267-1.002-.73-2.288-1.39-3.858a85.376 85.376 0 0 1-2.019-5.358 870.44 870.44 0 0 0-1.93-5.577c-.602-1.716-1.166-2.904-1.695-3.563-.528-.66-1.075-.562-1.64.295a13.477 13.477 0 0 0-1.394 2.772 32.958 32.958 0 0 1-1.13 2.718c-.39.82-1.225 1.393-2.509 1.716-1.283.324-2.055.568-2.315.733a.861.861 0 0 0-.42.71.86.86 0 0 0 .326.756.861.861 0 0 0 .804.18.861.861 0 0 0 .62-.544.861.861 0 0 0-.078-.82.862.862 0 0 0-.709-.421.861.861 0 0 0-.757.327.861.861 0 0 0-.18.804.861.861 0 0 0 .544.619c.287.113.992.115 2.114.005 1.123-.11 1.952-.495 2.489-1.152.537-.658.967-1.45 1.291-2.373.324-.924.644-1.884.96-2.88a33.37 33.37 0 0 1 .933-2.612c.306-.745.577-.834.812-.267.236.566.619 1.686 1.15 3.36.53 1.672 1.127 3.516 1.788 5.53a509.08 509.08 0 0 1 1.944 6.038c.635 2.012 1.03 3.268 1.185 3.768.156.5.291.83.407.992" stroke="currentColor" stroke-width="2" stroke-linecap="round" stroke-linejoin="round"/></svg>