<svg width="30" height="30" fill="none" xmlns="http://www.w3.org/2000/svg"><path d="m6.022 22.41-.53.02-.532.021-.5-.081a3.855 3.855 0 0 1-1.026-.33c-.352-.167-.686-.436-1.003-.808-.317-.371-.592-.992-.824-1.863-.231-.87-.315-1.93-.249-3.177.066-1.249.142-2.433.228-3.555a54.56 54.56 0 0 0 .157-3.192c.018-1.007.041-1.919.069-2.735.027-.817.209-1.55.545-2.202a3.288 3.288 0 0 1 1.508-1.472c.67-.33 1.475-.493 2.418-.487.943.006 2.16.081 3.652.227 1.492.145 3.134.259 4.927.341 1.793.083 3.443.124 4.951.124 1.508 0 2.706.002 3.594.006.887.003 1.67.06 2.349.17.678.11 1.256.424 1.732.942s.797 1.22.964 2.104c.167.885.235 1.796.205 2.732-.03.937-.073 1.966-.126 3.087a70.306 70.306 0 0 0-.083 3.192 124.06 124.06 0 0 1-.033 2.731c-.02.815-.186 1.541-.5 2.18-.314.639-.93 1.132-1.848 1.48-.918.347-1.574.515-1.968.504a1.1 1.1 0 0 1-.926-.503 1.101 1.101 0 0 1-.137-1.044c.132-.372.387-.613.765-.725a1.101 1.101 0 0 1 1.036.192 1.1 1.1 0 0 1 .453.951 1.1 1.1 0 0 1-.503.926 1.101 1.101 0 0 1-1.045.137 1.101 1.101 0 0 1-.725-.764 1.101 1.101 0 0 1 .192-1.036c.24-.313.815-.62 1.723-.921.908-.302 1.451-.813 1.63-1.533.179-.72.27-1.581.27-2.583a64.375 64.375 0 0 0-.077-3.183c-.054-1.12-.097-2.146-.13-3.077a26.552 26.552 0 0 0-.21-2.614c-.11-.812-.425-1.392-.947-1.741-.521-.349-1.217-.548-2.087-.598-.87-.05-2.06-.075-3.568-.075s-3.158.042-4.95.125a94.765 94.765 0 0 0-4.92.345c-1.487.147-2.78.379-3.88.695-1.098.317-1.796.83-2.091 1.541-.296.711-.437 1.568-.422 2.57.014 1 .065 2.061.152 3.182.087 1.12.194 2.361.32 3.722.128 1.36.32 2.279.575 2.756.256.477.557.745.905.805.347.06.582.09.706.09s.303.038.538.114c.236.077.426.215.571.415.146.2.218.424.218.672 0 .247-.072.47-.218.67l-1.295.53Z" fill="currentColor" stroke="currentColor" stroke-width="2" stroke-linecap="round" stroke-linejoin="round"/><path d="M16.493 19.056a14192.398 14192.398 0 0 0 1.355 1.698l.802 1.038c.536.692 1.195 1.555 1.977 2.59.783 1.034 1.147 1.66 1.092 1.878-.056.218-.17.4-.343.544a1.015 1.015 0 0 1-.596.239c-.225.014-.46.035-.708.06-.248.026-.886.07-1.915.133a30.585 30.585 0 0 1-3.225.017c-1.121-.05-2.46-.094-4.016-.13-1.556-.036-2.388-.127-2.494-.273a.814.814 0 0 1-.16-.49c0-.18.053-.344.159-.49.106-.146.2-.302.284-.466.083-.165.322-.58.715-1.247.393-.666 1.068-1.575 2.024-2.728.955-1.152 1.559-1.784 1.81-1.894a.767.767 0 0 1 .733.043.767.767 0 0 1 .396.618.766.766 0 0 1-.267.683.767.767 0 0 1-.71.186.767.767 0 0 1-.568-.466.767.767 0 0 1 .043-.732.767.767 0 0 1 .618-.396c.273-.027.5.062.683.267a.767.767 0 0 1 .186.71c-.059.268-.558.974-1.498 2.119-.94 1.144-1.787 2.085-2.541 2.824a93.63 93.63 0 0 1-1.44 1.393c-.205.19-.36.212-.467.066a.814.814 0 0 1-.16-.49c0-.18.053-.344.159-.49.106-.146.936-.24 2.49-.278 1.555-.04 2.887-.09 3.996-.149 1.11-.06 2.08-.106 2.91-.14.83-.032 1.61.035 2.341.204.73.168 1.187.281 1.37.34.182.057.246.195.19.413-.055.218-.169.4-.341.544a1.015 1.015 0 0 1-.597.239c-.225.014-.775-.456-1.651-1.413a316.39 316.39 0 0 1-2.19-2.411c-.584-.652-1.114-1.25-1.59-1.797a85.558 85.558 0 0 1-1.117-1.304c-.27-.323-.45-.6-.543-.832a1.122 1.122 0 0 1-.047-.708c.061-.242.187-.442.379-.601.19-.16.41-.248.659-.264l1.813 1.343Z" fill="currentColor"/><path d="M21.719 26.26c.055-.218-.309-.844-1.092-1.879a318.257 318.257 0 0 0-1.977-2.589l-.802-1.038-.678-.849-.677-.849-1.813-1.343a1.121 1.121 0 0 0-.66.264c-.19.159-.317.36-.378.6-.06.242-.045.478.047.71.093.23.274.508.543.831.27.323.642.758 1.118 1.305.475.546 1.005 1.145 1.589 1.796.584.65 1.314 1.455 2.19 2.411.876.957 1.426 1.427 1.651 1.413m.939-.783c-.056.218-.17.4-.343.544a1.015 1.015 0 0 1-.596.239m.939-.783c.055-.218-.009-.356-.191-.414-.183-.058-.64-.17-1.37-.34a8.818 8.818 0 0 0-2.341-.202c-.83.033-1.8.08-2.91.14-1.109.059-2.441.108-3.996.148-1.554.039-2.384.132-2.49.278m12.36 1.172c-.226.015-.462.036-.71.062-.247.025-.885.07-1.914.132a30.585 30.585 0 0 1-3.225.017c-1.121-.05-2.46-.094-4.016-.13-1.556-.036-2.388-.127-2.494-.273m0 0a.814.814 0 0 1-.16-.49c0-.18.053-.344.159-.49m0 .98c.107.146.263.124.469-.066.205-.19.685-.654 1.439-1.393s1.601-1.68 2.54-2.824c.94-1.145 1.44-1.85 1.499-2.119a.767.767 0 0 0-.186-.71.767.767 0 0 0-.683-.267.767.767 0 0 0-.618.396.767.767 0 0 0-.043.732c.11.252.3.407.568.466a.767.767 0 0 0 .71-.186.766.766 0 0 0 .267-.683.767.767 0 0 0-.396-.618.767.767 0 0 0-.733-.043c-.251.11-.855.741-1.81 1.894-.956 1.153-1.63 2.062-2.024 2.728a32.843 32.843 0 0 0-.715 1.247c-.084.164-.178.32-.284.466" stroke="currentColor" stroke-width="2" stroke-linecap="round" stroke-linejoin="round"/></svg>