<svg width="30" height="30" fill="none" xmlns="http://www.w3.org/2000/svg"><g clip-path="url(#a)" fill="currentColor" stroke="currentColor" stroke-width="2" stroke-linecap="round" stroke-linejoin="round"><path d="m11.162 1.389 1.151.032 1.152.031 1.39.058c.926.039 1.843.09 2.75.154a11.28 11.28 0 0 1 2.701.532c.894.291 1.643.73 2.248 1.32a66.16 66.16 0 0 1 1.877 1.906 78.22 78.22 0 0 1 1.871 2.048 11.11 11.11 0 0 1 1.546 2.272c.428.833.65 1.67.663 2.512.014.843.01 1.733-.014 2.67a76.046 76.046 0 0 1-.12 2.77 11.054 11.054 0 0 1-.512 2.698c-.285.89-.72 1.638-1.306 2.244a63.967 63.967 0 0 1-1.9 1.88 76.03 76.03 0 0 1-2.043 1.875 11.07 11.07 0 0 1-2.27 1.548c-.83.428-1.667.65-2.509.664-.842.014-1.732.01-2.67-.013a75.397 75.397 0 0 1-2.769-.119 11.045 11.045 0 0 1-2.697-.51c-.89-.286-1.639-.721-2.245-1.307a63.98 63.98 0 0 1-1.88-1.899 76.084 76.084 0 0 1-1.875-2.043 11.064 11.064 0 0 1-1.547-2.27c-.429-.83-.65-1.666-.665-2.509-.014-.842-.01-1.732.013-2.67.024-.938.063-1.86.119-2.769.056-.908.226-1.807.511-2.697.285-.89.72-1.639 1.306-2.245A134.59 134.59 0 0 1 6.033 4.97c1.144-1.116 1.855-1.72 2.135-1.813a.822.822 0 0 1 .777.119c.24.172.36.405.362.699a.822.822 0 0 1-.354.703.822.822 0 0 1-.776.127.822.822 0 0 1-.56-.553.822.822 0 0 1 .12-.777.822.822 0 0 1 .698-.362.822.822 0 0 1 .703.354.822.822 0 0 1 .128.776c-.09.28-.684.992-1.783 2.134a393.95 393.95 0 0 0-2.4 2.509c-.5.53-.876 1.084-1.127 1.662-.251.578-.396 1.272-.433 2.083-.037.812-.04 1.68-.007 2.603.032.925.058 1.75.079 2.479.02.728.146 1.385.378 1.971.231.587.62 1.18 1.169 1.78.547.6 1.16 1.217 1.837 1.848.676.631 1.28 1.197 1.81 1.698.53.5 1.084.876 1.662 1.127.578.252 1.272.396 2.083.433.811.037 1.68.04 2.603.008.925-.033 1.75-.059 2.479-.08.728-.02 1.385-.146 1.971-.378.587-.231 1.18-.62 1.78-1.169.6-.548 1.216-1.16 1.847-1.837a421.55 421.55 0 0 1 1.698-1.81c.5-.53.876-1.084 1.127-1.662.251-.578.395-1.272.432-2.083.037-.811.039-1.68.006-2.603-.032-.925-.059-1.75-.08-2.478-.021-.728-.148-1.384-.38-1.97-.231-.584-.621-1.176-1.17-1.776a32.162 32.162 0 0 0-1.84-1.843c-.679-.63-1.284-1.193-1.814-1.69-.531-.498-1.084-.87-1.658-1.116-.574-.246-1.266-.384-2.076-.415a32.7 32.7 0 0 0-2.604.011c-.927.039-1.774.068-2.542.09-.767.02-1.374.031-1.82.031-.447 0-.788-.038-1.024-.115a1.119 1.119 0 0 1-.573-.416 1.119 1.119 0 0 1-.22-.674c0-.248.074-.473.22-.674l2.266-.531Z"/><path d="M16.21 11.13a2398.906 2398.906 0 0 0 .036 1.113l.008 1.149c.006.765-.078 1.318-.252 1.659-.173.34-.449.54-.826.6a1.068 1.068 0 0 1-.972-.315 1.068 1.068 0 0 1-.315-.972c.06-.377.26-.653.6-.826.34-.174.681-.174 1.022 0 .34.173.54.449.6.826.06.377-.045.701-.316.972-.27.27-.594.375-.971.315a1.068 1.068 0 0 1-.826-.6c-.174-.34-.258-.894-.252-1.66.005-.765.014-1.333.026-1.704.011-.37.017-.664.017-.88 0-.215.039-.442.116-.679.077-.237.216-.429.418-.576a1.13 1.13 0 0 1 .677-.22c.25 0 .475.074.677.22l.534 1.579Zm-1.204 7.725.345.112.344.112.213.293c.142.196.213.414.213.656 0 .242-.07.46-.213.655-.142.196-.327.33-.557.406a1.1 1.1 0 0 1-.69 0 1.089 1.089 0 0 1-.557-.405 1.089 1.089 0 0 1-.213-.656c0-.242.071-.46.213-.655l.902-.518Z"/></g><defs><clipPath id="a"><path fill="#fff" d="M0 0h30v30H0z"/></clipPath></defs></svg>