<svg width="30" height="30" fill="none" xmlns="http://www.w3.org/2000/svg"><path d="m12.33 7.482-1.352 1.862-1.352 1.86-1.51 2.322a139.379 139.379 0 0 0-2.706 4.32 87.025 87.025 0 0 0-1.827 3.165c-.419.776-.64 1.45-.66 2.018-.022.569.222 1.026.73 1.37.51.345 1.203.534 2.08.569.878.033 2.103.118 3.677.253 1.573.135 3.309.232 5.206.29 1.897.057 3.643.086 5.24.086a97.09 97.09 0 0 0 3.753-.056c.906-.037 1.614-.19 2.125-.46.511-.269.786-.711.825-1.327.04-.616-.147-1.3-.561-2.05a77.984 77.984 0 0 1-1.634-3.196 99.869 99.869 0 0 0-2.355-4.494 152.399 152.399 0 0 0-2.54-4.422 91.007 91.007 0 0 0-1.926-3.105c-.486-.738-.975-1.259-1.468-1.565-.494-.305-1.144-.24-1.952.196s-1.374.595-1.698.476a.964.964 0 0 1-.628-.676.964.964 0 0 1 .178-.905.964.964 0 0 1 .837-.388.964.964 0 0 1 .806.45.964.964 0 0 1 .11.915.964.964 0 0 1-.676.627.964.964 0 0 1-.905-.178.964.964 0 0 1-.388-.837.964.964 0 0 1 .45-.805c.286-.193.757-.428 1.412-.705.656-.278 1.283-.322 1.883-.134.6.19 1.111.542 1.535 1.058.424.516.87 1.161 1.336 1.935.467.773 1.1 1.826 1.898 3.159a152.863 152.863 0 0 0 2.7 4.327 101.102 101.102 0 0 0 2.85 4.2c.9 1.25 1.602 2.391 2.109 3.426.507 1.034.723 1.925.648 2.674-.075.748-.35 1.344-.825 1.788a3.21 3.21 0 0 1-1.718.829c-.67.109-1.47.166-2.396.172-.927.005-2.188.008-3.785.008s-3.343.029-5.24.086a95.927 95.927 0 0 0-5.21.288c-1.575.134-2.948.156-4.118.065-1.17-.091-2.061-.36-2.673-.808-.613-.448-.99-.99-1.132-1.628a3.148 3.148 0 0 1 .164-1.898c.25-.626.607-1.329 1.069-2.108.462-.778 1.091-1.834 1.89-3.166a139.315 139.315 0 0 0 2.531-4.425 98.224 98.224 0 0 0 2.338-4.497c.668-1.38 1.231-2.452 1.688-3.214.456-.762.768-1.217.936-1.363a1 1 0 0 1 .584-.249c.222-.02.428.028.619.142.19.115.33.274.417.479l-1.388 3.244Z" fill="currentColor" stroke="currentColor" stroke-width="2" stroke-linecap="round" stroke-linejoin="round"/><path d="M16.21 12.38a2398.906 2398.906 0 0 0 .036 1.113l.008 1.149c.006.765-.078 1.318-.252 1.659-.173.34-.449.54-.826.6a1.068 1.068 0 0 1-.972-.315 1.068 1.068 0 0 1-.315-.972c.06-.377.26-.653.6-.826.34-.174.681-.174 1.022 0 .34.173.54.449.6.826.06.377-.045.701-.316.972-.27.27-.594.375-.971.315a1.068 1.068 0 0 1-.826-.6c-.174-.34-.258-.894-.252-1.66.005-.765.014-1.333.026-1.704.011-.37.017-.664.017-.88 0-.215.039-.442.116-.679.077-.237.216-.429.418-.576a1.13 1.13 0 0 1 .677-.22c.25 0 .475.074.677.22l.534 1.579Zm-1.204 7.725.345.112.344.112.213.293c.142.196.213.414.213.656 0 .242-.07.46-.213.655-.142.196-.327.33-.557.406a1.1 1.1 0 0 1-.69 0 1.089 1.089 0 0 1-.557-.405 1.089 1.089 0 0 1-.213-.656c0-.242.071-.46.213-.655l.902-.518Z" fill="currentColor" stroke="currentColor" stroke-width="2" stroke-linecap="round" stroke-linejoin="round"/></svg>