<svg width="30" height="30" fill="none" xmlns="http://www.w3.org/2000/svg"><path d="m18.892 13.662-1.669-.118-1.668-.118-3.446-.126c-2.297-.084-3.536-.173-3.718-.265a.57.57 0 0 1-.32-.441.57.57 0 0 1 .168-.518.57.57 0 0 1 .519-.169.57.57 0 0 1 .44.32.57.57 0 0 1 0 .546.57.57 0 0 1-.44.32.57.57 0 0 1-.519-.169.57.57 0 0 1-.168-.518.57.57 0 0 1 .32-.44c.182-.093 1.421-.182 3.718-.266 2.297-.084 4.002-.165 5.114-.244a39.477 39.477 0 0 1 2.639-.118c.647 0 1.084.037 1.312.11.227.075.412.208.553.402.14.194.21.41.21.65 0 .24-.07.456-.21.65l-2.835.512Zm2.032-5.11-2.503-.22-2.502-.219-5.168-.072c-3.446-.048-5.232-.104-5.358-.169a.396.396 0 0 1-.223-.307.396.396 0 0 1 .117-.36c.1-.1.22-.14.361-.118a.4.4 0 0 1 .307.223.396.396 0 0 1 0 .38.396.396 0 0 1-.307.223.396.396 0 0 1-.36-.118.394.394 0 0 1-.118-.36.396.396 0 0 1 .223-.307c.126-.065 1.912-.12 5.358-.17 3.445-.047 6.002-.145 7.67-.29 1.669-.147 2.988-.22 3.959-.22.97 0 1.558.033 1.764.1a.977.977 0 0 1 .5.364.977.977 0 0 1 .192.588.977.977 0 0 1-.191.588l-3.72.464Zm0 10-2.503-.22-2.502-.219-5.168-.072c-3.446-.048-5.232-.105-5.358-.169a.396.396 0 0 1-.223-.307.396.396 0 0 1 .117-.36c.1-.1.22-.14.361-.117.14.022.242.096.307.222a.396.396 0 0 1 0 .38.396.396 0 0 1-.307.223.396.396 0 0 1-.36-.118.394.394 0 0 1-.118-.36.396.396 0 0 1 .223-.307c.126-.065 1.912-.12 5.358-.17 3.445-.047 6.002-.145 7.67-.29 1.669-.147 2.988-.22 3.959-.22.97 0 1.558.033 1.764.1a.977.977 0 0 1 .5.364.977.977 0 0 1 .192.588.977.977 0 0 1-.191.588l-3.72.464Zm-2.032 5.11-1.669-.118-1.668-.118-3.446-.126c-2.297-.084-3.536-.173-3.718-.265a.57.57 0 0 1-.32-.441.57.57 0 0 1 .168-.518.57.57 0 0 1 .519-.169.57.57 0 0 1 .44.32.57.57 0 0 1 0 .546.57.57 0 0 1-.44.32.57.57 0 0 1-.519-.169.57.57 0 0 1-.168-.518.57.57 0 0 1 .32-.44c.182-.093 1.421-.182 3.718-.266 2.297-.084 4.002-.165 5.114-.244a39.477 39.477 0 0 1 2.639-.118c.647 0 1.084.037 1.312.11.227.075.412.209.553.402.14.194.21.41.21.65 0 .24-.07.456-.21.65l-2.835.512Z" fill="currentColor" stroke="currentColor" stroke-width="2" stroke-linecap="round" stroke-linejoin="round"/></svg>