<svg width="30" height="30" fill="none" xmlns="http://www.w3.org/2000/svg"><path d="m20.924 13.552-2.503-.22-2.502-.219-5.168-.072c-3.446-.048-5.232-.104-5.358-.169a.396.396 0 0 1-.223-.307.396.396 0 0 1 .117-.36c.1-.1.22-.14.361-.117.14.022.242.096.307.222a.396.396 0 0 1 0 .38.396.396 0 0 1-.307.223.396.396 0 0 1-.36-.118.394.394 0 0 1-.118-.36.396.396 0 0 1 .223-.307c.126-.065 1.912-.12 5.358-.17 3.445-.047 6.002-.145 7.67-.29 1.669-.147 2.988-.22 3.959-.22.97 0 1.558.033 1.764.1a.977.977 0 0 1 .5.364.977.977 0 0 1 .192.588.977.977 0 0 1-.191.588l-3.72.464Zm0-5-2.503-.22-2.502-.219-5.168-.072c-3.446-.048-5.232-.104-5.358-.169a.396.396 0 0 1-.223-.307.396.396 0 0 1 .117-.36c.1-.1.22-.14.361-.118a.4.4 0 0 1 .307.223.396.396 0 0 1 0 .38.396.396 0 0 1-.307.223.396.396 0 0 1-.36-.118.394.394 0 0 1-.118-.36.396.396 0 0 1 .223-.307c.126-.065 1.912-.12 5.358-.17 3.445-.047 6.002-.145 7.67-.29 1.669-.147 2.988-.22 3.959-.22.97 0 1.558.033 1.764.1a.977.977 0 0 1 .5.364.977.977 0 0 1 .192.588.977.977 0 0 1-.191.588l-3.72.464Zm0 10-2.503-.22-2.502-.219-5.168-.072c-3.446-.048-5.232-.105-5.358-.169a.396.396 0 0 1-.223-.307.396.396 0 0 1 .117-.36c.1-.1.22-.14.361-.117.14.022.242.096.307.222a.396.396 0 0 1 0 .38.396.396 0 0 1-.307.223.396.396 0 0 1-.36-.118.394.394 0 0 1-.118-.36.396.396 0 0 1 .223-.307c.126-.065 1.912-.12 5.358-.17 3.445-.047 6.002-.145 7.67-.29 1.669-.147 2.988-.22 3.959-.22.97 0 1.558.033 1.764.1a.977.977 0 0 1 .5.364.977.977 0 0 1 .192.588.977.977 0 0 1-.191.588l-3.72.464Zm0 5-2.503-.22-2.502-.219-5.168-.072c-3.446-.048-5.232-.105-5.358-.169a.396.396 0 0 1-.223-.307.396.396 0 0 1 .117-.36c.1-.1.22-.14.361-.117.14.022.242.096.307.222a.396.396 0 0 1 0 .38.396.396 0 0 1-.307.223.396.396 0 0 1-.36-.118.394.394 0 0 1-.118-.36.396.396 0 0 1 .223-.307c.126-.065 1.912-.12 5.358-.17 3.445-.047 6.002-.145 7.67-.29 1.669-.147 2.988-.22 3.959-.22.97 0 1.558.033 1.764.1a.977.977 0 0 1 .5.364.977.977 0 0 1 .192.588.977.977 0 0 1-.191.588l-3.72.464Z" fill="currentColor" stroke="currentColor" stroke-width="2" stroke-linecap="round" stroke-linejoin="round"/></svg>