<svg width="30" height="30" fill="none" xmlns="http://www.w3.org/2000/svg"><g clip-path="url(#a)" fill="currentColor" stroke="currentColor" stroke-width="2" stroke-linecap="round" stroke-linejoin="round"><path d="m19.653 7.668-.295.637-.296.637-.674.612c-.45.408-1.143.76-2.082 1.058a4.49 4.49 0 0 1-2.826-.02 4.43 4.43 0 0 1-2.28-1.678 4.532 4.532 0 0 1-.852-2.73 4.504 4.504 0 0 1 .904-2.72 4.526 4.526 0 0 1 2.335-1.656c.963-.302 2.08-.11 3.352.577 1.272.686 2.052 1.192 2.34 1.515.288.324.386.698.293 1.12a1.21 1.21 0 0 1-.735.896 1.21 1.21 0 0 1-1.155-.068 1.21 1.21 0 0 1-.625-.975 1.21 1.21 0 0 1 .422-1.078 1.21 1.21 0 0 1 1.12-.293c.423.093.722.338.895.734a1.21 1.21 0 0 1-.068 1.156 1.21 1.21 0 0 1-.975.625c-.43.042-1.03-.239-1.798-.844-.768-.606-1.475-.838-2.12-.698s-1.083.51-1.315 1.114a1.826 1.826 0 0 0 .17 1.72c.345.543.852.835 1.52.873.67.039 1.21-.108 1.623-.442.413-.333.673-.7.78-1.102.107-.401.221-.718.343-.95.122-.23.3-.405.534-.52.234-.117.48-.153.738-.109s.479.16.661.347l.067 2.262Z"/><path d="m13.875 23.264.172-1.947.172-1.947.15-4.02c.1-2.679.183-4.083.25-4.213a.406.406 0 0 1 .314-.229.407.407 0 0 1 .37.12.407.407 0 0 1 .12.37.407.407 0 0 1-.229.315.407.407 0 0 1-.389 0 .407.407 0 0 1-.228-.315.407.407 0 0 1 .12-.37.407.407 0 0 1 .37-.12.407.407 0 0 1 .315.229c.066.13.149 1.534.249 4.214.1 2.68.207 4.668.322 5.966.115 1.298.172 2.324.172 3.079 0 .754-.036 1.242-.107 1.462-.072.22-.202.4-.389.535a1.044 1.044 0 0 1-.629.205 1.04 1.04 0 0 1-.629-.205l-.496-3.13Z"/><path d="m5.578 16.334-.793.032-.793.032-.26-.147c-.173-.098-.15-.182.07-.25.218-.068.42.404.605 1.416.185 1.013.548 2.022 1.09 3.03a10.759 10.759 0 0 0 2.074 2.712 10.88 10.88 0 0 0 6.144 2.91c1.156.147 2.307.11 3.453-.109a11.012 11.012 0 0 0 5.974-3.299 11.034 11.034 0 0 0 1.94-2.85c.494-1.046.492-1.882-.007-2.507-.499-.625-.902-1.05-1.21-1.274a1.065 1.065 0 0 1-.461-.91c0-.381.156-.683.465-.907a1.065 1.065 0 0 1 1.007-.157c.362.119.602.36.72.722.116.363.062.699-.163 1.007a1.065 1.065 0 0 1-.909.46c-.381 0-.684-.155-.907-.464a1.065 1.065 0 0 1-.157-1.008c.118-.362.36-.602.722-.719.363-.117 1.111.07 2.244.56 1.133.49 1.745 1.09 1.835 1.8.09.71.047 1.41-.13 2.103a13.091 13.091 0 0 1-.69 2.008 13.477 13.477 0 0 1-2.273 3.555 13.537 13.537 0 0 1-5.17 3.616 13.504 13.504 0 0 1-4.124.91 13.595 13.595 0 0 1-6.223-1.09 13.637 13.637 0 0 1-3.577-2.263 13.83 13.83 0 0 1-2.735-3.259 13.838 13.838 0 0 1-.954-1.888c-.269-.651-.48-1.502-.632-2.553-.153-1.05-.014-1.883.417-2.496.43-.613.842-.97 1.234-1.067.392-.098.853-.137 1.38-.116.53.022.917.032 1.164.032.247 0 .49.04.728.116.238.078.43.217.577.42.147.202.22.428.22.678 0 .25-.073.477-.22.679l-1.675.535Z"/></g><defs><clipPath id="a"><path fill="#fff" d="M0 0h30v30H0z"/></clipPath></defs></svg>