<svg width="30" height="30" fill="none" xmlns="http://www.w3.org/2000/svg"><path d="m27.199 18.99-.98 1.667-.979 1.668-1.402 1.367a13.25 13.25 0 0 1-3.152 2.28 12.767 12.767 0 0 1-3.73 1.255c-1.319.23-2.639.257-3.96.081a12.498 12.498 0 0 1-3.744-1.103 12.307 12.307 0 0 1-5.523-5.213 12.315 12.315 0 0 1-1.307-3.68 12.514 12.514 0 0 1-.108-3.946 12.403 12.403 0 0 1 3.267-6.918 12.314 12.314 0 0 1 6.725-3.656 12.53 12.53 0 0 1 3.946-.107c1.32.172 2.567.538 3.743 1.098 1.176.559 2.487 1.672 3.932 3.34 1.446 1.667 2.198 2.566 2.255 2.695a.4.4 0 0 1-.021.38.396.396 0 0 1-.319.205.396.396 0 0 1-.353-.137.396.396 0 0 1-.098-.367.396.396 0 0 1 .24-.294.396.396 0 0 1 .379.021.396.396 0 0 1 .205.319.396.396 0 0 1-.137.353.396.396 0 0 1-.366.098c-.139-.03-.901-.862-2.287-2.494-1.386-1.633-2.622-2.715-3.707-3.246a11.493 11.493 0 0 0-3.46-1.056 11.614 11.614 0 0 0-3.661.06 11.412 11.412 0 0 0-6.27 3.32 11.498 11.498 0 0 0-3.097 6.38 11.614 11.614 0 0 0 .06 3.661 11.412 11.412 0 0 0 3.32 6.27 11.422 11.422 0 0 0 6.38 3.094c1.222.17 2.437.143 3.646-.083a11.147 11.147 0 0 0 3.381-1.21 10.91 10.91 0 0 0 2.753-2.157c.79-.858 1.42-1.798 1.89-2.82.472-1.022.848-2.166 1.128-3.43.28-1.263.47-1.979.567-2.145a.87.87 0 0 1 .414-.365.871.871 0 0 1 .55-.052.871.871 0 0 1 .474.28l-.594 4.587Z" fill="currentColor" stroke="currentColor" stroke-width="2" stroke-linecap="round" stroke-linejoin="round"/><path d="m20.74 12.428.708 1.435.707 1.435L23.7 18.21c1.03 1.943 1.55 3.023 1.562 3.24a.61.61 0 0 1-.238.534.61.61 0 0 1-.57.122.61.61 0 0 1-.435-.391.61.61 0 0 1 .061-.58.61.61 0 0 1 .506-.293.61.61 0 0 1 .533.238.61.61 0 0 1 .122.57.61.61 0 0 1-.391.435.61.61 0 0 1-.58-.061c-.184-.12-.86-1.11-2.027-2.973a181.377 181.377 0 0 0-2.64-4.124 40.565 40.565 0 0 1-1.354-2.133c-.309-.536-.489-.921-.539-1.157a1.087 1.087 0 0 1 .072-.684c.098-.22.252-.391.46-.512.21-.12.433-.168.673-.143l1.826 2.13Z" fill="currentColor" stroke="currentColor" stroke-width="2" stroke-linecap="round" stroke-linejoin="round"/><path d="M15.558 8.83a82914.09 82914.09 0 0 0 3.192.21l3.296.12c2.198.079 3.394.168 3.588.267a.61.61 0 0 1 .343.472.61.61 0 0 1-.18.556.61.61 0 0 1-.555.18.61.61 0 0 1-.472-.343.61.61 0 0 1 0-.584.61.61 0 0 1 .472-.343.61.61 0 0 1 .555.18.61.61 0 0 1 .18.556.61.61 0 0 1-.343.472c-.194.099-1.39.188-3.588.268-2.197.08-3.828.154-4.892.224a40.54 40.54 0 0 1-2.524.105c-.62 0-1.043-.037-1.273-.111a1.086 1.086 0 0 1-.556-.405 1.087 1.087 0 0 1-.213-.654c0-.241.071-.46.213-.654l2.757-.516Z" fill="currentColor" stroke="currentColor" stroke-width="2" stroke-linecap="round" stroke-linejoin="round"/><path d="m10.002 11.401.89-1.33.89-1.329 1.75-2.794c1.168-1.863 1.843-2.854 2.026-2.973a.61.61 0 0 1 .58-.06.61.61 0 0 1 .391.433.61.61 0 0 1-.121.571.61.61 0 0 1-.533.238.61.61 0 0 1-.506-.292.61.61 0 0 1-.061-.581.61.61 0 0 1 .434-.39.61.61 0 0 1 .571.12.61.61 0 0 1 .238.534c-.012.218-.533 1.299-1.563 3.24a181.529 181.529 0 0 0-2.251 4.349 40.46 40.46 0 0 1-1.171 2.238c-.31.536-.554.885-.733 1.046-.18.162-.39.255-.629.28a1.088 1.088 0 0 1-.673-.143 1.087 1.087 0 0 1-.46-.511l.931-2.646Z" fill="currentColor" stroke="currentColor" stroke-width="2" stroke-linecap="round" stroke-linejoin="round"/><path d="m9.26 17.572-.708-1.435-.707-1.435L6.3 11.79C5.27 9.848 4.75 8.767 4.738 8.55a.61.61 0 0 1 .238-.534.61.61 0 0 1 .57-.122.61.61 0 0 1 .435.391.61.61 0 0 1-.061.58.61.61 0 0 1-.506.293.61.61 0 0 1-.533-.238.61.61 0 0 1-.122-.57.61.61 0 0 1 .391-.435.61.61 0 0 1 .58.061c.184.12.86 1.11 2.027 2.973a181.243 181.243 0 0 0 2.64 4.124 40.632 40.632 0 0 1 1.354 2.133c.309.536.489.922.539 1.157.05.236.026.464-.072.685-.098.22-.252.39-.46.51a1.08 1.08 0 0 1-.673.144l-1.826-2.13Z" fill="currentColor" stroke="currentColor" stroke-width="2" stroke-linecap="round" stroke-linejoin="round"/><path d="m14.442 21.17-1.596-.105-1.596-.105-3.296-.12c-2.198-.079-3.394-.168-3.588-.267a.61.61 0 0 1-.343-.472.61.61 0 0 1 .18-.556.61.61 0 0 1 .555-.18.61.61 0 0 1 .472.343c.1.195.1.39 0 .584a.61.61 0 0 1-.472.343.61.61 0 0 1-.555-.18.61.61 0 0 1-.18-.556.61.61 0 0 1 .343-.472c.194-.099 1.39-.188 3.588-.268 2.197-.08 3.828-.154 4.892-.224a40.54 40.54 0 0 1 2.524-.105c.62 0 1.043.037 1.272.111.23.075.415.21.557.405.142.195.213.413.213.654 0 .241-.071.46-.213.654l-2.757.516Z" fill="currentColor" stroke="currentColor" stroke-width="2" stroke-linecap="round" stroke-linejoin="round"/><path d="m19.997 18.599-.889 1.33-.889 1.329-1.751 2.794c-1.168 1.863-1.843 2.854-2.026 2.973a.61.61 0 0 1-.58.06.61.61 0 0 1-.391-.433.61.61 0 0 1 .121-.571.61.61 0 0 1 .533-.238.61.61 0 0 1 .506.292.61.61 0 0 1 .061.581.61.61 0 0 1-.434.39.61.61 0 0 1-.571-.12.61.61 0 0 1-.237-.534c.011-.218.532-1.299 1.562-3.24 1.03-1.943 1.78-3.392 2.251-4.349.472-.956.862-1.703 1.171-2.238.31-.536.554-.885.733-1.046.18-.162.39-.255.629-.28.24-.025.464.023.673.143.209.12.362.291.46.511l-.931 2.646Z" fill="currentColor" stroke="currentColor" stroke-width="2" stroke-linecap="round" stroke-linejoin="round"/></svg>