<svg width="30" height="30" fill="none" xmlns="http://www.w3.org/2000/svg"><g clip-path="url(#a)" fill="currentColor" stroke="currentColor" stroke-width="2" stroke-linecap="round" stroke-linejoin="round"><path d="m27.051 12.411-.144 1.808-.144 1.807-.153 2.183a106.3 106.3 0 0 0-.211 4.07c-.04 1.26-.154 2.265-.344 3.017-.19.751-.718 1.234-1.584 1.448-.867.213-2.162.307-3.885.282a289.371 289.371 0 0 0-5.611-.023c-2.018.01-3.883.012-5.595.006-1.712-.006-3.045-.228-3.999-.665-.953-.437-1.596-1.46-1.927-3.067-.332-1.608-.5-3.659-.505-6.153-.005-2.495.024-3.806.087-3.933a.396.396 0 0 1 .305-.226c.14-.024.26.014.362.113a.396.396 0 0 1 .12.36.397.397 0 0 1-.219.308.396.396 0 0 1-.379.005.396.396 0 0 1-.226-.305.396.396 0 0 1 .113-.361.396.396 0 0 1 .36-.122c.14.02.243.094.309.22.065.125.113 1.43.14 3.911.03 2.482.13 4.44.305 5.877.175 1.435.664 2.318 1.47 2.648.805.33 2.048.489 3.728.478 1.68-.011 3.526-.021 5.537-.031a78.111 78.111 0 0 0 6.06-.266c2.027-.168 3.276-.516 3.746-1.044.47-.528.686-1.387.647-2.578-.04-1.191-.11-2.514-.211-3.97a396.68 396.68 0 0 0-.297-3.99c-.096-1.204-.144-2.157-.144-2.858 0-.7.036-1.163.109-1.388.073-.224.205-.406.395-.544.191-.139.405-.208.64-.208.236 0 .45.07.64.208l.505 2.983Z"/><path d="m5.006 2.928 3.06.253 3.058.253h10.5c2.074 0 3.67.091 4.787.272 1.117.18 1.897.68 2.34 1.498a6.12 6.12 0 0 1 .721 2.699c.039.98-.105 1.69-.43 2.129-.327.438-1.005.69-2.036.752-1.03.062-2.577.048-4.638-.042s-4.323-.134-6.787-.13c-2.463.004-4.732.006-6.807.006s-3.671-.089-4.788-.269c-1.117-.18-1.912-1.085-2.385-2.715C1.128 6.004.915 5.106.964 4.94a.484.484 0 0 1 .317-.338.484.484 0 0 1 .46.06.484.484 0 0 1 .222.405.484.484 0 0 1-.197.419.484.484 0 0 1-.455.086.484.484 0 0 1-.338-.317.484.484 0 0 1 .06-.46.484.484 0 0 1 .405-.222.484.484 0 0 1 .419.197c.106.137.254.861.443 2.172.19 1.31.799 2.095 1.828 2.354 1.03.259 2.58.388 4.65.386 2.072-.001 4.338-.004 6.799-.008 2.461-.003 4.7-.065 6.718-.185 2.017-.12 3.517-.21 4.5-.267.984-.057 1.506-.303 1.57-.738.062-.434-.015-1.103-.232-2.005-.216-.902-.839-1.48-1.866-1.731-1.028-.252-2.578-.378-4.65-.377h-6.8c-2.462 0-4.713.085-6.752.253-2.04.169-3.652.253-4.838.253s-1.874-.031-2.065-.093a.905.905 0 0 1-.463-.337.905.905 0 0 1-.177-.544c0-.201.059-.383.177-.545l4.307-.43ZM13.63 13.79l.557-.018.556-.018 1.149-.008c.765-.006 1.318.078 1.659.252.34.173.54.449.6.826.06.377-.045.701-.315.972-.27.27-.595.375-.972.315a1.068 1.068 0 0 1-.826-.6 1.067 1.067 0 0 1 0-1.022c.173-.34.449-.54.826-.6.377-.06.701.045.972.316.27.27.375.594.315.971s-.26.653-.6.826c-.34.174-.894.258-1.66.252a76.888 76.888 0 0 1-1.704-.026 31.63 31.63 0 0 0-.88-.017c-.215 0-.442-.039-.679-.116a1.124 1.124 0 0 1-.576-.418 1.124 1.124 0 0 1-.22-.677c0-.25.074-.475.22-.677l1.579-.534Z"/></g><defs><clipPath id="a"><path fill="#fff" d="M0 0h30v30H0z"/></clipPath></defs></svg>