<svg width="30" height="30" fill="none" xmlns="http://www.w3.org/2000/svg"><path d="m27.199 18.99-.98 1.667-.979 1.668-1.402 1.367a13.253 13.253 0 0 1-3.152 2.28 12.767 12.767 0 0 1-3.73 1.255c-1.319.23-2.639.257-3.96.081a12.498 12.498 0 0 1-3.744-1.103 12.306 12.306 0 0 1-5.523-5.213 12.314 12.314 0 0 1-1.307-3.68 12.514 12.514 0 0 1-.108-3.946 12.403 12.403 0 0 1 3.267-6.918 12.314 12.314 0 0 1 6.725-3.656 12.53 12.53 0 0 1 3.946-.107c1.32.172 2.567.538 3.743 1.098 1.176.559 2.487 1.672 3.932 3.34 1.446 1.667 2.198 2.566 2.255 2.695a.4.4 0 0 1-.021.38.396.396 0 0 1-.319.205.396.396 0 0 1-.353-.137.396.396 0 0 1-.098-.367.396.396 0 0 1 .24-.294.396.396 0 0 1 .379.021.396.396 0 0 1 .205.319.396.396 0 0 1-.137.353.396.396 0 0 1-.366.098c-.139-.03-.901-.862-2.287-2.494-1.386-1.633-2.622-2.715-3.707-3.246a11.494 11.494 0 0 0-3.46-1.056 11.614 11.614 0 0 0-3.661.06 11.411 11.411 0 0 0-6.27 3.32 11.497 11.497 0 0 0-3.097 6.38 11.614 11.614 0 0 0 .06 3.661 11.412 11.412 0 0 0 3.32 6.27 11.422 11.422 0 0 0 6.38 3.094c1.222.17 2.437.143 3.646-.083a11.147 11.147 0 0 0 3.381-1.21c1.045-.58 1.963-1.3 2.753-2.157.79-.858 1.42-1.798 1.89-2.82.472-1.022.848-2.166 1.128-3.43.28-1.263.47-1.979.567-2.145a.87.87 0 0 1 .414-.365.871.871 0 0 1 .55-.052.871.871 0 0 1 .474.28l-.594 4.587Z" fill="currentColor" stroke="currentColor" stroke-width="2" stroke-linecap="round" stroke-linejoin="round"/><path d="m14.722 11.994-.551.56-.552.561-.742.661c-.494.44-.863.9-1.108 1.38-.244.48.148 1.19 1.178 2.13s1.595 1.593 1.697 1.959a1.06 1.06 0 0 1-.202.993 1.06 1.06 0 0 1-.922.422 1.06 1.06 0 0 1-.883-.5 1.06 1.06 0 0 1-.116-1.007 1.06 1.06 0 0 1 .747-.685 1.06 1.06 0 0 1 .994.201c.297.236.438.544.421.923a1.06 1.06 0 0 1-.498.883 1.06 1.06 0 0 1-1.008.115c-.355-.133-.917-.58-1.686-1.344-.768-.763-1.372-1.528-1.811-2.295-.44-.768-.441-1.601-.006-2.502.435-.9.912-1.636 1.431-2.21.52-.572.966-1.043 1.34-1.41.373-.368.668-.66.883-.876.216-.215.435-.38.658-.493.223-.114.458-.151.705-.112.247.04.46.147.636.324.177.177.285.389.324.636l-.929 1.686Z" fill="currentColor" stroke="currentColor" stroke-width="2" stroke-linecap="round" stroke-linejoin="round"/><path d="m17.663 16.207-1.113-.027-1.112-.026-2.297-.046c-1.531-.03-2.44-.119-2.726-.264a.898.898 0 0 1-.506-.696.898.898 0 0 1 .266-.817.898.898 0 0 1 .817-.266c.318.05.55.219.696.505a.898.898 0 0 1 0 .86.898.898 0 0 1-.696.505.898.898 0 0 1-.817-.266.898.898 0 0 1-.266-.817.898.898 0 0 1 .505-.696c.287-.146 1.196-.234 2.727-.264s2.668-.055 3.41-.072a77.83 77.83 0 0 1 1.759-.027c.43 0 .765.038 1.001.115.237.077.428.216.574.417.146.201.22.426.22.675 0 .249-.074.474-.22.675l-2.222.532Z" fill="currentColor" stroke="currentColor" stroke-width="2" stroke-linecap="round" stroke-linejoin="round"/></svg>