<svg width="30" height="30" fill="none" xmlns="http://www.w3.org/2000/svg"><path d="m19.514 16.125-1.947-.172-1.947-.172-4.019-.15c-2.68-.1-4.084-.183-4.214-.25a.407.407 0 0 1-.229-.314.406.406 0 0 1 .12-.37.407.407 0 0 1 .37-.12.406.406 0 0 1 .315.229.407.407 0 0 1 0 .389.407.407 0 0 1-.315.228.407.407 0 0 1-.37-.12.406.406 0 0 1-.12-.37.406.406 0 0 1 .229-.315c.13-.066 1.534-.149 4.214-.249 2.68-.1 4.668-.207 5.966-.322 1.298-.115 2.324-.172 3.079-.172.754 0 1.242.036 1.462.107.22.072.4.202.535.389.137.188.205.397.205.629 0 .232-.068.441-.204.629l-3.13.496Z" fill="currentColor" stroke="currentColor" stroke-width="2" stroke-linecap="round" stroke-linejoin="round"/><path d="m12.256 22.433-.926-1.02-.927-1.02-1.107-1.243a166.73 166.73 0 0 0-2.099-2.316c-.66-.715-1.08-1.438-1.26-2.17-.178-.733.106-1.646.85-2.738.746-1.093 1.802-2.301 3.17-3.625 1.368-1.325 2.167-2.025 2.397-2.102a.678.678 0 0 1 .641.096.678.678 0 0 1 .3.576.678.678 0 0 1-.29.58.678.678 0 0 1-.64.107.678.678 0 0 1-.462-.455.678.678 0 0 1 .096-.642.678.678 0 0 1 .575-.299.678.678 0 0 1 .58.29c.145.195.18.408.107.64-.073.231-.759 1.03-2.058 2.4-1.299 1.368-2.166 2.517-2.6 3.447-.435.93-.409 1.786.08 2.569.487.782 1.145 1.543 1.974 2.28a313.64 313.64 0 0 1 2.263 2.034c.68.618 1.21 1.116 1.587 1.493s.621.675.733.894c.111.218.147.449.11.691-.04.242-.145.45-.319.624-.173.173-.381.28-.623.318l-2.152-1.409Z" fill="currentColor" stroke="currentColor" stroke-width="2" stroke-linecap="round" stroke-linejoin="round"/></svg>