<svg width="30" height="30" fill="none" xmlns="http://www.w3.org/2000/svg"><path d="m27.199 18.99-.98 1.667-.979 1.668-1.402 1.367a13.25 13.25 0 0 1-3.152 2.28 12.767 12.767 0 0 1-3.73 1.255c-1.319.23-2.639.257-3.96.081a12.498 12.498 0 0 1-3.744-1.103 12.307 12.307 0 0 1-5.523-5.213 12.315 12.315 0 0 1-1.307-3.68 12.514 12.514 0 0 1-.108-3.946 12.403 12.403 0 0 1 3.267-6.918 12.314 12.314 0 0 1 6.725-3.656 12.53 12.53 0 0 1 3.946-.107c1.32.172 2.567.538 3.743 1.098 1.176.559 2.487 1.672 3.932 3.34 1.446 1.667 2.198 2.566 2.255 2.695a.4.4 0 0 1-.021.38.396.396 0 0 1-.319.205.396.396 0 0 1-.353-.137.396.396 0 0 1-.098-.367.396.396 0 0 1 .24-.294.396.396 0 0 1 .379.021.396.396 0 0 1 .205.319.396.396 0 0 1-.137.353.396.396 0 0 1-.366.098c-.139-.03-.901-.862-2.287-2.494-1.386-1.633-2.622-2.715-3.707-3.246a11.493 11.493 0 0 0-3.46-1.056 11.614 11.614 0 0 0-3.661.06 11.412 11.412 0 0 0-6.27 3.32 11.498 11.498 0 0 0-3.097 6.38 11.614 11.614 0 0 0 .06 3.661 11.412 11.412 0 0 0 3.32 6.27 11.422 11.422 0 0 0 6.38 3.094c1.222.17 2.437.143 3.646-.083a11.147 11.147 0 0 0 3.381-1.21 10.91 10.91 0 0 0 2.753-2.157c.79-.858 1.42-1.798 1.89-2.82.472-1.022.848-2.166 1.128-3.43.28-1.263.47-1.979.567-2.145a.87.87 0 0 1 .414-.365.871.871 0 0 1 .55-.052.871.871 0 0 1 .474.28l-.594 4.587Z" fill="currentColor" stroke="currentColor" stroke-width="2" stroke-linecap="round" stroke-linejoin="round"/><path d="m18.006 14.722-.56-.551-.561-.552-.661-.742c-.44-.494-.9-.863-1.38-1.108-.48-.244-1.19.148-2.13 1.178s-1.593 1.595-1.959 1.697a1.06 1.06 0 0 1-.993-.202 1.06 1.06 0 0 1-.421-.922 1.06 1.06 0 0 1 .498-.883 1.06 1.06 0 0 1 1.008-.116c.355.133.584.382.685.747a1.06 1.06 0 0 1-.201.994 1.06 1.06 0 0 1-.923.421 1.06 1.06 0 0 1-.883-.498 1.06 1.06 0 0 1-.115-1.008c.133-.355.58-.917 1.344-1.686.763-.768 1.528-1.372 2.295-1.811.768-.44 1.601-.441 2.502-.006.9.435 1.636.912 2.21 1.431.572.52 1.043.966 1.41 1.34.368.373.66.668.876.883.215.216.38.435.493.658.114.223.151.458.112.705a1.13 1.13 0 0 1-.324.636 1.128 1.128 0 0 1-.636.324l-1.686-.929Z" fill="currentColor" stroke="currentColor" stroke-width="2" stroke-linecap="round" stroke-linejoin="round"/><path d="m13.793 17.663.027-1.113.026-1.112.046-2.297c.03-1.531.119-2.44.264-2.726a.898.898 0 0 1 .696-.506.9.9 0 0 1 .817.266c.228.227.316.5.266.817a.898.898 0 0 1-.505.696.899.899 0 0 1-.86 0 .898.898 0 0 1-.505-.696.898.898 0 0 1 .266-.817.898.898 0 0 1 .817-.266c.318.05.55.219.696.505.146.287.234 1.196.264 2.727s.055 2.668.072 3.41c.018.74.027 1.327.027 1.759 0 .43-.038.765-.115 1.001a1.121 1.121 0 0 1-.417.574 1.12 1.12 0 0 1-.675.22 1.12 1.12 0 0 1-.675-.22l-.532-2.222Z" fill="currentColor" stroke="currentColor" stroke-width="2" stroke-linecap="round" stroke-linejoin="round"/></svg>