<svg width="30" height="30" fill="none" xmlns="http://www.w3.org/2000/svg"><path d="M10.486 13.875a26416.275 26416.275 0 0 0 3.893.345l4.02.15c2.68.1 4.084.182 4.214.248.13.066.206.171.229.315a.407.407 0 0 1-.12.37.407.407 0 0 1-.37.12.407.407 0 0 1-.315-.229.407.407 0 0 1 0-.388.407.407 0 0 1 .315-.23.407.407 0 0 1 .37.121.407.407 0 0 1 .12.37.406.406 0 0 1-.229.315c-.13.066-1.534.149-4.214.249-2.68.1-4.668.207-5.966.322-1.298.115-2.324.172-3.079.172-.754 0-1.242-.036-1.462-.107a1.045 1.045 0 0 1-.535-.389A1.045 1.045 0 0 1 7.152 15c0-.232.068-.441.205-.629l3.13-.496Z" fill="currentColor" stroke="currentColor" stroke-width="2" stroke-linecap="round" stroke-linejoin="round"/><path d="m17.744 7.567.926 1.02.927 1.02 1.107 1.243c.738.83 1.438 1.601 2.099 2.316.66.715 1.08 1.438 1.26 2.17.178.733-.106 1.646-.85 2.738-.746 1.093-1.802 2.301-3.17 3.625-1.368 1.325-2.167 2.025-2.397 2.102a.678.678 0 0 1-.641-.096.678.678 0 0 1-.3-.576.678.678 0 0 1 .29-.58.678.678 0 0 1 .64-.107.678.678 0 0 1 .462.455.677.677 0 0 1-.096.642.677.677 0 0 1-.576.299.678.678 0 0 1-.58-.29.678.678 0 0 1-.106-.64c.073-.231.759-1.03 2.058-2.4 1.299-1.368 2.166-2.517 2.6-3.447.435-.93.409-1.786-.08-2.569-.487-.782-1.145-1.543-1.974-2.28a311.148 311.148 0 0 1-2.263-2.034 47.814 47.814 0 0 1-1.586-1.493c-.378-.377-.622-.675-.734-.894a1.105 1.105 0 0 1-.11-.691c.04-.243.145-.45.319-.624.173-.173.381-.28.623-.318l2.152 1.409Z" fill="currentColor" stroke="currentColor" stroke-width="2" stroke-linecap="round" stroke-linejoin="round"/></svg>