<svg width="30" height="30" fill="none" xmlns="http://www.w3.org/2000/svg"><path d="M12.665 11.07a19046.996 19046.996 0 0 0 2.531 3.03l2.765 2.978c1.843 1.985 2.787 3.045 2.83 3.18a.396.396 0 0 1-.059.375.396.396 0 0 1-.338.172.396.396 0 0 1-.338-.172.396.396 0 0 1-.059-.375.396.396 0 0 1 .268-.268.396.396 0 0 1 .375.06.397.397 0 0 1 .172.337.396.396 0 0 1-.172.338.396.396 0 0 1-.375.06c-.135-.044-1.195-.988-3.18-2.831s-3.482-3.187-4.492-4.03c-1.01-.844-1.785-1.536-2.324-2.075-.539-.539-.861-.912-.966-1.117a1.042 1.042 0 0 1-.103-.652c.036-.228.136-.424.3-.588.163-.163.359-.263.587-.3l2.578 1.879Z" fill="currentColor" stroke="currentColor" stroke-width="2" stroke-linecap="round" stroke-linejoin="round"/><path d="m21.017 10.513-.068 1.39-.069 1.39-.098 1.68c-.066 1.119-.118 2.17-.156 3.152-.038.982-.253 1.797-.646 2.444s-1.244 1.094-2.554 1.34c-1.31.246-2.925.353-4.848.321-1.923-.031-2.991-.1-3.205-.207a.667.667 0 0 1-.38-.514.667.667 0 0 1 .193-.609.667.667 0 0 1 .606-.202c.236.036.41.16.52.371a.67.67 0 0 1 .005.639.667.667 0 0 1-.514.38.667.667 0 0 1-.609-.193.667.667 0 0 1-.202-.606.667.667 0 0 1 .371-.52c.212-.11 1.27-.19 3.176-.24 1.906-.05 3.348-.254 4.328-.612.98-.359 1.575-.993 1.787-1.902.212-.909.286-1.923.22-3.042-.066-1.12-.122-2.143-.167-3.07a47.065 47.065 0 0 1-.069-2.199c0-.539.038-.925.114-1.158.075-.233.212-.421.41-.565.199-.145.42-.217.666-.217.245 0 .466.072.665.216l.524 2.533Z" fill="currentColor" stroke="currentColor" stroke-width="2" stroke-linecap="round" stroke-linejoin="round"/></svg>