<svg width="30" height="30" fill="none" xmlns="http://www.w3.org/2000/svg"><path d="m16.125 10.486-.172 1.947-.172 1.947-.15 4.019c-.1 2.68-.183 4.084-.25 4.214a.406.406 0 0 1-.314.229.406.406 0 0 1-.37-.12.406.406 0 0 1-.12-.37.407.407 0 0 1 .229-.315.406.406 0 0 1 .389 0c.13.066.205.17.228.315a.406.406 0 0 1-.12.37.406.406 0 0 1-.37.12.406.406 0 0 1-.315-.229c-.066-.13-.149-1.534-.249-4.214-.1-2.68-.207-4.668-.322-5.966-.115-1.298-.172-2.324-.172-3.079 0-.754.036-1.242.107-1.462.072-.22.202-.4.389-.535A1.04 1.04 0 0 1 15 7.152c.232 0 .441.068.629.205l.496 3.13Z" fill="currentColor" stroke="currentColor" stroke-width="2" stroke-linecap="round" stroke-linejoin="round"/><path d="m22.433 17.744-1.02.926-1.02.927-1.243 1.107c-.83.738-1.601 1.438-2.316 2.099-.715.66-1.438 1.08-2.17 1.26-.733.178-1.646-.106-2.738-.85-1.093-.746-2.301-1.802-3.625-3.17-1.325-1.368-2.025-2.167-2.102-2.397a.678.678 0 0 1 .096-.641.678.678 0 0 1 .576-.3.678.678 0 0 1 .58.29.68.68 0 0 1 .107.64.678.678 0 0 1-.455.462.678.678 0 0 1-.642-.096.678.678 0 0 1-.299-.576.678.678 0 0 1 .29-.58.678.678 0 0 1 .64-.106c.231.073 1.03.759 2.4 2.058 1.368 1.299 2.517 2.166 3.447 2.6.93.435 1.786.409 2.569-.08.782-.487 1.543-1.145 2.28-1.974.739-.829 1.417-1.583 2.035-2.263a47.688 47.688 0 0 1 1.492-1.586c.377-.378.675-.622.894-.734.218-.111.449-.147.691-.11.242.04.45.145.624.319.173.173.28.381.318.623l-1.409 2.152Z" fill="currentColor" stroke="currentColor" stroke-width="2" stroke-linecap="round" stroke-linejoin="round"/></svg>