<svg width="30" height="30" fill="none" xmlns="http://www.w3.org/2000/svg"><path d="M18.93 12.665s-.506.421-1.516 1.266L15.9 15.196l-2.977 2.765c-1.985 1.843-3.045 2.787-3.18 2.83a.396.396 0 0 1-.375-.059.396.396 0 0 1-.172-.338c0-.142.058-.254.172-.338a.396.396 0 0 1 .375-.059.396.396 0 0 1 .268.268.396.396 0 0 1-.06.375.396.396 0 0 1-.337.172.396.396 0 0 1-.338-.172.396.396 0 0 1-.06-.375c.044-.135.988-1.195 2.831-3.18s3.187-3.482 4.03-4.492c.844-1.01 1.536-1.785 2.075-2.324.539-.539.912-.861 1.117-.966.206-.105.424-.14.652-.103.228.036.424.136.588.3.163.163.263.359.3.587l-1.879 2.578Z" fill="currentColor" stroke="currentColor" stroke-width="2" stroke-linecap="round" stroke-linejoin="round"/><path d="m19.487 21.017-1.39-.068-1.391-.069-1.679-.098a155.68 155.68 0 0 0-3.152-.156c-.982-.038-1.796-.253-2.444-.646-.647-.393-1.094-1.244-1.34-2.554-.246-1.31-.353-2.925-.321-4.848.031-1.923.1-2.991.207-3.205a.667.667 0 0 1 .514-.38.667.667 0 0 1 .609.193.67.67 0 0 1 .202.606.667.667 0 0 1-.371.52.667.667 0 0 1-.639.005.667.667 0 0 1-.38-.514.667.667 0 0 1 .193-.609.667.667 0 0 1 .606-.202c.236.035.41.16.52.371.11.212.19 1.27.24 3.176.05 1.906.254 3.348.612 4.328.359.98.993 1.575 1.902 1.787.909.212 1.923.286 3.042.22a327.03 327.03 0 0 1 3.07-.168 48.02 48.02 0 0 1 2.198-.068c.54 0 .926.038 1.159.114.233.075.421.212.566.41.143.199.216.42.216.666 0 .245-.073.466-.216.665l-2.533.524Z" fill="currentColor" stroke="currentColor" stroke-width="2" stroke-linecap="round" stroke-linejoin="round"/></svg>