<svg width="30" height="30" fill="none" xmlns="http://www.w3.org/2000/svg"><path d="m11.07 17.335 1.516-1.265 1.515-1.266 2.977-2.765c1.985-1.843 3.045-2.787 3.18-2.83a.396.396 0 0 1 .375.059.396.396 0 0 1 .172.338.396.396 0 0 1-.172.338.397.397 0 0 1-.375.06.396.396 0 0 1-.268-.27.396.396 0 0 1 .06-.374.396.396 0 0 1 .337-.172c.142 0 .255.058.338.172a.4.4 0 0 1 .06.375c-.044.135-.988 1.195-2.831 3.18s-3.187 3.482-4.03 4.492c-.844 1.01-1.536 1.785-2.075 2.324-.539.539-.912.861-1.117.966-.207.105-.424.14-.652.103a1.041 1.041 0 0 1-.588-.3 1.042 1.042 0 0 1-.3-.587l1.879-2.578Z" fill="currentColor" stroke="currentColor" stroke-width="2" stroke-linecap="round" stroke-linejoin="round"/><path d="M10.513 8.983a96571.184 96571.184 0 0 0 2.78.137l1.68.098c1.119.066 2.17.118 3.152.156.982.038 1.797.253 2.444.646s1.094 1.244 1.34 2.553c.246 1.31.353 2.926.321 4.849-.031 1.923-.1 2.991-.207 3.205a.667.667 0 0 1-.514.38.667.667 0 0 1-.609-.193.667.667 0 0 1-.202-.606.667.667 0 0 1 .371-.52.667.667 0 0 1 .639-.005.67.67 0 0 1 .38.514.667.667 0 0 1-.193.609.667.667 0 0 1-.606.202.667.667 0 0 1-.52-.371c-.11-.212-.19-1.27-.24-3.176-.05-1.906-.254-3.348-.612-4.328-.359-.98-.993-1.575-1.902-1.787-.909-.213-1.923-.286-3.042-.22-1.12.066-2.143.122-3.07.167a46.85 46.85 0 0 1-2.199.069c-.539 0-.925-.038-1.158-.114a1.105 1.105 0 0 1-.565-.41 1.104 1.104 0 0 1-.217-.666c0-.245.072-.467.216-.665l2.533-.524Z" fill="currentColor" stroke="currentColor" stroke-width="2" stroke-linecap="round" stroke-linejoin="round"/></svg>