<svg width="30" height="30" fill="none" xmlns="http://www.w3.org/2000/svg"><path d="m17.335 18.93-1.265-1.516-1.266-1.515-2.765-2.977c-1.843-1.985-2.787-3.045-2.83-3.18a.396.396 0 0 1 .059-.375.396.396 0 0 1 .338-.172c.142 0 .254.058.338.172a.4.4 0 0 1 .06.375.396.396 0 0 1-.27.268.396.396 0 0 1-.374-.06.396.396 0 0 1-.172-.337c0-.142.058-.255.172-.338a.396.396 0 0 1 .375-.06c.135.044 1.195.988 3.18 2.831s3.482 3.187 4.492 4.03c1.01.844 1.785 1.536 2.324 2.075.539.54.861.912.966 1.117.105.206.14.424.103.652a1.041 1.041 0 0 1-.3.588 1.048 1.048 0 0 1-.587.3l-2.578-1.879Z" fill="currentColor" stroke="currentColor" stroke-width="2" stroke-linecap="round" stroke-linejoin="round"/><path d="m8.983 19.487.068-1.39.069-1.391.098-1.679c.066-1.12.118-2.17.156-3.152.038-.982.253-1.796.646-2.444.393-.647 1.244-1.094 2.554-1.34 1.31-.246 2.925-.353 4.848-.321 1.923.031 2.991.1 3.205.207.213.107.34.278.38.514a.667.667 0 0 1-.193.609.667.667 0 0 1-.606.202.667.667 0 0 1-.52-.371.667.667 0 0 1-.005-.639.667.667 0 0 1 .514-.38.667.667 0 0 1 .609.193c.17.168.238.37.202.606a.667.667 0 0 1-.371.52c-.212.11-1.27.19-3.176.24-1.906.05-3.348.254-4.328.612-.98.359-1.575.993-1.787 1.902-.213.909-.286 1.923-.22 3.042.066 1.12.122 2.143.168 3.07.045.926.068 1.66.068 2.198 0 .54-.038.926-.114 1.159a1.104 1.104 0 0 1-.41.566c-.199.143-.42.216-.666.216-.245 0-.466-.073-.665-.216l-.524-2.533Z" fill="currentColor" stroke="currentColor" stroke-width="2" stroke-linecap="round" stroke-linejoin="round"/></svg>