<svg width="30" height="30" fill="none" xmlns="http://www.w3.org/2000/svg"><g clip-path="url(#a)" fill="currentColor" stroke="currentColor" stroke-width="2" stroke-linecap="round" stroke-linejoin="round"><path d="m20.922 16.808-.58.927-.578.927-1.24 1.015c-.826.678-1.554 1.083-2.184 1.218a6.054 6.054 0 0 1-1.904.1A6.037 6.037 0 0 1 11.04 19.5a5.958 5.958 0 0 1-1.86-3.22 6.07 6.07 0 0 1-.1-1.912 6.054 6.054 0 0 1 1.504-3.403 5.97 5.97 0 0 1 3.226-1.86 6.092 6.092 0 0 1 1.914-.1c.641.068 1.519.55 2.632 1.448 1.113.898 1.8 1.493 2.061 1.787.262.294.35.633.266 1.018a1.099 1.099 0 0 1-.667.813 1.1 1.1 0 0 1-1.05-.062 1.1 1.1 0 0 1-.567-.886c-.038-.391.09-.717.383-.979.294-.261.634-.35 1.018-.266.384.085.655.307.813.668.158.36.137.71-.062 1.05a1.097 1.097 0 0 1-.885.566c-.392.04-1.001-.331-1.828-1.11-.826-.78-1.617-1.214-2.37-1.305-.754-.09-1.44.041-2.057.396a3.192 3.192 0 0 0-1.363 1.523 3.281 3.281 0 0 0-.212 2.05c.15.707.49 1.3 1.02 1.78s1.16.758 1.891.833a3.358 3.358 0 0 0 2.046-.425c.634-.358 1.088-.724 1.363-1.096.275-.371.469-.81.58-1.316.113-.505.233-.864.363-1.077.13-.213.31-.367.539-.464.23-.096.466-.115.708-.058.243.058.445.181.608.37l-.032 2.545Z"/><path d="m20.966 10.848.012.695.012.695.005.95c.004.633.045 1.34.123 2.12.08.78.304 1.434.674 1.965.37.53.873.816 1.507.856.635.04 1.16-.176 1.574-.65.414-.472.636-1.073.666-1.803.03-.73-.025-1.556-.165-2.479-.14-.922-.4-1.83-.784-2.721a10.475 10.475 0 0 0-1.503-2.482A10.567 10.567 0 0 0 20.951 6a10.848 10.848 0 0 0-5.483-1.942A10.96 10.96 0 0 0 9.75 5.221a10.963 10.963 0 0 0-4.32 3.933 10.985 10.985 0 0 0-1.702 5.593c-.026.99.08 1.968.318 2.934A10.982 10.982 0 0 0 6.9 22.783a10.992 10.992 0 0 0 2.334 1.806 10.948 10.948 0 0 0 5.677 1.474c1.008-.015 2.153-.216 3.434-.604 1.281-.387 2.1-.52 2.458-.397.358.123.592.366.702.727.111.362.053.694-.175.996-.227.302-.53.45-.908.443a1.056 1.056 0 0 1-.893-.474 1.056 1.056 0 0 1-.14-1.001c.122-.358.365-.592.726-.703.362-.11.694-.052.996.176.302.227.45.53.443.908a1.056 1.056 0 0 1-.474.893c-.31.217-1.444.54-3.402.971-1.959.431-3.539.565-4.741.401a13.429 13.429 0 0 1-6.573-2.805 13.435 13.435 0 0 1-4.218-5.77 13.45 13.45 0 0 1-.817-3.515 13.438 13.438 0 0 1 1.236-7.04 13.448 13.448 0 0 1 4.66-5.424 13.489 13.489 0 0 1 3.238-1.6 13.545 13.545 0 0 1 7.149-.414 13.725 13.725 0 0 1 6.394 3.28A14.044 14.044 0 0 1 26.36 7.89a14.56 14.56 0 0 1 1.571 3.242c.383 1.131.624 2.175.725 3.13.1.956.101 1.787.002 2.493-.1.706-.35 1.388-.75 2.045a5.174 5.174 0 0 1-1.605 1.646c-.67.44-1.4.702-2.194.786a4.854 4.854 0 0 1-2.293-.298 4.783 4.783 0 0 1-1.883-1.303 4.863 4.863 0 0 1-1.078-1.974 9.534 9.534 0 0 1-.325-2.307 81.13 81.13 0 0 1-.02-2.162c.003-.633.009-1.182.017-1.645.008-.464.012-.83.012-1.1 0-.27.038-.523.115-.76a1.14 1.14 0 0 1 .42-.578c.202-.147.428-.22.678-.22.25 0 .477.073.679.22l.535 1.743Z"/></g><defs><clipPath id="a"><path fill="#fff" d="M0 0h30v30H0z"/></clipPath></defs></svg>