<svg width="30" height="30" fill="none" xmlns="http://www.w3.org/2000/svg"><g clip-path="url(#a)"><path d="m24.085 12.883-.674 1.241-.675 1.24-1.016 1.032a9.585 9.585 0 0 1-2.31 1.724 9.376 9.376 0 0 1-2.764.962 9.496 9.496 0 0 1-2.948.076 9.41 9.41 0 0 1-2.794-.81 9.211 9.211 0 0 1-2.373-1.597 9.09 9.09 0 0 1-2.75-4.982 9.33 9.33 0 0 1-.095-2.93 9.31 9.31 0 0 1 .795-2.785 9.15 9.15 0 0 1 1.588-2.371A9.07 9.07 0 0 1 13.04.931a9.314 9.314 0 0 1 2.927-.097c.98.122 1.908.386 2.784.792.875.407 1.837 1.203 2.884 2.388 1.048 1.186 1.625 1.9 1.732 2.142a.739.739 0 0 1-.04.706.739.739 0 0 1-.594.383.739.739 0 0 1-.659-.255.739.739 0 0 1-.18-.684.739.739 0 0 1 .446-.548.739.739 0 0 1 .706.04.739.739 0 0 1 .383.593.739.739 0 0 1-.255.66.739.739 0 0 1-.684.18c-.258-.055-.855-.645-1.79-1.77-.934-1.124-1.755-1.864-2.462-2.221a7.427 7.427 0 0 0-2.26-.716 7.578 7.578 0 0 0-2.396.02 7.542 7.542 0 0 0-4.126 2.132 7.449 7.449 0 0 0-2.072 4.152 7.57 7.57 0 0 0 .022 2.394 7.519 7.519 0 0 0 2.134 4.115 7.394 7.394 0 0 0 4.142 2.049 7.435 7.435 0 0 0 2.376-.039 7.36 7.36 0 0 0 4.037-2.145c.53-.551.963-1.16 1.3-1.827.337-.666.604-1.442.8-2.326.196-.885.354-1.426.473-1.624a1.04 1.04 0 0 1 .498-.432c.213-.09.432-.109.657-.057.225.053.413.166.564.34l-.302 3.607Z" fill="currentColor" stroke="currentColor" stroke-width="2" stroke-linecap="round" stroke-linejoin="round"/><path d="m11.037 19.079-.218 1.26-.218 1.26-.281 1.519a67.64 67.64 0 0 1-.548 2.687c-.177.778-.257 1.183-.238 1.212.018.03.455-.231 1.31-.784a12.57 12.57 0 0 1 2.658-1.311 4.056 4.056 0 0 1 2.717-.027c.896.303 2.062.925 3.499 1.867 1.436.94 2.166 1.538 2.189 1.791.023.253-.031.49-.162.708-.13.218-.312.377-.546.477-.234.1-.402.06-.505-.118-.102-.178-.315-.62-.639-1.325a6.564 6.564 0 0 1-.58-2.205c-.065-.765-.186-2.02-.365-3.764-.178-1.744-.218-2.754-.119-3.03a.82.82 0 0 1 .57-.538.82.82 0 0 1 .771.145.82.82 0 0 1 .336.709.82.82 0 0 1-.377.688.82.82 0 0 1-.777.1.82.82 0 0 1-.538-.57.82.82 0 0 1 .145-.771.82.82 0 0 1 .709-.336.82.82 0 0 1 .688.377c.165.242.386 1.234.661 2.976.276 1.742.455 3.08.537 4.016.083.936.13 1.517.14 1.743.011.225.028.465.05.718.024.253-.03.49-.16.708a1.15 1.15 0 0 1-.547.477c-.234.1-1.234-.368-3-1.406-1.767-1.037-3.052-1.463-3.856-1.277a7.652 7.652 0 0 0-2.15.831 7.841 7.841 0 0 1-2.112.836c-.779.19-1.317-.016-1.613-.616-.296-.601-.42-1.37-.369-2.309.05-.938.117-1.92.2-2.947.084-1.027.165-1.965.244-2.813.08-.85.151-1.52.217-2.01.065-.491.15-.848.257-1.07.107-.224.269-.393.486-.511a1.11 1.11 0 0 1 .692-.128c.245.033.456.134.635.304l.207 2.457Z" fill="currentColor"/><path d="M21.907 28.553c-.023-.253-.753-.85-2.19-1.791-1.436-.942-2.602-1.564-3.498-1.867-.895-.304-1.8-.294-2.717.027-.916.322-1.802.759-2.657 1.311-.856.553-1.293.814-1.311.784-.019-.03.06-.434.238-1.212.178-.779.36-1.674.548-2.687l.281-1.519.218-1.26.218-1.26-.207-2.457a1.113 1.113 0 0 0-.635-.304 1.112 1.112 0 0 0-.692.128 1.113 1.113 0 0 0-.486.51c-.106.223-.192.58-.257 1.07a54.522 54.522 0 0 0-.217 2.01c-.079.85-.16 1.787-.243 2.814-.084 1.026-.15 2.009-.2 2.947-.051.938.072 1.708.368 2.309.296.6.834.806 1.613.616a7.841 7.841 0 0 0 2.112-.836 7.652 7.652 0 0 1 2.15-.83c.804-.187 2.09.24 3.856 1.276 1.766 1.038 2.766 1.506 3 1.406.234-.1.416-.259.546-.477m.162-.708c.023.253-.031.49-.162.708m.162-.708c-.023-.253-.04-.493-.05-.718a64.12 64.12 0 0 0-.14-1.743c-.083-.936-.262-2.274-.538-4.016-.275-1.742-.496-2.734-.661-2.976a.82.82 0 0 0-.688-.377.82.82 0 0 0-.71.336.82.82 0 0 0-.145.77.82.82 0 0 0 .539.571.82.82 0 0 0 .777-.1.82.82 0 0 0 .377-.688.82.82 0 0 0-.336-.709.82.82 0 0 0-.77-.145.82.82 0 0 0-.57.538c-.1.276-.06 1.286.118 3.03.179 1.744.3 2.999.364 3.764.064.765.258 1.5.581 2.205.324.705.537 1.146.64 1.325.102.179.27.218.504.118.234-.1.416-.259.546-.477" stroke="currentColor" stroke-width="2" stroke-linecap="round" stroke-linejoin="round"/></g><defs><clipPath id="a"><path fill="#fff" d="M0 0h30v30H0z"/></clipPath></defs></svg>