<svg width="30" height="30" fill="none" xmlns="http://www.w3.org/2000/svg"><path d="m13.81 22.028.069-1.39.068-1.39.089-2.872c.059-1.914.149-2.989.269-3.225a.74.74 0 0 1 .573-.416.74.74 0 0 1 .674.218.74.74 0 0 1 .219.674.74.74 0 0 1-.417.573.74.74 0 0 1-.708 0 .74.74 0 0 1-.417-.573.74.74 0 0 1 .22-.674.74.74 0 0 1 .673-.218.74.74 0 0 1 .573.416c.12.236.21 1.311.27 3.225.058 1.914.11 3.335.156 4.262.046.927.069 1.66.069 2.199 0 .539-.038.925-.114 1.158a1.104 1.104 0 0 1-.41.566c-.2.144-.42.216-.666.216-.245 0-.467-.072-.665-.216l-.525-2.533Zm7.601-1.812.2-2.224.198-2.225.111-4.594c.074-3.062.143-4.657.208-4.783a.396.396 0 0 1 .307-.223c.14-.022.26.017.36.117.1.1.14.22.117.36a.396.396 0 0 1-.222.308.396.396 0 0 1-.38 0 .396.396 0 0 1-.223-.307.396.396 0 0 1 .118-.36c.1-.101.22-.14.36-.118.14.022.243.096.307.223.064.126.134 1.72.208 4.783.074 3.063.177 5.336.31 6.819.132 1.483.199 2.656.199 3.518 0 .863-.035 1.4-.104 1.614a1.01 1.01 0 0 1-.376.517 1.011 1.011 0 0 1-.609.198c-.224 0-.427-.066-.609-.198l-.48-3.425ZM6.29 23.87l-.018-.557-.018-.556-.008-1.149c-.006-.765.078-1.318.252-1.659.173-.34.449-.54.826-.6.377-.06.701.045.972.315.27.27.375.595.315.972s-.26.653-.6.826c-.34.174-.681.174-1.022 0a1.067 1.067 0 0 1-.6-.826c-.06-.377.045-.701.315-.972.27-.27.595-.375.972-.315s.653.26.826.6c.174.34.258.894.252 1.66a77.024 77.024 0 0 1-.026 1.704c-.011.37-.017.664-.017.88 0 .215-.039.442-.116.679a1.125 1.125 0 0 1-.418.576 1.13 1.13 0 0 1-.677.22c-.25 0-.475-.074-.677-.22l-.534-1.579Z" fill="currentColor" stroke="currentColor" stroke-width="2" stroke-linecap="round" stroke-linejoin="round"/></svg>