<svg width="30" height="30" fill="none" xmlns="http://www.w3.org/2000/svg"><g clip-path="url(#a)" fill="currentColor" stroke="currentColor" stroke-width="2" stroke-linecap="round" stroke-linejoin="round"><path d="M6.015 6.442a287543.097 287543.097 0 0 0 3.893.345l2.35.151c1.567.101 3.01.15 4.33.147l3.195-.008a10.09 10.09 0 0 1 2.275.238c.704.16 1.272.499 1.703 1.015.43.516.713 1.135.847 1.856.134.72.2 1.465.198 2.232-.003.767-.015 1.6-.037 2.5-.022.9-.035 1.772-.039 2.616-.003.844-.04 1.659-.112 2.446-.072.786-.308 1.473-.709 2.06-.401.586-1.08 1.004-2.034 1.252-.956.248-2.322.323-4.1.222-1.778-.1-3.452-.202-5.023-.306a64.92 64.92 0 0 0-4.336-.155l-3.198.006a10.06 10.06 0 0 1-2.275-.237c-.705-.16-1.273-.5-1.704-1.015C.808 21.29.525 20.67.392 19.95a12 12 0 0 1-.198-2.233c.003-.767.015-1.6.037-2.5.023-.9.036-1.771.04-2.614.002-.843.218-1.869.646-3.077.429-1.209.74-1.965.936-2.269a1.01 1.01 0 0 1 .836-.487c.36-.02.656.11.885.39.228.28.297.595.205.945a1.01 1.01 0 0 1-.644.72 1.01 1.01 0 0 1-.962-.096 1.01 1.01 0 0 1-.487-.836 1.01 1.01 0 0 1 .39-.885 1.01 1.01 0 0 1 .944-.204c.35.092.59.306.721.644.131.337-.08 1.079-.635 2.225-.555 1.147-.838 2.132-.85 2.956-.012.824-.006 1.685.018 2.582.024.897.058 1.934.103 3.109.045 1.175.336 2.045.872 2.609a3.238 3.238 0 0 0 1.995.998c.794.102 1.851.153 3.171.154 1.32 0 2.765-.052 4.334-.158 1.57-.106 3.005-.224 4.306-.355 1.3-.13 2.433-.319 3.398-.564.964-.246 1.585-.685 1.86-1.317.277-.631.42-1.359.433-2.182a62.54 62.54 0 0 0-.018-2.58c-.024-.898-.059-1.934-.103-3.11-.045-1.176-.336-2.046-.872-2.61a3.234 3.234 0 0 0-1.996-.998c-.794-.102-1.85-.154-3.17-.157a65.296 65.296 0 0 0-4.329.147c-1.567.1-3 .209-4.297.323-1.298.115-2.324.173-3.078.173-.755 0-1.243-.036-1.463-.108a1.045 1.045 0 0 1-.535-.388 1.045 1.045 0 0 1-.205-.63c0-.231.069-.44.205-.628l3.13-.497Zm21.541 9.066-.026-.767-.026-.767.259-.509c.173-.339.447-.538.823-.598.377-.06.7.045.969.315.269.269.374.592.314.968s-.259.65-.598.823c-.34.173-.679.173-1.018 0a1.064 1.064 0 0 1-.598-.823c-.06-.376.045-.7.314-.968.27-.27.592-.375.968-.315s.65.26.824.598c.173.34.25.765.233 1.276-.018.511-.026.85-.026 1.014 0 .165-.039.365-.116.602a1.12 1.12 0 0 1-.416.573 1.12 1.12 0 0 1-.674.22 1.12 1.12 0 0 1-.674-.22l-.532-1.422Z"/></g><defs><clipPath id="a"><path fill="#fff" d="M0 0h30v30H0z"/></clipPath></defs></svg>