<svg width="30" height="30" fill="none" xmlns="http://www.w3.org/2000/svg"><g clip-path="url(#a)"><path d="m5.883 23.727-.573.033-.572.033-.5.01a4.013 4.013 0 0 1-1.142-.17c-.429-.12-.942-.42-1.54-.902C.96 22.248.542 21.599.302 20.78c-.24-.816-.342-1.732-.308-2.747.035-1.015.08-1.972.137-2.87.056-.897.092-1.751.11-2.563.016-.813.05-1.575.1-2.289a4.995 4.995 0 0 1 .613-2.067 3.566 3.566 0 0 1 1.532-1.509A5.105 5.105 0 0 1 4.5 6.157c.682-.045 1.656-.029 2.92.049 1.265.077 3.1.238 5.507.481 2.406.244 3.988.36 4.745.35a40.71 40.71 0 0 0 2.09-.082 13.38 13.38 0 0 1 1.92.009 3.354 3.354 0 0 1 1.786.684c.545.408.938.988 1.18 1.741.242.753.364 1.632.365 2.636a75.396 75.396 0 0 1-.047 2.853 80.33 80.33 0 0 0-.055 2.564 42.366 42.366 0 0 1-.068 2.283 4.914 4.914 0 0 1-.59 2.052 3.51 3.51 0 0 1-1.507 1.494c-.651.339-1.58.532-2.787.582-1.207.05-2-.022-2.38-.214a1.188 1.188 0 0 1-.672-.917 1.19 1.19 0 0 1 .347-1.083c.3-.302.66-.42 1.08-.355.42.065.728.286.923.665.194.378.196.757.004 1.137s-.497.603-.917.671a1.185 1.185 0 0 1-1.083-.347c-.302-.3-.42-.66-.355-1.08.064-.42.286-.728.664-.922.379-.195.975-.289 1.789-.282.814.007 1.51-.112 2.089-.356s.955-.66 1.128-1.249c.174-.588.261-1.284.261-2.09 0-.804-.016-1.655-.05-2.551-.033-.897-.058-1.718-.075-2.462a12.259 12.259 0 0 0-.251-2.2c-.15-.722-.482-1.233-.998-1.533a4.348 4.348 0 0 0-1.714-.556 21.206 21.206 0 0 0-2.077-.123c-.757-.01-2.339.106-4.745.35-2.406.243-4.24.404-5.502.482-1.262.078-2.283.233-3.064.466-.78.234-1.286.642-1.515 1.225-.23.584-.338 1.277-.325 2.082.014.805.049 1.655.105 2.552.057.896.107 1.716.152 2.46.044.742.212 1.445.502 2.106.29.66.605 1.08.946 1.256.341.177.703.276 1.084.298.382.022.655.033.82.033.165 0 .365.038.602.115.236.076.427.215.573.416.146.201.22.426.22.674 0 .249-.074.473-.22.674l-1.422.532Zm21.673-8.219-.026-.767-.026-.767.259-.509c.173-.339.447-.538.823-.598.377-.06.7.045.969.315.269.269.374.592.314.968s-.259.65-.598.823c-.34.173-.679.173-1.018 0a1.064 1.064 0 0 1-.598-.823c-.06-.376.045-.7.314-.968.27-.27.592-.375.968-.315s.65.26.824.598c.173.34.25.765.233 1.276-.018.511-.026.85-.026 1.014 0 .165-.039.365-.116.602a1.12 1.12 0 0 1-.416.573 1.12 1.12 0 0 1-.674.22 1.12 1.12 0 0 1-.674-.22l-.532-1.422Z" fill="currentColor" stroke="currentColor" stroke-width="2" stroke-linecap="round" stroke-linejoin="round"/><path d="m14.128 9.926-.567.827-.568.827-.7.987c-.468.659-1.067 1.479-1.797 2.46-.731.982-1.214 1.478-1.449 1.488a1.06 1.06 0 0 1-.646-.182 1.06 1.06 0 0 1-.416-.526c-.081-.22-.035-.362.139-.425.173-.063.646-.192 1.418-.388a11.484 11.484 0 0 1 2.524-.33c.91-.023 1.897-.004 2.96.058s1.667.193 1.811.394c.145.2.217.423.217.67 0 .247-.074.47-.22.67-.145.2-.25.373-.315.522-.064.15-.253.531-.567 1.147-.313.616-.86 1.496-1.64 2.64-.78 1.144-1.318 1.8-1.611 1.966a.942.942 0 0 1-.9.042.943.943 0 0 1-.564-.705.943.943 0 0 1 .239-.87.943.943 0 0 1 .844-.317.942.942 0 0 1 .753.496.94.94 0 0 1 .042.9.942.942 0 0 1-.705.564.943.943 0 0 1-.87-.239.943.943 0 0 1-.317-.844c.037-.335.528-1.227 1.472-2.676.944-1.448 1.75-2.468 2.422-3.06.67-.59 1.09-.94 1.255-1.046.166-.107.32-.06.465.14.145.2.217.423.217.67 0 .247-.074.47-.22.67-.145.2-.751.328-1.818.387a20.099 20.099 0 0 1-3.166-.074 175.14 175.14 0 0 1-2.008-.215 4.994 4.994 0 0 0-.795-.04 1.06 1.06 0 0 1-.646-.18 1.06 1.06 0 0 1-.416-.527c-.081-.22.19-.857.816-1.91.625-1.051 1.152-1.92 1.58-2.604a141.11 141.11 0 0 1 2.055-3.196c.216-.323.422-.562.617-.717a1.13 1.13 0 0 1 .668-.247c.25-.01.478.054.685.193.208.138.355.324.442.558l-.72 2.042Z" fill="currentColor"/><path d="M16.837 15.116c-.144-.2-.748-.332-1.811-.394a35.023 35.023 0 0 0-2.96-.057c-.91.024-1.752.134-2.524.33-.772.195-1.245.325-1.418.387-.174.063-.22.204-.139.425.082.22.22.396.416.526.196.13.411.191.646.182.235-.01.718-.506 1.448-1.487.731-.982 1.33-1.802 1.798-2.46l.7-.988.568-.827.567-.827.72-2.042a1.124 1.124 0 0 0-.442-.558 1.124 1.124 0 0 0-.685-.193c-.25.01-.472.093-.668.247-.195.155-.401.394-.617.717a141.11 141.11 0 0 0-2.055 3.196c-.428.684-.955 1.553-1.58 2.605-.625 1.052-.897 1.688-.816 1.909.082.22.22.396.416.526.196.13.411.191.646.182.235-.01.5.003.795.039.295.036.964.107 2.008.215s2.1.132 3.166.074c1.067-.059 1.673-.188 1.818-.387m.003-1.34c.145.2.217.423.217.67 0 .247-.074.47-.22.67m.003-1.34c-.144-.2-.3-.247-.465-.14-.166.106-.584.455-1.255 1.047-.671.591-1.479 1.611-2.422 3.06-.944 1.448-1.435 2.34-1.472 2.675a.943.943 0 0 0 .317.844c.25.227.54.307.87.239a.942.942 0 0 0 .705-.563.942.942 0 0 0-.042-.901.942.942 0 0 0-.753-.496.943.943 0 0 0-.844.318.943.943 0 0 0-.239.87c.068.33.256.565.563.704.307.14.608.125.901-.041.293-.167.83-.823 1.61-1.967.78-1.144 1.328-2.024 1.641-2.64.313-.616.502-.998.567-1.147.065-.149.17-.323.316-.522" stroke="currentColor" stroke-width="2" stroke-linecap="round" stroke-linejoin="round"/></g><defs><clipPath id="a"><path fill="#fff" d="M0 0h30v30H0z"/></clipPath></defs></svg>