<svg width="30" height="30" fill="none" xmlns="http://www.w3.org/2000/svg"><path d="m21.582 9.19-.135-.457-.135-.456-.279-.534c-.186-.356-.482-.78-.89-1.271a6.115 6.115 0 0 0-3.123-2.007 5.999 5.999 0 0 0-5.284 1.109 5.917 5.917 0 0 0-1.247 1.37c-.344.523-.633 1.195-.867 2.016-.233.82-.502 1.941-.806 3.361a44.599 44.599 0 0 1-.948 3.731c-.328 1.068-.94 2.357-1.833 3.868-.894 1.511-1.444 2.27-1.648 2.279a.92.92 0 0 1-.561-.159.92.92 0 0 1-.361-.458c-.071-.191.006-.324.232-.397.225-.074.864-.201 1.916-.384 1.051-.182 2.396-.211 4.033-.088 1.637.124 3.462.2 5.473.23 2.012.028 3.864.043 5.558.044 1.693.002 3.07-.024 4.127-.077 1.058-.053 1.615-.04 1.672.038a.436.436 0 0 1 .085.262.436.436 0 0 1-.085.262c-.057.078-.183.002-.379-.228s-.744-1.166-1.645-2.807c-.9-1.64-1.354-2.552-1.36-2.733a.507.507 0 0 1 .208-.439.507.507 0 0 1 .476-.09c.174.05.292.161.353.332a.507.507 0 0 1-.06.481.507.507 0 0 1-.426.233.507.507 0 0 1-.438-.206.507.507 0 0 1-.091-.477.507.507 0 0 1 .332-.353.507.507 0 0 1 .481.061c.15.102.544.95 1.182 2.546.638 1.596 1.011 2.501 1.12 2.716.108.215.19.361.247.44a.436.436 0 0 1 .085.262.436.436 0 0 1-.085.262c-.057.078-.613.173-1.667.284-1.054.112-2.43.168-4.128.168a464.972 464.972 0 0 0-11.554.146c-1.978.05-3.212.082-3.7.096-.489.014-.836.025-1.04.033a.92.92 0 0 1-.561-.159.92.92 0 0 1-.361-.458c-.071-.191.306-.968 1.132-2.328.826-1.36 1.356-2.538 1.59-3.533.233-.995.383-2.273.451-3.835.068-1.561.234-2.879.497-3.952s.66-1.984 1.19-2.732a8.626 8.626 0 0 1 1.899-1.944A8.58 8.58 0 0 1 12.626 2a8.566 8.566 0 0 1 2.673-.45 8.55 8.55 0 0 1 6.988 3.502c.532.73.909 1.348 1.13 1.857.223.51.378.971.465 1.386.087.414.151.813.193 1.198.042.385.038.7-.013.947-.05.247-.169.456-.354.626-.186.17-.404.269-.655.297-.25.028-.485-.02-.704-.144l-.767-2.03Z" fill="currentColor"/><path d="M26.476 20.948c-.057-.079-.614-.091-1.672-.038a84.976 84.976 0 0 1-4.127.077 401.289 401.289 0 0 1-5.558-.045 90.757 90.757 0 0 1-5.473-.229c-1.637-.123-2.982-.094-4.033.088-1.052.183-1.69.31-1.916.384-.226.073-.303.206-.232.397a.92.92 0 0 0 .36.458.92.92 0 0 0 .562.159c.204-.008.754-.768 1.648-2.279.894-1.51 1.505-2.8 1.833-3.868.328-1.067.644-2.31.948-3.73.304-1.42.573-2.541.806-3.362.234-.821.523-1.493.867-2.015.343-.522.76-.98 1.247-1.371a5.93 5.93 0 0 1 3.429-1.303 5.999 5.999 0 0 1 3.567.95c.533.342 1.003.76 1.411 1.25.408.492.704.916.89 1.272l.279.534a1882.495 1882.495 0 0 0 .27.913l.767 2.029c.22.124.454.172.704.144.25-.028.469-.127.655-.297.186-.17.304-.379.354-.626.05-.246.055-.562.013-.947a12.362 12.362 0 0 0-.193-1.198 7.224 7.224 0 0 0-.464-1.386c-.222-.509-.6-1.128-1.131-1.857a8.477 8.477 0 0 0-1.905-1.89 8.55 8.55 0 0 0-5.083-1.61A8.566 8.566 0 0 0 12.626 2a8.58 8.58 0 0 0-2.402 1.258 8.626 8.626 0 0 0-1.899 1.944c-.53.748-.927 1.659-1.19 2.732-.263 1.073-.429 2.39-.497 3.952-.068 1.562-.218 2.84-.452 3.835-.233.995-.763 2.173-1.589 3.533-.826 1.36-1.203 2.137-1.132 2.328a.92.92 0 0 0 .36.458.92.92 0 0 0 .562.159c.204-.008.551-.02 1.04-.033.488-.014 1.722-.046 3.7-.096 1.979-.05 3.974-.087 5.988-.11a430.32 430.32 0 0 1 5.566-.036c1.698 0 3.074-.056 4.128-.168 1.054-.111 1.61-.206 1.667-.284m0-.524a.436.436 0 0 1 .085.262.436.436 0 0 1-.085.262m0-.524a3.622 3.622 0 0 1-.247-.44c-.109-.215-.482-1.12-1.12-2.716-.638-1.595-1.032-2.444-1.182-2.546a.507.507 0 0 0-.48-.06.507.507 0 0 0-.333.352.507.507 0 0 0 .09.477.507.507 0 0 0 .44.206.507.507 0 0 0 .424-.233.507.507 0 0 0 .061-.481.507.507 0 0 0-.353-.332.507.507 0 0 0-.476.09.507.507 0 0 0-.207.44c.006.18.459 1.092 1.36 2.732.9 1.641 1.448 2.577 1.644 2.807.196.23.322.306.379.228" stroke="currentColor" stroke-width="2" stroke-linecap="round" stroke-linejoin="round"/><path d="m17.865 27.253-.388.395-.387.395-.516.273a3.558 3.558 0 0 1-1.093.369c-.385.063-.895-.04-1.528-.311a20.76 20.76 0 0 1-1.533-.717 1.229 1.229 0 0 1-.675-.964 1.229 1.229 0 0 1 .383-1.111 1.23 1.23 0 0 1 1.125-.344c.433.076.746.313.94.708a1.23 1.23 0 0 1-.022 1.176 1.229 1.229 0 0 1-.963.674 1.229 1.229 0 0 1-1.112-.383 1.23 1.23 0 0 1-.344-1.125c.077-.433.313-.746.708-.939.396-.192.89-.12 1.484.218.593.337 1.052.467 1.377.39.325-.077.54-.168.646-.275a4.91 4.91 0 0 1 .463-.394c.204-.156.434-.238.691-.245a1.16 1.16 0 0 1 .703.208c.212.145.36.34.447.581l-.406 1.421Z" fill="currentColor" stroke="currentColor" stroke-width="2" stroke-linecap="round" stroke-linejoin="round"/></svg>