<svg width="30" height="30" fill="none" xmlns="http://www.w3.org/2000/svg"><path d="m17.865 27.253-.388.395-.387.395-.516.273a3.558 3.558 0 0 1-1.093.369c-.385.063-.895-.04-1.528-.311a20.76 20.76 0 0 1-1.533-.717 1.229 1.229 0 0 1-.675-.964 1.229 1.229 0 0 1 .383-1.111 1.23 1.23 0 0 1 1.125-.344c.433.076.746.313.94.708a1.23 1.23 0 0 1-.022 1.176 1.229 1.229 0 0 1-.963.674 1.229 1.229 0 0 1-1.112-.383 1.23 1.23 0 0 1-.344-1.125c.077-.433.313-.746.708-.939.396-.192.89-.12 1.484.218.593.337 1.052.467 1.377.39.325-.077.54-.168.646-.275a4.91 4.91 0 0 1 .463-.394c.204-.156.434-.238.691-.245a1.16 1.16 0 0 1 .703.208c.212.145.36.34.447.581l-.406 1.421Zm3.929-12.793-.127-.606-.128-.607-.13-1.086c-.086-.724-.076-1.271.03-1.643a1.08 1.08 0 0 1 .703-.756 1.079 1.079 0 0 1 1.025.125c.32.216.487.516.501.902.014.386-.13.699-.435.937a1.079 1.079 0 0 1-1.013.198 1.079 1.079 0 0 1-.756-.704 1.079 1.079 0 0 1 .125-1.024c.215-.32.516-.488.902-.502.386-.014.698.131.936.435.238.304.394.82.468 1.546.074.727.14 1.28.197 1.663.059.381.134.774.228 1.179.093.404.13.731.107.982a1.136 1.136 0 0 1-.28.663c-.166.19-.372.314-.618.37a1.136 1.136 0 0 1-.716-.063l-1.019-2.008ZM10.681 8.943l-.114.894-.114.895-.359 1.883a33.238 33.238 0 0 1-.843 3.469c-.322 1.057-.931 2.339-1.826 3.846-.894 1.508-1.444 2.265-1.65 2.273a.924.924 0 0 1-.562-.159.924.924 0 0 1-.362-.46c-.071-.192-.009-.325.187-.4.196-.073.73-.21 1.605-.41.875-.201 1.942-.256 3.202-.166s3.227.176 5.902.258c2.675.082 4.076.155 4.203.22.126.065.2.167.222.307a.396.396 0 0 1-.118.36c-.1.1-.22.14-.361.117a.397.397 0 0 1-.306-.223.396.396 0 0 1 0-.38.396.396 0 0 1 .308-.222c.14-.022.26.017.36.118.1.1.139.22.117.36a.396.396 0 0 1-.224.307c-.127.064-1.53.134-4.208.21a375.87 375.87 0 0 1-6.282.137c-1.51.016-2.45.023-2.82.02-.37-.004-.657-.002-.862.006a.924.924 0 0 1-.563-.159.924.924 0 0 1-.362-.46c-.071-.192.306-.967 1.13-2.324.825-1.357 1.355-2.525 1.59-3.506.234-.981.368-2.04.404-3.177.036-1.137.068-1.979.097-2.525.03-.546.08-.979.153-1.3l.173-.768c.044-.191.136-.39.276-.6.14-.208.33-.355.565-.442.237-.086.476-.094.718-.025.241.07.44.203.595.401l.13 1.625Z" fill="currentColor" stroke="currentColor" stroke-width="2" stroke-linecap="round" stroke-linejoin="round"/><path d="m20.789 9.21-.244-.7-.245-.701-.539-.826a6.144 6.144 0 0 0-1.296-1.435 6.032 6.032 0 0 0-1.661-.95 5.894 5.894 0 0 0-1.9-.375c-.666-.022-1.4.073-2.202.285-.802.211-1.415.227-1.838.045a1.285 1.285 0 0 1-.787-.944 1.285 1.285 0 0 1 .301-1.192 1.285 1.285 0 0 1 1.142-.457c.458.042.805.26 1.04.655.236.395.263.804.082 1.227a1.285 1.285 0 0 1-.944.787 1.285 1.285 0 0 1-1.192-.301 1.285 1.285 0 0 1-.457-1.142c.041-.458.26-.805.655-1.04.395-.236 1.22-.462 2.477-.68 1.257-.216 2.2-.27 2.832-.163a8.718 8.718 0 0 1 4.939 2.677c.43.466.802.973 1.117 1.52.316.547.544 1.003.685 1.369.141.365.255.805.342 1.32.086.515.147.938.182 1.267.035.33.026.618-.027.864a1.137 1.137 0 0 1-.362.623 1.137 1.137 0 0 1-.659.29 1.137 1.137 0 0 1-.703-.152l-.738-1.872ZM8.216 6.988a1620732.014 1620732.014 0 0 0 5.838 6.398l6.317 6.316c4.21 4.211 6.338 6.384 6.382 6.52a.396.396 0 0 1-.06.374.396.396 0 0 1-.337.172.397.397 0 0 1-.338-.172.396.396 0 0 1-.06-.375.396.396 0 0 1 .269-.268.396.396 0 0 1 .374.06.396.396 0 0 1 .172.337.396.396 0 0 1-.172.338.397.397 0 0 1-.374.06c-.135-.044-2.308-2.172-6.52-6.383-4.21-4.21-7.382-7.29-9.514-9.235C8.06 9.184 6.4 7.618 5.215 6.432c-1.186-1.186-1.82-1.858-1.9-2.017a.802.802 0 0 1-.08-.502.802.802 0 0 1 .23-.452.802.802 0 0 1 .454-.231l4.297 3.758Z" fill="currentColor" stroke="currentColor" stroke-width="2" stroke-linecap="round" stroke-linejoin="round"/></svg>