<svg width="30" height="30" fill="none" xmlns="http://www.w3.org/2000/svg"><path d="M11.486 8.413a183923.99 183923.99 0 0 0 2.784 3.333l1.762 1.931a112.96 112.96 0 0 0 3.323 3.501c1.04 1.046 1.76 1.962 2.161 2.747.4.785.378 1.665-.068 2.64-.445.973-.97 1.784-1.572 2.43a78.58 78.58 0 0 1-2.25 2.3c-.898.886-1.44 1.315-1.63 1.286a.862.862 0 0 1-.487-.246.861.861 0 0 1-.25-.485c-.03-.188-.04-.588-.027-1.2.012-.613.035-2.15.07-4.612.035-2.461.05-4.922.046-7.381-.004-2.46-.004-4.73 0-6.814.005-2.084.061-3.656.17-4.718.11-1.063.37-1.628.778-1.697.408-.068.885.118 1.431.56.546.44 1.14.952 1.786 1.536a58.482 58.482 0 0 1 1.803 1.699 2.57 2.57 0 0 1 .794 2.003c-.028.786-.677 1.886-1.947 3.3-1.27 1.413-2.971 3.16-5.104 5.243-2.133 2.082-3.267 3.145-3.402 3.19a.396.396 0 0 1-.375-.058.396.396 0 0 1-.174-.337c0-.142.057-.255.171-.34a.396.396 0 0 1 .375-.06.396.396 0 0 1 .269.267.396.396 0 0 1-.058.375.396.396 0 0 1-.337.173.396.396 0 0 1-.339-.17.396.396 0 0 1-.06-.375c.043-.135 1.098-1.272 3.166-3.41 2.068-2.14 3.677-3.867 4.828-5.183 1.151-1.316 1.769-2.174 1.853-2.573.085-.4-.113-.838-.592-1.317l-2.085-2.078c-.91-.908-1.488-1.461-1.733-1.66-.245-.2-.357.178-.336 1.135.02.958.034 2.466.04 4.527.006 2.06.012 4.32.016 6.777s.069 4.683.195 6.678.145 3.587.058 4.777-.152 1.907-.195 2.151c-.043.244-.159.352-.348.323a.862.862 0 0 1-.487-.246.861.861 0 0 1-.25-.485c-.03-.188.393-.733 1.27-1.633.876-.9 1.62-1.65 2.233-2.252a28.78 28.78 0 0 0 1.717-1.835c.533-.623.625-1.242.275-1.856-.35-.615-1.04-1.435-2.073-2.462a112.486 112.486 0 0 0-3.48-3.303 110.15 110.15 0 0 0-3.599-3.154c-1.111-.928-1.963-1.689-2.556-2.282s-.94-.99-1.043-1.19a1.018 1.018 0 0 1-.101-.637c.035-.223.133-.415.292-.574.16-.16.352-.258.575-.293l2.717 2.034Z" fill="currentColor"/><path d="M15.996 28.58c.19.03.732-.399 1.63-1.285a78.58 78.58 0 0 0 2.25-2.3c.602-.646 1.127-1.457 1.572-2.43.446-.975.468-1.855.068-2.64-.4-.785-1.12-1.7-2.161-2.747a112.96 112.96 0 0 1-3.323-3.5l-1.762-1.932-1.392-1.667-1.392-1.666-2.717-2.034a1.018 1.018 0 0 0-.575.293c-.16.16-.257.35-.292.574-.035.223-.002.435.1.636.103.201.451.598 1.044 1.191.593.593 1.445 1.354 2.556 2.282 1.111.928 2.31 1.98 3.598 3.154a112.486 112.486 0 0 1 3.48 3.303c1.034 1.027 1.725 1.847 2.074 2.462.35.614.258 1.233-.275 1.856a28.78 28.78 0 0 1-1.717 1.835c-.613.601-1.357 1.352-2.233 2.252-.877.9-1.3 1.445-1.27 1.634m.737.73a.862.862 0 0 1-.487-.246.861.861 0 0 1-.25-.485m.737.73c.19.03.305-.078.348-.322.043-.244.108-.961.195-2.151.087-1.19.068-2.782-.058-4.777a109.66 109.66 0 0 1-.195-6.678c-.004-2.457-.01-4.716-.016-6.777-.006-2.06-.02-3.57-.04-4.527-.02-.957.091-1.335.336-1.136.245.2.822.753 1.733 1.66l2.085 2.08c.479.478.677.917.592 1.316-.084.4-.702 1.257-1.853 2.573-1.15 1.316-2.76 3.043-4.828 5.182-2.068 2.14-3.123 3.276-3.167 3.411a.396.396 0 0 0 .061.375.396.396 0 0 0 .339.17.396.396 0 0 0 .337-.173.396.396 0 0 0 .058-.375.396.396 0 0 0-.27-.267.396.396 0 0 0-.374.06.396.396 0 0 0-.17.34c0 .141.058.254.173.337.115.083.24.102.375.058.135-.045 1.268-1.108 3.402-3.19 2.133-2.082 3.834-3.83 5.104-5.244 1.27-1.413 1.919-2.513 1.947-3.299a2.57 2.57 0 0 0-.794-2.003 57.221 57.221 0 0 0-1.803-1.7 42.918 42.918 0 0 0-1.786-1.536c-.546-.441-1.023-.627-1.431-.559-.409.07-.668.634-.777 1.697-.11 1.062-.166 2.634-.17 4.718-.005 2.083-.005 4.354 0 6.814.003 2.459-.012 4.92-.047 7.381-.035 2.462-.058 4-.07 4.611-.012.613-.003 1.013.028 1.201" stroke="currentColor" stroke-width="2" stroke-linecap="round" stroke-linejoin="round"/></svg>