<svg width="30" height="30" fill="none" xmlns="http://www.w3.org/2000/svg"><path d="m8.74 3.669 1.113.027 1.112.026 1.343.052c.896.034 1.762.055 2.6.06.837.007 1.636.017 2.399.032a7.973 7.973 0 0 1 2.067.29 5.972 5.972 0 0 1 3.104 2.149A6.122 6.122 0 0 1 23.7 9.938a6.198 6.198 0 0 1-1.183 3.693 6.304 6.304 0 0 1-3.175 2.303 7.984 7.984 0 0 1-2.037.372c-.713.038-1.452.035-2.216-.011a534.42 534.42 0 0 1-2.495-.157l-2.558-.166c-.806-.053-1.504-.27-2.095-.652-.591-.383-1.007-1.132-1.249-2.248-.242-1.116-.352-2.444-.33-3.986.021-1.542.103-2.455.246-2.74a.89.89 0 0 1 .685-.507.89.89 0 0 1 .813.257.89.89 0 0 1 .27.808.89.89 0 0 1-.496.694.89.89 0 0 1-.852.006.89.89 0 0 1-.506-.685.89.89 0 0 1 .256-.812.89.89 0 0 1 .809-.27.89.89 0 0 1 .693.495c.147.283.239 1.185.275 2.705.037 1.521.147 2.617.33 3.286.185.67.624 1.067 1.318 1.192.694.125 1.49.158 2.387.098l2.465-.162c.746-.05 1.503-.13 2.273-.24a4.535 4.535 0 0 0 2.027-.793 3.16 3.16 0 0 0 1.2-1.632 3.276 3.276 0 0 0 0-2.04c-.216-.688-.63-1.26-1.244-1.718a4.83 4.83 0 0 0-2.049-.89 13.388 13.388 0 0 0-2.37-.208c-.828-.002-1.69.015-2.585.05-.895.034-1.714.06-2.455.077-.742.018-1.328.027-1.76.027-.43 0-.765-.038-1.001-.115a1.12 1.12 0 0 1-.574-.417 1.12 1.12 0 0 1-.22-.675c0-.249.074-.474.22-.675L8.74 3.67Z" fill="currentColor" stroke="currentColor" stroke-width="2" stroke-linecap="round" stroke-linejoin="round"/><path d="m8.912 13.685 1.251.046 1.252.046 1.51.075a72.55 72.55 0 0 0 2.913.087l2.627.021c.816.007 1.531.096 2.146.268a5.9 5.9 0 0 1 3.095 2.113 6.078 6.078 0 0 1 1.228 3.607 6.17 6.17 0 0 1-1.17 3.682 6.226 6.226 0 0 1-3.178 2.302 8.126 8.126 0 0 1-2.116.364c-.76.035-1.567.021-2.422-.04-.856-.06-1.79-.128-2.801-.201a151.272 151.272 0 0 0-2.854-.182c-.891-.048-1.645-.249-2.26-.603-.616-.354-1.058-1.086-1.326-2.196s-.394-2.436-.38-3.979c.014-1.542.09-2.45.226-2.723a.854.854 0 0 1 .656-.487.854.854 0 0 1 .78.246.854.854 0 0 1 .26.774.854.854 0 0 1-.475.666.854.854 0 0 1-.817.007.854.854 0 0 1-.486-.656.853.853 0 0 1 .245-.78.853.853 0 0 1 .775-.26.854.854 0 0 1 .665.475c.141.271.227 1.167.258 2.687.031 1.52.175 2.631.433 3.333.257.701.785 1.118 1.584 1.25.799.131 1.703.16 2.713.086 1.01-.075 2.048-.146 3.114-.216 1.067-.069 1.991-.195 2.773-.378.781-.184 1.419-.524 1.913-1.02a3.236 3.236 0 0 0 .914-1.804 3.347 3.347 0 0 0-.31-2.053c-.324-.663-.755-1.172-1.295-1.527-.54-.355-1.197-.59-1.974-.703a17.648 17.648 0 0 0-2.553-.17c-.927.001-1.893.026-2.9.076-1.008.05-1.929.09-2.763.12-.834.031-1.494.046-1.979.046-.485 0-.845-.038-1.08-.114a1.114 1.114 0 0 1-.57-.415 1.114 1.114 0 0 1-.219-.67c0-.247.073-.47.218-.67l2.379-.53Z" fill="currentColor" stroke="currentColor" stroke-width="2" stroke-linecap="round" stroke-linejoin="round"/></svg>