<svg width="30" height="30" fill="none" xmlns="http://www.w3.org/2000/svg"><path d="m3.396 3.19.834-.002.835-.003 1.007.014c.672.009 1.329.013 1.971.013.643 0 1.292.013 1.947.041.655.028 1.29.137 1.906.326.615.19 1.19.473 1.725.85a5.899 5.899 0 0 1 2.29 3.182c.207.686.313 1.522.318 2.508.004.986-.068 2.137-.215 3.454-.148 1.316-.28 2.76-.398 4.33a63.212 63.212 0 0 0-.188 4.337c-.008 1.32-.02 2.377-.036 3.17-.017.794-.074 1.227-.172 1.298a.546.546 0 0 1-.33.107.546.546 0 0 1-.328-.107 1.244 1.244 0 0 1-.288-.317c-.094-.14-.369-.446-.823-.92-.454-.473-1.043-.788-1.768-.944A10.726 10.726 0 0 0 9.35 24.3c-.83.005-1.638 0-2.423-.018a38.24 38.24 0 0 1-2.279-.116c-.734-.06-1.379-.412-1.935-1.055-.556-.642-.86-1.893-.91-3.752-.05-1.86-.036-4.226.04-7.101.077-2.875.148-4.375.212-4.502a.396.396 0 0 1 .306-.224c.14-.023.26.016.36.116.101.1.141.22.12.36a.396.396 0 0 1-.222.308.396.396 0 0 1-.38.001.396.396 0 0 1-.224-.306.396.396 0 0 1 .116-.361.4.4 0 0 1 .36-.119c.14.022.243.096.308.222s.142 1.623.232 4.49c.09 2.868.208 5.129.355 6.781.146 1.653.284 2.602.412 2.845.128.244.485.335 1.072.275.586-.06 1.273-.098 2.06-.115.786-.017 1.63-.017 2.531 0 .902.018 1.727.13 2.477.338.75.208 1.386.547 1.907 1.018a3.84 3.84 0 0 1 1.103 1.698c.214.66.337 1.08.37 1.255.032.175 0 .299-.098.37a.546.546 0 0 1-.33.107.546.546 0 0 1-.328-.107c-.098-.071-.144-.504-.137-1.298.006-.794.006-1.85-.002-3.17a62.833 62.833 0 0 0-.189-4.335c-.118-1.57-.26-3.182-.423-4.835-.163-1.654-.349-2.952-.557-3.894-.207-.942-.565-1.67-1.073-2.187-.507-.516-1.144-.866-1.909-1.05a10.7 10.7 0 0 0-2.17-.31 45.178 45.178 0 0 0-2.03-.019 99.71 99.71 0 0 1-1.842.011 450.73 450.73 0 0 0-1.319-.002c-.323 0-.604-.039-.842-.116a1.127 1.127 0 0 1-.577-.42 1.127 1.127 0 0 1-.22-.678c0-.25.073-.477.22-.68l1.904-.535Z" fill="currentColor"/><path d="M15.22 26.708c.098-.071.155-.504.172-1.297.017-.794.029-1.851.036-3.171.007-1.32.07-2.766.188-4.337.117-1.57.25-3.014.398-4.33.147-1.317.219-2.468.215-3.454-.005-.986-.11-1.822-.318-2.508a5.899 5.899 0 0 0-2.29-3.182 6.077 6.077 0 0 0-1.725-.85 7.534 7.534 0 0 0-1.906-.326 45.51 45.51 0 0 0-1.947-.041c-.642 0-1.3-.004-1.97-.013l-1.008-.014-.835.003-.834.002-1.904.536c-.147.202-.22.428-.22.679 0 .25.073.476.22.678.147.203.34.342.577.42.238.077.519.116.842.116.324 0 .763 0 1.32.002.556.002 1.17-.002 1.841-.01a45.178 45.178 0 0 1 2.03.018 10.7 10.7 0 0 1 2.17.31c.765.184 1.402.534 1.91 1.05.507.516.865 1.245 1.072 2.187.208.942.394 2.24.557 3.894.164 1.653.305 3.265.423 4.835.118 1.57.182 3.014.19 4.334.007 1.32.008 2.377.001 3.171s.04 1.227.137 1.298m.658 0a.546.546 0 0 1-.33.107.546.546 0 0 1-.328-.107m.658 0c.098-.071.13-.195.098-.37-.033-.176-.156-.594-.37-1.255a3.848 3.848 0 0 0-1.103-1.698c-.521-.47-1.157-.81-1.907-1.018a9.988 9.988 0 0 0-2.477-.337 62.478 62.478 0 0 0-2.531-.001c-.787.017-1.474.055-2.06.115-.587.06-.944-.031-1.072-.275-.128-.243-.266-1.192-.412-2.845-.147-1.652-.265-3.913-.355-6.78-.09-2.868-.167-4.365-.232-4.49a.396.396 0 0 0-.308-.223.396.396 0 0 0-.36.119c-.1.1-.138.221-.116.361.023.14.098.242.224.306a.396.396 0 0 0 .38-.001.396.396 0 0 0 .221-.308.396.396 0 0 0-.118-.36.396.396 0 0 0-.361-.116.396.396 0 0 0-.306.224c-.064.127-.135 1.627-.212 4.502-.076 2.875-.09 5.242-.04 7.1.05 1.86.354 3.11.91 3.753.556.643 1.201.994 1.935 1.055.734.06 1.494.099 2.279.116.785.017 1.593.023 2.423.018.83-.005 1.608.07 2.333.227.725.156 1.314.471 1.768.944.454.474.729.78.823.92.094.14.19.246.288.317" stroke="currentColor" stroke-width="2" stroke-linecap="round" stroke-linejoin="round"/><path d="m26.604 5.618-.834.002-.835.003-1.007-.014a45.178 45.178 0 0 0-2.03.019 10.58 10.58 0 0 0-2.17.31c-.765.184-1.402.534-1.91 1.05-.507.516-.865 1.245-1.072 2.187-.208.942-.394 2.24-.557 3.893a209.28 209.28 0 0 0-.423 4.836 62.833 62.833 0 0 0-.19 4.334c-.007 1.32-.008 2.377-.001 3.171s-.04 1.227-.137 1.298a.546.546 0 0 1-.329.107.546.546 0 0 1-.329-.107c-.098-.071-.13-.195-.098-.37.033-.176.156-.594.37-1.255a3.848 3.848 0 0 1 1.103-1.698c.521-.47 1.157-.81 1.907-1.018a9.997 9.997 0 0 1 2.477-.337 62.475 62.475 0 0 1 2.531-.001c.787.017 1.474.055 2.06.115.587.06.944-.032 1.072-.275.128-.243.266-1.192.412-2.845.147-1.653.265-3.913.355-6.78.09-2.868.167-4.365.232-4.49a.396.396 0 0 1 .308-.223c.14-.021.26.018.36.119.1.1.139.221.116.361a.396.396 0 0 1-.224.306.396.396 0 0 1-.38-.001.396.396 0 0 1-.221-.308.396.396 0 0 1 .118-.36.396.396 0 0 1 .361-.116c.14.023.242.097.306.224s.135 1.627.212 4.502c.076 2.875.09 5.242.04 7.1-.05 1.86-.354 3.11-.91 3.753-.556.643-1.201.994-1.935 1.054a38.1 38.1 0 0 1-2.279.117c-.785.017-1.593.023-2.423.018-.83-.005-1.608.07-2.333.227-.724.156-1.314.47-1.768.944-.454.473-.729.78-.823.92a1.24 1.24 0 0 1-.288.317.546.546 0 0 1-.329.107.546.546 0 0 1-.329-.107c-.098-.071-.155-.504-.172-1.298-.017-.793-.029-1.85-.036-3.17a63.214 63.214 0 0 0-.188-4.337 116.25 116.25 0 0 0-.398-4.33c-.147-1.317-.219-2.468-.215-3.454.005-.986.11-1.822.318-2.508a5.899 5.899 0 0 1 2.29-3.182 6.076 6.076 0 0 1 1.725-.85 7.533 7.533 0 0 1 1.907-.326 45.492 45.492 0 0 1 1.946-.041c.642 0 1.3-.004 1.97-.013.672-.01 1.286-.013 1.843-.011.556.002.995.002 1.319.002.323 0 .604.04.842.116.238.078.43.217.577.42.147.202.22.428.22.679 0 .25-.073.476-.22.678l-1.904.536Z" fill="currentColor"/><path d="M15.438 26.707c.098-.071.144-.504.137-1.298a241.28 241.28 0 0 1 .002-3.17c.007-1.32.07-2.765.189-4.335.118-1.57.26-3.182.423-4.835.163-1.654.349-2.952.557-3.894.207-.942.565-1.67 1.073-2.187.507-.516 1.144-.866 1.909-1.05a10.698 10.698 0 0 1 2.17-.31 45.178 45.178 0 0 1 2.03-.019l1.007.014.835-.003.834-.002 1.904-.536c.147-.202.22-.428.22-.678 0-.25-.073-.477-.22-.68a1.127 1.127 0 0 0-.577-.419 2.734 2.734 0 0 0-.842-.116c-.323 0-.763 0-1.32-.002-.556-.002-1.17.002-1.841.01-.672.01-1.329.014-1.971.014-.643 0-1.291.013-1.947.041a7.533 7.533 0 0 0-1.906.326c-.615.19-1.19.473-1.725.85a5.899 5.899 0 0 0-2.29 3.182c-.207.686-.313 1.522-.318 2.508-.004.986.068 2.137.215 3.454.148 1.316.28 2.76.398 4.33.118 1.57.18 3.016.188 4.336.007 1.32.02 2.378.036 3.171.017.794.074 1.227.172 1.298a.546.546 0 0 0 .33.107c.12 0 .23-.036.328-.107Zm0 0a.546.546 0 0 1-.329.107.546.546 0 0 1-.329-.107c-.098-.071-.13-.195-.098-.37.033-.176.156-.594.37-1.255a3.848 3.848 0 0 1 1.103-1.698c.521-.47 1.157-.81 1.907-1.018a9.997 9.997 0 0 1 2.477-.337 62.475 62.475 0 0 1 2.531-.001c.787.017 1.474.055 2.06.115.587.06.944-.032 1.072-.275.128-.243.266-1.192.412-2.845.147-1.653.265-3.913.355-6.78.09-2.868.167-4.365.232-4.49a.396.396 0 0 1 .308-.223c.14-.021.26.018.36.119.1.1.139.221.116.361a.396.396 0 0 1-.224.306.396.396 0 0 1-.38-.001.396.396 0 0 1-.221-.308.396.396 0 0 1 .118-.36.396.396 0 0 1 .361-.116c.14.023.242.097.306.224s.135 1.627.212 4.502c.076 2.875.09 5.242.04 7.1-.05 1.86-.354 3.11-.91 3.753-.556.643-1.201.994-1.935 1.054a38.1 38.1 0 0 1-2.279.117c-.785.017-1.593.023-2.423.018-.83-.005-1.608.07-2.333.227-.724.156-1.314.47-1.768.944-.454.473-.729.78-.823.92a1.24 1.24 0 0 1-.288.317Z" stroke="currentColor" stroke-width="2" stroke-linecap="round" stroke-linejoin="round"/></svg>