<svg width="30" height="30" fill="none" xmlns="http://www.w3.org/2000/svg"><path d="m5.786 23.605.184-.611.185-.611.382-.561a3.856 3.856 0 0 1 1.014-.999c.422-.291 1.093-.508 2.013-.65.92-.143 2.212-.15 3.877-.019 1.665.13 3.79.25 6.377.359 2.587.108 3.958.202 4.114.281a.49.49 0 0 1 .275.378.488.488 0 0 1-.144.445.488.488 0 0 1-.445.144.488.488 0 0 1-.378-.274.488.488 0 0 1 0-.468.488.488 0 0 1 .378-.274c.173-.028.32.02.445.144a.488.488 0 0 1 .144.444.488.488 0 0 1-.274.378c-.156.08-1.527.174-4.113.283-2.587.11-4.508.232-5.764.367a77.227 77.227 0 0 0-3.28.417c-.93.142-1.58.357-1.951.645-.372.287-.58.539-.628.755a3.597 3.597 0 0 1-.226.677 1.158 1.158 0 0 1-.488.547c-.222.13-.46.182-.716.156a1.158 1.158 0 0 1-.672-.295l-.31-1.659Z" fill="currentColor" stroke="currentColor" stroke-width="2" stroke-linecap="round" stroke-linejoin="round"/><path d="M10.599 1.691a133539.69 133539.69 0 0 0 3.754.317l2.267.152c1.51.101 2.919.167 4.223.197 1.305.03 2.343.152 3.114.366.77.214 1.265.798 1.484 1.75.218.954.319 2.382.302 4.285-.016 1.903-.019 3.975-.009 6.216s.013 4.312.008 6.211c-.005 1.9-.233 3.372-.683 4.417-.45 1.045-1.51 1.745-3.178 2.1-1.67.355-3.262.54-4.78.556-1.517.015-2.912.026-4.186.032l-3.094.018a16.327 16.327 0 0 1-2.247-.131c-.709-.093-1.304-.33-1.786-.712a3.71 3.71 0 0 1-1.112-1.486c-.26-.61-.398-1.373-.417-2.288-.019-.916.03-2.074.148-3.475.118-1.402.217-2.943.296-4.624.08-1.681.12-3.229.12-4.643 0-1.414 0-2.552.004-3.414.003-.862.065-1.67.186-2.423.12-.754.589-1.459 1.405-2.115.816-.657 1.387-1.033 1.713-1.13a.95.95 0 0 1 .893.166c.27.207.4.48.391.82a.95.95 0 0 1-.433.798.95.95 0 0 1-.901.119.95.95 0 0 1-.625-.66.95.95 0 0 1 .165-.892.95.95 0 0 1 .82-.392.95.95 0 0 1 .799.434.95.95 0 0 1 .118.9c-.113.321-.581.65-1.404.986-.822.337-1.371.79-1.647 1.36-.276.57-.436 1.267-.48 2.09-.045.821-.067 1.94-.067 3.353 0 1.414.04 2.961.12 4.642.08 1.68.175 3.441.286 5.28.11 1.84.304 3.215.58 4.125.277.91.682 1.504 1.215 1.781.534.277 1.174.441 1.921.492.747.051 1.756.076 3.027.075 1.271 0 2.66-.008 4.164-.023a35.157 35.157 0 0 0 4.494-.333c1.491-.207 2.41-.765 2.756-1.674.346-.91.514-2.3.504-4.169l-.03-6.158c-.01-2.236-.064-4.256-.161-6.06-.097-1.806-.198-3.147-.304-4.025-.105-.879-.42-1.373-.943-1.484-.523-.111-1.405-.152-2.644-.122a96.25 96.25 0 0 0-4.125.198c-1.511.101-2.893.205-4.144.31-1.251.105-2.24.158-2.969.158-.727 0-1.202-.036-1.425-.108a1.054 1.054 0 0 1-.54-.393 1.054 1.054 0 0 1-.206-.634c0-.234.069-.446.206-.635l3.057-.5Z" fill="currentColor" stroke="currentColor" stroke-width="2" stroke-linecap="round" stroke-linejoin="round"/></svg>