<svg width="30" height="30" fill="none" xmlns="http://www.w3.org/2000/svg"><path d="m25.086 18.705.027-1.113.026-1.112.052-1.343c.034-.896.053-1.742.055-2.54.003-.798-.071-1.495-.222-2.092-.15-.597-.48-1.108-.991-1.531a15.978 15.978 0 0 0-1.72-1.233 237.66 237.66 0 0 1-2.097-1.328 64.34 64.34 0 0 0-2.185-1.339c-.695-.406-1.34-.694-1.935-.866-.596-.17-1.206-.143-1.83.084-.623.227-1.269.512-1.935.857-.667.345-1.403.721-2.21 1.13a63.49 63.49 0 0 0-2.264 1.2c-.703.392-1.277.8-1.724 1.224-.447.425-.726.96-.839 1.608a16.093 16.093 0 0 0-.214 2.086c-.031.744-.07 1.564-.114 2.46a63.791 63.791 0 0 0-.08 2.542c-.008.798.06 1.495.206 2.09.146.596.472 1.104.978 1.524.506.42 1.076.83 1.711 1.23s1.333.843 2.094 1.332a63.3 63.3 0 0 0 2.184 1.342c.694.407 1.338.696 1.934.867.595.172 1.204.144 1.827-.082a16.496 16.496 0 0 0 1.934-.856c.667-.345 1.404-.721 2.211-1.13a63.167 63.167 0 0 0 2.264-1.2 12.699 12.699 0 0 0 1.8-1.19 4.64 4.64 0 0 0 1.159-1.345c.275-.494.607-.755.996-.781.39-.027.71.11.96.409s.327.638.232 1.016a1.09 1.09 0 0 1-.685.786 1.09 1.09 0 0 1-1.039-.093 1.09 1.09 0 0 1-.535-.895 1.09 1.09 0 0 1 .409-.958c.3-.25.638-.328 1.016-.233s.64.323.786.685a1.09 1.09 0 0 1-.093 1.038c-.207.33-.739.885-1.595 1.663-.856.777-1.632 1.371-2.329 1.78a67.59 67.59 0 0 0-2.187 1.348c-.762.488-1.462.933-2.101 1.333-.64.401-1.33.745-2.074 1.032-.743.287-1.454.395-2.134.325a5.087 5.087 0 0 1-1.895-.574 142.93 142.93 0 0 1-1.935-1.056 67.13 67.13 0 0 0-2.271-1.2c-.808-.409-1.546-.787-2.216-1.134-.67-.347-1.318-.77-1.942-1.268-.624-.498-1.077-1.06-1.357-1.684a5.029 5.029 0 0 1-.45-1.924c-.02-.66-.036-1.39-.046-2.192a67.847 67.847 0 0 0-.082-2.547 247.95 247.95 0 0 1-.112-2.467c-.03-.749.016-1.515.138-2.3.121-.786.383-1.455.785-2.008a5.023 5.023 0 0 1 1.45-1.35c.566-.346 1.197-.724 1.893-1.133.697-.41 1.426-.859 2.188-1.347a271.19 271.19 0 0 1 2.102-1.333 12.1 12.1 0 0 1 2.073-1.03c.743-.287 1.454-.395 2.133-.325a5.08 5.08 0 0 1 1.893.575c.584.312 1.228.665 1.934 1.057.706.393 1.463.794 2.27 1.204.806.41 1.544.789 2.213 1.137.67.349 1.315.772 1.936 1.27.621.497 1.07 1.057 1.348 1.678.277.62.424 1.26.441 1.918.017.657.027 1.387.031 2.188a76.4 76.4 0 0 0 .058 2.546c.035.895.06 1.714.079 2.455.017.742.026 1.328.026 1.76 0 .43-.038.765-.115 1.001a1.12 1.12 0 0 1-.417.574 1.12 1.12 0 0 1-.675.22 1.12 1.12 0 0 1-.675-.22l-.532-2.222Z" fill="currentColor" stroke="currentColor" stroke-width="2" stroke-linecap="round" stroke-linejoin="round"/><path d="M7.345 9.02a106914.732 106914.732 0 0 0 2.357 1.526l1.415.935a30.18 30.18 0 0 0 2.712 1.609c.865.449 1.657.671 2.377.667.72-.005 1.472-.212 2.256-.623.784-.41 2.023-1.078 3.716-2 1.694-.922 2.657-1.389 2.891-1.4a.653.653 0 0 1 .57.258.653.653 0 0 1 .126.612.653.653 0 0 1-.422.462.653.653 0 0 1-.62-.069.653.653 0 0 1-.31-.543.653.653 0 0 1 .258-.57.653.653 0 0 1 .612-.126c.226.062.38.203.462.421a.653.653 0 0 1-.07.622c-.128.195-1.024.793-2.689 1.795-1.664 1.002-3.156 1.764-4.476 2.288-1.32.524-2.366.72-3.138.592-.773-.13-1.58-.427-2.423-.895a76.117 76.117 0 0 0-2.78-1.461c-1.01-.507-1.933-.974-2.765-1.402a46.677 46.677 0 0 1-1.955-1.049c-.471-.272-.788-.5-.952-.682a1.104 1.104 0 0 1-.284-.638 1.104 1.104 0 0 1 .146-.683 1.11 1.11 0 0 1 .52-.468l2.466.821Z" fill="currentColor" stroke="currentColor" stroke-width="2" stroke-linecap="round" stroke-linejoin="round"/><path d="m13.811 24.602.07-1.401.071-1.402.09-2.894c.06-1.93.15-3.01.27-3.245a.733.733 0 0 1 .567-.412.733.733 0 0 1 .667.217.733.733 0 0 1 .217.667.733.733 0 0 1-.412.567.733.733 0 0 1-.702 0 .733.733 0 0 1-.412-.567.733.733 0 0 1 .217-.667.733.733 0 0 1 .667-.217c.26.041.448.179.567.412.12.234.21 1.316.27 3.245.06 1.93.113 3.361.16 4.296.047.934.07 1.673.07 2.216 0 .544-.037.932-.113 1.165a1.103 1.103 0 0 1-.41.565c-.199.144-.42.216-.665.216-.245 0-.466-.072-.665-.216l-.524-2.545Z" fill="currentColor" stroke="currentColor" stroke-width="2" stroke-linecap="round" stroke-linejoin="round"/></svg>