<svg width="30" height="30" fill="none" xmlns="http://www.w3.org/2000/svg"><path d="M7.587 7.668a375645.159 375645.159 0 0 0 4.45.397l2.685.111c1.791.074 3.44.111 4.948.111 1.508 0 2.714.01 3.62.028.906.018 1.719.108 2.439.27.72.163 1.292.502 1.718 1.018.426.517.705 1.177.838 1.98.133.804.189 1.68.168 2.63-.02.95-.055 1.987-.101 3.11a86.324 86.324 0 0 0-.076 3.241c-.004 1.038-.03 2-.08 2.89-.05.888-.265 1.621-.645 2.2a3.392 3.392 0 0 1-1.54 1.28c-.646.276-1.395.408-2.246.398-.85-.01-2.028-.08-3.532-.208a107.336 107.336 0 0 0-4.948-.296 128.67 128.67 0 0 0-4.954-.104c-1.509 0-2.716-.009-3.622-.027a12.23 12.23 0 0 1-2.438-.271c-.72-.163-1.292-.502-1.718-1.018-.426-.516-.705-1.176-.838-1.98a14.23 14.23 0 0 1-.168-2.629c.02-.95.054-1.986.1-3.11a85.89 85.89 0 0 0 .076-3.24c.004-1.037.206-2.217.607-3.54.4-1.323.688-2.122.861-2.396a.905.905 0 0 1 .745-.443.905.905 0 0 1 .796.342c.207.25.27.531.19.845a.905.905 0 0 1-.571.652.905.905 0 0 1-.863-.08.905.905 0 0 1-.442-.745.905.905 0 0 1 .342-.796.905.905 0 0 1 .845-.19c.314.08.531.27.651.571.12.301-.11 1.088-.693 2.36-.582 1.272-.878 2.419-.89 3.441a59.123 59.123 0 0 0 .054 3.215c.049 1.122.086 2.147.114 3.077.027.93.107 1.806.24 2.63.131.824.457 1.407.977 1.747.52.34 1.214.534 2.081.58.867.045 2.055.068 3.564.068 1.508 0 3.159-.036 4.952-.107a97.582 97.582 0 0 0 4.922-.309c1.488-.135 2.779-.34 3.872-.615 1.093-.275 1.8-.79 2.121-1.547.322-.757.488-1.646.5-2.668a59.185 59.185 0 0 0-.055-3.214 233.794 233.794 0 0 1-.114-3.076 20.519 20.519 0 0 0-.24-2.63c-.131-.823-.457-1.406-.977-1.747-.52-.34-1.213-.534-2.08-.58a71.11 71.11 0 0 0-3.562-.07c-1.508 0-3.157.038-4.948.112-1.79.074-3.427.177-4.91.31-1.484.132-2.656.199-3.519.199-.862 0-1.4-.035-1.614-.104a1.01 1.01 0 0 1-.517-.376 1.01 1.01 0 0 1-.198-.609c0-.224.066-.427.198-.608l3.425-.48Z" fill="currentColor" stroke="currentColor" stroke-width="2" stroke-linecap="round" stroke-linejoin="round"/><path d="m18.98 23.724.198-2.224.2-2.225.11-2.686c.074-1.79.111-3.44.111-4.948 0-1.508-.024-2.697-.074-3.567-.05-.87-.268-1.565-.654-2.084-.386-.519-1.045-.822-1.978-.91a13.882 13.882 0 0 0-2.624-.015c-.818.078-1.467.292-1.95.642-.483.35-.767.967-.852 1.85-.086.883-.213 2.068-.38 3.555-.17 1.487-.303 3.763-.402 6.827-.099 3.065-.18 4.66-.245 4.786a.396.396 0 0 1-.306.223.396.396 0 0 1-.361-.117c-.1-.1-.14-.22-.117-.36a.396.396 0 0 1 .223-.307.396.396 0 0 1 .379 0c.126.064.2.166.223.306a.396.396 0 0 1-.117.361c-.1.1-.221.14-.361.117a.396.396 0 0 1-.307-.223c-.064-.126-.146-1.722-.244-4.786-.098-3.065-.23-5.343-.398-6.836-.166-1.492-.234-2.787-.204-3.886.03-1.098.26-1.993.686-2.685.426-.692.985-1.172 1.675-1.438a6.193 6.193 0 0 1 2.058-.43c.681-.02 1.411-.013 2.189.02.778.035 1.528.14 2.25.315s1.316.5 1.784.973a3.11 3.11 0 0 1 .866 1.728c.111.678.168 1.461.173 2.348.004.888.006 2.085.006 3.593s.037 3.157.111 4.948c.074 1.79.177 3.428.31 4.91.133 1.484.199 2.657.199 3.52 0 .862-.035 1.4-.104 1.613a1.01 1.01 0 0 1-.376.517 1.01 1.01 0 0 1-.609.198 1.01 1.01 0 0 1-.608-.198l-.48-3.425Z" fill="currentColor" stroke="currentColor" stroke-width="2" stroke-linecap="round" stroke-linejoin="round"/></svg>