<svg width="30" height="30" fill="none" xmlns="http://www.w3.org/2000/svg"><path d="M8.511 3.985a1082973.319 1082973.319 0 0 0 3.894.345l2.35.151c1.567.101 3.01.15 4.33.147l3.195-.008c.812-.002 1.57.077 2.274.238.705.16 1.273.524 1.703 1.09.43.567.7 1.35.81 2.35.11 1 .12 2.158.028 3.477a246.02 246.02 0 0 0-.259 4.334 78.949 78.949 0 0 0-.113 4.336c.005 1.32.007 2.386.005 3.197a10.377 10.377 0 0 1-.24 2.273 2.861 2.861 0 0 1-1.085 1.7c-.565.429-1.347.699-2.345.809-.998.11-2.157.12-3.476.03a249.58 249.58 0 0 0-4.333-.256 79.888 79.888 0 0 0-4.337-.112c-1.32.005-2.385.007-3.197.005a10.388 10.388 0 0 1-2.272-.24 2.86 2.86 0 0 1-1.7-1.085c-.429-.565-.699-1.347-.809-2.345-.11-.998-.12-2.157-.03-3.475.09-1.319.175-2.763.255-4.334.08-1.57.118-3.016.113-4.336-.005-1.32-.01-2.378-.012-3.171-.002-.794.185-1.625.564-2.493.378-.868.635-1.412.77-1.633a.724.724 0 0 1 .592-.363.724.724 0 0 1 .64.266.724.724 0 0 1 .162.674.724.724 0 0 1-.45.527.726.726 0 0 1-.691-.055.724.724 0 0 1-.362-.59.724.724 0 0 1 .265-.641.724.724 0 0 1 .674-.162c.252.06.428.21.527.45.099.24-.13.776-.686 1.61-.556.833-.867 1.641-.934 2.425-.067.784-.103 1.835-.107 3.155-.005 1.32.034 2.765.115 4.335.082 1.569.171 3.005.268 4.307.097 1.303.176 2.393.236 3.271.06.878.36 1.539.898 1.981.538.443 1.204.713 1.999.811.795.098 1.852.15 3.172.154a77.89 77.89 0 0 0 4.334-.116c1.57-.081 3.006-.17 4.308-.268 1.303-.097 2.393-.176 3.27-.236.879-.06 1.54-.36 1.982-.898.442-.537.713-1.204.81-1.998.099-.795.15-1.853.155-3.173a77.76 77.76 0 0 0-.117-4.334 191.63 191.63 0 0 0-.271-4.308 543.74 543.74 0 0 1-.238-3.267c-.061-.876-.36-1.534-.896-1.975-.536-.44-1.201-.71-1.995-.812-.794-.1-1.85-.153-3.17-.156a65.296 65.296 0 0 0-4.33.147c-1.566.1-2.998.208-4.296.323-1.298.115-2.324.173-3.079.173-.754 0-1.242-.036-1.462-.108a1.045 1.045 0 0 1-.536-.389 1.045 1.045 0 0 1-.204-.629c0-.231.068-.441.204-.629l3.13-.496Z" fill="currentColor" stroke="currentColor" stroke-width="2" stroke-linecap="round" stroke-linejoin="round"/><path d="M21.21 3.63a2316.168 2316.168 0 0 0 .036 1.113l.008 1.149c.006.765-.078 1.318-.252 1.659-.173.34-.449.54-.826.6a1.067 1.067 0 0 1-.971-.315 1.067 1.067 0 0 1-.316-.972c.06-.377.26-.653.6-.826.34-.174.681-.174 1.022 0 .34.173.54.449.6.826.06.378-.045.701-.316.972-.27.27-.594.375-.971.315a1.068 1.068 0 0 1-.826-.6c-.174-.34-.258-.894-.252-1.66.005-.765.014-1.333.026-1.704.011-.37.017-.664.017-.88 0-.215.039-.442.116-.679.077-.237.216-.429.418-.576a1.13 1.13 0 0 1 .677-.22c.25 0 .475.074.677.22l.534 1.579Zm-10 0 .018.557.018.556.008 1.149c.006.765-.078 1.318-.252 1.659-.173.34-.449.54-.826.6a1.067 1.067 0 0 1-.972-.315 1.067 1.067 0 0 1-.315-.972c.06-.377.26-.653.6-.826.34-.174.681-.174 1.022 0 .34.173.54.449.6.826.06.378-.045.701-.316.972-.27.27-.594.375-.971.315a1.067 1.067 0 0 1-.826-.6c-.174-.34-.258-.894-.252-1.66.005-.765.014-1.333.026-1.704.011-.37.017-.664.017-.88 0-.215.039-.442.116-.679.077-.237.216-.429.418-.576a1.13 1.13 0 0 1 .677-.22c.25 0 .475.074.677.22l.534 1.579Zm-2.134 7.818 2.503.22 2.502.219 5.168.072c3.446.048 5.232.104 5.358.169.126.064.2.166.223.307a.396.396 0 0 1-.117.36c-.1.1-.22.14-.361.117a.396.396 0 0 1-.307-.222.396.396 0 0 1 0-.38.396.396 0 0 1 .307-.223c.14-.022.26.017.36.118.101.1.14.22.118.36a.396.396 0 0 1-.223.307c-.127.065-1.912.12-5.358.17-3.445.047-6.002.145-7.67.29-1.669.147-2.988.22-3.959.22-.97 0-1.558-.033-1.764-.1a.977.977 0 0 1-.5-.364.977.977 0 0 1-.192-.588c0-.217.064-.413.191-.588l3.72-.464Z" fill="currentColor" stroke="currentColor" stroke-width="2" stroke-linecap="round" stroke-linejoin="round"/></svg>