<svg width="30" height="30" fill="none" xmlns="http://www.w3.org/2000/svg"><g clip-path="url(#a)"><path d="M8.216 6.988a1620732.014 1620732.014 0 0 0 5.838 6.398l6.317 6.316c4.21 4.211 6.338 6.384 6.382 6.52a.396.396 0 0 1-.06.374.396.396 0 0 1-.337.172.397.397 0 0 1-.338-.172.396.396 0 0 1-.06-.375.396.396 0 0 1 .269-.268.396.396 0 0 1 .374.06.396.396 0 0 1 .172.337.396.396 0 0 1-.172.338.397.397 0 0 1-.374.06c-.135-.044-2.308-2.172-6.52-6.383-4.21-4.21-7.382-7.29-9.514-9.235C8.06 9.184 6.4 7.618 5.215 6.432c-1.186-1.186-1.82-1.858-1.9-2.017a.802.802 0 0 1-.08-.502.802.802 0 0 1 .23-.452.802.802 0 0 1 .454-.231l4.297 3.758Z" fill="currentColor" stroke="currentColor" stroke-width="2" stroke-linecap="round" stroke-linejoin="round"/><path d="m23.103 27.265-2.503-.219-2.503-.22-3.022-.072a234.94 234.94 0 0 0-5.566-.072c-1.696 0-3.036-.006-4.019-.018-.983-.011-1.822-.082-2.519-.212a3.074 3.074 0 0 1-1.748-.96c-.468-.51-.786-1.224-.954-2.143a13.437 13.437 0 0 1-.192-2.923c.039-1.029.09-2.16.155-3.393.065-1.233.1-2.368.105-3.405a60.618 60.618 0 0 0-.03-2.53A7.897 7.897 0 0 1 .468 9.17c.133-.636.45-1.2.951-1.694.502-.494 1.122-.823 1.861-.99.74-.165 1.564-.342 2.473-.53.91-.187 1.894-.603 2.953-1.247a13.513 13.513 0 0 1 3.201-1.44c1.075-.317 1.964-.488 2.67-.513a32.19 32.19 0 0 1 2.055-.01 5.965 5.965 0 0 1 2.014.427c.68.266 1.347.698 2.004 1.294a5.669 5.669 0 0 0 2.317 1.268c.887.25 1.673.392 2.356.427a6.519 6.519 0 0 1 2.084.477 3.64 3.64 0 0 1 1.714 1.406c.437.655.69 1.384.76 2.185.07.802.071 1.641.004 2.518-.068.877-.187 2.302-.356 4.277-.17 1.974-.333 3.018-.49 3.132a.873.873 0 0 1-.525.17.873.873 0 0 1-.526-.17c-.157-.113-.505-.186-1.047-.216-.54-.03-1.704-.082-3.49-.157-1.785-.075-2.983-.036-3.595.115a4.805 4.805 0 0 0-1.712.814 8.346 8.346 0 0 1-1.725.98 5.41 5.41 0 0 1-1.972.42 5.63 5.63 0 0 1-2.047-.329 5.952 5.952 0 0 1-3.194-2.723 6.062 6.062 0 0 1-.622-4.256 6.07 6.07 0 0 1 .824-1.996c.387-.6.759-1.06 1.114-1.377a1.331 1.331 0 0 1 1.232-.325c.465.101.794.37.986.806.192.436.168.86-.072 1.271a1.33 1.33 0 0 1-1.07.69 1.331 1.331 0 0 1-1.188-.462 1.33 1.33 0 0 1-.325-1.231c.101-.466.37-.795.806-.987a1.33 1.33 0 0 1 1.272.072c.411.24.641.597.689 1.071.048.474-.193 1.263-.722 2.366-.529 1.103-.719 1.96-.57 2.572.15.612.445 1.144.888 1.597.443.453.984.776 1.624.97.64.193 1.273.239 1.9.138a8.703 8.703 0 0 0 1.861-.522 9.567 9.567 0 0 1 1.932-.545c.673-.118 2.094-.022 4.262.286 2.168.308 3.585.517 4.25.625.665.108.919.22.762.333a.873.873 0 0 1-.525.17.873.873 0 0 1-.526-.17c-.157-.113-.32-1.157-.49-3.13a749.3 749.3 0 0 1-.402-4.806c-.098-1.23-.386-2.08-.862-2.55-.477-.47-1.126-.734-1.948-.79a18.623 18.623 0 0 1-2.463-.334c-.819-.167-1.467-.483-1.943-.947a54.12 54.12 0 0 1-1.524-1.554c-.54-.572-1.122-.933-1.748-1.085a8.23 8.23 0 0 0-1.937-.23 15.3 15.3 0 0 0-2.29.193c-.862.13-1.863.65-3.004 1.558-1.142.91-2.136 1.51-2.985 1.801-.849.292-1.6.449-2.254.47-.654.022-1.173.262-1.556.72a3.397 3.397 0 0 0-.737 1.644c-.108.637-.16 1.474-.154 2.511.005 1.037.04 2.172.105 3.404.065 1.233.118 2.361.159 3.385.04 1.023.147 2 .318 2.928.172.928.52 1.547 1.045 1.857.525.309 1.264.477 2.217.503.953.026 2.278.04 3.974.04 1.696 0 3.552-.025 5.566-.073a87.698 87.698 0 0 0 5.525-.292c1.668-.146 2.988-.219 3.958-.219.97 0 1.559.034 1.765.1a.977.977 0 0 1 .5.364.977.977 0 0 1 .191.588.977.977 0 0 1-.19.588l-3.721.465Z" fill="currentColor"/><path d="M29.04 20.157c.156-.114.32-1.158.489-3.132.17-1.975.288-3.4.356-4.277.067-.877.066-1.716-.004-2.518a4.599 4.599 0 0 0-.76-2.185 3.651 3.651 0 0 0-1.713-1.406 6.519 6.519 0 0 0-2.085-.477c-.683-.035-1.469-.178-2.356-.427a5.669 5.669 0 0 1-2.317-1.268c-.657-.596-1.324-1.028-2.003-1.294a5.965 5.965 0 0 0-2.015-.427 32.19 32.19 0 0 0-2.055.01c-.706.025-1.595.196-2.67.512a13.513 13.513 0 0 0-3.2 1.44c-1.06.645-2.044 1.06-2.954 1.248-.91.188-1.733.365-2.473.53-.739.167-1.36.496-1.86.99C.917 7.969.6 8.534.467 9.17a7.897 7.897 0 0 0-.161 1.928c.025.65.035 1.493.03 2.53a72.187 72.187 0 0 1-.105 3.405 239.76 239.76 0 0 0-.155 3.393c-.04 1.029.025 2.003.192 2.923.168.92.486 1.634.954 2.144.47.51 1.052.83 1.748.96.697.129 1.536.2 2.52.211a347.8 347.8 0 0 0 4.018.018c1.696 0 3.552.024 5.566.072l3.022.073a43692.997 43692.997 0 0 0 5.006.438l3.72-.463a.977.977 0 0 0 .191-.589.977.977 0 0 0-.19-.588.977.977 0 0 0-.501-.363c-.206-.067-.794-.1-1.765-.1-.97 0-2.29.072-3.958.218-1.669.147-3.51.244-5.525.292-2.014.048-3.87.073-5.566.073-1.696 0-3.02-.014-3.974-.04-.953-.026-1.692-.194-2.217-.503-.525-.31-.873-.929-1.045-1.857a20.655 20.655 0 0 1-.318-2.928 269.609 269.609 0 0 0-.159-3.385 71.767 71.767 0 0 1-.105-3.404c-.005-1.037.046-1.874.154-2.511a3.397 3.397 0 0 1 .737-1.644c.383-.458.902-.698 1.556-.72.654-.021 1.405-.178 2.254-.47.849-.291 1.843-.892 2.985-1.8 1.14-.91 2.142-1.429 3.004-1.56a15.3 15.3 0 0 1 2.29-.193 8.23 8.23 0 0 1 1.937.23c.626.153 1.208.514 1.748 1.086A54.12 54.12 0 0 0 19.88 7.6c.476.464 1.124.78 1.944.947.819.167 1.64.279 2.462.335.822.055 1.471.318 1.948.789.476.47.764 1.32.861 2.55a749.3 749.3 0 0 0 .403 4.805c.17 1.974.333 3.018.49 3.131m1.051 0a.873.873 0 0 1-.525.17.873.873 0 0 1-.526-.17m1.051 0c.157-.114-.097-.225-.762-.333-.665-.108-2.082-.317-4.25-.625s-3.589-.404-4.262-.287a9.567 9.567 0 0 0-1.932.546 8.703 8.703 0 0 1-1.862.522 4.188 4.188 0 0 1-1.899-.138 3.738 3.738 0 0 1-1.624-.97 3.396 3.396 0 0 1-.888-1.597c-.149-.611.041-1.469.57-2.572.53-1.103.77-1.892.722-2.366a1.331 1.331 0 0 0-.69-1.07 1.33 1.33 0 0 0-1.27-.073c-.437.192-.705.52-.806.987a1.33 1.33 0 0 0 .324 1.231c.317.356.713.51 1.187.462a1.33 1.33 0 0 0 1.071-.69 1.33 1.33 0 0 0 .072-1.271 1.331 1.331 0 0 0-.986-.806 1.331 1.331 0 0 0-1.232.325c-.355.317-.727.776-1.114 1.377a6.068 6.068 0 0 0-.824 1.996 6.062 6.062 0 0 0 1.983 5.921 5.811 5.811 0 0 0 1.833 1.058 5.63 5.63 0 0 0 2.047.328 5.41 5.41 0 0 0 1.972-.42 8.346 8.346 0 0 0 1.725-.979c.53-.39 1.1-.662 1.712-.814.612-.151 1.81-.19 3.596-.115 1.785.075 2.948.127 3.49.157.54.03.89.103 1.046.216" stroke="currentColor" stroke-width="2" stroke-linecap="round" stroke-linejoin="round"/></g><defs><clipPath id="a"><path fill="#fff" d="M0 0h30v30H0z"/></clipPath></defs></svg>