<svg width="30" height="30" fill="none" xmlns="http://www.w3.org/2000/svg"><g clip-path="url(#a)" fill="currentColor" stroke="currentColor" stroke-width="2" stroke-linecap="round" stroke-linejoin="round"><path d="m29.634 24.447-.156.521-.155.521-.324.481a3.63 3.63 0 0 1-.788.845c-.31.242-.71.429-1.201.56-.491.13-1.258.18-2.301.152-1.043-.03-2.404-.13-4.08-.304a80.282 80.282 0 0 0-5.542-.36c-2.016-.067-3.872-.1-5.569-.1a377.7 377.7 0 0 1-4.02-.017c-.983-.011-1.823-.081-2.52-.21a3.064 3.064 0 0 1-1.75-.958C.757 25.067.44 24.35.272 23.43a13.44 13.44 0 0 1-.191-2.923c.04-1.03.092-2.16.156-3.393.065-1.233.1-2.368.106-3.405a60.511 60.511 0 0 0-.03-2.53A7.898 7.898 0 0 1 .476 9.25c.133-.636.454-1.2.964-1.694s1.142-.826 1.893-.995c.752-.17 1.51-.286 2.274-.35.764-.063 1.425-.25 1.982-.559.558-.31 1.078-.761 1.56-1.355.481-.595 1.123-1.052 1.925-1.372.801-.32 1.768-.473 2.899-.459 1.13.014 2.03.045 2.696.094.667.048 1.352.22 2.057.513.704.294 1.381.75 2.03 1.367a5.48 5.48 0 0 0 2.262 1.304c.859.253 1.63.4 2.316.441a6.647 6.647 0 0 1 2.096.494c.712.288 1.287.77 1.724 1.446.438.676.686 1.454.744 2.336.058.882.037 1.838-.065 2.868-.102 1.03-.202 2.599-.301 4.707-.1 2.107-.209 3.277-.327 3.51a.728.728 0 0 1-.563.41.728.728 0 0 1-.663-.216.728.728 0 0 1-.215-.662.728.728 0 0 1 .41-.564.728.728 0 0 1 .696 0 .728.728 0 0 1 .41.563.727.727 0 0 1-.216.663.728.728 0 0 1-.662.215.728.728 0 0 1-.564-.409c-.118-.232-.227-1.402-.327-3.51-.1-2.106-.21-3.85-.329-5.232-.119-1.382-.423-2.34-.912-2.872-.49-.533-1.147-.829-1.973-.887a19.567 19.567 0 0 1-2.495-.34c-.838-.169-1.503-.485-1.995-.95a47.32 47.32 0 0 1-1.51-1.491c-.515-.531-1.08-.857-1.695-.978a8.288 8.288 0 0 0-1.924-.142 6.49 6.49 0 0 0-2.048.434c-.699.264-1.33.697-1.894 1.302-.563.604-1.15 1.06-1.761 1.368-.61.308-1.327.48-2.148.515a108.8 108.8 0 0 1-2.403.079c-.78.016-1.377.254-1.79.712a3.202 3.202 0 0 0-.78 1.643c-.108.638-.16 1.475-.154 2.512a71.53 71.53 0 0 0 .106 3.404c.065 1.232.119 2.36.16 3.384.042 1.024.148 1.999.319 2.925.17.927.519 1.546 1.043 1.856.524.311 1.263.48 2.216.507a167.663 167.663 0 0 0 9.543-.061 78.968 78.968 0 0 0 5.534-.364c1.673-.175 3-.31 3.985-.405.984-.095 1.654-.246 2.01-.455.356-.209.556-.4.599-.575a3.76 3.76 0 0 1 .222-.614 1.16 1.16 0 0 1 .49-.545c.223-.129.462-.18.718-.153.256.027.48.126.67.298l.319 1.536Z"/><path d="m20.922 18.058-.58.927-.578.927-1.24 1.015c-.826.678-1.554 1.083-2.184 1.218a6.054 6.054 0 0 1-1.904.1 6.037 6.037 0 0 1-3.396-1.495 5.958 5.958 0 0 1-1.86-3.22 6.07 6.07 0 0 1-.1-1.912 6.054 6.054 0 0 1 1.504-3.403 5.97 5.97 0 0 1 3.226-1.86 6.092 6.092 0 0 1 1.914-.1c.641.068 1.519.55 2.632 1.448 1.113.898 1.8 1.493 2.061 1.787.262.294.35.633.266 1.018a1.099 1.099 0 0 1-.667.813 1.1 1.1 0 0 1-1.05-.062 1.1 1.1 0 0 1-.567-.886c-.038-.391.09-.717.383-.979.294-.261.634-.35 1.018-.266.384.085.655.307.813.668.158.36.137.71-.062 1.05a1.097 1.097 0 0 1-.885.566c-.392.04-1.001-.331-1.828-1.11-.826-.78-1.617-1.214-2.37-1.305-.754-.09-1.44.041-2.057.396a3.192 3.192 0 0 0-1.363 1.523 3.281 3.281 0 0 0-.212 2.05c.15.707.49 1.3 1.02 1.78s1.16.758 1.891.833a3.358 3.358 0 0 0 2.046-.425c.634-.358 1.088-.724 1.363-1.096.275-.371.469-.81.58-1.316.113-.505.233-.864.363-1.077.13-.213.31-.367.539-.464.23-.096.466-.115.708-.058.243.058.445.181.608.37l-.032 2.545Z"/></g><defs><clipPath id="a"><path fill="#fff" d="M0 0h30v30H0z"/></clipPath></defs></svg>