<svg width="30" height="30" fill="none" xmlns="http://www.w3.org/2000/svg"><path d="M3.827 19.046a63791.13 63791.13 0 0 0 1.518.673l.755.62c.503.412 1.047 1.128 1.632 2.146.586 1.017.82 1.661.702 1.93-.117.27-.302.48-.556.63a1.326 1.326 0 0 1-.819.18c-.293-.028-.577-.372-.851-1.03-.275-.66-.8-2.064-1.576-4.211-.775-2.148-.971-3.468-.589-3.962.383-.494 1.04-.652 1.974-.473.934.178 1.841.573 2.722 1.184.88.61 1.85 1.806 2.911 3.586 1.06 1.78 1.539 2.779 1.435 2.994-.104.215-.261.38-.472.492-.21.113-.434.154-.67.122-.237-.033-.647-.488-1.23-1.366l-3.72-5.603c-1.898-2.856-3.097-4.706-3.597-5.55-.5-.843-.83-1.617-.992-2.322a6.342 6.342 0 0 1-.152-2.019c.06-.641.276-1.22.645-1.738.37-.518 1.033-.883 1.99-1.095.958-.211 2.404-.274 4.34-.188 1.935.086 3.8.156 5.592.209 1.793.053 3.443.08 4.951.08 1.508 0 2.706.002 3.593.007s1.67.064 2.346.176a2.9 2.9 0 0 1 1.728.967c.475.533.792 1.286.952 2.261.16.976.21 2.024.149 3.146-.061 1.12-.132 2.354-.212 3.7a73.513 73.513 0 0 0-.136 3.713 51.3 51.3 0 0 0 .033 2.743 8.474 8.474 0 0 1-.137 2.011c-.125.644-.446 1.21-.964 1.701-.518.49-1.224.819-2.12.985-.895.166-2.117.248-3.664.246-1.547-.002-2.48-.084-2.8-.247a1.002 1.002 0 0 1-.564-.775 1.002 1.002 0 0 1 .296-.912 1 1 0 0 1 .912-.297c.354.056.613.244.776.563.163.32.163.64 0 .96a1 1 0 0 1-.776.563 1.002 1.002 0 0 1-.912-.296 1.002 1.002 0 0 1-.296-.912 1 1 0 0 1 .563-.776c.32-.163 1.054-.248 2.204-.256a61.77 61.77 0 0 0 3.179-.097c.968-.056 1.678-.315 2.13-.777.45-.462.726-1.032.826-1.711.1-.68.145-1.584.135-2.716a73.063 73.063 0 0 0-.137-3.713 860.16 860.16 0 0 1-.215-3.692 42.294 42.294 0 0 0-.27-3.033c-.116-.907-.437-1.541-.96-1.904-.523-.363-1.22-.569-2.09-.618a68.358 68.358 0 0 0-3.569-.073c-1.508 0-3.158.027-4.95.08-1.793.054-3.433.135-4.92.243-1.488.109-2.723.19-3.704.247-.98.056-1.703.316-2.168.778-.465.463-.676 1.07-.634 1.82.042.75.305 1.552.79 2.407.484.855 1.786 2.667 3.905 5.437 2.12 2.77 3.508 4.58 4.165 5.43.658.851.935 1.384.83 1.599-.103.215-.26.38-.47.492a1.083 1.083 0 0 1-.672.122c-.236-.033-.829-.85-1.777-2.454-.948-1.603-1.756-2.713-2.424-3.33-.669-.618-1.354-1.094-2.055-1.427-.702-.334-1.132-.415-1.29-.244-.16.172.319 1.178 1.434 3.018a313.633 313.633 0 0 0 2.226 3.64c.37.588.496 1.016.378 1.286-.117.27-.302.479-.556.628-.253.15-.526.21-.819.181-.293-.028-.865-.58-1.716-1.656-.852-1.076-1.442-1.711-1.772-1.906a4.745 4.745 0 0 0-.92-.433 2.646 2.646 0 0 1-.732-.36 1.134 1.134 0 0 1-.423-.58 1.134 1.134 0 0 1-.001-.719c.077-.24.218-.433.42-.581l1.912.056Zm-1.321 4.809a31877.703 31877.703 0 0 0 .69.224l.212.293c.142.196.213.414.213.656 0 .242-.07.46-.213.655-.142.196-.327.33-.557.406a1.09 1.09 0 0 1-.69 0 1.089 1.089 0 0 1-.557-.405 1.089 1.089 0 0 1-.213-.656c0-.242.071-.46.213-.655l.902-.518Z" fill="currentColor" stroke="currentColor" stroke-width="2" stroke-linecap="round" stroke-linejoin="round"/></svg>