<svg width="30" height="30" fill="none" xmlns="http://www.w3.org/2000/svg"><path d="m23.247 10.987-1.666 1.392-1.667 1.392-1.931 1.762a111.652 111.652 0 0 0-3.499 3.322c-1.044 1.04-1.95 1.768-2.717 2.183-.767.414-1.61.43-2.532.046-.92-.384-1.876-1.047-2.868-1.988-.991-.942-1.526-1.526-1.605-1.754a.674.674 0 0 1 .09-.64.674.674 0 0 1 .569-.302.674.674 0 0 1 .58.282.674.674 0 0 1 .112.636.674.674 0 0 1-.448.464.674.674 0 0 1-.639-.09.674.674 0 0 1-.303-.57.674.674 0 0 1 .283-.579.674.674 0 0 1 .635-.112c.23.07.818.582 1.76 1.534.943.953 1.694 1.668 2.254 2.145.559.478 1.14.534 1.743.17.603-.365 1.42-1.064 2.448-2.098a110.902 110.902 0 0 0 3.304-3.48 110.041 110.041 0 0 0 3.155-3.599c.928-1.11 1.689-1.963 2.282-2.556.592-.593.99-.94 1.19-1.043.202-.103.414-.136.637-.1.223.034.415.132.574.292.16.16.258.35.293.574l-2.034 2.717Z" fill="currentColor" stroke="currentColor" stroke-width="2" stroke-linecap="round" stroke-linejoin="round"/></svg>