<svg width="30" height="30" fill="none" xmlns="http://www.w3.org/2000/svg"><g clip-path="url(#a)" fill="currentColor" stroke="currentColor" stroke-width="2" stroke-linecap="round" stroke-linejoin="round"><path d="m28.594 14.1.021.543.022.543-.113.906c-.075.605-.27 1.447-.585 2.527a13.74 13.74 0 0 1-1.356 3.122 13.564 13.564 0 0 1-11.48 6.692 13.467 13.467 0 0 1-3.439-.39 13.501 13.501 0 0 1-3.23-1.252A13.487 13.487 0 0 1 3.43 22.09a13.484 13.484 0 0 1-2.052-6.552c-.054-1.163.04-2.314.281-3.453A13.486 13.486 0 0 1 4.746 5.95a13.482 13.482 0 0 1 5.7-3.828c1.099-.383 2.61-.573 4.531-.571 1.922.002 3.06.078 3.417.228.356.15.578.414.665.79.088.376.006.71-.247 1.003a1.08 1.08 0 0 1-.957.389 1.08 1.08 0 0 1-.877-.546 1.08 1.08 0 0 1-.074-1.03 1.08 1.08 0 0 1 .79-.665 1.08 1.08 0 0 1 1.002.247c.292.253.422.572.39.957a1.08 1.08 0 0 1-.546.877c-.33.2-1.377.282-3.14.248-1.762-.035-3.093.098-3.992.398a10.979 10.979 0 0 0-4.683 3.057 11.008 11.008 0 0 0-2.844 7.771 10.978 10.978 0 0 0 1.601 5.358 11.007 11.007 0 0 0 6.642 4.934 10.979 10.979 0 0 0 5.592-.014 10.995 10.995 0 0 0 6.614-4.968 11.42 11.42 0 0 0 1.14-2.553c.27-.89.446-1.594.525-2.111.08-.518.133-.95.16-1.299.027-.348.041-.58.041-.693 0-.114.038-.288.114-.523.077-.235.215-.425.415-.57.2-.145.423-.218.67-.218.247 0 .47.073.67.218l.529 1.264Z"/><path d="M26.184 8.28 24.67 9.547l-1.515 1.267-1.785 1.575a66.7 66.7 0 0 0-3.2 2.997c-.942.949-1.734 1.64-2.377 2.075-.643.435-1.611.305-2.905-.389-1.293-.694-1.998-1.159-2.114-1.395a.735.735 0 0 1 .01-.702.734.734 0 0 1 .575-.405.734.734 0 0 1 .665.227.734.734 0 0 1 .207.671.734.734 0 0 1-.42.563.734.734 0 0 1-.704-.01.734.734 0 0 1-.404-.575.735.735 0 0 1 .226-.665.734.734 0 0 1 .672-.208c.259.045.776.451 1.55 1.217.775.767 1.46 1.012 2.053.737.594-.276 1.362-.883 2.304-1.82a66.405 66.405 0 0 0 2.986-3.194A167.734 167.734 0 0 0 23.33 8.21c.844-1.01 1.535-1.786 2.074-2.326.54-.54.912-.862 1.118-.967.206-.105.423-.14.65-.103.23.036.425.136.589.299.163.163.263.36.3.587l-1.878 2.58Z"/></g><defs><clipPath id="a"><path fill="#fff" d="M0 0h30v30H0z"/></clipPath></defs></svg>