<svg width="30" height="30" fill="none" xmlns="http://www.w3.org/2000/svg"><path d="M14.127 12.529a65854.987 65854.987 0 0 0 .858.81l.393.549c.262.365.549.59.86.676.31.086 1.073-.377 2.29-1.39 1.215-1.01 2.819-2.433 4.81-4.266 1.992-1.833 3.059-2.773 3.201-2.819a.419.419 0 0 1 .396.064.419.419 0 0 1 .18.357c0 .15-.06.27-.182.357a.419.419 0 0 1-.396.062.419.419 0 0 1-.282-.284.419.419 0 0 1 .063-.396.419.419 0 0 1 .358-.18c.15 0 .268.06.356.182a.419.419 0 0 1 .062.396c-.047.142-.991 1.208-2.834 3.198a288.916 288.916 0 0 1-4.578 4.852c-1.21 1.245-2.34 1.821-3.39 1.727-1.05-.093-1.823-.338-2.321-.732a11.203 11.203 0 0 1-1.152-1.02A35.16 35.16 0 0 0 12.17 14a2.257 2.257 0 0 1-.413-.576 1.126 1.126 0 0 1-.111-.704c.039-.247.147-.458.323-.635.177-.176.388-.284.635-.323l1.522.767Z" fill="currentColor" stroke="currentColor" stroke-width="2" stroke-linecap="round" stroke-linejoin="round"/><path d="m27.34 16.01-.01.973-.01.973-.032 1.175a93.715 93.715 0 0 0-.034 2.247c-.002.713-.027 1.4-.077 2.057-.05.658-.256 1.318-.619 1.981a3.518 3.518 0 0 1-1.561 1.498c-.679.336-1.448.502-2.308.498-.86-.004-1.943-.076-3.25-.217a127.52 127.52 0 0 0-4.314-.385 63.456 63.456 0 0 0-4.333-.183c-1.32-.006-2.376.001-3.169.02-.792.02-1.52-.024-2.182-.134-.662-.11-1.234-.449-1.718-1.018-.483-.569-.796-1.394-.94-2.475-.142-1.082-.16-2.276-.056-3.583.104-1.306.202-2.744.294-4.313a69.1 69.1 0 0 0 .13-4.332c-.006-1.32-.016-2.376-.03-3.168a12.19 12.19 0 0 1 .138-2.179c.108-.66.432-1.232.974-1.714.542-.483 1.283-.804 2.225-.964.942-.16 1.927-.213 2.957-.16 1.029.053 2.597.114 4.705.182 2.107.068 3.26.153 3.46.254a.623.623 0 0 1 .35.482.623.623 0 0 1-.184.566.622.622 0 0 1-.567.185.623.623 0 0 1-.482-.35.623.623 0 0 1 0-.596.623.623 0 0 1 .482-.35.622.622 0 0 1 .566.183c.158.158.22.347.185.567a.623.623 0 0 1-.35.482c-.199.101-1.352.186-3.46.255-2.106.068-3.672.13-4.695.185a35.909 35.909 0 0 0-2.791.249c-.838.111-1.434.407-1.787.886-.354.48-.565 1.104-.633 1.873-.067.768-.104 1.812-.11 3.132-.005 1.32.039 2.763.131 4.332.093 1.568.192 3.003.298 4.305.107 1.302.223 2.439.35 3.41.128.97.43 1.644.909 2.018.478.375 1.101.599 1.869.671.768.073 1.811.106 3.13.1a63.207 63.207 0 0 0 4.333-.184 121.95 121.95 0 0 0 4.305-.388c1.301-.143 2.42-.318 3.355-.526.935-.207 1.533-.599 1.794-1.174.262-.575.397-1.227.407-1.956.01-.729.004-1.485-.017-2.269a134.727 134.727 0 0 1-.052-3.688c0-.377.038-.684.116-.922a1.12 1.12 0 0 1 .418-.576c.202-.147.428-.22.678-.22.25 0 .475.073.677.22l.535 2.064Z" fill="currentColor" stroke="currentColor" stroke-width="2" stroke-linecap="round" stroke-linejoin="round"/></svg>