<svg width="30" height="30" fill="none" xmlns="http://www.w3.org/2000/svg"><path d="m11.08 16.714.687.703.687.703.816.863c.545.575 1.142.967 1.791 1.175.65.21 1.626-.242 2.93-1.352 1.303-1.11 2.117-1.717 2.44-1.82a.95.95 0 0 1 .897.15.95.95 0 0 1 .405.813.95.95 0 0 1-.418.805.95.95 0 0 1-.899.135.95.95 0 0 1-.637-.647.95.95 0 0 1 .15-.896.949.949 0 0 1 .812-.406c.34.003.609.143.806.42a.949.949 0 0 1 .135.897c-.108.323-.64.97-1.596 1.943-.956.972-1.875 1.73-2.756 2.274-.88.544-1.64.748-2.277.611-.638-.137-1.223-.446-1.756-.928a98.285 98.285 0 0 1-1.662-1.54 136.797 136.797 0 0 1-2.673-2.594c-.27-.27-.461-.516-.574-.738a1.125 1.125 0 0 1-.112-.703c.04-.247.147-.459.323-.635.177-.176.388-.284.635-.323l1.846 1.09Zm0-8.75.687.703.687.703.816.863c.545.575 1.142.967 1.791 1.175.65.21 1.626-.242 2.93-1.352 1.303-1.11 2.117-1.717 2.44-1.82a.95.95 0 0 1 .897.15.949.949 0 0 1 .405.813.95.95 0 0 1-.418.806.95.95 0 0 1-.899.134.95.95 0 0 1-.637-.647.95.95 0 0 1 .15-.896.949.949 0 0 1 .812-.406c.34.003.609.143.806.42a.949.949 0 0 1 .135.897c-.108.323-.64.97-1.596 1.943-.956.972-1.875 1.73-2.756 2.275-.88.543-1.64.747-2.277.61-.638-.137-1.223-.446-1.756-.928a98.285 98.285 0 0 1-1.662-1.54 136.797 136.797 0 0 1-2.673-2.594c-.27-.27-.461-.516-.574-.738a1.125 1.125 0 0 1-.112-.703c.04-.247.147-.458.323-.635.177-.176.388-.284.635-.323l1.846 1.09Z" fill="currentColor" stroke="currentColor" stroke-width="2" stroke-linecap="round" stroke-linejoin="round"/></svg>