<svg width="30" height="30" fill="none" xmlns="http://www.w3.org/2000/svg"><path d="m16.714 18.92.703-.687.703-.687.863-.816c.575-.544.966-1.142 1.175-1.791.21-.65-.242-1.626-1.352-2.93-1.11-1.303-1.717-2.117-1.82-2.44a.95.95 0 0 1 .15-.897.95.95 0 0 1 .813-.405.95.95 0 0 1 .805.418.949.949 0 0 1 .135.899.949.949 0 0 1-.647.636.949.949 0 0 1-.896-.149.95.95 0 0 1-.406-.812.95.95 0 0 1 .42-.806.949.949 0 0 1 .897-.135c.323.108.97.64 1.943 1.596.972.956 1.73 1.875 2.274 2.756.544.88.748 1.64.611 2.277-.137.638-.446 1.223-.928 1.756a98.702 98.702 0 0 1-1.54 1.662 137.635 137.635 0 0 1-2.594 2.673c-.27.27-.516.461-.738.575-.223.113-.457.15-.704.11a1.125 1.125 0 0 1-.634-.322 1.125 1.125 0 0 1-.323-.635l1.09-1.846Zm-8.75 0 .703-.687.703-.687.863-.816c.575-.544.966-1.142 1.175-1.791.21-.65-.242-1.626-1.352-2.93-1.11-1.303-1.717-2.117-1.82-2.44a.95.95 0 0 1 .15-.897.95.95 0 0 1 .813-.405.95.95 0 0 1 .806.418.949.949 0 0 1 .134.899.949.949 0 0 1-.647.636.949.949 0 0 1-.896-.149.949.949 0 0 1-.406-.812.95.95 0 0 1 .42-.806.95.95 0 0 1 .897-.135c.323.108.97.64 1.943 1.596.972.956 1.73 1.875 2.275 2.756.543.88.747 1.64.61 2.277-.137.638-.446 1.223-.928 1.756a98.702 98.702 0 0 1-1.54 1.662 137.635 137.635 0 0 1-2.594 2.673c-.27.27-.516.461-.738.575-.222.113-.457.15-.703.11a1.125 1.125 0 0 1-.635-.322 1.125 1.125 0 0 1-.323-.635l1.09-1.846Z" fill="currentColor" stroke="currentColor" stroke-width="2" stroke-linecap="round" stroke-linejoin="round"/></svg>