<svg width="30" height="30" fill="none" xmlns="http://www.w3.org/2000/svg"><path d="m16.286 21.541-.81-.86-.808-.859-.963-1.051a963.412 963.412 0 0 1-1.82-1.99c-.571-.624-.935-1.28-1.092-1.967-.157-.687.087-1.525.732-2.513.645-.987 1.552-2.052 2.722-3.192 1.17-1.141 1.894-1.758 2.172-1.85a.82.82 0 0 1 .776.116.82.82 0 0 1 .361.695.82.82 0 0 1-.35.702.82.82 0 0 1-.773.129.82.82 0 0 1-.56-.55.82.82 0 0 1 .117-.776.82.82 0 0 1 .696-.361.82.82 0 0 1 .701.35.82.82 0 0 1 .13.774c-.089.28-.691 1.003-1.807 2.17s-1.86 2.102-2.233 2.805c-.373.703-.351 1.376.065 2.018.416.642.975 1.284 1.676 1.926.7.642 1.338 1.233 1.91 1.773.574.539 1.022.97 1.345 1.294.324.323.542.595.655.816.112.221.149.454.11.7a1.117 1.117 0 0 1-.321.63 1.118 1.118 0 0 1-.63.32l-2.001-1.249Z" fill="currentColor" stroke="currentColor" stroke-width="2" stroke-linecap="round" stroke-linejoin="round"/></svg>