<svg width="30" height="30" fill="none" xmlns="http://www.w3.org/2000/svg"><path d="m11.565 20.641-.687-.703-.687-.703-.816-.863a98.544 98.544 0 0 1-1.54-1.662c-.481-.533-.79-1.118-.928-1.756-.136-.637.067-1.396.611-2.277.544-.88 1.302-1.8 2.275-2.755.972-.957 1.62-1.489 1.942-1.596a.949.949 0 0 1 .898.134.95.95 0 0 1 .42.806.949.949 0 0 1-.407.813.949.949 0 0 1-.895.15.95.95 0 0 1-.648-.638.949.949 0 0 1 .135-.898.95.95 0 0 1 .806-.419.95.95 0 0 1 .812.406.95.95 0 0 1 .15.896c-.103.324-.709 1.137-1.82 2.44-1.11 1.304-1.56 2.28-1.352 2.93.209.65.6 1.247 1.176 1.791a136.876 136.876 0 0 1 2.673 2.595c.27.27.461.516.574.738.114.223.15.457.112.703a1.124 1.124 0 0 1-.323.635 1.125 1.125 0 0 1-.635.323l-1.846-1.09Zm8.75 0-.687-.703-.687-.703-.816-.863a98.702 98.702 0 0 1-1.54-1.662c-.481-.533-.79-1.118-.928-1.756-.136-.637.067-1.396.611-2.277.544-.88 1.302-1.8 2.275-2.755.972-.957 1.62-1.489 1.942-1.596a.949.949 0 0 1 .898.134.95.95 0 0 1 .42.806.949.949 0 0 1-.407.813.949.949 0 0 1-.895.15.95.95 0 0 1-.648-.638.949.949 0 0 1 .135-.898.95.95 0 0 1 .806-.419.95.95 0 0 1 .812.406.95.95 0 0 1 .15.896c-.103.324-.709 1.137-1.82 2.44-1.11 1.304-1.56 2.28-1.352 2.93.209.65.6 1.247 1.176 1.791a136.876 136.876 0 0 1 2.673 2.595c.27.27.461.516.574.738.114.223.15.457.112.703a1.124 1.124 0 0 1-.323.635 1.125 1.125 0 0 1-.635.323l-1.846-1.09Z" fill="currentColor" stroke="currentColor" stroke-width="2" stroke-linecap="round" stroke-linejoin="round"/></svg>