<svg width="30" height="30" fill="none" xmlns="http://www.w3.org/2000/svg"><path d="m18.92 13.286-.687-.703-.687-.703-.816-.863c-.544-.575-1.142-.966-1.791-1.175-.65-.21-1.626.242-2.93 1.352-1.303 1.11-2.117 1.717-2.44 1.82a.95.95 0 0 1-.897-.15.949.949 0 0 1-.405-.813.95.95 0 0 1 .418-.806.95.95 0 0 1 .899-.134.949.949 0 0 1 .636.647.949.949 0 0 1-.149.896.95.95 0 0 1-.812.406.95.95 0 0 1-.806-.42.95.95 0 0 1-.135-.897c.108-.323.64-.97 1.596-1.943.956-.972 1.875-1.73 2.756-2.274.88-.544 1.64-.748 2.277-.611.638.137 1.223.446 1.756.928.533.482 1.087.995 1.662 1.54a137.142 137.142 0 0 1 2.673 2.594c.27.27.461.516.575.738.113.223.15.457.11.704a1.121 1.121 0 0 1-.322.634 1.125 1.125 0 0 1-.635.323l-1.846-1.09Zm0 8.75-.687-.703-.687-.703-.816-.863c-.544-.575-1.142-.966-1.791-1.175-.65-.21-1.626.242-2.93 1.352-1.303 1.11-2.117 1.717-2.44 1.82a.95.95 0 0 1-.897-.15.949.949 0 0 1-.405-.813.95.95 0 0 1 .418-.805.95.95 0 0 1 .899-.135.949.949 0 0 1 .636.647.949.949 0 0 1-.149.896.95.95 0 0 1-.812.406.95.95 0 0 1-.806-.42.95.95 0 0 1-.135-.897c.108-.323.64-.97 1.596-1.943.956-.972 1.875-1.73 2.756-2.274.88-.544 1.64-.748 2.277-.611.638.137 1.223.446 1.756.928.533.482 1.087.995 1.662 1.54a136.815 136.815 0 0 1 2.673 2.594c.27.27.461.516.575.738.113.223.15.457.11.704a1.121 1.121 0 0 1-.322.634 1.125 1.125 0 0 1-.635.323l-1.846-1.09Z" fill="currentColor" stroke="currentColor" stroke-width="2" stroke-linecap="round" stroke-linejoin="round"/></svg>