<svg width="30" height="30" fill="none" xmlns="http://www.w3.org/2000/svg"><path d="m27.199 18.99-.98 1.667-.979 1.668-1.402 1.367a13.25 13.25 0 0 1-3.152 2.28 12.767 12.767 0 0 1-3.73 1.255c-1.319.23-2.639.257-3.96.081a12.498 12.498 0 0 1-3.744-1.103 12.307 12.307 0 0 1-5.523-5.213 12.315 12.315 0 0 1-1.307-3.68 12.514 12.514 0 0 1-.108-3.946 12.403 12.403 0 0 1 3.267-6.918 12.314 12.314 0 0 1 6.725-3.656 12.53 12.53 0 0 1 3.946-.107c1.32.172 2.567.538 3.743 1.098 1.176.559 2.487 1.672 3.932 3.34 1.446 1.667 2.198 2.566 2.255 2.695a.4.4 0 0 1-.021.38.396.396 0 0 1-.319.205.396.396 0 0 1-.353-.137.396.396 0 0 1-.098-.367.396.396 0 0 1 .24-.294.396.396 0 0 1 .379.021.396.396 0 0 1 .205.319.396.396 0 0 1-.137.353.396.396 0 0 1-.366.098c-.139-.03-.901-.862-2.287-2.494-1.386-1.633-2.622-2.715-3.707-3.246a11.493 11.493 0 0 0-3.46-1.056 11.614 11.614 0 0 0-3.661.06 11.412 11.412 0 0 0-6.27 3.32 11.498 11.498 0 0 0-3.097 6.38 11.614 11.614 0 0 0 .06 3.661 11.412 11.412 0 0 0 3.32 6.27 11.422 11.422 0 0 0 6.38 3.094c1.222.17 2.437.143 3.646-.083a11.147 11.147 0 0 0 3.381-1.21 10.91 10.91 0 0 0 2.753-2.157c.79-.858 1.42-1.798 1.89-2.82.472-1.022.848-2.166 1.128-3.43.28-1.263.47-1.979.567-2.145a.87.87 0 0 1 .414-.365.871.871 0 0 1 .55-.052.871.871 0 0 1 .474.28l-.594 4.587Z" fill="currentColor" stroke="currentColor" stroke-width="2" stroke-linecap="round" stroke-linejoin="round"/><path d="m20.922 16.808-.58.927-.578.927-1.24 1.015c-.826.678-1.554 1.083-2.184 1.218a6.054 6.054 0 0 1-1.904.1A6.037 6.037 0 0 1 11.04 19.5a5.958 5.958 0 0 1-1.86-3.22 6.07 6.07 0 0 1-.1-1.912 6.054 6.054 0 0 1 1.504-3.403 5.97 5.97 0 0 1 3.226-1.86 6.092 6.092 0 0 1 1.914-.1c.641.068 1.519.55 2.632 1.448 1.113.898 1.8 1.493 2.061 1.787.262.294.35.633.266 1.018a1.099 1.099 0 0 1-.667.813 1.1 1.1 0 0 1-1.05-.062 1.1 1.1 0 0 1-.567-.886c-.038-.391.09-.717.383-.979.294-.261.634-.35 1.018-.266.384.085.655.307.813.668.158.36.137.71-.062 1.05a1.097 1.097 0 0 1-.885.566c-.392.04-1.001-.331-1.828-1.11-.826-.78-1.617-1.214-2.37-1.305-.754-.09-1.44.041-2.057.396a3.192 3.192 0 0 0-1.363 1.523 3.281 3.281 0 0 0-.212 2.05c.15.707.49 1.3 1.02 1.78s1.16.758 1.891.833a3.358 3.358 0 0 0 2.046-.425c.634-.358 1.088-.724 1.363-1.096.275-.371.469-.81.58-1.316.113-.505.233-.864.363-1.077.13-.213.31-.367.539-.464.23-.096.466-.115.708-.058.243.058.445.181.608.37l-.032 2.545Z" fill="currentColor" stroke="currentColor" stroke-width="2" stroke-linecap="round" stroke-linejoin="round"/><path d="m23.756 11.198-1.275-.05-1.275-.05s-.878-.022-2.633-.069c-1.755-.046-2.762-.136-3.02-.267a.811.811 0 0 1-.457-.628.811.811 0 0 1 .24-.738.811.811 0 0 1 .738-.24.811.811 0 0 1 .628.456.81.81 0 0 1 0 .776.811.811 0 0 1-.628.456.811.811 0 0 1-.738-.24.811.811 0 0 1-.24-.738.811.811 0 0 1 .456-.628c.26-.131 1.266-.22 3.021-.267 1.755-.047 3.058-.086 3.908-.12a54.76 54.76 0 0 1 2.017-.05c.494 0 .858.039 1.093.115.235.077.425.215.57.414.145.2.218.423.218.67 0 .247-.073.47-.218.67l-2.405.528ZM7.4 9.336a87302.568 87302.568 0 0 0 1.19 2.258l1.258 2.315c.838 1.543 1.265 2.46 1.28 2.749a.81.81 0 0 1-.315.71.81.81 0 0 1-.76.16.81.81 0 0 1-.576-.518.81.81 0 0 1 .08-.772.81.81 0 0 1 .672-.388c.29-.015.527.09.71.315a.81.81 0 0 1 .161.759.81.81 0 0 1-.519.577.81.81 0 0 1-.771-.08c-.244-.159-.825-.986-1.744-2.482a346.505 346.505 0 0 0-2.06-3.324 54.664 54.664 0 0 1-1.052-1.721c-.247-.428-.397-.763-.448-1.005a1.112 1.112 0 0 1 .073-.7c.1-.226.257-.4.471-.524.214-.123.443-.172.689-.146l1.66 1.817Zm6.534 15.129.68-1.079.68-1.079 1.375-2.245c.917-1.496 1.497-2.324 1.74-2.482a.811.811 0 0 1 .773-.081.811.811 0 0 1 .52.576.811.811 0 0 1-.162.76.811.811 0 0 1-.709.316.811.811 0 0 1-.672-.388.811.811 0 0 1-.082-.772.811.811 0 0 1 .577-.52.811.811 0 0 1 .76.161c.225.183.33.42.316.71-.016.29-.441 1.206-1.278 2.749a347.218 347.218 0 0 0-1.848 3.443 55.148 55.148 0 0 1-.964 1.77c-.247.429-.462.726-.646.89a1.107 1.107 0 0 1-.643.288 1.112 1.112 0 0 1-.689-.147 1.112 1.112 0 0 1-.471-.523l.743-2.347Z" fill="currentColor" stroke="currentColor" stroke-width="2" stroke-linecap="round" stroke-linejoin="round"/></svg>