<svg width="30" height="30" fill="none" xmlns="http://www.w3.org/2000/svg"><path d="m20.396 3.923.573-.033.573-.033.5-.01c.332-.006.713.05 1.142.17.428.12.941.42 1.539.903.597.482 1 1.22 1.208 2.215.208.994.236 2.35.084 4.068-.152 1.717-.288 3.36-.41 4.93a62.793 62.793 0 0 0-.196 4.332c-.01 1.32-.004 2.376.017 3.169.02.792-.024 1.52-.134 2.183-.11.662-.442 1.235-.995 1.72-.553.484-1.325.803-2.315.957-.99.154-2.046.196-3.168.126-1.121-.07-2.355-.15-3.7-.236a70.418 70.418 0 0 0-3.714-.15 50.195 50.195 0 0 0-2.743.027 8.501 8.501 0 0 1-2.012-.14c-.645-.126-1.212-.48-1.702-1.066-.49-.584-.804-1.423-.941-2.516-.138-1.093-.15-2.293-.037-3.6.114-1.307.22-2.744.318-4.313.099-1.569.145-3.013.14-4.333a203.87 203.87 0 0 0-.031-3.168 12.06 12.06 0 0 1 .138-2.18c.108-.66.39-1.23.849-1.71.458-.48 1.222-.814 2.291-1.004 1.07-.189 1.775-.223 2.114-.102.34.12.561.353.664.699a1.01 1.01 0 0 1-.176.948c-.22.286-.51.424-.87.414a1.007 1.007 0 0 1-.847-.46 1.007 1.007 0 0 1-.126-.956c.12-.34.354-.56.7-.663.345-.102.661-.043.947.176.286.22.424.51.415.87a1.01 1.01 0 0 1-.46.847c-.298.204-.943.35-1.937.437-.994.086-1.659.37-1.995.849-.336.48-.539 1.103-.607 1.871-.069.769-.106 1.813-.11 3.132-.006 1.32.041 2.764.14 4.332.1 1.569.206 3.004.322 4.305.115 1.302.216 2.405.303 3.308s.363 1.547.826 1.932c.463.385 1.034.627 1.712.726.679.099 1.584.142 2.715.129a70.002 70.002 0 0 0 3.714-.152l3.69-.239a45.8 45.8 0 0 0 2.993-.282c.879-.115 1.497-.412 1.855-.889.358-.477.574-1.1.648-1.867.073-.768.105-1.811.095-3.131a62.602 62.602 0 0 0-.197-4.332 111.014 111.014 0 0 0-.411-4.304c-.152-1.302-.393-2.42-.72-3.354-.329-.934-.665-1.513-1.009-1.738a2.199 2.199 0 0 0-1.089-.37 16.301 16.301 0 0 0-.82-.032c-.164 0-.365-.039-.601-.115a1.12 1.12 0 0 1-.573-.417 1.12 1.12 0 0 1-.22-.674c0-.248.073-.473.22-.674l1.421-.532Z" fill="currentColor" stroke="currentColor" stroke-width="2" stroke-linecap="round" stroke-linejoin="round"/><path d="m12.272 1.193.834-.003.835-.002 1.007.013c.671.01 1.349.022 2.032.04a9.383 9.383 0 0 1 2.138.317 2.631 2.631 0 0 1 1.679 1.272c.377.655.555 1.391.534 2.21a4.554 4.554 0 0 1-.612 2.219c-.386.66-1.039 1.095-1.957 1.306-.918.212-1.916.298-2.994.258-1.078-.04-1.96-.075-2.648-.107a9.76 9.76 0 0 1-2.162-.362c-.754-.21-1.325-.625-1.711-1.245-.386-.62-.58-1.25-.58-1.888 0-.638.1-1.244.3-1.819a11.63 11.63 0 0 1 .614-1.483c.21-.415.546-.658 1.005-.731.46-.073.853.054 1.182.383.33.328.457.722.385 1.182a1.299 1.299 0 0 1-.73 1.005 1.299 1.299 0 0 1-1.243.001 1.299 1.299 0 0 1-.73-1.005 1.297 1.297 0 0 1 .382-1.182 1.299 1.299 0 0 1 1.182-.385c.46.073.795.316 1.006.73.211.414.332 1.131.36 2.152.03 1.02.331 1.605.906 1.755.575.15 1.199.21 1.87.18a7.052 7.052 0 0 0 2.002-.39c.662-.228.918-.562.767-1-.15-.438-.516-.717-1.098-.836a8.762 8.762 0 0 0-1.88-.165c-.67.009-1.285.012-1.84.01l-1.32-.002a2.74 2.74 0 0 1-.842-.116 1.127 1.127 0 0 1-.577-.42 1.127 1.127 0 0 1-.221-.678c0-.25.073-.476.22-.679l1.905-.535Z" fill="currentColor" stroke="currentColor" stroke-width="2" stroke-linecap="round" stroke-linejoin="round"/></svg>