<svg width="30" height="30" fill="none" xmlns="http://www.w3.org/2000/svg"><path d="m27.199 18.99-.98 1.667-.979 1.668-1.402 1.367a13.253 13.253 0 0 1-3.152 2.28 12.767 12.767 0 0 1-3.73 1.255c-1.319.23-2.639.257-3.96.081a12.498 12.498 0 0 1-3.744-1.103 12.306 12.306 0 0 1-5.523-5.213 12.315 12.315 0 0 1-1.307-3.68 12.514 12.514 0 0 1-.108-3.946 12.403 12.403 0 0 1 3.267-6.918 12.314 12.314 0 0 1 6.725-3.656 12.53 12.53 0 0 1 3.946-.107c1.32.172 2.567.538 3.743 1.098 1.176.559 2.487 1.672 3.932 3.34 1.446 1.667 2.198 2.566 2.255 2.695a.4.4 0 0 1-.021.38.396.396 0 0 1-.319.205.396.396 0 0 1-.353-.137.396.396 0 0 1-.098-.367.396.396 0 0 1 .24-.294.396.396 0 0 1 .379.021.396.396 0 0 1 .205.319.396.396 0 0 1-.137.353.396.396 0 0 1-.366.098c-.139-.03-.901-.862-2.287-2.494-1.386-1.633-2.622-2.715-3.707-3.246a11.493 11.493 0 0 0-3.46-1.056 11.614 11.614 0 0 0-3.661.06 11.412 11.412 0 0 0-6.27 3.32 11.498 11.498 0 0 0-3.097 6.38 11.614 11.614 0 0 0 .06 3.661 11.412 11.412 0 0 0 3.32 6.27 11.422 11.422 0 0 0 6.38 3.094c1.222.17 2.437.143 3.646-.083a11.147 11.147 0 0 0 3.381-1.21c1.045-.58 1.963-1.3 2.753-2.157.79-.858 1.42-1.798 1.89-2.82.472-1.022.848-2.166 1.128-3.43.28-1.263.47-1.979.567-2.145a.87.87 0 0 1 .414-.365.871.871 0 0 1 .55-.052.871.871 0 0 1 .474.28l-.594 4.587Z" fill="currentColor" stroke="currentColor" stroke-width="2" stroke-linecap="round" stroke-linejoin="round"/><path d="M16.716 8.707a2609.603 2609.603 0 0 0 .006 1.668l-.014 1.008a6.42 6.42 0 0 0 .262 1.932c.184.617.767 1.242 1.75 1.875.982.633 1.58 1.113 1.796 1.438.216.325.256.671.12 1.037a1.09 1.09 0 0 1-.77.706 1.09 1.09 0 0 1-1.022-.207 1.09 1.09 0 0 1-.434-.95 1.09 1.09 0 0 1 .513-.909 1.09 1.09 0 0 1 1.037-.119c.366.137.601.393.706.77a1.09 1.09 0 0 1-.207 1.022 1.09 1.09 0 0 1-.95.434c-.39-.017-1.134-.328-2.233-.934-1.1-.607-1.841-1.27-2.225-1.99-.384-.719-.603-1.415-.658-2.088a29.639 29.639 0 0 1-.096-2.017 99.807 99.807 0 0 1-.011-1.842l.002-1.32c0-.323.039-.603.116-.841.078-.238.217-.43.42-.578.202-.147.428-.22.678-.22.25 0 .477.073.68.22l.535 1.905Z" fill="currentColor" stroke="currentColor" stroke-width="2" stroke-linecap="round" stroke-linejoin="round"/></svg>