<svg width="30" height="30" fill="none" xmlns="http://www.w3.org/2000/svg"><g clip-path="url(#a)" fill="currentColor" stroke="currentColor" stroke-width="2" stroke-linecap="round" stroke-linejoin="round"><path d="m27.226 19.724.05-.485.05-.484-.087-.595c-.058-.396-.212-.882-.462-1.456a4.512 4.512 0 0 0-1.091-1.524 5.145 5.145 0 0 0-1.736-1.037 22.19 22.19 0 0 0-2.03-.642c-.672-.177-1.353-.582-2.041-1.215-.689-.633-1.205-1.254-1.55-1.862a8.495 8.495 0 0 0-1.228-1.667 8.287 8.287 0 0 0-1.583-1.306c-.581-.368-1.321-.65-2.22-.847-.9-.197-2.078-.272-3.537-.227-1.459.046-2.529.242-3.209.59A6.792 6.792 0 0 0 4.678 8.4a8.069 8.069 0 0 0-1.37 1.969 9.19 9.19 0 0 0-.75 2.193 8.983 8.983 0 0 0-.174 2.287 8.845 8.845 0 0 0 1.37 4.289 8.603 8.603 0 0 0 3.299 3.008 8.766 8.766 0 0 0 2.107.768c.734.165 1.481.267 2.242.305.76.039 1.565.084 2.414.136l2.79.171c1.012.063 1.973.1 2.883.11.91.01 1.884-.049 2.922-.175 1.039-.127 1.713-.112 2.022.046a.97.97 0 0 1 .545.75.97.97 0 0 1-.287.882.97.97 0 0 1-.882.287.97.97 0 0 1-.75-.546.97.97 0 0 1 0-.927.97.97 0 0 1 .75-.545.97.97 0 0 1 .882.287.97.97 0 0 1 .287.882.97.97 0 0 1-.546.75c-.309.157-.982.241-2.021.252-1.039.011-2.013.022-2.923.034-.91.012-1.872.049-2.885.11a419.73 419.73 0 0 1-2.818.164c-.865.048-1.747.051-2.648.01-.9-.04-1.823-.18-2.768-.421-.944-.24-1.85-.6-2.717-1.079a11.008 11.008 0 0 1-4.175-4.058 10.846 10.846 0 0 1-1.5-5.592c.01-.977.151-1.932.424-2.865a10.12 10.12 0 0 1 1.196-2.627A8.654 8.654 0 0 1 3.625 7.07c.829-.64 1.656-1.111 2.48-1.416.826-.304 2.097-.67 3.815-1.095 1.718-.426 3.163-.571 4.337-.436 1.173.136 2.159.452 2.955.95a11.43 11.43 0 0 1 2.17 1.752c.648.67 1.289 1.374 1.92 2.108.633.735 1.31 1.252 2.03 1.551.721.3 1.426.605 2.115.916a7.455 7.455 0 0 1 3.304 2.92 7.29 7.29 0 0 1 .85 2.038c.18.72.268 1.356.268 1.907 0 .551-.054 1.055-.16 1.511-.107.456-.198.805-.273 1.046a2.34 2.34 0 0 1-.332.667 1.131 1.131 0 0 1-.576.425 1.13 1.13 0 0 1-.716.005 1.13 1.13 0 0 1-.583-.417l-.003-1.778Z"/><path d="M8.216 6.988a1620732.014 1620732.014 0 0 0 5.838 6.398l6.317 6.316c4.21 4.211 6.338 6.384 6.382 6.52a.396.396 0 0 1-.06.374.396.396 0 0 1-.337.172.397.397 0 0 1-.338-.172.396.396 0 0 1-.06-.375.396.396 0 0 1 .269-.268.396.396 0 0 1 .374.06.396.396 0 0 1 .172.337.396.396 0 0 1-.172.338.397.397 0 0 1-.374.06c-.135-.044-2.308-2.172-6.52-6.383-4.21-4.21-7.382-7.29-9.514-9.235C8.06 9.184 6.4 7.618 5.215 6.432c-1.186-1.186-1.82-1.858-1.9-2.017a.802.802 0 0 1-.08-.502.802.802 0 0 1 .23-.452.802.802 0 0 1 .454-.231l4.297 3.758Z"/></g><defs><clipPath id="a"><path fill="#fff" d="M0 0h30v30H0z"/></clipPath></defs></svg>