<svg width="30" height="30" fill="none" xmlns="http://www.w3.org/2000/svg"><g clip-path="url(#a)" fill="currentColor" stroke="currentColor" stroke-width="2" stroke-linecap="round" stroke-linejoin="round"><path d="M21.207 18.587 21.18 19.7l-.026 1.112-.046 2.297c-.03 1.531-.119 2.44-.265 2.726a.898.898 0 0 1-.695.506.898.898 0 0 1-.817-.266.898.898 0 0 1-.266-.817.898.898 0 0 1 .505-.696.898.898 0 0 1 .86 0 .898.898 0 0 1 .505.696.898.898 0 0 1-.266.817.898.898 0 0 1-.817.266.898.898 0 0 1-.695-.506c-.146-.286-.235-1.195-.265-2.726-.03-1.531-.055-2.668-.072-3.41a77.83 77.83 0 0 1-.027-1.759c0-.43.038-.765.115-1.001a1.12 1.12 0 0 1 .417-.574c.201-.146.426-.22.675-.22.249 0 .474.074.675.22l.532 2.222Zm-10 0L11.18 19.7l-.026 1.112-.046 2.297c-.03 1.531-.119 2.44-.264 2.726a.898.898 0 0 1-.696.506.898.898 0 0 1-.817-.266.898.898 0 0 1-.266-.817.898.898 0 0 1 .505-.696.898.898 0 0 1 .86 0 .898.898 0 0 1 .505.696.898.898 0 0 1-.266.817.898.898 0 0 1-.817.266.898.898 0 0 1-.695-.506c-.146-.286-.235-1.195-.265-2.726-.03-1.531-.055-2.668-.072-3.41a77.833 77.833 0 0 1-.027-1.759c0-.43.038-.765.115-1.001a1.12 1.12 0 0 1 .417-.574 1.12 1.12 0 0 1 .675-.22c.249 0 .474.074.675.22l.532 2.222Zm5 2.5L16.18 22.2l-.026 1.112-.046 2.297c-.03 1.531-.119 2.44-.264 2.726a.898.898 0 0 1-.696.506.898.898 0 0 1-.817-.266.898.898 0 0 1-.266-.817.898.898 0 0 1 .505-.696.898.898 0 0 1 .86 0 .898.898 0 0 1 .505.696.898.898 0 0 1-.266.817.898.898 0 0 1-.817.266.898.898 0 0 1-.696-.506c-.146-.286-.234-1.195-.264-2.726s-.055-2.668-.072-3.41a77.83 77.83 0 0 1-.027-1.759c0-.43.038-.765.115-1.001a1.12 1.12 0 0 1 .417-.574c.201-.146.426-.22.675-.22.249 0 .474.074.675.22l.532 2.222Z"/><path d="m25.33 19.26.505-.548.505-.549.414-.892a4.76 4.76 0 0 0 .134-3.718 4.598 4.598 0 0 0-1.008-1.574 4.5 4.5 0 0 0-1.58-1.044 15.561 15.561 0 0 0-2.056-.642c-.76-.186-1.48-.577-2.16-1.176a8.081 8.081 0 0 1-1.641-1.945 8.428 8.428 0 0 0-1.484-1.858 8.228 8.228 0 0 0-4.144-2.1 8.244 8.244 0 0 0-2.347-.098 8.265 8.265 0 0 0-4.313 1.747 8.258 8.258 0 0 0-1.62 1.704 8.266 8.266 0 0 0-1.076 2.09 8.27 8.27 0 0 0-.448 2.31c-.04.791.033 1.572.217 2.341.184.77.602 1.67 1.254 2.7.652 1.03.992 1.775 1.021 2.235.029.46-.134.836-.489 1.13a1.286 1.286 0 0 1-1.201.268 1.286 1.286 0 0 1-.923-.814c-.17-.429-.131-.837.116-1.226s.6-.597 1.06-.626c.459-.03.835.134 1.129.489.293.355.383.755.268 1.2a1.286 1.286 0 0 1-.814.924c-.428.17-.836.13-1.225-.116-.389-.247-.905-.856-1.55-1.828-.643-.972-1.085-1.798-1.325-2.48a11.379 11.379 0 0 1-.638-4.245 11.394 11.394 0 0 1 2.035-6.06 11.387 11.387 0 0 1 3.072-3.002A11.403 11.403 0 0 1 11.126-.04a11.408 11.408 0 0 1 4.235.734 11.444 11.444 0 0 1 3.67 2.244c.535.487 1.02 1.018 1.454 1.593.435.575.9 1.132 1.398 1.67a4.33 4.33 0 0 0 1.717 1.16c.647.234 1.29.488 1.927.762a7.52 7.52 0 0 1 1.768 1.068 7.504 7.504 0 0 1 2.772 5.334 7.366 7.366 0 0 1-.841 3.94c-.32.602-.612 1.067-.878 1.395-.267.328-.625.66-1.077.994-.452.334-.826.592-1.123.773a2.818 2.818 0 0 1-.814.358 1.136 1.136 0 0 1-.717-.061 1.137 1.137 0 0 1-.543-.47 1.136 1.136 0 0 1-.163-.701l1.419-1.493Z"/></g><defs><clipPath id="a"><path fill="#fff" d="M0 0h30v30H0z"/></clipPath></defs></svg>