<svg width="30" height="30" fill="none" xmlns="http://www.w3.org/2000/svg"><g clip-path="url(#a)" fill="currentColor" stroke="currentColor" stroke-width="2" stroke-linecap="round" stroke-linejoin="round"><path d="m25.33 20.51.505-.548.505-.549.414-.892a4.76 4.76 0 0 0 .134-3.718 4.598 4.598 0 0 0-1.008-1.574 4.5 4.5 0 0 0-1.58-1.044 15.561 15.561 0 0 0-2.056-.642c-.76-.186-1.48-.577-2.16-1.176a8.08 8.08 0 0 1-1.641-1.945 8.428 8.428 0 0 0-1.484-1.858 8.228 8.228 0 0 0-4.144-2.1 8.244 8.244 0 0 0-2.347-.098 8.265 8.265 0 0 0-4.313 1.747 8.258 8.258 0 0 0-1.62 1.704 8.266 8.266 0 0 0-1.076 2.09 8.27 8.27 0 0 0-.448 2.31c-.04.791.033 1.572.217 2.341.184.77.602 1.67 1.254 2.7.652 1.03.992 1.775 1.021 2.235.029.46-.134.836-.489 1.13a1.286 1.286 0 0 1-1.201.268 1.286 1.286 0 0 1-.923-.814c-.17-.429-.131-.837.116-1.226s.6-.597 1.06-.626c.459-.03.835.134 1.129.489.293.355.383.755.268 1.2a1.286 1.286 0 0 1-.814.924c-.428.17-.836.13-1.225-.116-.389-.247-.905-.856-1.55-1.828-.643-.972-1.085-1.798-1.325-2.48a11.379 11.379 0 0 1-.638-4.245 11.393 11.393 0 0 1 2.035-6.06 11.387 11.387 0 0 1 3.072-3.002 11.403 11.403 0 0 1 6.108-1.897 11.408 11.408 0 0 1 4.235.734 11.444 11.444 0 0 1 3.67 2.244c.535.487 1.02 1.018 1.454 1.593.435.575.9 1.132 1.398 1.67a4.33 4.33 0 0 0 1.717 1.16c.647.234 1.29.488 1.927.762.638.275 1.228.63 1.768 1.068a7.506 7.506 0 0 1 2.772 5.334 7.366 7.366 0 0 1-.841 3.94c-.32.602-.612 1.067-.878 1.395-.267.328-.625.66-1.077.994-.452.334-.826.592-1.123.773a2.818 2.818 0 0 1-.814.358 1.136 1.136 0 0 1-.717-.061 1.137 1.137 0 0 1-.543-.47 1.136 1.136 0 0 1-.163-.701l1.419-1.493Z"/><path d="m10.006 18.855.345.112.344.112.213.293c.142.196.213.414.213.656 0 .242-.07.46-.213.655-.142.196-.327.33-.557.406a1.1 1.1 0 0 1-.69 0 1.089 1.089 0 0 1-.557-.405 1.089 1.089 0 0 1-.213-.656c0-.242.071-.46.213-.655l.902-.518Zm0 5 .345.112.344.112.213.293c.142.196.213.414.213.656 0 .242-.07.46-.213.655-.142.196-.327.33-.557.406a1.1 1.1 0 0 1-.69 0 1.089 1.089 0 0 1-.557-.405 1.089 1.089 0 0 1-.213-.656c0-.242.071-.46.213-.655l.902-.518Zm5-2.5.345.112.344.112.213.293c.142.196.213.414.213.656 0 .242-.07.46-.213.655-.142.196-.327.33-.557.406a1.1 1.1 0 0 1-.69 0 1.089 1.089 0 0 1-.557-.405 1.089 1.089 0 0 1-.213-.656c0-.242.071-.46.213-.655l.902-.518Zm0 5 .345.112.344.112.213.293c.142.196.213.414.213.656 0 .242-.07.46-.213.655-.142.196-.327.33-.557.406a1.1 1.1 0 0 1-.69 0 1.089 1.089 0 0 1-.557-.405 1.089 1.089 0 0 1-.213-.656c0-.242.071-.46.213-.655l.902-.518Zm5-7.5.345.112.344.112.213.293c.142.196.213.414.213.656 0 .242-.07.46-.213.655-.142.196-.327.33-.557.406a1.1 1.1 0 0 1-.69 0 1.089 1.089 0 0 1-.557-.405 1.089 1.089 0 0 1-.213-.656c0-.242.071-.46.213-.655l.902-.518Zm0 5 .345.112.344.112.213.293c.142.196.213.414.213.656 0 .242-.07.46-.213.655-.142.196-.327.33-.557.406a1.1 1.1 0 0 1-.69 0 1.089 1.089 0 0 1-.557-.405 1.089 1.089 0 0 1-.213-.656c0-.242.071-.46.213-.655l.902-.518Z"/></g><defs><clipPath id="a"><path fill="#fff" d="M0 0h30v30H0z"/></clipPath></defs></svg>