<svg width="30" height="30" fill="none" xmlns="http://www.w3.org/2000/svg"><g clip-path="url(#a)"><path d="m24.467 19.692.644-.478.643-.477.594-.874a4.704 4.704 0 0 0 .656-3.915 4.56 4.56 0 0 0-.941-1.77 4.617 4.617 0 0 0-1.579-1.199 7.32 7.32 0 0 0-1.889-.586 6.122 6.122 0 0 1-1.856-.625c-.587-.309-1.081-.788-1.482-1.438-.4-.65-.849-1.307-1.346-1.97A8.238 8.238 0 0 0 13.99 3.5a8.25 8.25 0 0 0-4.848-.167 8.302 8.302 0 0 0-4.115 2.578A8.264 8.264 0 0 0 3.71 7.984a8.256 8.256 0 0 0-.653 2.366 8.273 8.273 0 0 0 .861 4.798c.385.746.917 1.477 1.597 2.194.68.717 1.068 1.297 1.166 1.743.097.445-.006.838-.309 1.178-.303.34-.681.488-1.134.443a1.273 1.273 0 0 1-1.026-.657 1.273 1.273 0 0 1-.07-1.216c.182-.418.496-.675.941-.772.446-.098.838.005 1.179.308.34.303.488.681.443 1.135a1.273 1.273 0 0 1-.657 1.025c-.394.23-.8.254-1.216.07-.418-.182-1.037-.723-1.857-1.62-.82-.898-1.404-1.68-1.753-2.348A11.35 11.35 0 0 1-.033 12.34a11.366 11.366 0 0 1 1.385-6.51 11.357 11.357 0 0 1 2.894-3.41 11.376 11.376 0 0 1 6.2-2.427 11.381 11.381 0 0 1 4.444.538 11.416 11.416 0 0 1 3.9 2.205 11.527 11.527 0 0 1 1.553 1.627c.463.592.96 1.175 1.491 1.75a4.74 4.74 0 0 0 1.836 1.25c.693.26 1.377.546 2.054.86.677.314 1.294.72 1.851 1.218a7.475 7.475 0 0 1 2.492 5.923 7.343 7.343 0 0 1-1.46 4.067c-.44.587-.83 1.03-1.172 1.33-.343.3-.669.54-.978.717a7.59 7.59 0 0 1-.936.455c-.315.126-.63.242-.943.35-.314.106-.599.15-.855.129a1.16 1.16 0 0 1-.679-.282 1.16 1.16 0 0 1-.383-.626 1.16 1.16 0 0 1 .058-.732l1.748-1.08Z" fill="currentColor" stroke="currentColor" stroke-width="2" stroke-linecap="round" stroke-linejoin="round"/><path d="m16.628 16.176-.567.827-.568.827-.7.987c-.468.659-1.067 1.479-1.797 2.46-.731.982-1.214 1.478-1.449 1.488a1.06 1.06 0 0 1-.646-.182 1.06 1.06 0 0 1-.416-.526c-.081-.22-.035-.362.139-.425.173-.063.646-.192 1.418-.388a11.485 11.485 0 0 1 2.524-.33c.91-.023 1.897-.004 2.96.058s1.667.193 1.811.393c.145.2.217.424.217.671 0 .247-.074.47-.22.67-.145.2-.25.373-.315.522-.064.15-.253.531-.567 1.147-.313.616-.86 1.496-1.64 2.64-.78 1.144-1.318 1.8-1.611 1.966a.942.942 0 0 1-.9.042.943.943 0 0 1-.564-.705.943.943 0 0 1 .239-.87.943.943 0 0 1 .844-.317.942.942 0 0 1 .753.496.94.94 0 0 1 .042.9.942.942 0 0 1-.705.564.943.943 0 0 1-.87-.239.943.943 0 0 1-.317-.844c.037-.335.528-1.227 1.472-2.676.944-1.448 1.75-2.468 2.422-3.06.67-.59 1.09-.94 1.255-1.046.166-.107.32-.06.465.14.145.2.217.423.217.67 0 .247-.074.47-.22.67-.145.2-.751.328-1.818.387a20.099 20.099 0 0 1-3.166-.074 175.14 175.14 0 0 1-2.008-.215 4.994 4.994 0 0 0-.795-.04 1.06 1.06 0 0 1-.646-.18 1.06 1.06 0 0 1-.416-.527c-.081-.22.19-.857.816-1.91.625-1.051 1.152-1.92 1.58-2.604a141.444 141.444 0 0 1 2.055-3.196c.216-.323.422-.562.617-.717.196-.155.419-.237.668-.247.25-.01.478.054.685.193.208.138.355.324.442.558l-.72 2.042Z" fill="currentColor"/><path d="M19.337 21.366c-.144-.2-.748-.332-1.811-.394a35.023 35.023 0 0 0-2.96-.057c-.91.024-1.752.134-2.524.33-.772.195-1.245.325-1.418.387-.174.063-.22.204-.139.425.082.22.22.396.416.526.196.13.411.191.646.182.235-.01.718-.506 1.448-1.487.731-.982 1.33-1.802 1.798-2.46l.7-.988.568-.827.567-.827.72-2.042a1.124 1.124 0 0 0-.442-.558 1.124 1.124 0 0 0-.685-.193c-.25.01-.472.093-.668.247-.195.155-.401.394-.617.717a141.444 141.444 0 0 0-2.055 3.196c-.428.684-.955 1.553-1.58 2.605-.625 1.052-.897 1.688-.816 1.909.082.22.22.396.416.526.196.13.411.191.646.182.235-.01.5.003.795.039.295.036.964.107 2.008.215s2.1.132 3.166.074c1.067-.059 1.673-.188 1.819-.387m.002-1.34c.145.2.217.423.217.67 0 .247-.074.47-.22.67m.003-1.34c-.144-.2-.3-.247-.465-.14-.166.106-.584.456-1.255 1.047-.671.591-1.479 1.611-2.422 3.06-.944 1.448-1.435 2.34-1.472 2.675a.943.943 0 0 0 .317.844c.25.227.54.307.87.239a.942.942 0 0 0 .705-.563.942.942 0 0 0-.042-.901.942.942 0 0 0-.753-.496.943.943 0 0 0-.844.318.943.943 0 0 0-.239.87c.068.33.256.565.563.704.307.14.608.125.901-.041.293-.167.83-.823 1.61-1.967.78-1.144 1.328-2.024 1.641-2.64.313-.616.502-.998.567-1.147.065-.149.17-.323.316-.522" stroke="currentColor" stroke-width="2" stroke-linecap="round" stroke-linejoin="round"/></g><defs><clipPath id="a"><path fill="#fff" d="M0 0h30v30H0z"/></clipPath></defs></svg>