<svg width="30" height="30" fill="none" xmlns="http://www.w3.org/2000/svg"><g clip-path="url(#a)"><path d="m22.142 13.672-.556-.033-.556-.033-.465-.325a3.073 3.073 0 0 1-.806-.843c-.228-.346-.439-.7-.632-1.06a11.53 11.53 0 0 0-.858-1.315 8.8 8.8 0 0 0-1.285-1.405 8.587 8.587 0 0 0-3.293-1.804 8.51 8.51 0 0 0-5.544.286 8.425 8.425 0 0 0-3.064 2.13 8.43 8.43 0 0 0-2.12 6.958 8.404 8.404 0 0 0 1.36 3.471 8.388 8.388 0 0 0 2.723 2.545 8.39 8.39 0 0 0 1.714.76c.6.19 1.276.324 2.03.404.753.08 1.684.153 2.793.218 1.108.065 2.169.132 3.18.202 1.011.07 1.986.109 2.925.119.94.009 1.836-.05 2.692-.178a6.594 6.594 0 0 0 2.312-.777 4.826 4.826 0 0 0 1.657-1.529c.42-.628.676-1.31.77-2.044a4.618 4.618 0 0 0-.226-2.141c-.243-.693-.95-1.437-2.12-2.233-1.171-.795-1.863-1.389-2.076-1.78a1.243 1.243 0 0 1-.032-1.189c.191-.401.506-.643.943-.724.438-.082.818.03 1.141.336.323.307.456.68.398 1.121a1.243 1.243 0 0 1-.673.981 1.24 1.24 0 0 1-1.189.032 1.243 1.243 0 0 1-.725-.943 1.243 1.243 0 0 1 .337-1.14c.306-.324.68-.456 1.121-.399.441.058 1.192.397 2.253 1.017 1.06.62 1.824 1.249 2.292 1.886a7.374 7.374 0 0 1 1.436 4.382 7.296 7.296 0 0 1-1.428 4.34 7.126 7.126 0 0 1-3.689 2.59 9.329 9.329 0 0 1-2.428.36c-.886.023-1.803.044-2.752.063-.949.019-1.93.062-2.942.131-1.013.069-2.107.128-3.281.176a23.464 23.464 0 0 1-3.162-.06c-.934-.088-1.8-.265-2.6-.532a11.27 11.27 0 0 1-4.276-2.595 11.277 11.277 0 0 1-3.347-6.624 11.267 11.267 0 0 1 3.003-9.276 11.234 11.234 0 0 1 4.156-2.77 11.225 11.225 0 0 1 9.69.807 11.193 11.193 0 0 1 3.601 3.39c.459.681.707 1.24.744 1.674.037.434.189.704.455.81.266.105.468.158.605.158.137 0 .324.038.56.115.235.076.425.215.571.415.146.2.219.425.219.673 0 .247-.073.471-.219.672l-1.337.53Z" fill="currentColor" stroke="currentColor" stroke-width="2" stroke-linecap="round" stroke-linejoin="round"/></g><defs><clipPath id="a"><path fill="#fff" d="M0 0h30v30H0z"/></clipPath></defs></svg>