<svg width="30" height="30" fill="none" xmlns="http://www.w3.org/2000/svg"><path d="m20.754 19.831.86-.809.86-.809 1.05-.963c.702-.642 1.26-1.284 1.677-1.927.416-.642.438-1.314.065-2.017-.373-.703-1.117-1.638-2.233-2.805-1.116-1.168-1.719-1.891-1.807-2.17a.82.82 0 0 1 .129-.774.82.82 0 0 1 .702-.35.82.82 0 0 1 .695.361.82.82 0 0 1 .117.775.82.82 0 0 1-.56.55.82.82 0 0 1-.773-.128.82.82 0 0 1-.35-.702.82.82 0 0 1 .362-.696.82.82 0 0 1 .775-.116c.278.093 1.003.71 2.172 1.85 1.17 1.141 2.078 2.205 2.723 3.193s.889 1.825.732 2.512c-.157.687-.521 1.343-1.092 1.968l-1.82 1.99c-.642.7-1.233 1.337-1.772 1.91-.54.573-.971 1.021-1.294 1.345-.324.323-.596.541-.817.654-.221.112-.454.15-.699.11a1.118 1.118 0 0 1-.63-.32 1.118 1.118 0 0 1-.322-.631l1.25-2ZM9.246 10.169l-.86.809-.86.809-1.05.963c-.702.642-1.26 1.284-1.676 1.927-.417.642-.438 1.314-.066 2.017.373.703 1.117 1.638 2.233 2.805 1.116 1.168 1.718 1.891 1.807 2.17a.82.82 0 0 1-.129.774.82.82 0 0 1-.702.35.82.82 0 0 1-.695-.361.82.82 0 0 1-.117-.775.82.82 0 0 1 .56-.55.82.82 0 0 1 .773.128.82.82 0 0 1 .35.702.82.82 0 0 1-.362.696.82.82 0 0 1-.775.116c-.278-.093-1.002-.71-2.172-1.85-1.17-1.141-2.078-2.205-2.723-3.193-.644-.988-.889-1.825-.732-2.512.157-.687.521-1.344 1.092-1.968l1.82-1.99c.642-.7 1.233-1.337 1.772-1.91.54-.573.971-1.021 1.295-1.345.323-.323.595-.541.816-.654.221-.112.454-.15.699-.11.245.038.455.145.63.32.176.176.283.386.322.631l-1.25 2Z" fill="currentColor" stroke="currentColor" stroke-width="2" stroke-linecap="round" stroke-linejoin="round"/></svg>