<svg width="30" height="30" fill="none" xmlns="http://www.w3.org/2000/svg"><path d="m17.24 3.316 1.328 1 1.327 1.002 1.603 1.208a69.17 69.17 0 0 0 3.008 2.154c.937.63 1.684 1.218 2.242 1.765.559.547.97 1.34 1.231 2.378.262 1.039.4 1.958.416 2.758.016.8-.02 1.603-.108 2.41-.088.808-.396 1.656-.923 2.544-.527.888-1.29 1.632-2.29 2.232-1 .6-2.084 1.233-3.252 1.9a84.785 84.785 0 0 0-3.195 1.91c-.963.608-1.873.996-2.73 1.165-.856.17-2.011-.083-3.466-.756-1.454-.673-2.732-1.397-3.832-2.172a98.33 98.33 0 0 0-3.074-2.085c-.948-.615-1.702-1.192-2.263-1.732-.56-.54-.972-1.324-1.235-2.355-.262-1.03-.403-1.944-.421-2.744-.018-.799.015-1.602.101-2.409.086-.807.391-1.653.916-2.54S3.91 9.32 4.91 8.72c1-.601 2.478-1.497 4.435-2.689 1.958-1.191 3.033-1.797 3.224-1.818a.538.538 0 0 1 .482.182.54.54 0 0 1 .135.497.538.538 0 0 1-.322.401.538.538 0 0 1-.515-.024.538.538 0 0 1-.282-.43.538.538 0 0 1 .182-.482.538.538 0 0 1 .497-.136.54.54 0 0 1 .402.322.541.541 0 0 1-.025.515c-.095.167-1.079.906-2.949 2.215-1.87 1.31-3.33 2.463-4.38 3.46-1.05.996-1.708 1.903-1.976 2.722a7.797 7.797 0 0 0-.407 2.394c-.003.777.005 1.562.024 2.353.019.792.237 1.442.654 1.95.418.508 1.097 1.066 2.037 1.674.94.607 1.986 1.246 3.139 1.917a454.67 454.67 0 0 0 3.481 2.004c1.169.665 2.108.957 2.82.874.71-.082 1.527-.434 2.449-1.054.922-.62 1.918-1.33 2.989-2.129a34.962 34.962 0 0 0 3.176-2.691c1.047-.995 1.703-1.902 1.968-2.72a7.761 7.761 0 0 0 .4-2.394c0-.777-.01-1.557-.029-2.34-.019-.783-.238-1.425-.657-1.927-.418-.502-1.102-1.05-2.05-1.645a69.078 69.078 0 0 0-3.176-1.867l-3.209-1.78a39.595 39.595 0 0 1-2.262-1.332c-.54-.35-.884-.619-1.035-.805a1.08 1.08 0 0 1-.245-.639 1.08 1.08 0 0 1 .178-.66 1.08 1.08 0 0 1 .531-.43l2.648 1.109Z" fill="currentColor" stroke="currentColor" stroke-width="2" stroke-linecap="round" stroke-linejoin="round"/><path d="m13.787 25.626.003-.904.004-.904.02-1.866c.012-1.244.1-2.023.26-2.338.16-.315.415-.5.763-.555a.987.987 0 0 1 .898.292c.25.25.347.549.292.898a.987.987 0 0 1-.555.764.987.987 0 0 1-.944 0 .987.987 0 0 1-.555-.764.987.987 0 0 1 .292-.898.987.987 0 0 1 .898-.292c.348.055.603.24.764.555.16.315.247 1.094.26 2.338a448.89 448.89 0 0 1 .026 4.2c0 .35-.038.644-.116.882a1.13 1.13 0 0 1-.419.577c-.202.147-.428.22-.678.22-.25 0-.476-.073-.678-.22l-.535-1.985Z" fill="currentColor" stroke="currentColor" stroke-width="2" stroke-linecap="round" stroke-linejoin="round"/><path d="m25.054 13.53-1.461.871-1.462.873-1.76 1.057a77.23 77.23 0 0 0-3.215 2.031c-.969.65-1.884 1.063-2.747 1.241-.863.179-2.02-.096-3.474-.825-1.453-.728-3.127-1.784-5.024-3.167-1.896-1.384-2.883-2.146-2.96-2.288a.45.45 0 0 1-.01-.43.45.45 0 0 1 .342-.261.45.45 0 0 1 .412.123.45.45 0 0 1 .143.405.45.45 0 0 1-.244.354.45.45 0 0 1-.43.011.45.45 0 0 1-.262-.341.45.45 0 0 1 .123-.413.45.45 0 0 1 .406-.143c.16.021 1.214.674 3.164 1.957a167.65 167.65 0 0 0 4.68 2.996c1.17.714 2.107 1.025 2.812.933.705-.092 1.515-.474 2.431-1.144a77.33 77.33 0 0 0 2.97-2.298 1467.67 1467.67 0 0 0 2.917-2.367c.88-.717 1.589-1.264 2.128-1.64.54-.378.923-.602 1.151-.671a1.08 1.08 0 0 1 .681.011c.226.078.407.215.544.41.137.196.204.413.2.652l-2.055 2.062Z" fill="currentColor" stroke="currentColor" stroke-width="2" stroke-linecap="round" stroke-linejoin="round"/><path d="m4.946 16.47 1.461-.871 1.462-.873 1.76-1.057a77.26 77.26 0 0 0 3.215-2.031c.969-.65 1.884-1.063 2.747-1.241.863-.179 2.02.096 3.474.825 1.453.728 3.127 1.784 5.024 3.167 1.896 1.384 2.883 2.146 2.96 2.288a.45.45 0 0 1 .01.43.45.45 0 0 1-.341.261.45.45 0 0 1-.413-.122.45.45 0 0 1-.143-.406.45.45 0 0 1 .244-.355.45.45 0 0 1 .43-.01.45.45 0 0 1 .262.341.45.45 0 0 1-.123.413.45.45 0 0 1-.406.143c-.16-.021-1.214-.674-3.164-1.957a170.837 170.837 0 0 0-4.68-2.996c-1.17-.714-2.107-1.025-2.812-.933-.705.092-1.515.474-2.431 1.144a77.16 77.16 0 0 0-2.97 2.298 1467.67 1467.67 0 0 0-2.917 2.367 38.66 38.66 0 0 1-2.128 1.64c-.54.378-.923.602-1.151.672a1.08 1.08 0 0 1-.681-.012 1.076 1.076 0 0 1-.544-.41 1.076 1.076 0 0 1-.2-.652l2.055-2.062Z" fill="currentColor" stroke="currentColor" stroke-width="2" stroke-linecap="round" stroke-linejoin="round"/><path d="m16.213 4.374-.003.904-.004.904-.02 1.866c-.012 1.244-.1 2.023-.26 2.338a.987.987 0 0 1-.763.555.987.987 0 0 1-.898-.292.987.987 0 0 1-.292-.898.986.986 0 0 1 .555-.763c.315-.16.63-.16.944 0 .315.16.5.414.555.763a.987.987 0 0 1-.292.898.987.987 0 0 1-.898.292.987.987 0 0 1-.764-.555c-.16-.315-.247-1.094-.26-2.338a448.9 448.9 0 0 1-.026-4.2c0-.35.038-.644.116-.882.077-.237.216-.43.419-.577.202-.147.428-.22.678-.22.25 0 .476.073.678.22l.535 1.985Z" fill="currentColor" stroke="currentColor" stroke-width="2" stroke-linecap="round" stroke-linejoin="round"/></svg>