<svg width="30" height="30" fill="none" xmlns="http://www.w3.org/2000/svg"><path d="m25.086 18.705.027-1.113.026-1.112.052-1.343c.034-.896.053-1.742.055-2.54.003-.798-.071-1.495-.222-2.092-.15-.597-.48-1.108-.991-1.531a15.986 15.986 0 0 0-1.72-1.233 237.66 237.66 0 0 1-2.097-1.328 64.34 64.34 0 0 0-2.185-1.339c-.695-.406-1.34-.694-1.935-.865-.596-.172-1.206-.144-1.83.083a16.67 16.67 0 0 0-1.935.857c-.667.345-1.403.721-2.21 1.13-.808.408-1.562.808-2.264 1.2-.703.392-1.277.8-1.724 1.225-.447.424-.726.96-.839 1.607a16.096 16.096 0 0 0-.214 2.086c-.031.744-.07 1.564-.114 2.46a63.772 63.772 0 0 0-.08 2.542c-.008.798.06 1.495.206 2.09.146.596.472 1.104.978 1.524.506.42 1.076.83 1.711 1.23s1.333.843 2.094 1.332c.762.488 1.49.935 2.184 1.342.694.407 1.338.696 1.934.867.595.172 1.204.144 1.827-.082a16.514 16.514 0 0 0 1.934-.856c.667-.345 1.404-.721 2.211-1.13a63.167 63.167 0 0 0 2.264-1.2 12.69 12.69 0 0 0 1.8-1.19 4.66 4.66 0 0 0 1.16-1.345c.274-.494.606-.755.995-.781.39-.027.71.11.96.409s.327.638.232 1.016a1.09 1.09 0 0 1-.685.786 1.09 1.09 0 0 1-1.039-.093 1.09 1.09 0 0 1-.535-.895 1.09 1.09 0 0 1 .409-.958c.3-.25.638-.328 1.016-.233s.64.323.786.685a1.09 1.09 0 0 1-.093 1.038c-.207.33-.739.885-1.595 1.663-.856.777-1.632 1.371-2.329 1.781-.696.41-1.425.859-2.187 1.347-.762.488-1.462.933-2.101 1.333-.64.401-1.33.745-2.074 1.032-.743.287-1.454.395-2.134.325a5.089 5.089 0 0 1-1.895-.574c-.584-.312-1.229-.664-1.935-1.056a66.945 66.945 0 0 0-2.271-1.2c-.808-.409-1.546-.787-2.216-1.134-.67-.347-1.318-.77-1.942-1.268-.624-.498-1.077-1.06-1.357-1.683a5.03 5.03 0 0 1-.45-1.925c-.02-.66-.036-1.39-.046-2.192a67.875 67.875 0 0 0-.082-2.547 247.95 247.95 0 0 1-.112-2.467c-.03-.749.016-1.515.138-2.3.121-.786.383-1.455.785-2.008a5.023 5.023 0 0 1 1.45-1.35A124.08 124.08 0 0 1 6.776 5.6c.697-.41 1.426-.859 2.188-1.347a253.47 253.47 0 0 1 2.102-1.333 12.1 12.1 0 0 1 2.073-1.03c.743-.287 1.454-.395 2.133-.325a5.08 5.08 0 0 1 1.893.575c.584.312 1.228.665 1.934 1.058.706.392 1.463.793 2.27 1.203.806.41 1.544.789 2.213 1.137.67.349 1.315.772 1.936 1.27.621.497 1.07 1.057 1.348 1.678.277.62.424 1.26.441 1.918.017.657.027 1.387.031 2.188.005.802.024 1.65.058 2.546.035.895.06 1.714.079 2.455.017.742.026 1.328.026 1.76 0 .43-.038.765-.115 1.001a1.12 1.12 0 0 1-.417.574c-.201.146-.426.22-.675.22-.248 0-.473-.074-.675-.22l-.532-2.222Z" fill="currentColor" stroke="currentColor" stroke-width="2" stroke-linecap="round" stroke-linejoin="round"/><path d="M11.242 4.914a44872.208 44872.208 0 0 0 1.262.705l.827.487a6.69 6.69 0 0 0 1.88.735c.702.165 1.591-.097 2.667-.787 1.075-.69 1.808-1.038 2.197-1.044.39-.007.702.146.937.458.234.312.294.654.18 1.027a1.09 1.09 0 0 1-.726.748 1.09 1.09 0 0 1-1.032-.146 1.09 1.09 0 0 1-.488-.92 1.09 1.09 0 0 1 .458-.937 1.09 1.09 0 0 1 1.027-.18c.373.115.622.356.749.725a1.09 1.09 0 0 1-.147 1.032c-.224.32-1.189.861-2.894 1.626-1.706.765-2.983 1.009-3.832.732-.848-.277-1.567-.583-2.156-.917a80.091 80.091 0 0 1-1.503-.871c-.414-.247-.742-.44-.985-.581a2.502 2.502 0 0 1-.614-.49 1.127 1.127 0 0 1-.29-.651 1.127 1.127 0 0 1 .148-.698c.125-.217.302-.376.53-.477l1.805.424ZM7.593 23.59l-.01-.722-.011-.722.007-.958a6.7 6.7 0 0 0-.304-1.994c-.208-.69-.88-1.328-2.014-1.916-1.135-.587-1.802-1.048-2.003-1.382a1.09 1.09 0 0 1-.07-1.04 1.09 1.09 0 0 1 .8-.669c.38-.087.716-.002 1.01.254.294.256.424.579.389.967a1.09 1.09 0 0 1-.554.883 1.09 1.09 0 0 1-1.04.071 1.09 1.09 0 0 1-.669-.8 1.09 1.09 0 0 1 .254-1.01 1.09 1.09 0 0 1 .968-.39c.388.035 1.34.6 2.854 1.696 1.515 1.095 2.364 2.079 2.549 2.952.184.872.28 1.646.285 2.322.005.676.004 1.255-.003 1.736-.007.481-.01.862-.01 1.141a2.5 2.5 0 0 1-.116.777c-.078.238-.217.43-.42.577-.202.147-.428.22-.678.22-.25 0-.477-.073-.68-.22l-.534-1.773Zm18.537-6.504-.621.37-.62.371-.836.474a6.722 6.722 0 0 0-1.576 1.262c-.494.525-.712 1.425-.652 2.7.059 1.274-.006 2.081-.196 2.422a1.09 1.09 0 0 1-.865.582 1.09 1.09 0 0 1-.98-.358 1.09 1.09 0 0 1-.285-1.003 1.09 1.09 0 0 1 .643-.82 1.09 1.09 0 0 1 1.042.038c.34.19.535.478.581.865a1.09 1.09 0 0 1-.358.979 1.09 1.09 0 0 1-1.002.286 1.09 1.09 0 0 1-.82-.644c-.165-.353-.152-1.459.04-3.316.19-1.857.618-3.084 1.282-3.68.664-.597 1.287-1.067 1.87-1.41a80.382 80.382 0 0 1 1.507-.867c.42-.235.752-.423.994-.563.243-.14.487-.236.731-.288a1.12 1.12 0 0 1 .71.074c.228.101.405.26.53.477.125.217.175.45.149.698l-1.269 1.351Z" fill="currentColor" stroke="currentColor" stroke-width="2" stroke-linecap="round" stroke-linejoin="round"/><path d="M7.345 9.02a176164.582 176164.582 0 0 0 2.357 1.526l1.415.935a30.18 30.18 0 0 0 2.712 1.609c.865.449 1.657.671 2.377.667.72-.005 1.472-.212 2.256-.623.784-.41 2.023-1.078 3.716-2 1.694-.922 2.657-1.389 2.89-1.4a.653.653 0 0 1 .57.258.653.653 0 0 1 .127.612.653.653 0 0 1-.422.462.653.653 0 0 1-.62-.069.653.653 0 0 1-.31-.543.653.653 0 0 1 .258-.57.653.653 0 0 1 .612-.126c.225.062.38.203.462.421a.653.653 0 0 1-.07.622c-.128.195-1.024.793-2.689 1.795-1.664 1.002-3.156 1.764-4.476 2.288-1.32.524-2.366.72-3.138.592-.773-.13-1.58-.427-2.423-.895a76.117 76.117 0 0 0-2.78-1.461 340.83 340.83 0 0 1-2.765-1.402 46.683 46.683 0 0 1-1.956-1.049c-.47-.272-.787-.5-.951-.682a1.104 1.104 0 0 1-.284-.638 1.104 1.104 0 0 1 .146-.683 1.11 1.11 0 0 1 .52-.468l2.466.821Z" fill="currentColor" stroke="currentColor" stroke-width="2" stroke-linecap="round" stroke-linejoin="round"/><path d="m13.811 24.602.07-1.401.071-1.402.09-2.894c.06-1.93.15-3.01.27-3.245a.733.733 0 0 1 .567-.412.733.733 0 0 1 .667.217.733.733 0 0 1 .217.667.733.733 0 0 1-.412.567.733.733 0 0 1-.702 0 .733.733 0 0 1-.412-.567.733.733 0 0 1 .217-.667.733.733 0 0 1 .667-.217c.26.041.448.179.567.412.12.234.21 1.316.27 3.245.06 1.93.113 3.361.16 4.296.047.934.07 1.673.07 2.216 0 .544-.037.932-.113 1.165a1.104 1.104 0 0 1-.41.565c-.199.144-.42.216-.665.216-.245 0-.466-.072-.665-.216l-.524-2.545Z" fill="currentColor" stroke="currentColor" stroke-width="2" stroke-linecap="round" stroke-linejoin="round"/></svg>