<svg width="30" height="30" fill="none" xmlns="http://www.w3.org/2000/svg"><g clip-path="url(#a)" fill="currentColor" stroke="currentColor" stroke-width="2" stroke-linecap="round" stroke-linejoin="round"><path d="m22.802 8.704.614-.01.614-.01.726.096c.484.065.911.175 1.281.332.37.156.822.424 1.355.803.532.379.995.833 1.387 1.364a6.216 6.216 0 0 1 1.212 3.683 6.258 6.258 0 0 1-1.207 3.716 6.298 6.298 0 0 1-1.408 1.403c-.544.394-1.39.714-2.539.96-1.148.248-1.956.328-2.424.241a1.329 1.329 0 0 1-1.009-.774 1.329 1.329 0 0 1 .034-1.271 1.329 1.329 0 0 1 1.047-.72c.472-.063.872.079 1.2.424.327.345.447.752.36 1.22a1.329 1.329 0 0 1-.774 1.008 1.326 1.326 0 0 1-1.27-.033 1.329 1.329 0 0 1-.721-1.048c-.062-.472.08-.871.424-1.199.345-.327.869-.52 1.57-.58a4.618 4.618 0 0 0 1.937-.596 3.33 3.33 0 0 0 1.346-1.436 3.173 3.173 0 0 0 .296-1.967 3.252 3.252 0 0 0-.925-1.806c-.506-.512-.971-.854-1.395-1.024a4.499 4.499 0 0 0-1.184-.315 8.513 8.513 0 0 0-.732-.059c-.124 0-.303-.038-.539-.115a1.114 1.114 0 0 1-.57-.415 1.115 1.115 0 0 1-.219-.67c0-.248.073-.472.218-.672l1.295-.53Z"/><path d="M5.37 8.8a344833.364 344833.364 0 0 0 4.449.398l2.686.111c1.79.075 3.446.114 4.965.12 1.519.005 2.709.163 3.57.475.862.311 1.475 1.04 1.84 2.184.363 1.145.555 2.227.574 3.245.019 1.019.04 1.996.066 2.932.025.937.043 1.811.053 2.625.01.813-.065 1.523-.228 2.13a5.664 5.664 0 0 1-.772 1.699 5.793 5.793 0 0 1-1.288 1.373c-.507.39-1.07.694-1.689.91a7.716 7.716 0 0 1-1.978.4c-.7.05-1.431.06-2.194.03a272.23 272.23 0 0 1-2.494-.116c-.9-.046-1.768-.075-2.607-.088-.838-.012-1.639-.028-2.403-.046a8.05 8.05 0 0 1-2.071-.3 5.999 5.999 0 0 1-3.11-2.162 6.06 6.06 0 0 1-.906-1.742 7.994 7.994 0 0 1-.38-2.087 20.765 20.765 0 0 1 .017-2.411c.053-.855.109-2.147.168-3.874.058-1.728.16-2.734.305-3.019a.893.893 0 0 1 .691-.502.893.893 0 0 1 .813.263.893.893 0 0 1 .265.813.893.893 0 0 1-.502.691.893.893 0 0 1-.855 0 .893.893 0 0 1-.502-.69.893.893 0 0 1 .263-.813.893.893 0 0 1 .813-.264c.316.05.546.217.691.501.146.285.248 1.29.308 3.016s.124 3.195.191 4.406c.068 1.21.233 2.227.495 3.05.263.821.7 1.459 1.31 1.911a4.78 4.78 0 0 0 2.043.878 13.17 13.17 0 0 0 2.37.191c.829-.005 1.692-.03 2.59-.077.898-.047 1.72-.088 2.466-.123.747-.034 1.454-.073 2.122-.117a4.972 4.972 0 0 0 1.982-.574c.654-.34 1.166-.784 1.537-1.333.37-.548.62-1.213.749-1.992.13-.78.207-1.633.234-2.557.027-.925.038-1.885.033-2.881a35.09 35.09 0 0 0-.136-2.938c-.086-.962-.48-1.553-1.181-1.774-.702-.22-1.8-.328-3.297-.322-1.497.005-3.14.045-4.931.12-1.79.073-3.428.177-4.91.31-1.484.132-2.657.198-3.52.198-.862 0-1.4-.035-1.613-.104a1.01 1.01 0 0 1-.518-.376 1.01 1.01 0 0 1-.197-.609c0-.224.065-.427.197-.608L5.37 8.8Zm3.331-6.444.028 1.15.028 1.15-.261.514a1.074 1.074 0 0 1-.832.604c-.38.06-.705-.046-.977-.318a1.074 1.074 0 0 1-.317-.977c.06-.38.261-.657.604-.831a1.074 1.074 0 0 1 1.027 0c.343.174.544.451.604.831.06.38-.046.706-.318.977a1.074 1.074 0 0 1-.977.318 1.074 1.074 0 0 1-.831-.604c-.175-.343-.252-.897-.234-1.664.02-.767.029-1.274.029-1.521 0-.247.038-.49.115-.728.078-.237.217-.43.42-.577.202-.147.428-.22.678-.22.25 0 .477.073.679.22L8.7 2.356Zm5 0a9933.162 9933.162 0 0 0 .056 2.3l-.261.514a1.074 1.074 0 0 1-.832.604c-.38.06-.705-.046-.977-.318a1.074 1.074 0 0 1-.317-.977c.06-.38.261-.657.604-.831a1.074 1.074 0 0 1 1.027 0c.343.174.544.451.604.831.06.38-.046.706-.318.977a1.074 1.074 0 0 1-.977.318 1.074 1.074 0 0 1-.831-.604c-.175-.343-.252-.897-.234-1.664.02-.767.029-1.274.029-1.521 0-.247.038-.49.115-.728.078-.237.218-.43.42-.577.202-.147.428-.22.678-.22.25 0 .476.073.679.22l.535 1.676Zm5 0a9933.162 9933.162 0 0 0 .056 2.3l-.261.514a1.074 1.074 0 0 1-.832.604c-.38.06-.705-.046-.977-.318a1.074 1.074 0 0 1-.317-.977c.06-.38.261-.657.604-.831a1.074 1.074 0 0 1 1.027 0c.343.174.544.451.604.831.06.38-.046.706-.317.977a1.074 1.074 0 0 1-.978.318 1.074 1.074 0 0 1-.831-.604c-.174-.343-.252-.897-.234-1.664.02-.767.028-1.274.028-1.521 0-.247.04-.49.116-.728.078-.237.218-.43.42-.577.202-.147.428-.22.678-.22.25 0 .477.073.679.22l.535 1.676Z"/></g><defs><clipPath id="a"><path fill="#fff" d="M0 0h30v30H0z"/></clipPath></defs></svg>