<svg width="30" height="30" fill="none" xmlns="http://www.w3.org/2000/svg"><path d="m16.002 2.624.973.01.974.01 1.175.032c.783.02 1.532.032 2.246.034.714.001 1.4.027 2.058.077.657.05 1.318.256 1.98.618a3.518 3.518 0 0 1 1.5 1.562c.335.679.5 1.448.497 2.308-.004.86-.077 1.943-.218 3.25a127.52 127.52 0 0 0-.385 4.314 63.456 63.456 0 0 0-.182 4.333c-.006 1.32 0 2.376.02 3.168.02.793-.025 1.52-.134 2.182a2.99 2.99 0 0 1-.932 1.72c-.51.483-1.246.808-2.206.973-.96.165-2.103.203-3.432.114-1.328-.088-2.425-.959-3.29-2.61-.866-1.653-1.425-4.772-1.678-9.357-.253-4.585-.564-7.42-.933-8.502-.37-1.083-.861-1.74-1.476-1.968a7.47 7.47 0 0 0-2.038-.431 23.416 23.416 0 0 0-2.207-.069 6.09 6.09 0 0 0-2.007.354c-.612.224-1.041.753-1.288 1.586-.248.834-.419 2.068-.513 3.703l-.28 4.805a69.757 69.757 0 0 0-.129 4.332c.006 1.32.042 2.363.11 3.132.067.768.262 1.392.583 1.872.322.48.911.773 1.766.878.856.105 1.86.203 3.013.292 1.153.089 1.958-.447 2.413-1.609.455-1.161.973-4.292 1.555-9.392.581-5.1.913-7.676.995-7.727a.435.435 0 0 1 .268-.065.435.435 0 0 1 .255.104c.073.062.116.252.129.569.012.317.037 1.197.076 2.64s.061 3.844.068 7.203c.006 3.36-.023 5.103-.087 5.23a.396.396 0 0 1-.306.224.396.396 0 0 1-.36-.116.398.398 0 0 1-.12-.36.396.396 0 0 1 .223-.308.396.396 0 0 1 .379-.002.396.396 0 0 1 .224.307.396.396 0 0 1-.116.36c-.1.101-.22.14-.36.119a.396.396 0 0 1-.308-.222c-.065-.126-.1-1.867-.107-5.222-.006-3.355-.006-5.763 0-7.223.007-1.46.012-2.353.015-2.676.002-.324.045-.51.127-.562a.435.435 0 0 1 .268-.065.435.435 0 0 1 .255.104c.073.062-.019 2.675-.277 7.838s-.82 8.57-1.685 10.22c-.865 1.652-1.961 2.52-3.29 2.608-1.328.087-2.47.047-3.428-.118-.958-.166-1.69-.49-2.2-.973a2.97 2.97 0 0 1-.923-1.714 12.204 12.204 0 0 1-.139-2.178c.015-.793.025-1.849.03-3.168a69.997 69.997 0 0 0-.128-4.333 206.61 206.61 0 0 0-.293-4.313c-.103-1.307-.144-2.378-.12-3.215.022-.836.196-1.56.52-2.172a3.077 3.077 0 0 1 1.386-1.361 4.141 4.141 0 0 1 1.855-.441 43.305 43.305 0 0 1 4.374.231 7.131 7.131 0 0 1 2.338.64c.725.343 1.308 1.115 1.747 2.317.44 1.202.926 4.081 1.458 8.636.532 4.556 1.025 7.413 1.48 8.574.455 1.16 1.258 1.695 2.411 1.604a70.097 70.097 0 0 0 3.007-.293c.852-.105 1.438-.397 1.756-.875.319-.478.514-1.1.587-1.868.072-.768.105-1.812.099-3.131a63.266 63.266 0 0 0-.183-4.332 122.175 122.175 0 0 0-.388-4.305c-.143-1.301-.319-2.42-.526-3.355-.208-.935-.6-1.533-1.174-1.795-.575-.261-1.227-.396-1.956-.406a57.231 57.231 0 0 0-2.27.017 135.128 135.128 0 0 1-3.687.052c-.377 0-.685-.039-.922-.116a1.125 1.125 0 0 1-.576-.419 1.125 1.125 0 0 1-.22-.677c0-.25.073-.476.22-.678l2.064-.534Z" fill="currentColor"/><path d="M14.532 6.618c-.082.051-.414 2.627-.995 7.727-.582 5.1-1.1 8.23-1.555 9.392-.455 1.162-1.26 1.698-2.413 1.609a68.262 68.262 0 0 1-3.013-.292c-.855-.105-1.444-.397-1.766-.878-.321-.48-.516-1.104-.584-1.872-.067-.769-.103-1.813-.109-3.132-.005-1.32.038-2.764.13-4.332l.279-4.805c.094-1.635.265-2.87.513-3.703.247-.833.676-1.362 1.288-1.586a6.09 6.09 0 0 1 2.007-.354c.727-.012 1.463.01 2.207.069a7.47 7.47 0 0 1 2.038.43c.615.23 1.107.886 1.476 1.969.37 1.082.68 3.917.933 8.502.253 4.585.812 7.704 1.677 9.356.866 1.652 1.963 2.523 3.291 2.611 1.329.09 2.473.051 3.432-.114.96-.165 1.695-.49 2.206-.974a2.99 2.99 0 0 0 .932-1.719c.11-.662.154-1.39.134-2.182-.02-.792-.026-1.849-.02-3.168.006-1.32.067-2.764.182-4.333.116-1.569.244-3.007.385-4.314.141-1.307.214-2.39.218-3.25.004-.86-.162-1.63-.498-2.308a3.518 3.518 0 0 0-1.498-1.562c-.663-.362-1.324-.568-1.981-.618a28.121 28.121 0 0 0-2.058-.077 92.661 92.661 0 0 1-2.246-.034l-1.175-.031-.974-.01-.973-.011-2.064.534c-.147.202-.22.428-.22.678 0 .25.073.475.22.677.146.202.338.342.576.419.237.077.545.116.922.116a153.608 153.608 0 0 0 3.688-.052c.783-.021 1.54-.027 2.269-.017.729.01 1.38.145 1.956.406.575.262.966.86 1.174 1.795.207.935.383 2.054.526 3.355.143 1.301.272 2.736.388 4.305.115 1.568.177 3.012.183 4.332.006 1.32-.027 2.363-.1 3.13-.072.768-.267 1.391-.586 1.87-.319.477-.904.769-1.756.873a69.86 69.86 0 0 1-3.007.294c-1.153.09-1.956-.444-2.411-1.604-.455-1.16-.948-4.018-1.48-8.574-.533-4.555-1.018-7.434-1.458-8.636-.44-1.202-1.022-1.974-1.747-2.317a7.131 7.131 0 0 0-2.338-.64 43.305 43.305 0 0 0-4.374-.231 4.141 4.141 0 0 0-1.855.44c-.6.296-1.062.75-1.386 1.362-.324.612-.498 1.336-.52 2.172-.024.837.017 1.908.12 3.215.104 1.307.201 2.744.293 4.313.09 1.569.134 3.013.128 4.333-.005 1.32-.015 2.375-.03 3.168a12.2 12.2 0 0 0 .139 2.178 2.97 2.97 0 0 0 .924 1.714c.508.483 1.241.807 2.199.973.958.165 2.1.205 3.429.118 1.328-.088 2.424-.956 3.29-2.607.864-1.651 1.426-5.058 1.684-10.221s.35-7.776.277-7.838m-.523-.039a.435.435 0 0 1 .268-.065.435.435 0 0 1 .255.104m-.523-.039c-.082.051-.125.238-.127.562a725.97 725.97 0 0 0-.014 2.676c-.007 1.46-.007 3.868 0 7.223.005 3.355.041 5.096.106 5.222.065.126.167.2.308.222.14.022.26-.018.36-.118a.398.398 0 0 0 .116-.361.396.396 0 0 0-.224-.306.396.396 0 0 0-.38 0 .396.396 0 0 0-.221.308c-.022.14.018.26.118.36.1.1.221.14.361.117a.396.396 0 0 0 .306-.224c.064-.127.093-1.87.087-5.23-.007-3.36-.03-5.76-.068-7.203a334.97 334.97 0 0 0-.076-2.64c-.013-.317-.056-.507-.13-.57" stroke="currentColor" stroke-width="2" stroke-linecap="round" stroke-linejoin="round"/></svg>