<svg width="30" height="30" fill="none" xmlns="http://www.w3.org/2000/svg"><path d="m27.199 18.99-.98 1.667-.979 1.668-1.402 1.367a13.25 13.25 0 0 1-3.152 2.28 12.767 12.767 0 0 1-3.73 1.255c-1.319.23-2.639.257-3.96.081a12.498 12.498 0 0 1-3.744-1.103 12.307 12.307 0 0 1-5.523-5.213 12.315 12.315 0 0 1-1.307-3.68 12.514 12.514 0 0 1-.108-3.946 12.403 12.403 0 0 1 3.267-6.918 12.314 12.314 0 0 1 6.725-3.656 12.53 12.53 0 0 1 3.946-.107c1.32.172 2.567.538 3.743 1.098 1.176.559 2.487 1.672 3.932 3.34 1.446 1.667 2.198 2.566 2.255 2.695a.4.4 0 0 1-.021.38.396.396 0 0 1-.319.205.396.396 0 0 1-.353-.137.396.396 0 0 1-.098-.367.396.396 0 0 1 .24-.294.396.396 0 0 1 .379.021.396.396 0 0 1 .205.319.396.396 0 0 1-.137.353.396.396 0 0 1-.366.098c-.139-.03-.901-.862-2.287-2.494-1.386-1.633-2.622-2.715-3.707-3.246a11.493 11.493 0 0 0-3.46-1.056 11.614 11.614 0 0 0-3.661.06 11.412 11.412 0 0 0-6.27 3.32 11.498 11.498 0 0 0-3.097 6.38 11.614 11.614 0 0 0 .06 3.661 11.412 11.412 0 0 0 3.32 6.27 11.422 11.422 0 0 0 6.38 3.094c1.222.17 2.437.143 3.646-.083a11.147 11.147 0 0 0 3.381-1.21 10.91 10.91 0 0 0 2.753-2.157c.79-.858 1.42-1.798 1.89-2.82.472-1.022.848-2.166 1.128-3.43.28-1.263.47-1.979.567-2.145a.87.87 0 0 1 .414-.365.871.871 0 0 1 .55-.052.871.871 0 0 1 .474.28l-.594 4.587Z" fill="currentColor" stroke="currentColor" stroke-width="2" stroke-linecap="round" stroke-linejoin="round"/><path d="m21.013 11.244-.3.882-.302.882-.38 1.06a37.06 37.06 0 0 1-.826 2.099 7.942 7.942 0 0 1-1.24 1.983c-.53.63-1.128 1.066-1.793 1.31-.664.244-1.36.48-2.088.708-.727.228-1.652.496-2.774.803-1.123.307-1.783.39-1.98.249a1.095 1.095 0 0 1-.414-.557 1.095 1.095 0 0 1-.006-.694c.073-.232.15-.513.233-.844.082-.33.275-1.077.579-2.238.304-1.162.603-2.09.898-2.783a7.872 7.872 0 0 1 1.233-1.984c.528-.629 1.124-1.066 1.788-1.31a82.218 82.218 0 0 1 2.844-.967c1.232-.4 2.02-.575 2.365-.525.345.05.598.229.76.537a.973.973 0 0 1 .014.931.973.973 0 0 1-.746.558.973.973 0 0 1-.89-.275.973.973 0 0 1-.3-.882.973.973 0 0 1 .537-.76.973.973 0 0 1 .931-.014.973.973 0 0 1 .558.746.973.973 0 0 1-.275.89c-.243.249-.968.586-2.174 1.01-1.207.423-2.162.848-2.865 1.274-.703.427-1.224.953-1.562 1.579-.338.625-.673 1.435-1.004 2.43-.33.994-.721 1.85-1.172 2.57-.451.717-.737 1.15-.856 1.298-.12.148-.279.151-.477.01a1.095 1.095 0 0 1-.413-.557 1.095 1.095 0 0 1-.006-.694c.073-.232.649-.562 1.727-.992 1.078-.43 1.967-.773 2.667-1.03.699-.255 1.4-.597 2.1-1.023.702-.427 1.222-.954 1.56-1.582.338-.627.617-1.3.838-2.017a136.534 136.534 0 0 1 1.081-3.362c.114-.344.246-.615.394-.817.148-.2.342-.339.58-.414.238-.076.476-.074.713.005.237.08.428.22.573.424l-.13 2.083Z" fill="currentColor" stroke="currentColor" stroke-width="2" stroke-linecap="round" stroke-linejoin="round"/></svg>