<svg width="30" height="30" fill="none" xmlns="http://www.w3.org/2000/svg"><g clip-path="url(#a)" fill="currentColor" stroke="currentColor" stroke-width="2" stroke-linecap="round" stroke-linejoin="round"><path d="m15.207 10.078 1.252.046 1.251.046 1.511.075c1.007.049 1.98.08 2.92.093.94.013 1.83.053 2.67.119.839.066 1.551.296 2.138.691.586.396 1.016.994 1.29 1.796.273.802.408 1.798.404 2.989a67.472 67.472 0 0 1-.087 3.303 78.878 78.878 0 0 0-.102 2.93 41.877 41.877 0 0 1-.123 2.67c-.067.84-.3 1.554-.695 2.141-.396.587-.995 1.018-1.798 1.292-.803.273-1.8.408-2.99.403a67.651 67.651 0 0 1-3.305-.088 78.706 78.706 0 0 0-2.929-.103 41.797 41.797 0 0 1-2.671-.124c-.84-.067-1.554-.299-2.141-.695-.587-.396-1.018-.995-1.291-1.798-.274-.803-.409-1.8-.404-2.99.005-1.191.035-2.293.088-3.305.054-1.012.089-1.988.103-2.928.015-.94.234-2.043.657-3.31.423-1.266.729-2.048.919-2.346a.986.986 0 0 1 .813-.479.986.986 0 0 1 .865.377c.225.272.293.58.204.92a.986.986 0 0 1-.625.708.986.986 0 0 1-.94-.09.986.986 0 0 1-.478-.814.986.986 0 0 1 .376-.865.986.986 0 0 1 .921-.205.986.986 0 0 1 .707.626c.13.328-.086 1.097-.646 2.306-.56 1.208-.84 2.274-.84 3.197-.002.922.026 1.888.081 2.898.056 1.009.105 1.93.147 2.763.042.833.174 1.623.397 2.371.222.748.678 1.244 1.368 1.486.69.243 1.495.365 2.417.366.922 0 1.888-.027 2.897-.083 1.009-.055 1.93-.104 2.763-.146a10.057 10.057 0 0 0 2.372-.397c.748-.223 1.243-.679 1.486-1.368.243-.69.365-1.496.366-2.418 0-.922-.026-1.887-.082-2.896a677.26 677.26 0 0 1-.145-2.764 10.038 10.038 0 0 0-.397-2.374c-.224-.75-.68-1.247-1.37-1.491-.69-.245-1.496-.369-2.417-.372-.921-.003-1.886.02-2.893.07s-1.928.09-2.762.12a57.09 57.09 0 0 1-1.98.046c-.485 0-.845-.038-1.08-.114a1.113 1.113 0 0 1-.57-.415 1.114 1.114 0 0 1-.218-.67c0-.248.072-.471.218-.671l2.378-.529Z"/><path d="m5.933 19.93-.531.02-.531.02-.5-.081a3.855 3.855 0 0 1-1.027-.33c-.351-.167-.685-.436-1.002-.808-.318-.371-.594-.978-.83-1.818-.237-.84-.33-1.827-.283-2.958.047-1.131.106-2.201.175-3.21a58.4 58.4 0 0 0 .131-2.879c.018-.91.046-1.746.085-2.511A5.06 5.06 0 0 1 2.2 3.24c.35-.659.933-1.151 1.753-1.478.82-.326 1.866-.487 3.14-.482 1.274.005 2.416.038 3.425.099 1.01.061 1.97.098 2.878.111.91.014 1.747.039 2.51.075.765.036 1.472.22 2.122.55.65.33 1.148.96 1.495 1.89.346.931.514 1.604.503 2.02a1.16 1.16 0 0 1-.53.975 1.16 1.16 0 0 1-1.1.144 1.16 1.16 0 0 1-.764-.805 1.16 1.16 0 0 1 .202-1.091 1.16 1.16 0 0 1 1.002-.478c.416.011.74.188.976.53.235.342.283.71.144 1.1a1.16 1.16 0 0 1-.805.764 1.16 1.16 0 0 1-1.091-.202c-.33-.253-.635-.804-.917-1.654-.282-.85-.753-1.37-1.412-1.562-.66-.191-1.44-.282-2.344-.273-.903.01-1.858.045-2.867.107a519.2 519.2 0 0 1-2.768.162 8.739 8.739 0 0 0-2.39.465c-.756.263-1.246.717-1.47 1.364-.222.646-.327 1.421-.313 2.324.014.903.056 1.86.126 2.868.07 1.008.16 2.134.269 3.378.109 1.243.289 2.089.54 2.536.252.448.551.701.898.761.348.06.583.09.707.09.123 0 .303.038.538.115.235.076.426.214.571.414.145.2.218.424.218.672 0 .247-.073.47-.218.671l-1.295.53Z"/></g><defs><clipPath id="a"><path fill="#fff" d="M0 0h30v30H0z"/></clipPath></defs></svg>