<svg width="30" height="30" fill="none" xmlns="http://www.w3.org/2000/svg"><path d="m13.109 9.065.703-.687.703-.687.863-.816a98.544 98.544 0 0 1 1.662-1.54c.533-.481 1.118-.79 1.756-.928.637-.136 1.396.067 2.277.611.88.544 1.8 1.302 2.755 2.275.957.972 1.489 1.62 1.596 1.942a.949.949 0 0 1-.134.898.95.95 0 0 1-.806.42.949.949 0 0 1-.813-.407.95.95 0 0 1-.15-.895.95.95 0 0 1 .638-.648.95.95 0 0 1 .898.135.95.95 0 0 1 .419.806.949.949 0 0 1-.406.812.95.95 0 0 1-.896.15c-.324-.103-1.137-.709-2.44-1.82-1.304-1.11-2.28-1.56-2.93-1.352-.65.209-1.247.6-1.791 1.176a136.36 136.36 0 0 1-2.595 2.673c-.27.27-.516.461-.738.574a1.13 1.13 0 0 1-.704.112 1.124 1.124 0 0 1-.634-.323 1.125 1.125 0 0 1-.323-.635l1.09-1.846Z" fill="currentColor" stroke="currentColor" stroke-width="2" stroke-linecap="round" stroke-linejoin="round"/><path d="m6.05 22.091.973.01.974.01 1.175.032c.783.02 1.54.029 2.269.024a12.13 12.13 0 0 0 2.133-.2 4.683 4.683 0 0 0 1.946-.86c.604-.447 1.045-1.123 1.323-2.03.277-.906.48-2.139.607-3.7.127-1.56.24-3.49.34-5.791.1-2.3.2-3.549.3-3.745a.613.613 0 0 1 .477-.346.616.616 0 0 1 .56.182.616.616 0 0 1 .182.56.616.616 0 0 1-.347.477c-.196.1-.393.1-.59 0a.616.616 0 0 1-.345-.477.616.616 0 0 1 .182-.56.616.616 0 0 1 .56-.182c.218.034.377.15.477.346.1.197.2 1.446.298 3.747.098 2.301.2 4.018.308 5.15.107 1.132.15 2.143.127 3.035-.022.892-.138 1.672-.348 2.338a5.947 5.947 0 0 1-2.29 3.132 5.996 5.996 0 0 1-1.724.836 7.743 7.743 0 0 1-1.987.31 80.18 80.18 0 0 1-2.173.038c-.74.003-1.502.015-2.285.036a134.752 134.752 0 0 1-3.688.052c-.377 0-.685-.039-.922-.116a1.125 1.125 0 0 1-.577-.419 1.125 1.125 0 0 1-.22-.677c0-.25.074-.476.22-.678l2.065-.534Z" fill="currentColor" stroke="currentColor" stroke-width="2" stroke-linecap="round" stroke-linejoin="round"/></svg>