<svg width="30" height="30" fill="none" xmlns="http://www.w3.org/2000/svg"><path d="m16.891 20.935-.703.687-.703.687-.863.816a98.702 98.702 0 0 1-1.662 1.54c-.533.481-1.118.79-1.756.928-.637.136-1.396-.067-2.277-.611-.88-.544-1.8-1.302-2.755-2.275-.957-.973-1.489-1.62-1.596-1.942a.949.949 0 0 1 .134-.898.95.95 0 0 1 .806-.42.95.95 0 0 1 .813.407.949.949 0 0 1 .149.895.949.949 0 0 1-.637.648.949.949 0 0 1-.898-.135.95.95 0 0 1-.419-.806.95.95 0 0 1 .406-.812.95.95 0 0 1 .896-.15c.324.103 1.137.709 2.44 1.82 1.304 1.11 2.28 1.56 2.93 1.352.65-.209 1.247-.6 1.791-1.176a136.815 136.815 0 0 1 2.595-2.673c.27-.27.516-.461.738-.574.223-.114.457-.15.703-.112.247.04.459.147.635.323.177.177.284.389.323.635l-1.09 1.846Z" fill="currentColor" stroke="currentColor" stroke-width="2" stroke-linecap="round" stroke-linejoin="round"/><path d="m23.95 7.909-.973-.01-.974-.01-1.175-.032c-.783-.02-1.54-.029-2.269-.024-.73.004-1.44.07-2.133.2a4.683 4.683 0 0 0-1.945.86c-.605.447-1.046 1.123-1.323 2.03-.278.906-.48 2.139-.608 3.7-.127 1.56-.24 3.49-.34 5.791-.1 2.3-.2 3.549-.3 3.745a.616.616 0 0 1-.476.346.616.616 0 0 1-.56-.182.616.616 0 0 1-.183-.56.616.616 0 0 1 .347-.477c.196-.1.393-.1.59 0 .195.1.31.26.345.477a.616.616 0 0 1-.182.56.616.616 0 0 1-.56.182.616.616 0 0 1-.477-.346c-.1-.197-.2-1.446-.298-3.747-.098-2.301-.2-4.018-.308-5.15a25.793 25.793 0 0 1-.127-3.035c.022-.892.138-1.671.348-2.338a5.946 5.946 0 0 1 2.29-3.132 5.994 5.994 0 0 1 1.724-.836 7.742 7.742 0 0 1 1.987-.31 80.592 80.592 0 0 1 2.173-.038c.74-.003 1.502-.015 2.285-.036a135.262 135.262 0 0 1 3.688-.052c.378 0 .685.039.922.116.238.077.43.217.577.419.146.202.22.427.22.677 0 .25-.074.476-.22.678l-2.065.534Z" fill="currentColor" stroke="currentColor" stroke-width="2" stroke-linecap="round" stroke-linejoin="round"/></svg>