<svg width="30" height="30" fill="none" xmlns="http://www.w3.org/2000/svg"><path d="m10.786 14.83-.703.687-.703.687-.863.816c-.575.544-.967 1.142-1.175 1.791-.21.65.242 1.626 1.352 2.93 1.11 1.303 1.717 2.117 1.82 2.44a.95.95 0 0 1-.15.897.949.949 0 0 1-.813.405.95.95 0 0 1-.805-.418.95.95 0 0 1-.135-.899.95.95 0 0 1 .647-.637.949.949 0 0 1 .896.15.949.949 0 0 1 .406.812.95.95 0 0 1-.42.806.949.949 0 0 1-.897.135c-.323-.108-.97-.64-1.943-1.596-.972-.956-1.73-1.875-2.275-2.756-.543-.88-.747-1.64-.61-2.277.137-.637.446-1.223.928-1.756.482-.533.995-1.087 1.54-1.662a137.773 137.773 0 0 1 2.594-2.673c.27-.27.516-.461.738-.575.223-.113.457-.15.704-.11.246.038.457.146.634.322.176.177.284.388.323.635l-1.09 1.846Z" fill="currentColor" stroke="currentColor" stroke-width="2" stroke-linecap="round" stroke-linejoin="round"/><path d="m24.515 6.05-.01.973-.01.974-.032 1.175c-.021.783-.033 1.545-.036 2.285a80.18 80.18 0 0 1-.038 2.173 7.743 7.743 0 0 1-.31 1.987 6.038 6.038 0 0 1-2.181 3.11 5.947 5.947 0 0 1-1.787.904c-.666.21-1.446.326-2.338.348-.892.022-1.903-.02-3.035-.127-1.132-.107-2.849-.21-5.15-.308-2.301-.099-3.55-.198-3.747-.298a.616.616 0 0 1-.346-.476.616.616 0 0 1 .182-.561.616.616 0 0 1 .56-.182c.218.034.377.15.477.346.1.196.1.393 0 .59a.616.616 0 0 1-.477.346.616.616 0 0 1-.56-.182.616.616 0 0 1-.182-.56.616.616 0 0 1 .346-.477c.196-.1 1.445-.2 3.745-.3 2.3-.1 4.23-.213 5.791-.34 1.561-.127 2.794-.33 3.7-.607.907-.278 1.583-.72 2.03-1.323a4.683 4.683 0 0 0 .86-1.946 12.13 12.13 0 0 0 .2-2.133 67.54 67.54 0 0 0-.024-2.27 136.02 136.02 0 0 1-.052-3.687c0-.377.039-.685.116-.922.077-.238.216-.43.418-.577a1.13 1.13 0 0 1 .678-.22c.25 0 .475.074.677.22l.535 2.065Z" fill="currentColor" stroke="currentColor" stroke-width="2" stroke-linecap="round" stroke-linejoin="round"/></svg>