<svg width="30" height="30" fill="none" xmlns="http://www.w3.org/2000/svg"><path d="m9.065 16.891-.687-.703-.687-.703-.816-.863a98.503 98.503 0 0 1-1.54-1.662c-.481-.533-.79-1.118-.928-1.756-.136-.637.067-1.396.611-2.277.544-.88 1.302-1.8 2.275-2.755.972-.957 1.62-1.489 1.942-1.596a.949.949 0 0 1 .898.134.95.95 0 0 1 .42.806.95.95 0 0 1-.407.813.949.949 0 0 1-.895.149.949.949 0 0 1-.648-.637.949.949 0 0 1 .135-.898.95.95 0 0 1 .806-.419.95.95 0 0 1 .812.406.95.95 0 0 1 .15.896c-.103.324-.709 1.137-1.82 2.44-1.11 1.304-1.56 2.28-1.352 2.93.209.65.6 1.247 1.176 1.791a137.177 137.177 0 0 1 2.673 2.595c.27.27.461.516.574.738.114.223.15.457.112.703a1.124 1.124 0 0 1-.323.635 1.125 1.125 0 0 1-.635.323l-1.846-1.09Z" fill="currentColor" stroke="currentColor" stroke-width="2" stroke-linecap="round" stroke-linejoin="round"/><path d="m22.091 23.95.01-.973.01-.974.032-1.175c.02-.783.029-1.54.024-2.269a12.13 12.13 0 0 0-.2-2.133 4.683 4.683 0 0 0-.86-1.945c-.447-.605-1.123-1.046-2.03-1.323-.906-.278-2.139-.48-3.7-.608-1.56-.127-3.49-.24-5.791-.34-2.3-.1-3.549-.2-3.745-.3a.616.616 0 0 1-.346-.476.616.616 0 0 1 .182-.56.616.616 0 0 1 .56-.183c.218.035.377.15.477.347.1.196.1.393 0 .59a.616.616 0 0 1-.477.345.616.616 0 0 1-.56-.182.616.616 0 0 1-.182-.56.616.616 0 0 1 .346-.477c.197-.1 1.446-.2 3.747-.298 2.301-.098 4.018-.2 5.15-.308a25.793 25.793 0 0 1 3.035-.127c.892.022 1.672.138 2.338.348a5.947 5.947 0 0 1 3.132 2.29c.373.533.651 1.108.836 1.724.184.616.288 1.278.31 1.987.022.709.035 1.433.038 2.173.003.74.015 1.502.036 2.285a134.75 134.75 0 0 1 .052 3.688c0 .378-.039.685-.116.922-.077.238-.217.43-.419.577a1.13 1.13 0 0 1-.677.22 1.13 1.13 0 0 1-.678-.22l-.534-2.065Z" fill="currentColor" stroke="currentColor" stroke-width="2" stroke-linecap="round" stroke-linejoin="round"/></svg>