<svg width="30" height="30" fill="none" xmlns="http://www.w3.org/2000/svg"><path d="M14.83 19.214a10135.38 10135.38 0 0 0 1.374 1.406l.816.863c.544.575 1.142.966 1.791 1.175.65.21 1.626-.242 2.93-1.352 1.303-1.11 2.117-1.717 2.44-1.82a.95.95 0 0 1 .897.15.949.949 0 0 1 .405.813.95.95 0 0 1-.418.805.95.95 0 0 1-.899.135.95.95 0 0 1-.637-.647.949.949 0 0 1 .15-.896.949.949 0 0 1 .812-.406.95.95 0 0 1 .806.42.949.949 0 0 1 .135.897c-.108.323-.64.97-1.596 1.943-.956.972-1.875 1.73-2.756 2.274-.88.544-1.64.748-2.277.611-.637-.137-1.223-.446-1.756-.928a98.702 98.702 0 0 1-1.662-1.54 138.54 138.54 0 0 1-2.673-2.594c-.27-.27-.461-.516-.575-.738a1.125 1.125 0 0 1-.11-.704c.038-.246.146-.457.322-.634.177-.177.388-.284.635-.323l1.846 1.09Z" fill="currentColor" stroke="currentColor" stroke-width="2" stroke-linecap="round" stroke-linejoin="round"/><path d="M6.05 5.485a70315.346 70315.346 0 0 0 1.947.02l1.175.032c.783.021 1.545.033 2.285.036.74.003 1.464.016 2.173.038a7.742 7.742 0 0 1 1.987.31 6.01 6.01 0 0 1 1.724.836 5.946 5.946 0 0 1 2.29 3.132c.21.666.326 1.446.348 2.338.022.892-.02 1.903-.127 3.035-.107 1.132-.21 2.849-.308 5.15-.099 2.301-.198 3.55-.298 3.747a.616.616 0 0 1-.476.346.616.616 0 0 1-.561-.181.616.616 0 0 1-.182-.56.616.616 0 0 1 .346-.478c.196-.1.393-.1.59 0 .196.1.311.259.346.477a.616.616 0 0 1-.182.56.616.616 0 0 1-.56.182.616.616 0 0 1-.477-.346c-.1-.196-.2-1.444-.3-3.745-.1-2.3-.213-4.23-.34-5.791-.127-1.561-.33-2.794-.607-3.7-.278-.907-.72-1.583-1.323-2.03a4.683 4.683 0 0 0-1.946-.86 12.12 12.12 0 0 0-2.133-.2 67.54 67.54 0 0 0-2.27.024 135.152 135.152 0 0 1-3.687.052c-.377 0-.685-.039-.922-.116a1.125 1.125 0 0 1-.577-.418 1.125 1.125 0 0 1-.22-.678c0-.25.074-.475.22-.677l2.065-.535Z" fill="currentColor" stroke="currentColor" stroke-width="2" stroke-linecap="round" stroke-linejoin="round"/></svg>