<svg width="30" height="30" fill="none" xmlns="http://www.w3.org/2000/svg"><path d="m15.17 10.786-.687-.703-.687-.703-.816-.863c-.545-.575-1.142-.967-1.791-1.175-.65-.21-1.626.242-2.93 1.352-1.303 1.11-2.117 1.717-2.44 1.82a.95.95 0 0 1-.897-.15.95.95 0 0 1-.405-.813.95.95 0 0 1 .418-.805.949.949 0 0 1 .899-.135.949.949 0 0 1 .637.647.949.949 0 0 1-.15.896.95.95 0 0 1-.812.406.95.95 0 0 1-.806-.42.949.949 0 0 1-.135-.897c.108-.323.64-.97 1.596-1.943.956-.972 1.875-1.73 2.756-2.275.88-.543 1.64-.747 2.277-.61.638.137 1.223.446 1.756.928.533.482 1.087.995 1.662 1.54a136.878 136.878 0 0 1 2.673 2.594c.27.27.461.516.575.738.113.223.15.457.11.704a1.121 1.121 0 0 1-.322.634 1.125 1.125 0 0 1-.635.323l-1.846-1.09Z" fill="currentColor" stroke="currentColor" stroke-width="2" stroke-linecap="round" stroke-linejoin="round"/><path d="m23.95 24.515-.973-.01-.974-.01-1.175-.032a101.73 101.73 0 0 0-2.285-.036 80.18 80.18 0 0 1-2.173-.038 7.743 7.743 0 0 1-1.987-.31 6.038 6.038 0 0 1-3.11-2.181 5.947 5.947 0 0 1-.904-1.787c-.21-.666-.326-1.446-.348-2.338-.022-.892.02-1.903.127-3.035.107-1.132.21-2.849.308-5.15.099-2.301.198-3.55.298-3.747a.616.616 0 0 1 .476-.346.616.616 0 0 1 .561.182.616.616 0 0 1 .182.56.616.616 0 0 1-.346.477c-.196.1-.393.1-.59 0a.616.616 0 0 1-.346-.477.616.616 0 0 1 .182-.56.616.616 0 0 1 .56-.182c.218.034.377.15.477.346.1.196.2 1.445.3 3.745.1 2.3.213 4.23.34 5.791.127 1.561.33 2.794.607 3.7.278.907.72 1.583 1.323 2.03a4.683 4.683 0 0 0 1.946.86 12.13 12.13 0 0 0 2.133.2 67.54 67.54 0 0 0 2.27-.024 136.018 136.018 0 0 1 3.687-.052c.378 0 .685.039.922.116.238.077.43.216.577.418.146.202.22.428.22.678 0 .25-.074.475-.22.677l-2.065.535Z" fill="currentColor" stroke="currentColor" stroke-width="2" stroke-linecap="round" stroke-linejoin="round"/></svg>