<svg width="30" height="30" fill="none" xmlns="http://www.w3.org/2000/svg"><path d="M20.935 13.109a10138.022 10138.022 0 0 0 1.374 1.406l.816.863a98.702 98.702 0 0 1 1.54 1.662c.481.533.79 1.118.928 1.756.136.637-.067 1.396-.611 2.277-.544.88-1.302 1.8-2.275 2.755-.973.957-1.62 1.489-1.942 1.596a.949.949 0 0 1-.898-.134.95.95 0 0 1-.42-.806.949.949 0 0 1 .407-.813.949.949 0 0 1 .895-.15.95.95 0 0 1 .648.638.95.95 0 0 1-.135.898.95.95 0 0 1-.806.419.949.949 0 0 1-.812-.406.949.949 0 0 1-.15-.896c.103-.324.709-1.137 1.82-2.44 1.11-1.304 1.56-2.28 1.352-2.93-.209-.65-.6-1.247-1.176-1.791a136.77 136.77 0 0 1-2.673-2.595c-.27-.27-.461-.516-.574-.738a1.125 1.125 0 0 1-.112-.704c.04-.246.147-.458.323-.634.177-.177.389-.284.635-.323l1.846 1.09Z" fill="currentColor" stroke="currentColor" stroke-width="2" stroke-linecap="round" stroke-linejoin="round"/><path d="m7.909 6.05-.01.973-.01.974-.032 1.175c-.02.783-.029 1.54-.024 2.269.004.73.07 1.44.2 2.133.127.693.415 1.341.86 1.946.447.604 1.123 1.045 2.03 1.323.906.277 2.139.48 3.7.607 1.56.127 3.49.24 5.791.34 2.3.1 3.549.2 3.745.3.197.1.312.259.346.477a.616.616 0 0 1-.182.56.616.616 0 0 1-.56.182.616.616 0 0 1-.477-.347.616.616 0 0 1 0-.59.62.62 0 0 1 .477-.345.616.616 0 0 1 .56.182.616.616 0 0 1 .182.56.616.616 0 0 1-.346.477c-.197.1-1.446.2-3.747.298-2.301.098-4.018.2-5.15.308-1.132.107-2.143.15-3.035.127-.892-.022-1.671-.138-2.338-.348a5.946 5.946 0 0 1-3.132-2.29 5.994 5.994 0 0 1-.836-1.724 7.742 7.742 0 0 1-.31-1.987 80.592 80.592 0 0 1-.038-2.173c-.003-.74-.015-1.502-.036-2.285a135.264 135.264 0 0 1-.052-3.688c0-.377.039-.685.116-.922.077-.238.217-.43.419-.577.202-.146.427-.22.677-.22.25 0 .476.074.678.22l.534 2.065Z" fill="currentColor" stroke="currentColor" stroke-width="2" stroke-linecap="round" stroke-linejoin="round"/></svg>