<svg width="30" height="30" fill="none" xmlns="http://www.w3.org/2000/svg"><path d="m19.214 15.17.703-.687.703-.687.863-.816c.575-.545.966-1.142 1.175-1.791.21-.65-.242-1.626-1.352-2.93-1.11-1.303-1.717-2.117-1.82-2.44a.95.95 0 0 1 .15-.897.95.95 0 0 1 .813-.405.95.95 0 0 1 .805.418.949.949 0 0 1 .135.899.949.949 0 0 1-.647.637.949.949 0 0 1-.896-.15.95.95 0 0 1-.406-.812.95.95 0 0 1 .42-.806.949.949 0 0 1 .897-.135c.323.108.97.64 1.943 1.596.972.956 1.73 1.875 2.274 2.756.544.88.748 1.64.611 2.277-.137.638-.446 1.223-.928 1.756a98.702 98.702 0 0 1-1.54 1.662 137.635 137.635 0 0 1-2.594 2.673c-.27.27-.516.461-.738.575-.223.113-.457.15-.704.11a1.125 1.125 0 0 1-.634-.322 1.125 1.125 0 0 1-.323-.635l1.09-1.846Z" fill="currentColor" stroke="currentColor" stroke-width="2" stroke-linecap="round" stroke-linejoin="round"/><path d="m5.485 23.95.01-.973.01-.974.032-1.175c.021-.783.033-1.545.036-2.285.003-.74.016-1.464.038-2.173a7.742 7.742 0 0 1 .31-1.987 6.01 6.01 0 0 1 .836-1.724 5.946 5.946 0 0 1 3.132-2.29c.666-.21 1.446-.326 2.338-.348.892-.022 1.903.02 3.035.127 1.132.107 2.849.21 5.15.308 2.301.099 3.55.198 3.747.298.196.1.312.259.346.476a.616.616 0 0 1-.181.561.616.616 0 0 1-.56.182.616.616 0 0 1-.478-.346.616.616 0 0 1 0-.59.616.616 0 0 1 .477-.346.616.616 0 0 1 .56.182.616.616 0 0 1 .182.56.616.616 0 0 1-.346.477c-.196.1-1.444.2-3.745.3-2.3.1-4.23.213-5.791.34-1.561.127-2.794.33-3.7.607-.907.278-1.583.72-2.03 1.323a4.683 4.683 0 0 0-.86 1.946 12.12 12.12 0 0 0-.2 2.133c-.005.73.003 1.486.024 2.27a135.15 135.15 0 0 1 .052 3.687c0 .378-.039.685-.116.922-.077.238-.216.43-.418.577a1.13 1.13 0 0 1-.678.22c-.25 0-.475-.074-.677-.22l-.535-2.065Z" fill="currentColor" stroke="currentColor" stroke-width="2" stroke-linecap="round" stroke-linejoin="round"/></svg>