<svg width="30" height="30" fill="none" xmlns="http://www.w3.org/2000/svg"><g clip-path="url(#a)" fill="currentColor" stroke="currentColor" stroke-width="2" stroke-linecap="round" stroke-linejoin="round"><path d="M9.439 3.912a2969666.916 2969666.916 0 0 0 5.351.377c1.343.094 2.58.149 3.711.165a77.06 77.06 0 0 0 2.773.001 7.692 7.692 0 0 1 2.113.246 3.04 3.04 0 0 1 1.691 1.122c.436.568.712 1.312.828 2.23.115.92.139 1.947.07 3.081-.068 1.135-.145 2.376-.23 3.723a71.292 71.292 0 0 0-.147 3.719 82.667 82.667 0 0 0 .006 2.774 7.665 7.665 0 0 1-.241 2.112 3.03 3.03 0 0 1-1.118 1.689c-.567.435-1.31.711-2.228.827-.918.116-1.945.14-3.08.072a945.99 945.99 0 0 1-3.723-.23 71.349 71.349 0 0 0-3.718-.146 82.773 82.773 0 0 0-2.774.008 7.665 7.665 0 0 1-2.112-.242 3.03 3.03 0 0 1-1.689-1.118c-.435-.567-.711-1.31-.827-2.227-.116-.919-.14-1.945-.072-3.08.067-1.135.144-2.376.23-3.723a72.47 72.47 0 0 0 .145-3.718 67.57 67.57 0 0 0-.014-2.744c-.022-.697.164-1.467.559-2.308.395-.842.67-1.386.823-1.634a.815.815 0 0 1 .668-.404c.291-.02.531.08.72.303a.815.815 0 0 1 .177.76.815.815 0 0 1-.51.59.815.815 0 0 1-.778-.066.815.815 0 0 1-.404-.668.815.815 0 0 1 .303-.719.815.815 0 0 1 .76-.177c.284.07.48.24.59.51.11.27-.104.806-.644 1.606s-.853 1.541-.94 2.226c-.085.685-.122 1.593-.11 2.724.013 1.132.063 2.37.15 3.716a1745.463 1745.463 0 0 0 .43 6.515c.052.768.323 1.35.814 1.75.49.398 1.08.654 1.771.768.691.114 1.602.165 2.734.152a70.19 70.19 0 0 0 3.715-.15 1755.137 1755.137 0 0 0 6.515-.43c.768-.051 1.35-.322 1.75-.813.398-.49.654-1.081.768-1.772.114-.69.164-1.602.151-2.733a69.933 69.933 0 0 0-.15-3.715c-.087-1.346-.169-2.576-.244-3.691l-.19-2.822c-.05-.767-.321-1.348-.81-1.745-.49-.397-1.08-.651-1.77-.764-.69-.112-1.6-.16-2.731-.144a67.78 67.78 0 0 0-3.71.165l-3.684.259a39.48 39.48 0 0 1-2.639.118c-.647 0-1.084-.037-1.312-.11a1.08 1.08 0 0 1-.552-.402 1.08 1.08 0 0 1-.212-.65c0-.24.07-.456.212-.65l2.835-.513Z"/><path d="m12.23 10.025.834-.002.834-.003 1.008.014a13.97 13.97 0 0 1 2.033.177c.684.109 1.343.406 1.98.891.635.486.974 1.062 1.016 1.73.042.669.06 1.344.052 2.028a13.832 13.832 0 0 1-.179 2.056c-.11.687-.411 1.35-.9 1.991-.49.64-1.07.981-1.739 1.022a27.32 27.32 0 0 1-2.03.049 14.07 14.07 0 0 1-2.057-.182c-.687-.112-1.352-.414-1.994-.905-.641-.49-.983-1.07-1.023-1.741a43.1 43.1 0 0 1-.052-2.745c.007-1.16.094-1.907.26-2.243a1.05 1.05 0 0 1 .806-.595c.37-.062.688.04.955.302.267.263.373.58.317.95-.055.37-.25.642-.582.815a1.047 1.047 0 0 1-1.001.008 1.047 1.047 0 0 1-.595-.806c-.062-.37.039-.688.302-.954.262-.268.579-.373.95-.318.37.056.642.25.814.582.173.333.281 1.188.325 2.566.044 1.379.31 2.189.8 2.43.49.242 1.185.34 2.088.295.902-.045 1.475-.313 1.718-.802.243-.49.34-1.189.292-2.097-.048-.909-.318-1.487-.81-1.735-.493-.248-1.075-.367-1.747-.358-.671.009-1.285.013-1.841.01l-1.32-.002c-.323 0-.604-.038-.841-.116a1.127 1.127 0 0 1-.578-.42 1.127 1.127 0 0 1-.22-.678c0-.25.073-.476.22-.679l1.905-.535Zm.221-7.669a9933.162 9933.162 0 0 0 .056 2.3l-.261.514a1.074 1.074 0 0 1-.832.604c-.38.06-.705-.046-.977-.318a1.074 1.074 0 0 1-.317-.977c.06-.38.261-.657.604-.831a1.074 1.074 0 0 1 1.027 0c.343.174.544.451.604.831.06.38-.046.706-.318.977a1.074 1.074 0 0 1-.977.318 1.074 1.074 0 0 1-.831-.604c-.174-.343-.252-.897-.234-1.664.02-.767.029-1.274.029-1.521 0-.247.038-.49.115-.728.078-.237.218-.43.42-.577.202-.147.428-.22.678-.22.25 0 .476.073.679.22l.535 1.676Zm7.5 0a9933.162 9933.162 0 0 0 .056 2.3l-.261.514a1.074 1.074 0 0 1-.832.604c-.38.06-.705-.046-.977-.318a1.074 1.074 0 0 1-.317-.977c.06-.38.261-.657.604-.831a1.074 1.074 0 0 1 1.027 0c.343.174.544.451.604.831.06.38-.046.706-.317.977a1.074 1.074 0 0 1-.978.318 1.074 1.074 0 0 1-.831-.604c-.174-.343-.252-.897-.234-1.664.02-.767.028-1.274.028-1.521 0-.247.04-.49.116-.728.078-.237.218-.43.42-.577.202-.147.428-.22.678-.22.25 0 .477.073.679.22l.535 1.676Zm-7.5 23.75a9695.68 9695.68 0 0 0 .056 2.3l-.261.514a1.074 1.074 0 0 1-.832.604c-.38.06-.705-.046-.977-.318a1.074 1.074 0 0 1-.317-.977c.06-.38.261-.657.604-.831a1.074 1.074 0 0 1 1.027 0c.343.174.544.451.604.831.06.38-.046.706-.318.977a1.074 1.074 0 0 1-.977.318 1.074 1.074 0 0 1-.831-.604c-.174-.343-.252-.897-.234-1.664.02-.767.029-1.274.029-1.521 0-.247.038-.49.115-.728.078-.237.218-.43.42-.577.202-.147.428-.22.678-.22.25 0 .476.073.679.22l.535 1.676Zm7.5 0a9695.68 9695.68 0 0 0 .056 2.3l-.261.514a1.074 1.074 0 0 1-.832.604c-.38.06-.705-.046-.977-.318a1.074 1.074 0 0 1-.317-.977c.06-.38.261-.657.604-.831a1.074 1.074 0 0 1 1.027 0c.343.174.544.451.604.831.06.38-.046.706-.317.977a1.074 1.074 0 0 1-.978.318 1.074 1.074 0 0 1-.831-.604c-.174-.343-.252-.897-.234-1.664.02-.767.028-1.274.028-1.521 0-.247.04-.49.116-.728.078-.237.218-.43.42-.577.202-.147.428-.22.678-.22.25 0 .477.073.679.22l.535 1.676Zm6.155-16.057 1.15-.028 1.15-.028.514.261c.342.175.544.452.604.832.06.38-.046.705-.318.977a1.074 1.074 0 0 1-.977.317 1.074 1.074 0 0 1-.831-.604 1.074 1.074 0 0 1 0-1.027 1.07 1.07 0 0 1 .831-.604c.38-.06.706.046.977.318.272.271.378.597.318.977s-.262.657-.604.831c-.343.175-.897.252-1.664.234a78.672 78.672 0 0 0-1.521-.029 2.34 2.34 0 0 1-.728-.115 1.127 1.127 0 0 1-.577-.42 1.127 1.127 0 0 1-.22-.678c0-.25.073-.476.22-.679l1.676-.535Zm0 6.25 1.15-.028 1.15-.028.514.261c.342.175.544.452.604.832.06.38-.046.705-.318.977a1.074 1.074 0 0 1-.977.317 1.074 1.074 0 0 1-.831-.604 1.074 1.074 0 0 1 0-1.027 1.07 1.07 0 0 1 .831-.604c.38-.06.706.046.977.317.272.272.378.598.318.978s-.262.656-.604.831c-.343.175-.897.252-1.664.234a78.672 78.672 0 0 0-1.521-.028 2.34 2.34 0 0 1-.728-.116 1.127 1.127 0 0 1-.577-.42 1.127 1.127 0 0 1-.22-.678c0-.25.073-.477.22-.679l1.676-.535Zm-23.75-6.25 1.15-.028 1.15-.028.514.261c.342.175.544.452.604.832.06.38-.046.705-.318.977a1.074 1.074 0 0 1-.977.317 1.074 1.074 0 0 1-.831-.604 1.074 1.074 0 0 1 0-1.027 1.07 1.07 0 0 1 .831-.604c.38-.06.706.046.977.318.272.271.378.597.318.977s-.262.657-.604.831c-.343.175-.897.252-1.664.234a78.664 78.664 0 0 0-1.521-.029 2.34 2.34 0 0 1-.728-.115 1.127 1.127 0 0 1-.577-.42 1.127 1.127 0 0 1-.22-.678c0-.25.073-.476.22-.679l1.676-.535Zm0 6.25 1.15-.028 1.15-.028.514.261c.342.175.544.452.604.832.06.38-.046.705-.318.977a1.074 1.074 0 0 1-.977.317 1.074 1.074 0 0 1-.831-.604 1.074 1.074 0 0 1 0-1.027 1.07 1.07 0 0 1 .831-.604c.38-.06.706.046.977.317.272.272.378.598.318.978s-.262.656-.604.831c-.343.175-.897.252-1.664.234a78.664 78.664 0 0 0-1.521-.028 2.34 2.34 0 0 1-.728-.116 1.127 1.127 0 0 1-.577-.42 1.127 1.127 0 0 1-.22-.678c0-.25.073-.477.22-.679l1.676-.535Z"/></g><defs><clipPath id="a"><path fill="#fff" d="M0 0h30v30H0z"/></clipPath></defs></svg>