<svg width="30" height="30" fill="none" xmlns="http://www.w3.org/2000/svg"><g clip-path="url(#a)" fill="currentColor" stroke="currentColor" stroke-width="2" stroke-linecap="round" stroke-linejoin="round"><path d="M6.66 4.032a475217.27 475217.27 0 0 0 5.005.44l3.022.072c2.015.048 3.87.072 5.566.072 1.696 0 3.044.013 4.045.038 1 .026 1.868.13 2.605.31.736.18 1.315.53 1.737 1.047.42.518.696 1.22.826 2.106.13.887.173 1.897.129 3.03a294.323 294.323 0 0 1-.17 3.72 79.108 79.108 0 0 0-.113 3.719 90.792 90.792 0 0 0 .022 2.773c.02.717-.058 1.42-.235 2.109-.176.688-.572 1.248-1.186 1.68-.614.432-1.519.689-2.712.771-1.194.083-2.635.06-4.323-.07a93.87 93.87 0 0 0-5.56-.245 329.395 329.395 0 0 0-5.572-.051c-1.697 0-3.046-.013-4.046-.039-1-.026-1.868-.13-2.604-.312-.736-.181-1.314-.53-1.735-1.047-.42-.517-.696-1.218-.826-2.104-.13-.886-.174-1.895-.13-3.029.044-1.133.1-2.373.17-3.72a79.256 79.256 0 0 0 .08-6.462c-.024-.697.16-1.466.553-2.308.393-.84.666-1.384.818-1.628a.804.804 0 0 1 .659-.398.804.804 0 0 1 .709.299c.186.22.244.47.175.75a.804.804 0 0 1-.504.581.804.804 0 0 1-.766-.065.804.804 0 0 1-.399-.659.804.804 0 0 1 .3-.709.804.804 0 0 1 .749-.175c.28.07.474.237.582.504.109.266-.108.8-.65 1.6-.54.8-.856 1.542-.944 2.227-.089.685-.13 1.593-.125 2.724.005 1.132.043 2.37.114 3.716.071 1.345.132 2.576.182 3.693.05 1.117.148 2.144.292 3.082.144.937.496 1.576 1.056 1.917.56.34 1.323.53 2.291.568.968.038 2.3.057 3.998.056 1.697 0 3.554-.018 5.571-.054a87.965 87.965 0 0 0 5.538-.258c1.675-.136 3.033-.246 4.075-.332 1.043-.085 1.789-.375 2.238-.87.45-.496.732-1.09.849-1.78.117-.692.172-1.604.167-2.735a77.606 77.606 0 0 0-.115-3.715 497.795 497.795 0 0 1-.184-3.694 29.04 29.04 0 0 0-.292-3.08c-.144-.935-.495-1.574-1.054-1.915-.559-.342-1.322-.532-2.29-.57-.968-.04-2.3-.059-3.996-.059-1.696 0-3.551.025-5.566.073a87.703 87.703 0 0 0-5.525.292c-1.668.146-2.988.219-3.958.219-.97 0-1.559-.034-1.765-.1a.977.977 0 0 1-.5-.364.977.977 0 0 1-.191-.588c0-.217.064-.413.19-.589l3.721-.464Z"/><path d="M7.658 11.526a68086.203 68086.203 0 0 0 6.117.505h6.317c4.21 0 6.38.032 6.506.097.126.064.2.166.223.307a.396.396 0 0 1-.117.36c-.1.1-.22.14-.361.117a.396.396 0 0 1-.307-.222.396.396 0 0 1 0-.38.396.396 0 0 1 .307-.223c.14-.022.26.017.36.118.101.1.14.22.118.36a.396.396 0 0 1-.223.307c-.127.065-2.295.097-6.506.097s-7.336.084-9.375.253c-2.04.168-3.652.252-4.838.252s-1.875-.03-2.066-.093a.904.904 0 0 1-.463-.336.905.905 0 0 1-.177-.545c0-.2.06-.382.177-.545l4.308-.43Z"/></g><defs><clipPath id="a"><path fill="#fff" d="M0 0h30v30H0z"/></clipPath></defs></svg>