<svg width="30" height="30" fill="none" xmlns="http://www.w3.org/2000/svg"><g clip-path="url(#a)" fill="currentColor" stroke="currentColor" stroke-width="2" stroke-linecap="round" stroke-linejoin="round"><path d="m10.785 3.753-.206 2.084-.207 2.084-.152 2.517a90.224 90.224 0 0 0-.17 4.637c-.012 1.414.005 2.53.052 3.349.047.819.267 1.479.66 1.98.394.5 1.106.816 2.137.95 1.03.133 2.243.254 3.638.363 1.394.11 3.528.2 6.401.273 2.873.072 4.373.14 4.5.205.126.065.2.167.222.307a.396.396 0 0 1-.117.36c-.1.101-.22.14-.36.118a.396.396 0 0 1-.308-.223.396.396 0 0 1 0-.38.396.396 0 0 1 .307-.222c.14-.022.26.017.361.117.1.1.14.22.117.36a.396.396 0 0 1-.223.308c-.126.064-1.626.132-4.5.204-2.873.073-5.009.162-6.408.27-1.399.107-2.659.091-3.778-.05-1.12-.14-1.964-.45-2.53-.928-.567-.479-.9-1.053-.998-1.723a14.884 14.884 0 0 1-.138-2.265l.027-3.38a90.317 90.317 0 0 0-.09-4.64 121.6 121.6 0 0 0-.278-4.607c-.113-1.391-.167-2.492-.16-3.3.007-.809.047-1.321.12-1.537.071-.216.2-.39.386-.522.185-.133.392-.198.62-.196.227.002.433.07.616.206l.459 3.28Z"/><path d="M3.734 8.579a330014.999 330014.999 0 0 0 4.174.34l2.52.108c1.68.073 3.226.103 4.64.09l3.38-.027c.84-.007 1.595.04 2.265.138.67.099 1.244.431 1.723.998.479.566.788 1.41.929 2.53.14 1.12.156 2.379.049 3.778-.108 1.4-.198 3.536-.27 6.409-.072 2.873-.14 4.373-.204 4.5a.396.396 0 0 1-.307.222.396.396 0 0 1-.36-.117.394.394 0 0 1-.118-.36.397.397 0 0 1 .223-.307.396.396 0 0 1 .379 0c.127.064.2.166.223.306a.396.396 0 0 1-.117.36c-.1.101-.22.14-.36.118a.396.396 0 0 1-.308-.223c-.064-.126-.133-1.626-.205-4.499-.073-2.873-.164-5.007-.273-6.402a73.96 73.96 0 0 0-.364-3.637c-.133-1.03-.45-1.743-.95-2.136-.5-.394-1.16-.615-1.979-.661-.819-.047-1.935-.064-3.349-.052a90.426 90.426 0 0 0-4.637.17c-1.678.102-3.212.221-4.601.359-1.39.137-2.488.21-3.297.216-.809.007-1.321-.023-1.539-.092a1.026 1.026 0 0 1-.529-.377 1.026 1.026 0 0 1-.206-.617 1.026 1.026 0 0 1 .196-.62l3.272-.515Z"/></g><defs><clipPath id="a"><path fill="#fff" d="M0 0h30v30H0z"/></clipPath></defs></svg>