<svg width="30" height="30" fill="none" xmlns="http://www.w3.org/2000/svg"><g clip-path="url(#a)" fill="currentColor" stroke="currentColor" stroke-width="2" stroke-linecap="round" stroke-linejoin="round"><path d="m27.199 18.99-.98 1.667-.979 1.668-1.402 1.367a13.25 13.25 0 0 1-3.152 2.28 12.767 12.767 0 0 1-3.73 1.255c-1.319.23-2.639.257-3.96.081a12.498 12.498 0 0 1-3.744-1.103 12.307 12.307 0 0 1-5.523-5.213 12.315 12.315 0 0 1-1.307-3.68 12.514 12.514 0 0 1-.108-3.946 12.403 12.403 0 0 1 3.267-6.918 12.314 12.314 0 0 1 6.725-3.656 12.53 12.53 0 0 1 3.946-.107c1.32.172 2.567.538 3.743 1.098 1.176.559 2.487 1.672 3.932 3.34 1.446 1.667 2.198 2.566 2.255 2.695a.4.4 0 0 1-.021.38.396.396 0 0 1-.319.205.396.396 0 0 1-.353-.137.396.396 0 0 1-.098-.367.396.396 0 0 1 .24-.294.396.396 0 0 1 .379.021.396.396 0 0 1 .205.319.396.396 0 0 1-.137.353.396.396 0 0 1-.366.098c-.139-.03-.901-.862-2.287-2.494-1.386-1.633-2.622-2.715-3.707-3.246a11.493 11.493 0 0 0-3.46-1.056 11.614 11.614 0 0 0-3.661.06 11.412 11.412 0 0 0-6.27 3.32 11.498 11.498 0 0 0-3.097 6.38 11.614 11.614 0 0 0 .06 3.661 11.412 11.412 0 0 0 3.32 6.27 11.422 11.422 0 0 0 6.38 3.094c1.222.17 2.437.143 3.646-.083a11.147 11.147 0 0 0 3.381-1.21 10.91 10.91 0 0 0 2.753-2.157c.79-.858 1.42-1.798 1.89-2.82.472-1.022.848-2.166 1.128-3.43.28-1.263.47-1.979.567-2.145a.87.87 0 0 1 .414-.365.871.871 0 0 1 .55-.052.871.871 0 0 1 .474.28l-.594 4.587Z"/><path d="m26.37 16.21-.557.018-.556.018-1.149.008c-.765.006-1.318-.078-1.659-.252a1.067 1.067 0 0 1-.6-.826c-.06-.377.045-.701.315-.972.27-.27.595-.375.972-.315s.653.26.826.6c.174.34.174.681 0 1.022-.173.34-.449.54-.826.6a1.068 1.068 0 0 1-.972-.316 1.067 1.067 0 0 1-.315-.971c.06-.377.26-.653.6-.826.34-.174.894-.258 1.66-.252.765.005 1.333.014 1.704.026.37.011.664.017.88.017.215 0 .442.039.679.116.237.077.429.216.576.418.146.202.22.428.22.677 0 .25-.074.475-.22.677l-1.579.534Zm-20 0-.557.018-.556.018-1.149.008c-.765.006-1.318-.078-1.659-.252a1.068 1.068 0 0 1-.6-.826c-.06-.377.045-.701.315-.972.27-.27.594-.375.972-.315.377.06.653.26.826.6.174.34.174.681 0 1.022-.173.34-.449.54-.826.6a1.068 1.068 0 0 1-.972-.316 1.067 1.067 0 0 1-.315-.971c.06-.377.26-.653.6-.826.34-.174.894-.258 1.66-.252a77.03 77.03 0 0 1 1.704.026c.37.011.664.017.88.017.215 0 .442.039.679.116.237.077.429.216.576.418.146.202.22.428.22.677 0 .25-.074.475-.22.677l-1.579.534Zm7.42-9.84-.018-.557-.018-.556-.008-1.149c-.006-.765.078-1.318.252-1.659.173-.34.449-.54.826-.6.377-.06.701.045.972.315.27.27.375.594.315.972-.06.377-.26.653-.6.826-.34.174-.681.174-1.022 0a1.067 1.067 0 0 1-.6-.826c-.06-.378.045-.701.316-.972.27-.27.594-.375.971-.315s.653.26.826.6c.174.34.258.894.252 1.66a76.884 76.884 0 0 1-.026 1.704c-.011.37-.017.664-.017.88 0 .215-.039.442-.116.679a1.125 1.125 0 0 1-.418.576 1.13 1.13 0 0 1-.677.22c-.25 0-.475-.074-.677-.22l-.534-1.579Zm0 20-.018-.557-.018-.556-.008-1.149c-.006-.765.078-1.318.252-1.659.173-.34.449-.54.826-.6.377-.06.701.045.972.315.27.27.375.595.315.972s-.26.653-.6.826c-.34.174-.681.174-1.022 0a1.067 1.067 0 0 1-.6-.826c-.06-.377.045-.701.316-.972.27-.27.594-.375.971-.315s.653.26.826.6c.174.34.258.894.252 1.66a76.888 76.888 0 0 1-.026 1.704 29.5 29.5 0 0 0-.017.88c0 .215-.039.442-.116.679a1.125 1.125 0 0 1-.418.576 1.13 1.13 0 0 1-.677.22c-.25 0-.475-.074-.677-.22l-.534-1.579Z"/></g><defs><clipPath id="a"><path fill="#fff" d="M0 0h30v30H0z"/></clipPath></defs></svg>