<svg width="30" height="30" fill="none" xmlns="http://www.w3.org/2000/svg"><path d="m25.88 8.046-.918.643-.918.643-1.306.424a16.56 16.56 0 0 1-2.896.636 28.34 28.34 0 0 1-3.36.239 41.01 41.01 0 0 1-3.529-.101 39.517 39.517 0 0 1-3.325-.375 23.695 23.695 0 0 1-2.852-.617c-.855-.247-1.595-.551-2.218-.913-.623-.363-1.029-.875-1.218-1.54-.19-.663.014-1.461.61-2.394.595-.933 1.323-1.551 2.182-1.855a15.35 15.35 0 0 1 2.871-.69 26.93 26.93 0 0 1 3.347-.272 39.331 39.331 0 0 1 3.522.081c1.171.08 2.279.2 3.324.363 1.044.163 2.217.486 3.518.97 1.3.484 2.034.8 2.2.951.166.15.237.338.213.56a.626.626 0 0 1-.328.502.626.626 0 0 1-.599.029.626.626 0 0 1-.375-.467.626.626 0 0 1 .157-.578.626.626 0 0 1 .56-.213c.223.024.39.134.501.328a.626.626 0 0 1 .03.599.626.626 0 0 1-.467.375c-.22.046-.953-.184-2.201-.69-1.248-.507-2.367-.842-3.357-1.007a22.28 22.28 0 0 0-3.16-.283 26.962 26.962 0 0 0-3.323.131 27.85 27.85 0 0 0-3.049.472c-.935.203-1.744.423-2.43.66-.684.237-1.208.611-1.57 1.124-.363.512-.374.964-.032 1.355.341.391.895.72 1.66.989a15.7 15.7 0 0 0 2.634.645c.989.162 2.042.253 3.158.272 1.117.02 2.223-.03 3.319-.15a26.422 26.422 0 0 0 3.038-.501c.93-.214 1.736-.445 2.418-.694.681-.25 1.222-.48 1.621-.69.4-.211.725-.507.977-.886s.476-.642.67-.79c.196-.148.415-.225.66-.23.245-.005.467.063.668.202.2.14.341.325.422.556l-.848 2.187Zm-.197 9.006-.915.644-.916.645-1.304.423c-.87.283-1.835.495-2.897.637-1.061.142-2.184.22-3.368.236a41.464 41.464 0 0 1-3.539-.102 39.911 39.911 0 0 1-3.331-.374c-1.046-.165-2.218-.49-3.516-.974-1.299-.484-2.031-.802-2.199-.953a.63.63 0 0 1-.214-.564.63.63 0 0 1 .33-.505.63.63 0 0 1 .603-.03.63.63 0 0 1 .378.47.63.63 0 0 1-.158.583.63.63 0 0 1-.564.214.63.63 0 0 1-.505-.33.63.63 0 0 1-.03-.603.63.63 0 0 1 .47-.378c.222-.046.955.183 2.2.689 1.245.505 2.362.84 3.353 1.001.99.162 2.046.253 3.166.272 1.12.02 2.23-.031 3.33-.152a26.39 26.39 0 0 0 3.045-.502c.93-.214 1.736-.445 2.416-.693.68-.249 1.218-.478 1.616-.689a2.62 2.62 0 0 0 .972-.885c.25-.38.473-.644.668-.792.194-.148.414-.225.658-.231.245-.006.468.061.669.2.201.14.342.324.423.555l-.841 2.188Z" fill="currentColor" stroke="currentColor" stroke-width="2" stroke-linecap="round" stroke-linejoin="round"/><path d="m5.046 8.773-.172 1.947-.173 1.946-.151 2.35a65.34 65.34 0 0 0-.147 4.33c.003 1.318.085 2.372.246 3.16a3.839 3.839 0 0 0 1.13 2.037c.592.57 1.244.969 1.956 1.197.713.228 1.543.434 2.49.62.948.186 1.975.328 3.081.427 1.107.1 2.221.133 3.344.1a22.81 22.81 0 0 0 3.17-.3c.992-.168 1.87-.388 2.635-.66.765-.271 1.374-.619 1.827-1.043.454-.424.758-1.058.914-1.9.156-.844.282-1.908.38-3.194.098-1.285.184-3.27.26-5.953.077-2.683.147-4.087.212-4.214a.396.396 0 0 1 .307-.222c.14-.021.26.018.36.119.1.1.14.22.117.36a.396.396 0 0 1-.224.307.396.396 0 0 1-.38-.001.396.396 0 0 1-.221-.308.396.396 0 0 1 .118-.36c.1-.1.221-.139.361-.116.14.022.242.097.306.224.064.126.13 1.534.196 4.222.067 2.688.135 4.706.202 6.054.068 1.348-.103 2.6-.513 3.755-.41 1.155-.942 1.99-1.598 2.503a6.531 6.531 0 0 1-2.265 1.135c-.855.243-1.804.443-2.85.602a37.519 37.519 0 0 1-3.327.345 37.382 37.382 0 0 1-3.525.048 25.217 25.217 0 0 1-3.332-.321 14.455 14.455 0 0 1-2.822-.749c-.837-.323-1.57-.94-2.2-1.849-.63-.909-1.008-1.81-1.134-2.704-.127-.894-.189-2-.186-3.32a65.357 65.357 0 0 0-.146-4.33c-.101-1.567-.21-3-.324-4.297-.115-1.298-.172-2.324-.172-3.079 0-.755.035-1.242.107-1.463a1.05 1.05 0 0 1 .389-.535c.187-.136.397-.204.629-.204.231 0 .441.068.629.204l.496 3.13Z" fill="currentColor" stroke="currentColor" stroke-width="2" stroke-linecap="round" stroke-linejoin="round"/></svg>