<svg width="30" height="30" fill="none" xmlns="http://www.w3.org/2000/svg"><g clip-path="url(#a)" fill="currentColor" stroke="currentColor" stroke-width="2" stroke-linecap="round" stroke-linejoin="round"><path d="m23.381 6.364-1.807-.144-1.808-.145-2.182-.152a71.149 71.149 0 0 0-4.014-.176c-1.22-.016-2.224.109-3.01.374-.787.265-1.62.853-2.5 1.762-.88.91-1.727 1.798-2.542 2.665a33.405 33.405 0 0 0-2.131 2.48c-.605.786-.908 1.489-.907 2.108 0 .62.29 1.285.869 1.995.579.71 1.238 1.528 1.977 2.453a29.792 29.792 0 0 0 2.243 2.519c.757.754 1.585 1.306 2.484 1.656.898.35 1.939.564 3.12.639 1.182.075 2.5.15 3.956.226 1.456.076 2.797.11 4.023.104 1.226-.006 2.204-.057 2.936-.152.732-.095 1.342-.336 1.83-.722.489-.387.77-.993.844-1.82.074-.825.147-1.796.22-2.913l.243-3.69c.088-1.345.14-2.583.153-3.714.013-1.131-.03-2.036-.128-2.715-.1-.679-.318-1.27-.657-1.773-.34-.502-.764-.845-1.274-1.026-.51-.182-.797-.447-.861-.796a.99.99 0 0 1 .27-.908.99.99 0 0 1 .895-.315.99.99 0 0 1 .78.539.99.99 0 0 1 .023.947.99.99 0 0 1-.754.576.99.99 0 0 1-.908-.271.99.99 0 0 1-.314-.894.99.99 0 0 1 .538-.78.99.99 0 0 1 .948-.023c.32.153.788.48 1.406.979.618.499.992 1.069 1.124 1.71.132.64.182 1.31.15 2.007a51.41 51.41 0 0 0-.026 2.743c.013 1.131.064 2.37.152 3.714.088 1.345.167 2.579.239 3.7a14.63 14.63 0 0 1-.123 3.17c-.153.992-.472 1.766-.957 2.322-.485.555-1.053.89-1.703 1.003-.65.114-1.347.157-2.092.13a111.25 111.25 0 0 0-2.957-.054 79.81 79.81 0 0 0-4.037.082c-1.464.063-2.832.109-4.102.136-1.27.027-2.292-.04-3.065-.203-.773-.162-1.39-.464-1.854-.907A28.517 28.517 0 0 1 6.4 23.005c-.664-.761-1.405-1.58-2.223-2.459-.818-.877-1.59-1.922-2.318-3.133-.727-1.21-1-2.193-.818-2.945.182-.752.61-1.519 1.283-2.3.674-.78 1.397-1.632 2.168-2.555.77-.924 1.719-1.867 2.844-2.831 1.124-.964 2.136-1.55 3.033-1.756.897-.208 1.96-.319 3.19-.335a71.226 71.226 0 0 0 4.026-.176c1.455-.102 2.785-.2 3.99-.297 1.205-.096 2.158-.144 2.859-.144.7 0 1.163.036 1.387.11.225.072.406.204.545.395.139.19.208.404.208.64s-.07.45-.208.64l-2.983.505Z"/><path d="m21.565 13.895-.86.809-.859.809-1.762 1.683c-1.174 1.123-1.908 1.732-2.202 1.827a.864.864 0 0 1-.817-.13.864.864 0 0 1-.375-.736c0-.309.125-.555.375-.736a.864.864 0 0 1 .817-.13c.294.096.489.29.584.585a.864.864 0 0 1-.13.816.864.864 0 0 1-.736.376.864.864 0 0 1-.736-.376.864.864 0 0 1-.13-.816c.096-.294.705-1.029 1.827-2.203a534.975 534.975 0 0 0 2.493-2.621c.54-.573.97-1.021 1.294-1.345.323-.323.596-.541.817-.654.22-.113.454-.15.698-.11.245.038.456.145.63.32.176.176.283.386.322.631l-1.25 2Z"/><path d="m17.645 12.185.809.86.809.859 1.683 1.761c1.123 1.175 1.732 1.91 1.827 2.204a.864.864 0 0 1-.13.816.864.864 0 0 1-.736.375.864.864 0 0 1-.736-.375.864.864 0 0 1-.13-.816.864.864 0 0 1 .585-.585.864.864 0 0 1 .816.13c.25.181.376.426.376.736s-.125.555-.376.736a.864.864 0 0 1-.816.13c-.294-.096-1.029-.705-2.203-1.827a534.975 534.975 0 0 0-2.621-2.493c-.573-.54-1.021-.97-1.345-1.294-.323-.323-.541-.596-.654-.817a1.117 1.117 0 0 1-.11-.698c.038-.245.145-.456.32-.63a1.12 1.12 0 0 1 .631-.322l2 1.25Z"/></g><defs><clipPath id="a"><path fill="#fff" d="M0 0h30v30H0z"/></clipPath></defs></svg>