<svg width="30" height="30" fill="none" xmlns="http://www.w3.org/2000/svg"><path d="m18.488 8.544-.21.477-.21.476s-.12.14-.356.421a3.624 3.624 0 0 1-.838.727c-.321.204-.72.34-1.195.408-.476.068-1.075-.009-1.799-.23a3.376 3.376 0 0 1-1.764-1.244 3.472 3.472 0 0 1-.694-2.079c-.01-.777.208-1.48.655-2.107A3.598 3.598 0 0 1 13.8 4.067c.701-.257 1.46-.17 2.277.264.817.433 1.425.766 1.824 1 .399.233.621.58.666 1.04.046.46-.104.844-.45 1.15a1.291 1.291 0 0 1-1.195.313 1.291 1.291 0 0 1-.956-.784 1.291 1.291 0 0 1 .073-1.233c.234-.4.58-.621 1.04-.667.46-.045.844.105 1.151.45.307.346.411.745.312 1.196a1.29 1.29 0 0 1-.783.955c-.424.186-1.062.114-1.916-.216-.853-.33-1.211-.294-1.074.107.137.4.37.574.7.52.33-.055.537-.216.621-.485.084-.269.19-.52.315-.752a1.2 1.2 0 0 1 .546-.52 1.19 1.19 0 0 1 .748-.099c.26.048.48.167.663.359l.126 1.879Zm-8.002 5.331a26416.275 26416.275 0 0 0 3.893.345l4.02.15c2.68.1 4.084.182 4.214.248.13.066.206.171.229.315a.407.407 0 0 1-.12.37.407.407 0 0 1-.37.12.407.407 0 0 1-.315-.229.407.407 0 0 1 0-.388.407.407 0 0 1 .315-.23.407.407 0 0 1 .37.121.407.407 0 0 1 .12.37.406.406 0 0 1-.229.315c-.13.066-1.534.149-4.214.249-2.68.1-4.668.207-5.966.322-1.298.115-2.324.172-3.079.172-.754 0-1.242-.036-1.462-.107a1.045 1.045 0 0 1-.535-.389A1.045 1.045 0 0 1 7.152 15c0-.232.068-.441.205-.629l3.13-.496Zm8.002 9.669-.21.477-.21.476s-.12.14-.356.422c-.237.28-.516.522-.838.726-.321.204-.72.34-1.195.408-.476.068-1.075-.009-1.799-.23a3.376 3.376 0 0 1-1.764-1.244 3.472 3.472 0 0 1-.694-2.079c-.01-.777.208-1.48.655-2.107a3.597 3.597 0 0 1 1.723-1.326c.701-.257 1.46-.17 2.277.264a53.02 53.02 0 0 1 1.824 1c.399.233.621.58.666 1.04.046.46-.104.844-.45 1.15a1.291 1.291 0 0 1-1.195.313 1.291 1.291 0 0 1-.956-.784 1.291 1.291 0 0 1 .073-1.233c.234-.4.58-.621 1.04-.667.46-.045.844.105 1.151.45.307.346.411.745.312 1.196a1.29 1.29 0 0 1-.783.955c-.424.186-1.062.114-1.916-.216-.853-.33-1.211-.294-1.074.107.137.401.37.574.7.52.33-.055.537-.216.621-.485.084-.269.19-.52.315-.752a1.2 1.2 0 0 1 .546-.52 1.19 1.19 0 0 1 .748-.099c.26.048.48.168.663.359l.126 1.879Z" fill="currentColor" stroke="currentColor" stroke-width="2" stroke-linecap="round" stroke-linejoin="round"/></svg>