<svg width="30" height="30" fill="none" xmlns="http://www.w3.org/2000/svg"><path d="m15.974 7.658-.252 3.059-.253 3.058v6.317c0 4.21-.032 6.38-.097 6.506a.396.396 0 0 1-.307.223.396.396 0 0 1-.36-.117c-.1-.1-.14-.22-.117-.361a.396.396 0 0 1 .222-.307.396.396 0 0 1 .38 0 .4.4 0 0 1 .223.307.396.396 0 0 1-.118.36c-.1.101-.22.14-.36.118a.396.396 0 0 1-.307-.223c-.065-.127-.097-2.295-.097-6.506s-.084-7.336-.253-9.375c-.168-2.04-.252-3.652-.252-4.838s.03-1.875.093-2.066a.904.904 0 0 1 .336-.463.905.905 0 0 1 .545-.177c.2 0 .382.06.545.177l.43 4.308Z" fill="currentColor" stroke="currentColor" stroke-width="2" stroke-linecap="round" stroke-linejoin="round"/><path d="m19.984 7.326-1.043-.018-1.043-.018-1.26-.041a67.273 67.273 0 0 0-2.417-.038c-.773.003-1.497.063-2.174.18a3.73 3.73 0 0 0-1.778.81c-.509.423-.829.988-.96 1.696-.13.707 0 1.35.389 1.928.39.578.982.973 1.779 1.186.796.213 1.736.334 2.818.363 1.083.028 2.04.064 2.873.106.833.043 1.662.186 2.487.429a5.621 5.621 0 0 1 2.226 1.266 5.466 5.466 0 0 1 1.456 2.159c.312.838.416 1.704.311 2.598a5.527 5.527 0 0 1-.907 2.465 5.504 5.504 0 0 1-1.963 1.788 6.908 6.908 0 0 1-2.61.814c-.932.1-1.802.12-2.609.062-.808-.06-2.027-.12-3.658-.181-1.631-.062-2.605-.173-2.921-.334a.99.99 0 0 1-.558-.766.99.99 0 0 1 .293-.901.99.99 0 0 1 .901-.294.99.99 0 0 1 .767.557.99.99 0 0 1 0 .948.99.99 0 0 1-.766.557.99.99 0 0 1-.901-.292.99.99 0 0 1-.294-.902.99.99 0 0 1 .557-.767c.316-.16 1.289-.272 2.918-.335 1.63-.062 2.84-.124 3.632-.186.791-.063 1.539-.14 2.244-.236a3.563 3.563 0 0 0 1.839-.79 2.44 2.44 0 0 0 .897-1.66 2.402 2.402 0 0 0-.529-1.826 2.97 2.97 0 0 0-1.613-1.068c-.646-.17-1.468-.249-2.467-.239a76.09 76.09 0 0 1-3.072-.034c-1.049-.032-2.006-.21-2.872-.537a5.6 5.6 0 0 1-2.2-1.475 5.432 5.432 0 0 1-1.249-2.269 5.368 5.368 0 0 1-.073-2.564 5.284 5.284 0 0 1 1.101-2.289 5.195 5.195 0 0 1 2.01-1.505 7.018 7.018 0 0 1 2.336-.568 44.21 44.21 0 0 1 2.325-.074 89.55 89.55 0 0 0 2.433-.047c.84-.028 1.607-.047 2.302-.06.695-.011 1.245-.017 1.65-.017.403 0 .724.038.961.115.237.077.429.216.575.418.147.202.22.427.22.676 0 .25-.073.475-.22.677l-2.143.533Z" fill="currentColor" stroke="currentColor" stroke-width="2" stroke-linecap="round" stroke-linejoin="round"/></svg>