<svg width="30" height="30" fill="none" xmlns="http://www.w3.org/2000/svg"><g clip-path="url(#a)" fill="currentColor" stroke="currentColor" stroke-width="2" stroke-linecap="round" stroke-linejoin="round"><path d="M11.994 21.528a3281.551 3281.551 0 0 0 1.121 1.103l.66.742c.441.494.902.863 1.38 1.108.48.244 1.19-.148 2.13-1.178.941-1.03 1.594-1.595 1.96-1.697a1.06 1.06 0 0 1 .993.202c.297.236.438.544.422.922a1.06 1.06 0 0 1-.5.883 1.06 1.06 0 0 1-1.007.116 1.06 1.06 0 0 1-.685-.747 1.06 1.06 0 0 1 .201-.994 1.06 1.06 0 0 1 .923-.421c.379.016.673.182.883.498.21.317.248.652.115 1.008-.133.355-.58.917-1.344 1.686-.763.768-1.528 1.372-2.295 1.811-.768.44-1.601.441-2.502.006-.9-.435-1.636-.912-2.21-1.431a35.053 35.053 0 0 1-1.41-1.34c-.368-.373-.66-.668-.876-.883a2.632 2.632 0 0 1-.493-.658 1.127 1.127 0 0 1-.112-.705c.039-.247.147-.46.324-.636.177-.177.389-.285.636-.324l1.686.929Z"/><path d="m16.2 17.652-.046 1.252-.046 1.251-.067 2.584c-.044 1.723-.133 2.716-.267 2.979a.825.825 0 0 1-.638.463.824.824 0 0 1-.75-.243.824.824 0 0 1-.244-.75.824.824 0 0 1 .463-.64.825.825 0 0 1 .79 0 .824.824 0 0 1 .463.64.824.824 0 0 1-.244.75.824.824 0 0 1-.75.244.825.825 0 0 1-.638-.464c-.134-.263-.223-1.256-.268-2.979a375.857 375.857 0 0 0-.112-3.835 56.847 56.847 0 0 1-.046-1.98c0-.485.038-.845.115-1.08.076-.235.214-.425.414-.57.2-.145.424-.218.671-.218.247 0 .47.073.67.218l.53 2.378Z"/><path d="m26.077 21.191.354-.51.354-.51.214-.73c.144-.486.193-1.123.147-1.912a4.569 4.569 0 0 0-.682-2.176 4.636 4.636 0 0 0-1.579-1.57 6.35 6.35 0 0 0-1.998-.786 9.431 9.431 0 0 1-2.026-.662 3.46 3.46 0 0 1-1.553-1.368 37.577 37.577 0 0 0-1.213-1.85A8.255 8.255 0 0 0 12.51 5.66a8.255 8.255 0 0 0-2.243-.023 8.263 8.263 0 0 0-4.103 1.72 8.27 8.27 0 0 0-1.558 1.618A8.276 8.276 0 0 0 3.04 13.14a8.213 8.213 0 0 0 .117 2.276c.146.764.419 1.57.819 2.418.4.848.557 1.5.472 1.958a1.3 1.3 0 0 1-.757.987 1.3 1.3 0 0 1-1.244-.033 1.3 1.3 0 0 1-.704-1.025 1.3 1.3 0 0 1 .415-1.173 1.3 1.3 0 0 1 1.193-.352 1.3 1.3 0 0 1 .987.757c.2.42.189.834-.033 1.243a1.3 1.3 0 0 1-1.025.704 1.3 1.3 0 0 1-1.173-.415c-.32-.338-.744-1.16-1.271-2.468-.528-1.307-.827-2.304-.896-2.991a11.407 11.407 0 0 1 .327-4.099 11.413 11.413 0 0 1 3.105-5.28 11.412 11.412 0 0 1 3.423-2.28 11.423 11.423 0 0 1 4.008-.924 11.443 11.443 0 0 1 5.978 1.367 11.463 11.463 0 0 1 3.214 2.574 6.528 6.528 0 0 1 1.11 1.831c.285.7.74 1.165 1.366 1.399a18.34 18.34 0 0 0 1.916.597 7.55 7.55 0 0 1 5.389 5.071 7.416 7.416 0 0 1 .171 3.762c-.133.62-.276 1.113-.428 1.48a6.167 6.167 0 0 1-.48.946c-.168.265-.431.587-.789.967-.357.38-.655.679-.894.896a2.696 2.696 0 0 1-.704.48c-.23.103-.468.128-.715.076a1.134 1.134 0 0 1-.622-.36 1.135 1.135 0 0 1-.292-.656l1.054-1.683Z"/></g><defs><clipPath id="a"><path fill="#fff" d="M0 0h30v30H0z"/></clipPath></defs></svg>