<svg width="30" height="30" fill="none" xmlns="http://www.w3.org/2000/svg"><path d="M27.42 19.326a2398.906 2398.906 0 0 0 .036 1.113l.015.76c.01.506 0 1.101-.028 1.784a6.364 6.364 0 0 1-.455 2.074c-.276.7-.756 1.265-1.442 1.696-.685.43-1.534.666-2.546.706-1.012.04-2.172-.015-3.479-.166a115.22 115.22 0 0 0-4.314-.409 62.702 62.702 0 0 0-4.333-.197 96.604 96.604 0 0 0-3.168.016c-.793.021-1.52-.023-2.183-.133a3.082 3.082 0 0 1-1.72-.896c-.482-.486-.81-1.098-.983-1.833-.173-.735-.27-1.62-.291-2.658-.022-1.037.05-1.72.216-2.047.166-.328.43-.521.793-.58.362-.059.674.042.935.3.26.26.362.57.306.934a1.026 1.026 0 0 1-.575.796 1.026 1.026 0 0 1-.982.003 1.026 1.026 0 0 1-.58-.793 1.026 1.026 0 0 1 .301-.935c.26-.26.57-.362.933-.306.363.056.628.248.796.575.168.327.293 1.274.374 2.843.082 1.569.36 2.543.834 2.923.475.38 1.096.607 1.863.68.768.074 1.812.106 3.131.096 1.32-.01 2.764-.077 4.332-.199a110.46 110.46 0 0 0 4.305-.412c1.3-.153 2.418-.407 3.351-.764.933-.357 1.512-.836 1.736-1.437.224-.6.341-1.155.351-1.662.01-.506.021-.945.033-1.316.012-.37.017-.664.017-.88 0-.215.039-.441.116-.678.077-.238.216-.43.418-.576.202-.147.428-.22.677-.22.25 0 .475.073.677.22l.534 1.578Z" fill="currentColor" stroke="currentColor" stroke-width="2" stroke-linecap="round" stroke-linejoin="round"/><path d="m11.08 12.964.687.703.687.703.816.863c.545.575 1.142.966 1.791 1.175.65.21 1.626-.242 2.93-1.352 1.303-1.11 2.117-1.717 2.44-1.82a.95.95 0 0 1 .897.15.949.949 0 0 1 .405.813.95.95 0 0 1-.418.806.95.95 0 0 1-.899.134.95.95 0 0 1-.637-.647.949.949 0 0 1 .15-.896.949.949 0 0 1 .812-.406.95.95 0 0 1 .806.42.949.949 0 0 1 .135.897c-.108.323-.64.97-1.596 1.943-.956.972-1.875 1.73-2.756 2.274-.88.544-1.64.748-2.277.611-.638-.137-1.223-.446-1.756-.928a98.702 98.702 0 0 1-1.662-1.54 138.54 138.54 0 0 1-2.673-2.594c-.27-.27-.461-.516-.574-.738a1.125 1.125 0 0 1-.112-.704c.04-.246.147-.457.323-.634.177-.176.388-.284.635-.323l1.846 1.09Z" fill="currentColor" stroke="currentColor" stroke-width="2" stroke-linecap="round" stroke-linejoin="round"/><path d="m13.838 15.142.118-1.669.118-1.668.126-3.446c.084-2.297.173-3.536.265-3.718a.57.57 0 0 1 .441-.32.57.57 0 0 1 .518.168.57.57 0 0 1 .169.519.57.57 0 0 1-.32.44.57.57 0 0 1-.546 0 .57.57 0 0 1-.32-.44.57.57 0 0 1 .169-.519.57.57 0 0 1 .518-.168.57.57 0 0 1 .44.32c.093.182.182 1.421.266 3.718.084 2.297.165 4.002.244 5.114.079 1.112.118 1.992.118 2.639 0 .647-.037 1.084-.11 1.312a1.08 1.08 0 0 1-.402.553c-.194.14-.41.21-.65.21-.24 0-.456-.07-.65-.21l-.512-2.835Z" fill="currentColor" stroke="currentColor" stroke-width="2" stroke-linecap="round" stroke-linejoin="round"/></svg>