<svg width="30" height="30" fill="none" xmlns="http://www.w3.org/2000/svg"><path d="m27.199 18.99-.98 1.667-.979 1.668-1.402 1.367a13.25 13.25 0 0 1-3.152 2.28 12.767 12.767 0 0 1-3.73 1.255c-1.319.23-2.639.257-3.96.081a12.498 12.498 0 0 1-3.744-1.103 12.307 12.307 0 0 1-5.523-5.213 12.315 12.315 0 0 1-1.307-3.68 12.514 12.514 0 0 1-.108-3.946 12.403 12.403 0 0 1 3.267-6.918 12.314 12.314 0 0 1 6.725-3.656 12.53 12.53 0 0 1 3.946-.107c1.32.172 2.567.538 3.743 1.098 1.176.559 2.487 1.672 3.932 3.34 1.446 1.667 2.198 2.566 2.255 2.695a.4.4 0 0 1-.021.38.396.396 0 0 1-.319.205.396.396 0 0 1-.353-.137.396.396 0 0 1-.098-.367.396.396 0 0 1 .24-.294.396.396 0 0 1 .379.021.396.396 0 0 1 .205.319.396.396 0 0 1-.137.353.396.396 0 0 1-.366.098c-.139-.03-.901-.862-2.287-2.494-1.386-1.633-2.622-2.715-3.707-3.246a11.493 11.493 0 0 0-3.46-1.056 11.614 11.614 0 0 0-3.661.06 11.412 11.412 0 0 0-6.27 3.32 11.498 11.498 0 0 0-3.097 6.38 11.614 11.614 0 0 0 .06 3.661 11.412 11.412 0 0 0 3.32 6.27 11.422 11.422 0 0 0 6.38 3.094c1.222.17 2.437.143 3.646-.083a11.147 11.147 0 0 0 3.381-1.21 10.91 10.91 0 0 0 2.753-2.157c.79-.858 1.42-1.798 1.89-2.82.472-1.022.848-2.166 1.128-3.43.28-1.263.47-1.979.567-2.145a.87.87 0 0 1 .414-.365.871.871 0 0 1 .55-.052.871.871 0 0 1 .474.28l-.594 4.587Z" fill="currentColor" stroke="currentColor" stroke-width="2" stroke-linecap="round" stroke-linejoin="round"/><path d="M12.52 9.396a65483.991 65483.991 0 0 0 2 3.893l1.558 3.825c1.039 2.55 1.536 3.868 1.49 3.953a.436.436 0 0 1-.196.193.435.435 0 0 1-.273.04c-.095-.017.622-1.606 2.151-4.768 1.53-3.162 2.271-4.7 2.227-4.614a.435.435 0 0 1-.198.192.435.435 0 0 1-.272.04c-.096-.017-.301.035-.618.153-.317.12-1.115.41-2.395.874s-3.227 1.015-5.839 1.651c-2.611.637-3.957.928-4.037.873a.435.435 0 0 1-.169-.218.435.435 0 0 1-.008-.275c.027-.093.6-.053 1.72.119s3.622.564 7.505 1.178c3.884.613 5.847.963 5.89 1.05a.435.435 0 0 1 .038.272.434.434 0 0 1-.129.244c-.069.067-.26.096-.575.085-.314-.01-1.027-.023-2.138-.038s-1.996.02-2.655.104c-.659.084-1.294.213-1.907.386a10.03 10.03 0 0 0-1.812.716 14.19 14.19 0 0 0-1.763 1.07c-.579.41-1.39 1.098-2.435 2.065-1.045.966-1.687 1.472-1.927 1.517a.681.681 0 0 1-.625-.184.681.681 0 0 1-.218-.615.682.682 0 0 1 .368-.538.682.682 0 0 1 .652-.017.68.68 0 0 1 .398.516.681.681 0 0 1-.185.626.681.681 0 0 1-.614.218.681.681 0 0 1-.538-.368.681.681 0 0 1-.018-.652c.105-.22.713-.81 1.825-1.77s2.005-1.624 2.68-1.99a15.275 15.275 0 0 1 2.022-.918 19.538 19.538 0 0 1 2-.618c.66-.164 1.336-.29 2.03-.377.693-.086 1.615-.099 2.764-.037 1.15.063 1.887.107 2.211.133.325.026.508.083.55.17a.435.435 0 0 1 .04.272.434.434 0 0 1-.13.244c-.069.067-1.998-.203-5.788-.81a703.597 703.597 0 0 1-7.312-1.194c-1.085-.19-1.667-.311-1.747-.366a.435.435 0 0 1-.169-.218.435.435 0 0 1-.008-.275c.027-.093 1.311-.507 3.851-1.243 2.54-.737 4.375-1.353 5.505-1.85 1.129-.497 2.046-.708 2.753-.635.706.074 1.132.144 1.277.21.144.066.194.142.15.228a.435.435 0 0 1-.198.192.435.435 0 0 1-.272.04c-.096-.017-.681 1.444-1.757 4.382-1.076 2.938-1.636 4.45-1.681 4.535a.436.436 0 0 1-.197.193.435.435 0 0 1-.273.04c-.095-.017-.697-1.27-1.806-3.759-1.109-2.49-2.052-4.332-2.83-5.527a302.673 302.673 0 0 0-2.533-3.83c-.913-1.358-1.39-2.11-1.431-2.255a.684.684 0 0 1 .015-.433.684.684 0 0 1 .266-.341.684.684 0 0 1 .416-.12l3.323 4.361Z" fill="currentColor"/><path d="M17.569 21.067c.045-.085-.452-1.403-1.49-3.953L14.52 13.29l-1-1.947-1-1.946-3.324-4.36a.684.684 0 0 0-.416.119.684.684 0 0 0-.266.341.684.684 0 0 0-.015.433c.041.146.518.897 1.43 2.255a302.673 302.673 0 0 1 2.535 3.83c.777 1.195 1.72 3.038 2.829 5.527 1.109 2.49 1.71 3.742 1.806 3.758m.47-.232a.436.436 0 0 1-.197.193.435.435 0 0 1-.273.04m.47-.233c.045-.085.605-1.597 1.681-4.535s1.662-4.399 1.757-4.382a.435.435 0 0 0 .272-.04.435.435 0 0 0 .198-.192c.044-.086-.006-.162-.15-.228-.145-.066-.57-.136-1.277-.21-.707-.073-1.624.138-2.753.635-1.13.497-2.964 1.113-5.505 1.85-2.54.736-3.824 1.15-3.85 1.243m9.157 6.091c-.095-.016.622-1.605 2.151-4.767 1.53-3.162 2.271-4.7 2.227-4.614a.435.435 0 0 1-.198.192.435.435 0 0 1-.272.04c-.096-.017-.301.035-.618.153-.317.12-1.115.41-2.395.874s-3.227 1.015-5.839 1.651c-2.611.637-3.957.928-4.037.873m0 0a.435.435 0 0 1-.169-.218.435.435 0 0 1-.008-.275m.177.493c.08.055.662.176 1.747.366s3.522.587 7.312 1.194c3.79.607 5.719.877 5.788.81M8.118 15.7a.435.435 0 0 1-.169-.218.435.435 0 0 1-.008-.275m0 0c.027-.093.6-.053 1.72.119s3.622.564 7.505 1.178c3.884.613 5.847.963 5.89 1.05m0 0a.435.435 0 0 1 .038.272.434.434 0 0 1-.129.244m.09-.516c-.042-.087-.226-.144-.55-.17-.324-.026-1.061-.07-2.21-.133-1.15-.062-2.072-.05-2.765.037-.694.087-1.37.213-2.03.377-.66.165-1.326.37-2 .618-.675.247-1.349.553-2.023.919-.674.365-1.567 1.028-2.679 1.988-1.112.96-1.72 1.55-1.825 1.77a.681.681 0 0 0 .018.653.681.681 0 0 0 .538.368.681.681 0 0 0 .614-.218.681.681 0 0 0 .185-.626.682.682 0 0 0-.398-.517.682.682 0 0 0-.652.018.682.682 0 0 0-.368.538.681.681 0 0 0 .218.615.682.682 0 0 0 .625.184c.24-.045.882-.55 1.927-1.517 1.045-.967 1.856-1.656 2.435-2.066a14.19 14.19 0 0 1 1.763-1.07 10.03 10.03 0 0 1 1.813-.715 12.997 12.997 0 0 1 1.906-.386c.659-.084 1.544-.119 2.655-.104 1.111.015 1.824.028 2.138.038.314.01.506-.018.575-.085" stroke="currentColor" stroke-width="2" stroke-linecap="round" stroke-linejoin="round"/></svg>