<svg width="30" height="30" fill="none" xmlns="http://www.w3.org/2000/svg"><path d="M16.822 3.365a15865.24 15865.24 0 0 0 1.537 1.612l.913.987a85.346 85.346 0 0 0 1.82 1.907c.605.614 1.216 1.242 1.832 1.885a13.019 13.019 0 0 1 1.62 2.064 10.806 10.806 0 0 1 1.635 4.902 11.01 11.01 0 0 1-.825 5.147 11.104 11.104 0 0 1-3.106 4.214 11.163 11.163 0 0 1-4.698 2.338 11.19 11.19 0 0 1-2.63.282 11.197 11.197 0 0 1-5.095-1.284 11.227 11.227 0 0 1-3.957-3.462 11.221 11.221 0 0 1-2.024-7.53c.08-.885.263-1.749.549-2.591.285-.842.657-1.636 1.117-2.38a13.64 13.64 0 0 1 1.506-2.013A24.628 24.628 0 0 1 8.69 7.77a177.87 177.87 0 0 0 2.534-2.36c1.118-1.058 1.843-1.64 2.176-1.749a.977.977 0 0 1 .923.145.977.977 0 0 1 .426.832c0 .35-.14.628-.423.834a.977.977 0 0 1-.923.148.977.977 0 0 1-.663-.66.977.977 0 0 1 .145-.924.977.977 0 0 1 .833-.426c.35 0 .627.14.834.423.206.283.255.59.147.924-.107.333-.687 1.059-1.74 2.178a141.08 141.08 0 0 0-2.331 2.523c-.502.563-.976 1.093-1.423 1.591a12.512 12.512 0 0 0-1.21 1.583 8.63 8.63 0 0 0-.876 1.776 8.42 8.42 0 0 0-.427 3.916 8.431 8.431 0 0 0 4.317 6.332 8.424 8.424 0 0 0 3.804 1.037 8.465 8.465 0 0 0 3.865-.798 8.517 8.517 0 0 0 4.134-4.17 8.651 8.651 0 0 0 .791-3.908 8.866 8.866 0 0 0-.293-2.002 9.063 9.063 0 0 0-.75-1.914 11.6 11.6 0 0 0-1.27-1.888 25.065 25.065 0 0 0-1.686-1.87 64.21 64.21 0 0 0-1.89-1.821c-.658-.61-1.256-1.17-1.793-1.682-.537-.512-.958-.92-1.263-1.226-.305-.305-.514-.568-.627-.79a1.121 1.121 0 0 1-.111-.7 1.12 1.12 0 0 1 .322-.633 1.12 1.12 0 0 1 .632-.322l1.948 1.196Z" fill="currentColor" stroke="currentColor" stroke-width="2" stroke-linecap="round" stroke-linejoin="round"/></svg>