<svg width="30" height="30" fill="none" xmlns="http://www.w3.org/2000/svg"><path d="M17.652 23.8a12217.608 12217.608 0 0 0 2.503.092l2.584.067c1.723.044 2.716.133 2.979.267a.825.825 0 0 1 .463.638.825.825 0 0 1-.243.75.825.825 0 0 1-.75.244.824.824 0 0 1-.64-.463.825.825 0 0 1 0-.79.824.824 0 0 1 .64-.463.825.825 0 0 1 .75.244c.208.208.29.458.244.75a.825.825 0 0 1-.464.638c-.263.134-1.256.223-2.979.267-1.723.044-3.001.082-3.835.113-.834.03-1.494.046-1.98.046-.485 0-.845-.038-1.08-.115a1.113 1.113 0 0 1-.57-.414 1.113 1.113 0 0 1-.218-.671c0-.247.073-.47.218-.67l2.378-.53Z" fill="currentColor" stroke="currentColor" stroke-width="2" stroke-linecap="round" stroke-linejoin="round"/><path d="m19.993 3.377.499-.269.498-.269.572-.121c.381-.081.744-.11 1.09-.086.345.023.695.114 1.051.272.357.157.761.449 1.214.873.453.424.785.933.996 1.526.211.593.275 1.205.19 1.836a4.256 4.256 0 0 1-.647 1.756c-.346.54-.846 1.082-1.5 1.629a138.71 138.71 0 0 1-2.932 2.354 75.113 75.113 0 0 0-4.146 3.538 120.204 120.204 0 0 0-3.963 3.77c-1.178 1.178-2.137 2.098-2.877 2.76a11.087 11.087 0 0 1-2.283 1.6c-.783.406-1.719.763-2.81 1.072-1.09.31-1.71.402-1.859.278a.872.872 0 0 1-.295-.466.872.872 0 0 1 .036-.551 1.86 1.86 0 0 0 .127-.567c.013-.198.057-.68.132-1.446a9.446 9.446 0 0 1 .459-2.154c.23-.67.683-1.358 1.358-2.062.675-.704 1.648-1.597 2.92-2.677 1.271-1.08 3.12-2.803 5.548-5.166 2.428-2.362 3.71-3.566 3.845-3.61a.396.396 0 0 1 .374.06.397.397 0 0 1 .173.337.396.396 0 0 1-.172.338.396.396 0 0 1-.375.06.396.396 0 0 1-.268-.268.396.396 0 0 1 .059-.375.396.396 0 0 1 .338-.172c.142 0 .254.057.338.171a.4.4 0 0 1 .06.375c-.044.135-1.246 1.417-3.605 3.847-2.359 2.43-4.065 4.275-5.116 5.535a118.797 118.797 0 0 0-2.39 2.934 8.396 8.396 0 0 0-1.248 2.206c-.291.775-.65 1.523-1.075 2.246-.425.722-.698 1.168-.818 1.337-.121.17-.256.192-.405.068a.872.872 0 0 1-.295-.466.872.872 0 0 1 .036-.551c.071-.18.647-.396 1.727-.649a33.41 33.41 0 0 0 2.7-.731c.72-.235 1.438-.662 2.155-1.28.718-.62 1.666-1.518 2.844-2.696a120.102 120.102 0 0 0 3.77-3.963 74.767 74.767 0 0 0 3.535-4.145c1.022-1.3 1.826-2.31 2.413-3.03.588-.722.83-1.363.73-1.924-.102-.562-.316-.894-.645-.996-.328-.102-.572-.103-.734-.004-.16.1-.361.196-.6.288-.24.093-.484.106-.732.04a1.157 1.157 0 0 1-.615-.398c-.162-.2-.25-.428-.263-.684l.881-1.33Z" fill="currentColor"/><path d="M3.086 25.896c.15.124.769.031 1.86-.278 1.09-.31 2.026-.666 2.809-1.071a11.087 11.087 0 0 0 2.283-1.6 75.45 75.45 0 0 0 2.877-2.76 119.33 119.33 0 0 1 3.963-3.771 75.113 75.113 0 0 1 4.146-3.538c1.3-1.023 2.278-1.808 2.932-2.354.654-.547 1.154-1.09 1.5-1.63a4.238 4.238 0 0 0 .647-1.755 3.869 3.869 0 0 0-.19-1.836 3.811 3.811 0 0 0-.996-1.526c-.453-.424-.857-.716-1.214-.873a3.106 3.106 0 0 0-1.051-.272 3.954 3.954 0 0 0-1.09.086l-.572.121-.498.269-.499.269-.881 1.33c.013.256.101.484.263.684.162.199.367.332.615.398s.492.053.731-.04c.24-.092.44-.188.601-.288.162-.1.406-.098.735.004.328.102.542.434.644.996.1.561-.142 1.202-.73 1.923a241.64 241.64 0 0 0-2.413 3.031 74.767 74.767 0 0 1-3.535 4.146 120.102 120.102 0 0 1-3.77 3.962c-1.178 1.178-2.126 2.076-2.844 2.695-.717.619-1.436 1.046-2.155 1.28a33.41 33.41 0 0 1-2.7.732c-1.08.253-1.656.469-1.727.649a.872.872 0 0 0-.036.55m.295.467a.872.872 0 0 1-.295-.466m.295.466c.15.124.284.101.405-.068.12-.17.393-.615.818-1.337.425-.723.784-1.471 1.075-2.246a8.396 8.396 0 0 1 1.248-2.206c.541-.695 1.338-1.673 2.39-2.934 1.051-1.26 2.757-3.106 5.116-5.535 2.36-2.43 3.56-3.712 3.604-3.847a.396.396 0 0 0-.06-.375.396.396 0 0 0-.337-.171.396.396 0 0 0-.338.172.396.396 0 0 0-.059.375.396.396 0 0 0 .268.268.4.4 0 0 0 .375-.06.396.396 0 0 0 .172-.338.397.397 0 0 0-.173-.338.396.396 0 0 0-.374-.059c-.135.044-1.417 1.248-3.845 3.61-2.427 2.364-4.277 4.085-5.548 5.166-1.272 1.08-2.245 1.973-2.92 2.677-.675.704-1.128 1.391-1.358 2.062a9.446 9.446 0 0 0-.459 2.154 66.28 66.28 0 0 0-.132 1.446 1.86 1.86 0 0 1-.127.567.872.872 0 0 0-.036.55" stroke="currentColor" stroke-width="2" stroke-linecap="round" stroke-linejoin="round"/></svg>