<svg width="30" height="30" fill="none" xmlns="http://www.w3.org/2000/svg"><g clip-path="url(#a)"><path d="m20.384 2.88.44-.31.44-.308.523-.208a4.667 4.667 0 0 1 1.087-.286 4.165 4.165 0 0 1 1.222.026c.439.07.943.246 1.514.53.57.284 1.066.67 1.487 1.159.42.488.732 1.041.933 1.66.201.619.275 1.254.221 1.908a4.715 4.715 0 0 1-.61 1.928c-.353.632-.948 1.321-1.786 2.067-.837.746-1.958 1.672-3.362 2.78a71.689 71.689 0 0 0-4.453 3.847 168.567 168.567 0 0 0-4.257 4.097c-1.272 1.272-2.325 2.27-3.16 2.993a12.356 12.356 0 0 1-2.551 1.736c-.868.434-2.083.892-3.648 1.373-1.564.481-2.421.662-2.571.542a.866.866 0 0 1-.303-.457.866.866 0 0 1 .025-.547c.067-.18.12-.413.159-.698.038-.285.143-.972.314-2.061.172-1.09.408-2.065.71-2.928.3-.863.815-1.672 1.543-2.427.728-.755 1.777-1.721 3.147-2.898 1.37-1.176 3.357-3.051 5.96-5.623 2.603-2.573 3.972-3.881 4.107-3.925a.396.396 0 0 1 .374.059.396.396 0 0 1 .173.337.396.396 0 0 1-.172.338.396.396 0 0 1-.375.06.396.396 0 0 1-.268-.268.396.396 0 0 1 .059-.374.396.396 0 0 1 .337-.173c.142 0 .255.057.339.172a.4.4 0 0 1 .06.374c-.044.135-1.35 1.506-3.918 4.111-2.567 2.606-4.567 4.734-5.998 6.383-1.431 1.65-2.423 3.014-2.975 4.094-.553 1.08-.929 1.959-1.129 2.638-.2.679-.51 1.409-.933 2.191a50.202 50.202 0 0 1-.822 1.487c-.126.21-.264.255-.414.135a.866.866 0 0 1-.303-.457.866.866 0 0 1 .025-.547c.067-.18.885-.467 2.454-.86 1.569-.395 2.753-.74 3.553-1.036.8-.297 1.605-.788 2.415-1.472.81-.685 1.852-1.664 3.124-2.936a168.242 168.242 0 0 0 4.096-4.256 71.318 71.318 0 0 0 3.845-4.452 266.478 266.478 0 0 1 2.554-3.206c.598-.733.995-1.403 1.19-2.009.196-.605.138-1.152-.174-1.638-.311-.487-.652-.796-1.02-.928a1.74 1.74 0 0 0-1.06-.061c-.34.091-.572.183-.7.274-.128.091-.308.19-.538.294-.23.105-.47.132-.718.081a1.14 1.14 0 0 1-.628-.356 1.14 1.14 0 0 1-.3-.658l.716-1.312Z" fill="currentColor"/><path d="M1.55 27.957a.866.866 0 0 0 .303.457c.15.12 1.007-.06 2.571-.542 1.565-.482 2.78-.94 3.648-1.373a12.356 12.356 0 0 0 2.552-1.736c.834-.723 1.887-1.721 3.16-2.994a168.567 168.567 0 0 1 4.256-4.096 71.689 71.689 0 0 1 4.453-3.848c1.404-1.107 2.525-2.033 3.362-2.779.837-.746 1.433-1.435 1.786-2.067a4.715 4.715 0 0 0 .61-1.928 4.833 4.833 0 0 0-.221-1.908 4.785 4.785 0 0 0-.933-1.66 4.724 4.724 0 0 0-1.487-1.159c-.57-.284-1.075-.46-1.514-.53a4.165 4.165 0 0 0-1.222-.026 4.667 4.667 0 0 0-1.087.286l-.524.208-.44.308-.439.31-.716 1.311c.029.252.129.471.3.658.17.187.38.306.628.356.248.051.488.024.718-.08.23-.106.41-.204.538-.295.128-.091.36-.183.7-.274a1.74 1.74 0 0 1 1.06.061c.369.132.709.441 1.02.928.312.486.37 1.033.175 1.638-.196.606-.593 1.276-1.19 2.01-.599.733-1.45 1.802-2.555 3.205a71.318 71.318 0 0 1-3.845 4.452 168.242 168.242 0 0 1-4.096 4.256c-1.272 1.272-2.314 2.25-3.124 2.936-.81.684-1.615 1.175-2.415 1.472-.8.296-1.984.642-3.553 1.035-1.569.394-2.387.68-2.454.86m-.025.548a.866.866 0 0 1 .025-.547m-.025.547a.866.866 0 0 0 .303.457c.15.12.288.075.414-.135.126-.21.4-.705.822-1.487.422-.782.733-1.512.933-2.191.2-.68.576-1.558 1.129-2.638.552-1.08 1.544-2.445 2.975-4.094 1.431-1.65 3.43-3.777 5.998-6.383 2.568-2.605 3.874-3.976 3.917-4.11a.397.397 0 0 0-.06-.375.396.396 0 0 0-.338-.172.396.396 0 0 0-.337.173.396.396 0 0 0-.06.374.396.396 0 0 0 .27.268c.134.044.26.024.374-.06a.396.396 0 0 0 .172-.338.396.396 0 0 0-.173-.337.396.396 0 0 0-.374-.06c-.135.045-1.504 1.353-4.107 3.925-2.603 2.573-4.59 4.448-5.96 5.624-1.37 1.177-2.419 2.143-3.147 2.898-.728.755-1.243 1.564-1.544 2.427a16.938 16.938 0 0 0-.709 2.928 133.405 133.405 0 0 0-.314 2.06 3.288 3.288 0 0 1-.16.699" stroke="currentColor" stroke-width="2" stroke-linecap="round" stroke-linejoin="round"/></g><defs><clipPath id="a"><path fill="#fff" d="M0 0h30v30H0z"/></clipPath></defs></svg>