<svg width="30" height="30" fill="none" xmlns="http://www.w3.org/2000/svg"><g clip-path="url(#a)"><path d="m12.708 6.334-.973-.01-.974-.01-1.175-.032c-.783-.02-1.54-.026-2.269-.017-.729.01-1.38.145-1.956.407-.575.261-.966.86-1.174 1.794-.207.936-.383 2.054-.526 3.355a122.034 122.034 0 0 0-.388 4.305 63.268 63.268 0 0 0-.183 4.332c-.006 1.32.027 2.363.1 3.131.072.768.295 1.39.67 1.87.375.478 1.048.78 2.019.908.97.127 2.107.243 3.41.35 1.301.106 2.736.205 4.305.298 1.568.092 3.012.136 4.332.13 1.32-.005 2.363-.042 3.132-.11.768-.067 1.392-.262 1.872-.584.48-.321.773-.91.878-1.765.105-.855.163-2.18.174-3.972.011-1.793.092-2.837.242-3.131a.923.923 0 0 1 .714-.519.923.923 0 0 1 .84.273.923.923 0 0 1 .272.84.923.923 0 0 1-.519.714.923.923 0 0 1-.883 0 .923.923 0 0 1-.519-.715.922.922 0 0 1 .273-.84.922.922 0 0 1 .84-.272.923.923 0 0 1 .714.52c.15.294.23 1.342.238 3.144.01 1.802-.07 3.182-.235 4.14-.166.957-.49 1.69-.973 2.199a2.97 2.97 0 0 1-1.714.924 12.19 12.19 0 0 1-2.178.139c-.793-.015-1.849-.025-3.168-.031a69.471 69.471 0 0 0-4.333.13c-1.569.092-3.006.19-4.313.294-1.307.105-2.5.086-3.582-.057-1.082-.143-1.907-.456-2.476-.94-.569-.483-.908-1.055-1.018-1.717-.11-.662-.154-1.39-.134-2.182.02-.793.026-1.85.02-3.169a63.476 63.476 0 0 0-.182-4.333 127.534 127.534 0 0 0-.385-4.313c-.141-1.308-.214-2.391-.218-3.251-.004-.86.162-1.63.498-2.308A3.518 3.518 0 0 1 3.3 4.692c.663-.363 1.324-.57 1.981-.619a28.12 28.12 0 0 1 2.058-.077 92.608 92.608 0 0 0 2.246-.034 135.38 135.38 0 0 1 3.688-.052c.377 0 .685.039.922.116.238.077.43.217.576.419.147.202.22.428.22.677 0 .25-.073.476-.22.678l-2.064.534Z" fill="currentColor" stroke="currentColor" stroke-width="2" stroke-linecap="round" stroke-linejoin="round"/><path d="m22.584 2.048.499-.27.499-.268.592-.116c.396-.077.796-.09 1.203-.04.406.05.812.185 1.218.404.406.218.807.565 1.203 1.04.395.476.661 1.018.797 1.628.136.61.096 1.246-.12 1.911-.215.665-.663 1.368-1.343 2.109-.68.741-1.516 1.504-2.507 2.29-.99.784-2.063 1.664-3.218 2.64a64.023 64.023 0 0 0-3.1 2.78l-2.226 2.145a8.251 8.251 0 0 1-1.987 1.4c-.753.385-1.69.718-2.811 1-1.122.282-1.767.353-1.937.212a.994.994 0 0 1-.336-.532.994.994 0 0 1 .042-.628c.081-.205.13-.404.143-.597.014-.193.06-.664.138-1.414.079-.75.224-1.449.435-2.096.211-.646.58-1.263 1.107-1.85.527-.585 1.278-1.292 2.254-2.119.976-.827 2.408-2.117 4.298-3.871 1.89-1.754 2.912-2.656 3.067-2.707.156-.05.3-.028.433.068a.457.457 0 0 1 .199.39.458.458 0 0 1-.198.39.457.457 0 0 1-.433.069.457.457 0 0 1-.31-.31.457.457 0 0 1 .069-.432.457.457 0 0 1 .39-.199.46.46 0 0 1 .39.198.461.461 0 0 1 .069.433c-.05.155-.95 1.178-2.7 3.069a232.766 232.766 0 0 0-4.09 4.51c-.976 1.116-1.653 2.048-2.03 2.796a14.63 14.63 0 0 0-.875 2.076 6.416 6.416 0 0 1-.89 1.77c-.389.542-.639.878-.75 1.006-.112.127-.252.12-.422-.02a.994.994 0 0 1-.336-.532.994.994 0 0 1 .042-.628c.081-.205.944-.526 2.587-.961 1.643-.436 2.819-.884 3.526-1.343.707-.46 1.5-1.145 2.379-2.057a63.826 63.826 0 0 0 2.78-3.1 269.363 269.363 0 0 0 3.068-3.705c1.07-1.315 1.641-2.356 1.71-3.122.07-.765-.067-1.203-.41-1.312-.345-.11-.599-.115-.764-.016a4.085 4.085 0 0 1-.608.29c-.24.093-.486.108-.736.042a1.165 1.165 0 0 1-.621-.398 1.165 1.165 0 0 1-.269-.687l.89-1.336Z" fill="currentColor"/><path d="M9.01 20.38a.994.994 0 0 0 .336.533c.17.14.815.07 1.937-.212 1.121-.282 2.058-.615 2.81-1a8.251 8.251 0 0 0 1.988-1.4l2.227-2.144a64.023 64.023 0 0 1 3.1-2.781 133.304 133.304 0 0 1 3.217-2.64c.991-.786 1.827-1.549 2.507-2.29.68-.741 1.128-1.444 1.343-2.109.216-.665.256-1.302.12-1.911a3.795 3.795 0 0 0-.797-1.627c-.396-.476-.797-.823-1.203-1.041a3.46 3.46 0 0 0-1.218-.403 3.803 3.803 0 0 0-1.203.04l-.592.115-.499.269-.499.269-.89 1.336c.015.258.105.487.269.687.164.2.37.333.62.398.251.066.497.051.737-.043.241-.094.444-.19.608-.29.165-.098.42-.093.763.017.344.11.481.547.412 1.312-.07.766-.64 1.807-1.711 3.122a269.833 269.833 0 0 1-3.069 3.706 63.826 63.826 0 0 1-2.779 3.1c-.879.911-1.672 1.597-2.379 2.056-.707.46-1.883.907-3.526 1.343-1.643.435-2.506.756-2.587.96a.994.994 0 0 0-.042.629Zm0 0a.994.994 0 0 1 .042-.627c.081-.205.13-.404.143-.597.014-.193.06-.664.138-1.414.079-.75.224-1.449.435-2.096.211-.646.58-1.263 1.107-1.85.527-.585 1.278-1.292 2.254-2.119.976-.827 2.408-2.117 4.298-3.871 1.89-1.754 2.912-2.656 3.067-2.707.156-.05.3-.028.433.068a.457.457 0 0 1 .199.39.458.458 0 0 1-.198.39.457.457 0 0 1-.433.069.457.457 0 0 1-.31-.31.457.457 0 0 1 .069-.432.457.457 0 0 1 .39-.199.46.46 0 0 1 .39.198.461.461 0 0 1 .069.433c-.05.155-.95 1.178-2.7 3.069a232.766 232.766 0 0 0-4.09 4.51c-.976 1.116-1.653 2.048-2.03 2.796a14.63 14.63 0 0 0-.875 2.076 6.416 6.416 0 0 1-.89 1.77c-.389.542-.639.878-.75 1.006-.112.127-.252.12-.422-.02a.994.994 0 0 1-.336-.532Z" stroke="currentColor" stroke-width="2" stroke-linecap="round" stroke-linejoin="round"/></g><defs><clipPath id="a"><path fill="#fff" d="M0 0h30v30H0z"/></clipPath></defs></svg>