<svg width="30" height="30" fill="none" xmlns="http://www.w3.org/2000/svg"><path d="m23.674 17.2.003.835.003.834-.014 1.007c-.01.672-.015 1.34-.02 2.007a16.01 16.01 0 0 1-.157 2.11 4.094 4.094 0 0 1-.862 2.013c-.473.6-1.159 1.014-2.056 1.24-.898.228-2.029.3-3.394.216a183.149 183.149 0 0 1-3.897-.28 55.527 55.527 0 0 0-3.405-.185 51.83 51.83 0 0 0-2.532-.003 8.026 8.026 0 0 1-1.936-.178c-.64-.137-1.21-.494-1.707-1.069-.498-.575-.822-1.345-.973-2.31a13.546 13.546 0 0 1-.125-2.993c.068-1.03.145-2.16.23-3.394a61.74 61.74 0 0 0 .14-5.936 7.968 7.968 0 0 1 .17-1.933c.135-.638.469-1.206 1-1.702.53-.496 1.248-.826 2.152-.99.905-.163 2.13-.242 3.678-.234 1.548.007 2.485.094 2.813.26.327.167.52.432.578.795.057.363-.044.675-.304.935s-.57.361-.934.304a1.027 1.027 0 0 1-.795-.577 1.027 1.027 0 0 1 0-.983c.166-.327.431-.52.794-.578.363-.057.675.044.935.304s.361.57.304.934c-.058.363-.25.628-.577.795-.328.167-1.067.256-2.216.267-1.15.01-2.178.03-3.083.058-.906.028-1.592.27-2.058.727a2.896 2.896 0 0 0-.856 1.64c-.104.635-.15 1.472-.135 2.509.015 1.037.065 2.171.151 3.404.087 1.233.178 2.593.274 4.08.096 1.488.379 2.537.848 3.147.468.61 1.02.966 1.656 1.067.635.102 1.471.142 2.508.12a55.278 55.278 0 0 0 3.404-.187c1.233-.102 2.36-.2 3.383-.291a29.405 29.405 0 0 0 2.672-.348c.76-.14 1.261-.48 1.505-1.017a4.612 4.612 0 0 0 .398-1.772c.02-.643.027-1.3.018-1.972a99.653 99.653 0 0 1-.011-1.841l.002-1.32c0-.323.039-.604.116-.842.077-.238.217-.43.42-.577.202-.147.428-.22.678-.22.25 0 .477.073.679.22l.535 1.904ZM19.682 3.307l.834-.003.834-.002 1.008.013c.671.01 1.349.068 2.033.177.684.11 1.344.407 1.98.892.635.485.974 1.062 1.016 1.73.042.668.06 1.582.055 2.742-.005 1.16-.09 1.905-.256 2.236a1.035 1.035 0 0 1-.797.589 1.035 1.035 0 0 1-.944-.298 1.035 1.035 0 0 1-.314-.94c.055-.366.247-.635.576-.806.329-.17.659-.174.99-.008.332.166.528.431.59.797.06.365-.04.68-.3.944-.26.264-.572.369-.939.314a1.035 1.035 0 0 1-.806-.576c-.17-.329-.28-1.186-.328-2.572-.048-1.386-.318-2.203-.81-2.451-.493-.248-1.075-.367-1.746-.358-.672.009-1.286.012-1.842.01l-1.32-.002c-.323 0-.604-.039-.841-.116a1.127 1.127 0 0 1-.578-.42 1.127 1.127 0 0 1-.22-.678c0-.25.073-.476.22-.679l1.905-.535Z" fill="currentColor" stroke="currentColor" stroke-width="2" stroke-linecap="round" stroke-linejoin="round"/><path d="m15.107 13.336 1.666-1.392 1.667-1.392 3.243-3.074c2.162-2.049 3.31-3.095 3.445-3.14a.396.396 0 0 1 .375.06.396.396 0 0 1 .172.338.396.396 0 0 1-.172.338.396.396 0 0 1-.375.06.397.397 0 0 1-.268-.269.396.396 0 0 1 .06-.374.396.396 0 0 1 .337-.172c.142 0 .255.057.338.172.083.114.103.24.06.374-.045.135-1.091 1.284-3.14 3.445-2.05 2.162-3.538 3.799-4.466 4.91-.928 1.111-1.689 1.963-2.282 2.556s-.99.94-1.19 1.043a1.018 1.018 0 0 1-.637.101 1.018 1.018 0 0 1-.574-.292 1.017 1.017 0 0 1-.293-.575l2.034-2.717Z" fill="currentColor" stroke="currentColor" stroke-width="2" stroke-linecap="round" stroke-linejoin="round"/></svg>