<svg width="30" height="30" fill="none" xmlns="http://www.w3.org/2000/svg"><path d="M21.84 24.243s-.312.143-.939.427l-.94.427-1.976.283c-1.319.189-2.897.064-4.735-.375-1.838-.439-3.382-1.073-4.634-1.903a23.924 23.924 0 0 1-3.325-2.63c-.965-.924-1.766-1.772-2.402-2.545-.636-.772-1.084-1.442-1.344-2.007-.26-.566-.305-1.18-.137-1.84.168-.66.426-1.287.773-1.881.348-.594.73-1.16 1.148-1.698.418-.539 1.03-1.111 1.838-1.717.808-.606 1.975-1.285 3.502-2.038 1.526-.753 2.584-1.276 3.172-1.568.59-.292 1.334-.495 2.235-.608.901-.112 2.074.04 3.519.46a14.935 14.935 0 0 1 4.018 1.835A23.248 23.248 0 0 1 24.91 9.44c.965.913 1.767 1.81 2.404 2.688.638.879 1.073 1.758 1.305 2.636.233.88-.106 1.6-1.015 2.162-.91.561-2.498.918-4.766 1.069-2.268.15-3.77.308-4.504.47-.735.161-1.407.378-2.015.65a4.344 4.344 0 0 1-1.965.366c-.702-.028-1.332-.194-1.888-.5a4.544 4.544 0 0 1-1.43-1.234 4.605 4.605 0 0 1-.827-1.75c-.156-.648-.113-1.406.13-2.273.242-.866.486-1.487.733-1.861a1.252 1.252 0 0 1 1.042-.593c.448-.02.812.145 1.092.495s.36.742.24 1.174a1.252 1.252 0 0 1-.807.885 1.25 1.25 0 0 1-1.191-.133 1.253 1.253 0 0 1-.592-1.042 1.25 1.25 0 0 1 .495-1.091c.35-.28.741-.36 1.173-.242.433.12.728.389.886.808.158.42.112 1.18-.136 2.281-.249 1.1-.18 1.882.208 2.343a2.51 2.51 0 0 0 1.47.87 4.595 4.595 0 0 0 1.809-.002c.613-.12 1.236-.215 1.87-.282.634-.067 1.835-.114 3.603-.142 1.77-.028 3.065-.267 3.887-.717.823-.45 1.224-.997 1.204-1.64-.02-.642-.298-1.36-.832-2.153-.534-.793-1.255-1.628-2.163-2.505a15.873 15.873 0 0 0-3.128-2.334c-1.178-.678-2.553-1.168-4.125-1.47-1.572-.302-2.873-.368-3.902-.197-1.03.17-2.383.869-4.06 2.096-1.678 1.228-3.034 2.38-4.069 3.46-1.034 1.078-1.632 2.041-1.792 2.888-.16.846.009 1.687.509 2.523.5.836 1.208 1.686 2.124 2.552a14.91 14.91 0 0 0 3.169 2.269c1.195.646 2.59 1.055 4.182 1.226 1.592.17 2.942.158 4.048-.04 1.107-.198 1.926-.409 2.46-.632a9.884 9.884 0 0 0 1.465-.755c.444-.28.787-.452 1.03-.513s.48-.045.713.048c.233.093.416.246.55.458.132.212.19.443.174.693l-1.838 1.793Z" fill="currentColor" stroke="currentColor" stroke-width="2" stroke-linecap="round" stroke-linejoin="round"/><path d="M8.216 6.988a875527.963 875527.963 0 0 0 5.838 6.398l6.317 6.316c4.21 4.211 6.338 6.384 6.382 6.52a.396.396 0 0 1-.06.374.396.396 0 0 1-.337.172.396.396 0 0 1-.338-.172.396.396 0 0 1-.06-.375.396.396 0 0 1 .269-.268.396.396 0 0 1 .374.06.396.396 0 0 1 .172.337.396.396 0 0 1-.172.338.397.397 0 0 1-.374.06c-.135-.044-2.308-2.172-6.52-6.383-4.21-4.21-7.382-7.29-9.514-9.235C8.06 9.184 6.4 7.618 5.215 6.432c-1.186-1.186-1.82-1.858-1.9-2.017a.802.802 0 0 1-.08-.502.802.802 0 0 1 .23-.452.802.802 0 0 1 .454-.231l4.297 3.758Z" fill="currentColor" stroke="currentColor" stroke-width="2" stroke-linecap="round" stroke-linejoin="round"/></svg>