<svg width="30" height="30" fill="none" xmlns="http://www.w3.org/2000/svg"><g clip-path="url(#a)" fill="currentColor" stroke="currentColor" stroke-width="2" stroke-linecap="round" stroke-linejoin="round"><path d="m1.706 13.1.925-1.116.925-1.115 1.516-1.296c1.01-.864 2.182-1.66 3.515-2.386a15.589 15.589 0 0 1 4.353-1.575 12.6 12.6 0 0 1 4.712-.078A13.58 13.58 0 0 1 21.99 7.04c1.32.734 2.47 1.556 3.454 2.467.982.91 1.787 1.753 2.415 2.526.627.773 1.024 1.51 1.19 2.21.166.701-.036 1.657-.607 2.867a10.232 10.232 0 0 1-2.31 3.164c-.967.898-2.105 1.721-3.414 2.469a14.984 14.984 0 0 1-4.3 1.627c-1.56.336-3.125.37-4.698.1a13.577 13.577 0 0 1-4.338-1.507c-1.32-.734-2.728-1.871-4.225-3.412-1.497-1.54-2.272-2.376-2.326-2.507a.396.396 0 0 1 .033-.378.396.396 0 0 1 .325-.195.4.4 0 0 1 .35.148c.09.108.12.232.085.37a.396.396 0 0 1-.249.286.396.396 0 0 1-.378-.034.396.396 0 0 1-.195-.325.396.396 0 0 1 .148-.349.396.396 0 0 1 .37-.085c.137.034.93.805 2.378 2.313 1.447 1.507 2.784 2.611 4.009 3.312a12.708 12.708 0 0 0 4.023 1.458c1.456.27 2.913.255 4.37-.046 1.458-.301 2.776-.833 3.953-1.596 1.177-.763 2.184-1.596 3.019-2.5.835-.905 1.509-1.705 2.023-2.4.514-.695.775-1.383.783-2.064.009-.68-.256-1.42-.796-2.215-.539-.795-1.27-1.627-2.194-2.495a17.014 17.014 0 0 0-3.223-2.354 12.71 12.71 0 0 0-4.023-1.457 10.93 10.93 0 0 0-4.357.066c-1.448.314-2.75.862-3.905 1.642-1.154.781-2.132 1.635-2.932 2.561-.8.927-1.449 1.76-1.947 2.5-.497.74-.878 1.325-1.143 1.757-.265.431-.49.728-.674.89-.185.162-.4.254-.644.276a1.107 1.107 0 0 1-.683-.154 1.107 1.107 0 0 1-.462-.527l.811-2.35Z"/><path d="m19.653 16.418-.295.637-.296.637-.674.612c-.45.408-1.143.76-2.082 1.058a4.49 4.49 0 0 1-2.826-.02 4.43 4.43 0 0 1-2.281-1.678 4.532 4.532 0 0 1-.852-2.73 4.504 4.504 0 0 1 .904-2.72 4.526 4.526 0 0 1 2.336-1.656c.962-.302 2.079-.11 3.351.577 1.272.687 2.052 1.192 2.34 1.515.288.324.386.698.293 1.12a1.21 1.21 0 0 1-.735.896 1.21 1.21 0 0 1-1.155-.068 1.21 1.21 0 0 1-.625-.975 1.21 1.21 0 0 1 .422-1.078 1.21 1.21 0 0 1 1.12-.293c.423.093.722.337.895.734a1.21 1.21 0 0 1-.067 1.156 1.21 1.21 0 0 1-.976.625c-.43.042-1.03-.239-1.798-.844-.768-.606-1.475-.838-2.12-.698s-1.083.51-1.315 1.114a1.826 1.826 0 0 0 .17 1.72c.345.543.852.835 1.52.873.67.039 1.21-.108 1.623-.441.413-.334.673-.701.78-1.102.107-.402.222-.719.343-.95.122-.232.3-.406.534-.522a1.18 1.18 0 0 1 .738-.108c.258.044.479.16.661.347l.067 2.262Z"/></g><defs><clipPath id="a"><path fill="#fff" d="M0 0h30v30H0z"/></clipPath></defs></svg>