<svg width="30" height="30" fill="none" xmlns="http://www.w3.org/2000/svg"><path d="m21.72 3.846-.793.032-.792.032-.616.048c-.41.032-.953.133-1.63.303a5.148 5.148 0 0 0-1.893.927 4.743 4.743 0 0 0-1.361 1.62 5.506 5.506 0 0 0-.584 2.002c-.067.705-.15 1.486-.249 2.342-.099.857-.396 1.55-.894 2.077a4.837 4.837 0 0 1-1.658 1.173c-.608.254-.796.72-.566 1.394.231.675.777 1.208 1.64 1.6.861.39 1.325 1.111 1.391 2.162.066 1.05.07 2.025.013 2.925-.057.9.026 1.694.248 2.381.222.688.69 1.139 1.403 1.355.714.215 1.03.321.952.317-.078-.004-.117-.412-.117-1.225 0-.813.023-1.664.07-2.553.047-.89.108-1.76.182-2.613a5.944 5.944 0 0 1 .668-2.32c.372-.695.908-1.183 1.608-1.466.7-.282 1.228-.693 1.583-1.23.354-.539.577-.893.667-1.062.09-.169-.214-.23-.915-.182a5.416 5.416 0 0 1-2.143-.305c-.729-.25-1.23-.72-1.503-1.41a5.148 5.148 0 0 1-.378-2.068c.02-.69.143-1.353.368-1.99.224-.635.662-1.12 1.313-1.455.651-.335 1.348-.94 2.091-1.816.743-.876 1.226-1.516 1.448-1.92a1.287 1.287 0 0 1 1.019-.69c.457-.058.843.082 1.158.418.315.336.43.73.343 1.182a1.287 1.287 0 0 1-.756.973 1.287 1.287 0 0 1-1.23-.04 1.287 1.287 0 0 1-.692-1.02 1.287 1.287 0 0 1 .418-1.157c.336-.315.73-.43 1.183-.343.452.087.776.339.972.756.196.417.284 1.191.265 2.323-.02 1.131-.301 1.997-.845 2.597-.545.6-1.258.944-2.14 1.034-.884.09-1.509.402-1.876.935-.367.534-.237.893.392 1.076.63.183 1.317.37 2.063.559.746.189 1.209.713 1.387 1.572.178.86.168 1.762-.03 2.708-.198.946-.568 1.657-1.108 2.133a5.581 5.581 0 0 1-1.797 1.072c-.658.238-1.062.701-1.212 1.39-.15.688-.205 1.483-.164 2.384.042.902.006 1.883-.107 2.943-.112 1.06-.564 1.82-1.355 2.28-.79.46-1.69.669-2.698.625-1.008-.044-1.743-.423-2.207-1.137a5.353 5.353 0 0 1-.838-2.362 64.33 64.33 0 0 1-.235-2.628 54.859 54.859 0 0 1-.12-2.57c-.018-.823-.059-1.205-.122-1.144-.063.06-.415.103-1.056.126-.64.023-1.2-.25-1.675-.822-.476-.572-.763-1.285-.862-2.14a7.19 7.19 0 0 1 .116-2.442c.176-.772.677-1.355 1.503-1.749.827-.393 1.377-.95 1.652-1.668.275-.719.484-1.478.627-2.278.143-.8.391-1.552.746-2.256a7.388 7.388 0 0 1 1.369-1.898 7.403 7.403 0 0 1 1.875-1.374 7.357 7.357 0 0 1 2.285-.721c.832-.125 1.475-.192 1.93-.2.456-.01.948-.003 1.476.018.529.022.916.032 1.164.032.247 0 .49.039.727.116.238.078.43.217.577.42.147.202.22.428.22.678 0 .25-.073.476-.22.679l-1.675.535Z" fill="currentColor" stroke="currentColor" stroke-width="2" stroke-linecap="round" stroke-linejoin="round"/></svg>