<svg width="30" height="30" fill="none" xmlns="http://www.w3.org/2000/svg"><path d="m17.977 21.264 1.315-.892 1.315-.892 1.591-1.072a225.08 225.08 0 0 0 2.856-1.952c.843-.587 1.324-1.055 1.443-1.405.118-.35-.267-.927-1.157-1.732a157.82 157.82 0 0 0-2.775-2.45c-.96-.828-2.114-1.775-3.462-2.84-1.349-1.065-2.02-1.671-2.015-1.82a.667.667 0 0 1 .145-.396.668.668 0 0 1 .35-.237c.143-.04.224.023.244.19.02.168.054.64.103 1.418.05.777.05 1.776.002 2.997a322.636 322.636 0 0 0-.145 5.836c-.05 2.669-.107 4.067-.172 4.193a.396.396 0 0 1-.308.221.396.396 0 0 1-.36-.119.396.396 0 0 1-.116-.361.397.397 0 0 1 .225-.306.396.396 0 0 1 .379.002c.126.065.2.168.221.308a.397.397 0 0 1-.119.36c-.1.1-.221.138-.361.115a.396.396 0 0 1-.306-.224c-.064-.127-.112-1.529-.145-4.206-.033-2.677 0-4.76.098-6.247.098-1.488.166-2.413.202-2.776.037-.363.058-.62.063-.767a.667.667 0 0 1 .145-.397.668.668 0 0 1 .35-.237c.143-.04.895.464 2.257 1.514a137.78 137.78 0 0 0 3.605 2.7 20.617 20.617 0 0 1 3.008 2.67c.965 1.03 1.332 1.92 1.104 2.667-.23.748-.77 1.488-1.624 2.22-.853.733-1.757 1.525-2.71 2.378-.954.852-1.827 1.63-2.62 2.333a40.814 40.814 0 0 1-1.915 1.621c-.485.377-.841.607-1.068.69a1.094 1.094 0 0 1-.688.022 1.088 1.088 0 0 1-.57-.387 1.088 1.088 0 0 1-.234-.647l1.85-2.093Zm-13.75 0 1.315-.892 1.315-.892 1.592-1.072c1.06-.714 2.012-1.365 2.855-1.952s1.324-1.055 1.442-1.405c.12-.35-.266-.927-1.156-1.732-.89-.805-1.815-1.621-2.775-2.45-.96-.828-2.114-1.775-3.462-2.84-1.349-1.065-2.02-1.671-2.015-1.82a.668.668 0 0 1 .145-.396.668.668 0 0 1 .35-.237c.142-.04.224.023.244.19.02.168.054.64.103 1.418.05.777.05 1.776.002 2.997a322.636 322.636 0 0 0-.145 5.836c-.05 2.669-.107 4.067-.173 4.193a.396.396 0 0 1-.308.221.396.396 0 0 1-.36-.119.396.396 0 0 1-.115-.361.396.396 0 0 1 .225-.306.396.396 0 0 1 .379.002c.126.065.2.168.221.308a.396.396 0 0 1-.119.36c-.1.1-.221.138-.361.115a.396.396 0 0 1-.306-.224c-.064-.127-.112-1.529-.145-4.206-.033-2.677 0-4.76.098-6.247.098-1.488.166-2.413.202-2.776.037-.363.058-.62.063-.767a.668.668 0 0 1 .145-.397.668.668 0 0 1 .35-.237c.142-.04.895.464 2.257 1.514s2.564 1.95 3.605 2.7a20.617 20.617 0 0 1 3.008 2.67c.965 1.03 1.333 1.92 1.104 2.667-.23.748-.77 1.488-1.624 2.22a179.75 179.75 0 0 0-2.71 2.378c-.954.852-1.827 1.63-2.62 2.333a40.74 40.74 0 0 1-1.915 1.621c-.485.377-.841.607-1.068.69a1.094 1.094 0 0 1-.688.022 1.088 1.088 0 0 1-.57-.387 1.088 1.088 0 0 1-.234-.647l1.85-2.093Z" fill="currentColor" stroke="currentColor" stroke-width="2" stroke-linecap="round" stroke-linejoin="round"/></svg>