<svg width="30" height="30" fill="none" xmlns="http://www.w3.org/2000/svg"><path d="m25.009 13.737.227-.419.227-.418.181-.575c.12-.383.21-.893.27-1.53a6.12 6.12 0 0 0-.79-3.63 6.001 6.001 0 0 0-4.523-2.954 5.923 5.923 0 0 0-1.853.088 6.022 6.022 0 0 0-1.75.658c-.553.312-1.1.703-1.64 1.174-.539.471-1.148 1-1.827 1.585-.68.585-1.426 1.23-2.238 1.934a31.534 31.534 0 0 0-2.19 2.08c-.65.681-1.115 1.351-1.398 2.01a5.713 5.713 0 0 0-.455 2.111c-.021.75-.048 1.599-.08 2.548-.033.949.037 1.8.208 2.552.17.752.644 1.248 1.42 1.49.776.24 1.634.378 2.576.412.941.035 1.83.031 2.668-.012.838-.044 1.572-.21 2.204-.5.631-.291 1.26-.725 1.887-1.3.627-.577 1.601-1.496 2.924-2.757 1.323-1.261 2.108-1.931 2.355-2.01a.724.724 0 0 1 .684.11c.209.154.313.36.312.619a.724.724 0 0 1-.317.616.724.724 0 0 1-.685.106.724.724 0 0 1-.488-.492.724.724 0 0 1 .111-.684.724.724 0 0 1 .619-.312.725.725 0 0 1 .616.317c.151.21.187.438.106.684-.081.247-.758 1.033-2.031 2.36a246.104 246.104 0 0 1-2.92 3.005 6.278 6.278 0 0 1-2.423 1.507c-.942.328-1.881.523-2.818.587a64.21 64.21 0 0 1-2.847.128c-.96.022-2.016-.088-3.165-.33-1.149-.243-1.906-.66-2.272-1.252-.366-.592-.563-1.312-.59-2.16-.027-.847-.052-1.752-.074-2.716a60.765 60.765 0 0 1-.004-2.747c.02-.867.267-1.74.744-2.62a13.968 13.968 0 0 1 1.73-2.488 1722.604 1722.604 0 0 1 4.038-4.643c.603-.69 1.24-1.337 1.911-1.939a10.622 10.622 0 0 1 2.226-1.532 8.794 8.794 0 0 1 5.294-.893c.908.133 1.77.402 2.59.809a8.57 8.57 0 0 1 2.208 1.573 8.55 8.55 0 0 1 2.466 7.42c-.139.893-.31 1.597-.513 2.115-.203.517-.42.953-.652 1.308-.231.354-.468.682-.71.984-.243.302-.47.523-.68.661a1.13 1.13 0 0 1-.693.192 1.135 1.135 0 0 1-.673-.253 1.135 1.135 0 0 1-.396-.6l.893-1.977Z" fill="currentColor" stroke="currentColor" stroke-width="2" stroke-linecap="round" stroke-linejoin="round"/><path d="m16.535 14.909-2.114 1.779-2.114 1.779-4.046 3.993c-2.697 2.662-4.113 4.015-4.248 4.06a.396.396 0 0 1-.374-.06.396.396 0 0 1-.172-.338c0-.142.057-.255.172-.338a.396.396 0 0 1 .374-.06.397.397 0 0 1 .268.269.396.396 0 0 1-.059.375.396.396 0 0 1-.338.172.396.396 0 0 1-.338-.172.396.396 0 0 1-.059-.375c.044-.135 1.397-1.551 4.06-4.248 2.662-2.697 4.586-4.75 5.772-6.16 1.186-1.41 2.156-2.492 2.91-3.246.755-.755 1.226-1.18 1.413-1.275a.944.944 0 0 1 .59-.093.944.944 0 0 1 .532.271.944.944 0 0 1 .272.532l-2.5 3.135Z" fill="currentColor" stroke="currentColor" stroke-width="2" stroke-linecap="round" stroke-linejoin="round"/><path d="m19.38 19.954-1.181-.036-1.182-.036-2.44-.056c-1.627-.037-2.578-.126-2.854-.266a.863.863 0 0 1-.485-.668.863.863 0 0 1 .255-.785.863.863 0 0 1 .785-.255c.306.048.528.21.668.485s.14.55 0 .826a.863.863 0 0 1-.668.485.863.863 0 0 1-.785-.255.863.863 0 0 1-.255-.785.863.863 0 0 1 .485-.668c.276-.14 1.227-.23 2.854-.266a512.4 512.4 0 0 0 3.622-.092 64.802 64.802 0 0 1 1.87-.036c.457 0 .804.039 1.04.115.236.077.427.215.572.416.146.2.22.425.22.673 0 .248-.074.472-.22.673l-2.3.53Z" fill="currentColor" stroke="currentColor" stroke-width="2" stroke-linecap="round" stroke-linejoin="round"/></svg>