<svg width="30" height="30" fill="none" xmlns="http://www.w3.org/2000/svg"><g clip-path="url(#a)" fill="currentColor" stroke="currentColor" stroke-width="2" stroke-linecap="round" stroke-linejoin="round"><path d="m5.126 5.922.246-.789.246-.79.598-.769c.399-.513.964-.99 1.695-1.433a6.248 6.248 0 0 1 2.266-.849 9.524 9.524 0 0 1 2.355-.079c.79.071 1.564.343 2.319.815.755.473 1.19 1.188 1.301 2.148.113.959.15 1.833.111 2.624-.038.79-.101 1.57-.189 2.34a4.902 4.902 0 0 1-.796 2.166c-.443.673-1.116 1.063-2.019 1.168-.903.106-1.773.13-2.61.07a7.19 7.19 0 0 1-2.42-.604c-.778-.344-1.472-.941-2.084-1.791-.613-.85-.983-1.493-1.112-1.93a1.27 1.27 0 0 1 .223-1.193 1.27 1.27 0 0 1 1.097-.522c.454.012.81.206 1.067.58.257.375.31.776.157 1.205a1.27 1.27 0 0 1-.882.835 1.27 1.27 0 0 1-1.194-.222 1.27 1.27 0 0 1-.522-1.097 1.27 1.27 0 0 1 .58-1.067 1.27 1.27 0 0 1 1.205-.158c.428.152.897.626 1.406 1.421.51.796 1.086 1.305 1.73 1.53a5.433 5.433 0 0 0 2.109.27c.762-.043 1.232-.355 1.41-.936.176-.581.243-1.26.2-2.037a28.764 28.764 0 0 1-.045-2.185c.014-.68-.052-.99-.197-.93-.144.058-.551.125-1.22.198-.67.074-1.375.213-2.115.417-.74.205-1.274.436-1.602.694-.329.258-.562.533-.701.825a3.11 3.11 0 0 0-.274.854 2.554 2.554 0 0 1-.233.752c-.113.224-.28.393-.502.509a1.129 1.129 0 0 1-.705.116 1.129 1.129 0 0 1-.64-.32l-.26-1.836Z"/><path d="m15.881 1.13.925-.03.925-.03.663-.006c.442-.004.997.031 1.664.107a5.97 5.97 0 0 1 2 .612 5.491 5.491 0 0 1 1.734 1.354 5.56 5.56 0 0 1 1.082 1.94 5.63 5.63 0 0 1 .251 2.224 5.915 5.915 0 0 1-.583 2.128c-.324.658-.712 1.2-1.165 1.624a5.83 5.83 0 0 1-1.527 1.035 6.36 6.36 0 0 1-1.873.532c-.684.09-1.482.089-2.392-.005a5.66 5.66 0 0 1-2.534-.9c-.778-.505-1.221-1.243-1.329-2.215-.107-.971-.142-2.13-.103-3.477.04-1.347.15-2.2.332-2.563.183-.362.474-.575.874-.64.4-.065.745.045 1.032.33.288.286.401.629.34 1.03-.063.4-.274.693-.634.879-.36.185-.722.187-1.084.004a1.132 1.132 0 0 1-.64-.874c-.065-.4.045-.744.33-1.032.286-.288.63-.4 1.03-.339.4.062.693.273.879.634.185.36.3 1.207.346 2.54a68.85 68.85 0 0 1 .055 3c-.01.668.047.956.167.864.121-.092.465-.187 1.033-.285.568-.097 1.182-.21 1.841-.339.66-.128 1.206-.408 1.64-.839.434-.43.676-.954.725-1.568a2.525 2.525 0 0 0-.479-1.703 2.869 2.869 0 0 0-1.454-1.087c-.602-.205-1.123-.325-1.562-.36-.44-.036-.968-.064-1.584-.084-.617-.02-1.07-.03-1.357-.03-.289 0-.552-.038-.79-.116a1.129 1.129 0 0 1-.578-.42 1.129 1.129 0 0 1-.221-.68c0-.25.074-.476.22-.679l1.801-.536Z"/><path d="m13.868 14.88.111-.624.11-.625.265-.608c.177-.405.433-.805.77-1.199.336-.394.82-.787 1.45-1.181a5.491 5.491 0 0 1 2.06-.77 5.568 5.568 0 0 1 2.218.091c.737.18 1.413.495 2.028.948.615.453 1.118.99 1.51 1.609.391.62.65 1.233.776 1.841.125.609.154 1.223.084 1.842a5.85 5.85 0 0 1-.493 1.782 5.862 5.862 0 0 1-1.023 1.544 5.877 5.877 0 0 1-1.453 1.154 5.89 5.89 0 0 1-1.742.647 5.903 5.903 0 0 1-1.86.076 5.91 5.91 0 0 1-1.793-.504 5.738 5.738 0 0 1-1.56-1.06c-.467-.443-.884-1.13-1.251-2.062-.367-.93-.568-1.658-.603-2.182-.034-.524.15-.954.554-1.29A1.47 1.47 0 0 1 15.395 14c.509.13.86.438 1.055.925.194.488.152.954-.129 1.398-.28.443-.682.683-1.206.717a1.466 1.466 0 0 1-1.289-.554 1.466 1.466 0 0 1-.31-1.369c.13-.508.438-.86.926-1.054a1.466 1.466 0 0 1 1.397.128c.444.28.916.911 1.415 1.894.5.983 1.066 1.54 1.7 1.674a2.22 2.22 0 0 0 1.756-.338c.536-.358.879-.832 1.027-1.421a2.334 2.334 0 0 0-.195-1.694 2.465 2.465 0 0 0-1.279-1.17 2.562 2.562 0 0 0-1.79-.08c-.618.189-1.073.418-1.366.689-.293.27-.502.556-.626.856-.125.3-.198.539-.22.716a2.51 2.51 0 0 1-.175.614 1.128 1.128 0 0 1-.46.548c-.212.132-.443.19-.693.172a1.129 1.129 0 0 1-.662-.268l-.403-1.503Z"/><path d="m5.104 23.436.246-.79.246-.79.598-.769c.399-.513.963-.99 1.694-1.433a6.248 6.248 0 0 1 2.266-.849c.78-.123 1.551-.166 2.314-.127.763.039 1.498.21 2.204.51.706.303 1.171.82 1.396 1.554.224.733.33 1.49.316 2.27a13.89 13.89 0 0 1-.237 2.32c-.144.765-.463 1.52-.958 2.261a5.524 5.524 0 0 1-1.919 1.774 5.538 5.538 0 0 1-2.528.714 5.62 5.62 0 0 1-2.561-.49c-.806-.363-1.515-.976-2.127-1.841-.613-.865-.987-1.53-1.124-1.993a1.35 1.35 0 0 1 .236-1.27 1.35 1.35 0 0 1 1.167-.555 1.35 1.35 0 0 1 1.134.618c.274.398.33.825.168 1.28a1.35 1.35 0 0 1-.938.889 1.35 1.35 0 0 1-1.27-.237 1.35 1.35 0 0 1-.555-1.166 1.35 1.35 0 0 1 .618-1.135 1.35 1.35 0 0 1 1.28-.167c.456.162.936.63 1.44 1.405.505.774 1.08 1.241 1.728 1.4.646.16 1.265.073 1.855-.263a2.64 2.64 0 0 0 1.224-1.457 4.315 4.315 0 0 0 .211-1.998c-.085-.696-.457-1.13-1.113-1.305-.657-.174-1.355-.16-2.095.045-.74.205-1.275.436-1.603.694-.328.258-.561.533-.7.825-.14.293-.23.578-.274.855a2.554 2.554 0 0 1-.234.751 1.127 1.127 0 0 1-.501.509 1.129 1.129 0 0 1-.706.117 1.129 1.129 0 0 1-.639-.32l-.26-1.836Z"/><path d="m5.126 14.672.246-.789.246-.79.598-.769c.399-.513.964-.99 1.695-1.433a6.247 6.247 0 0 1 2.266-.849 9.525 9.525 0 0 1 2.355-.079c.79.071 1.564.343 2.319.815.755.473 1.19 1.188 1.301 2.148.113.959.15 1.833.111 2.624-.038.79-.101 1.57-.189 2.34a4.902 4.902 0 0 1-.796 2.166c-.443.673-1.116 1.063-2.019 1.168-.903.106-1.773.13-2.61.07a7.19 7.19 0 0 1-2.42-.604c-.778-.344-1.472-.941-2.084-1.791-.613-.85-.983-1.493-1.112-1.93a1.27 1.27 0 0 1 .223-1.193 1.27 1.27 0 0 1 1.097-.522c.454.012.81.206 1.067.58.257.375.31.776.157 1.205a1.27 1.27 0 0 1-.882.835 1.27 1.27 0 0 1-1.194-.222 1.27 1.27 0 0 1-.522-1.097 1.27 1.27 0 0 1 .58-1.067 1.27 1.27 0 0 1 1.205-.158c.428.152.897.626 1.406 1.421.51.796 1.086 1.305 1.73 1.53a5.433 5.433 0 0 0 2.109.27c.762-.043 1.232-.355 1.41-.936.176-.581.243-1.26.2-2.037a28.763 28.763 0 0 1-.045-2.185c.014-.68-.052-.99-.197-.93-.144.059-.551.125-1.22.198a13.48 13.48 0 0 0-2.115.417c-.74.205-1.274.436-1.602.694-.329.258-.562.533-.701.825a3.11 3.11 0 0 0-.274.854 2.554 2.554 0 0 1-.233.752c-.113.224-.28.393-.502.509a1.13 1.13 0 0 1-.705.116 1.13 1.13 0 0 1-.64-.32l-.26-1.836Z"/></g><defs><clipPath id="a"><path fill="#fff" d="M0 0h30v30H0z"/></clipPath></defs></svg>