<svg width="30" height="30" fill="none" xmlns="http://www.w3.org/2000/svg"><path d="M16.286 3.825 15.173 3.8l-1.112-.027-1.343-.052a68.414 68.414 0 0 0-2.55-.053c-.804 0-1.502.136-2.093.41-.592.274-1.036.944-1.335 2.01-.299 1.067-.527 2.344-.684 3.831a90.42 90.42 0 0 0-.372 4.92 98.76 98.76 0 0 0-.136 4.95c0 1.508.025 2.697.076 3.567.05.87.257 1.566.623 2.087.365.521.999.84 1.901.957.903.117 1.912.207 3.029.27 1.116.064 2.347.137 3.691.219a72.62 72.62 0 0 0 3.714.139c1.13.01 2.036-.034 2.715-.134.679-.1 1.25-.335 1.713-.705.463-.37.732-.961.807-1.774.075-.813.152-1.777.23-2.894.08-1.116.165-2.346.257-3.69a69.19 69.19 0 0 0 .162-3.71c.016-1.127-.08-2.045-.288-2.753-.208-.707-.656-1.427-1.343-2.159a198.912 198.912 0 0 0-2.735-2.84c-1.136-1.16-1.743-1.862-1.82-2.105a.712.712 0 0 1 .112-.672.711.711 0 0 1 .61-.304.711.711 0 0 1 .604.314.712.712 0 0 1 .1.673.711.711 0 0 1-.485.478.711.711 0 0 1-.671-.112.711.711 0 0 1-.304-.61.711.711 0 0 1 .314-.603.711.711 0 0 1 .673-.101c.241.08.942.7 2.103 1.857 1.16 1.158 2.1 2.242 2.818 3.253.717 1.01 1.15 1.925 1.296 2.745.146.82.227 1.796.243 2.93.016 1.135.07 2.375.161 3.72l.253 3.7a14.67 14.67 0 0 1-.11 3.183c-.15 1-.47 1.784-.96 2.352-.49.568-1.058.914-1.701 1.038a8.48 8.48 0 0 1-2.012.138 51.418 51.418 0 0 0-2.743-.033c-1.13.011-2.369.057-3.714.139-1.345.081-2.578.153-3.7.215-1.12.062-2.17.013-3.147-.146-.978-.159-1.734-.477-2.268-.953a2.877 2.877 0 0 1-.967-1.732 15.32 15.32 0 0 1-.169-2.35 935.23 935.23 0 0 1-.005-3.594 99.14 99.14 0 0 0-.135-4.951 92.63 92.63 0 0 0-.369-4.927c-.155-1.492-.24-2.713-.252-3.661-.013-.949.147-1.766.48-2.451A3.411 3.411 0 0 1 5.822 2.24a4.925 4.925 0 0 1 2.053-.593 42.71 42.71 0 0 1 2.283-.071 78.763 78.763 0 0 0 2.56-.059c.895-.034 1.714-.06 2.455-.078a77.86 77.86 0 0 1 1.76-.027c.43 0 .765.039 1.001.116.237.076.428.215.574.417.146.2.22.426.22.674 0 .249-.074.474-.22.675l-2.222.532Z" fill="currentColor" stroke="currentColor" stroke-width="2" stroke-linecap="round" stroke-linejoin="round"/><path d="M19.484 3.432a2609.603 2609.603 0 0 0 .005 1.668l-.014 1.008c-.009.671.11 1.253.359 1.745.248.493 1.065.763 2.45.81 1.387.049 2.244.158 2.573.33.329.17.52.439.576.805.055.367-.05.68-.314.94-.264.26-.579.359-.945.298a1.035 1.035 0 0 1-.796-.589 1.035 1.035 0 0 1 .008-.99c.17-.329.44-.52.806-.576.366-.055.68.05.94.314.26.264.359.579.298.944a1.035 1.035 0 0 1-.589.797c-.331.166-1.077.251-2.236.256a42.992 42.992 0 0 1-2.742-.055c-.668-.042-1.245-.38-1.73-1.017-.485-.635-.783-1.295-.892-1.98a14.092 14.092 0 0 1-.177-2.032 99.253 99.253 0 0 1-.01-1.842l.002-1.32c0-.323.038-.604.116-.841.077-.238.217-.43.42-.578.201-.147.428-.22.678-.22.25 0 .476.073.678.22l.536 1.905Zm-5.697 17.346-.003-.835-.002-.834.012-1.723c.008-1.148.095-1.883.259-2.205a1.01 1.01 0 0 1 .782-.568 1.01 1.01 0 0 1 .919.298c.255.256.355.562.298.92a1.01 1.01 0 0 1-.568.781 1.01 1.01 0 0 1-.966 0 1.01 1.01 0 0 1-.568-.782 1.01 1.01 0 0 1 .299-.919 1.01 1.01 0 0 1 .918-.298c.358.056.618.246.782.568.164.322.25 1.057.259 2.206a274.234 274.234 0 0 1 .007 3.876c0 .323-.038.604-.116.842-.077.238-.217.43-.42.577-.202.147-.428.22-.678.22a1.13 1.13 0 0 1-.679-.22l-.535-1.904Z" fill="currentColor" stroke="currentColor" stroke-width="2" stroke-linecap="round" stroke-linejoin="round"/><path d="m12.972 17.537.835-.003.834-.002 1.722.012c1.149.008 1.884.095 2.206.259.322.164.512.425.568.782a1.01 1.01 0 0 1-.298.919 1.01 1.01 0 0 1-.92.298 1.01 1.01 0 0 1-.781-.568 1.01 1.01 0 0 1 0-.966 1.01 1.01 0 0 1 .782-.568 1.01 1.01 0 0 1 .919.299c.255.255.355.562.298.919a1.01 1.01 0 0 1-.568.781c-.322.164-1.057.25-2.206.259a274.234 274.234 0 0 1-3.876.007c-.323 0-.604-.038-.842-.116a1.128 1.128 0 0 1-.577-.42 1.127 1.127 0 0 1-.22-.678c0-.25.073-.476.22-.679l1.904-.535Z" fill="currentColor" stroke="currentColor" stroke-width="2" stroke-linecap="round" stroke-linejoin="round"/></svg>