<svg width="30" height="30" fill="none" xmlns="http://www.w3.org/2000/svg"><g clip-path="url(#a)" fill="currentColor" stroke="currentColor" stroke-width="2" stroke-linecap="round" stroke-linejoin="round"><path d="M7.752 1.533a394319.733 394319.733 0 0 0 4.349.39l2.625.118c1.751.079 3.363.118 4.837.118 1.474 0 2.66.01 3.558.029.899.019 1.726.116 2.48.29.755.174 1.358.56 1.81 1.158.451.599.732 1.443.843 2.532.11 1.09.117 2.37.019 3.84a134.001 134.001 0 0 0-.228 4.84c-.053 1.754-.08 3.368-.08 4.843s-.01 2.661-.03 3.56c-.02.898-.118 1.724-.294 2.478a3.065 3.065 0 0 1-1.16 1.806c-.596.45-1.438.732-2.526.843-1.088.111-2.368.118-3.839.021a134.845 134.845 0 0 0-4.838-.225 162.128 162.128 0 0 0-4.844-.078c-1.475 0-2.661-.01-3.56-.03a12.06 12.06 0 0 1-2.478-.295 3.068 3.068 0 0 1-1.806-1.159c-.45-.596-.732-1.439-.843-2.527-.111-1.088-.118-2.367-.021-3.838a134.9 134.9 0 0 0 .225-4.839 164.4 164.4 0 0 0 .078-4.844c0-1.474.008-2.653.025-3.536.016-.883.235-1.799.657-2.747.421-.95.694-1.525.819-1.73a.668.668 0 0 1 .545-.334.668.668 0 0 1 .59.244.668.668 0 0 1 .15.622.668.668 0 0 1-.415.486.668.668 0 0 1-.637-.05.668.668 0 0 1-.334-.544.668.668 0 0 1 .244-.591.668.668 0 0 1 .621-.15.668.668 0 0 1 .486.415c.092.22-.16.79-.758 1.706-.597.917-.922 1.813-.976 2.686-.053.874-.08 2.048-.08 3.523s.028 3.089.082 4.842c.055 1.754.134 3.358.239 4.814.105 1.456.25 2.746.433 3.869.185 1.123.552 1.89 1.102 2.302.55.412 1.254.643 2.112.693.859.05 2.025.075 3.5.074 1.474 0 3.088-.027 4.842-.082 1.753-.054 3.358-.134 4.814-.238a43.368 43.368 0 0 0 3.868-.434c1.123-.184 1.89-.551 2.303-1.101.412-.55.643-1.254.692-2.113.05-.858.075-2.024.075-3.499 0-1.474-.028-3.088-.083-4.842a118.127 118.127 0 0 0-.242-4.814 43.597 43.597 0 0 0-.434-3.864c-.184-1.12-.55-1.887-1.1-2.301-.548-.414-1.251-.646-2.109-.697a62.097 62.097 0 0 0-3.497-.077c-1.474 0-3.086.04-4.836.118-1.751.08-3.351.183-4.8.313-1.45.13-2.597.195-3.44.195S5.115 3.688 4.9 3.618a1.016 1.016 0 0 1-.52-.378 1.016 1.016 0 0 1-.199-.612c0-.226.066-.43.199-.612l3.372-.483Z"/><path d="m9.763 8.366-.24 2.781-.238 2.781-.033 5.742c-.022 3.828-.065 5.806-.13 5.932a.396.396 0 0 1-.307.223.396.396 0 0 1-.36-.117c-.1-.1-.14-.22-.118-.36a.396.396 0 0 1 .223-.308.396.396 0 0 1 .38 0 .4.4 0 0 1 .223.307.396.396 0 0 1-.118.36c-.1.101-.22.14-.36.118a.396.396 0 0 1-.307-.223c-.065-.126-.108-2.104-.13-5.932-.022-3.828-.112-6.669-.272-8.523-.159-1.854-.239-3.32-.239-4.398 0-1.078.033-1.716.097-1.915a.94.94 0 0 1 .35-.481.94.94 0 0 1 .566-.184.94.94 0 0 1 .566.184l.447 4.013Zm12.499 0-.238 2.781-.24 2.781-.032 5.742c-.022 3.828-.066 5.806-.13 5.932a.396.396 0 0 1-.307.223.396.396 0 0 1-.36-.117c-.1-.1-.14-.22-.117-.36a.396.396 0 0 1 .222-.308.396.396 0 0 1 .38 0 .4.4 0 0 1 .223.307.396.396 0 0 1-.118.36c-.1.101-.22.14-.36.118a.396.396 0 0 1-.307-.223c-.064-.126-.108-2.104-.13-5.932-.022-3.828-.112-6.669-.272-8.523-.159-1.854-.238-3.32-.238-4.398 0-1.078.032-1.716.096-1.915a.94.94 0 0 1 .35-.481.94.94 0 0 1 .566-.184.94.94 0 0 1 .566.184l.447 4.013Z"/><path d="M8.366 13.988a58141.808 58141.808 0 0 0 5.562.477l5.742.033c3.828.022 5.806.066 5.932.13.127.064.2.166.223.307a.396.396 0 0 1-.117.36c-.1.1-.22.14-.36.117a.396.396 0 0 1-.308-.222.396.396 0 0 1 0-.38.396.396 0 0 1 .307-.223c.14-.022.26.017.36.118.101.1.14.22.118.36a.396.396 0 0 1-.223.307c-.126.065-2.104.108-5.932.13-3.828.022-6.669.112-8.523.272-1.854.159-3.32.239-4.398.239-1.078 0-1.716-.033-1.915-.097a.94.94 0 0 1-.481-.35.94.94 0 0 1-.184-.566.94.94 0 0 1 .184-.566l4.013-.446ZM3.923 7.536l.696-.012.695-.011h1.435c.957 0 1.603.085 1.936.255.334.17.53.44.589.81.058.37-.045.687-.31.952a1.046 1.046 0 0 1-.951.309 1.046 1.046 0 0 1-.81-.588 1.046 1.046 0 0 1 0-1.001c.17-.334.44-.53.81-.588.37-.06.687.044.951.309.265.265.368.582.31.952-.059.37-.255.64-.589.81-.333.17-.979.254-1.936.254s-1.667-.003-2.13-.011c-.464-.008-.83-.012-1.1-.012-.27 0-.523-.039-.76-.116a1.127 1.127 0 0 1-.578-.42 1.127 1.127 0 0 1-.22-.678c0-.25.073-.476.22-.678l1.742-.536Zm0 12.5.696-.012.695-.012h1.435c.957.001 1.603.086 1.936.256.334.17.53.44.589.81.058.37-.045.687-.31.951a1.046 1.046 0 0 1-.951.31 1.046 1.046 0 0 1-.81-.588 1.046 1.046 0 0 1 0-1.001c.17-.334.44-.53.81-.588.37-.06.687.044.951.309.265.264.368.582.31.952-.059.37-.255.64-.589.81-.333.17-.979.254-1.936.255-.957 0-1.667-.004-2.13-.012-.464-.008-.83-.012-1.1-.012a2.45 2.45 0 0 1-.76-.116 1.127 1.127 0 0 1-.578-.42 1.127 1.127 0 0 1-.22-.678c0-.25.073-.476.22-.678l1.742-.536Zm18.75 0 .696-.012.695-.012h1.435c.957.001 1.603.086 1.936.256.334.17.53.44.589.81.058.37-.045.687-.31.951a1.046 1.046 0 0 1-.951.31 1.046 1.046 0 0 1-.81-.588 1.046 1.046 0 0 1 0-1.001c.17-.334.44-.53.81-.588.37-.06.687.044.951.309.265.264.368.582.31.952-.059.37-.255.64-.589.81-.333.17-.979.254-1.936.255-.957 0-1.667-.004-2.13-.012-.464-.008-.83-.012-1.1-.012a2.45 2.45 0 0 1-.76-.116 1.127 1.127 0 0 1-.578-.42 1.127 1.127 0 0 1-.22-.678c0-.25.073-.476.22-.678l1.742-.536Zm0-12.5.696-.012.695-.011h1.435c.957 0 1.603.085 1.936.255.334.17.53.44.589.81.058.37-.045.687-.31.952a1.046 1.046 0 0 1-.951.309 1.046 1.046 0 0 1-.81-.588 1.046 1.046 0 0 1 0-1.001c.17-.334.44-.53.81-.588.37-.06.687.044.951.309.265.265.368.582.31.952-.059.37-.255.64-.589.81-.333.17-.979.254-1.936.254s-1.667-.003-2.13-.011a67.65 67.65 0 0 0-1.1-.012c-.27 0-.523-.039-.76-.116a1.126 1.126 0 0 1-.578-.42 1.127 1.127 0 0 1-.22-.678c0-.25.073-.476.22-.678l1.742-.536Z"/></g><defs><clipPath id="a"><path fill="#fff" d="M0 0h30v30H0z"/></clipPath></defs></svg>