<svg width="30" height="30" fill="none" xmlns="http://www.w3.org/2000/svg"><path d="m22.901 4.77-2.78-.238-2.782-.24-3.357-.032a906.682 906.682 0 0 1-6.133-.08c-1.85-.03-3.096.032-3.737.188-.64.155-.639.738.006 1.748A30.64 30.64 0 0 0 6.4 9.214a276.023 276.023 0 0 0 2.452 2.91c.757.885 1.359 1.662 1.804 2.328.445.667.773 1.491.984 2.473.211.982.33 1.847.355 2.595a8.07 8.07 0 0 0 .359 2.143c.213.681 1.04 1.503 2.483 2.465 1.442.963 2.184 1.57 2.225 1.822a1.15 1.15 0 0 1-.11.72 1.15 1.15 0 0 1-.513.517c-.227.117-.391.082-.494-.106-.102-.187-.304-.641-.606-1.363a5.015 5.015 0 0 1-.408-2.161c.03-.72.069-1.554.116-2.503.047-.95.113-1.903.197-2.862.084-.959.324-1.965.718-3.02.394-1.053 1.002-2.025 1.823-2.913.82-.888 2.028-2.218 3.62-3.99 1.593-1.77 2.472-2.691 2.637-2.761a.5.5 0 0 1 .477.033.5.5 0 0 1 .253.406.5.5 0 0 1-.18.443.5.5 0 0 1-.463.116.5.5 0 0 1-.366-.308.5.5 0 0 1 .033-.477.5.5 0 0 1 .406-.253.5.5 0 0 1 .443.18.5.5 0 0 1 .116.463c-.04.174-.796 1.194-2.265 3.06-1.47 1.866-2.536 3.257-3.198 4.174-.662.916-1.163 1.761-1.501 2.533a7.026 7.026 0 0 0-.58 2.459c-.047.866-.05 1.78-.008 2.739.041.96.03 1.852-.035 2.677-.065.826-.11 1.335-.135 1.529-.026.194-.018.416.023.668a1.15 1.15 0 0 1-.11.72 1.15 1.15 0 0 1-.513.517c-.227.117-1.127-.226-2.7-1.028-1.573-.801-2.537-1.562-2.89-2.281-.355-.72-.547-1.437-.578-2.15-.03-.715-.04-1.438-.026-2.168a66.52 66.52 0 0 0 0-2.319c-.012-.815-.186-1.544-.52-2.188-.335-.644-.874-1.415-1.617-2.312-.742-.897-1.555-1.878-2.44-2.94a21.865 21.865 0 0 1-2.325-3.402c-.666-1.205-.578-2.009.262-2.412.841-.404 2.221-.62 4.14-.651 1.92-.031 3.998-.057 6.237-.08a81.434 81.434 0 0 0 6.138-.271c1.854-.16 3.32-.24 4.398-.24 1.078 0 1.717.033 1.915.097a.94.94 0 0 1 .481.35.94.94 0 0 1 .184.566.94.94 0 0 1-.184.566l-4.013.447Z" fill="currentColor"/><path d="M17.062 25.95c-.041-.252-.783-.859-2.225-1.822-1.443-.962-2.27-1.784-2.483-2.465a8.07 8.07 0 0 1-.358-2.143c-.026-.748-.145-1.613-.356-2.595-.21-.982-.539-1.806-.984-2.473-.445-.666-1.047-1.443-1.804-2.328A276.023 276.023 0 0 1 6.4 9.214a30.64 30.64 0 0 1-2.282-3.098c-.645-1.01-.647-1.593-.006-1.748.64-.156 1.886-.218 3.737-.187 1.85.03 3.894.057 6.133.079l3.357.033 2.781.239 2.781.239 4.013-.447a.94.94 0 0 0 .184-.566.94.94 0 0 0-.184-.566.94.94 0 0 0-.481-.35c-.198-.064-.837-.096-1.915-.096s-2.544.08-4.398.239c-1.854.159-3.9.25-6.139.272a992.75 992.75 0 0 0-6.236.079c-1.919.03-3.299.247-4.14.65-.84.404-.928 1.208-.262 2.413A21.865 21.865 0 0 0 5.67 9.8c.884 1.063 1.697 2.043 2.44 2.94.742.898 1.28 1.669 1.615 2.313.335.644.509 1.373.522 2.188a66.52 66.52 0 0 1 0 2.319c-.014.73-.006 1.453.025 2.167.031.714.223 1.431.577 2.15.354.72 1.318 1.48 2.891 2.282s2.473 1.145 2.7 1.028m.623-1.237a1.15 1.15 0 0 1-.11.72 1.15 1.15 0 0 1-.513.517m.623-1.237a2.307 2.307 0 0 1-.023-.668c.025-.194.07-.703.135-1.529.064-.825.076-1.717.035-2.677-.042-.96-.039-1.873.009-2.74.047-.866.24-1.685.579-2.458.338-.772.839-1.617 1.5-2.533.663-.917 1.729-2.308 3.199-4.174 1.47-1.866 2.224-2.886 2.265-3.06a.5.5 0 0 0-.116-.464.5.5 0 0 0-.443-.179.5.5 0 0 0-.406.253.5.5 0 0 0-.033.477.5.5 0 0 0 .366.308.5.5 0 0 0 .464-.116.5.5 0 0 0 .18-.443.5.5 0 0 0-.254-.406.5.5 0 0 0-.477-.033c-.165.07-1.044.99-2.636 2.762a431.397 431.397 0 0 1-3.621 3.989c-.821.888-1.429 1.86-1.823 2.914-.394 1.054-.634 2.06-.718 3.019-.084.959-.15 1.913-.197 2.862-.047.949-.086 1.783-.116 2.503-.03.72.107 1.44.408 2.162.302.72.504 1.175.606 1.362.103.188.267.223.494.106" stroke="currentColor" stroke-width="2" stroke-linecap="round" stroke-linejoin="round"/></svg>