<svg width="30" height="30" fill="none" xmlns="http://www.w3.org/2000/svg"><path d="m4.761 17.5.74-.363.739-.364.788-.174c.526-.116 1.13-.19 1.81-.221.682-.032 1.395 0 2.138.094.743.094 1.469.242 2.177.444.709.203 1.392.422 2.05.658.658.236 1.303.448 1.935.636.632.187 1.318.311 2.06.37.74.06 1.561-.11 2.463-.511.901-.402 1.524-1.272 1.868-2.612.344-1.339.567-2.68.668-4.022.102-1.343.162-2.579.182-3.71a40.19 40.19 0 0 0-.04-2.936c-.046-.827-.005-1.288.123-1.382a.718.718 0 0 1 .433-.14.72.72 0 0 1 .432.14c.13.094.129.211 0 .353-.13.14-.524.451-1.183.932-.66.48-1.49.801-2.49.962-1 .162-1.867.206-2.599.132a13.824 13.824 0 0 1-2.153-.39 30.206 30.206 0 0 1-2.044-.616 38.417 38.417 0 0 0-1.942-.607 10.327 10.327 0 0 0-2.072-.352c-.745-.054-1.57.124-2.476.533-.905.41-1.53 1.287-1.875 2.634-.345 1.346-.563 3.167-.653 5.464-.09 2.296-.182 3.538-.277 3.724a.584.584 0 0 1-.452.328.584.584 0 0 1-.531-.174.584.584 0 0 1-.172-.53.584.584 0 0 1 .329-.452.584.584 0 0 1 .558 0 .583.583 0 0 1 .328.452.584.584 0 0 1-.173.531.583.583 0 0 1-.532.172.584.584 0 0 1-.451-.328c-.095-.187-.186-1.43-.273-3.729-.087-2.299-.171-4.015-.253-5.148-.082-1.133.112-2.176.58-3.13.47-.955 1.16-1.614 2.072-1.979.912-.365 1.765-.567 2.558-.607.794-.04 1.56-.011 2.299.088.739.1 1.446.248 2.12.445.675.196 1.541.466 2.6.81a15.95 15.95 0 0 0 3.355.695c1.179.118 2.176.147 2.994.086.817-.06 1.313-.102 1.488-.124a.973.973 0 0 0 .455-.175.718.718 0 0 1 .433-.14.72.72 0 0 1 .432.14c.13.094.21.554.243 1.38.034.827.06 1.806.079 2.938.02 1.131.078 2.37.177 3.715l.275 3.718c.085 1.133-.109 2.18-.58 3.14-.47.96-1.163 1.625-2.078 1.995-.915.37-1.77.577-2.567.621-.796.045-1.566.02-2.309-.074a14.979 14.979 0 0 1-2.132-.425c-.678-.19-1.545-.444-2.6-.764a14.702 14.702 0 0 0-3.31-.595c-1.152-.076-2.007-.082-2.565-.02-.557.064-1.003.15-1.336.26-.334.11-.572.206-.714.288a2.66 2.66 0 0 1-.567.23c-.235.072-.47.067-.702-.014a1.108 1.108 0 0 1-.558-.424 1.108 1.108 0 0 1-.203-.672l.881-1.203Z" fill="currentColor" stroke="currentColor" stroke-width="2" stroke-linecap="round" stroke-linejoin="round"/><path d="m3.788 25.473.01-.973.01-.974.028-2.01c.019-1.34.106-2.162.262-2.469a.96.96 0 0 1 .744-.54.96.96 0 0 1 .874.284.96.96 0 0 1 .284.874.96.96 0 0 1-.54.743.96.96 0 0 1-.92 0 .96.96 0 0 1-.54-.743.96.96 0 0 1 .284-.874.96.96 0 0 1 .874-.284.96.96 0 0 1 .744.54c.156.307.243 1.13.262 2.47l.038 2.983c.006.648.01 1.162.01 1.539s-.039.685-.116.922c-.077.238-.217.43-.419.576-.202.147-.427.22-.677.22-.25 0-.475-.073-.677-.22l-.535-2.064Z" fill="currentColor" stroke="currentColor" stroke-width="2" stroke-linecap="round" stroke-linejoin="round"/></svg>