<svg width="30" height="30" fill="none" xmlns="http://www.w3.org/2000/svg"><path d="m28.439 24.355-.155.52-.156.522-.323.481c-.216.32-.479.602-.789.845-.31.242-.702.43-1.176.562-.475.132-1.188.19-2.14.174-.95-.017-2.172-.105-3.665-.266a90.483 90.483 0 0 0-4.927-.382 95.176 95.176 0 0 0-4.95-.14c-1.509 0-2.707-.002-3.595-.006a15.361 15.361 0 0 1-2.35-.168c-.679-.11-1.256-.44-1.732-.99-.476-.552-.789-1.363-.937-2.432-.148-1.07-.175-2.257-.08-3.564.095-1.306.184-2.744.268-4.313.084-1.568.124-3.013.119-4.332a260.02 260.02 0 0 0-.028-3.168 12.29 12.29 0 0 1 .14-2.178c.107-.66.406-1.23.897-1.712C3.35 3.327 4 3 4.808 2.828a14.11 14.11 0 0 1 2.68-.286 16.45 16.45 0 0 1 2.684.152c.81.12 1.512.449 2.105.988.593.54 1.171 1.069 1.735 1.585.563.517 1.293.807 2.188.871.896.064 1.846.13 2.85.195 1.005.066 1.962.106 2.871.121a78.37 78.37 0 0 1 2.51.078 5.05 5.05 0 0 1 2.13.576 3.455 3.455 0 0 1 1.488 1.478c.334.638.513 1.316.535 2.032.022.717-.006 1.59-.084 2.62-.079 1.03-.16 2.598-.245 4.706-.084 2.107-.181 3.27-.291 3.486a.678.678 0 0 1-.525.38.678.678 0 0 1-.617-.2.678.678 0 0 1-.2-.616.678.678 0 0 1 .38-.525.678.678 0 0 1 .65 0c.215.11.342.285.38.524a.678.678 0 0 1-.2.617.678.678 0 0 1-.617.2.678.678 0 0 1-.524-.38c-.11-.216-.208-1.378-.293-3.485-.085-2.107-.168-3.672-.248-4.695a12.297 12.297 0 0 0-.53-2.81c-.275-.852-.736-1.398-1.384-1.64-.648-.242-1.423-.358-2.327-.348-.904.01-1.862.046-2.875.107-1.012.061-1.96.11-2.845.146a5.828 5.828 0 0 1-2.48-.419c-.771-.316-1.417-.851-1.94-1.605-.521-.754-1.131-1.241-1.83-1.462-.697-.22-1.52-.338-2.465-.354-.945-.016-1.772.025-2.48.124-.709.099-1.217.389-1.524.87-.306.481-.493 1.106-.56 1.875-.066.768-.102 1.812-.107 3.132-.005 1.32.035 2.763.12 4.332.084 1.568.175 3.003.271 4.305a65.21 65.21 0 0 0 .336 3.444c.128.993.452 1.681.973 2.063.521.381 1.217.597 2.087.647.87.05 2.06.076 3.567.076 1.508 0 3.159-.047 4.95-.142a88.332 88.332 0 0 0 4.92-.385c1.487-.162 2.677-.285 3.57-.367.892-.083 1.509-.227 1.848-.434.34-.207.532-.397.575-.572.044-.174.117-.379.222-.614a1.16 1.16 0 0 1 .49-.546 1.16 1.16 0 0 1 .719-.152c.255.026.479.126.67.298l.318 1.536Z" fill="currentColor" stroke="currentColor" stroke-width="2" stroke-linecap="round" stroke-linejoin="round"/><path d="M16.213 15.472a5186.502 5186.502 0 0 0 .005 1.669l-.012 1.723c-.008 1.148-.095 1.883-.259 2.205a1.01 1.01 0 0 1-.782.568 1.01 1.01 0 0 1-.919-.298 1.01 1.01 0 0 1-.298-.92 1.01 1.01 0 0 1 .568-.781 1.01 1.01 0 0 1 .966 0c.322.164.511.425.568.782a1.01 1.01 0 0 1-.299.919 1.01 1.01 0 0 1-.918.298 1.01 1.01 0 0 1-.782-.568c-.164-.322-.25-1.057-.259-2.206a274.234 274.234 0 0 1-.007-3.876c0-.323.038-.604.116-.842.077-.238.217-.43.42-.577.202-.147.428-.22.678-.22.25 0 .476.073.679.22l.535 1.904Z" fill="currentColor" stroke="currentColor" stroke-width="2" stroke-linecap="round" stroke-linejoin="round"/><path d="m12.972 16.287.835-.003.834-.002 1.722.012c1.149.008 1.884.095 2.206.259.322.164.512.425.568.782a1.01 1.01 0 0 1-.298.919 1.01 1.01 0 0 1-.92.298 1.01 1.01 0 0 1-.781-.568 1.01 1.01 0 0 1 0-.966 1.01 1.01 0 0 1 .782-.568 1.01 1.01 0 0 1 .919.299c.255.255.355.562.298.919a1.01 1.01 0 0 1-.568.781c-.322.164-1.057.25-2.206.259a274.234 274.234 0 0 1-3.876.007c-.323 0-.604-.038-.842-.116a1.127 1.127 0 0 1-.577-.42 1.127 1.127 0 0 1-.22-.678c0-.25.073-.476.22-.679l1.904-.535Z" fill="currentColor" stroke="currentColor" stroke-width="2" stroke-linecap="round" stroke-linejoin="round"/></svg>