<svg width="30" height="30" fill="none" xmlns="http://www.w3.org/2000/svg"><g clip-path="url(#a)"><path d="m5.228 19.07.01-.973.01-.974.031-1.175c.021-.783.062-1.541.124-2.274.061-.733.398-1.38 1.011-1.941.613-.562 1.794-.874 3.544-.938 1.75-.064 3.41-.049 4.981.046a72.04 72.04 0 0 0 4.32.14c1.309 0 2.261-.088 2.858-.264.596-.176.908-.62.935-1.33.028-.712.036-1.452.027-2.221-.01-.77 0-1.451.033-2.045.031-.594-.079-.966-.331-1.114-.252-.149-1.15-.28-2.695-.394a275.668 275.668 0 0 0-4.662-.304 111.38 111.38 0 0 0-5.407-.156c-2.042-.015-3.095-.067-3.16-.155a.491.491 0 0 1-.095-.296c0-.109.032-.208.096-.296.065-.088.16-.068.286.06a995.43 995.43 0 0 1 3.994 4.148 327.518 327.518 0 0 0 4.17 4.268c1.555 1.565 2.993 3.013 4.313 4.344 1.32 1.33 2.283 2.373 2.888 3.127.605.754.696 1.298.273 1.632-.422.334-1.24.56-2.454.677a41.698 41.698 0 0 1-3.625.192c-1.204.012-3.04.082-5.506.213-2.467.131-3.729.158-3.786.08a.435.435 0 0 1-.085-.262c0-.097.028-.184.085-.263.057-.078.167-.038.33.12.165.16.585.574 1.262 1.245.677.67 1.388 1.39 2.131 2.158.744.768 1.65 1.676 2.719 2.722s1.591 1.64 1.568 1.778a.635.635 0 0 1-.185.358.632.632 0 0 1-.36.18c-.14.021-.219-.085-.24-.319-.02-.233-.063-.798-.13-1.694-.066-.896-.084-1.7-.055-2.412.03-.712-.154-1.317-.552-1.817-.397-.5-1.591-1.01-3.583-1.532-1.992-.521-3.009-.826-3.05-.913a.435.435 0 0 1-.035-.273.436.436 0 0 1 .132-.242c.07-.066.267-.109.59-.128.322-.02 1.334-.059 3.036-.118s2.628-.05 2.779.024c.15.076.24.197.268.363a.471.471 0 0 1-.136.43.47.47 0 0 1-.427.143.47.47 0 0 1-.367-.262.471.471 0 0 1-.004-.45.471.471 0 0 1 .362-.269.471.471 0 0 1 .43.136.47.47 0 0 1 .143.427.471.471 0 0 1-.262.367c-.15.078-1.094.1-2.833.067s-2.776-.055-3.111-.067c-.336-.011-.524-.06-.565-.148a.435.435 0 0 1-.035-.273.436.436 0 0 1 .132-.242c.07-.066 1.16.07 3.267.407 2.108.338 3.508.915 4.202 1.732s1.05 1.648 1.07 2.492c.018.845-.032 1.612-.153 2.301-.12.69-.2 1.116-.237 1.279a7.567 7.567 0 0 0-.09.453.635.635 0 0 1-.186.358.632.632 0 0 1-.36.18c-.14.021-.728-.51-1.766-1.593a776.158 776.158 0 0 1-2.693-2.823 31.783 31.783 0 0 1-1.877-2.139 45.876 45.876 0 0 1-.893-1.152c-.1-.142-.179-.251-.236-.33a.435.435 0 0 1-.085-.261c0-.097.028-.184.085-.263.057-.078 1.316-.28 3.777-.605 2.46-.326 4.293-.486 5.497-.48 1.204.006 2.384.018 3.538.037a70.2 70.2 0 0 0 2.145.016c.275-.008.102-.306-.52-.894a171.33 171.33 0 0 1-2.903-2.844 1172.76 1172.76 0 0 1-4.307-4.314 119.686 119.686 0 0 1-4.49-4.773 304.465 304.465 0 0 1-2.674-3.027 18.785 18.785 0 0 1-.616-.74.491.491 0 0 1-.096-.296c0-.109.032-.208.096-.296.065-.088 1.118-.138 3.16-.15 2.043-.011 3.85-.056 5.421-.135a50.898 50.898 0 0 1 4.956.007c1.733.083 2.886.392 3.46.928.573.535.872 1.165.899 1.89.027.726.024 1.487-.006 2.285-.031.798-.23 1.66-.596 2.589-.366.928-.935 1.51-1.706 1.749-.772.238-1.823.358-3.152.36-1.33.002-2.776.056-4.339.16-1.563.106-3.108.225-4.636.358-1.529.133-2.4.26-2.614.383-.214.123-.29.477-.229 1.064.061.586.103 1.27.123 2.054a135.15 135.15 0 0 1 .052 3.688c0 .378-.038.685-.115.922-.078.238-.217.43-.42.577-.201.146-.427.22-.677.22-.25 0-.475-.074-.677-.22l-.534-2.065Z" fill="currentColor"/><path d="M6.858 2.406a.491.491 0 0 0-.096.296c0 .109.032.208.096.296s1.117.14 3.159.155c2.042.016 3.844.067 5.407.156 1.563.089 3.117.19 4.662.304 1.545.114 2.443.245 2.695.394.252.148.362.52.33 1.114a31.406 31.406 0 0 0-.032 2.045c.01.769 0 1.509-.027 2.22-.027.712-.339 1.155-.935 1.331-.597.176-1.55.264-2.858.265a72.04 72.04 0 0 1-4.32-.141 51.714 51.714 0 0 0-4.981-.046c-1.75.064-2.931.376-3.544.938-.613.56-.95 1.208-1.011 1.94a39.995 39.995 0 0 0-.124 2.275l-.03 1.175-.011.974-.01.973.534 2.065c.202.146.428.22.677.22.25 0 .476-.074.678-.22.202-.147.341-.34.419-.577.077-.237.115-.544.115-.922a153.59 153.59 0 0 0-.052-3.688 26.871 26.871 0 0 0-.123-2.054c-.061-.587.015-.941.229-1.064.214-.123 1.085-.25 2.614-.383 1.528-.133 3.073-.252 4.636-.357a66.672 66.672 0 0 1 4.339-.16c1.33-.003 2.38-.123 3.152-.361.771-.239 1.34-.822 1.706-1.75.366-.927.565-1.79.596-2.588.03-.798.033-1.56.006-2.284-.027-.726-.326-1.356-.9-1.891-.573-.536-1.726-.845-3.46-.928a50.898 50.898 0 0 0-4.955-.007c-1.57.079-3.377.124-5.42.135-2.043.012-3.096.062-3.16.15Zm0 0c.065-.088.16-.068.286.06a995.43 995.43 0 0 1 3.994 4.148 327.518 327.518 0 0 0 4.17 4.268c1.555 1.565 2.993 3.013 4.313 4.344 1.32 1.33 2.283 2.373 2.888 3.127.605.754.696 1.298.273 1.632-.422.334-1.24.56-2.454.677a41.698 41.698 0 0 1-3.625.192c-1.204.012-3.04.082-5.506.213-2.467.131-3.729.158-3.786.08m-.553-18.74a.491.491 0 0 0-.096.295c0 .109.032.208.096.296s.269.335.616.74c.346.404 1.238 1.413 2.674 3.027a119.686 119.686 0 0 0 4.49 4.773 1172.76 1172.76 0 0 0 4.307 4.314 171.33 171.33 0 0 0 2.902 2.844c.623.588.796.886.52.894a70.2 70.2 0 0 1-2.144-.016 313.168 313.168 0 0 0-3.538-.037c-1.204-.006-3.036.154-5.497.48-2.461.325-3.72.527-3.777.605m0 .525a.435.435 0 0 1-.085-.262c0-.097.028-.184.085-.263m0 .525c.057.078.136.187.236.329.101.141.398.525.893 1.152a31.86 31.86 0 0 0 1.877 2.139c.758.799 1.655 1.74 2.693 2.823s1.627 1.614 1.766 1.593m-7.465-8.56c.057-.079.167-.039.33.12.165.158.585.573 1.262 1.244.677.67 1.388 1.39 2.131 2.158.744.768 1.65 1.676 2.719 2.722s1.591 1.64 1.568 1.778m0 0a.635.635 0 0 1-.185.358.632.632 0 0 1-.36.18m.545-.538c.023-.139.054-.29.091-.453.038-.163.117-.59.237-1.279a11.9 11.9 0 0 0 .152-2.3c-.019-.845-.375-1.676-1.069-2.493s-2.094-1.394-4.202-1.732c-2.108-.338-3.197-.473-3.267-.407a.436.436 0 0 0-.132.242m7.645 8.96c-.14.021-.219-.085-.24-.319-.02-.233-.063-.798-.13-1.694-.066-.896-.084-1.7-.055-2.412.03-.712-.154-1.317-.552-1.817-.397-.5-1.591-1.01-3.583-1.532-1.992-.521-3.009-.826-3.05-.913a.435.435 0 0 1-.035-.273m0 0a.436.436 0 0 1 .132-.242c.07-.066.267-.109.59-.128.322-.02 1.334-.059 3.036-.118s2.628-.05 2.779.024c.15.076.24.197.268.363a.471.471 0 0 1-.136.43.47.47 0 0 1-.427.143.47.47 0 0 1-.367-.262.471.471 0 0 1-.004-.45.471.471 0 0 1 .362-.269.471.471 0 0 1 .43.136.47.47 0 0 1 .143.427.471.471 0 0 1-.262.367c-.15.078-1.094.1-2.833.067s-2.776-.055-3.111-.067c-.336-.011-.524-.06-.565-.148a.435.435 0 0 1-.035-.273Z" stroke="currentColor" stroke-width="2" stroke-linecap="round" stroke-linejoin="round"/></g><defs><clipPath id="a"><path fill="#fff" d="M0 0h30v30H0z"/></clipPath></defs></svg>