<svg width="30" height="30" fill="none" xmlns="http://www.w3.org/2000/svg"><g clip-path="url(#a)" fill="currentColor" stroke="currentColor" stroke-width="2" stroke-linecap="round" stroke-linejoin="round"><path d="m25.905 16.842-.069 1.39-.068 1.39-.099 1.68a463.06 463.06 0 0 0-.176 3.17c-.051.994-.196 1.822-.432 2.483-.237.662-.752 1.08-1.545 1.254-.794.175-1.962.234-3.507.177a332.724 332.724 0 0 0-9.983-.207c-1.521-.005-2.713-.18-3.577-.523-.863-.343-1.47-1.144-1.819-2.404-.35-1.26-.528-2.85-.534-4.774-.007-1.924.032-2.972.117-3.144a.536.536 0 0 1 .41-.306.536.536 0 0 1 .49.152.536.536 0 0 1 .165.485.536.536 0 0 1-.296.419.536.536 0 0 1-.513.006.535.535 0 0 1-.306-.41.536.536 0 0 1 .152-.49.535.535 0 0 1 .485-.164c.19.027.33.126.419.296.089.17.145 1.206.168 3.111.022 1.905.084 3.398.184 4.48.1 1.081.5 1.745 1.2 1.991.7.247 1.798.366 3.292.357 1.494-.008 3.135-.04 4.921-.093a23.436 23.436 0 0 0 5.197-.733c1.678-.435 2.71-1.12 3.098-2.054.387-.934.548-1.96.482-3.08a367.922 367.922 0 0 1-.167-3.069 47.209 47.209 0 0 1-.068-2.199c0-.539.038-.925.113-1.158.076-.233.213-.422.411-.566.198-.144.42-.216.665-.216.245 0 .467.072.665.216l.525 2.533Z"/><path d="m5.93 7.892 2.78.239 2.78.239s1.12.01 3.359.033c2.238.022 4.3.033 6.188.034 1.887 0 3.341.091 4.363.272 1.021.181 1.742.681 2.162 1.5.42.82.653 1.72.698 2.702.045.982-.092 1.698-.411 2.147-.32.449-.95.704-1.893.765-.943.062-2.355.042-4.234-.061-1.88-.103-3.94-.152-6.179-.148l-6.19.006c-1.887 0-3.34-.09-4.361-.271-1.021-.181-1.764-1.085-2.23-2.713-.467-1.628-.67-2.535-.613-2.722a.547.547 0 0 1 .365-.375.547.547 0 0 1 .518.075c.16.112.24.267.244.462a.547.547 0 0 1-.232.47.547.547 0 0 1-.515.089.547.547 0 0 1-.375-.365.547.547 0 0 1 .075-.518.547.547 0 0 1 .463-.244.547.547 0 0 1 .469.231c.117.157.247.891.39 2.204.142 1.312.676 2.097 1.6 2.356.923.258 2.326.387 4.208.385 1.883-.001 3.942-.004 6.18-.008 2.237-.004 4.504-.079 6.8-.226 2.296-.147 3.671-.454 4.125-.922.453-.468.593-1.152.418-2.052-.174-.9-.723-1.476-1.645-1.727-.923-.252-2.325-.377-4.207-.377-1.883 0-3.943.012-6.181.034a81.436 81.436 0 0 0-6.139.272c-1.854.16-3.32.239-4.398.239-1.078 0-1.716-.032-1.915-.097a.94.94 0 0 1-.481-.35.94.94 0 0 1-.184-.566.94.94 0 0 1 .184-.566l4.013-.446Z"/><path d="m13.895 22.988.188-2.086.188-2.085.13-4.307c.087-2.871.162-4.37.227-4.496a.396.396 0 0 1 .307-.223c.14-.022.26.017.36.117.1.1.14.22.117.36a.396.396 0 0 1-.222.307.396.396 0 0 1-.38 0 .396.396 0 0 1-.223-.306.396.396 0 0 1 .118-.361c.1-.1.22-.14.36-.117.14.022.243.096.307.223.065.126.14 1.625.227 4.496.087 2.871.193 5.002.318 6.392.126 1.39.188 2.49.188 3.299 0 .808-.035 1.321-.105 1.538-.07.216-.198.392-.382.525-.184.134-.39.201-.618.201a1.03 1.03 0 0 1-.618-.2l-.487-3.277Zm.431-13.179-.626.015-.626.015-.855.01a67.5 67.5 0 0 1-1.939-.007 8.386 8.386 0 0 1-2.046-.277 4.291 4.291 0 0 1-1.739-.942 4.217 4.217 0 0 1-1.156-1.654 4.282 4.282 0 0 1-.272-2.021c.071-.7.3-1.346.684-1.94.385-.592.957-1.04 1.716-1.341.759-.302 1.708-.351 2.847-.148 1.14.204 2.017.58 2.633 1.13.616.55 1.186 1.31 1.71 2.282.524.973.87 1.636 1.038 1.99.168.355.157.705-.03 1.05a1.097 1.097 0 0 1-.867.591c-.39.05-.719-.067-.988-.353a1.096 1.096 0 0 1-.295-1.007c.072-.385.286-.662.64-.83a1.096 1.096 0 0 1 1.05.03c.344.189.541.477.591.867.05.389-.067.718-.353.988-.285.269-.62.367-1.006.295-.386-.073-1.007-.699-1.863-1.878-.857-1.18-1.678-1.867-2.465-2.063-.787-.196-1.33-.057-1.627.416-.298.474-.243.925.163 1.353.405.428.96.694 1.664.797.703.103 1.34.158 1.91.165.57.007 1.064.016 1.48.026.418.01.748.015.99.015.243 0 .483.039.72.116.238.077.43.217.577.42.147.201.22.427.22.677 0 .25-.073.476-.22.678l-1.66.535Z"/><path d="m15.674 7.383.626-.015.626-.015.855-.01a14.53 14.53 0 0 0 1.91-.166c.704-.103 1.259-.369 1.665-.797.405-.428.46-.88.162-1.353-.297-.473-.84-.612-1.627-.416s-1.608.884-2.465 2.063c-.856 1.18-1.477 1.805-1.862 1.878a1.096 1.096 0 0 1-1.007-.295 1.096 1.096 0 0 1-.353-.988c.05-.39.247-.678.591-.867a1.096 1.096 0 0 1 1.05-.03c.354.168.568.445.64.83.073.386-.026.722-.295 1.007-.27.286-.599.403-.988.353a1.097 1.097 0 0 1-.866-.592 1.097 1.097 0 0 1-.03-1.048c.167-.355.513-1.018 1.037-1.99.524-.973 1.094-1.734 1.71-2.283.616-.55 1.494-.926 2.633-1.13 1.139-.203 2.088-.154 2.847.148.759.301 1.33.749 1.716 1.342a4.31 4.31 0 0 1 .684 1.939c.071.7-.02 1.373-.273 2.02a4.217 4.217 0 0 1-1.155 1.655 4.291 4.291 0 0 1-1.739.942 8.385 8.385 0 0 1-2.046.277 67.5 67.5 0 0 1-1.94.008c-.57-.007-1.063-.016-1.48-.026-.417-.01-.747-.015-.99-.015-.242 0-.482-.039-.72-.116a1.125 1.125 0 0 1-.576-.42 1.126 1.126 0 0 1-.22-.677c0-.25.073-.476.22-.678l1.66-.535Z"/></g><defs><clipPath id="a"><path fill="#fff" d="M0 0h30v30H0z"/></clipPath></defs></svg>