<svg width="30" height="30" fill="none" xmlns="http://www.w3.org/2000/svg"><path d="m27.153 23.918-.295.637-.296.637-.674.612c-.45.408-1.143.76-2.082 1.058a4.49 4.49 0 0 1-2.826-.02 4.43 4.43 0 0 1-2.281-1.678 4.532 4.532 0 0 1-.852-2.73 4.504 4.504 0 0 1 .904-2.72 4.526 4.526 0 0 1 2.336-1.656c.962-.302 2.079-.11 3.351.577 1.272.686 2.052 1.192 2.34 1.515.288.324.386.698.293 1.12a1.21 1.21 0 0 1-.735.896 1.21 1.21 0 0 1-1.155-.068 1.21 1.21 0 0 1-.625-.975 1.21 1.21 0 0 1 .422-1.078 1.21 1.21 0 0 1 1.12-.293c.423.093.722.338.895.734a1.21 1.21 0 0 1-.067 1.156 1.21 1.21 0 0 1-.976.625c-.43.042-1.03-.239-1.798-.844-.768-.606-1.475-.838-2.12-.698s-1.083.51-1.315 1.113c-.232.603-.175 1.177.17 1.72.345.544.852.836 1.52.874.67.039 1.21-.108 1.623-.441.413-.334.673-.701.78-1.102.107-.402.222-.719.343-.95.122-.232.3-.406.534-.522a1.18 1.18 0 0 1 .738-.108c.258.044.479.16.661.347l.067 2.262Zm-15-15-.296.637-.295.637-.674.612c-.45.408-1.143.76-2.082 1.058a4.49 4.49 0 0 1-2.826-.02 4.43 4.43 0 0 1-2.28-1.678 4.533 4.533 0 0 1-.852-2.73 4.504 4.504 0 0 1 .904-2.72 4.526 4.526 0 0 1 2.336-1.656c.962-.302 2.079-.11 3.351.577 1.272.686 2.052 1.192 2.34 1.515.288.324.386.698.293 1.12a1.21 1.21 0 0 1-.735.896 1.21 1.21 0 0 1-1.155-.068 1.21 1.21 0 0 1-.625-.975 1.21 1.21 0 0 1 .422-1.078 1.21 1.21 0 0 1 1.12-.293c.423.093.722.338.895.734a1.21 1.21 0 0 1-.068 1.156 1.21 1.21 0 0 1-.975.625c-.43.042-1.03-.239-1.798-.844-.768-.606-1.475-.838-2.12-.698s-1.083.51-1.315 1.114a1.826 1.826 0 0 0 .17 1.72c.345.543.852.835 1.52.873.67.039 1.21-.108 1.623-.442.413-.333.673-.7.78-1.102a4.71 4.71 0 0 1 .343-.95c.121-.23.3-.405.534-.52.235-.117.48-.153.739-.109.257.044.478.16.66.347l.067 2.262Z" fill="currentColor" stroke="currentColor" stroke-width="2" stroke-linecap="round" stroke-linejoin="round"/><path d="m16.875 7.178.793-.032.793-.032.63.016c.421.01.983.107 1.686.29.703.181 1.315.574 1.838 1.177.524.604.857 1.418 1 2.444.143 1.025.187 2.44.133 4.243-.054 1.804-.169 2.879-.345 3.225-.176.346-.456.55-.84.61a1.085 1.085 0 0 1-.987-.32 1.085 1.085 0 0 1-.322-.988c.061-.383.264-.663.61-.84a1.085 1.085 0 0 1 1.039 0c.346.176.55.456.61.84.061.383-.046.712-.32.987a1.085 1.085 0 0 1-.988.321 1.085 1.085 0 0 1-.84-.61c-.176-.346-.283-1.19-.32-2.53-.036-1.342-.07-2.455-.1-3.338-.032-.884-.263-1.557-.695-2.02-.432-.462-.838-.736-1.219-.822a7.68 7.68 0 0 0-1.363-.161 32.035 32.035 0 0 0-1.163-.032 2.34 2.34 0 0 1-.728-.116 1.127 1.127 0 0 1-.577-.42 1.127 1.127 0 0 1-.22-.678c0-.25.073-.476.22-.678l1.675-.536Zm-8.213 7.68-.118 1.669-.118 1.668-.126 3.446c-.084 2.297-.173 3.536-.265 3.718a.57.57 0 0 1-.441.32.57.57 0 0 1-.518-.168.57.57 0 0 1-.169-.519.57.57 0 0 1 .32-.44.57.57 0 0 1 .545 0 .57.57 0 0 1 .32.44.57.57 0 0 1-.168.519.57.57 0 0 1-.518.168.57.57 0 0 1-.44-.32c-.093-.182-.182-1.421-.266-3.718-.084-2.297-.165-4.002-.244-5.114a39.483 39.483 0 0 1-.118-2.639c0-.647.037-1.084.11-1.312a1.08 1.08 0 0 1 .402-.553c.194-.14.41-.21.65-.21.24 0 .456.07.65.21l.512 2.835Z" fill="currentColor" stroke="currentColor" stroke-width="2" stroke-linecap="round" stroke-linejoin="round"/></svg>