<svg width="30" height="30" fill="none" xmlns="http://www.w3.org/2000/svg"><path d="m8.662 7.358-.118 1.669-.118 1.668-.126 3.446c-.084 2.297-.173 3.536-.265 3.718a.57.57 0 0 1-.441.32.57.57 0 0 1-.518-.168.57.57 0 0 1-.169-.519.57.57 0 0 1 .32-.44.57.57 0 0 1 .545 0 .57.57 0 0 1 .32.44.57.57 0 0 1-.168.518.57.57 0 0 1-.518.169.57.57 0 0 1-.44-.32c-.093-.182-.182-1.421-.266-3.718-.084-2.297-.165-4.002-.244-5.114a39.48 39.48 0 0 1-.118-2.639c0-.647.037-1.084.11-1.312a1.08 1.08 0 0 1 .402-.553c.194-.14.41-.21.65-.21.24 0 .456.07.65.21l.512 2.835Zm18.491 1.56-.295.637-.296.637-.674.612c-.45.408-1.143.76-2.082 1.058a4.49 4.49 0 0 1-2.826-.02 4.43 4.43 0 0 1-2.281-1.678 4.532 4.532 0 0 1-.852-2.73 4.504 4.504 0 0 1 .904-2.72 4.526 4.526 0 0 1 2.335-1.656c.963-.302 2.08-.11 3.352.577 1.272.686 2.052 1.192 2.34 1.515.288.324.386.698.293 1.12a1.21 1.21 0 0 1-.735.896 1.21 1.21 0 0 1-1.155-.068 1.21 1.21 0 0 1-.625-.975 1.21 1.21 0 0 1 .422-1.078 1.21 1.21 0 0 1 1.12-.293c.423.093.722.338.895.734a1.21 1.21 0 0 1-.068 1.156 1.21 1.21 0 0 1-.975.625c-.43.042-1.03-.239-1.798-.844-.768-.606-1.475-.838-2.12-.698s-1.083.51-1.315 1.114a1.826 1.826 0 0 0 .17 1.72c.345.543.852.835 1.52.873.67.039 1.21-.108 1.623-.442.413-.333.673-.7.78-1.102.107-.401.221-.718.343-.95.122-.23.3-.405.534-.52.234-.117.48-.153.738-.109s.479.16.661.347l.067 2.262Z" fill="currentColor" stroke="currentColor" stroke-width="2" stroke-linecap="round" stroke-linejoin="round"/><path d="m12.153 23.918-.296.637-.295.637-.674.612c-.45.408-1.143.76-2.082 1.058a4.49 4.49 0 0 1-2.826-.02 4.43 4.43 0 0 1-2.28-1.678 4.533 4.533 0 0 1-.852-2.73 4.504 4.504 0 0 1 .904-2.72 4.526 4.526 0 0 1 2.336-1.656c.962-.302 2.079-.11 3.351.577 1.272.686 2.052 1.192 2.34 1.515.288.324.386.698.293 1.12a1.21 1.21 0 0 1-.735.896 1.21 1.21 0 0 1-1.155-.068 1.21 1.21 0 0 1-.625-.975 1.21 1.21 0 0 1 .422-1.078 1.21 1.21 0 0 1 1.12-.293c.423.093.722.338.895.734a1.21 1.21 0 0 1-.068 1.156 1.21 1.21 0 0 1-.975.625c-.43.042-1.03-.239-1.798-.844-.768-.606-1.475-.838-2.12-.698s-1.083.51-1.315 1.113c-.232.603-.175 1.177.17 1.72.345.544.852.836 1.52.874.67.039 1.21-.108 1.623-.441.413-.334.673-.701.78-1.102.107-.402.221-.719.343-.95.121-.232.3-.406.534-.522.234-.116.48-.152.738-.108s.479.16.661.347l.067 2.262Z" fill="currentColor" stroke="currentColor" stroke-width="2" stroke-linecap="round" stroke-linejoin="round"/><path d="m22.388 13.3-.21.887-.209.886-.351.884a12.461 12.461 0 0 1-3.296 4.697c-.485.431-1.47.994-2.953 1.688-1.483.694-2.408 1.064-2.773 1.112a1.03 1.03 0 0 1-.929-.33 1.03 1.03 0 0 1-.28-.945 1.03 1.03 0 0 1 .602-.781 1.03 1.03 0 0 1 .985.026c.324.177.51.448.557.813a1.03 1.03 0 0 1-.33.929 1.03 1.03 0 0 1-.945.28 1.03 1.03 0 0 1-.781-.602 1.03 1.03 0 0 1 .027-.985c.176-.324.903-.772 2.182-1.344 1.278-.572 2.302-1.214 3.072-1.927a9.812 9.812 0 0 0 1.908-2.414c.502-.896.848-1.643 1.037-2.243.19-.6.316-1.189.379-1.766s.146-.98.248-1.206c.103-.227.263-.402.48-.525.216-.123.448-.17.695-.143.248.028.464.126.648.294l.237 2.715Z" fill="currentColor" stroke="currentColor" stroke-width="2" stroke-linecap="round" stroke-linejoin="round"/></svg>