<svg width="30" height="30" fill="none" xmlns="http://www.w3.org/2000/svg"><g clip-path="url(#a)" fill="currentColor" stroke="currentColor" stroke-width="2" stroke-linecap="round" stroke-linejoin="round"><path d="m20.922 16.808-.58.927-.578.927-1.24 1.015c-.826.678-1.554 1.083-2.184 1.218a6.051 6.051 0 0 1-1.904.1A6.034 6.034 0 0 1 11.04 19.5a5.958 5.958 0 0 1-1.86-3.22 6.07 6.07 0 0 1-.1-1.912 6.054 6.054 0 0 1 1.504-3.403 5.97 5.97 0 0 1 3.226-1.86 6.093 6.093 0 0 1 1.914-.1c.641.068 1.519.55 2.632 1.448 1.113.898 1.8 1.493 2.061 1.787.262.294.35.633.266 1.018a1.1 1.1 0 0 1-.667.813 1.1 1.1 0 0 1-1.05-.062 1.1 1.1 0 0 1-.567-.886 1.1 1.1 0 0 1 .383-.979 1.1 1.1 0 0 1 1.018-.266c.384.085.655.307.813.667.158.36.137.71-.062 1.05-.199.34-.494.529-.885.567-.392.04-1.001-.331-1.828-1.11-.826-.78-1.617-1.214-2.37-1.305-.754-.09-1.44.041-2.057.396a3.192 3.192 0 0 0-1.364 1.523 3.282 3.282 0 0 0-.21 2.05 3.25 3.25 0 0 0 1.02 1.78c.53.48 1.16.758 1.89.833a3.359 3.359 0 0 0 2.046-.425c.634-.359 1.088-.724 1.363-1.096.275-.371.469-.81.58-1.316.113-.505.233-.865.363-1.077.13-.213.31-.367.539-.464.23-.096.466-.115.708-.058.243.058.445.18.608.37l-.032 2.545Z"/><path d="M3.02 13.787s.276 0 .827-.003l.827-.003 1.709.012c1.139.007 1.87.094 2.192.258.323.165.513.426.57.783.056.358-.044.665-.3.921a1.012 1.012 0 0 1-.92.3 1.012 1.012 0 0 1-.784-.57 1.012 1.012 0 0 1 0-.968c.164-.323.425-.512.783-.57.358-.056.665.044.921.3s.356.563.3.921a1.012 1.012 0 0 1-.57.784c-.323.164-1.053.25-2.192.258a262.83 262.83 0 0 1-3.844.005c-.321 0-.6-.038-.838-.116a1.127 1.127 0 0 1-.578-.419 1.127 1.127 0 0 1-.22-.679c0-.25.073-.476.22-.678l1.897-.536Zm19.95 0s.276 0 .827-.003l.827-.003 1.709.012c1.139.007 1.87.094 2.192.258.323.165.513.426.57.783.056.358-.044.665-.3.921a1.012 1.012 0 0 1-.92.3 1.012 1.012 0 0 1-.784-.57 1.012 1.012 0 0 1 0-.968c.164-.323.425-.512.783-.57.358-.056.665.044.921.3s.356.563.3.921a1.012 1.012 0 0 1-.57.784c-.323.164-1.053.25-2.192.258a262.837 262.837 0 0 1-3.844.005c-.321 0-.6-.038-.838-.116a1.127 1.127 0 0 1-.578-.419 1.127 1.127 0 0 1-.22-.679c0-.25.073-.476.22-.678l1.897-.536Z"/></g><defs><clipPath id="a"><path fill="#fff" d="M0 0h30v30H0z"/></clipPath></defs></svg>