<svg width="30" height="30" fill="none" xmlns="http://www.w3.org/2000/svg"><g clip-path="url(#a)"><path d="m7.864 25.328-1.16-.346-1.16-.346-1.526-1.37c-1.017-.914-1.526-1.489-1.528-1.725a1.066 1.066 0 0 1 .204-.643 1.07 1.07 0 0 1 .544-.401c.224-.075.839.114 1.843.565 1.004.451 3.126 1.388 6.365 2.811 3.24 1.424 5.222 2.124 5.948 2.1.727-.022 1.148-.466 1.266-1.332.118-.865-.079-1.891-.59-3.08-.51-1.187-.733-1.88-.665-2.077a.94.94 0 0 1 .356-.476.94.94 0 0 1 .568-.176c.208.003.44-.044.696-.14a55.01 55.01 0 0 0 1.74-.726c.904-.389 1.608-.809 2.114-1.262.506-.453.935-1.028 1.29-1.725.354-.697.61-1.497.768-2.4.158-.904.152-1.753-.018-2.548a11.875 11.875 0 0 0-.795-2.391 7.086 7.086 0 0 1-.625-2.427c-.058-.82-.245-1.431-.56-1.833-.317-.403-.895-.348-1.734.163-.84.512-1.694.766-2.563.764a169.28 169.28 0 0 1-3.034-.042 65.435 65.435 0 0 0-3.286.005c-1.037.03-1.955-.092-2.753-.364-.798-.273-1.495-.429-2.09-.47-.595-.04-.877.3-.846 1.023a9.274 9.274 0 0 1-.191 2.259c-.16.784-.356 1.567-.59 2.348-.232.782-.343 1.786-.33 3.013.012 1.226.176 2.182.493 2.865.317.684.723 1.252 1.217 1.703a6.28 6.28 0 0 0 1.667 1.092c.617.277 1.232.562 1.846.856.613.294 1.033.752 1.259 1.373a3.47 3.47 0 0 1 .143 1.905c-.13.649-.185 1.647-.163 2.995.022 1.347-.06 2.204-.246 2.569a1.145 1.145 0 0 1-.886.643 1.144 1.144 0 0 1-1.041-.338 1.144 1.144 0 0 1-.338-1.041c.064-.405.278-.7.643-.886.365-.186.73-.186 1.095 0s.58.48.644.886c.064.404-.05.751-.339 1.04-.29.29-.636.403-1.041.34a1.144 1.144 0 0 1-.886-.645c-.186-.364-.26-1.273-.224-2.725.037-1.452.225-2.458.566-3.017.34-.56.26-.982-.242-1.269a35.488 35.488 0 0 0-1.926-1.004 8.49 8.49 0 0 1-2.154-1.518 8.696 8.696 0 0 1-1.668-2.25c-.458-.873-.786-1.977-.986-3.315-.2-1.337-.211-2.473-.035-3.407.177-.933.372-1.724.586-2.372a9.042 9.042 0 0 0 .415-2.067c.063-.73.239-1.457.528-2.18.29-.722.74-1.205 1.349-1.448.61-.243 1.334-.25 2.175-.02.84.23 1.745.423 2.715.58.97.156 2.046.23 3.226.224a49 49 0 0 1 3.288.084c1.012.063 2.036-.09 3.072-.458S22.255.691 23.11.63c.854-.062 1.503.17 1.947.695.443.525.713 1.149.81 1.87.098.722.175 1.428.233 2.118.057.69.194 1.408.41 2.154.216.745.34 1.592.369 2.54.03.95-.048 1.986-.233 3.11-.184 1.126-.507 2.14-.97 3.041-.463.902-1.028 1.643-1.696 2.221a8.425 8.425 0 0 1-2.093 1.353c-.728.324-1.55.44-2.47.346-.918-.092-1.5-.165-1.745-.218-.246-.053-.335-.178-.267-.375a.94.94 0 0 1 .356-.476.94.94 0 0 1 .568-.176c.208.003.532.644.97 1.924.44 1.28.64 2.252.604 2.915-.036.663-.223 1.36-.56 2.093-.336.733-.962 1.099-1.878 1.098-.916 0-3.107-.629-6.574-1.886a996.48 996.48 0 0 1-6.8-2.483c-1.065-.398-1.599-.716-1.6-.952a1.066 1.066 0 0 1 .203-.643 1.07 1.07 0 0 1 .544-.401c.224-.075.998.307 2.32 1.144 1.322.837 2.477 1.246 3.464 1.226.987-.02 1.605-.007 1.853.039.249.046.46.16.634.343.174.184.278.4.31.65.034.251-.01.487-.13.71l-3.825.719Z" fill="currentColor"/><path d="M3.238 20.497a1.066 1.066 0 0 0-.544.4 1.066 1.066 0 0 0-.204.644c.002.236.511.811 1.528 1.725l1.525 1.37 1.16.346 1.16.346 3.826-.72c.12-.222.164-.458.13-.708a1.138 1.138 0 0 0-.31-.65 1.138 1.138 0 0 0-.634-.344c-.248-.046-.866-.059-1.853-.039-.987.02-2.142-.389-3.464-1.226s-2.096-1.219-2.32-1.144Zm0 0c.224-.075.839.114 1.843.565 1.004.451 3.126 1.388 6.365 2.811 3.24 1.424 5.222 2.124 5.948 2.1.727-.022 1.148-.466 1.266-1.332.118-.865-.079-1.891-.59-3.08-.51-1.187-.733-1.88-.665-2.077a.94.94 0 0 1 .356-.476M3.238 20.497a1.066 1.066 0 0 0-.544.4 1.066 1.066 0 0 0-.204.644c.002.236.536.554 1.602.952a996.48 996.48 0 0 0 6.799 2.483c3.467 1.257 5.658 1.886 6.574 1.886.916 0 1.542-.365 1.879-1.098.336-.733.523-1.43.559-2.093.037-.663-.165-1.635-.604-2.915-.438-1.28-.762-1.921-.97-1.924m-.568.176a.94.94 0 0 1 .568-.176m-.568.176a.94.94 0 0 0-.356.476c-.068.197.021.322.267.375.245.053.827.126 1.745.218.92.093 1.742-.022 2.47-.346a8.425 8.425 0 0 0 2.093-1.353c.668-.578 1.233-1.319 1.696-2.22.463-.903.786-1.916.97-3.041.185-1.125.262-2.162.233-3.11-.03-.949-.153-1.796-.369-2.541a11.056 11.056 0 0 1-.41-2.154 41.887 41.887 0 0 0-.233-2.118 3.576 3.576 0 0 0-.81-1.87C24.613.798 23.963.567 23.11.629c-.855.062-1.8.277-2.836.645-1.036.368-2.06.52-3.072.458a49 49 0 0 0-3.288-.084 19.657 19.657 0 0 1-3.226-.225c-.97-.156-1.875-.35-2.715-.579-.84-.23-1.565-.223-2.175.02-.61.243-1.06.726-1.349 1.448a7.586 7.586 0 0 0-.528 2.18 9.042 9.042 0 0 1-.415 2.067c-.214.648-.409 1.439-.586 2.372-.176.934-.165 2.07.035 3.407.2 1.338.528 2.443.986 3.314a8.696 8.696 0 0 0 1.668 2.25 8.49 8.49 0 0 0 2.154 1.519c.782.383 1.424.718 1.926 1.004.502.287.583.71.242 1.269-.34.56-.53 1.565-.566 3.017-.036 1.452.038 2.36.224 2.726.186.364.481.579.886.643.405.064.752-.049 1.041-.338.29-.29.403-.637.339-1.041a1.144 1.144 0 0 0-.644-.886 1.144 1.144 0 0 0-1.095 0 1.14 1.14 0 0 0-.643.886 1.14 1.14 0 0 0 .338 1.04c.29.29.637.403 1.041.34.405-.065.7-.28.886-.645.186-.364.268-1.22.246-2.568-.022-1.348.033-2.346.163-2.994a3.47 3.47 0 0 0-.143-1.906c-.226-.621-.646-1.079-1.26-1.373A82.251 82.251 0 0 0 8.9 17.74a6.265 6.265 0 0 1-1.667-1.092c-.494-.451-.9-1.019-1.217-1.702-.317-.684-.481-1.64-.494-2.866-.012-1.227.099-2.231.332-3.013.233-.781.429-1.564.589-2.348.16-.784.223-1.537.191-2.26-.031-.721.25-1.062.846-1.021.595.04 1.292.196 2.09.469.798.272 1.716.394 2.753.364a65.435 65.435 0 0 1 3.286-.005c1.154.025 2.166.04 3.034.042.869.002 1.723-.252 2.563-.764.84-.511 1.417-.566 1.733-.163.316.402.503 1.013.56 1.833.058.82.267 1.628.626 2.427.36.799.625 1.596.795 2.39.17.796.176 1.645.018 2.549-.158.903-.414 1.703-.768 2.4-.355.697-.784 1.272-1.29 1.725-.506.453-1.21.873-2.114 1.262a55.01 55.01 0 0 1-1.74.726 1.925 1.925 0 0 1-.696.14" stroke="currentColor" stroke-width="2" stroke-linecap="round" stroke-linejoin="round"/></g><defs><clipPath id="a"><path fill="#fff" d="M0 0h30v30H0z"/></clipPath></defs></svg>