<svg width="30" height="30" fill="none" xmlns="http://www.w3.org/2000/svg"><g clip-path="url(#a)"><path d="m27.129 20.617-1.569.956-1.568.956-1.878 1.176a76.646 76.646 0 0 0-3.417 2.26c-1.027.723-1.868 1.265-2.524 1.627a2.54 2.54 0 0 1-2.068.202c-.722-.227-1.61-.715-2.662-1.464a107.667 107.667 0 0 1-3.34-2.482 111.019 111.019 0 0 0-3.277-2.442c-1.01-.722-1.82-1.298-2.426-1.73-.606-.431-1.079-.91-1.418-1.438-.338-.528-.446-1.2-.322-2.017.125-.818.318-1.692.58-2.622.26-.931.567-1.948.918-3.05.351-1.102.679-2.07.983-2.903.305-.834.58-1.627.829-2.381a17.94 17.94 0 0 1 .769-1.983c.265-.568.663-.94 1.194-1.116.53-.176 1.028-.016 1.49.48.464.497.837 1.197 1.119 2.1.282.904.542 1.78.78 2.63.238.851.55 1.615.94 2.292.388.677 1.007 1.137 1.857 1.38.85.243 1.726.383 2.624.42.899.036 1.74-.026 2.526-.187.785-.16 1.429-.602 1.933-1.326.503-.724.905-1.498 1.204-2.322.3-.823.572-1.611.817-2.364a18.12 18.12 0 0 1 .76-1.98c.262-.566.668-.903 1.218-1.01.55-.106 1.08.155 1.59.783.511.628.87 1.294 1.078 1.998.207.703.43 1.481.669 2.333.239.852.48 1.661.726 2.428.245.767.499 1.495.762 2.186.263.69.532 1.404.805 2.139.274.734.453 1.56.537 2.477.084.916.096 1.582.035 1.998-.061.415-.278.72-.65.915a1.17 1.17 0 0 1-1.122.013 1.173 1.173 0 0 1-.67-.9c-.07-.414.042-.77.335-1.071.293-.3.648-.42 1.063-.36.415.062.72.278.915.65.195.372.2.746.013 1.122-.186.376-.486.6-.9.67-.414.07-.77-.041-1.07-.334-.301-.294-.446-.915-.436-1.863.01-.949-.1-1.8-.327-2.553-.229-.754-.443-1.489-.644-2.204a50.81 50.81 0 0 0-.682-2.222 95.926 95.926 0 0 0-.97-2.76c-.393-1.075-.739-1.458-1.036-1.15-.297.308-.575.89-.834 1.748a42.73 42.73 0 0 1-.818 2.451c-.287.776-.83 1.386-1.63 1.829a6.604 6.604 0 0 1-2.53.806 34.57 34.57 0 0 1-2.708.18c-.918.025-1.8.025-2.646 0-.846-.025-1.613-.346-2.302-.962a6.487 6.487 0 0 1-1.586-2.113 33.867 33.867 0 0 1-1.13-2.794c-.384-1.07-.72-1.45-1.01-1.14-.289.31-.555.892-.799 1.745a75.29 75.29 0 0 1-.91 2.926c-.362 1.097-.71 2.1-1.042 3.006-.332.907-.541 1.74-.626 2.497-.085.757.1 1.408.554 1.954.455.546 1.183 1.185 2.183 1.92 1 .733 2.113 1.508 3.339 2.322a148.57 148.57 0 0 0 3.743 2.409c1.27.79 2.286 1.131 3.048 1.022.762-.11 1.634-.532 2.614-1.268a76.395 76.395 0 0 0 3.17-2.526 332.583 332.583 0 0 0 3.09-2.62c.93-.797 1.681-1.405 2.255-1.822.574-.417.973-.662 1.197-.735a1.06 1.06 0 0 1 .671 0c.224.073.405.204.543.394.138.19.208.403.208.639l-2.137 2.175Z" fill="currentColor" stroke="currentColor" stroke-width="2" stroke-linecap="round" stroke-linejoin="round"/></g><defs><clipPath id="a"><path fill="#fff" d="M0 0h30v30H0z"/></clipPath></defs></svg>