<svg width="30" height="30" fill="none" xmlns="http://www.w3.org/2000/svg"><path d="m27.199 18.99-.98 1.667-.979 1.668-1.402 1.367a13.25 13.25 0 0 1-3.152 2.28 12.767 12.767 0 0 1-3.73 1.255c-1.319.23-2.639.257-3.96.081a12.498 12.498 0 0 1-3.744-1.103 12.307 12.307 0 0 1-5.523-5.213 12.315 12.315 0 0 1-1.307-3.68 12.514 12.514 0 0 1-.108-3.946 12.403 12.403 0 0 1 3.267-6.918 12.314 12.314 0 0 1 6.725-3.656 12.53 12.53 0 0 1 3.946-.107c1.32.172 2.567.538 3.743 1.098 1.176.559 2.487 1.672 3.932 3.34 1.446 1.667 2.198 2.566 2.255 2.695a.4.4 0 0 1-.021.38.396.396 0 0 1-.319.205.396.396 0 0 1-.353-.137.396.396 0 0 1-.098-.367.396.396 0 0 1 .24-.294.396.396 0 0 1 .379.021.396.396 0 0 1 .205.319.396.396 0 0 1-.137.353.396.396 0 0 1-.366.098c-.139-.03-.901-.862-2.287-2.494-1.386-1.633-2.622-2.715-3.707-3.246a11.493 11.493 0 0 0-3.46-1.056 11.614 11.614 0 0 0-3.661.06 11.412 11.412 0 0 0-6.27 3.32 11.498 11.498 0 0 0-3.097 6.38 11.614 11.614 0 0 0 .06 3.661 11.412 11.412 0 0 0 3.32 6.27 11.422 11.422 0 0 0 6.38 3.094c1.222.17 2.437.143 3.646-.083a11.147 11.147 0 0 0 3.381-1.21 10.91 10.91 0 0 0 2.753-2.157c.79-.858 1.42-1.798 1.89-2.82.472-1.022.848-2.166 1.128-3.43.28-1.263.47-1.979.567-2.145a.87.87 0 0 1 .414-.365.871.871 0 0 1 .55-.052.871.871 0 0 1 .474.28l-.594 4.587Z" fill="currentColor" stroke="currentColor" stroke-width="2" stroke-linecap="round" stroke-linejoin="round"/><path d="M8.366 13.988a57650.408 57650.408 0 0 0 5.562.477l5.742.033c3.828.022 5.806.066 5.932.13.127.064.2.166.223.307a.396.396 0 0 1-.117.36c-.1.1-.22.14-.36.117a.396.396 0 0 1-.308-.222.396.396 0 0 1 0-.38.396.396 0 0 1 .307-.223c.14-.022.26.017.36.118.101.1.14.22.118.36a.396.396 0 0 1-.223.307c-.126.065-2.104.108-5.932.13-3.828.022-6.669.112-8.523.272-1.854.159-3.32.239-4.398.239-1.078 0-1.716-.033-1.915-.097a.94.94 0 0 1-.481-.35.94.94 0 0 1-.184-.566.94.94 0 0 1 .184-.566l4.013-.446Z" fill="currentColor" stroke="currentColor" stroke-width="2" stroke-linecap="round" stroke-linejoin="round"/><path d="m17.511 4.865.646 1.203.646 1.203.506 1.322c.338.88.617 1.785.837 2.712.22.927.373 1.868.457 2.823.084.955.09 1.913.017 2.872-.072.96-.214 1.904-.425 2.832a19.758 19.758 0 0 1-.828 2.72 13.76 13.76 0 0 1-1.345 2.599 7.243 7.243 0 0 1-2.093 2.098c-.84.552-1.555.607-2.147.163-.592-.443-1.15-1.056-1.672-1.84a14.633 14.633 0 0 1-1.329-2.48 18.906 18.906 0 0 1-1.375-5.497 17.21 17.21 0 0 1-.032-2.865c.069-.958.207-1.9.416-2.829a19.63 19.63 0 0 1 2.018-5.278c.459-.82.962-1.64 1.51-2.46.548-.819.939-1.312 1.172-1.48a.8.8 0 0 1 .757-.116.8.8 0 0 1 .54.545.801.801 0 0 1-.124.756.8.8 0 0 1-.685.345.801.801 0 0 1-.681-.352.801.801 0 0 1-.116-.757.801.801 0 0 1 .545-.54.801.801 0 0 1 .756.124.8.8 0 0 1 .344.685c-.001.286-.303.825-.907 1.617a20.662 20.662 0 0 0-1.554 2.334 17.764 17.764 0 0 0-1.88 4.833 17.16 17.16 0 0 0-.386 2.555c-.065.86-.054 1.722.031 2.584.086.862.236 1.71.45 2.542a17.282 17.282 0 0 0 1.885 4.53c.39.644.83 1.182 1.32 1.614.491.432.856.456 1.095.07.24-.387.527-.949.863-1.687.335-.738.66-1.51.971-2.317a17.64 17.64 0 0 0 .755-2.475c.19-.843.316-1.694.376-2.553.06-.86.046-1.72-.045-2.58-.09-.86-.247-1.705-.47-2.537a17.311 17.311 0 0 0-.84-2.418 18.01 18.01 0 0 0-1.15-2.22 27.94 27.94 0 0 0-1.451-2.138c-.54-.725-.848-1.197-.922-1.418a1.048 1.048 0 0 1-.008-.663c.07-.223.197-.403.384-.542s.396-.21.629-.212l2.54 2.573Z" fill="currentColor" stroke="currentColor" stroke-width="2" stroke-linecap="round" stroke-linejoin="round"/></svg>