<svg width="30" height="30" fill="none" xmlns="http://www.w3.org/2000/svg"><path d="M4.888 2.575a70315.346 70315.346 0 0 0 1.946.02l1.176.031c.783.021 1.53.05 2.242.086.71.036 1.339.23 1.884.583.545.353.936 1.03 1.174 2.03.238 1 .35 1.896.335 2.691a76.033 76.033 0 0 1-.073 2.261c-.034.713-.227 1.342-.579 1.888-.352.545-1.027.936-2.026 1.174-1 .238-1.896.35-2.69.335a76.083 76.083 0 0 1-2.262-.072c-.713-.034-1.342-.227-1.887-.579-.545-.351-.936-1.027-1.174-2.026-.238-.999-.351-2.174-.34-3.524.01-1.35.092-2.178.245-2.484a.953.953 0 0 1 .733-.542.953.953 0 0 1 .87.275c.243.24.34.528.29.865a.953.953 0 0 1-.531.743.953.953 0 0 1-.912.007.953.953 0 0 1-.543-.733.953.953 0 0 1 .275-.87.953.953 0 0 1 .866-.29.955.955 0 0 1 .742.53c.157.304.301 1.298.432 2.985.13 1.686.494 2.683 1.092 2.99.598.307 1.46.395 2.59.264 1.13-.132 1.847-.496 2.154-1.094.307-.597.395-1.46.263-2.589-.131-1.128-.497-1.846-1.096-2.154-.6-.307-1.29-.45-2.074-.43a135.15 135.15 0 0 1-3.688.052c-.377 0-.685-.038-.922-.115a1.125 1.125 0 0 1-.577-.42 1.125 1.125 0 0 1-.22-.677c0-.25.074-.475.22-.677l2.065-.534Zm13.75 0a64251.9 64251.9 0 0 0 1.946.02l1.176.031c.783.021 1.53.05 2.242.086.71.036 1.339.23 1.884.583.545.353.936 1.03 1.174 2.03.238 1 .35 1.896.335 2.691a76.033 76.033 0 0 1-.073 2.261c-.034.713-.227 1.342-.579 1.888-.352.545-1.027.936-2.026 1.174-1 .238-1.896.35-2.69.335a76.076 76.076 0 0 1-2.262-.072c-.713-.034-1.342-.227-1.887-.579-.545-.351-.936-1.027-1.174-2.026-.238-.999-.351-2.174-.34-3.524.01-1.35.092-2.178.244-2.484a.953.953 0 0 1 .734-.542.953.953 0 0 1 .87.275c.244.24.34.528.29.865a.953.953 0 0 1-.531.743.953.953 0 0 1-.912.007.954.954 0 0 1-.543-.733.954.954 0 0 1 .275-.87.953.953 0 0 1 .866-.29.955.955 0 0 1 .742.53c.157.304.301 1.298.432 2.985.13 1.686.494 2.683 1.092 2.99.598.307 1.46.395 2.59.264 1.13-.132 1.847-.496 2.154-1.094.307-.597.395-1.46.263-2.589-.131-1.128-.497-1.846-1.096-2.154-.6-.307-1.29-.45-2.074-.43a135.173 135.173 0 0 1-3.688.052c-.377 0-.685-.038-.922-.115a1.125 1.125 0 0 1-.577-.42 1.125 1.125 0 0 1-.22-.677c0-.25.074-.475.22-.677l2.065-.534Zm0 13.75a7181.796 7181.796 0 0 0 1.946.02l1.176.032c.783.02 1.53.049 2.242.085.71.036 1.339.23 1.884.583.545.353.936 1.03 1.174 2.03.238 1 .35 1.896.335 2.691a76.034 76.034 0 0 1-.073 2.261c-.034.713-.227 1.342-.579 1.887-.352.546-1.027.937-2.026 1.175-1 .238-1.896.35-2.69.335a76.076 76.076 0 0 1-2.262-.072c-.713-.034-1.342-.227-1.887-.579-.545-.351-.936-1.027-1.174-2.026-.238-.999-.351-2.174-.34-3.524.01-1.35.092-2.178.244-2.484a.953.953 0 0 1 .734-.542.953.953 0 0 1 .87.275c.244.24.34.528.29.865a.953.953 0 0 1-.531.743.953.953 0 0 1-.912.007.953.953 0 0 1-.543-.733.954.954 0 0 1 .275-.87.954.954 0 0 1 .866-.29.955.955 0 0 1 .742.53c.157.304.301 1.298.432 2.985.13 1.686.494 2.683 1.092 2.99.598.307 1.46.395 2.59.264 1.13-.132 1.847-.496 2.154-1.094.307-.597.395-1.46.263-2.589-.131-1.128-.497-1.846-1.096-2.154-.6-.307-1.29-.45-2.074-.43a135.965 135.965 0 0 1-3.688.052c-.377 0-.685-.038-.922-.115a1.126 1.126 0 0 1-.577-.42 1.125 1.125 0 0 1-.22-.677c0-.25.074-.475.22-.677l2.065-.534Zm-13.75 0 .973.01.973.01 1.176.032c.783.02 1.53.049 2.242.085.71.036 1.339.23 1.884.583.545.353.936 1.03 1.174 2.03.238 1 .35 1.896.335 2.691a76.034 76.034 0 0 1-.073 2.261c-.034.713-.227 1.342-.579 1.887-.352.546-1.027.937-2.026 1.175-1 .238-1.896.35-2.69.335a76.083 76.083 0 0 1-2.262-.072c-.713-.034-1.342-.227-1.887-.579-.545-.351-.936-1.027-1.174-2.026-.238-.999-.351-2.174-.34-3.524.01-1.35.092-2.178.245-2.484a.953.953 0 0 1 .733-.542.953.953 0 0 1 .87.275c.243.24.34.528.29.865a.953.953 0 0 1-.531.743.953.953 0 0 1-.912.007.953.953 0 0 1-.543-.733.953.953 0 0 1 .275-.87.954.954 0 0 1 .866-.29.955.955 0 0 1 .742.53c.157.304.301 1.298.432 2.985.13 1.686.494 2.683 1.092 2.99.598.307 1.46.395 2.59.264 1.13-.132 1.847-.496 2.154-1.094.307-.597.395-1.46.263-2.589-.131-1.128-.497-1.846-1.096-2.154-.6-.307-1.29-.45-2.074-.43a135.942 135.942 0 0 1-3.688.052c-.377 0-.685-.038-.922-.115a1.125 1.125 0 0 1-.577-.42 1.125 1.125 0 0 1-.22-.677c0-.25.074-.475.22-.677l2.065-.534Z" fill="currentColor" stroke="currentColor" stroke-width="2" stroke-linecap="round" stroke-linejoin="round"/></svg>