<svg width="30" height="30" fill="none" xmlns="http://www.w3.org/2000/svg"><path d="m21.634 16.013-2.781-.24-2.781-.238-5.742-.033c-3.828-.022-5.806-.066-5.932-.13a.396.396 0 0 1-.223-.307.396.396 0 0 1 .117-.36c.1-.1.22-.14.36-.117a.397.397 0 0 1 .308.222.396.396 0 0 1 0 .38.396.396 0 0 1-.307.223.396.396 0 0 1-.36-.118.394.394 0 0 1-.118-.36.396.396 0 0 1 .223-.307c.126-.065 2.104-.108 5.932-.13 3.828-.022 6.669-.112 8.523-.272 1.854-.159 3.32-.239 4.398-.239 1.078 0 1.716.033 1.915.097a.94.94 0 0 1 .481.35.94.94 0 0 1 .184.566.94.94 0 0 1-.184.566l-4.013.447Z" fill="currentColor" stroke="currentColor" stroke-width="2" stroke-linecap="round" stroke-linejoin="round"/><path d="m7.36 8.11-.498.948-.5.949-.619 1.136a43.595 43.595 0 0 0-1.115 2.18 8.902 8.902 0 0 0-.708 2.17c-.142.75-.217 1.642-.224 2.676a58.29 58.29 0 0 0 .024 2.516 4.07 4.07 0 0 0 .467 1.781c.288.544.928.903 1.92 1.079.992.175 2.231.346 3.718.512a87.05 87.05 0 0 0 4.92.395c1.792.097 3.442.146 4.95.146s2.697-.025 3.567-.076c.87-.05 1.566-.234 2.087-.552.522-.317.834-.876.937-1.676.103-.8.15-1.73.14-2.79-.011-1.06-.067-1.966-.167-2.72-.1-.754-.341-1.646-.723-2.676a41.484 41.484 0 0 0-1.109-2.725 68.746 68.746 0 0 0-1.05-2.213c-.344-.69-.721-1.26-1.132-1.71-.41-.451-.98-.743-1.707-.876a20.328 20.328 0 0 0-2.418-.28c-.885-.053-1.86-.114-2.927-.184A56.973 56.973 0 0 0 12.17 6c-.949-.011-1.781.053-2.499.194-.717.14-1.323.421-1.816.844-.493.422-.923.587-1.29.494a1.055 1.055 0 0 1-.76-.664 1.06 1.06 0 0 1 .09-1.006c.201-.32.49-.492.867-.518.377-.025.686.107.929.397.242.29.317.618.224.984-.092.367-.313.62-.664.761-.35.14-.686.11-1.006-.09a1.057 1.057 0 0 1-.518-.867 1.055 1.055 0 0 1 .397-.929c.29-.242.762-.537 1.417-.886a4.53 4.53 0 0 1 2.09-.54c.738-.012 1.582-.024 2.534-.037.951-.013 1.96-.054 3.027-.123 1.067-.07 2.045-.13 2.934-.183.89-.052 1.773-.014 2.651.115.878.129 1.604.412 2.179.85a4.807 4.807 0 0 1 1.332 1.517c.314.574.645 1.207.995 1.9.349.691.731 1.42 1.146 2.186a98.96 98.96 0 0 1 1.144 2.168c.347.68.6 1.402.759 2.166.159.765.25 1.486.273 2.165.023.678.029 1.552.016 2.622a16.025 16.025 0 0 1-.278 2.913c-.172.873-.497 1.552-.972 2.038a3.033 3.033 0 0 1-1.733.892c-.679.108-1.462.164-2.35.168-.888.003-2.086.004-3.594.004a92.31 92.31 0 0 0-4.951.145c-1.793.097-3.664.23-5.614.397-1.95.167-3.446.152-4.488-.048-1.043-.2-1.8-.598-2.27-1.196a4.062 4.062 0 0 1-.853-2.007 16.04 16.04 0 0 1-.148-2.113c0-.668.009-1.567.026-2.695s.149-2.152.396-3.07c.248-.92.544-1.754.89-2.505.345-.75.697-1.519 1.056-2.303.36-.785.693-1.5 1-2.145a92.55 92.55 0 0 1 .739-1.525c.186-.371.366-.646.541-.823.175-.177.385-.286.631-.327.246-.04.48-.005.702.106.223.112.392.278.506.5L7.361 8.11Z" fill="currentColor" stroke="currentColor" stroke-width="2" stroke-linecap="round" stroke-linejoin="round"/><path d="M7.506 18.855a31877.703 31877.703 0 0 0 .69.224l.212.293c.142.196.213.414.213.656 0 .242-.07.46-.213.655-.142.196-.327.33-.557.406a1.09 1.09 0 0 1-.69 0 1.089 1.089 0 0 1-.557-.405 1.089 1.089 0 0 1-.213-.656c0-.242.071-.46.213-.655l.902-.518Zm5 0 .345.112.344.112.213.293c.142.196.213.414.213.656 0 .242-.07.46-.213.655-.142.196-.327.33-.557.406a1.1 1.1 0 0 1-.69 0 1.089 1.089 0 0 1-.557-.405 1.089 1.089 0 0 1-.213-.656c0-.242.071-.46.213-.655l.902-.518Z" fill="currentColor" stroke="currentColor" stroke-width="2" stroke-linecap="round" stroke-linejoin="round"/></svg>