<svg width="30" height="30" fill="none" xmlns="http://www.w3.org/2000/svg"><path d="M9.784 10.161a41252.088 41252.088 0 0 0 4.45.398l4.593.111c3.062.074 4.657.143 4.783.208.127.064.2.166.223.307a.396.396 0 0 1-.117.36c-.1.1-.22.14-.36.117a.396.396 0 0 1-.308-.222.396.396 0 0 1 0-.38.396.396 0 0 1 .307-.223c.14-.022.26.017.36.118.101.1.14.22.118.36a.396.396 0 0 1-.223.307c-.126.065-1.72.134-4.783.208-3.063.074-5.336.177-6.819.31-1.483.132-2.656.199-3.518.199-.863 0-1.4-.035-1.614-.104a1.01 1.01 0 0 1-.517-.376 1.01 1.01 0 0 1-.198-.609c0-.224.066-.427.198-.609l3.425-.48Zm0 7.5a41252.088 41252.088 0 0 0 4.45.398l4.593.111c3.062.074 4.657.143 4.783.208.127.064.2.166.223.307a.396.396 0 0 1-.117.36c-.1.1-.22.14-.36.117a.396.396 0 0 1-.308-.222.396.396 0 0 1 0-.38.396.396 0 0 1 .307-.223c.14-.022.26.017.36.118.101.1.14.22.118.36a.396.396 0 0 1-.223.307c-.126.064-1.72.134-4.783.208-3.063.074-5.336.177-6.819.31-1.483.132-2.656.199-3.518.199-.863 0-1.4-.035-1.614-.104a1.01 1.01 0 0 1-.517-.376 1.01 1.01 0 0 1-.198-.609c0-.224.066-.427.198-.609l3.425-.48Z" fill="currentColor" stroke="currentColor" stroke-width="2" stroke-linecap="round" stroke-linejoin="round"/><path d="m12.834 9.19-.497 2.479-.498 2.478-.644 5.16c-.429 3.44-.683 5.22-.76 5.339a.396.396 0 0 1-.33.187.396.396 0 0 1-.346-.156.396.396 0 0 1-.076-.372.396.396 0 0 1 .255-.28.396.396 0 0 1 .377.042.396.396 0 0 1 .188.33.396.396 0 0 1-.156.345.396.396 0 0 1-.372.077.396.396 0 0 1-.28-.256c-.05-.132.093-1.924.43-5.374.335-3.45.523-6.019.563-7.703.039-1.685.112-3.013.22-3.983.108-.97.207-1.554.296-1.751a.975.975 0 0 1 .415-.456.975.975 0 0 1 .605-.125.975.975 0 0 1 .562.254l.048 3.766Zm7.5 0-.497 2.479-.497 2.478-.645 5.16c-.429 3.44-.683 5.22-.76 5.339a.396.396 0 0 1-.33.187.396.396 0 0 1-.346-.156.396.396 0 0 1-.076-.372.397.397 0 0 1 .255-.28.397.397 0 0 1 .377.042.396.396 0 0 1 .188.33.396.396 0 0 1-.157.345.396.396 0 0 1-.37.077.396.396 0 0 1-.281-.256c-.05-.132.093-1.924.43-5.374.335-3.45.523-6.019.563-7.703.039-1.685.112-3.013.22-3.983.108-.97.206-1.554.296-1.751a.975.975 0 0 1 .415-.456.975.975 0 0 1 .605-.125.975.975 0 0 1 .562.254l.048 3.766Z" fill="currentColor" stroke="currentColor" stroke-width="2" stroke-linecap="round" stroke-linejoin="round"/></svg>