<svg width="30" height="30" fill="none" xmlns="http://www.w3.org/2000/svg"><path d="m2.531 21.496-.003-.835-.002-.834.013-1.007c.01-.672.017-1.36.024-2.065.007-.705.033-1.477.076-2.315.044-.838.138-1.563.28-2.174a12.765 12.765 0 0 1 1.415-3.537 12.364 12.364 0 0 1 2.46-2.987 12.407 12.407 0 0 1 3.249-2.08 12.271 12.271 0 0 1 3.732-.973 12.371 12.371 0 0 1 7.447 1.627 12.278 12.278 0 0 1 2.991 2.455 12.375 12.375 0 0 1 2.082 3.245c.259.59.47 1.198.634 1.822a13.7 13.7 0 0 1 .36 2.015c.078.718.13 1.517.156 2.395.027.88.035 1.898.025 3.058-.01 1.16-.097 1.903-.263 2.23-.166.327-.43.52-.792.577a1.023 1.023 0 0 1-.932-.301 1.023 1.023 0 0 1-.304-.931c.057-.362.248-.627.574-.793.327-.167.653-.168.98-.002.327.166.519.43.577.791.058.362-.042.673-.301.932-.259.26-.57.361-.931.305a1.024 1.024 0 0 1-.793-.575c-.167-.326-.258-1.266-.274-2.819a78.394 78.394 0 0 0-.106-3.723 11.904 11.904 0 0 0-.515-2.797 10.113 10.113 0 0 0-1.298-2.687 9.721 9.721 0 0 0-2.083-2.236 9.703 9.703 0 0 0-5.667-2.065 9.732 9.732 0 0 0-8.028 3.746A9.854 9.854 0 0 0 5.83 11.62c-.356.963-.588 1.89-.697 2.781-.11.892-.17 1.683-.18 2.375-.01.69-.011 1.372-.002 2.044.009.671.013 1.285.01 1.841l-.002 1.32c0 .323-.038.604-.116.842-.077.238-.217.43-.42.577-.202.147-.428.22-.678.22a1.13 1.13 0 0 1-.679-.22l-.535-1.904Z" fill="currentColor" stroke="currentColor" stroke-width="2" stroke-linecap="round" stroke-linejoin="round"/><path d="m27.495 24.543-.155.521-.155.521-.324.481a3.63 3.63 0 0 1-.788.845 3.56 3.56 0 0 1-1.114.573c-.432.14-.985.212-1.658.216-.673.003-1.367-.14-2.083-.43-.716-.289-1.295-.774-1.735-1.455a5.059 5.059 0 0 1-.792-2.246 15.383 15.383 0 0 1-.087-2.255c.028-.686.125-1.376.289-2.07.164-.693.454-1.272.87-1.736a3.95 3.95 0 0 1 1.512-1.046 5.878 5.878 0 0 1 1.896-.398 11.447 11.447 0 0 1 1.966.072c.637.08 1.19.332 1.659.754.468.422.718 1.137.749 2.146.031 1.01-.839 2.102-2.61 3.278-1.77 1.177-4.953 1.784-9.548 1.821-4.596.037-7.357.176-8.283.415-.926.24-1.141.498-.647.777.495.28.99.236 1.487-.13.496-.367.788-.935.877-1.706a8.352 8.352 0 0 0 0-2.111c-.089-.637-.341-1.168-.756-1.594-.414-.425-.947-.557-1.598-.394-.651.162-1.005.762-1.062 1.8-.057 1.037-.189 1.746-.396 2.128a1.214 1.214 0 0 1-.957.659 1.214 1.214 0 0 1-1.095-.388 1.21 1.21 0 0 1-.33-1.114 1.21 1.21 0 0 1 .706-.921 1.21 1.21 0 0 1 1.161.03c.382.207.602.526.659.957.056.43-.073.796-.388 1.095-.315.3-.686.41-1.113.33a1.214 1.214 0 0 1-.922-.707c-.187-.392-.28-1.27-.275-2.637.003-1.366.272-2.387.805-3.063.533-.676 1.242-1.078 2.127-1.206a7.313 7.313 0 0 1 2.525.054c.8.164 1.48.505 2.04 1.024.562.52.931 1.128 1.108 1.826.176.698.255 1.49.237 2.375a11.492 11.492 0 0 1-.29 2.432c-.176.736-.5 1.34-.971 1.812a2.97 2.97 0 0 1-1.737.852 6.424 6.424 0 0 1-1.994-.023 2.894 2.894 0 0 1-1.616-.829c-.434-.441-.511-.875-.231-1.3.28-.427 1.011-.753 2.194-.98 1.182-.227 4.044-.586 8.585-1.078 4.541-.49 7.34-.837 8.398-1.038 1.058-.202 1.63-.547 1.715-1.036.085-.489-.18-.807-.797-.954-.616-.146-1.194-.023-1.735.372-.541.395-.861.905-.96 1.531-.1.626-.057 1.28.13 1.962.188.683.574 1.106 1.157 1.27.583.164 1.04.148 1.37-.049.331-.196.518-.382.562-.556.043-.175.117-.38.221-.614a1.16 1.16 0 0 1 .491-.546c.223-.129.462-.18.718-.153.256.027.48.126.67.298l.319 1.536Z" fill="currentColor" stroke="currentColor" stroke-width="2" stroke-linecap="round" stroke-linejoin="round"/></svg>