<svg width="30" height="30" fill="none" xmlns="http://www.w3.org/2000/svg"><g clip-path="url(#a)"><path d="m24.656 7.162-.58-.3-.58-.301-.735-.154c-.489-.103-1.082-.126-1.778-.07a5.36 5.36 0 0 0-2 .568c-.636.321-1.274.715-1.913 1.18a4.482 4.482 0 0 1-2.048.848c-.726.099-1.371-.074-1.936-.52a13.001 13.001 0 0 0-1.977-1.265 5.01 5.01 0 0 0-2.34-.605 4.92 4.92 0 0 0-2.293.543c-.72.367-1.32.88-1.798 1.54a4.992 4.992 0 0 0-.904 2.198 5.254 5.254 0 0 0 .15 2.332 5.78 5.78 0 0 0 1.022 1.982 27.05 27.05 0 0 0 1.647 1.853c.64.664 1.287 1.393 1.94 2.19.653.795 1.377 1.667 2.17 2.617.794.95 1.632 1.7 2.514 2.252.883.552 1.873.589 2.971.11a11.121 11.121 0 0 0 3.013-1.946 69.016 69.016 0 0 0 2.468-2.323c.735-.73 1.32-1.349 1.754-1.858.434-.51.868-1.05 1.302-1.619.433-.57.809-1.16 1.127-1.775a6.045 6.045 0 0 0 .621-1.99 5.747 5.747 0 0 0-.089-2.077c-.155-.672-.484-1.381-.986-2.127-.502-.745-.737-1.35-.707-1.812.03-.463.241-.818.634-1.066a1.296 1.296 0 0 1 1.234-.113c.43.171.703.482.818.931.114.45.023.853-.274 1.21-.296.356-.676.52-1.139.49A1.296 1.296 0 0 1 24.9 7.45a1.295 1.295 0 0 1-.114-1.235c.172-.43.482-.703.932-.817.45-.115.853-.024 1.21.273.356.296.744.785 1.162 1.464.419.68.724 1.34.917 1.983.192.642.299 1.284.32 1.927a7.811 7.811 0 0 1-.168 1.898 7.663 7.663 0 0 1-.617 1.781 7.433 7.433 0 0 1-1.053 1.585c-.425.491-.907.967-1.448 1.426l-1.576 1.34a32.968 32.968 0 0 0-1.867 1.75 87.645 87.645 0 0 0-2.366 2.468c-.842.91-1.852 1.78-3.029 2.607-1.177.828-2.153 1.145-2.928.951-.775-.194-1.56-.653-2.354-1.378a80.027 80.027 0 0 0-2.616-2.277c-.95-.794-1.947-1.641-2.992-2.542-1.045-.901-1.874-1.661-2.487-2.28a13.912 13.912 0 0 1-1.613-1.944 9.189 9.189 0 0 1-1.108-2.234 8.107 8.107 0 0 1-.433-2.512A8.13 8.13 0 0 1 2.156 6.87a8.165 8.165 0 0 1 1.779-1.837 8.21 8.21 0 0 1 4.783-1.651 8.339 8.339 0 0 1 2.539.335c.824.242 1.509.655 2.055 1.238.546.584 1.06.794 1.54.63.482-.164.995-.429 1.54-.793a8.508 8.508 0 0 1 1.734-.893 8.06 8.06 0 0 1 3.81-.463c.64.078 1.189.192 1.646.342.458.15.873.328 1.244.534.372.205.717.433 1.037.683.32.25.571.45.756.602.184.152.338.34.46.561.122.223.167.46.135.71-.032.252-.135.47-.309.655-.173.185-.385.3-.634.348l-1.615-.71Z" fill="currentColor" stroke="currentColor" stroke-width="2" stroke-linecap="round" stroke-linejoin="round"/></g><defs><clipPath id="a"><path fill="#fff" d="M0 0h30v30H0z"/></clipPath></defs></svg>