<svg width="30" height="30" fill="none" xmlns="http://www.w3.org/2000/svg"><path d="m27.199 18.99-.98 1.667-.979 1.668-1.402 1.367a13.25 13.25 0 0 1-3.152 2.28 12.767 12.767 0 0 1-3.73 1.255c-1.319.23-2.639.257-3.96.081a12.498 12.498 0 0 1-3.744-1.103 12.307 12.307 0 0 1-5.523-5.213 12.315 12.315 0 0 1-1.307-3.68 12.514 12.514 0 0 1-.108-3.946 12.403 12.403 0 0 1 3.267-6.918 12.314 12.314 0 0 1 6.725-3.656 12.53 12.53 0 0 1 3.946-.107c1.32.172 2.567.538 3.743 1.098 1.176.559 2.487 1.672 3.932 3.34 1.446 1.667 2.198 2.566 2.255 2.695a.4.4 0 0 1-.021.38.396.396 0 0 1-.319.205.396.396 0 0 1-.353-.137.396.396 0 0 1-.098-.367.396.396 0 0 1 .24-.294.396.396 0 0 1 .379.021.396.396 0 0 1 .205.319.396.396 0 0 1-.137.353.396.396 0 0 1-.366.098c-.139-.03-.901-.862-2.287-2.494-1.386-1.633-2.622-2.715-3.707-3.246a11.493 11.493 0 0 0-3.46-1.056 11.614 11.614 0 0 0-3.661.06 11.412 11.412 0 0 0-6.27 3.32 11.498 11.498 0 0 0-3.097 6.38 11.614 11.614 0 0 0 .06 3.661 11.412 11.412 0 0 0 3.32 6.27 11.422 11.422 0 0 0 6.38 3.094c1.222.17 2.437.143 3.646-.083a11.147 11.147 0 0 0 3.381-1.21 10.91 10.91 0 0 0 2.753-2.157c.79-.858 1.42-1.798 1.89-2.82.472-1.022.848-2.166 1.128-3.43.28-1.263.47-1.979.567-2.145a.87.87 0 0 1 .414-.365.871.871 0 0 1 .55-.052.871.871 0 0 1 .474.28l-.594 4.587Z" fill="currentColor" stroke="currentColor" stroke-width="2" stroke-linecap="round" stroke-linejoin="round"/><path d="m10.496 10.226.368-.542.369-.543.53-.448a4.423 4.423 0 0 1 1.266-.734c.49-.19 1.085-.295 1.788-.314a4.854 4.854 0 0 1 2.036.385 4.915 4.915 0 0 1 1.713 1.201c.488.526.836 1.14 1.045 1.842.208.703.197 1.46-.034 2.271-.231.811-.763 1.603-1.596 2.377-.832.774-1.448 1.264-1.847 1.472-.4.207-.8.21-1.204.01a1.258 1.258 0 0 1-.715-.969 1.258 1.258 0 0 1 .363-1.147 1.258 1.258 0 0 1 1.142-.381c.445.067.771.3.979.7.207.4.21.8.01 1.203a1.257 1.257 0 0 1-.969.715 1.257 1.257 0 0 1-1.147-.363 1.257 1.257 0 0 1-.38-1.141c.066-.446.475-1.014 1.226-1.705.752-.69 1.084-1.353.996-1.987-.088-.635-.403-1.08-.945-1.338-.542-.258-1.008-.355-1.399-.29a1.97 1.97 0 0 0-.978.434c-.262.225-.448.437-.558.637-.11.2-.252.392-.425.577a1.14 1.14 0 0 1-.633.348 1.14 1.14 0 0 1-.717-.09 1.14 1.14 0 0 1-.526-.494l.242-1.686Zm4.51 9.879.345.112.344.112.213.293c.142.196.213.414.213.656 0 .242-.07.46-.213.655-.142.196-.327.33-.557.406a1.1 1.1 0 0 1-.69 0 1.089 1.089 0 0 1-.557-.405 1.089 1.089 0 0 1-.213-.656c0-.242.071-.46.213-.655l.902-.518Z" fill="currentColor" stroke="currentColor" stroke-width="2" stroke-linecap="round" stroke-linejoin="round"/></svg>