<svg width="30" height="30" fill="none" xmlns="http://www.w3.org/2000/svg"><path d="m25.086 18.705.027-1.113.026-1.112.052-1.343c.034-.896.053-1.742.055-2.54.002-.798-.072-1.495-.222-2.092-.15-.597-.48-1.108-.991-1.531a15.98 15.98 0 0 0-1.72-1.233 237.66 237.66 0 0 1-2.097-1.328 64.356 64.356 0 0 0-2.185-1.339c-.695-.406-1.34-.694-1.935-.866-.596-.17-1.206-.143-1.83.084-.623.227-1.269.512-1.935.857-.667.345-1.403.721-2.21 1.13-.808.408-1.562.808-2.264 1.2-.703.392-1.277.8-1.724 1.224-.447.425-.726.961-.839 1.608a16.093 16.093 0 0 0-.214 2.086c-.031.744-.07 1.564-.114 2.46a63.791 63.791 0 0 0-.08 2.542c-.008.798.06 1.495.206 2.09.146.596.472 1.104.978 1.524.506.42 1.076.83 1.711 1.23s1.333.843 2.094 1.332a63.31 63.31 0 0 0 2.184 1.342c.694.407 1.338.696 1.934.867.595.172 1.204.144 1.827-.082a16.514 16.514 0 0 0 1.934-.856c.667-.345 1.404-.721 2.211-1.13a63.167 63.167 0 0 0 2.264-1.2 12.699 12.699 0 0 0 1.8-1.19 4.64 4.64 0 0 0 1.159-1.345c.275-.494.607-.755.996-.781.39-.027.71.11.96.409s.327.638.232 1.016a1.09 1.09 0 0 1-.685.786 1.09 1.09 0 0 1-1.039-.093 1.09 1.09 0 0 1-.535-.895 1.09 1.09 0 0 1 .409-.958c.3-.25.638-.328 1.016-.233s.64.323.786.685a1.09 1.09 0 0 1-.093 1.038c-.207.33-.739.885-1.595 1.663-.856.777-1.632 1.371-2.329 1.78a67.6 67.6 0 0 0-2.187 1.348c-.762.488-1.462.933-2.101 1.333-.64.401-1.33.745-2.074 1.032-.743.287-1.454.395-2.134.325a5.087 5.087 0 0 1-1.895-.574c-.584-.312-1.229-.664-1.935-1.056a66.955 66.955 0 0 0-2.271-1.2 255.12 255.12 0 0 1-2.216-1.134c-.67-.347-1.318-.77-1.942-1.268-.624-.498-1.077-1.06-1.357-1.684a5.029 5.029 0 0 1-.45-1.924c-.02-.66-.036-1.39-.046-2.192a67.853 67.853 0 0 0-.082-2.547 247.95 247.95 0 0 1-.112-2.467c-.03-.749.016-1.515.138-2.3.121-.786.383-1.455.785-2.008a5.023 5.023 0 0 1 1.45-1.35A123.99 123.99 0 0 1 6.776 5.6c.697-.41 1.426-.859 2.188-1.347a271.19 271.19 0 0 1 2.102-1.333 12.1 12.1 0 0 1 2.073-1.03c.743-.287 1.454-.395 2.133-.325a5.08 5.08 0 0 1 1.893.575c.584.312 1.228.665 1.934 1.058.706.392 1.463.793 2.27 1.203.806.41 1.544.789 2.213 1.137.67.349 1.314.772 1.936 1.27.621.497 1.07 1.057 1.348 1.678.277.62.424 1.26.441 1.918.017.657.027 1.387.031 2.188a76.4 76.4 0 0 0 .058 2.546c.035.895.06 1.714.079 2.455.017.742.026 1.328.026 1.76 0 .43-.038.765-.115 1.001a1.12 1.12 0 0 1-.417.574c-.201.146-.426.22-.675.22-.248 0-.473-.074-.675-.22l-.532-2.222Z" fill="currentColor" stroke="currentColor" stroke-width="2" stroke-linecap="round" stroke-linejoin="round"/></svg>