<svg width="30" height="30" fill="none" xmlns="http://www.w3.org/2000/svg"><path d="m4.696 8.433 1.315-.892 1.315-.892 1.591-1.071a79.534 79.534 0 0 0 2.912-2.051c.881-.653 1.727-1.067 2.537-1.244.811-.176 1.886.101 3.223.832 1.338.731 2.5 1.51 3.485 2.337a97.31 97.31 0 0 0 2.76 2.238c.855.665 1.533 1.345 2.035 2.039.502.694.85 1.793 1.044 3.298.194 1.505.27 2.879.23 4.121a92.431 92.431 0 0 0-.054 3.422c.004 1.039.02 1.883.049 2.533a7.83 7.83 0 0 1-.153 1.925c-.13.634-.49 1.196-1.08 1.688-.59.492-1.433.806-2.53.942-1.096.136-2.298.146-3.605.03a176.012 176.012 0 0 0-4.313-.324 65.308 65.308 0 0 0-4.333-.144c-1.32.004-2.375.014-3.168.03a11.964 11.964 0 0 1-2.18-.137c-.66-.108-1.232-.433-1.715-.976-.484-.542-.805-1.285-.964-2.227a13.506 13.506 0 0 1-.159-2.957c.053-1.03.114-2.598.182-4.705.069-2.108.154-3.262.255-3.46a.624.624 0 0 1 .482-.351c.22-.035.41.026.568.184a.625.625 0 0 1 .184.567.624.624 0 0 1-.35.483.624.624 0 0 1-.597 0 .623.623 0 0 1-.35-.482.623.623 0 0 1 .184-.568.623.623 0 0 1 .567-.184c.22.035.381.152.482.35.102.2.187 1.352.256 3.46.068 2.107.13 3.672.186 4.695.055 1.024.138 1.954.249 2.79.111.837.406 1.431.886 1.784.479.353 1.102.564 1.87.633.769.07 1.813.106 3.132.11a66.06 66.06 0 0 0 4.332-.145c1.569-.1 3.004-.21 4.306-.327 1.301-.118 2.376-.205 3.223-.262.847-.058 1.476-.318 1.886-.783a3.297 3.297 0 0 0 .784-1.654c.11-.639.167-1.476.168-2.513a75.557 75.557 0 0 0-.08-3.401c-.054-1.23-.11-2.48-.17-3.746-.06-1.268-.278-2.22-.656-2.86-.378-.639-.99-1.284-1.835-1.936a76.209 76.209 0 0 0-2.831-2.071 805.604 805.604 0 0 1-2.785-1.956c-.815-.575-1.591-.86-2.33-.858-.74.003-1.551.315-2.436.937a30.272 30.272 0 0 0-2.759 2.21c-.954.852-1.826 1.63-2.618 2.333a40.679 40.679 0 0 1-1.916 1.621c-.485.378-.841.607-1.068.69a1.087 1.087 0 0 1-.688.022 1.088 1.088 0 0 1-.57-.386 1.088 1.088 0 0 1-.235-.648l1.85-2.093Z" fill="currentColor" stroke="currentColor" stroke-width="2" stroke-linecap="round" stroke-linejoin="round"/><path d="m10.175 25.834.069-1.39.068-1.39.099-1.68c.066-1.119.11-2.162.135-3.127.024-.966.158-1.76.402-2.381.244-.621.805-1.096 1.681-1.425.878-.329 1.66-.501 2.347-.517a24.107 24.107 0 0 1 1.984.034c.636.038 1.214.295 1.733.77.52.477.848 1.362.984 2.657s.178 2.902.127 4.822c-.051 1.92-.135 2.997-.253 3.23a.73.73 0 0 1-.563.414.73.73 0 0 1-.666-.213.73.73 0 0 1-.22-.663.73.73 0 0 1 .409-.568.73.73 0 0 1 .699-.003.73.73 0 0 1 .413.563.73.73 0 0 1-.213.666.73.73 0 0 1-.663.22.73.73 0 0 1-.568-.409c-.12-.232-.21-1.302-.273-3.21-.062-1.909-.14-3.315-.235-4.22-.095-.906-.393-1.465-.892-1.678-.5-.213-1.077-.32-1.733-.32a3.24 3.24 0 0 0-1.76.485c-.517.324-.824.938-.92 1.84-.098.903-.113 1.914-.047 3.033.066 1.12.121 2.143.167 3.07.046.927.069 1.66.069 2.199 0 .539-.038.925-.114 1.158a1.105 1.105 0 0 1-.411.566c-.198.144-.42.216-.665.216-.245 0-.467-.072-.665-.216l-.525-2.533Z" fill="currentColor" stroke="currentColor" stroke-width="2" stroke-linecap="round" stroke-linejoin="round"/></svg>