<svg width="30" height="30" fill="none" xmlns="http://www.w3.org/2000/svg"><path d="M8.511 2.735a1624437.898 1624437.898 0 0 0 3.894.345l2.35.151c1.567.101 3.01.15 4.33.147l3.195-.008c.812-.002 1.57.077 2.274.238.705.16 1.273.524 1.703 1.09.43.567.7 1.35.81 2.35.11 1 .12 2.158.028 3.477a246.02 246.02 0 0 0-.259 4.334 78.952 78.952 0 0 0-.113 4.336c.005 1.32.007 2.386.006 3.197a10.377 10.377 0 0 1-.24 2.273 2.86 2.86 0 0 1-1.086 1.7c-.565.429-1.347.699-2.345.809-.998.11-2.157.12-3.476.03a252.3 252.3 0 0 0-4.333-.256 79.792 79.792 0 0 0-4.337-.112c-1.32.005-2.385.007-3.197.005a10.382 10.382 0 0 1-2.272-.24 2.86 2.86 0 0 1-1.7-1.085c-.429-.565-.699-1.346-.809-2.345-.11-.998-.12-2.157-.03-3.475.09-1.319.175-2.763.255-4.334.08-1.57.118-3.016.113-4.336-.005-1.32-.01-2.377-.012-3.171s.185-1.625.564-2.493c.378-.868.635-1.412.77-1.633a.724.724 0 0 1 .592-.363.724.724 0 0 1 .64.266.724.724 0 0 1 .162.674.724.724 0 0 1-.45.527.726.726 0 0 1-.691-.055.724.724 0 0 1-.362-.59.724.724 0 0 1 .265-.641.724.724 0 0 1 .674-.162c.252.06.428.21.527.45.099.24-.13.776-.686 1.61-.556.833-.867 1.641-.934 2.425-.067.784-.103 1.835-.107 3.155a78.62 78.62 0 0 0 .115 4.335c.082 1.569.171 3.005.268 4.307.097 1.303.176 2.393.236 3.271.06.878.36 1.539.898 1.982.538.442 1.204.712 1.999.81.795.098 1.852.15 3.172.154a78.57 78.57 0 0 0 4.334-.116c1.57-.081 3.006-.17 4.308-.268 1.303-.097 2.393-.176 3.27-.236.879-.06 1.54-.36 1.982-.898.443-.537.713-1.204.81-1.998.099-.795.15-1.853.155-3.172a77.76 77.76 0 0 0-.117-4.335c-.083-1.57-.173-3.005-.271-4.307a544.252 544.252 0 0 1-.238-3.268c-.061-.876-.36-1.534-.896-1.975-.536-.44-1.201-.71-1.995-.812-.794-.1-1.85-.153-3.17-.156a65.296 65.296 0 0 0-4.33.147c-1.566.1-2.998.208-4.296.323-1.298.115-2.324.173-3.079.173-.754 0-1.242-.036-1.462-.108a1.045 1.045 0 0 1-.535-.389 1.045 1.045 0 0 1-.205-.629c0-.231.068-.441.205-.629l3.13-.496Z" fill="currentColor" stroke="currentColor" stroke-width="2" stroke-linecap="round" stroke-linejoin="round"/><path d="m9.501 10.925.02-.362.02-.362.23-.28c.152-.187.345-.312.578-.373.234-.062.463-.05.688.038.225.087.403.232.534.435.13.203.19.425.176.666a1.088 1.088 0 0 1-.249.642 1.088 1.088 0 0 1-.579.373 1.088 1.088 0 0 1-.688-.038l-.73-.74Zm13.419 8.842-.688-.703-.687-.703-.816-.863a26.054 26.054 0 0 1-1.375-1.558c-.373-.463-.696-.65-.968-.563-.273.088-1.072.685-2.398 1.79-1.326 1.106-3.07 2.681-5.232 4.725-2.163 2.043-3.311 3.087-3.447 3.13a.396.396 0 0 1-.374-.06.396.396 0 0 1-.17-.339c0-.142.058-.254.173-.337a.396.396 0 0 1 .374-.058.396.396 0 0 1 .268.269.396.396 0 0 1-.061.374.396.396 0 0 1-.339.171.396.396 0 0 1-.337-.173.396.396 0 0 1-.058-.375c.044-.135 1.095-1.281 3.153-3.44 2.058-2.157 3.782-3.9 5.172-5.23 1.39-1.33 2.518-2.03 3.384-2.104.866-.073 1.583.13 2.153.609.57.478 1.142.99 1.717 1.534a136.815 136.815 0 0 1 2.673 2.595c.27.27.461.516.575.738.113.222.15.457.111.703a1.129 1.129 0 0 1-.323.635 1.124 1.124 0 0 1-.635.323l-1.845-1.09Z" fill="currentColor" stroke="currentColor" stroke-width="2" stroke-linecap="round" stroke-linejoin="round"/></svg>