<svg width="30" height="30" fill="none" xmlns="http://www.w3.org/2000/svg"><path d="m25.843 16.236-.834.003-.835.002-1.007-.013a8.568 8.568 0 0 0-1.937.188c-.62.135-1.193.475-1.717 1.022a49.481 49.481 0 0 1-1.516 1.517c-.486.464-1.145.78-1.975.948a9.845 9.845 0 0 1-2.501.184c-.837-.046-1.566-.228-2.19-.545-.622-.318-1.213-.782-1.773-1.393-.56-.611-1.183-1.049-1.87-1.313-.688-.265-1.604-.41-2.748-.435-1.144-.025-1.896-.13-2.257-.316a1.134 1.134 0 0 1-.634-.88 1.134 1.134 0 0 1 .339-1.03 1.134 1.134 0 0 1 1.033-.332c.401.065.693.279.876.641.183.363.181.725-.005 1.085a1.133 1.133 0 0 1-.88.635 1.134 1.134 0 0 1-1.03-.34 1.134 1.134 0 0 1-.332-1.033c.065-.4.279-.693.641-.875.363-.183 1.122-.284 2.279-.304 1.156-.02 2.214.043 3.173.188.96.145 1.725.452 2.298.92.574.468 1.213.959 1.92 1.474.706.514 1.512.708 2.418.58a4.195 4.195 0 0 0 2.337-1.104c.652-.61 1.325-1.056 2.018-1.34a6.332 6.332 0 0 1 2.033-.483 44.765 44.765 0 0 1 2-.07c.672-.01 1.286-.014 1.842-.012l1.32.003c.323 0 .603.038.841.116.238.077.43.217.577.42.148.202.221.428.221.678 0 .25-.073.476-.22.679l-1.905.535Z" fill="currentColor" stroke="currentColor" stroke-width="2" stroke-linecap="round" stroke-linejoin="round"/><path d="m7.36 8.11-.498.948-.5.949-.619 1.136a43.612 43.612 0 0 0-1.115 2.18 8.903 8.903 0 0 0-.708 2.17c-.142.75-.217 1.642-.224 2.676a58.29 58.29 0 0 0 .024 2.516 4.07 4.07 0 0 0 .467 1.781c.288.544.928.903 1.92 1.079a60.43 60.43 0 0 0 3.718.512c1.488.166 3.127.298 4.92.395 1.792.097 3.442.146 4.95.146s2.697-.025 3.567-.076c.87-.05 1.566-.234 2.088-.552.521-.317.833-.876.936-1.676.103-.8.15-1.73.14-2.79-.011-1.06-.067-1.966-.167-2.72-.1-.754-.341-1.646-.723-2.676a41.484 41.484 0 0 0-1.109-2.725 68.746 68.746 0 0 0-1.05-2.213c-.344-.69-.721-1.26-1.132-1.71-.41-.451-.98-.743-1.707-.876a20.328 20.328 0 0 0-2.418-.28c-.885-.053-1.86-.114-2.927-.184A56.977 56.977 0 0 0 12.17 6c-.949-.011-1.781.053-2.499.194-.717.14-1.323.421-1.816.844-.493.422-.923.587-1.29.494a1.055 1.055 0 0 1-.76-.664 1.06 1.06 0 0 1 .09-1.006c.201-.32.49-.492.867-.518.377-.025.686.107.929.397.242.29.317.618.224.984-.092.367-.313.62-.664.761-.35.14-.686.11-1.006-.09a1.057 1.057 0 0 1-.518-.867 1.055 1.055 0 0 1 .397-.929c.29-.242.762-.537 1.417-.886a4.53 4.53 0 0 1 2.09-.54c.738-.012 1.582-.024 2.534-.037.951-.013 1.96-.054 3.027-.123 1.067-.07 2.045-.13 2.934-.183.89-.052 1.773-.014 2.651.115.878.129 1.604.412 2.179.85a4.807 4.807 0 0 1 1.332 1.517c.314.574.645 1.207.995 1.9.349.691.731 1.42 1.146 2.186a98.96 98.96 0 0 1 1.144 2.168c.347.68.6 1.402.759 2.166.159.765.25 1.486.273 2.165.023.678.029 1.552.016 2.622a16.016 16.016 0 0 1-.278 2.913c-.172.873-.497 1.552-.972 2.038a3.033 3.033 0 0 1-1.733.892c-.679.108-1.462.164-2.35.168-.888.003-2.086.004-3.594.004a92.31 92.31 0 0 0-4.951.145c-1.793.097-3.664.23-5.614.397-1.95.167-3.446.152-4.488-.048-1.043-.2-1.8-.598-2.27-1.196a4.062 4.062 0 0 1-.853-2.007 16.04 16.04 0 0 1-.148-2.113c0-.668.009-1.567.026-2.695s.149-2.152.396-3.07a15.87 15.87 0 0 1 .89-2.505c.345-.75.697-1.519 1.056-2.303.36-.785.693-1.5 1-2.145a89.48 89.48 0 0 1 .74-1.525c.185-.371.365-.646.54-.823.175-.177.385-.286.631-.327.246-.04.48-.005.703.106.222.112.39.278.505.5L7.361 8.11Z" fill="currentColor" stroke="currentColor" stroke-width="2" stroke-linecap="round" stroke-linejoin="round"/></svg>