<svg width="30" height="30" fill="none" xmlns="http://www.w3.org/2000/svg"><g clip-path="url(#a)" fill="currentColor" stroke="currentColor" stroke-width="2" stroke-linecap="round" stroke-linejoin="round"><path d="M10.366 1.425a295165.11 295165.11 0 0 0 2.78.138l1.68.098c1.119.066 2.235.113 3.348.14 1.113.028 2.232.083 3.357.166s2.014.274 2.668.57c.654.298 1.25.687 1.79 1.169s.995 1.04 1.366 1.675c.37.634.641 1.406.814 2.316.173.909.268 2.057.285 3.444a60.908 60.908 0 0 1-.058 3.776c-.056 1.13-.095 2.252-.116 3.368a65.357 65.357 0 0 1-.152 3.36c-.08 1.125-.268 2.014-.563 2.667A7.036 7.036 0 0 1 26.4 26.1a6.85 6.85 0 0 1-1.671 1.365c-.634.37-1.405.642-2.314.815-.909.173-2.056.269-3.443.287a60.89 60.89 0 0 1-3.775-.057c-1.13-.056-2.252-.094-3.368-.116a65.237 65.237 0 0 1-3.36-.151c-1.125-.08-2.014-.268-2.667-.563a7.04 7.04 0 0 1-1.789-1.165 6.853 6.853 0 0 1-1.365-1.67c-.37-.634-.642-1.405-.815-2.314-.173-.909-.269-2.057-.287-3.444-.018-1.386 0-2.645.057-3.774.055-1.13.094-2.253.115-3.368a65.28 65.28 0 0 1 .152-3.36c.08-1.125.267-2.014.562-2.666.294-.652.87-1.366 1.725-2.14.855-.776 1.428-1.226 1.716-1.353a.88.88 0 0 1 .84.05.88.88 0 0 1 .454.71.88.88 0 0 1-.307.783.88.88 0 0 1-.814.213.88.88 0 0 1-.651-.535.88.88 0 0 1 .05-.84.88.88 0 0 1 .709-.454.88.88 0 0 1 .784.307.88.88 0 0 1 .212.815c-.067.308-.59.969-1.566 1.984-.977 1.016-1.59 2.082-1.84 3.199a16.292 16.292 0 0 0-.403 3.316 48.092 48.092 0 0 0 .064 3.328c.06 1.124.12 2.313.181 3.566.061 1.253.241 2.409.54 3.468.3 1.059.832 1.933 1.596 2.624.765.691 1.706 1.161 2.822 1.411s2.22.383 3.314.4a48.092 48.092 0 0 0 3.328-.063 717.3 717.3 0 0 1 3.566-.182c1.253-.06 2.41-.24 3.468-.54 1.06-.299 1.934-.831 2.625-1.596.69-.764 1.16-1.705 1.41-2.82a16.32 16.32 0 0 0 .4-3.316 47.972 47.972 0 0 0-.065-3.327 768.56 768.56 0 0 1-.182-3.566c-.062-1.253-.242-2.408-.542-3.465-.3-1.058-.831-1.93-1.595-2.619-.764-.688-1.704-1.155-2.818-1.401a16.17 16.17 0 0 0-3.31-.388 47.338 47.338 0 0 0-3.318.08c-1.119.066-2.142.122-3.069.167a47.19 47.19 0 0 1-2.199.069c-.539 0-.925-.038-1.158-.114a1.104 1.104 0 0 1-.566-.41 1.105 1.105 0 0 1-.216-.666c0-.245.072-.467.216-.665l2.533-.525Z"/><path d="m21.324 15.004-.061.736-.06.735-.316.811c-.21.54-.56 1.115-1.049 1.723a6.042 6.042 0 0 1-1.764 1.49 6.105 6.105 0 0 1-2.21.736 6.174 6.174 0 0 1-2.34-.137 6.213 6.213 0 0 1-2.136-.997 6.25 6.25 0 0 1-1.623-1.72 6.279 6.279 0 0 1-.879-2.205 6.29 6.29 0 0 1-.006-2.377c.15-.793.44-1.533.871-2.218a6.32 6.32 0 0 1 1.627-1.745 6.324 6.324 0 0 1 2.157-1.026 6.325 6.325 0 0 1 2.396-.158c.811.1 1.573.343 2.285.727.712.385 1.363.971 1.954 1.76.59.788.957 1.418 1.1 1.89a1.38 1.38 0 0 1-.235 1.3 1.38 1.38 0 0 1-1.19.573 1.38 1.38 0 0 1-1.162-.624 1.38 1.38 0 0 1-.178-1.308c.163-.466.48-.77.953-.913a1.38 1.38 0 0 1 1.3.235c.393.299.584.695.573 1.189a1.38 1.38 0 0 1-.625 1.162 1.38 1.38 0 0 1-1.308.179c-.466-.163-.9-.55-1.304-1.164a3.952 3.952 0 0 0-1.513-1.382 3.1 3.1 0 0 0-1.898-.32 3.023 3.023 0 0 0-1.71.844 3.045 3.045 0 0 0-.895 1.69 3.072 3.072 0 0 0 .262 1.908c.292.61.738 1.08 1.338 1.412.6.33 1.246.457 1.94.378a3.272 3.272 0 0 0 1.843-.834c.536-.477.902-.958 1.098-1.443.196-.485.295-.865.295-1.14 0-.273.032-.534.093-.782a1.15 1.15 0 0 1 .384-.618 1.15 1.15 0 0 1 .674-.275c.255-.018.49.04.707.175l.612 1.733Zm.557-8.024.345.112.344.112.213.294c.142.195.213.413.213.655 0 .242-.07.46-.213.655-.142.196-.327.33-.557.406a1.1 1.1 0 0 1-.69 0 1.088 1.088 0 0 1-.557-.406 1.088 1.088 0 0 1-.213-.655c0-.242.071-.46.213-.655l.902-.518Z"/></g><defs><clipPath id="a"><path fill="#fff" d="M0 0h30v30H0z"/></clipPath></defs></svg>