<svg width="30" height="30" fill="none" xmlns="http://www.w3.org/2000/svg"><path d="m21.098 6.2-1.252-.046a67810 67810 0 0 0-1.251-.046L16.01 6.04c-1.723-.044-2.716-.133-2.979-.267a.825.825 0 0 1-.463-.638.825.825 0 0 1 .243-.75.825.825 0 0 1 .75-.244c.292.046.505.2.64.463a.825.825 0 0 1 0 .79.825.825 0 0 1-.64.463.825.825 0 0 1-.75-.244.825.825 0 0 1-.243-.75.825.825 0 0 1 .463-.638c.263-.134 1.256-.223 2.979-.267 1.723-.045 3.001-.082 3.835-.113a56.89 56.89 0 0 1 1.98-.046c.485 0 .845.039 1.08.115.235.076.425.214.57.414.145.2.218.424.218.671 0 .247-.073.47-.218.67l-2.378.53Zm-6.25 20-1.252-.046-1.251-.046-2.584-.067c-1.723-.044-2.716-.133-2.979-.267a.825.825 0 0 1-.463-.638.824.824 0 0 1 .243-.75.825.825 0 0 1 .75-.244c.292.046.505.2.64.463a.824.824 0 0 1 0 .79.824.824 0 0 1-.64.463.825.825 0 0 1-.75-.244.825.825 0 0 1-.243-.75.825.825 0 0 1 .463-.638c.263-.134 1.256-.223 2.979-.267 1.723-.044 3.001-.082 3.835-.113.835-.03 1.494-.046 1.98-.046.485 0 .845.038 1.08.115.235.076.425.214.57.414.145.2.218.424.218.671 0 .247-.073.47-.218.67l-2.378.53Zm3.011-16.05-1.031 2.15-1.031 2.151-1.807 4.563c-1.205 3.04-1.86 4.61-1.964 4.705a.396.396 0 0 1-.366.101.397.397 0 0 1-.296-.236.397.397 0 0 1 .016-.379.397.397 0 0 1 .317-.209.396.396 0 0 1 .355.133c.096.105.13.227.101.366a.397.397 0 0 1-.236.296.396.396 0 0 1-.38-.017.397.397 0 0 1-.208-.316c-.016-.141.522-1.753 1.614-4.837 1.092-3.083 1.851-5.391 2.276-6.924.425-1.532.8-2.73 1.123-3.592.323-.863.553-1.38.69-1.552a.993.993 0 0 1 .525-.346.993.993 0 0 1 .628.028c.206.077.37.207.492.391l-.818 3.524Z" fill="currentColor" stroke="currentColor" stroke-width="2" stroke-linecap="round" stroke-linejoin="round"/></svg>