<svg width="30" height="30" fill="none" xmlns="http://www.w3.org/2000/svg"><path d="m27.074 3.735-1.515 1.413-1.516 1.414-3.45 3.096c-2.301 2.064-3.618 3.437-3.951 4.12-.334.683-.385 1.354-.155 2.015.23.66.462 1.365.697 2.117.235.751.346 1.51.334 2.274-.013.764-.116 1.444-.31 2.039a7.505 7.505 0 0 1-.802 1.695 7.83 7.83 0 0 1-2.75 2.602 8.036 8.036 0 0 1-3.706 1.03 8.168 8.168 0 0 1-3.798-.813 7.6 7.6 0 0 1-1.673-1.111 7.72 7.72 0 0 1-1.433-1.697 8.468 8.468 0 0 1-1-2.244 8.276 8.276 0 0 1-.315-2.512 8.183 8.183 0 0 1 1.649-4.721 8.156 8.156 0 0 1 1.814-1.761 8.127 8.127 0 0 1 4.756-1.498 8.109 8.109 0 0 1 2.49.401c.807.263 1.538.461 2.194.593.656.132 1.255-.197 1.797-.988a5.924 5.924 0 0 1 2.13-1.891c.877-.47 1.722-.504 2.535-.103.813.4 1.525.781 2.136 1.143.611.362 1.06.24 1.347-.366.286-.606.431-1.201.434-1.787.003-.586-.086-.888-.268-.907-.182-.02-.937.348-2.263 1.1-1.327.754-2.072 1.104-2.235 1.05a.772.772 0 0 1-.394-.288.772.772 0 0 1-.15-.465c.001-.171.08-.35.238-.539a103.5 103.5 0 0 1 1.495-1.677c.838-.93 1.39-1.446 1.657-1.547a.795.795 0 0 1 .756.083.795.795 0 0 1 .377.66.795.795 0 0 1-.312.694.795.795 0 0 1-.745.154.795.795 0 0 1-.563-.511.795.795 0 0 1 .083-.756.795.795 0 0 1 .66-.377.795.795 0 0 1 .694.312c.178.222.23.47.155.745-.075.274-.608.855-1.598 1.742a105.27 105.27 0 0 1-1.797 1.591c-.207.173-.393.233-.556.18a.772.772 0 0 1-.394-.289.772.772 0 0 1-.15-.465c.001-.171.627-.778 1.878-1.821S23.922 5.3 24.851 5.3c.929 0 1.754.341 2.476 1.021.722.68 1.064 1.43 1.027 2.248-.036.819-.379 1.628-1.027 2.43a8.999 8.999 0 0 1-2.15 1.952c-.784.5-1.582.593-2.392.276-.81-.316-1.443-.758-1.898-1.324-.455-.565-.902-.684-1.34-.356a8.72 8.72 0 0 0-1.337 1.28 13.923 13.923 0 0 1-1.614 1.565c-.623.52-1.305.757-2.047.713a8.376 8.376 0 0 1-2.268-.47 7.04 7.04 0 0 0-2.367-.398 5.023 5.023 0 0 0-2.29.554 5.002 5.002 0 0 0-1.79 1.521 4.966 4.966 0 0 0-.907 2.16 4.984 4.984 0 0 0 .163 2.329c.238.76.579 1.4 1.023 1.918.444.52.97.928 1.578 1.226a5.285 5.285 0 0 0 1.948.525 5.359 5.359 0 0 0 2.042-.242 5.534 5.534 0 0 0 1.842-1.003 5.789 5.789 0 0 0 1.383-1.655 6.45 6.45 0 0 0 .735-1.944c.125-.647.146-1.3.062-1.958-.084-.657-.176-1.366-.275-2.125-.1-.759.046-1.517.437-2.276.39-.758 1.598-2.317 3.626-4.677 2.026-2.36 3.511-4.045 4.454-5.055.942-1.01 1.496-1.598 1.66-1.763.165-.164.36-.303.582-.417.222-.113.457-.15.704-.111.247.039.458.147.635.323.177.177.285.389.324.635l-.776 1.533Z" fill="currentColor"/><path d="M19.853 9.15c.1.139.232.235.394.289.163.053.908-.297 2.235-1.05 1.326-.753 2.08-1.12 2.263-1.101.182.019.271.321.268.907-.003.586-.148 1.181-.434 1.787-.287.606-.736.728-1.347.366a31.465 31.465 0 0 0-2.136-1.143c-.813-.4-1.659-.366-2.535.103a5.924 5.924 0 0 0-2.13 1.89c-.542.792-1.141 1.121-1.797.99a19.702 19.702 0 0 1-2.194-.594 8.109 8.109 0 0 0-2.49-.4 8.127 8.127 0 0 0-4.756 1.497 8.156 8.156 0 0 0-1.814 1.76 8.183 8.183 0 0 0-1.649 4.722 8.276 8.276 0 0 0 .316 2.512 8.468 8.468 0 0 0 1 2.244 7.72 7.72 0 0 0 1.432 1.697 7.6 7.6 0 0 0 1.674 1.11 8.168 8.168 0 0 0 3.798.813 8.036 8.036 0 0 0 3.706-1.03 7.83 7.83 0 0 0 2.749-2.601c.34-.536.607-1.1.801-1.695.195-.595.298-1.275.31-2.04a7.185 7.185 0 0 0-.333-2.273 69.778 69.778 0 0 0-.697-2.117c-.23-.66-.179-1.332.155-2.015.333-.683 1.65-2.056 3.95-4.12l3.451-3.096 1.516-1.414 1.515-1.413.776-1.533a1.126 1.126 0 0 0-.324-.635 1.126 1.126 0 0 0-.635-.323 1.126 1.126 0 0 0-.704.111 2.276 2.276 0 0 0-.581.417c-.165.165-.719.753-1.661 1.763-.943 1.01-2.428 2.695-4.454 5.055-2.028 2.36-3.236 3.919-3.626 4.677-.39.759-.536 1.517-.437 2.276l.275 2.125a6.16 6.16 0 0 1-.062 1.959 6.453 6.453 0 0 1-.735 1.943 5.789 5.789 0 0 1-1.383 1.655 5.533 5.533 0 0 1-1.842 1.003 5.359 5.359 0 0 1-2.042.242 5.285 5.285 0 0 1-1.948-.525 4.89 4.89 0 0 1-1.578-1.226c-.444-.519-.785-1.158-1.023-1.918a4.984 4.984 0 0 1-.163-2.329c.13-.792.432-1.512.907-2.16a5.002 5.002 0 0 1 1.79-1.52 5.023 5.023 0 0 1 2.29-.555 7.04 7.04 0 0 1 2.367.399c.77.269 1.526.425 2.268.47.742.043 1.425-.195 2.047-.714.623-.52 1.16-1.042 1.614-1.566a8.72 8.72 0 0 1 1.337-1.279c.438-.328.885-.21 1.34.356.455.566 1.088 1.008 1.898 1.324.81.317 1.608.225 2.393-.276a8.999 8.999 0 0 0 2.15-1.953c.647-.8.99-1.61 1.026-2.429.037-.818-.305-1.567-1.027-2.248-.722-.68-1.547-1.02-2.476-1.02-.929-.001-2.019.52-3.27 1.563s-1.877 1.65-1.877 1.82m.15.466a.772.772 0 0 1-.15-.465m.15.465c.1.139.23.235.393.289.163.053.349-.007.556-.18.209-.173.807-.704 1.797-1.59.99-.888 1.523-1.469 1.598-1.743a.795.795 0 0 0-.155-.745.795.795 0 0 0-.694-.312.795.795 0 0 0-.66.377.795.795 0 0 0-.083.756c.1.266.288.436.563.511a.795.795 0 0 0 .745-.154.795.795 0 0 0 .312-.694.795.795 0 0 0-.377-.66.795.795 0 0 0-.756-.083c-.266.1-.819.616-1.657 1.547a103.5 103.5 0 0 0-1.495 1.677c-.158.188-.237.368-.237.539" stroke="currentColor" stroke-width="2" stroke-linecap="round" stroke-linejoin="round"/></svg>