<svg width="30" height="30" fill="none" xmlns="http://www.w3.org/2000/svg"><path d="m13.932 4.994-1.435.607-1.434.607-1.736.726A91.912 91.912 0 0 0 5.29 8.758c-1.536.733-2.374 1.062-2.517.988a.722.722 0 0 1-.32-.326.722.722 0 0 1-.069-.452c.027-.158.115-.212.266-.163.15.05.545.196 1.184.438.639.242 1.376.582 2.213 1.018.837.437 1.799.955 2.885 1.556a84.78 84.78 0 0 0 3.03 1.601c.934.467 1.765.728 2.493.783.729.054 1.68-.178 2.854-.697l3.476-1.541a113.397 113.397 0 0 0 3.993-1.883c1.518-.747 2.343-1.086 2.477-1.016.133.07.233.171.3.306a.677.677 0 0 1 .063.424c-.025.148-.204.15-.537.006-.332-.144-1.136-.51-2.41-1.096-1.273-.587-2.852-1.376-4.735-2.368-1.883-.992-2.878-1.561-2.984-1.707a.505.505 0 0 1-.076-.478.505.505 0 0 1 .34-.342.505.505 0 0 1 .478.075c.147.106.22.25.22.43a.507.507 0 0 1-.219.432.505.505 0 0 1-.477.076.505.505 0 0 1-.342-.342.505.505 0 0 1 .075-.477.505.505 0 0 1 .43-.22c.181 0 1.235.465 3.161 1.396 1.926.932 3.379 1.712 4.357 2.341.978.63 1.582 1.026 1.811 1.192.23.165.411.282.545.352.133.07.233.171.3.306a.677.677 0 0 1 .063.424c-.025.148-.793.604-2.305 1.366a144.103 144.103 0 0 0-3.933 2.05c-1.109.604-2.388 1.161-3.837 1.672-1.449.51-2.592.696-3.43.557-.839-.14-1.731-.447-2.679-.924a108.45 108.45 0 0 0-3.126-1.505 26.754 26.754 0 0 1-3.17-1.726 58.183 58.183 0 0 1-1.808-1.181 4.895 4.895 0 0 0-.557-.357.722.722 0 0 1-.32-.326.722.722 0 0 1-.069-.452c.027-.158.793-.632 2.3-1.42A91.924 91.924 0 0 0 8.566 5.41a752.6 752.6 0 0 1 2.968-1.736 41.276 41.276 0 0 1 2.155-1.187c.54-.27.929-.422 1.168-.459.24-.036.466.002.681.114.215.111.377.275.485.492.108.216.142.444.103.682l-2.194 1.677Z" fill="currentColor"/><path d="M2.772 9.746c.143.074.981-.255 2.517-.988a91.912 91.912 0 0 1 4.038-1.824l1.736-.726 1.434-.607 1.435-.607 2.194-1.677a1.09 1.09 0 0 0-.103-.682 1.09 1.09 0 0 0-.485-.492 1.09 1.09 0 0 0-.681-.114c-.24.037-.628.19-1.168.459-.539.27-1.257.665-2.155 1.187a752.6 752.6 0 0 0-2.968 1.736 91.924 91.924 0 0 1-3.883 2.137c-1.507.788-2.273 1.262-2.3 1.42m.39.778a.722.722 0 0 1-.321-.326.722.722 0 0 1-.069-.452m.39.778c.142.074.327.193.556.357.228.164.831.558 1.807 1.181a26.81 26.81 0 0 0 3.17 1.726 106.08 106.08 0 0 1 3.127 1.505c.948.477 1.84.785 2.679.924.838.14 1.981-.046 3.43-.557 1.449-.51 2.728-1.068 3.837-1.672 1.11-.604 2.42-1.287 3.933-2.05 1.512-.762 2.28-1.218 2.305-1.366M2.772 9.746a.722.722 0 0 1-.32-.326.722.722 0 0 1-.069-.452m0 0c.027-.158.115-.212.266-.163.15.05.545.196 1.184.438.639.242 1.376.582 2.213 1.018.837.437 1.799.955 2.885 1.556a84.78 84.78 0 0 0 3.03 1.601c.934.467 1.765.728 2.493.783.729.054 1.68-.178 2.854-.697l3.476-1.541a113.397 113.397 0 0 0 3.993-1.883c1.518-.747 2.343-1.086 2.477-1.016m0 0c.133.07.233.171.3.306a.677.677 0 0 1 .063.424m-.363-.73a4.858 4.858 0 0 1-.545-.352c-.23-.166-.833-.563-1.811-1.192-.978-.63-2.43-1.41-4.357-2.34-1.926-.932-2.98-1.397-3.16-1.397a.505.505 0 0 0-.431.22.505.505 0 0 0-.075.477c.056.172.17.286.342.342.172.055.331.03.477-.076a.505.505 0 0 0 .22-.431.505.505 0 0 0-.22-.43.505.505 0 0 0-.478-.076.505.505 0 0 0-.341.342.505.505 0 0 0 .076.478c.106.146 1.1.715 2.984 1.707 1.884.992 3.462 1.781 4.736 2.368 1.273.586 2.077.952 2.41 1.096.332.144.511.142.536-.006" stroke="currentColor" stroke-width="2" stroke-linecap="round" stroke-linejoin="round"/><path d="M6.097 21.556a361997.888 361997.888 0 0 0 2.693 1.566l1.622.953a67.042 67.042 0 0 0 3.014 1.677c.928.482 1.753.753 2.476.814.724.06 1.669-.166 2.836-.679a238.062 238.062 0 0 0 4.662-2.125c1.94-.905 3.008-1.356 3.2-1.353a.539.539 0 0 1 .457.24.539.539 0 0 1 .073.51.539.539 0 0 1-.37.36.539.539 0 0 1-.508-.087.539.539 0 0 1-.227-.463.539.539 0 0 1 .24-.456.539.539 0 0 1 .51-.074.539.539 0 0 1 .36.37.54.54 0 0 1-.088.508c-.115.154-1.126.732-3.032 1.732-1.906 1-3.587 1.76-5.042 2.277-1.455.517-2.605.71-3.45.577-.844-.133-1.744-.43-2.701-.89a67.13 67.13 0 0 0-3.171-1.415 761.726 761.726 0 0 1-3.17-1.333 41.215 41.215 0 0 1-2.243-1.012c-.54-.27-.895-.49-1.067-.659a1.09 1.09 0 0 1-.319-.613 1.09 1.09 0 0 1 .103-.683c.108-.216.27-.38.485-.492l2.657.75Z" fill="currentColor" stroke="currentColor" stroke-width="2" stroke-linecap="round" stroke-linejoin="round"/><path d="M6.097 15.306a361997.888 361997.888 0 0 0 2.693 1.566l1.622.953a67.042 67.042 0 0 0 3.014 1.677c.928.482 1.753.754 2.476.814.724.06 1.669-.166 2.836-.679a238.062 238.062 0 0 0 4.662-2.125c1.94-.905 3.008-1.356 3.2-1.353a.539.539 0 0 1 .457.24.539.539 0 0 1 .073.51.539.539 0 0 1-.37.36.539.539 0 0 1-.508-.087.539.539 0 0 1-.227-.463.539.539 0 0 1 .24-.456.539.539 0 0 1 .51-.074.539.539 0 0 1 .36.37.54.54 0 0 1-.088.508c-.115.154-1.126.732-3.032 1.732-1.906 1-3.587 1.76-5.042 2.277-1.455.517-2.605.71-3.45.577-.844-.133-1.744-.43-2.701-.89a67.13 67.13 0 0 0-3.171-1.415 748.367 748.367 0 0 1-3.17-1.333 41.215 41.215 0 0 1-2.243-1.012c-.54-.27-.895-.49-1.067-.659a1.09 1.09 0 0 1-.319-.613 1.09 1.09 0 0 1 .103-.683c.108-.216.27-.38.485-.492l2.657.75Z" fill="currentColor" stroke="currentColor" stroke-width="2" stroke-linecap="round" stroke-linejoin="round"/></svg>