<svg width="30" height="30" fill="none" xmlns="http://www.w3.org/2000/svg"><path d="m27.199 18.99-.98 1.667-.979 1.668-1.402 1.367a13.25 13.25 0 0 1-3.152 2.28 12.767 12.767 0 0 1-3.73 1.255c-1.319.23-2.639.257-3.96.081a12.498 12.498 0 0 1-3.744-1.103 12.307 12.307 0 0 1-5.523-5.213 12.315 12.315 0 0 1-1.307-3.68 12.514 12.514 0 0 1-.108-3.946 12.403 12.403 0 0 1 3.267-6.918 12.314 12.314 0 0 1 6.725-3.656 12.53 12.53 0 0 1 3.946-.107c1.32.172 2.567.538 3.743 1.098 1.176.559 2.487 1.672 3.932 3.34 1.446 1.667 2.198 2.566 2.255 2.695a.4.4 0 0 1-.021.38.396.396 0 0 1-.319.205.396.396 0 0 1-.353-.137.396.396 0 0 1-.098-.367.396.396 0 0 1 .24-.294.396.396 0 0 1 .379.021.396.396 0 0 1 .205.319.396.396 0 0 1-.137.353.396.396 0 0 1-.366.098c-.139-.03-.901-.862-2.287-2.494-1.386-1.633-2.622-2.715-3.707-3.246a11.493 11.493 0 0 0-3.46-1.056 11.614 11.614 0 0 0-3.661.06 11.412 11.412 0 0 0-6.27 3.32 11.498 11.498 0 0 0-3.097 6.38 11.614 11.614 0 0 0 .06 3.661 11.412 11.412 0 0 0 3.32 6.27 11.422 11.422 0 0 0 6.38 3.094c1.222.17 2.437.143 3.646-.083a11.147 11.147 0 0 0 3.381-1.21 10.91 10.91 0 0 0 2.753-2.157c.79-.858 1.42-1.798 1.89-2.82.472-1.022.848-2.166 1.128-3.43.28-1.263.47-1.979.567-2.145a.87.87 0 0 1 .414-.365.871.871 0 0 1 .55-.052.871.871 0 0 1 .474.28l-.594 4.587Z" fill="currentColor" stroke="currentColor" stroke-width="2" stroke-linecap="round" stroke-linejoin="round"/><path d="m20.922 16.808-.58.927-.578.927-1.24 1.015c-.826.678-1.554 1.083-2.184 1.218a6.051 6.051 0 0 1-1.904.1A6.034 6.034 0 0 1 11.04 19.5a5.958 5.958 0 0 1-1.86-3.22 6.07 6.07 0 0 1-.1-1.912 6.054 6.054 0 0 1 1.504-3.403 5.97 5.97 0 0 1 3.226-1.86 6.093 6.093 0 0 1 1.914-.1c.641.068 1.519.55 2.632 1.448 1.113.898 1.8 1.493 2.061 1.787.262.294.35.633.266 1.018a1.099 1.099 0 0 1-.667.813 1.1 1.1 0 0 1-1.05-.062 1.1 1.1 0 0 1-.567-.886c-.038-.391.09-.717.383-.979a1.1 1.1 0 0 1 1.018-.266c.384.085.655.307.813.667.158.36.137.71-.062 1.05-.199.34-.494.529-.885.567-.392.04-1.001-.331-1.828-1.11-.826-.78-1.617-1.214-2.37-1.305-.754-.09-1.44.041-2.057.396a3.192 3.192 0 0 0-1.363 1.523 3.281 3.281 0 0 0-.212 2.05 3.25 3.25 0 0 0 1.02 1.78c.53.48 1.16.758 1.891.833a3.359 3.359 0 0 0 2.046-.425c.634-.359 1.088-.724 1.363-1.096.275-.371.469-.81.58-1.316.113-.505.233-.865.363-1.077.13-.213.31-.367.539-.464.23-.096.466-.115.708-.058.243.058.445.18.608.37l-.032 2.545Z" fill="currentColor" stroke="currentColor" stroke-width="2" stroke-linecap="round" stroke-linejoin="round"/><path d="M8.25 6.525a36865.203 36865.203 0 0 0 1.183 1.176l1.208 1.226c.806.817 1.264 1.398 1.376 1.742a1.01 1.01 0 0 1-.15.954 1.01 1.01 0 0 1-.862.439 1.01 1.01 0 0 1-.861-.439 1.01 1.01 0 0 1-.151-.954 1.01 1.01 0 0 1 .683-.684 1.01 1.01 0 0 1 .955.151c.292.213.438.5.438.862 0 .361-.146.648-.438.86a1.01 1.01 0 0 1-.955.152c-.344-.112-.924-.57-1.742-1.376A272.992 272.992 0 0 1 6.19 7.899a2.732 2.732 0 0 1-.513-.677 1.127 1.127 0 0 1-.112-.705c.04-.247.147-.459.324-.635.177-.177.389-.285.636-.324l1.725.967ZM20.625 18.9a7396.165 7396.165 0 0 0 1.183 1.176l1.208 1.226c.806.817 1.265 1.398 1.376 1.742a1.01 1.01 0 0 1-.15.954 1.01 1.01 0 0 1-.862.439 1.01 1.01 0 0 1-.861-.439 1.01 1.01 0 0 1-.151-.954 1.01 1.01 0 0 1 .683-.684 1.01 1.01 0 0 1 .955.151c.292.213.438.5.438.861 0 .362-.146.649-.438.861a1.01 1.01 0 0 1-.955.152c-.344-.112-.924-.57-1.742-1.376a276.341 276.341 0 0 1-2.744-2.735 2.729 2.729 0 0 1-.513-.677 1.126 1.126 0 0 1-.112-.705c.04-.247.147-.459.324-.636.177-.176.389-.284.636-.323l1.725.967ZM18.9 9.375l.588-.591.588-.591 1.226-1.21c.817-.805 1.398-1.264 1.742-1.375a1.01 1.01 0 0 1 .954.15c.293.213.439.5.439.862s-.146.649-.439.861a1.01 1.01 0 0 1-.954.151 1.01 1.01 0 0 1-.684-.683 1.01 1.01 0 0 1 .151-.955c.213-.292.5-.438.861-.438.362 0 .649.146.861.438.213.293.263.611.152.955-.112.344-.57.924-1.376 1.742a275.965 275.965 0 0 1-2.735 2.744c-.228.229-.454.4-.677.513a1.126 1.126 0 0 1-.705.112 1.128 1.128 0 0 1-.636-.324 1.127 1.127 0 0 1-.323-.636l.967-1.725Z" fill="currentColor" stroke="currentColor" stroke-width="2" stroke-linecap="round" stroke-linejoin="round"/><path d="m18.683 9.593.482-.499.482-.5 1.014-1.012c.676-.676 1.192-1.072 1.548-1.187.356-.116.685-.064.988.156.303.22.455.518.455.892 0 .375-.152.672-.455.892-.303.22-.632.272-.988.157a1.046 1.046 0 0 1-.708-.708 1.046 1.046 0 0 1 .156-.989c.22-.303.518-.454.892-.454.375 0 .672.151.892.454.22.303.273.633.157.989-.116.356-.511.872-1.187 1.548a133.91 133.91 0 0 1-1.513 1.496c-.333.321-.594.577-.784.767-.19.19-.397.343-.62.456-.223.114-.458.15-.705.112a1.127 1.127 0 0 1-.635-.324 1.127 1.127 0 0 1-.324-.636l.853-1.61ZM6.525 21.75l.588-.591.588-.591 1.226-1.21c.817-.805 1.398-1.264 1.742-1.375a1.01 1.01 0 0 1 .954.15c.293.213.439.5.439.862s-.146.649-.439.861a1.01 1.01 0 0 1-.954.151 1.01 1.01 0 0 1-.684-.683 1.01 1.01 0 0 1 .151-.955c.213-.292.5-.438.861-.438.362 0 .649.146.861.438.213.293.263.611.152.955-.112.344-.57.924-1.376 1.742a273.434 273.434 0 0 1-2.735 2.744 2.73 2.73 0 0 1-.677.513 1.126 1.126 0 0 1-.705.112 1.128 1.128 0 0 1-.635-.324 1.127 1.127 0 0 1-.324-.636l.967-1.725Z" fill="currentColor" stroke="currentColor" stroke-width="2" stroke-linecap="round" stroke-linejoin="round"/></svg>