<svg width="30" height="30" fill="none" xmlns="http://www.w3.org/2000/svg"><path d="m21.245 8.998.622.13.62.13.765.334c.509.222 1.128.6 1.857 1.131A8.478 8.478 0 0 1 27 12.628a8.819 8.819 0 0 1 1.22 2.37c.281.843.454 1.653.518 2.432.063.778.084 1.507.063 2.189-.022.68-.05 1.416-.084 2.206s-.096 1.57-.185 2.343a4.606 4.606 0 0 1-.852 2.167c-.479.672-1.221 1.026-2.226 1.06-1.006.035-1.904-.162-2.694-.59-.79-.427-1.253-1.121-1.388-2.081a15.026 15.026 0 0 1-.16-2.626c.03-.79.042-1.55.04-2.28-.004-.73-.108-1.363-.313-1.9-.205-.537-.557-.706-1.056-.507-.5.2-.79.79-.875 1.774-.083.984-.148 1.868-.194 2.653a34.619 34.619 0 0 1-.218 2.337c-.098.774-.392 1.502-.882 2.183-.49.682-1.24 1.038-2.253 1.07-1.013.03-1.917-.171-2.712-.605-.794-.434-1.259-1.132-1.393-2.095a14.96 14.96 0 0 1-.156-2.63c.03-.79.052-1.569.065-2.335.012-.767.045-1.573.097-2.419.052-.845.217-1.692.496-2.542a8.48 8.48 0 0 1 1.219-2.372 8.54 8.54 0 0 1 1.886-1.886c.722-.526 1.633-.946 2.732-1.261 1.1-.315 1.863-.467 2.29-.456.429.012.764.194 1.006.547.243.352.292.73.15 1.134-.144.404-.42.666-.831.787-.41.122-.785.052-1.125-.209a1.196 1.196 0 0 1-.492-1.033c.011-.427.193-.763.546-1.005a1.196 1.196 0 0 1 1.135-.149c.403.143.666.42.787.83s.052.786-.209 1.126c-.26.339-.901.627-1.921.864s-1.805.53-2.353.879c-.55.349-1.026.77-1.43 1.26a6.165 6.165 0 0 0-.97 1.643 7.818 7.818 0 0 0-.49 2.026 19.3 19.3 0 0 0-.123 2.248c.002.752.022 1.516.058 2.293.037.776.044 1.502.022 2.178-.022.676-.074 1.002-.157.976-.082-.026.218-.108.902-.249.684-.14 1.134-.502 1.35-1.085.216-.583.29-1.498.224-2.745-.067-1.247-.03-2.388.11-3.422.14-1.035.474-1.861 1.003-2.478.53-.616 1.177-1.006 1.94-1.168a3.46 3.46 0 0 1 2.196.232c.7.316 1.234.809 1.602 1.477.368.668.579 1.332.634 1.991.054.66.086 1.346.095 2.059.01.713.032 1.457.066 2.234.035.776.041 1.504.018 2.182-.022.68-.073 1.008-.15.988-.079-.02.232-.104.932-.25.7-.146 1.164-.512 1.39-1.098.228-.585.323-1.272.288-2.059a663.52 663.52 0 0 0-.136-2.84c-.054-1.108-.168-2.037-.34-2.787-.172-.75-.429-1.393-.771-1.926a6.115 6.115 0 0 0-1.252-1.411c-.491-.408-.915-.705-1.271-.89a5.619 5.619 0 0 0-.99-.414 5.91 5.91 0 0 0-1.034-.198c-.384-.042-.692-.115-.92-.22a1.136 1.136 0 0 1-.532-.484 1.135 1.135 0 0 1-.144-.704c.029-.25.128-.469.298-.655l2.15-.304ZM3.246 10.223l.557-.017.556-.018.898.104c.599.07 1.292.408 2.08 1.016.788.608 1.192 1.659 1.21 3.152a48.775 48.775 0 0 1-.123 4.26 68.375 68.375 0 0 0-.185 3.727c-.023 1.138-.103 2.044-.24 2.718-.138.674-.57 1.203-1.298 1.587a4.775 4.775 0 0 1-2.327.56c-.823-.011-1.452-.3-1.885-.864-.434-.565-.67-1.586-.712-3.064-.04-1.478-.023-3.367.053-5.666.076-2.3.159-3.539.249-3.716a.555.555 0 0 1 .428-.314.555.555 0 0 1 .506.163c.14.14.196.308.165.505a.555.555 0 0 1-.31.43.555.555 0 0 1-.532.002.555.555 0 0 1-.313-.43.555.555 0 0 1 .163-.505.555.555 0 0 1 .504-.165c.197.03.34.134.43.31.092.178.179 1.413.262 3.707a346.3 346.3 0 0 0 .232 5.438c.072 1.331.243 2.076.514 2.235.271.159.714.234 1.329.227.614-.007 1.024-.258 1.229-.752.205-.493.295-1.302.27-2.425a64.055 64.055 0 0 0-.196-3.695c-.107-1.34-.208-2.667-.301-3.984-.094-1.316-.26-2.025-.499-2.126-.239-.1-.565-.116-.98-.047-.414.07-.807.098-1.177.086a31.7 31.7 0 0 0-.88-.017c-.216 0-.442-.039-.68-.116a1.124 1.124 0 0 1-.575-.418 1.124 1.124 0 0 1-.22-.677c0-.25.073-.475.22-.677l1.578-.534Zm5.242-4.179-.21.477-.21.476s-.12.14-.356.421a3.63 3.63 0 0 1-.838.727c-.321.204-.72.34-1.195.408-.476.068-1.075-.009-1.799-.23a3.376 3.376 0 0 1-1.764-1.244A3.472 3.472 0 0 1 1.422 5c-.01-.777.208-1.48.655-2.107A3.598 3.598 0 0 1 3.8 1.567c.701-.257 1.46-.17 2.277.264.817.433 1.425.766 1.824 1 .399.233.621.58.666 1.04.046.46-.104.844-.45 1.15a1.291 1.291 0 0 1-1.195.313 1.291 1.291 0 0 1-.956-.784 1.291 1.291 0 0 1 .073-1.233c.234-.4.58-.621 1.04-.667.46-.045.844.105 1.151.45.307.346.411.745.312 1.196a1.29 1.29 0 0 1-.783.955c-.424.186-1.062.114-1.916-.216-.853-.33-1.211-.294-1.074.107.137.4.37.574.7.52.33-.055.537-.216.621-.485a4.22 4.22 0 0 1 .315-.752 1.19 1.19 0 0 1 .546-.52c.239-.114.488-.147.748-.099.26.048.48.167.663.359l.126 1.879Z" fill="currentColor" stroke="currentColor" stroke-width="2" stroke-linecap="round" stroke-linejoin="round"/></svg>