<svg width="30" height="30" fill="none" xmlns="http://www.w3.org/2000/svg"><g clip-path="url(#a)" fill="currentColor" stroke="currentColor" stroke-width="2" stroke-linecap="round" stroke-linejoin="round"><path d="M13.87 15.986a2170.033 2170.033 0 0 0 1.05.712l.691.214c.461.142 1.028.208 1.7.198a4.652 4.652 0 0 0 1.984-.493c.65-.317 1.318-.786 2.004-1.407a50.622 50.622 0 0 0 1.97-1.882 11.855 11.855 0 0 0 1.549-1.888 4.847 4.847 0 0 0 .75-1.999 4.45 4.45 0 0 0-.202-2.07 4.445 4.445 0 0 0-1.11-1.757 4.427 4.427 0 0 0-1.776-1.07 4.443 4.443 0 0 0-2.07-.156 5.006 5.006 0 0 0-1.936.73 10.17 10.17 0 0 0-1.664 1.336c-.521.515-1.008.827-1.46.937-.451.11-.854.014-1.208-.287a1.298 1.298 0 0 1-.48-1.146c.036-.463.251-.817.647-1.06a1.298 1.298 0 0 1 1.238-.102c.43.176.7.49.81.942.11.452.014.854-.287 1.209-.3.354-.683.514-1.146.479a1.298 1.298 0 0 1-1.061-.646 1.298 1.298 0 0 1-.101-1.238c.176-.43.55-.915 1.121-1.454a14.036 14.036 0 0 1 1.816-1.453 8.301 8.301 0 0 1 2.083-1.007 7.515 7.515 0 0 1 2.312-.366 7.528 7.528 0 0 1 4.404 1.403 7.528 7.528 0 0 1 1.673 1.638 7.505 7.505 0 0 1 1.09 2.067 7.571 7.571 0 0 1 .093 4.615c-.223.75-.603 1.5-1.139 2.249a22.957 22.957 0 0 1-1.764 2.169 48.08 48.08 0 0 1-1.869 1.93 12.621 12.621 0 0 1-1.779 1.463 7.447 7.447 0 0 1-5.654 1.133 8.136 8.136 0 0 1-1.62-.487 6.63 6.63 0 0 1-1.187-.665 7.306 7.306 0 0 1-.952-.806c-.287-.29-.51-.521-.671-.695a1.896 1.896 0 0 1-.378-.615 1.142 1.142 0 0 1-.039-.722c.066-.245.197-.447.394-.607.197-.16.421-.246.675-.26l1.5.915Z"/><path d="M16.13 14.014s-.175-.12-.525-.356l-.525-.356-.691-.214c-.461-.142-1.028-.208-1.7-.197a4.653 4.653 0 0 0-1.984.492c-.65.317-1.318.786-2.004 1.407a50.66 50.66 0 0 0-1.97 1.882 11.857 11.857 0 0 0-1.549 1.888 4.847 4.847 0 0 0-.75 1.999 4.448 4.448 0 0 0 .202 2.07c.23.674.6 1.26 1.11 1.757.508.498 1.1.855 1.776 1.07a4.441 4.441 0 0 0 2.07.156 4.997 4.997 0 0 0 1.935-.73c.587-.376 1.14-.82 1.658-1.335s1.003-.827 1.455-.937a1.3 1.3 0 0 1 1.209.284c.354.3.515.683.48 1.146a1.3 1.3 0 0 1-.644 1.062 1.298 1.298 0 0 1-1.238.103 1.3 1.3 0 0 1-.811-.941 1.298 1.298 0 0 1 .284-1.21c.3-.354.683-.514 1.146-.48.464.035.818.25 1.062.645.245.395.28.807.103 1.238-.176.43-.548.915-1.117 1.454a13.858 13.858 0 0 1-1.811 1.453 8.286 8.286 0 0 1-2.083 1.008c-.75.242-1.52.364-2.312.366a7.529 7.529 0 0 1-4.404-1.403 7.526 7.526 0 0 1-1.673-1.638 7.502 7.502 0 0 1-1.09-2.067 7.507 7.507 0 0 1-.406-2.303c-.015-.79.09-1.561.313-2.312.223-.75.603-1.5 1.139-2.249a22.958 22.958 0 0 1 1.764-2.169 47.69 47.69 0 0 1 1.869-1.93 12.62 12.62 0 0 1 1.779-1.463 7.446 7.446 0 0 1 5.653-1.133c.636.13 1.176.292 1.62.487.444.195.84.417 1.188.665.348.248.665.517.952.806.287.29.51.521.672.695.16.174.286.379.377.615.091.237.104.477.039.722a1.142 1.142 0 0 1-.394.607 1.14 1.14 0 0 1-.674.26l-1.5-.915Z"/></g><defs><clipPath id="a"><path fill="#fff" d="M0 0h30v30H0z"/></clipPath></defs></svg>