<svg width="30" height="30" fill="none" xmlns="http://www.w3.org/2000/svg"><g clip-path="url(#a)" fill="currentColor" stroke="currentColor" stroke-width="2" stroke-linecap="round" stroke-linejoin="round"><path d="m19.403 7.46.793-.032.792-.032s.213 0 .638-.003c.426-.002 1.013.039 1.763.122a7.623 7.623 0 0 1 4.2 1.875 7.5 7.5 0 0 1 2.338 4.08 7.55 7.55 0 0 1 .107 2.395 7.592 7.592 0 0 1-.646 2.317 7.62 7.62 0 0 1-1.337 2.006 7.644 7.644 0 0 1-1.896 1.494 8.208 8.208 0 0 1-2.203.854c-.756.171-1.46.262-2.11.272-.652.01-1.483-.032-2.494-.127-1.011-.095-2.411-.26-4.2-.497-1.787-.235-3.142-.315-4.064-.237-.921.077-1.737.136-2.446.178a15.78 15.78 0 0 1-2.173-.026 6.868 6.868 0 0 1-2.217-.573 7.362 7.362 0 0 1-2.075-1.387c-.645-.602-1.138-1.247-1.479-1.935a7.473 7.473 0 0 1-.69-2.2 7.43 7.43 0 0 1 .012-2.343 7.46 7.46 0 0 1 2.137-4.12 7.461 7.461 0 0 1 1.916-1.369 8.25 8.25 0 0 1 2.268-.742 17.21 17.21 0 0 1 2.652-.237c.966-.018 1.653.075 2.062.278.409.203.65.53.726.98.076.45-.046.838-.365 1.164-.32.326-.706.456-1.157.389a1.275 1.275 0 0 1-.994-.708 1.275 1.275 0 0 1-.012-1.22c.203-.41.53-.651.98-.727.45-.076.839.046 1.164.366.326.32.456.705.388 1.157a1.275 1.275 0 0 1-.707.994c-.405.21-1.045.318-1.921.322a12.46 12.46 0 0 0-2.394.22 5.098 5.098 0 0 0-1.968.84 4.497 4.497 0 0 0-1.398 1.586 4.513 4.513 0 0 0-.532 2.056c-.015.73.161 1.458.529 2.182.367.724.815 1.305 1.343 1.745a4.883 4.883 0 0 0 1.82.948c.684.194 1.38.329 2.088.405.707.077 1.522.154 2.443.231.922.078 2.396-.004 4.423-.243 2.027-.24 3.604-.408 4.732-.504 1.128-.096 2.04-.21 2.738-.342a5.044 5.044 0 0 0 1.918-.787 4.361 4.361 0 0 0 1.383-1.512 4.405 4.405 0 0 0 .556-1.986 4.468 4.468 0 0 0-.397-2.043 4.564 4.564 0 0 0-1.287-1.675 4.961 4.961 0 0 0-1.88-.972c-.689-.185-1.242-.296-1.658-.331a31.75 31.75 0 0 0-1.416-.086 32.017 32.017 0 0 0-1.164-.032 2.34 2.34 0 0 1-.727-.116 1.127 1.127 0 0 1-.578-.42 1.127 1.127 0 0 1-.22-.678c0-.25.073-.476.22-.678l1.676-.536Z"/><path d="M12.337 13.793a9071.142 9071.142 0 0 0 2.225.053l2.297.046c1.531.03 2.44.119 2.726.264a.898.898 0 0 1 .506.696.898.898 0 0 1-.266.817.898.898 0 0 1-.817.266.898.898 0 0 1-.696-.505.898.898 0 0 1 0-.86.898.898 0 0 1 .696-.505c.317-.05.59.038.817.266a.9.9 0 0 1 .266.817.898.898 0 0 1-.506.696c-.286.146-1.195.234-2.726.264s-2.668.055-3.41.072a77.83 77.83 0 0 1-1.759.027c-.43 0-.765-.038-1.001-.115a1.121 1.121 0 0 1-.574-.417 1.12 1.12 0 0 1-.22-.675c0-.249.074-.474.22-.675l2.222-.532Z"/></g><defs><clipPath id="a"><path fill="#fff" d="M0 0h30v30H0z"/></clipPath></defs></svg>