<svg width="30" height="30" fill="none" xmlns="http://www.w3.org/2000/svg"><path d="m13.922 6.355 1.808.144 1.807.145 3.733.138c2.488.093 3.81.179 3.966.258a.49.49 0 0 1 .276.38.49.49 0 0 1-.145.445.49.49 0 0 1-.445.144.49.49 0 0 1-.38-.275.49.49 0 0 1 0-.468.49.49 0 0 1 .38-.275.49.49 0 0 1 .445.144.49.49 0 0 1 .145.446.49.49 0 0 1-.276.379c-.156.08-1.478.165-3.966.258-2.488.092-4.335.186-5.54.283-1.205.096-2.158.144-2.859.144-.7 0-1.163-.036-1.388-.11a1.063 1.063 0 0 1-.544-.395 1.063 1.063 0 0 1-.208-.64c0-.236.07-.45.208-.64l2.983-.505Zm0 7.5a26888.045 26888.045 0 0 0 3.615.289l3.733.138c2.488.093 3.81.179 3.966.258a.49.49 0 0 1 .276.38.49.49 0 0 1-.145.445.49.49 0 0 1-.445.144.49.49 0 0 1-.38-.275.49.49 0 0 1 0-.468.49.49 0 0 1 .38-.275.49.49 0 0 1 .445.144.49.49 0 0 1 .145.446.49.49 0 0 1-.276.379c-.156.08-1.478.165-3.966.258-2.488.092-4.335.186-5.54.283-1.205.096-2.158.144-2.859.144-.7 0-1.163-.037-1.388-.11a1.063 1.063 0 0 1-.544-.395 1.063 1.063 0 0 1-.208-.64c0-.236.07-.45.208-.64l2.983-.505Zm0 7.5a11894.987 11894.987 0 0 0 3.615.289l3.733.138c2.488.093 3.81.179 3.966.258a.49.49 0 0 1 .276.38.49.49 0 0 1-.145.445.49.49 0 0 1-.445.145.49.49 0 0 1-.38-.276.49.49 0 0 1 0-.468.49.49 0 0 1 .38-.275.49.49 0 0 1 .445.144.49.49 0 0 1 .145.446.49.49 0 0 1-.276.379c-.156.08-1.478.165-3.966.258-2.488.092-4.335.186-5.54.283-1.205.096-2.158.144-2.859.144-.7 0-1.163-.037-1.388-.11a1.063 1.063 0 0 1-.544-.395 1.063 1.063 0 0 1-.208-.64c0-.236.07-.45.208-.64l2.983-.505Zm-10.166-15a7814.231 7814.231 0 0 0 .69.224l.212.294c.142.195.213.413.213.655 0 .242-.07.46-.213.655-.142.196-.327.33-.557.406a1.1 1.1 0 0 1-.69 0 1.089 1.089 0 0 1-.557-.406 1.089 1.089 0 0 1-.213-.655c0-.242.071-.46.213-.655l.902-.518Zm0 7.5.345.112.344.112.213.293c.142.196.213.414.213.656 0 .242-.07.46-.213.655-.142.196-.327.33-.557.406a1.09 1.09 0 0 1-.69 0 1.089 1.089 0 0 1-.557-.405 1.089 1.089 0 0 1-.213-.656c0-.242.071-.46.213-.655l.902-.518Zm0 7.5.345.112.344.112.213.293c.142.196.213.414.213.656 0 .242-.07.46-.213.655-.142.196-.327.33-.557.406a1.09 1.09 0 0 1-.69 0 1.089 1.089 0 0 1-.557-.405 1.089 1.089 0 0 1-.213-.656c0-.242.071-.46.213-.655l.902-.518Z" fill="currentColor" stroke="currentColor" stroke-width="2" stroke-linecap="round" stroke-linejoin="round"/></svg>