<svg width="30" height="30" fill="none" xmlns="http://www.w3.org/2000/svg"><g clip-path="url(#a)" fill="currentColor" stroke="currentColor" stroke-width="2" stroke-linecap="round" stroke-linejoin="round"><path d="m16.21 3.63.018.557.018.556.008 1.149c.006.765-.078 1.318-.252 1.659-.173.34-.449.54-.826.6a1.067 1.067 0 0 1-.972-.315 1.068 1.068 0 0 1-.315-.972c.06-.377.26-.653.6-.826.34-.174.681-.174 1.022 0 .34.173.54.449.6.826.06.378-.045.701-.316.972-.27.27-.594.375-.971.315a1.068 1.068 0 0 1-.826-.6c-.174-.34-.258-.894-.252-1.66.005-.765.014-1.333.026-1.704.011-.37.017-.664.017-.88 0-.215.039-.442.116-.679.077-.237.216-.429.418-.576a1.13 1.13 0 0 1 .677-.22c.25 0 .475.074.677.22l.534 1.579Zm0 20a2184.304 2184.304 0 0 0 .036 1.113l.008 1.149c.006.765-.078 1.318-.252 1.659-.173.34-.449.54-.826.6a1.067 1.067 0 0 1-.972-.315 1.068 1.068 0 0 1-.315-.972c.06-.377.26-.653.6-.826.34-.174.681-.174 1.022 0 .34.173.54.449.6.826.06.377-.045.701-.316.972-.27.27-.594.375-.971.315a1.067 1.067 0 0 1-.826-.6c-.174-.34-.258-.894-.252-1.66.005-.765.014-1.333.026-1.704a29.5 29.5 0 0 0 .017-.88c0-.215.039-.442.116-.679.077-.237.216-.429.418-.576a1.13 1.13 0 0 1 .677-.22c.25 0 .475.074.677.22l.534 1.579ZM7.82 6.101a16447.775 16447.775 0 0 0 .813.762l.818.807c.546.538.878.988.996 1.352.118.363.065.7-.16 1.008-.225.31-.528.464-.91.464s-.686-.154-.91-.463a1.067 1.067 0 0 1-.16-1.01c.118-.363.359-.604.722-.722a1.07 1.07 0 0 1 1.009.16c.31.225.464.528.464.91s-.155.686-.464.91c-.31.225-.645.278-1.009.16-.363-.118-.814-.45-1.352-.995A77.144 77.144 0 0 1 6.49 8.219a30.5 30.5 0 0 0-.61-.634 2.199 2.199 0 0 1-.399-.563 1.124 1.124 0 0 1-.111-.703c.039-.246.146-.457.323-.634.176-.176.388-.284.634-.323l1.494.74Zm14.138 14.138.406.38.406.382.819.806c.545.538.877.989.995 1.352.118.364.065.7-.16 1.009-.224.31-.528.464-.91.464s-.685-.155-.91-.464a1.067 1.067 0 0 1-.16-1.009c.118-.363.36-.604.723-.722s.7-.065 1.008.16c.31.224.464.528.464.91s-.154.685-.463.91c-.31.224-.646.278-1.01.16-.363-.118-.813-.45-1.351-.996a77.685 77.685 0 0 1-1.188-1.224c-.254-.27-.457-.482-.61-.635a2.194 2.194 0 0 1-.398-.562 1.124 1.124 0 0 1-.112-.703c.04-.246.147-.458.323-.634.177-.177.388-.284.634-.323l1.494.739ZM3.63 13.79l.557-.018.556-.018 1.149-.008c.765-.006 1.318.078 1.659.252.34.173.54.449.6.826.06.377-.045.701-.315.972-.27.27-.594.375-.972.315a1.067 1.067 0 0 1-.826-.6 1.067 1.067 0 0 1 0-1.022c.173-.34.449-.54.826-.6.378-.06.701.045.972.316.27.27.375.594.315.971s-.26.653-.6.826c-.34.174-.894.258-1.66.252a76.884 76.884 0 0 1-1.704-.026 31.63 31.63 0 0 0-.88-.017c-.215 0-.442-.039-.679-.116a1.124 1.124 0 0 1-.576-.418 1.124 1.124 0 0 1-.22-.677c0-.25.074-.475.22-.677l1.579-.534Zm20 0 .557-.018.556-.018 1.149-.008c.765-.006 1.318.078 1.659.252.34.173.54.449.6.826.06.377-.045.701-.315.972-.27.27-.595.375-.972.315a1.067 1.067 0 0 1-.826-.6 1.067 1.067 0 0 1 0-1.022c.173-.34.449-.54.826-.6.377-.06.701.045.972.316.27.27.375.594.315.971s-.26.653-.6.826c-.34.174-.894.258-1.66.252a76.888 76.888 0 0 1-1.704-.026 31.63 31.63 0 0 0-.88-.017c-.215 0-.442-.039-.679-.116a1.124 1.124 0 0 1-.576-.418 1.124 1.124 0 0 1-.22-.677c0-.25.074-.475.22-.677l1.579-.534ZM6.101 22.18l.381-.407.381-.406.807-.818c.538-.546.988-.878 1.352-.996.363-.118.7-.065 1.008.16.31.225.464.528.464.91s-.154.686-.463.91c-.31.225-.646.278-1.01.16a1.068 1.068 0 0 1-.722-.722 1.07 1.07 0 0 1 .16-1.009c.225-.31.528-.464.91-.464s.686.155.91.464c.225.31.278.645.16 1.009-.118.363-.45.814-.995 1.352-.546.537-.954.933-1.225 1.187a30.5 30.5 0 0 0-.634.61c-.153.153-.34.286-.563.399-.222.113-.456.15-.703.111a1.124 1.124 0 0 1-.634-.323 1.124 1.124 0 0 1-.323-.634l.74-1.494ZM20.239 8.042l.38-.406.382-.406.806-.819c.538-.545.989-.877 1.352-.995.364-.118.7-.065 1.009.16.31.224.464.528.464.91s-.155.685-.464.91a1.07 1.07 0 0 1-1.009.16 1.068 1.068 0 0 1-.722-.723c-.118-.363-.065-.7.16-1.009.224-.309.528-.463.91-.463s.685.154.91.463c.224.31.278.646.16 1.01-.118.363-.45.813-.996 1.351a77.58 77.58 0 0 1-1.224 1.188c-.27.254-.482.457-.635.61-.152.152-.34.285-.562.398-.222.114-.457.15-.703.112a1.123 1.123 0 0 1-.634-.323 1.124 1.124 0 0 1-.323-.634l.739-1.494Z"/></g><defs><clipPath id="a"><path fill="#fff" d="M0 0h30v30H0z"/></clipPath></defs></svg>