<svg width="30" height="30" fill="none" xmlns="http://www.w3.org/2000/svg"><path d="M8.515 12.678a3250490.034 3250490.034 0 0 0 3.893.344l2.35.152c1.568.1 3.01.15 4.33.146l3.196-.007c.811-.003 1.57.077 2.274.237.705.16 1.273.495 1.703 1.002.43.508.714 1.099.849 1.773.135.674.207 1.349.214 2.025.008.675.007 1.407-.003 2.195-.01.789-.015 1.556-.015 2.303a21.05 21.05 0 0 1-.12 2.223 4.212 4.212 0 0 1-.733 1.987c-.41.589-1.096 1.007-2.06 1.255-.962.247-2.334.318-4.114.21-1.78-.106-3.456-.213-5.026-.32a64.602 64.602 0 0 0-4.337-.16c-1.32-.001-2.386 0-3.198.003a10.01 10.01 0 0 1-2.275-.236c-.705-.161-1.274-.496-1.704-1.004a3.872 3.872 0 0 1-.85-1.774 10.877 10.877 0 0 1-.213-2.026 95.425 95.425 0 0 1 .003-2.195c.01-.789.015-1.556.016-2.302 0-.746.22-1.695.658-2.845.438-1.151.76-1.885.966-2.201a1.05 1.05 0 0 1 .873-.503c.377-.02.684.117.92.41.238.294.307.622.21.987a1.053 1.053 0 0 1-.676.748c-.352.135-.686.1-1.002-.106a1.053 1.053 0 0 1-.503-.873 1.05 1.05 0 0 1 .41-.92 1.05 1.05 0 0 1 .986-.21c.365.098.614.323.75.675.134.353-.07 1.07-.616 2.154-.544 1.084-.824 1.988-.839 2.713a64.56 64.56 0 0 0-.005 2.266c.011.785.035 1.706.07 2.764.037 1.059.322 1.855.856 2.389.534.534 1.198.851 1.992.954.794.102 1.85.153 3.17.152a63.615 63.615 0 0 0 4.335-.165c1.57-.108 3.004-.23 4.305-.366 1.3-.135 2.425-.322 3.374-.56.95-.239 1.557-.643 1.822-1.214.265-.57.405-1.217.42-1.942a65.58 65.58 0 0 0 .006-2.264c-.012-.785-.035-1.707-.07-2.765-.037-1.06-.322-1.856-.856-2.391-.535-.535-1.2-.853-1.993-.954-.794-.101-1.851-.153-3.17-.157a65.351 65.351 0 0 0-4.33.147c-1.566.101-2.999.209-4.296.324-1.298.115-2.324.172-3.079.172-.755 0-1.242-.036-1.463-.107a1.044 1.044 0 0 1-.535-.389 1.045 1.045 0 0 1-.204-.629c0-.232.068-.442.204-.629l3.13-.496Z" fill="currentColor" stroke="currentColor" stroke-width="2" stroke-linecap="round" stroke-linejoin="round"/><path d="m7.441 13.159-.017-.557-.018-.556-.015-.76a65.257 65.257 0 0 1-.007-1.768c.005-.672.073-1.363.204-2.075a7.65 7.65 0 0 1 .728-2.107 7.381 7.381 0 0 1 1.372-1.877 7.398 7.398 0 0 1 4.127-2.08 7.447 7.447 0 0 1 2.35.015A7.478 7.478 0 0 1 20.29 3.54a7.475 7.475 0 0 1 1.37 1.92c.354.71.601 1.44.74 2.185.14.746.213 1.8.22 3.161.006 1.362-.09 2.243-.29 2.643-.2.4-.521.636-.962.709-.44.073-.82-.047-1.138-.361a1.248 1.248 0 0 1-.378-1.133c.067-.442.299-.766.695-.971a1.248 1.248 0 0 1 1.195-.01c.399.2.635.521.709.962.073.44-.048.82-.361 1.138a1.248 1.248 0 0 1-1.133.378 1.248 1.248 0 0 1-.972-.695c-.205-.397-.313-1.108-.324-2.135a28.133 28.133 0 0 0-.125-2.58 5.565 5.565 0 0 0-.594-1.981 4.596 4.596 0 0 0-1.352-1.592 4.477 4.477 0 0 0-1.94-.837 4.524 4.524 0 0 0-2.119.129 4.55 4.55 0 0 0-1.844 1.078 4.717 4.717 0 0 0-1.189 1.84c-.26.72-.42 1.422-.48 2.109a27.24 27.24 0 0 0-.104 1.79c-.01.506-.02.944-.033 1.315a31.7 31.7 0 0 0-.017.88c0 .216-.039.442-.116.68a1.127 1.127 0 0 1-.418.575c-.202.146-.427.22-.677.22-.25 0-.475-.074-.677-.22l-.534-1.579Z" fill="currentColor" stroke="currentColor" stroke-width="2" stroke-linecap="round" stroke-linejoin="round"/></svg>