<svg width="30" height="30" fill="none" xmlns="http://www.w3.org/2000/svg"><path d="m19.326 2.58.556-.018.556-.018.76-.015c.507-.01 1.102 0 1.785.028.683.028 1.374.18 2.074.455.7.276 1.265.756 1.696 1.442.43.685.666 1.534.706 2.546.04 1.012-.015 2.172-.166 3.479a115.22 115.22 0 0 0-.409 4.314 62.702 62.702 0 0 0-.197 4.333c-.01 1.32-.005 2.376.016 3.168.021.793-.023 1.52-.133 2.183a3.082 3.082 0 0 1-.896 1.72c-.486.483-1.098.81-1.833.983-.735.173-1.62.27-2.658.291-1.037.022-1.72-.05-2.047-.216a1.026 1.026 0 0 1-.58-.793 1.026 1.026 0 0 1 .3-.935c.26-.26.57-.362.934-.306.363.056.628.248.796.575.168.327.169.654.003.982a1.03 1.03 0 0 1-.793.58 1.026 1.026 0 0 1-.935-.301 1.027 1.027 0 0 1-.306-.933c.056-.363.248-.628.575-.796.327-.168 1.274-.293 2.843-.374 1.569-.082 2.543-.36 2.923-.834.38-.475.607-1.096.68-1.864.074-.767.106-1.81.096-3.13a62.642 62.642 0 0 0-.199-4.332 110.522 110.522 0 0 0-.412-4.305c-.153-1.3-.407-2.418-.764-3.351-.357-.933-.836-1.512-1.437-1.736-.6-.224-1.155-.341-1.662-.351-.506-.01-.945-.021-1.316-.033a31.63 31.63 0 0 0-.88-.017c-.215 0-.441-.039-.678-.116a1.125 1.125 0 0 1-.576-.418 1.124 1.124 0 0 1-.22-.677c0-.25.073-.475.22-.677l1.578-.534Z" fill="currentColor" stroke="currentColor" stroke-width="2" stroke-linecap="round" stroke-linejoin="round"/><path d="m12.964 18.92.703-.687.703-.687.863-.816c.575-.544.966-1.142 1.175-1.791.21-.65-.242-1.626-1.352-2.93-1.11-1.303-1.717-2.117-1.82-2.44a.95.95 0 0 1 .15-.897.95.95 0 0 1 .813-.405.95.95 0 0 1 .806.418.949.949 0 0 1 .134.899.95.95 0 0 1-.647.637.949.949 0 0 1-.896-.15.949.949 0 0 1-.406-.812.95.95 0 0 1 .42-.806.949.949 0 0 1 .897-.135c.323.108.97.64 1.943 1.596.972.956 1.73 1.875 2.274 2.756.544.88.748 1.64.611 2.277-.137.638-.446 1.223-.928 1.756a98.702 98.702 0 0 1-1.54 1.662 138.54 138.54 0 0 1-2.594 2.673c-.27.27-.516.461-.738.575-.223.113-.457.15-.704.11a1.125 1.125 0 0 1-.634-.322 1.124 1.124 0 0 1-.323-.635l1.09-1.846Z" fill="currentColor" stroke="currentColor" stroke-width="2" stroke-linecap="round" stroke-linejoin="round"/><path d="m15.142 16.162-1.669-.118-1.668-.118-3.446-.126c-2.297-.084-3.536-.173-3.718-.265a.57.57 0 0 1-.32-.441.57.57 0 0 1 .168-.518.57.57 0 0 1 .519-.169.57.57 0 0 1 .44.32.57.57 0 0 1 0 .546.57.57 0 0 1-.44.32.57.57 0 0 1-.519-.169.57.57 0 0 1-.168-.518.57.57 0 0 1 .32-.44c.182-.093 1.421-.182 3.718-.266 2.297-.084 4.002-.165 5.114-.244a39.477 39.477 0 0 1 2.639-.118c.647 0 1.084.037 1.312.11.227.075.412.208.553.402.14.194.21.41.21.65 0 .24-.07.456-.21.65l-2.835.512Z" fill="currentColor" stroke="currentColor" stroke-width="2" stroke-linecap="round" stroke-linejoin="round"/></svg>