<svg width="30" height="30" fill="none" xmlns="http://www.w3.org/2000/svg"><path d="m10.674 27.42-.556.018-.557.018-.76.015c-.506.01-1.101 0-1.784-.028a6.364 6.364 0 0 1-2.074-.455c-.7-.276-1.265-.756-1.696-1.442-.43-.685-.666-1.534-.707-2.546-.04-1.012.016-2.172.167-3.479.151-1.307.287-2.745.409-4.314a62.77 62.77 0 0 0 .197-4.333c.01-1.32.005-2.376-.016-3.168a11.48 11.48 0 0 1 .133-2.183c.11-.663.409-1.236.896-1.72.487-.482 1.098-.81 1.833-.983.735-.173 1.62-.27 2.658-.291 1.037-.022 1.72.05 2.047.216.328.166.521.43.58.793.058.362-.042.674-.3.935-.26.26-.57.362-.934.306a1.026 1.026 0 0 1-.796-.575 1.026 1.026 0 0 1-.003-.982c.166-.328.43-.52.793-.58.362-.058.674.042.935.301.26.26.362.57.306.933a1.026 1.026 0 0 1-.575.796c-.327.168-1.274.293-2.843.374-1.569.082-2.543.36-2.923.834-.38.475-.607 1.096-.68 1.863-.074.768-.106 1.812-.096 3.131.01 1.32.077 2.764.199 4.332.122 1.569.259 3.003.412 4.305.153 1.3.407 2.418.764 3.351.357.933.836 1.512 1.437 1.736.6.224 1.155.341 1.661.351.507.01.946.021 1.317.033.37.012.664.017.88.017.215 0 .441.039.679.116.237.077.429.216.575.418.147.202.22.428.22.677 0 .25-.073.475-.22.677l-1.578.534Zm9.79-8.5.703-.687.703-.687.863-.816c.575-.544.966-1.142 1.175-1.791.21-.65-.242-1.626-1.352-2.93-1.11-1.303-1.717-2.117-1.82-2.44a.95.95 0 0 1 .15-.897.95.95 0 0 1 .813-.405.95.95 0 0 1 .805.418.949.949 0 0 1 .135.899.95.95 0 0 1-.647.637.949.949 0 0 1-.896-.15.949.949 0 0 1-.406-.812.95.95 0 0 1 .42-.806.949.949 0 0 1 .897-.135c.323.108.97.64 1.943 1.596.972.956 1.73 1.875 2.274 2.756.544.88.748 1.64.611 2.277-.137.638-.446 1.223-.928 1.756a98.702 98.702 0 0 1-1.54 1.662 138.54 138.54 0 0 1-2.594 2.673c-.27.27-.516.461-.738.575-.223.113-.457.15-.704.11a1.125 1.125 0 0 1-.634-.322 1.124 1.124 0 0 1-.323-.635l1.09-1.846Z" fill="currentColor" stroke="currentColor" stroke-width="2" stroke-linecap="round" stroke-linejoin="round"/><path d="m22.642 16.162-1.669-.118-1.668-.118-3.446-.126c-2.297-.084-3.536-.173-3.718-.265a.57.57 0 0 1-.32-.441.57.57 0 0 1 .168-.518.57.57 0 0 1 .519-.169.57.57 0 0 1 .44.32.57.57 0 0 1 0 .546.57.57 0 0 1-.44.32.57.57 0 0 1-.518-.169.57.57 0 0 1-.169-.518.57.57 0 0 1 .32-.44c.182-.093 1.421-.182 3.718-.266 2.297-.084 4.002-.165 5.114-.244a39.477 39.477 0 0 1 2.639-.118c.647 0 1.084.037 1.312.11.227.075.412.208.553.402.14.194.21.41.21.65 0 .24-.07.456-.21.65l-2.835.512Z" fill="currentColor" stroke="currentColor" stroke-width="2" stroke-linecap="round" stroke-linejoin="round"/></svg>