<svg width="30" height="30" fill="none" xmlns="http://www.w3.org/2000/svg"><path d="M7.586 3.996a375645.159 375645.159 0 0 0 4.45.397l2.686.111c1.79.075 3.44.112 4.947.112 1.508 0 2.715.009 3.62.027.905.019 1.718.109 2.438.272.72.162 1.292.51 1.718 1.043.426.533.702 1.247.828 2.143.126.896.163 1.911.111 3.045a376.849 376.849 0 0 1-.188 3.721 76.527 76.527 0 0 0-.123 3.718 88.89 88.89 0 0 0 .017 2.774c.02.717-.06 1.42-.237 2.109a2.937 2.937 0 0 1-1.164 1.683c-.599.433-1.449.697-2.55.79-1.102.094-2.405.083-3.908-.033a114.383 114.383 0 0 0-4.947-.265c-1.794-.06-3.446-.09-4.954-.09-1.509 0-2.716-.01-3.621-.028a12.148 12.148 0 0 1-2.437-.274c-.719-.164-1.291-.512-1.716-1.044-.426-.532-.702-1.246-.828-2.14-.126-.896-.164-1.91-.113-3.044.051-1.134.114-2.374.188-3.721A76.725 76.725 0 0 0 1.9 8.84c-.024-.697.161-1.466.556-2.308.394-.841.668-1.384.82-1.63a.808.808 0 0 1 .662-.4.81.81 0 0 1 .712.301.808.808 0 0 1 .175.753.808.808 0 0 1-.506.584.808.808 0 0 1-.77-.066.808.808 0 0 1-.399-.661.808.808 0 0 1 .3-.712.808.808 0 0 1 .753-.176.81.81 0 0 1 .585.506c.108.268-.108.802-.65 1.602-.541.8-.856 1.541-.944 2.226-.088.685-.128 1.592-.12 2.724.007 1.131.049 2.37.124 3.715.076 1.346.143 2.577.2 3.693.058 1.117.157 2.132.298 3.047.14.916.47 1.551.99 1.907.52.356 1.213.556 2.08.602.867.046 2.055.068 3.563.068 1.509 0 3.16-.031 4.953-.093a104.83 104.83 0 0 0 4.923-.278c1.488-.123 2.707-.222 3.658-.297.95-.074 1.641-.358 2.074-.851a3.516 3.516 0 0 0 .823-1.777c.116-.69.17-1.602.163-2.733a74.988 74.988 0 0 0-.126-3.716 828.525 828.525 0 0 1-.202-3.692 30.842 30.842 0 0 0-.297-3.045c-.14-.914-.47-1.55-.988-1.906-.52-.357-1.212-.559-2.08-.605a70.95 70.95 0 0 0-3.56-.069c-1.509 0-3.158.037-4.949.111-1.79.074-3.427.178-4.91.31-1.483.133-2.656.199-3.519.199-.862 0-1.4-.035-1.614-.104a1.01 1.01 0 0 1-.517-.376 1.01 1.01 0 0 1-.198-.609c0-.224.066-.427.198-.608l3.425-.48Z" fill="currentColor" stroke="currentColor" stroke-width="2" stroke-linecap="round" stroke-linejoin="round"/><path d="m25.054 10.404-1.461.872-1.462.873-1.76 1.057a77.23 77.23 0 0 0-3.215 2.031c-.969.65-1.884 1.063-2.747 1.241-.863.179-2.02-.096-3.474-.825-1.453-.728-3.127-1.784-5.024-3.167-1.896-1.384-2.883-2.146-2.96-2.288a.45.45 0 0 1-.01-.43.45.45 0 0 1 .342-.261.45.45 0 0 1 .412.122.45.45 0 0 1 .143.406.45.45 0 0 1-.244.354.45.45 0 0 1-.43.011.45.45 0 0 1-.262-.341.45.45 0 0 1 .123-.413.45.45 0 0 1 .406-.143c.16.021 1.214.674 3.164 1.957a167.65 167.65 0 0 0 4.68 2.996c1.17.714 2.107 1.025 2.812.933.705-.092 1.515-.474 2.431-1.144a77.33 77.33 0 0 0 2.97-2.298 1467.67 1467.67 0 0 0 2.917-2.367 38.66 38.66 0 0 1 2.128-1.64c.54-.378.923-.602 1.151-.671.229-.07.456-.066.681.012.226.077.407.214.544.41.137.195.204.412.2.651l-2.055 2.062Z" fill="currentColor" stroke="currentColor" stroke-width="2" stroke-linecap="round" stroke-linejoin="round"/></svg>