<svg width="30" height="30" fill="none" xmlns="http://www.w3.org/2000/svg"><path d="m25.161 18.421-1.392 2.097-1.393 2.097-1.535 1.77c-1.023 1.18-1.97 2.172-2.843 2.976-.872.803-1.706 1.298-2.501 1.485-.796.186-1.853-.116-3.171-.907a13.681 13.681 0 0 1-3.469-2.967 30.308 30.308 0 0 1-2.794-3.967c-.868-1.457-1.522-2.912-1.961-4.365-.44-1.452-.693-2.592-.76-3.418a12.145 12.145 0 0 1 .002-2.237c.07-.664.192-1.3.368-1.906.177-.607.407-1.19.69-1.75.285-.56.617-1.093.998-1.6.38-.506.8-.978 1.263-1.416a11.564 11.564 0 0 1 3.14-2.123 11.796 11.796 0 0 1 3.678-1.017 12.086 12.086 0 0 1 3.84.193 12.149 12.149 0 0 1 5.17 2.477c.502.41.969.857 1.4 1.34.433.484.996 1.467 1.692 2.949.695 1.481 1.066 2.403 1.114 2.766a1.02 1.02 0 0 1-.327.92 1.021 1.021 0 0 1-.937.277 1.021 1.021 0 0 1-.775-.595 1.021 1.021 0 0 1 .026-.977c.175-.321.443-.505.806-.553.362-.047.67.062.92.327.252.265.345.578.278.937-.067.36-.266.618-.596.775-.33.157-.656.149-.977-.026-.321-.175-.932-1.113-1.833-2.814-.902-1.701-1.759-2.872-2.571-3.513a9.882 9.882 0 0 0-5.687-2.114 10.098 10.098 0 0 0-3.075.332c-1.008.268-1.96.684-2.853 1.248a10.686 10.686 0 0 0-2.394 2.065 9.747 9.747 0 0 0-1.68 2.795c-.419 1.05-.636 2.019-.653 2.906-.017.886.178 2.019.585 3.397.407 1.378 1.026 2.77 1.858 4.174.831 1.404 1.763 2.637 2.797 3.697 1.033 1.06 1.954 1.93 2.761 2.607.808.678 1.598 1.003 2.37.976.77-.026 1.608-.4 2.51-1.12.902-.721 1.85-1.65 2.84-2.785a20.622 20.622 0 0 0 2.598-3.754 23.593 23.593 0 0 0 1.838-4.48c.485-1.619.769-2.49.85-2.61a.658.658 0 0 1 .33-.257.658.658 0 0 1 .416-.014c.14.04.255.118.345.233l-1.306 5.47Z" fill="currentColor" stroke="currentColor" stroke-width="2" stroke-linecap="round" stroke-linejoin="round"/><path d="m19.653 13.918-.295.637-.296.637-.674.612c-.45.408-1.143.76-2.082 1.058a4.49 4.49 0 0 1-2.826-.02 4.43 4.43 0 0 1-2.281-1.678 4.533 4.533 0 0 1-.852-2.73 4.504 4.504 0 0 1 .904-2.72 4.526 4.526 0 0 1 2.336-1.656c.962-.302 2.079-.11 3.351.577 1.272.686 2.052 1.192 2.34 1.515.288.324.386.698.293 1.12a1.21 1.21 0 0 1-.735.896 1.21 1.21 0 0 1-1.155-.068 1.21 1.21 0 0 1-.625-.975 1.21 1.21 0 0 1 .422-1.078 1.21 1.21 0 0 1 1.12-.293c.423.093.722.338.895.734a1.21 1.21 0 0 1-.067 1.156 1.21 1.21 0 0 1-.976.625c-.43.042-1.03-.239-1.798-.844-.768-.606-1.475-.838-2.12-.698s-1.083.51-1.315 1.114a1.826 1.826 0 0 0 .17 1.72c.345.543.852.835 1.52.873.67.039 1.21-.108 1.623-.441.413-.334.673-.701.78-1.102.107-.402.222-.719.343-.95.122-.232.3-.406.534-.522a1.18 1.18 0 0 1 .738-.108c.258.044.479.16.661.347l.067 2.262Z" fill="currentColor" stroke="currentColor" stroke-width="2" stroke-linecap="round" stroke-linejoin="round"/></svg>