<svg width="30" height="30" fill="none" xmlns="http://www.w3.org/2000/svg"><g clip-path="url(#a)" fill="currentColor" stroke="currentColor" stroke-width="2" stroke-linecap="round" stroke-linejoin="round"><path d="M2.5 10.087s-.065.742-.198 2.225l-.199 2.225-.11 2.686a149.46 149.46 0 0 0-.132 4.917c-.013 1.487.04 2.517.157 3.088.118.572.508.69 1.172.352.664-.337 1.377-.73 2.14-1.18a36.48 36.48 0 0 1 2.33-1.259 7.661 7.661 0 0 1 2.574-.74 4.769 4.769 0 0 1 2.61.423c.816.385 1.67.814 2.564 1.288.893.474 1.735.883 2.525 1.23.79.345 1.585.46 2.387.343.802-.116 1.801-.5 2.999-1.15 1.198-.65 2.116-1.207 2.755-1.67.64-.464 1.099-1.087 1.377-1.871s.482-1.901.611-3.353c.13-1.45.224-3.072.285-4.862.06-1.791.098-3.43.113-4.918.014-1.488-.038-2.518-.155-3.09-.118-.573-.508-.692-1.173-.356-.664.336-1.378.728-2.14 1.178-.763.45-1.54.87-2.33 1.262a7.651 7.651 0 0 1-2.572.74 4.767 4.767 0 0 1-2.61-.422 61.748 61.748 0 0 1-2.563-1.286 37.761 37.761 0 0 0-2.525-1.23c-.79-.345-1.586-.46-2.387-.343-.802.116-2.08.659-3.836 1.628-1.755.969-2.778 1.46-3.068 1.47a.813.813 0 0 1-.707-.324.813.813 0 0 1-.153-.763.813.813 0 0 1 .527-.572.813.813 0 0 1 .773.09c.242.162.37.388.381.68a.813.813 0 0 1-.325.706.813.813 0 0 1-.763.153.813.813 0 0 1-.572-.528.813.813 0 0 1 .09-.772c.162-.243.916-.755 2.261-1.536a83.437 83.437 0 0 1 3.125-1.75c.738-.384 1.578-.53 2.52-.436a9.594 9.594 0 0 1 2.751.696 83.42 83.42 0 0 1 2.701 1.18 17.03 17.03 0 0 0 3.08 1.041c1.145.278 2.153.295 3.024.05.87-.245 1.707-.578 2.511-1a8.504 8.504 0 0 1 2.668-.858c.975-.15 1.61.151 1.905.906.295.755.448 1.897.46 3.426.012 1.53.043 3.192.093 4.989.05 1.797.12 3.465.206 5.004.087 1.539-.124 2.874-.634 4.004-.51 1.13-1.131 1.985-1.866 2.563-.734.579-1.495 1.1-2.283 1.567-.787.466-1.55.89-2.288 1.275-.738.385-1.577.53-2.519.437a9.598 9.598 0 0 1-2.752-.696 82.543 82.543 0 0 1-2.701-1.18 17.015 17.015 0 0 0-3.079-1.04c-1.145-.277-2.152-.293-3.022-.048-.87.245-1.707.579-2.511 1.001a8.438 8.438 0 0 1-2.669.858c-.975.15-1.61-.154-1.907-.909-.295-.755-.45-1.897-.463-3.425a152.485 152.485 0 0 0-.13-4.978c-.075-1.79-.178-3.428-.31-4.911-.133-1.483-.2-2.656-.2-3.518 0-.863.035-1.4.105-1.614a1.01 1.01 0 0 1 .376-.518 1.01 1.01 0 0 1 .608-.198c.225 0 .427.066.609.198l.48 3.425Z"/><path d="m11.089 7.284-.2 2.224-.198 2.225-.111 4.594c-.074 3.062-.143 4.657-.208 4.783a.396.396 0 0 1-.307.223.396.396 0 0 1-.36-.117c-.1-.1-.14-.22-.118-.36a.396.396 0 0 1 .223-.308.396.396 0 0 1 .38 0 .4.4 0 0 1 .223.307.396.396 0 0 1-.118.36c-.1.101-.22.14-.36.118a.396.396 0 0 1-.307-.223c-.065-.126-.134-1.72-.208-4.783-.074-3.063-.177-5.336-.31-6.819-.132-1.483-.199-2.656-.199-3.518 0-.863.035-1.4.104-1.614a1.01 1.01 0 0 1 .376-.517A1.01 1.01 0 0 1 10 3.66c.224 0 .427.066.608.198l.48 3.425Zm10 5-.2 2.224-.198 2.225-.111 4.594c-.074 3.062-.143 4.657-.208 4.783a.396.396 0 0 1-.307.223.396.396 0 0 1-.36-.117c-.1-.1-.14-.22-.117-.36a.396.396 0 0 1 .222-.308.396.396 0 0 1 .38 0 .4.4 0 0 1 .223.307.396.396 0 0 1-.118.36c-.1.101-.22.14-.36.118a.397.397 0 0 1-.307-.223c-.065-.126-.134-1.72-.208-4.783-.074-3.063-.177-5.336-.31-6.819-.132-1.483-.199-2.655-.199-3.518s.035-1.4.104-1.614a1.01 1.01 0 0 1 .376-.517A1.01 1.01 0 0 1 20 8.66c.224 0 .427.066.608.198l.48 3.425Z"/></g><defs><clipPath id="a"><path fill="#fff" d="M0 0h30v30H0z"/></clipPath></defs></svg>