<svg width="30" height="30" fill="none" xmlns="http://www.w3.org/2000/svg"><path d="m9.377 5.104-.793.032-.793.032-.57.13c-.38.085-.783.343-1.209.773-.425.43-.696.917-.812 1.462-.117.545.347.817 1.393.817 1.045 0 3.84.184 8.384.554 4.545.37 7.376.44 8.494.214 1.118-.227 1.77-.707 1.959-1.44.188-.734.098-1.354-.268-1.86-.367-.506-.888-.825-1.563-.958-.675-.133-1.172.385-1.492 1.553-.319 1.168-.616 4.027-.892 8.578-.277 4.55-.302 7.384-.075 8.502.227 1.118.708 1.772 1.444 1.963.736.191 1.36.106 1.872-.255.513-.362.835-.885.966-1.57.13-.685-.391-1.189-1.566-1.511-1.174-.323-4.037-.62-8.588-.89-4.55-.272-7.385-.294-8.503-.067-1.118.226-1.772.708-1.963 1.443-.191.736-.106 1.36.255 1.873.36.514 1.177.786 2.449.818 1.272.032 2.048.12 2.33.265a.883.883 0 0 1 .494.686.884.884 0 0 1-.265.803.884.884 0 0 1-.805.258.884.884 0 0 1-.682-.5.884.884 0 0 1 .004-.845.883.883 0 0 1 .686-.494c.312-.048.58.04.802.265a.883.883 0 0 1 .258.804.883.883 0 0 1-.5.682c-.282.143-.872.188-1.771.135-.9-.053-1.667-.204-2.302-.454-.636-.249-1.144-.679-1.525-1.29a4.334 4.334 0 0 1-.66-1.95c-.058-.69.13-1.382.565-2.076.435-.694 1.26-1.15 2.476-1.367 1.216-.218 4.119-.343 8.708-.375 4.59-.033 7.713.202 9.368.703 1.655.5 2.497 1.126 2.525 1.877a5.108 5.108 0 0 1-.33 2.08c-.25.636-.68 1.144-1.29 1.525a4.36 4.36 0 0 1-1.952.659c-.69.058-1.382-.13-2.076-.565-.694-.435-1.15-1.26-1.368-2.476-.217-1.216-.345-4.119-.382-8.709-.037-4.59.196-7.715.7-9.376.505-1.66 1.197-2.492 2.078-2.494.881-.002 1.64.16 2.275.485.635.325 1.093.76 1.374 1.304.282.544.437 1.146.467 1.806.03.66-.172 1.337-.607 2.031-.435.694-1.26 1.15-2.476 1.368-1.216.217-4.122.392-8.718.522s-7.776-.322-9.541-1.357C3.6 8.192 2.74 7.212 2.785 6.286c.044-.926.328-1.674.851-2.242.523-.57 1.136-.945 1.84-1.127.702-.182 1.264-.278 1.684-.289.42-.01.895-.005 1.424.016.528.022.916.032 1.163.032s.49.039.728.116c.238.078.43.217.577.42.147.202.22.428.22.678 0 .25-.073.476-.22.679l-1.675.535Z" fill="currentColor" stroke="currentColor" stroke-width="2" stroke-linecap="round" stroke-linejoin="round"/></svg>