<svg width="30" height="30" fill="none" xmlns="http://www.w3.org/2000/svg"><path d="m9.076 13.948 2.503.22 2.502.219 5.168.072c3.446.048 5.232.104 5.358.169.126.064.2.166.223.307a.396.396 0 0 1-.117.36c-.1.1-.22.14-.361.117a.396.396 0 0 1-.307-.222.396.396 0 0 1 0-.38.396.396 0 0 1 .307-.223c.14-.022.26.017.36.118.1.1.14.22.118.36a.396.396 0 0 1-.223.307c-.127.065-1.912.12-5.358.17-3.445.047-6.002.145-7.67.29-1.669.147-2.988.22-3.959.22-.97 0-1.558-.033-1.764-.1a.977.977 0 0 1-.5-.364.977.977 0 0 1-.192-.588c0-.217.064-.413.191-.588l3.72-.464Zm0-7.5a644754.65 644754.65 0 0 0 5.005.438l5.168.073c3.446.048 5.232.104 5.358.169.126.064.2.167.223.307a.396.396 0 0 1-.117.36c-.1.1-.22.14-.361.118a.396.396 0 0 1-.307-.223.396.396 0 0 1 0-.38.396.396 0 0 1 .307-.223c.14-.022.26.017.36.118.1.1.14.22.118.36a.396.396 0 0 1-.223.307c-.127.065-1.912.12-5.358.17-3.445.047-6.002.145-7.67.29-1.669.147-2.988.22-3.959.22-.97 0-1.558-.033-1.764-.1a.977.977 0 0 1-.5-.364.977.977 0 0 1-.192-.588c0-.217.064-.413.191-.588l3.72-.464Zm0 15 2.503.22 2.502.219 5.168.072c3.446.048 5.232.105 5.358.169.126.064.2.166.223.307a.396.396 0 0 1-.117.36c-.1.1-.22.14-.361.117a.396.396 0 0 1-.307-.222.396.396 0 0 1 0-.38.396.396 0 0 1 .307-.223c.14-.022.26.017.36.118.1.1.14.22.118.36a.396.396 0 0 1-.223.307c-.127.064-1.912.12-5.358.17-3.445.047-6.002.145-7.67.29-1.669.147-2.988.22-3.959.22-.97 0-1.558-.033-1.764-.1a.977.977 0 0 1-.5-.364.977.977 0 0 1-.192-.588c0-.217.064-.413.191-.588l3.72-.464Z" fill="currentColor" stroke="currentColor" stroke-width="2" stroke-linecap="round" stroke-linejoin="round"/></svg>