<svg width="30" height="30" fill="none" xmlns="http://www.w3.org/2000/svg"><path d="m27.222 19.46-.156.52-.155.521-.324.482c-.215.32-.478.602-.788.844a3.45 3.45 0 0 1-1.127.566c-.442.136-1.047.209-1.814.22a27.84 27.84 0 0 1-2.835-.138 349.136 349.136 0 0 0-3.7-.317 62.667 62.667 0 0 0-3.712-.199c-1.13-.023-2.02.04-2.669.19a3.58 3.58 0 0 0-1.7.917 612.25 612.25 0 0 0-2.476 2.39c-1.168 1.131-1.863 1.678-2.086 1.643a1.017 1.017 0 0 1-.572-.295 1.016 1.016 0 0 1-.29-.574c-.035-.223-.047-.554-.035-.993a1945.713 1945.713 0 0 1 .271-8.658c.06-1.79.09-3.438.089-4.945 0-1.507.001-2.704.005-3.591.005-.888.062-1.67.174-2.347.111-.678.442-1.254.991-1.73.55-.474 1.358-.786 2.426-.935 1.068-.149 2.255-.177 3.561-.083 1.307.093 2.744.182 4.313.265 1.569.083 3.013.122 4.333.117a252.92 252.92 0 0 0 3.167-.028c.793-.013 1.518.034 2.178.14.66.107 1.23.427 1.713.96.483.532.806 1.246.97 2.142.163.895.226 1.811.19 2.748-.037.936-.081 2.363-.134 4.28-.052 1.916-.136 2.987-.252 3.214a.712.712 0 0 1-.55.401.712.712 0 0 1-.649-.21.712.712 0 0 1-.21-.648.712.712 0 0 1 .4-.552.712.712 0 0 1 .681 0c.227.116.36.3.4.551a.712.712 0 0 1-.21.648.712.712 0 0 1-.647.211.712.712 0 0 1-.552-.4c-.115-.227-.2-1.299-.253-3.215a350.313 350.313 0 0 0-.136-4.269 27.829 27.829 0 0 0-.22-2.585c-.107-.793-.4-1.363-.88-1.71-.481-.346-1.106-.552-1.874-.619-.769-.066-1.813-.102-3.132-.106a76.446 76.446 0 0 0-4.332.118c-1.569.083-3.004.173-4.306.268a64.49 64.49 0 0 0-3.448.334c-.996.127-1.684.453-2.064.975-.38.523-.594 1.22-.643 2.09a66.29 66.29 0 0 0-.073 3.565c.001 1.507.035 3.153.1 4.94.067 1.785.162 3.397.285 4.835.124 1.438.11 2.646-.04 3.625-.15.98-.257 1.577-.318 1.794-.062.217-.204.307-.427.271a1.017 1.017 0 0 1-.572-.294 1.016 1.016 0 0 1-.29-.574c-.035-.223.53-.922 1.693-2.097 1.163-1.174 2.14-1.999 2.93-2.473.791-.475 1.566-.755 2.326-.842a31.555 31.555 0 0 1 2.838-.165 62.248 62.248 0 0 0 3.716-.2c1.345-.109 2.8-.231 4.369-.366 1.568-.136 2.634-.317 3.2-.545.565-.228.87-.43.913-.604.043-.175.117-.38.222-.614a1.16 1.16 0 0 1 .49-.546 1.16 1.16 0 0 1 .718-.153c.256.027.48.126.671.298l.318 1.536Z" fill="currentColor"/><path d="M3.68 27.099c.223.035.918-.512 2.086-1.643a612.25 612.25 0 0 1 2.476-2.39 3.58 3.58 0 0 1 1.7-.918c.65-.15 1.54-.212 2.669-.189 1.129.024 2.366.09 3.711.199 1.345.109 2.579.214 3.701.317 1.122.103 2.067.149 2.835.138.767-.011 1.372-.084 1.814-.22a3.45 3.45 0 0 0 1.127-.566c.31-.242.573-.524.788-.844l.324-.482.155-.52.156-.522-.318-1.536a1.158 1.158 0 0 0-.67-.298 1.16 1.16 0 0 0-.718.153c-.223.129-.387.31-.491.546a3.76 3.76 0 0 0-.222.614c-.043.174-.348.376-.913.604-.566.228-1.632.41-3.2.545-1.568.135-3.024.257-4.369.366a61.83 61.83 0 0 1-3.716.2c-1.133.023-2.08.079-2.838.165-.76.087-1.535.367-2.325.842-.79.474-1.768 1.299-2.931 2.473-1.164 1.175-1.728 1.874-1.694 2.097.035.223.132.414.29.574.16.16.35.259.573.295Zm0 0a1.017 1.017 0 0 1-.572-.295 1.016 1.016 0 0 1-.29-.574c-.035-.223-.047-.554-.035-.993a1945.713 1945.713 0 0 1 .271-8.658c.06-1.79.09-3.438.089-4.945 0-1.507.001-2.704.005-3.591.005-.888.062-1.67.174-2.347.111-.678.442-1.254.991-1.73.55-.474 1.358-.786 2.426-.935 1.068-.149 2.255-.177 3.561-.083 1.307.093 2.744.182 4.313.265 1.569.083 3.013.122 4.333.117a252.92 252.92 0 0 0 3.167-.028c.793-.013 1.518.034 2.178.14.66.107 1.23.427 1.713.96.483.532.806 1.246.97 2.142.163.895.226 1.811.19 2.748-.037.936-.081 2.363-.134 4.28-.052 1.916-.136 2.987-.252 3.214a.712.712 0 0 1-.55.401.712.712 0 0 1-.649-.21.712.712 0 0 1-.21-.648.712.712 0 0 1 .4-.552.712.712 0 0 1 .681 0c.227.116.36.3.4.551a.712.712 0 0 1-.21.648.712.712 0 0 1-.647.211.712.712 0 0 1-.552-.4c-.115-.227-.2-1.299-.253-3.215a350.313 350.313 0 0 0-.136-4.269 27.829 27.829 0 0 0-.22-2.585c-.107-.793-.4-1.363-.88-1.71-.481-.346-1.106-.552-1.874-.619-.769-.066-1.813-.102-3.132-.106a76.446 76.446 0 0 0-4.332.118c-1.569.083-3.004.173-4.306.268a64.49 64.49 0 0 0-3.448.334c-.996.127-1.684.453-2.064.975-.38.523-.594 1.22-.643 2.09a66.29 66.29 0 0 0-.073 3.565c.001 1.507.035 3.153.1 4.94.067 1.785.162 3.397.285 4.835.124 1.438.11 2.646-.04 3.625-.15.98-.257 1.577-.318 1.794-.062.217-.204.307-.427.271Z" stroke="currentColor" stroke-width="2" stroke-linecap="round" stroke-linejoin="round"/></svg>