<svg width="30" height="30" fill="none" xmlns="http://www.w3.org/2000/svg"><path d="m27.249 15.581-.053.512-.052.512-.104.53c-.07.352-.18.75-.333 1.195-.153.445-.415 1.024-.786 1.74a11.746 11.746 0 0 1-1.388 2.078c-.555.67-1.18 1.274-1.875 1.81a11.98 11.98 0 0 1-4.705 2.198c-.846.188-1.674.287-2.483.297-.81.01-1.579-.053-2.306-.19a29.586 29.586 0 0 0-2.274-.334c-.788-.085-1.682.034-2.68.358-.998.324-2.029.616-3.091.877-1.062.261-1.704.312-1.925.154a1.225 1.225 0 0 1-.46-.625 1.226 1.226 0 0 1-.005-.776c.083-.259.16-.534.232-.824.072-.29.242-.945.51-1.965a56.8 56.8 0 0 0 .605-2.47 5.409 5.409 0 0 0 .039-1.98 89.474 89.474 0 0 0-.358-2.122 11.835 11.835 0 0 1 .156-4.781c.201-.85.494-1.67.88-2.46a12.036 12.036 0 0 1 3.24-4.069 12.263 12.263 0 0 1 2.092-1.374c.72-.371 1.44-.66 2.158-.865a11.746 11.746 0 0 1 2.21-.408 11.07 11.07 0 0 1 2.428.072c.863.115 1.809.387 2.837.815 1.027.429 1.991 1 2.892 1.712.9.712 1.681 1.537 2.343 2.473a12.837 12.837 0 0 1 1.54 2.84c.364.957.597 1.774.701 2.452.103.677.125 1.222.063 1.632a1.16 1.16 0 0 1-.644.904 1.16 1.16 0 0 1-1.11.01 1.16 1.16 0 0 1-.66-.893 1.16 1.16 0 0 1 .334-1.058 1.16 1.16 0 0 1 1.052-.352c.41.061.712.276.904.644.191.368.195.738.01 1.11a1.16 1.16 0 0 1-.893.66 1.16 1.16 0 0 1-1.058-.334c-.296-.29-.485-.779-.565-1.464a9.902 9.902 0 0 0-.545-2.199 9.517 9.517 0 0 0-1.19-2.255 8.945 8.945 0 0 0-4.06-3.171 9.478 9.478 0 0 0-2.506-.597 9.299 9.299 0 0 0-2.556.093c-.835.148-1.565.362-2.19.642A8.376 8.376 0 0 0 9.9 7.364a9.169 9.169 0 0 0-2.537 3.061 9.181 9.181 0 0 0-.715 1.875c-.17.651-.257 1.397-.261 2.239-.005.842.06 1.615.192 2.32.132.704.192 1.464.18 2.28a10.16 10.16 0 0 1-.258 2.23 28.986 28.986 0 0 1-.671 2.308 9.153 9.153 0 0 1-1.163 2.355c-.488.705-.8 1.135-.937 1.29-.136.156-.315.154-.536-.004a1.225 1.225 0 0 1-.46-.625 1.226 1.226 0 0 1-.005-.776c.083-.259.629-.602 1.638-1.03 1.01-.427 2.056-.83 3.137-1.207 1.082-.379 2.065-.578 2.949-.598a11.34 11.34 0 0 1 2.542.22 14.4 14.4 0 0 0 2.241.296c.684.03 1.35-.019 2-.147a9.21 9.21 0 0 0 3.65-1.6 9.283 9.283 0 0 0 1.488-1.357c.447-.506.864-1.133 1.252-1.882.387-.749.672-1.432.855-2.051.183-.619.288-1.107.317-1.464.03-.358.081-.66.155-.905.075-.247.214-.447.419-.602a1.15 1.15 0 0 1 .692-.241c.257-.006.491.065.702.212l.483 2.02Z" fill="currentColor"/><path d="M2.734 26.693c.086.258.239.466.46.625.221.158.863.107 1.925-.154a44.205 44.205 0 0 0 3.09-.877c1-.324 1.893-.443 2.681-.357.79.085 1.547.196 2.274.333.727.137 1.496.2 2.306.19.81-.01 1.637-.11 2.483-.296a11.98 11.98 0 0 0 4.705-2.199c.695-.536 1.32-1.14 1.875-1.81a11.746 11.746 0 0 0 1.388-2.078c.372-.716.633-1.296.786-1.74.152-.444.263-.843.333-1.196l.104-.53.052-.51.053-.513-.483-2.02a1.157 1.157 0 0 0-.702-.212 1.157 1.157 0 0 0-.692.24 1.158 1.158 0 0 0-.419.602 4.416 4.416 0 0 0-.155.906c-.029.357-.134.845-.317 1.464s-.468 1.302-.855 2.05c-.388.75-.805 1.377-1.252 1.883a9.283 9.283 0 0 1-3.235 2.36 9.21 9.21 0 0 1-1.902.597 8.365 8.365 0 0 1-2 .147 14.39 14.39 0 0 1-2.242-.295 11.34 11.34 0 0 0-2.542-.22c-.884.02-1.867.218-2.949.597a52.722 52.722 0 0 0-3.137 1.208c-1.01.427-1.555.77-1.638 1.03m.005.775a1.226 1.226 0 0 1-.005-.776m.005.776c.086.258.239.466.46.625.221.158.4.16.536.004.136-.155.449-.585.937-1.29a9.153 9.153 0 0 0 1.163-2.355c.286-.866.51-1.635.67-2.307.162-.672.248-1.416.26-2.232a11.456 11.456 0 0 0-.181-2.28 12.23 12.23 0 0 1-.192-2.319c.004-.842.091-1.588.261-2.239A9.181 9.181 0 0 1 9.9 7.364a8.376 8.376 0 0 1 1.72-1.029c.625-.28 1.355-.494 2.19-.642a9.299 9.299 0 0 1 2.556-.093 9.478 9.478 0 0 1 2.506.597 8.945 8.945 0 0 1 4.06 3.171 9.498 9.498 0 0 1 1.19 2.255 9.93 9.93 0 0 1 .545 2.199c.08.685.269 1.173.565 1.464a1.16 1.16 0 0 0 1.058.334 1.16 1.16 0 0 0 .892-.66 1.16 1.16 0 0 0-.01-1.11 1.16 1.16 0 0 0-.903-.644 1.16 1.16 0 0 0-1.052.352 1.16 1.16 0 0 0-.334 1.058c.069.41.289.707.66.892a1.16 1.16 0 0 0 1.11-.01 1.16 1.16 0 0 0 .644-.903c.062-.41.04-.955-.063-1.633-.104-.677-.337-1.495-.701-2.45a12.837 12.837 0 0 0-1.54-2.84 11.896 11.896 0 0 0-2.343-2.474 12.227 12.227 0 0 0-2.892-1.712c-1.028-.428-1.974-.7-2.837-.815a11.07 11.07 0 0 0-2.427-.072c-.755.066-1.492.202-2.21.408-.72.205-1.439.494-2.16.865-.72.37-1.417.829-2.091 1.374a12.036 12.036 0 0 0-3.24 4.068 11.836 11.836 0 0 0-.88 2.461 11.835 11.835 0 0 0-.156 4.781c.13.72.25 1.427.358 2.122a5.409 5.409 0 0 1-.04 1.98 57.917 57.917 0 0 1-.603 2.47 182.76 182.76 0 0 0-.511 1.965c-.072.29-.15.565-.232.824" stroke="currentColor" stroke-width="2" stroke-linecap="round" stroke-linejoin="round"/></svg>