<svg width="30" height="30" fill="none" xmlns="http://www.w3.org/2000/svg"><g clip-path="url(#a)" fill="currentColor" stroke="currentColor" stroke-width="2" stroke-linecap="round" stroke-linejoin="round"><path d="M8.216 6.988a875527.963 875527.963 0 0 0 5.838 6.398l6.317 6.316c4.21 4.211 6.338 6.384 6.382 6.52a.396.396 0 0 1-.06.374.396.396 0 0 1-.337.172.396.396 0 0 1-.338-.172.396.396 0 0 1-.06-.375.396.396 0 0 1 .269-.268.396.396 0 0 1 .374.06.396.396 0 0 1 .172.337.396.396 0 0 1-.172.338.397.397 0 0 1-.374.06c-.135-.044-2.308-2.172-6.52-6.383-4.21-4.21-7.382-7.29-9.514-9.235C8.06 9.184 6.4 7.618 5.215 6.432c-1.186-1.186-1.82-1.858-1.9-2.017a.802.802 0 0 1-.08-.502.802.802 0 0 1 .23-.452.802.802 0 0 1 .454-.231l4.297 3.758Z"/><path d="M12.57 11.969a58338.685 58338.685 0 0 0 .064 1.585l.077.606c.051.403.219.892.502 1.465.284.574.767.804 1.45.69.682-.113 1.362-.82 2.04-2.123.678-1.303 1.036-2.506 1.073-3.612a46.811 46.811 0 0 0-.002-3.243c-.037-1.057-.15-1.892-.336-2.504a2.596 2.596 0 0 0-1.092-1.452c-.54-.356-1.116-.453-1.725-.292-.61.161-1.13.498-1.56 1.01-.43.513-.877.778-1.34.798a1.3 1.3 0 0 1-1.129-.518 1.297 1.297 0 0 1-.244-1.216c.125-.447.405-.751.84-.913a1.297 1.297 0 0 1 1.232.143 1.3 1.3 0 0 1 .61 1.082c.018.463-.154.84-.518 1.128-.364.288-.77.37-1.216.244a1.297 1.297 0 0 1-.913-.84 1.297 1.297 0 0 1 .143-1.233c.257-.386.887-.943 1.89-1.671C13.42.375 14.291.015 15.032.02c.74.007 1.438.17 2.094.491.656.32 1.207.765 1.654 1.332.446.567.749 1.195.907 1.884.159.69.235 1.457.229 2.303a83.762 83.762 0 0 1-.047 2.329 26.77 26.77 0 0 1-.255 2.624 203.204 203.204 0 0 1-.628 4.122c-.274 1.705-.762 2.935-1.463 3.69-.702.756-1.462 1.147-2.281 1.173a4.658 4.658 0 0 1-2.295-.5 4.831 4.831 0 0 1-1.757-1.499 5.044 5.044 0 0 1-.895-2.052c-.135-.73-.205-1.306-.21-1.73-.005-.423.004-.898.025-1.427.022-.528.032-.916.032-1.163s.039-.49.116-.728c.077-.237.217-.43.42-.577.202-.147.428-.22.678-.22.25 0 .476.073.679.22l.535 1.676Z"/><path d="m21.692 22.49-.438.334-.438.335-.638.344c-.426.23-1.01.47-1.754.723a9.767 9.767 0 0 1-4.656.4 9.9 9.9 0 0 1-6.077-3.436 9.976 9.976 0 0 1-1.302-1.993 10.397 10.397 0 0 1-.805-2.236 7.558 7.558 0 0 1-.166-2.398c.072-.825.834-1.564 2.287-2.218 1.454-.654 3.969-.894 7.545-.72 3.576.173 5.841.336 6.795.49.953.153 1.614.495 1.98 1.027.368.532.56 1.087.577 1.665.018.578.011.95-.019 1.117a.475.475 0 0 1-.274.362.475.475 0 0 1-.454-.009.474.474 0 0 1-.26-.373.474.474 0 0 1 .15-.429.475.475 0 0 1 .434-.131c.167.03.288.121.362.274a.475.475 0 0 1-.01.454.475.475 0 0 1-.372.26.475.475 0 0 1-.429-.15c-.118-.122-.235-.625-.353-1.508-.117-.883-.607-1.413-1.47-1.59-.864-.178-3.062-.1-6.595.233-3.533.334-5.668.602-6.403.806-.735.205-1.015.584-.838 1.14.177.555.41 1.213.7 1.972.288.76.705 1.466 1.25 2.117a7.19 7.19 0 0 0 4.304 2.468 7.289 7.289 0 0 0 2.544-.012c.852-.153 1.57-.369 2.155-.648.584-.28 1.022-.54 1.312-.78.29-.24.55-.421.778-.54.229-.12.47-.162.726-.125.255.038.475.146.66.327.184.18.298.397.341.651l-1.149 1.797Z"/><path d="M16.21 24.88a2184.304 2184.304 0 0 0 .036 1.113l.008 1.149c.006.765-.078 1.318-.252 1.659-.173.34-.449.54-.826.6a1.067 1.067 0 0 1-.972-.315 1.068 1.068 0 0 1-.315-.972c.06-.377.26-.653.6-.826.34-.174.681-.174 1.022 0 .34.173.54.449.6.826.06.377-.045.701-.316.972-.27.27-.594.375-.971.315a1.067 1.067 0 0 1-.826-.6c-.174-.34-.258-.894-.252-1.66.005-.765.014-1.333.026-1.704a29.5 29.5 0 0 0 .017-.88c0-.215.039-.442.116-.679.077-.237.216-.429.418-.576a1.13 1.13 0 0 1 .677-.22c.25 0 .475.074.677.22l.534 1.579Z"/><path d="M12.337 27.543a9071.142 9071.142 0 0 0 2.225.053l2.297.046c1.531.03 2.44.119 2.726.265a.898.898 0 0 1 .506.695.898.898 0 0 1-.266.817.898.898 0 0 1-.817.266.898.898 0 0 1-.696-.505.898.898 0 0 1 0-.86.898.898 0 0 1 .696-.505c.317-.05.59.038.817.266a.9.9 0 0 1 .266.817.898.898 0 0 1-.506.695c-.286.146-1.195.235-2.726.265-1.531.03-2.668.055-3.41.072a77.83 77.83 0 0 1-1.759.027c-.43 0-.765-.038-1.001-.115a1.121 1.121 0 0 1-.574-.417 1.12 1.12 0 0 1-.22-.675c0-.249.074-.474.22-.675l2.222-.532Z"/></g><defs><clipPath id="a"><path fill="#fff" d="M0 0h30v30H0z"/></clipPath></defs></svg>