<svg width="30" height="30" fill="none" xmlns="http://www.w3.org/2000/svg"><g clip-path="url(#a)" fill="currentColor" stroke="currentColor" stroke-width="2" stroke-linecap="round" stroke-linejoin="round"><path d="m14.334 2.68-.51.445-.508.445-.348 1.097c-.232.731-.368 1.565-.408 2.502-.04.937-.087 1.854-.14 2.751a54.839 54.839 0 0 0-.095 2.57c-.01.817.048 1.564.173 2.242.125.678.416 1.234.87 1.668.456.433 1.007.618 1.654.554.647-.065 1.155-.429 1.523-1.093.368-.664.59-1.548.666-2.652l.205-3.002a50.9 50.9 0 0 0 .114-2.57c.014-.817-.04-1.563-.162-2.24-.122-.677-.405-1.247-.85-1.71a3.355 3.355 0 0 0-1.53-.938c-.574-.161-.966-.434-1.175-.82A1.224 1.224 0 0 1 13.78.76c.189-.396.498-.634.929-.714.43-.08.805.03 1.123.332.318.302.449.67.392 1.104a1.224 1.224 0 0 1-.663.966c-.385.21-.775.22-1.17.031a1.224 1.224 0 0 1-.714-.928c-.08-.431.03-.806.332-1.124a1.225 1.225 0 0 1 1.103-.392c.435.057.88.158 1.337.302.456.144.963.455 1.522.932a4.67 4.67 0 0 1 1.282 1.783c.297.71.466 1.444.506 2.2.04.756.071 1.547.091 2.372.02.826.061 1.688.122 2.587.06.898.115 1.727.163 2.486.049.758.057 1.465.027 2.12-.031.655-.194 1.333-.49 2.035a5.2 5.2 0 0 1-1.33 1.855 4.853 4.853 0 0 1-2.032 1.106 4.792 4.792 0 0 1-2.29.055 4.71 4.71 0 0 1-2.035-.992 4.62 4.62 0 0 1-1.333-1.805 6.54 6.54 0 0 1-.498-2.196 76.347 76.347 0 0 1-.08-2.37 65.688 65.688 0 0 0-.102-2.587c-.053-.898-.099-1.727-.138-2.485a13.733 13.733 0 0 1 .097-2.39c.104-.837.354-1.6.75-2.292.397-.69.825-1.213 1.282-1.564a4.4 4.4 0 0 1 1.388-.743 10.54 10.54 0 0 1 1.076-.286c.251-.046.501-.045.75.006.25.05.46.17.632.357.172.187.272.407.301.66.03.252-.019.49-.144.71l-1.633.79Z"/><path d="M24.98 13.022a2472.085 2472.085 0 0 0 .065 1.145l.012.524c.008.349-.028.797-.11 1.344-.08.547-.289 1.294-.624 2.24a9.939 9.939 0 0 1-1.437 2.663 9.808 9.808 0 0 1-2.208 2.14 9.79 9.79 0 0 1-5.81 1.79 9.778 9.778 0 0 1-3.036-.528 9.767 9.767 0 0 1-2.72-1.44 9.804 9.804 0 0 1-2.144-2.213 10.57 10.57 0 0 1-1.368-2.64c-.313-.91-.516-1.958-.608-3.146-.092-1.188-.057-1.981.106-2.38.163-.4.455-.65.874-.753a1.205 1.205 0 0 1 1.122.264c.33.278.478.633.446 1.063-.032.43-.231.759-.598.986-.366.227-.75.259-1.149.096a1.209 1.209 0 0 1-.753-.874 1.205 1.205 0 0 1 .264-1.122c.279-.33.633-.478 1.063-.446.43.032.76.23.986.598.227.366.356 1.052.386 2.058.03 1.005.149 1.869.358 2.591a7.285 7.285 0 0 0 2.47 3.687 7.146 7.146 0 0 0 4.167 1.543 7.185 7.185 0 0 0 4.28-1.198 7.202 7.202 0 0 0 1.661-1.527 7.386 7.386 0 0 0 1.117-1.952c.271-.705.447-1.276.526-1.713.08-.438.13-.823.151-1.156.022-.333.044-.69.066-1.072.022-.381.033-.655.033-.82 0-.164.038-.365.115-.6a1.12 1.12 0 0 1 .416-.574 1.12 1.12 0 0 1 .674-.22c.249 0 .474.074.675.22l.531 1.422Z"/><path d="M16.21 24.88a2184.304 2184.304 0 0 0 .036 1.113l.008 1.149c.006.765-.078 1.318-.252 1.659-.173.34-.449.54-.826.6a1.067 1.067 0 0 1-.972-.315 1.068 1.068 0 0 1-.315-.972c.06-.377.26-.653.6-.826.34-.174.681-.174 1.022 0 .34.173.54.449.6.826.06.377-.045.701-.316.972-.27.27-.594.375-.971.315a1.067 1.067 0 0 1-.826-.6c-.174-.34-.258-.894-.252-1.66.005-.765.014-1.333.026-1.704.011-.37.017-.664.017-.88 0-.215.039-.442.116-.679.077-.237.216-.429.418-.576a1.13 1.13 0 0 1 .677-.22c.25 0 .475.074.677.22l.534 1.579Z"/><path d="M12.337 27.543a9071.142 9071.142 0 0 0 2.225.053l2.297.046c1.531.03 2.44.119 2.726.265a.898.898 0 0 1 .506.695.898.898 0 0 1-.266.817.898.898 0 0 1-.817.266.898.898 0 0 1-.696-.505.898.898 0 0 1 0-.86.898.898 0 0 1 .696-.505c.317-.05.59.038.817.266a.9.9 0 0 1 .266.817.898.898 0 0 1-.506.695c-.286.146-1.195.235-2.726.265-1.531.03-2.668.055-3.41.072a77.83 77.83 0 0 1-1.759.027c-.43 0-.765-.038-1.001-.115a1.121 1.121 0 0 1-.574-.417 1.12 1.12 0 0 1-.22-.675c0-.249.074-.474.22-.675l2.222-.532Z"/></g><defs><clipPath id="a"><path fill="#fff" d="M0 0h30v30H0z"/></clipPath></defs></svg>