<svg width="30" height="30" fill="none" xmlns="http://www.w3.org/2000/svg"><path d="M11.451 5.005a2352.32 2352.32 0 0 0 .065 1.586l-.016.63c-.011.421-.107.983-.29 1.686-.181.703-.557 1.316-1.126 1.839-.569.523-1.757.82-3.564.888-1.808.07-2.803-.022-2.986-.274a1.403 1.403 0 0 1-.275-.845c0-.311.09-.593.273-.845.183-.252.993-.347 2.429-.284s4.466.188 9.09.377c4.625.188 7.499.297 8.623.327 1.124.03 1.714.084 1.77.162a.435.435 0 0 1 .086.262.435.435 0 0 1-.085.262c-.057.078-.166.121-.327.129-.162.007-.578.002-1.251-.015a6.863 6.863 0 0 1-2.026-.367c-.677-.229-1.204-.6-1.579-1.117s-.614-1.487-.717-2.912c-.104-1.425-.068-2.2.106-2.327a.973.973 0 0 1 .586-.191c.216 0 .411.063.586.19.175.126.246.896.215 2.31-.032 1.413-.095 4.398-.19 8.954-.094 4.556-.156 7.396-.186 8.52-.03 1.124-.084 1.714-.162 1.771a.435.435 0 0 1-.262.085.435.435 0 0 1-.262-.085c-.078-.057-.121-.166-.129-.327-.007-.161-.003-.578.014-1.25a6.05 6.05 0 0 1 .427-2.044c.267-.69.741-1.236 1.423-1.638.68-.402 1.628-.63 2.842-.685 1.213-.055 1.882.002 2.004.17a.94.94 0 0 1 .184.566.94.94 0 0 1-.183.566c-.122.169-.89.239-2.3.21-1.412-.03-4.394-.088-8.944-.175-4.551-.088-7.389-.146-8.513-.176-1.123-.03-1.714-.084-1.77-.162a.435.435 0 0 1-.086-.262c0-.096.029-.184.086-.262.056-.078.165-.12.327-.128.16-.008.578-.003 1.25.014a6.054 6.054 0 0 1 2.043.426c.69.268 1.235.742 1.636 1.423.4.681.649 1.529.743 2.543.095 1.015.079 1.648-.049 1.9a.79.79 0 0 1-.61.448.79.79 0 0 1-.72-.231.79.79 0 0 1-.237-.718.79.79 0 0 1 .443-.614.79.79 0 0 1 .756-.003.79.79 0 0 1 .447.61.79.79 0 0 1-.231.72.79.79 0 0 1-.718.237.79.79 0 0 1-.614-.442c-.13-.252-.214-1.026-.253-2.322-.04-1.295-.33-2.118-.868-2.468a4.01 4.01 0 0 0-1.793-.628 30.386 30.386 0 0 0-1.225-.114c-.162-.008-.27-.05-.327-.129a.435.435 0 0 1-.086-.262c0-.096.029-.184.086-.262.056-.078.647-.132 1.77-.162 1.124-.03 3.961-.088 8.512-.176 4.55-.088 7.532-.146 8.943-.175 1.412-.03 2.179.04 2.301.209a.94.94 0 0 1 .184.565.94.94 0 0 1-.183.566c-.122.169-.93.293-2.423.371-1.493.079-2.415.388-2.765.926a4.008 4.008 0 0 0-.628 1.792 30.406 30.406 0 0 0-.114 1.226c-.007.161-.05.27-.128.327a.435.435 0 0 1-.262.085.435.435 0 0 1-.262-.085c-.078-.057-.133-.647-.162-1.77-.03-1.125-.093-3.964-.187-8.52-.095-4.556-.159-7.54-.19-8.954-.032-1.413.04-2.183.214-2.31a.973.973 0 0 1 .586-.191c.216 0 .411.063.586.19.175.126.3.94.373 2.439.074 1.499.378 2.424.912 2.774.534.351 1.129.56 1.784.63.656.069 1.064.107 1.226.115.16.007.27.05.327.128a.435.435 0 0 1 .085.262.435.435 0 0 1-.085.262c-.057.078-.647.132-1.771.162-1.124.03-3.998.14-8.622.328s-7.654.314-9.09.377c-1.435.063-2.245-.031-2.428-.283a1.403 1.403 0 0 1-.275-.845c0-.311.09-.593.273-.845.183-.252.876-.426 2.077-.52 1.202-.095 2.018-.355 2.448-.78.43-.426.688-.828.774-1.209.086-.38.14-.834.16-1.363.022-.528.033-.916.033-1.163s.039-.49.116-.728c.077-.237.217-.43.42-.577.201-.147.428-.22.678-.22.25 0 .476.073.678.22l.535 1.675Z" fill="currentColor"/><path d="M3.259 10.515c0 .311.091.593.275.845.183.252 1.178.343 2.986.274 1.807-.069 2.995-.365 3.564-.888.57-.523.945-1.136 1.127-1.84.182-.702.278-1.264.289-1.684l.016-.631-.033-.793c-.02-.528-.032-.793-.032-.793l-.535-1.675a1.127 1.127 0 0 0-.678-.22c-.25 0-.477.073-.679.22-.202.147-.342.34-.42.577a2.34 2.34 0 0 0-.115.728c0 .247-.01.635-.032 1.163a7.68 7.68 0 0 1-.161 1.363c-.086.38-.344.783-.774 1.209-.43.425-1.246.685-2.448.78-1.201.094-1.894.268-2.077.52a1.403 1.403 0 0 0-.273.845Zm0 0c0-.311.09-.593.273-.845.183-.252.993-.347 2.429-.284s4.466.188 9.09.377c4.625.188 7.499.297 8.623.327 1.124.03 1.714.084 1.77.162m-22.185.263c0 .311.091.593.275.845.183.252.993.346 2.428.283 1.436-.063 4.466-.189 9.09-.377 4.624-.189 7.498-.298 8.622-.328 1.124-.03 1.714-.084 1.77-.162m0-.524a.435.435 0 0 1 .086.262.435.435 0 0 1-.085.262m0-.524c-.057-.078-.166-.12-.327-.128-.162-.008-.57-.046-1.226-.115a3.957 3.957 0 0 1-1.784-.63c-.534-.35-.838-1.275-.912-2.774-.074-1.5-.198-2.313-.373-2.44a.973.973 0 0 0-.586-.19m5.208 6.801c-.057.078-.166.121-.327.129-.162.007-.578.002-1.251-.015a6.863 6.863 0 0 1-2.026-.367c-.677-.229-1.204-.6-1.579-1.117s-.614-1.487-.717-2.912c-.104-1.425-.068-2.2.106-2.327a.973.973 0 0 1 .586-.191m0 0c.216 0 .411.063.586.19.175.126.246.896.215 2.31-.032 1.413-.095 4.398-.19 8.954-.094 4.556-.156 7.396-.186 8.52-.03 1.124-.084 1.714-.162 1.771m-.263-21.745a.973.973 0 0 0-.586.19c-.174.128-.246.898-.214 2.311.031 1.413.095 4.398.19 8.954.095 4.556.157 7.395.187 8.52.03 1.123.084 1.713.162 1.77m.524 0a.435.435 0 0 1-.262.085.435.435 0 0 1-.262-.085m.524 0c.078-.057.12-.166.128-.327.008-.161.046-.57.114-1.226a4.008 4.008 0 0 1 .628-1.792c.35-.538 1.272-.847 2.765-.926 1.493-.078 2.3-.202 2.423-.37m-6.582 4.641c-.078-.057-.121-.166-.129-.327-.007-.161-.003-.578.014-1.25a6.05 6.05 0 0 1 .427-2.044c.267-.69.741-1.236 1.423-1.638.68-.402 1.628-.63 2.842-.685 1.213-.055 1.882.002 2.004.17m0 0a.94.94 0 0 1 .184.566.94.94 0 0 1-.183.566m0-1.131c-.123-.169-.89-.238-2.302-.21-1.411.03-4.392.088-8.943.176-4.55.087-7.388.146-8.512.176-1.123.03-1.714.084-1.77.162m21.527.827c-.122.169-.89.239-2.3.21-1.412-.03-4.394-.088-8.944-.175-4.551-.088-7.389-.146-8.513-.176-1.123-.03-1.714-.084-1.77-.162m0 0a.435.435 0 0 1-.086-.262c0-.096.029-.184.086-.262m0 .524c.056.078.165.121.327.128.16.008.57.046 1.225.115a4.01 4.01 0 0 1 1.793.628c.539.35.828 1.173.868 2.469.04 1.295.124 2.07.253 2.32a.79.79 0 0 0 .614.443.79.79 0 0 0 .718-.237c.2-.2.276-.44.23-.72a.79.79 0 0 0-.446-.61.79.79 0 0 0-.756.003.79.79 0 0 0-.443.614.79.79 0 0 0 .237.718c.2.2.44.276.72.23a.79.79 0 0 0 .61-.446c.128-.253.144-.886.05-1.9-.095-1.015-.343-1.863-.744-2.544-.401-.68-.947-1.155-1.636-1.423a6.043 6.043 0 0 0-2.043-.426 25.548 25.548 0 0 0-1.25-.014c-.162.007-.27.05-.327.128" stroke="currentColor" stroke-width="2" stroke-linecap="round" stroke-linejoin="round"/></svg>