<svg width="30" height="30" fill="none" xmlns="http://www.w3.org/2000/svg"><path d="m5.932 17.057.834-.003.834-.002 1.008.013c.671.01 1.349.068 2.033.177.684.11 1.344.407 1.98.892.635.485.974 1.062 1.016 1.73.042.668.06 1.582.055 2.742-.005 1.16-.09 1.905-.256 2.236a1.035 1.035 0 0 1-.797.59c-.365.06-.68-.04-.944-.3a1.035 1.035 0 0 1-.314-.939c.055-.366.247-.635.576-.806.329-.17.659-.174.99-.008.332.166.528.431.59.797.06.365-.04.68-.3.944-.26.264-.572.369-.939.314a1.035 1.035 0 0 1-.806-.576c-.17-.329-.28-1.186-.328-2.572-.048-1.386-.318-2.203-.81-2.451-.493-.248-1.075-.367-1.746-.358-.672.009-1.286.012-1.842.01l-1.32-.002c-.323 0-.603-.039-.841-.116a1.127 1.127 0 0 1-.578-.42 1.127 1.127 0 0 1-.22-.678c0-.25.073-.477.22-.679l1.905-.535Zm18.136-4.114-.834.003-.834.002-1.008-.013a14.255 14.255 0 0 1-2.033-.177c-.684-.11-1.344-.407-1.98-.892-.635-.485-.974-1.062-1.016-1.73a43.005 43.005 0 0 1-.055-2.742c.005-1.16.09-1.905.256-2.236.166-.332.431-.528.797-.59.365-.06.68.04.944.3.264.26.369.572.314.939a1.035 1.035 0 0 1-.576.806c-.329.17-.659.174-.99.008a1.035 1.035 0 0 1-.59-.797c-.06-.365.04-.68.3-.944.26-.264.572-.369.939-.314.366.055.635.247.806.576.17.329.28 1.186.328 2.572.048 1.386.318 2.203.81 2.451.493.248 1.075.368 1.746.358.672-.009 1.286-.012 1.842-.01l1.32.002c.323 0 .604.039.841.116.238.077.43.217.578.42.147.202.22.428.22.678 0 .25-.073.477-.22.679l-1.905.535Z" fill="currentColor" stroke="currentColor" stroke-width="2" stroke-linecap="round" stroke-linejoin="round"/><path d="m18.778 9.53 1.02-.926 1.02-.927 2.071-1.949c1.38-1.299 2.198-1.99 2.454-2.073a.75.75 0 0 1 .708.112.75.75 0 0 1 .325.64.75.75 0 0 1-.325.638.75.75 0 0 1-.708.112.75.75 0 0 1-.507-.507.75.75 0 0 1 .112-.708.75.75 0 0 1 .639-.325.75.75 0 0 1 .638.325.75.75 0 0 1 .112.708c-.082.255-.773 1.073-2.073 2.453a263.008 263.008 0 0 0-2.875 3.091 47.688 47.688 0 0 1-1.493 1.586c-.377.378-.675.622-.893.733a1.105 1.105 0 0 1-.692.11 1.106 1.106 0 0 1-.623-.318 1.105 1.105 0 0 1-.318-.623l1.408-2.152ZM5.028 23.28l1.02-.926 1.02-.927 2.071-1.949c1.38-1.299 2.199-1.99 2.454-2.073a.75.75 0 0 1 .708.112.75.75 0 0 1 .325.64.75.75 0 0 1-.325.638.75.75 0 0 1-.709.112.75.75 0 0 1-.506-.507.75.75 0 0 1 .112-.708.75.75 0 0 1 .638-.325.75.75 0 0 1 .64.325.75.75 0 0 1 .111.708c-.082.255-.774 1.073-2.073 2.453a263.44 263.44 0 0 0-2.875 3.091 47.82 47.82 0 0 1-1.493 1.586c-.377.378-.675.622-.893.733a1.105 1.105 0 0 1-.692.11 1.106 1.106 0 0 1-.623-.318 1.105 1.105 0 0 1-.318-.623l1.408-2.152Z" fill="currentColor" stroke="currentColor" stroke-width="2" stroke-linecap="round" stroke-linejoin="round"/></svg>