<svg width="30" height="30" fill="none" xmlns="http://www.w3.org/2000/svg"><path d="M10.486 13.875a26416.275 26416.275 0 0 0 3.893.344l4.02.15c2.68.1 4.084.183 4.214.25.13.065.206.17.229.314a.407.407 0 0 1-.12.37.407.407 0 0 1-.37.12.407.407 0 0 1-.315-.229.407.407 0 0 1 0-.389.407.407 0 0 1 .315-.228.407.407 0 0 1 .37.12.407.407 0 0 1 .12.37.406.406 0 0 1-.229.315c-.13.066-1.534.149-4.214.249-2.68.1-4.668.207-5.966.322-1.298.115-2.324.172-3.079.172-.754 0-1.242-.036-1.462-.107a1.044 1.044 0 0 1-.535-.389A1.045 1.045 0 0 1 7.152 15c0-.232.068-.441.205-.629l3.13-.496Z" fill="currentColor" stroke="currentColor" stroke-width="2" stroke-linecap="round" stroke-linejoin="round"/></svg>