<svg width="30" height="30" fill="none" xmlns="http://www.w3.org/2000/svg"><path d="M8.511 2.735a349400.126 349400.126 0 0 0 3.894.345l2.35.151c1.567.101 3.01.15 4.33.147l3.195-.008c.812-.002 1.57.077 2.274.238.705.16 1.273.524 1.703 1.09.43.567.7 1.35.81 2.35.11 1 .12 2.158.028 3.477a246.02 246.02 0 0 0-.259 4.334 78.952 78.952 0 0 0-.113 4.336c.005 1.32.007 2.386.006 3.197a10.377 10.377 0 0 1-.24 2.273 2.86 2.86 0 0 1-1.086 1.7c-.565.429-1.347.699-2.345.809-.998.11-2.157.12-3.476.03a252.3 252.3 0 0 0-4.333-.256 79.792 79.792 0 0 0-4.337-.112c-1.32.005-2.385.007-3.197.005a10.388 10.388 0 0 1-2.272-.24 2.86 2.86 0 0 1-1.7-1.085c-.429-.565-.699-1.346-.809-2.345-.11-.998-.12-2.157-.03-3.475.09-1.319.175-2.763.255-4.334.08-1.57.118-3.016.113-4.336-.005-1.32-.01-2.377-.012-3.171s.185-1.625.564-2.493c.378-.868.635-1.412.77-1.633a.724.724 0 0 1 .592-.363.724.724 0 0 1 .64.266.724.724 0 0 1 .162.674.724.724 0 0 1-.45.527.726.726 0 0 1-.691-.055.724.724 0 0 1-.362-.59.724.724 0 0 1 .265-.641.724.724 0 0 1 .674-.162c.252.06.428.21.527.45.099.24-.13.776-.686 1.61-.556.833-.867 1.641-.934 2.425-.067.784-.103 1.835-.107 3.155a78.62 78.62 0 0 0 .115 4.335c.082 1.569.171 3.005.268 4.307.097 1.303.176 2.393.236 3.271.06.878.36 1.539.898 1.982.538.442 1.204.712 1.999.81.795.098 1.852.15 3.172.154a77.89 77.89 0 0 0 4.334-.116c1.57-.081 3.006-.17 4.308-.268a578.7 578.7 0 0 1 3.27-.236c.879-.06 1.54-.36 1.982-.898.443-.537.713-1.204.81-1.998.099-.795.15-1.853.155-3.172a77.76 77.76 0 0 0-.117-4.335c-.083-1.57-.173-3.005-.271-4.308a543.814 543.814 0 0 1-.238-3.267c-.061-.876-.36-1.534-.896-1.975-.536-.44-1.201-.71-1.995-.812-.794-.1-1.85-.153-3.17-.156a65.296 65.296 0 0 0-4.33.147c-1.566.1-2.998.208-4.296.323-1.298.115-2.324.173-3.079.173-.754 0-1.242-.036-1.462-.108a1.045 1.045 0 0 1-.535-.389 1.045 1.045 0 0 1-.205-.629c0-.231.068-.441.205-.629l3.13-.496Z" fill="currentColor" stroke="currentColor" stroke-width="2" stroke-linecap="round" stroke-linejoin="round"/><path d="M12.337 13.793a9071.142 9071.142 0 0 0 2.225.053l2.297.046c1.531.03 2.44.119 2.726.264a.898.898 0 0 1 .506.696.898.898 0 0 1-.266.817.898.898 0 0 1-.817.266.898.898 0 0 1-.696-.505.898.898 0 0 1 0-.86.898.898 0 0 1 .696-.505c.317-.05.59.038.817.266a.9.9 0 0 1 .266.817.898.898 0 0 1-.506.696c-.286.146-1.195.234-2.726.264s-2.668.055-3.41.072a77.83 77.83 0 0 1-1.759.027c-.43 0-.765-.038-1.001-.115a1.121 1.121 0 0 1-.574-.417 1.12 1.12 0 0 1-.22-.675c0-.249.074-.474.22-.675l2.222-.532Z" fill="currentColor" stroke="currentColor" stroke-width="2" stroke-linecap="round" stroke-linejoin="round"/></svg>