<svg width="30" height="30" fill="none" xmlns="http://www.w3.org/2000/svg"><path d="M7.587 2.668a457396.153 457396.153 0 0 0 4.45.397l2.685.111c1.791.074 3.44.111 4.948.111 1.508 0 2.714.01 3.62.028.906.018 1.719.108 2.439.27.72.163 1.292.502 1.718 1.018.426.517.705 1.177.838 1.98.133.804.189 1.68.168 2.63-.02.95-.055 1.987-.101 3.11a86.324 86.324 0 0 0-.076 3.241c-.004 1.038-.03 2-.08 2.89-.05.888-.265 1.621-.645 2.2a3.392 3.392 0 0 1-1.54 1.28c-.646.276-1.395.408-2.246.398-.85-.01-2.028-.08-3.532-.208a107.327 107.327 0 0 0-4.948-.296 128.67 128.67 0 0 0-4.954-.104c-1.509 0-2.716-.009-3.622-.027a12.23 12.23 0 0 1-2.438-.271c-.72-.163-1.292-.502-1.718-1.018-.426-.516-.705-1.176-.838-1.98a14.23 14.23 0 0 1-.168-2.629c.02-.95.054-1.986.1-3.11.047-1.123.072-2.203.076-3.24.004-1.037.206-2.217.607-3.54.4-1.323.688-2.122.861-2.396a.905.905 0 0 1 .745-.443.905.905 0 0 1 .796.342c.207.25.27.531.19.846a.905.905 0 0 1-.571.65.905.905 0 0 1-.863-.079.905.905 0 0 1-.442-.745.905.905 0 0 1 .342-.796.905.905 0 0 1 .845-.19c.314.08.531.27.651.571.12.301-.11 1.088-.693 2.36-.582 1.272-.878 2.419-.89 3.441a59.123 59.123 0 0 0 .054 3.215c.049 1.121.086 2.147.114 3.077.027.93.107 1.806.24 2.63.131.824.457 1.407.977 1.747.52.34 1.214.534 2.081.58.867.045 2.055.068 3.564.068 1.508 0 3.159-.036 4.952-.107a97.574 97.574 0 0 0 4.922-.309c1.488-.135 2.779-.34 3.872-.615 1.093-.275 1.8-.79 2.121-1.547.322-.757.488-1.646.5-2.668a59.185 59.185 0 0 0-.055-3.214 233.788 233.788 0 0 1-.114-3.076 20.52 20.52 0 0 0-.24-2.63c-.131-.823-.457-1.406-.977-1.747-.52-.34-1.213-.534-2.08-.58a71.11 71.11 0 0 0-3.562-.07c-1.508 0-3.157.038-4.948.112-1.79.074-3.427.177-4.91.31-1.484.132-2.656.199-3.519.199-.862 0-1.4-.035-1.614-.104a1.01 1.01 0 0 1-.517-.376 1.01 1.01 0 0 1-.198-.609c0-.224.066-.427.198-.608l3.425-.48Zm4.75 22.375a9071.142 9071.142 0 0 0 2.225.053l2.297.046c1.531.03 2.44.119 2.726.265a.898.898 0 0 1 .506.695.898.898 0 0 1-.266.817.898.898 0 0 1-.817.266.898.898 0 0 1-.696-.505.898.898 0 0 1 0-.86.898.898 0 0 1 .696-.505c.317-.05.59.038.817.266a.9.9 0 0 1 .266.817.898.898 0 0 1-.506.695c-.286.146-1.195.235-2.726.265-1.531.03-2.668.055-3.41.072a77.83 77.83 0 0 1-1.759.027c-.43 0-.765-.038-1.001-.115a1.121 1.121 0 0 1-.574-.417 1.12 1.12 0 0 1-.22-.675c0-.249.074-.474.22-.675l2.222-.532Z" fill="currentColor" stroke="currentColor" stroke-width="2" stroke-linecap="round" stroke-linejoin="round"/><path d="M16.21 22.38a2184.304 2184.304 0 0 0 .036 1.113l.008 1.149c.006.765-.078 1.318-.252 1.659-.173.34-.449.54-.826.6a1.067 1.067 0 0 1-.972-.315 1.068 1.068 0 0 1-.315-.972c.06-.377.26-.653.6-.826.34-.174.681-.174 1.022 0 .34.173.54.449.6.826.06.377-.045.701-.316.972-.27.27-.594.375-.971.315a1.067 1.067 0 0 1-.826-.6c-.174-.34-.258-.894-.252-1.66.005-.765.014-1.333.026-1.704a29.5 29.5 0 0 0 .017-.88c0-.215.039-.442.116-.679.077-.237.216-.429.418-.576a1.13 1.13 0 0 1 .677-.22c.25 0 .475.074.677.22l.534 1.579Z" fill="currentColor" stroke="currentColor" stroke-width="2" stroke-linecap="round" stroke-linejoin="round"/></svg>