<svg width="30" height="30" fill="none" xmlns="http://www.w3.org/2000/svg"><path d="m27.213 17.395-.156.64-.155.642-.328.8c-.218.534-.57 1.2-1.057 1.999a12.223 12.223 0 0 1-3.896 3.968 12.344 12.344 0 0 1-8.081 1.841 12.405 12.405 0 0 1-5.267-1.887 12.418 12.418 0 0 1-2.183-1.78 12.422 12.422 0 0 1-2.91-4.782 12.442 12.442 0 0 1-.525-5.575 12.44 12.44 0 0 1 .687-2.734 12.436 12.436 0 0 1 3.094-4.666 12.449 12.449 0 0 1 2.252-1.696c.815-.48 1.907-.883 3.276-1.21 1.37-.326 2.17-.403 2.4-.23.23.172.389.396.474.672.085.275.08.55-.012.822-.093.273-.17.513-.233.722-.062.209-.195.712-.399 1.511a10.386 10.386 0 0 0-.338 2.232 7.183 7.183 0 0 0 1.006 3.904c.35.586.776 1.113 1.278 1.58a7.122 7.122 0 0 0 3.598 1.803 7.15 7.15 0 0 0 2.058.069c.697-.077 1.553-.343 2.569-.799 1.015-.456 1.733-.633 2.154-.531.421.101.714.353.88.753.165.4.133.786-.093 1.155a1.21 1.21 0 0 1-.989.603 1.21 1.21 0 0 1-1.069-.445 1.21 1.21 0 0 1-.268-1.127 1.21 1.21 0 0 1 .753-.879 1.21 1.21 0 0 1 1.154.093c.37.227.57.556.604.988a1.21 1.21 0 0 1-.445 1.07c-.33.28-1.053.65-2.169 1.11-1.116.46-2.139.725-3.07.798-.93.072-1.86.013-2.79-.178a9.9 9.9 0 0 1-4.93-2.61 9.917 9.917 0 0 1-2.753-4.854 10.042 10.042 0 0 1-.259-2.798c.045-.94.179-1.792.401-2.554a4.967 4.967 0 0 1 1.186-2.044c.569-.6.937-.971 1.104-1.113.168-.142.367-.126.598.047.23.172.389.396.474.672.085.275.08.55-.012.822-.093.273-.726.626-1.899 1.06-1.172.433-2.079.832-2.718 1.197A9.695 9.695 0 0 0 7 9.43a9.705 9.705 0 0 0-1.246 8.408 9.693 9.693 0 0 0 2.211 3.76 9.718 9.718 0 0 0 3.634 2.417 9.742 9.742 0 0 0 4.328.59 9.849 9.849 0 0 0 5.92-2.694 10.024 10.024 0 0 0 1.423-1.7c.413-.62.718-1.14.915-1.562a9.42 9.42 0 0 0 .456-1.153c.107-.347.196-.727.267-1.14.071-.411.166-.729.283-.952.118-.222.29-.39.517-.5.226-.111.463-.145.711-.102.248.044.46.156.636.337l.157 2.256Z" fill="currentColor" stroke="currentColor" stroke-width="2" stroke-linecap="round" stroke-linejoin="round"/></svg>