<svg width="30" height="30" fill="none" xmlns="http://www.w3.org/2000/svg"><path d="m13.876 15.3.02-.362.02-.362.23-.28c.152-.187.345-.312.578-.373.234-.062.463-.05.688.038.225.087.403.232.534.435.13.203.19.425.176.666a1.088 1.088 0 0 1-.249.642 1.088 1.088 0 0 1-.579.373 1.088 1.088 0 0 1-.688-.038l-.73-.74Zm0-8.75.02-.362.02-.362.23-.28c.152-.187.345-.312.578-.373.234-.062.463-.05.688.038.225.087.403.232.534.435.13.203.19.425.176.666a1.088 1.088 0 0 1-.249.642 1.088 1.088 0 0 1-.579.373 1.088 1.088 0 0 1-.688-.038l-.73-.74Zm0 17.5.02-.362.02-.362.23-.28c.152-.187.345-.312.578-.373.234-.062.463-.05.688.038.225.087.403.232.534.435.13.203.19.425.176.666a1.088 1.088 0 0 1-.249.642 1.088 1.088 0 0 1-.579.373 1.088 1.088 0 0 1-.688-.038l-.73-.74Z" fill="currentColor" stroke="currentColor" stroke-width="2" stroke-linecap="round" stroke-linejoin="round"/></svg>