<svg width="30" height="30" fill="none" xmlns="http://www.w3.org/2000/svg"><path d="m6.086 7.39.777 2.445.777 2.445 1.127 2.874c.752 1.916 1.45 3.667 2.098 5.252.647 1.586 1.153 2.566 1.52 2.94.366.373.745-.043 1.138-1.249a70.365 70.365 0 0 1 1.038-2.997c.3-.792.72-1.526 1.26-2.203.54-.677 1.181-1.159 1.923-1.446a51.57 51.57 0 0 1 2.37-.85c.84-.277 1.873-.605 3.1-.98 1.228-.377 1.928-.505 2.1-.383a.95.95 0 0 1 .36.48c.069.2.072.4.01.601-.062.202-.205.28-.43.238-.223-.043-.837-.22-1.841-.532-1.004-.312-2.242-.846-3.715-1.604-1.472-.757-3.823-1.825-7.053-3.204-3.23-1.38-4.891-2.123-4.983-2.231a.396.396 0 0 1-.087-.37.396.396 0 0 1 .248-.287.396.396 0 0 1 .378.032c.12.074.186.182.197.324a.396.396 0 0 1-.147.35.396.396 0 0 1-.37.087.396.396 0 0 1-.286-.248.396.396 0 0 1 .03-.378.396.396 0 0 1 .325-.197c.142-.01 1.839.65 5.091 1.982a518.75 518.75 0 0 0 11.305 4.5c.473.183.796.335.968.457a.95.95 0 0 1 .36.48c.069.2.072.4.01.601-.062.202-.693.528-1.892.98a223.7 223.7 0 0 1-3.028 1.12c-.818.294-1.687.72-2.604 1.275-.918.556-1.607 1.202-2.067 1.94-.46.739-.854 1.512-1.18 2.322a7.657 7.657 0 0 1-1.355 2.203c-.578.66-1.135.669-1.67.028-.535-.64-1.146-1.767-1.831-3.38a413.644 413.644 0 0 0-2.275-5.242 86.033 86.033 0 0 0-2.436-5.098c-.793-1.516-1.38-2.731-1.76-3.646-.382-.915-.58-1.48-.598-1.694a.97.97 0 0 1 .142-.598.97.97 0 0 1 .466-.4.97.97 0 0 1 .612-.049l1.878 3.31Z" fill="currentColor"/><path d="M25.314 13.238c-.172-.121-.872.006-2.1.382-1.227.376-2.26.704-3.1.982a49.33 49.33 0 0 0-2.37.849c-.742.287-1.383.77-1.923 1.446a8.104 8.104 0 0 0-1.26 2.203c-.3.793-.645 1.792-1.038 2.997-.393 1.206-.772 1.622-1.138 1.248-.367-.373-.873-1.353-1.52-2.939a415.637 415.637 0 0 1-2.098-5.252L7.64 12.28l-.777-2.445-.777-2.446L4.208 4.08a.97.97 0 0 0-.612.05.97.97 0 0 0-.466.4.97.97 0 0 0-.142.597c.017.214.216.78.597 1.694.382.915.968 2.13 1.761 3.646a86.033 86.033 0 0 1 2.436 5.098c.831 1.882 1.59 3.63 2.275 5.243.685 1.612 1.296 2.739 1.83 3.38.536.64 1.093.63 1.67-.03a7.657 7.657 0 0 0 1.356-2.202c.326-.81.72-1.583 1.18-2.322.46-.738 1.15-1.384 2.067-1.94.917-.556 1.786-.98 2.604-1.275a223.7 223.7 0 0 0 3.028-1.12c1.199-.452 1.83-.778 1.892-.98m-.37-1.081a.95.95 0 0 1 .36.48c.069.2.072.4.01.601m-.37-1.081c-.172-.121-.495-.274-.968-.456a518.75 518.75 0 0 1-11.305-4.5C9.79 6.95 8.091 6.288 7.951 6.298a.396.396 0 0 0-.325.197.396.396 0 0 0-.031.378.396.396 0 0 0 .287.248.4.4 0 0 0 .369-.087.396.396 0 0 0 .147-.35.396.396 0 0 0-.197-.324.396.396 0 0 0-.378-.032.396.396 0 0 0-.248.288.396.396 0 0 0 .087.369c.092.108 1.753.852 4.983 2.23 3.23 1.38 5.58 2.448 7.053 3.206 1.473.757 2.711 1.291 3.715 1.603 1.004.311 1.618.489 1.842.532.224.043.367-.036.429-.238" stroke="currentColor" stroke-width="2" stroke-linecap="round" stroke-linejoin="round"/><path d="m18.895 17.185.809.86.809.859 1.683 1.762c1.123 1.174 1.732 1.908 1.827 2.203a.864.864 0 0 1-.13.816.864.864 0 0 1-.736.375.864.864 0 0 1-.736-.375.864.864 0 0 1-.13-.816.864.864 0 0 1 .585-.585.864.864 0 0 1 .816.13c.25.181.376.426.376.736s-.125.555-.376.736a.864.864 0 0 1-.816.13c-.294-.096-1.029-.705-2.203-1.827a534.975 534.975 0 0 0-2.621-2.493c-.573-.54-1.021-.97-1.345-1.294-.323-.323-.541-.596-.654-.817a1.117 1.117 0 0 1-.11-.698c.038-.245.145-.456.32-.63a1.12 1.12 0 0 1 .631-.322l2 1.25Z" fill="currentColor" stroke="currentColor" stroke-width="2" stroke-linecap="round" stroke-linejoin="round"/></svg>