<svg width="30" height="30" fill="none" xmlns="http://www.w3.org/2000/svg"><g clip-path="url(#a)" fill="currentColor" stroke="currentColor" stroke-width="2" stroke-linecap="round" stroke-linejoin="round"><path d="m6.204 12.918-.405.43-.406.428-.313.633c-.209.421-.088 1.034.363 1.84.45.805.73 1.404.84 1.797.11.393.037.75-.217 1.07a1.14 1.14 0 0 1-.993.452 1.14 1.14 0 0 1-.95-.536A1.14 1.14 0 0 1 4 17.948a1.14 1.14 0 0 1 .804-.738 1.14 1.14 0 0 1 1.07.217c.32.254.47.585.453.993a1.14 1.14 0 0 1-.537.95 1.14 1.14 0 0 1-1.084.124c-.383-.143-1.028-.828-1.935-2.054-.908-1.226-1.192-2.216-.851-2.97.34-.753.712-1.35 1.112-1.792.401-.442.745-.798 1.03-1.068.286-.27.51-.486.672-.648.162-.161.354-.299.576-.412a1.13 1.13 0 0 1 .704-.112c.246.04.458.147.634.324.177.176.284.388.324.634l-.767 1.522Zm4.993-8.435.406-.429.405-.429.663-.601c.441-.4 1.039-.772 1.792-1.113.754-.34 1.744-.057 2.97.851 1.226.908 1.91 1.553 2.053 1.935a1.14 1.14 0 0 1-.124 1.084 1.14 1.14 0 0 1-.95.537 1.14 1.14 0 0 1-.992-.453 1.14 1.14 0 0 1-.217-1.07 1.14 1.14 0 0 1 .737-.803 1.14 1.14 0 0 1 1.084.124c.34.225.52.542.537.95a1.14 1.14 0 0 1-.453.992 1.14 1.14 0 0 1-1.07.217c-.393-.109-.992-.389-1.797-.84-.805-.45-1.418-.571-1.84-.362a4.326 4.326 0 0 0-1.061.718c-.286.27-.51.486-.672.648-.161.162-.353.3-.576.413-.222.113-.457.15-.703.111a1.125 1.125 0 0 1-.635-.323 1.125 1.125 0 0 1-.323-.635l.766-1.522Zm7.606 21.034-.406.429-.405.429-.663.601c-.441.401-1.039.772-1.792 1.113-.754.34-1.744.057-2.97-.851-1.226-.908-1.91-1.553-2.053-1.935a1.14 1.14 0 0 1 .124-1.084c.225-.34.542-.52.95-.537a1.14 1.14 0 0 1 .993.453c.253.32.326.676.216 1.07a1.14 1.14 0 0 1-.737.803 1.14 1.14 0 0 1-1.084-.124 1.14 1.14 0 0 1-.537-.95 1.14 1.14 0 0 1 .453-.992 1.14 1.14 0 0 1 1.07-.217c.393.109.992.389 1.797.84.805.45 1.418.571 1.84.362a4.327 4.327 0 0 0 1.061-.718c.286-.27.51-.486.672-.648.161-.162.353-.3.576-.413.222-.113.457-.15.703-.111.247.04.458.147.635.323.176.177.284.388.323.635l-.766 1.522Zm6.714-14.32a65854.987 65854.987 0 0 0 .858.811l.601.663c.401.441.772 1.039 1.113 1.792.34.754.057 1.744-.851 2.97-.908 1.226-1.553 1.91-1.935 2.053a1.14 1.14 0 0 1-1.084-.124 1.14 1.14 0 0 1-.537-.95 1.14 1.14 0 0 1 .453-.992 1.14 1.14 0 0 1 1.07-.217c.393.109.66.355.803.737a1.14 1.14 0 0 1-.124 1.084 1.14 1.14 0 0 1-.95.537 1.14 1.14 0 0 1-.992-.453 1.14 1.14 0 0 1-.217-1.07c.109-.393.389-.992.84-1.797.45-.805.571-1.418.362-1.84a4.33 4.33 0 0 0-.718-1.061 35.16 35.16 0 0 0-.648-.672 2.257 2.257 0 0 1-.413-.576 1.126 1.126 0 0 1-.111-.703c.04-.247.147-.458.323-.635.177-.176.388-.284.635-.323l1.522.766Z"/><path d="M8.366 13.988a57650.408 57650.408 0 0 0 5.562.477l5.742.033c3.828.022 5.806.066 5.932.13.127.064.2.166.223.307a.396.396 0 0 1-.117.36c-.1.1-.22.14-.36.117a.396.396 0 0 1-.308-.222.396.396 0 0 1 0-.38.396.396 0 0 1 .307-.223c.14-.022.26.017.36.118.101.1.14.22.118.36a.396.396 0 0 1-.223.307c-.126.065-2.104.108-5.932.13-3.828.022-6.669.112-8.523.272-1.854.159-3.32.239-4.398.239-1.078 0-1.716-.033-1.915-.097a.94.94 0 0 1-.481-.35.94.94 0 0 1-.184-.566.94.94 0 0 1 .184-.566l4.013-.446Z"/><path d="m16.013 8.366-.24 2.781-.238 2.781-.033 5.742c-.022 3.828-.066 5.806-.13 5.932a.396.396 0 0 1-.307.223.396.396 0 0 1-.36-.117c-.1-.1-.14-.22-.117-.36a.396.396 0 0 1 .222-.308.396.396 0 0 1 .38 0 .4.4 0 0 1 .223.307.396.396 0 0 1-.118.36c-.1.101-.22.14-.36.118a.396.396 0 0 1-.307-.223c-.065-.126-.108-2.104-.13-5.932-.022-3.828-.112-6.669-.272-8.523-.159-1.854-.239-3.32-.239-4.398 0-1.078.033-1.716.097-1.915a.94.94 0 0 1 .35-.481.94.94 0 0 1 .566-.184.94.94 0 0 1 .566.184l.447 4.013Z"/></g><defs><clipPath id="a"><path fill="#fff" d="M0 0h30v30H0z"/></clipPath></defs></svg>