<svg width="30" height="30" fill="none" xmlns="http://www.w3.org/2000/svg"><path d="m10.401 19.795.145-1.807.144-1.808.152-2.182c.102-1.455.165-2.805.19-4.05.026-1.244.226-2.263.602-3.056.376-.793 1.312-1.45 2.808-1.97 1.497-.52 2.925-.87 4.284-1.05 1.36-.179 2.627-.354 3.801-.524 1.175-.17 2.129-.084 2.862.256.734.34 1.212 1.3 1.435 2.877.223 1.579.31 3.614.262 6.107-.05 2.492-.106 3.802-.17 3.93a.396.396 0 0 1-.304.224.396.396 0 0 1-.362-.114.396.396 0 0 1-.12-.36.396.396 0 0 1 .221-.309.396.396 0 0 1 .38-.002.396.396 0 0 1 .224.305.396.396 0 0 1-.114.361.397.397 0 0 1-.36.12.396.396 0 0 1-.308-.22c-.066-.126-.134-1.43-.205-3.91-.071-2.48-.135-4.285-.19-5.415-.057-1.13-.324-1.903-.801-2.32-.478-.417-1.27-.566-2.377-.447a34.969 34.969 0 0 0-3.65.61c-1.326.287-2.646.588-3.96.901-1.313.314-2.136.768-2.469 1.363-.333.596-.486 1.496-.461 2.702.025 1.205.088 2.536.19 3.99.102 1.456.2 2.785.297 3.99.096 1.206.144 2.159.144 2.86 0 .7-.036 1.163-.11 1.387a1.063 1.063 0 0 1-.395.544c-.19.14-.404.208-.64.208s-.45-.069-.64-.208l-.505-2.983Z" fill="currentColor" stroke="currentColor" stroke-width="2" stroke-linecap="round" stroke-linejoin="round"/><path d="m12.153 23.918-.296.637-.295.637-.674.612c-.45.408-1.143.76-2.082 1.058a4.49 4.49 0 0 1-2.826-.02 4.43 4.43 0 0 1-2.28-1.678 4.533 4.533 0 0 1-.852-2.73 4.504 4.504 0 0 1 .904-2.72 4.526 4.526 0 0 1 2.336-1.656c.962-.302 2.079-.11 3.351.577 1.272.686 2.052 1.192 2.34 1.515.288.324.386.698.293 1.12a1.21 1.21 0 0 1-.735.896 1.21 1.21 0 0 1-1.155-.068 1.21 1.21 0 0 1-.625-.975 1.21 1.21 0 0 1 .422-1.078 1.21 1.21 0 0 1 1.12-.293c.423.093.722.338.895.734a1.21 1.21 0 0 1-.068 1.156 1.21 1.21 0 0 1-.975.625c-.43.042-1.03-.239-1.798-.844-.768-.606-1.475-.838-2.12-.698s-1.083.51-1.315 1.113c-.232.603-.175 1.177.17 1.72.345.544.852.836 1.52.874.67.039 1.21-.108 1.623-.441.413-.334.673-.701.78-1.102.107-.402.221-.719.343-.95.121-.232.3-.406.534-.522a1.18 1.18 0 0 1 .739-.108c.257.044.478.16.66.347l.067 2.262Zm15-2.5-.295.637-.296.637-.674.612c-.45.408-1.143.76-2.082 1.058a4.49 4.49 0 0 1-2.826-.02 4.43 4.43 0 0 1-2.281-1.678 4.533 4.533 0 0 1-.852-2.73 4.504 4.504 0 0 1 .904-2.72 4.526 4.526 0 0 1 2.336-1.656c.962-.302 2.079-.11 3.351.577 1.272.686 2.052 1.192 2.34 1.515.288.324.386.698.293 1.12a1.21 1.21 0 0 1-.735.896 1.21 1.21 0 0 1-1.155-.068 1.21 1.21 0 0 1-.625-.975 1.21 1.21 0 0 1 .422-1.078 1.21 1.21 0 0 1 1.12-.293c.423.093.722.338.895.734a1.21 1.21 0 0 1-.067 1.156 1.21 1.21 0 0 1-.976.625c-.43.042-1.03-.239-1.798-.844-.768-.606-1.475-.838-2.12-.698s-1.083.51-1.315 1.113c-.232.603-.175 1.177.17 1.72.345.544.852.836 1.52.874.67.039 1.21-.108 1.623-.441.413-.334.673-.701.78-1.102.107-.402.222-.719.343-.95.122-.232.3-.406.534-.522a1.18 1.18 0 0 1 .738-.108c.258.044.479.16.661.347l.067 2.262Z" fill="currentColor" stroke="currentColor" stroke-width="2" stroke-linecap="round" stroke-linejoin="round"/></svg>