<svg width="30" height="30" fill="none" xmlns="http://www.w3.org/2000/svg"><path d="m7.207 11.847 2.749-1.027 2.748-1.026 3.195-1.5c2.13-1 4.559-2.13 7.286-3.388 2.726-1.258 4.132-1.864 4.217-1.818a.435.435 0 0 1 .189.2.435.435 0 0 1 .035.273c-.018.095-.115.401-.292.918-.176.516-.656 1.82-1.439 3.909a85.908 85.908 0 0 1-2.665 6.318 856.57 856.57 0 0 1-2.78 5.883c-.86 1.8-1.56 3.134-2.101 4.002-.54.869-.988 1.216-1.34 1.044-.354-.172-.653-.61-.9-1.313a53.53 53.53 0 0 1-.76-2.376 12.227 12.227 0 0 0-1.041-2.489c-.434-.778-1.128-1.426-2.082-1.944s-2.193-.977-3.716-1.377c-1.524-.4-2.387-.689-2.59-.868a.755.755 0 0 1-.265-.672.755.755 0 0 1 .388-.61.755.755 0 0 1 .72-.044.755.755 0 0 1 .46.557.755.755 0 0 1-.18.7.755.755 0 0 1-.671.265.755.755 0 0 1-.61-.388.755.755 0 0 1-.045-.72.755.755 0 0 1 .557-.46c.264-.06 1.167.101 2.71.482 1.543.38 2.716.692 3.518.935.801.242 1.473.714 2.014 1.415a6.96 6.96 0 0 1 1.184 2.328c.247.852.534 1.94.86 3.265.328 1.325.54 2.152.637 2.48.098.327.323.08.676-.743.353-.822.944-2.122 1.773-3.9.83-1.777 1.74-3.725 2.732-5.842a520.415 520.415 0 0 0 2.64-5.715c.767-1.692 1.311-2.967 1.63-3.824.32-.858.504-1.365.553-1.522.05-.158.116-.213.2-.167a.435.435 0 0 1 .19.2.435.435 0 0 1 .035.273c-.018.095-1.377.8-4.079 2.112a1267.427 1267.427 0 0 1-7.236 3.49 79.936 79.936 0 0 0-5.72 2.999c-1.69.984-3.047 1.719-4.071 2.204-1.025.485-1.638.74-1.84.767a.92.92 0 0 1-.573-.108.92.92 0 0 1-.4-.424.92.92 0 0 1-.074-.577l3.574-2.177Z" fill="currentColor"/><path d="M27.591 3.288a.435.435 0 0 0-.19-.2c-.084-.046-1.49.56-4.216 1.818a1267.413 1267.413 0 0 0-7.286 3.388l-3.195 1.5-2.748 1.026-2.749 1.027-3.574 2.177a.92.92 0 0 0 .074.578.92.92 0 0 0 .4.423.92.92 0 0 0 .572.108c.203-.026.816-.282 1.84-.767 1.025-.485 2.382-1.22 4.072-2.204a79.936 79.936 0 0 1 5.72-2.998c2.123-1.015 4.535-2.179 7.236-3.491 2.702-1.313 4.061-2.017 4.08-2.112a.435.435 0 0 0-.036-.273Zm0 0a.435.435 0 0 1 .035.273c-.018.095-.115.401-.292.918-.176.516-.656 1.82-1.439 3.909a85.908 85.908 0 0 1-2.665 6.318 856.57 856.57 0 0 1-2.78 5.883c-.86 1.8-1.56 3.134-2.101 4.002-.54.869-.988 1.216-1.34 1.044-.354-.172-.653-.61-.9-1.313a53.53 53.53 0 0 1-.76-2.376 12.227 12.227 0 0 0-1.041-2.489c-.434-.778-1.128-1.426-2.082-1.944s-2.193-.977-3.716-1.377c-1.524-.4-2.387-.689-2.59-.868a.755.755 0 0 1-.265-.672.755.755 0 0 1 .388-.61.755.755 0 0 1 .72-.044.755.755 0 0 1 .46.557.755.755 0 0 1-.18.7.755.755 0 0 1-.671.265.755.755 0 0 1-.61-.388.755.755 0 0 1-.045-.72.755.755 0 0 1 .557-.46c.264-.06 1.167.101 2.71.482 1.543.38 2.716.692 3.518.935.801.242 1.473.714 2.014 1.415a6.96 6.96 0 0 1 1.184 2.328c.247.852.534 1.94.86 3.265.328 1.325.54 2.152.637 2.48.098.327.323.08.676-.743.353-.822.944-2.122 1.773-3.9.83-1.777 1.74-3.725 2.732-5.842a520.415 520.415 0 0 0 2.64-5.715c.767-1.692 1.311-2.967 1.63-3.824.32-.858.504-1.365.553-1.522.05-.158.116-.213.2-.167a.435.435 0 0 1 .19.2Z" stroke="currentColor" stroke-width="2" stroke-linecap="round" stroke-linejoin="round"/></svg>