<svg width="30" height="30" fill="none" xmlns="http://www.w3.org/2000/svg"><path d="M17.561 5.372s.25.908.747 2.725l.747 2.725 1.149 3.2c.766 2.133 1.477 4.104 2.133 5.913.657 1.81 1.1 3.196 1.33 4.159.23.962.163 1.508-.2 1.636-.365.129-.882.044-1.551-.254a57.191 57.191 0 0 1-2.213-1.047 13.59 13.59 0 0 0-2.477-.947c-.845-.231-1.782-.201-2.81.09-1.028.291-1.936.652-2.723 1.083-.788.43-1.761.955-2.92 1.572-1.157.616-1.83.883-2.017.798a.925.925 0 0 1-.433-.395.925.925 0 0 1-.118-.574c.023-.204.141-.566.354-1.088.214-.521.739-1.835 1.577-3.94.837-2.105 1.923-4.974 3.257-8.608 1.334-3.634 2.052-5.5 2.156-5.596a.396.396 0 0 1 .365-.104c.14.027.239.105.299.234a.396.396 0 0 1-.014.379.396.396 0 0 1-.315.211.396.396 0 0 1-.356-.13.396.396 0 0 1-.104-.365.396.396 0 0 1 .234-.298.396.396 0 0 1 .379.014.396.396 0 0 1 .211.315c.017.14-.64 2.027-1.974 5.66-1.333 3.631-2.248 6.329-2.745 8.092-.497 1.764-.976 3.156-1.438 4.176-.462 1.02-.753 1.633-.873 1.838-.12.204-.275.264-.462.179a.925.925 0 0 1-.433-.395.925.925 0 0 1-.118-.574c.023-.204.596-.647 1.72-1.329 1.123-.682 2.08-1.253 2.869-1.711.79-.459 1.55-.875 2.281-1.248.732-.374 1.533-.507 2.405-.4a7.205 7.205 0 0 1 2.466.763c.773.402 1.732.942 2.879 1.62 1.146.678 1.87 1.096 2.169 1.253.3.158.285-.16-.042-.954-.327-.794-.822-2.077-1.485-3.848-.662-1.771-1.394-3.717-2.195-5.837a80.942 80.942 0 0 0-2.402-5.739c-.8-1.705-1.388-3.07-1.765-4.094-.378-1.024-.57-1.64-.579-1.848a.935.935 0 0 1 .162-.57.935.935 0 0 1 .465-.366.935.935 0 0 1 .591-.023l1.817 3.647Z" fill="currentColor"/><path d="M6.324 26.63a.92.92 0 0 0 .432.395c.187.085.86-.182 2.018-.798 1.158-.617 2.13-1.141 2.919-1.572.787-.43 1.695-.792 2.723-1.083 1.028-.291 1.965-.321 2.81-.09.846.23 1.671.546 2.477.947.805.4 1.543.75 2.213 1.047.67.298 1.186.383 1.55.254.364-.128.431-.674.201-1.636-.23-.963-.673-2.35-1.33-4.159-.656-1.81-1.367-3.78-2.133-5.913l-1.15-3.2-.746-2.725-.747-2.725-1.817-3.647a.935.935 0 0 0-.591.023.935.935 0 0 0-.466.367.935.935 0 0 0-.16.57c.008.207.2.823.578 1.847.377 1.024.966 2.389 1.765 4.095a81.28 81.28 0 0 1 2.402 5.738c.8 2.12 1.533 4.066 2.195 5.837a141.506 141.506 0 0 0 1.485 3.848c.327.793.341 1.112.042.954-.3-.157-1.023-.575-2.17-1.253a62.633 62.633 0 0 0-2.878-1.62 7.205 7.205 0 0 0-2.466-.763c-.872-.107-1.674.026-2.405.4a48.2 48.2 0 0 0-2.281 1.248c-.79.458-1.746 1.029-2.87 1.711-1.123.682-1.696 1.125-1.719 1.33a.925.925 0 0 0 .119.573Zm0 0a.925.925 0 0 1-.119-.574c.023-.204.141-.566.354-1.088.214-.521.739-1.835 1.577-3.94.837-2.105 1.923-4.974 3.257-8.608 1.334-3.634 2.052-5.5 2.156-5.596a.396.396 0 0 1 .365-.104c.14.027.239.105.299.234a.396.396 0 0 1-.014.379.396.396 0 0 1-.315.211.396.396 0 0 1-.356-.13.396.396 0 0 1-.104-.365.396.396 0 0 1 .234-.298.396.396 0 0 1 .379.014.396.396 0 0 1 .211.315c.017.14-.64 2.027-1.974 5.66-1.333 3.631-2.248 6.329-2.745 8.092-.497 1.764-.976 3.156-1.438 4.176-.462 1.02-.753 1.633-.873 1.838-.12.204-.275.264-.462.179a.925.925 0 0 1-.433-.395Z" stroke="currentColor" stroke-width="2" stroke-linecap="round" stroke-linejoin="round"/></svg>