<svg width="30" height="30" fill="none" xmlns="http://www.w3.org/2000/svg"><g clip-path="url(#a)"><path d="m11.162 1.389 1.151.032 1.152.031 1.39.058c.926.039 1.843.09 2.75.154a11.28 11.28 0 0 1 2.701.532c.894.29 1.643.73 2.248 1.32a66.16 66.16 0 0 1 1.877 1.906c.645.682 1.27 1.365 1.871 2.048a11.11 11.11 0 0 1 1.546 2.272c.428.832.65 1.67.663 2.512.014.843.01 1.733-.014 2.67a76.041 76.041 0 0 1-.12 2.77 11.055 11.055 0 0 1-.512 2.698c-.285.89-.72 1.638-1.306 2.244a64.096 64.096 0 0 1-1.9 1.88 76.363 76.363 0 0 1-2.043 1.875 11.07 11.07 0 0 1-2.27 1.548c-.83.428-1.667.65-2.509.664-.842.014-1.732.01-2.67-.013a75.62 75.62 0 0 1-2.769-.119 11.044 11.044 0 0 1-2.697-.51c-.89-.286-1.639-.721-2.245-1.307a63.867 63.867 0 0 1-1.88-1.899 75.946 75.946 0 0 1-1.875-2.043 11.067 11.067 0 0 1-1.547-2.27c-.429-.83-.65-1.667-.665-2.509-.014-.842-.01-1.732.013-2.67.024-.938.063-1.86.119-2.769.056-.908.226-1.807.511-2.697.285-.89.72-1.639 1.306-2.245.586-.606 1.45-1.467 2.595-2.583 1.144-1.116 1.855-1.72 2.135-1.813a.822.822 0 0 1 .777.119c.24.172.36.405.362.699a.822.822 0 0 1-.354.703.822.822 0 0 1-.776.127.822.822 0 0 1-.56-.553.822.822 0 0 1 .12-.777.822.822 0 0 1 .698-.362.822.822 0 0 1 .703.354.822.822 0 0 1 .128.776c-.09.28-.684.992-1.783 2.134a420.57 420.57 0 0 0-2.4 2.509c-.5.53-.876 1.084-1.127 1.662-.251.578-.396 1.272-.433 2.083-.037.812-.04 1.68-.007 2.603.032.925.058 1.75.079 2.479.02.728.146 1.385.378 1.971.231.587.62 1.18 1.169 1.78a32.5 32.5 0 0 0 1.837 1.848c.676.631 1.28 1.197 1.81 1.698.53.5 1.084.876 1.662 1.127.578.251 1.272.396 2.083.433.812.037 1.68.04 2.603.007.925-.032 1.75-.058 2.479-.079.728-.02 1.385-.146 1.971-.378.587-.231 1.18-.621 1.78-1.169.6-.548 1.216-1.16 1.848-1.837.63-.677 1.197-1.28 1.697-1.81s.876-1.084 1.127-1.662c.251-.578.395-1.272.432-2.083.037-.811.039-1.68.006-2.603-.032-.925-.059-1.75-.08-2.478-.021-.728-.148-1.384-.38-1.97-.231-.584-.621-1.177-1.17-1.776a32.127 32.127 0 0 0-1.84-1.843c-.679-.63-1.283-1.193-1.814-1.69-.531-.498-1.084-.87-1.658-1.116-.574-.246-1.266-.384-2.076-.415a32.7 32.7 0 0 0-2.604.011c-.927.039-1.774.068-2.542.09-.767.02-1.374.031-1.82.031-.447 0-.788-.038-1.024-.115a1.119 1.119 0 0 1-.573-.416 1.119 1.119 0 0 1-.22-.674c0-.248.074-.473.22-.674l2.266-.531Z" fill="currentColor" stroke="currentColor" stroke-width="2" stroke-linecap="round" stroke-linejoin="round"/></g><defs><clipPath id="a"><path fill="#fff" d="M0 0h30v30H0z"/></clipPath></defs></svg>