<svg width="30" height="30" fill="none" xmlns="http://www.w3.org/2000/svg"><g clip-path="url(#a)"><path d="m26.157 16.12-1.38 1.176-1.38 1.175-1.65 1.436a69.947 69.947 0 0 0-2.966 2.718 59.173 59.173 0 0 0-2.14 2.18 18.602 18.602 0 0 1-1.894 1.773 7.983 7.983 0 0 1-2.298 1.33 7.847 7.847 0 0 1-2.559.487 8.07 8.07 0 0 1-2.607-.367 8.38 8.38 0 0 1-4.271-3.08 8.517 8.517 0 0 1-1.618-5.069 8.547 8.547 0 0 1 .444-2.67c.29-.865.78-1.733 1.471-2.604.69-.872 1.663-1.853 2.918-2.945a527.842 527.842 0 0 1 3.552-3.065 67.62 67.62 0 0 0 2.994-2.705 41.936 41.936 0 0 0 2.082-2.124 12.975 12.975 0 0 1 1.657-1.555 6.505 6.505 0 0 1 2.113-1.085c.809-.251 1.526-.34 2.151-.265a5.768 5.768 0 0 1 1.803.522A5.991 5.991 0 0 1 25.302 4a6.144 6.144 0 0 1 .637 3.79 5.976 5.976 0 0 1-.65 1.923c-.334.628-.83 1.279-1.49 1.952a28.06 28.06 0 0 1-2.424 2.17c-.958.774-1.996 1.633-3.114 2.58a65.657 65.657 0 0 0-3.004 2.69c-.886.85-1.58 1.55-2.082 2.103a9.224 9.224 0 0 1-1.573 1.397 3.142 3.142 0 0 1-1.86.56 3.07 3.07 0 0 1-1.888-.663A3.219 3.219 0 0 1 6.7 20.787a3.556 3.556 0 0 1 .038-2.117 4.8 4.8 0 0 1 1.141-1.88c.534-.55 1.233-1.186 2.098-1.908.865-.722 2.145-1.86 3.84-3.418 1.694-1.557 2.645-2.369 2.852-2.436a.608.608 0 0 1 .575.091.608.608 0 0 1 .264.52c0 .217-.088.39-.264.518a.608.608 0 0 1-.575.09.608.608 0 0 1-.412-.411.609.609 0 0 1 .091-.575.609.609 0 0 1 .52-.264c.217 0 .39.088.518.264a.609.609 0 0 1 .09.575c-.067.208-.88 1.157-2.437 2.85-1.559 1.693-2.696 2.97-3.413 3.83a208.95 208.95 0 0 0-1.792 2.178c-.478.59-.616 1.148-.413 1.672.203.525.587.756 1.152.695.566-.061 1.143-.313 1.734-.755.59-.442 1.31-1.105 2.16-1.99a65.072 65.072 0 0 0 2.692-3.002c.946-1.116 1.8-2.15 2.564-3.101.764-.952 1.452-1.831 2.065-2.64.614-.807.996-1.587 1.148-2.338.153-.752.067-1.456-.256-2.112a3.469 3.469 0 0 0-1.485-1.534c-.667-.366-1.33-.544-1.99-.532a4.109 4.109 0 0 0-1.832.451 9.853 9.853 0 0 0-1.698 1.13c-.57.465-1.281 1.139-2.132 2.022-.85.883-1.751 1.88-2.701 2.994-.95 1.113-1.93 2.274-2.941 3.482a75.25 75.25 0 0 0-2.305 2.86c-.526.7-.901 1.342-1.125 1.928a6.039 6.039 0 0 0-.196 3.688c.16.61.411 1.185.753 1.723a6.275 6.275 0 0 0 2.89 2.418c.6.248 1.23.402 1.89.463.66.06 1.322.02 1.988-.12.666-.14 1.35-.411 2.055-.812.705-.402 1.364-.85 1.977-1.348.614-.497 1.349-1.184 2.204-2.06a70.137 70.137 0 0 0 2.719-2.965c.956-1.1 1.827-2.11 2.61-3.03.784-.92 1.424-1.628 1.92-2.123.495-.496.848-.797 1.058-.904.21-.107.432-.142.665-.105.233.036.432.138.6.305.166.167.268.367.305.6l-1.752 2.466Z" fill="currentColor" stroke="currentColor" stroke-width="2" stroke-linecap="round" stroke-linejoin="round"/></g><defs><clipPath id="a"><path fill="#fff" d="M0 0h30v30H0z"/></clipPath></defs></svg>