<svg width="30" height="30" fill="none" xmlns="http://www.w3.org/2000/svg"><path d="m8.315 4.068.557-.018.556-.018.905.115c.603.076 1.293.485 2.068 1.225.775.741 1.134 2.082 1.076 4.024-.058 1.941-.13 3.809-.215 5.601a104.663 104.663 0 0 0-.127 4.955c0 1.51-.075 2.685-.224 3.526-.149.84-.558 1.461-1.229 1.862-.67.401-1.413.61-2.23.627-.815.017-1.42-.304-1.816-.964-.395-.66-.59-1.952-.588-3.873.004-1.922.03-4.415.079-7.48.05-3.063.106-4.658.17-4.785a.396.396 0 0 1 .306-.224c.14-.022.26.017.361.117.1.1.14.22.118.36a.396.396 0 0 1-.222.308.396.396 0 0 1-.38 0 .396.396 0 0 1-.223-.306.396.396 0 0 1 .117-.36c.1-.101.22-.14.36-.119.14.022.243.096.307.222.065.127.126 1.72.182 4.781.057 3.061.143 5.504.258 7.328.116 1.824.328 2.89.638 3.196.309.306.803.413 1.482.32.68-.092 1.116-.496 1.31-1.212.193-.715.29-1.825.288-3.33a99.393 99.393 0 0 0-.139-4.94 125.418 125.418 0 0 0-.392-5.391c-.17-1.805-.381-2.81-.633-3.013-.252-.205-.582-.269-.992-.192-.41.076-.8.108-1.171.097a29.34 29.34 0 0 0-.88-.018c-.216 0-.442-.039-.68-.116a1.124 1.124 0 0 1-.575-.418 1.124 1.124 0 0 1-.22-.677c0-.25.073-.475.22-.677l1.578-.533Zm10.001 0 .556-.018.556-.018.905.115c.603.076 1.293.485 2.068 1.225.775.741 1.134 2.082 1.076 4.024-.058 1.941-.13 3.809-.215 5.601a104.663 104.663 0 0 0-.127 4.955c0 1.51-.075 2.685-.224 3.526-.149.84-.558 1.461-1.229 1.862-.67.401-1.413.61-2.23.627-.815.017-1.42-.304-1.816-.964-.395-.66-.59-1.952-.588-3.873.004-1.922.03-4.415.079-7.48.05-3.063.106-4.658.17-4.785a.396.396 0 0 1 .306-.224c.14-.022.26.017.361.117.1.1.14.22.118.36a.397.397 0 0 1-.222.308.396.396 0 0 1-.38 0 .396.396 0 0 1-.223-.306.396.396 0 0 1 .117-.36c.1-.101.22-.14.36-.119.14.022.243.096.307.222.065.127.125 1.72.182 4.781.056 3.061.143 5.504.258 7.328.116 1.824.328 2.89.637 3.196.31.306.804.413 1.483.32.68-.092 1.116-.496 1.31-1.212.193-.715.29-1.825.288-3.33a99.393 99.393 0 0 0-.139-4.94 125.418 125.418 0 0 0-.392-5.391c-.17-1.805-.381-2.81-.633-3.013-.252-.205-.582-.269-.992-.192-.41.076-.8.108-1.171.097a28.744 28.744 0 0 0-.88-.018c-.216 0-.442-.039-.68-.116a1.124 1.124 0 0 1-.575-.418 1.124 1.124 0 0 1-.22-.677c0-.25.073-.475.22-.677l1.579-.533Z" fill="currentColor" stroke="currentColor" stroke-width="2" stroke-linecap="round" stroke-linejoin="round"/></svg>