<svg width="30" height="30" fill="none" xmlns="http://www.w3.org/2000/svg"><path d="m27.199 18.99-.98 1.667-.979 1.668-1.402 1.367a13.253 13.253 0 0 1-3.152 2.28 12.767 12.767 0 0 1-3.73 1.255c-1.319.23-2.639.257-3.96.081a12.498 12.498 0 0 1-3.744-1.103 12.306 12.306 0 0 1-5.523-5.213 12.315 12.315 0 0 1-1.307-3.68 12.514 12.514 0 0 1-.108-3.946 12.403 12.403 0 0 1 3.267-6.918 12.314 12.314 0 0 1 6.725-3.656 12.53 12.53 0 0 1 3.946-.107c1.32.172 2.567.538 3.743 1.098 1.176.559 2.487 1.672 3.932 3.34 1.446 1.667 2.198 2.566 2.255 2.695a.4.4 0 0 1-.021.38.396.396 0 0 1-.319.205.396.396 0 0 1-.353-.137.396.396 0 0 1-.098-.367.396.396 0 0 1 .24-.294.396.396 0 0 1 .379.021.396.396 0 0 1 .205.319.396.396 0 0 1-.137.353.396.396 0 0 1-.366.098c-.139-.03-.901-.862-2.287-2.494-1.386-1.633-2.622-2.715-3.707-3.246a11.493 11.493 0 0 0-3.46-1.056 11.614 11.614 0 0 0-3.661.06 11.412 11.412 0 0 0-6.27 3.32 11.498 11.498 0 0 0-3.097 6.38 11.614 11.614 0 0 0 .06 3.661 11.412 11.412 0 0 0 3.32 6.27 11.422 11.422 0 0 0 6.38 3.094c1.222.17 2.437.143 3.646-.083a11.147 11.147 0 0 0 3.381-1.21c1.045-.58 1.963-1.3 2.753-2.157.79-.858 1.42-1.798 1.89-2.82.472-1.022.848-2.166 1.128-3.43.28-1.263.47-1.979.567-2.145a.87.87 0 0 1 .414-.365.871.871 0 0 1 .55-.052.871.871 0 0 1 .474.28l-.594 4.587Z" fill="currentColor" stroke="currentColor" stroke-width="2" stroke-linecap="round" stroke-linejoin="round"/><path d="m11.287 17.028-.003-.835-.002-.834.012-1.723c.008-1.148.095-1.883.259-2.205a1.01 1.01 0 0 1 .782-.568 1.01 1.01 0 0 1 .919.298c.255.256.355.562.298.92a1.01 1.01 0 0 1-.568.781 1.01 1.01 0 0 1-.966 0 1.01 1.01 0 0 1-.568-.782 1.01 1.01 0 0 1 .299-.919 1.01 1.01 0 0 1 .918-.298c.358.056.618.246.782.568.164.322.25 1.057.259 2.206a274.234 274.234 0 0 1 .007 3.876c0 .323-.038.604-.116.842-.077.238-.217.43-.42.577-.202.147-.428.22-.678.22a1.13 1.13 0 0 1-.679-.22l-.535-1.904Zm5 0-.003-.835-.002-.834.012-1.723c.008-1.148.095-1.883.259-2.205a1.01 1.01 0 0 1 .782-.568 1.01 1.01 0 0 1 .919.298c.255.256.355.562.298.92a1.01 1.01 0 0 1-.568.781 1.01 1.01 0 0 1-.966 0 1.01 1.01 0 0 1-.568-.782 1.01 1.01 0 0 1 .299-.919 1.01 1.01 0 0 1 .919-.298c.357.056.617.246.781.568.164.322.25 1.057.259 2.206a274.234 274.234 0 0 1 .007 3.876c0 .323-.038.604-.116.842-.077.238-.217.43-.42.577-.202.147-.428.22-.678.22a1.13 1.13 0 0 1-.679-.22l-.535-1.904Z" fill="currentColor" stroke="currentColor" stroke-width="2" stroke-linecap="round" stroke-linejoin="round"/></svg>