<svg width="30" height="30" fill="none" xmlns="http://www.w3.org/2000/svg"><path d="m15.74 21.823 1.02-.926 1.02-.927 1.244-1.107a79.015 79.015 0 0 0 2.266-2.093c.682-.657 1.298-1.133 1.847-1.43.55-.296 1.236-.29 2.059.019a5.574 5.574 0 0 1 2.128 1.406c.595.63.875 1.287.841 1.97-.033.685-.465 1.502-1.293 2.45a28.872 28.872 0 0 1-2.49 2.539 83.279 83.279 0 0 0-2.27 2.1c-.681.658-1.297 1.135-1.847 1.431-.55.296-1.486.053-2.81-.73-1.325-.783-2.054-1.326-2.187-1.629a.925.925 0 0 1 .05-.884.925.925 0 0 1 .745-.478.925.925 0 0 1 .824.32.93.93 0 0 1 .226.857.925.925 0 0 1-.56.685.925.925 0 0 1-.884-.05.925.925 0 0 1-.479-.745.925.925 0 0 1 .321-.825.925.925 0 0 1 .856-.225c.324.07.954.353 1.89.85.937.495 1.778.487 2.525-.024.747-.511 1.486-1.181 2.218-2.01.732-.828 1.46-1.63 2.186-2.404s1.017-1.293.875-1.558c-.142-.265-.568-.494-1.277-.684-.71-.192-1.435-.03-2.178.486-.743.516-1.483 1.188-2.221 2.017s-1.416 1.583-2.034 2.263a48.105 48.105 0 0 1-1.492 1.586c-.378.378-.676.622-.894.733-.219.112-.45.148-.692.11a1.105 1.105 0 0 1-.623-.318 1.106 1.106 0 0 1-.318-.624l1.409-2.15Z" fill="currentColor" stroke="currentColor" stroke-width="2" stroke-linecap="round" stroke-linejoin="round"/><path d="m20.29 15.175-.188-1.047-.188-1.047-.209-1.268c-.139-.845-.457-1.668-.954-2.468-.498-.801-1.531-1.569-3.102-2.303a33.826 33.826 0 0 0-4.758-1.81 163.883 163.883 0 0 0-5.539-1.515c-2.09-.537-3.153-.85-3.19-.94a.435.435 0 0 1-.021-.274.435.435 0 0 1 .144-.235c.074-.062.156.126.245.567.09.44.317 1.527.683 3.26.365 1.732.737 3.406 1.117 5.022.38 1.617.733 3.106 1.058 4.467.324 1.362.67 2.39 1.035 3.087.365.697.98 1.165 1.846 1.403.865.24 1.715.437 2.55.593.836.157 1.662.232 2.48.224.816-.007 1.626-.25 2.429-.731.802-.481 1.685-1.194 2.648-2.14.963-.944 1.591-1.464 1.886-1.557a.864.864 0 0 1 .815.135c.249.184.372.43.37.739a.864.864 0 0 1-.38.733.864.864 0 0 1-.817.124.863.863 0 0 1-.58-.589.864.864 0 0 1 .135-.815.863.863 0 0 1 .739-.37c.309.003.553.13.733.38.18.252.221.524.123.818-.097.293-.628.923-1.593 1.889a63.542 63.542 0 0 1-2.27 2.188c-.547.492-1.236.807-2.066.944a7.79 7.79 0 0 1-2.486.01 33.423 33.423 0 0 1-2.515-.496c-.849-.2-1.768-.561-2.757-1.081-.988-.52-1.692-1.185-2.11-1.993-.418-.808-.792-1.898-1.121-3.268-.33-1.37-.685-2.867-1.067-4.49a41.474 41.474 0 0 1-.843-4.832c-.18-1.596-.285-2.592-.313-2.986-.028-.394-.06-.636-.097-.726a.435.435 0 0 1-.021-.274.435.435 0 0 1 .144-.235c.074-.062 1.163.146 3.268.625 2.105.479 3.98.88 5.626 1.202 1.646.321 3.18.608 4.604.86 1.424.25 2.59.76 3.501 1.526.91.767 1.527 1.566 1.848 2.396.321.83.58 1.662.777 2.496.197.833.372 1.597.524 2.289.152.692.269 1.241.35 1.645.08.405.107.73.078.978-.03.247-.128.462-.297.645-.17.183-.376.3-.62.348-.244.05-.48.022-.706-.082l-.947-2.021Z" fill="currentColor" stroke="currentColor" stroke-width="2" stroke-linecap="round" stroke-linejoin="round"/><path d="m5.663 3.985.993 1.116.993 1.116L9.753 8.47c1.402 1.502 2.14 2.368 2.214 2.597a.67.67 0 0 1-.1.635.673.673 0 0 1-.574.293.673.673 0 0 1-.573-.293.672.672 0 0 1-.101-.635.673.673 0 0 1 .455-.455.672.672 0 0 1 .636.1.673.673 0 0 1 .292.574c0 .24-.098.432-.292.573a.672.672 0 0 1-.636.1c-.229-.073-1.094-.812-2.596-2.214a212.487 212.487 0 0 0-3.37-3.096A42.923 42.923 0 0 1 3.38 5.042c-.409-.41-.669-.722-.779-.939a1.096 1.096 0 0 1-.109-.685 1.1 1.1 0 0 1 .316-.619c.172-.172.378-.277.618-.315l2.238 1.501Z" fill="currentColor" stroke="currentColor" stroke-width="2" stroke-linecap="round" stroke-linejoin="round"/><path d="m17.238 14.794-.21.477-.21.476s-.12.14-.356.422c-.237.28-.516.522-.838.726-.321.204-.72.34-1.195.408-.476.068-1.075-.009-1.799-.23a3.377 3.377 0 0 1-1.764-1.244 3.472 3.472 0 0 1-.694-2.079c-.01-.777.208-1.48.655-2.107a3.597 3.597 0 0 1 1.723-1.326c.701-.257 1.46-.17 2.277.264a53.02 53.02 0 0 1 1.824 1c.399.233.621.58.666 1.04.046.46-.104.844-.45 1.15a1.291 1.291 0 0 1-1.195.313 1.291 1.291 0 0 1-.956-.784 1.291 1.291 0 0 1 .073-1.233c.234-.4.58-.621 1.04-.667.46-.045.844.105 1.151.45.307.346.411.745.312 1.196a1.29 1.29 0 0 1-.783.955c-.424.186-1.062.114-1.916-.216-.853-.33-1.211-.294-1.074.107.137.401.37.574.7.52.33-.055.537-.216.621-.485.084-.269.19-.52.315-.752a1.2 1.2 0 0 1 .546-.52 1.19 1.19 0 0 1 .748-.099c.26.048.48.168.663.359l.126 1.879Z" fill="currentColor" stroke="currentColor" stroke-width="2" stroke-linecap="round" stroke-linejoin="round"/></svg>