<svg width="30" height="30" fill="none" xmlns="http://www.w3.org/2000/svg"><path d="m20.285 11.159-2.114 1.779-2.114 1.779-4.046 3.993c-2.697 2.662-4.113 4.015-4.248 4.06a.396.396 0 0 1-.374-.06.396.396 0 0 1-.172-.338c0-.142.057-.255.172-.338a.397.397 0 0 1 .374-.06.396.396 0 0 1 .268.269.396.396 0 0 1-.059.375.396.396 0 0 1-.338.172.396.396 0 0 1-.338-.172.396.396 0 0 1-.059-.375c.044-.135 1.397-1.551 4.06-4.248 2.662-2.697 4.586-4.75 5.772-6.16 1.186-1.41 2.156-2.491 2.91-3.246.755-.755 1.226-1.18 1.413-1.275a.944.944 0 0 1 .59-.093.944.944 0 0 1 .532.271.944.944 0 0 1 .272.532l-2.5 3.135Zm-8.073-1.734-.253.557-.252.557-.42.488c-.281.325-.668.604-1.162.837-.494.233-1.18.353-2.059.358a3.918 3.918 0 0 1-2.38-.759A3.954 3.954 0 0 1 4.215 9.43a4.02 4.02 0 0 1 0-2.54 3.975 3.975 0 0 1 1.492-2.053 4.158 4.158 0 0 1 2.386-.808c.871-.02 1.648.23 2.332.75.684.52 1.176.95 1.475 1.285.299.337.4.725.304 1.164-.097.44-.35.75-.763.93-.412.18-.813.157-1.2-.07a1.257 1.257 0 0 1-.65-1.013 1.257 1.257 0 0 1 .439-1.12c.336-.3.724-.4 1.163-.304.44.096.75.35.93.762.18.413.157.813-.07 1.201a1.257 1.257 0 0 1-1.013.649c-.448.044-.97-.186-1.566-.69-.596-.503-1.164-.662-1.704-.477-.54.186-.81.562-.812 1.13-.001.568.282.942.851 1.123.569.182 1.033.162 1.392-.058.36-.22.584-.496.672-.828a3.81 3.81 0 0 1 .318-.84c.124-.227.303-.396.537-.507.234-.111.479-.143.733-.095.255.048.47.166.649.354l.103 2.05Zm13.75 13.75-.253.557-.252.557-.42.488c-.281.325-.668.604-1.162.837-.494.233-1.18.353-2.059.358a3.918 3.918 0 0 1-2.38-.759 3.955 3.955 0 0 1-1.472-2.033 4.02 4.02 0 0 1 0-2.54 3.975 3.975 0 0 1 1.492-2.053 4.158 4.158 0 0 1 2.386-.808c.871-.02 1.649.23 2.332.75.684.52 1.176.95 1.475 1.285.299.337.4.725.304 1.164-.097.44-.35.75-.763.93-.412.18-.813.157-1.2-.07a1.257 1.257 0 0 1-.65-1.013 1.257 1.257 0 0 1 .439-1.12c.336-.3.724-.4 1.163-.304.44.096.75.35.93.762.18.413.157.813-.07 1.201a1.257 1.257 0 0 1-1.013.649c-.448.044-.97-.186-1.566-.69-.596-.503-1.164-.662-1.704-.477-.54.186-.81.562-.812 1.13-.001.568.282.942.851 1.123.569.182 1.033.162 1.393-.058.359-.22.583-.496.67-.828.089-.332.195-.612.319-.84.124-.227.303-.396.537-.507.234-.111.479-.143.733-.095.255.048.47.166.649.354l.103 2.05Z" fill="currentColor" stroke="currentColor" stroke-width="2" stroke-linecap="round" stroke-linejoin="round"/></svg>