<svg width="30" height="30" fill="none" xmlns="http://www.w3.org/2000/svg"><g clip-path="url(#a)"><path d="M20.416 4.988a10790.96 10790.96 0 0 0 1.543.676l.765.628c.51.418 1.06 1.143 1.65 2.173.589 1.03.824 1.68.706 1.95a1.324 1.324 0 0 1-.558.625 1.325 1.325 0 0 1-.82.179c-.293-.03-.579-.373-.857-1.031-.279-.658-.811-2.059-1.598-4.202-.787-2.144-.99-3.463-.612-3.957.38-.495 1.034-.653 1.965-.473.931.18 1.837.573 2.717 1.183.88.61 1.659 1.341 2.335 2.196.676.855 1.146 2.048 1.41 3.577.264 1.53.236 3.569-.083 6.117-.319 2.55-.495 4.243-.527 5.08a30.337 30.337 0 0 0 0 2.45c.033.794.051 1.534.056 2.219a3.951 3.951 0 0 1-.439 1.88c-.297.57-.781 1.004-1.453 1.305-.672.3-1.49.418-2.455.353-.965-.065-1.816-.2-2.553-.402a27.55 27.55 0 0 1-4.42-1.636 28.284 28.284 0 0 1-2.112-1.104 29.969 29.969 0 0 1-1.958-1.232 26.048 26.048 0 0 1-1.795-1.347 25.306 25.306 0 0 1-3.176-3.111 24.818 24.818 0 0 1-2.63-3.716 26.55 26.55 0 0 1-2.017-4.33 26 26 0 0 1-.71-2.298c-.2-.777-.365-1.54-.494-2.29a10.42 10.42 0 0 1-.162-2.073c.02-.631.22-1.236.602-1.814.382-.578.926-1.013 1.633-1.307C5.078.963 5.873.795 6.757.754a18.248 18.248 0 0 1 2.322.02 5.201 5.201 0 0 1 1.965.58 3.942 3.942 0 0 1 1.552 1.42c.389.613.662 1.245.82 1.895.156.65.316 1.304.476 1.961.161.657.239 1.351.233 2.082a4.307 4.307 0 0 1-.547 2.074 24.738 24.738 0 0 0-.859 1.686c-.214.472-.044.92.51 1.346.553.425 1.048.88 1.486 1.364.438.485.906.946 1.404 1.382.499.436.993.736 1.481.898.489.163.949.015 1.38-.443.432-.458.988-.767 1.67-.927a4.777 4.777 0 0 1 2.014-.05c.662.127 1.325.272 1.987.437.663.165 1.474.602 2.434 1.311.96.709 1.587 1.257 1.878 1.644.292.387.367.813.226 1.276a1.355 1.355 0 0 1-.9.933 1.354 1.354 0 0 1-1.284-.18c-.397-.278-.6-.66-.608-1.145a1.35 1.35 0 0 1 .568-1.164 1.355 1.355 0 0 1 1.276-.226c.463.142.774.442.932.9.158.459.098.887-.18 1.284s-.66.6-1.144.608c-.485.009-.973-.268-1.466-.832a4.126 4.126 0 0 0-1.812-1.21 15.123 15.123 0 0 0-2.219-.567c-.765-.136-1.442-.053-2.032.248a6.211 6.211 0 0 1-1.953.605 3.564 3.564 0 0 1-2.076-.323 10.421 10.421 0 0 1-1.909-1.173 23.646 23.646 0 0 1-3.281-3.074 9.042 9.042 0 0 1-1.218-1.754 2.846 2.846 0 0 1-.278-1.946 9.124 9.124 0 0 1 .699-2.071 4.073 4.073 0 0 0 .383-2.162 9.12 9.12 0 0 0-.492-2.192c-.256-.718-.67-1.179-1.24-1.383-.571-.203-1.282-.303-2.133-.3-.85.005-1.477.236-1.88.695-.402.459-.582 1.037-.538 1.735.043.697.158 1.403.345 2.118A23.363 23.363 0 0 0 6.26 12.28c.316.664.66 1.31 1.033 1.937.373.627.76 1.223 1.16 1.788a23.304 23.304 0 0 0 4.151 4.492 22.955 22.955 0 0 0 5.402 3.342c.67.296 1.348.558 2.035.786.688.229 1.602.46 2.741.693 1.14.233 2.065.247 2.776.043.71-.205 1.167-.598 1.37-1.18.201-.583.333-1.272.394-2.066.061-.795.117-1.614.167-2.458.05-.843.079-2.441.086-4.793.006-2.351-.119-4.193-.376-5.523-.256-1.33-.633-2.375-1.13-3.132a11.035 11.035 0 0 0-1.749-2.062c-.668-.617-1.353-1.092-2.054-1.424-.702-.333-1.13-.414-1.284-.244-.154.17.333 1.174 1.46 3.013a324.853 324.853 0 0 0 2.254 3.638c.374.587.501 1.015.383 1.284-.118.27-.304.478-.558.626a1.325 1.325 0 0 1-.82.179c-.293-.03-.869-.589-1.727-1.679-.859-1.09-1.456-1.732-1.791-1.928a4.77 4.77 0 0 0-.936-.433 2.67 2.67 0 0 1-.74-.358 1.134 1.134 0 0 1-.427-.577 1.134 1.134 0 0 1-.006-.718c.075-.24.214-.435.417-.585l1.924.047Z" fill="currentColor"/><path d="M24.521 11.04c.255-.148.44-.357.56-.626.117-.27-.118-.919-.707-1.95-.59-1.03-1.14-1.754-1.65-2.172l-.765-.628-.772-.338-.771-.338-1.924-.047c-.203.15-.342.345-.417.585a1.13 1.13 0 0 0 .006.718c.08.238.222.43.427.577.205.146.451.265.74.358.288.093.6.237.936.433.335.196.932.839 1.79 1.928.86 1.09 1.435 1.65 1.728 1.679.292.03.565-.03.82-.179Zm0 0a1.325 1.325 0 0 1-.82.179c-.292-.03-.578-.373-.856-1.031-.279-.658-.811-2.059-1.598-4.202-.787-2.144-.99-3.463-.612-3.957.38-.495 1.034-.653 1.965-.473.931.18 1.837.573 2.717 1.183.88.61 1.659 1.341 2.335 2.196.676.855 1.146 2.048 1.41 3.577.264 1.53.236 3.569-.083 6.117-.319 2.55-.495 4.243-.527 5.08a30.337 30.337 0 0 0 0 2.45c.033.794.051 1.534.056 2.219a3.951 3.951 0 0 1-.439 1.88c-.297.57-.781 1.004-1.453 1.305-.672.3-1.49.418-2.455.353-.965-.065-1.816-.2-2.553-.402a27.55 27.55 0 0 1-4.42-1.636 28.284 28.284 0 0 1-2.112-1.104 29.969 29.969 0 0 1-1.958-1.232 26.048 26.048 0 0 1-1.795-1.347 25.306 25.306 0 0 1-3.176-3.111 24.818 24.818 0 0 1-2.63-3.716 26.55 26.55 0 0 1-2.017-4.33 26 26 0 0 1-.71-2.298c-.2-.777-.365-1.54-.494-2.29a10.42 10.42 0 0 1-.162-2.073c.02-.631.22-1.236.602-1.814.382-.578.926-1.013 1.633-1.307C5.078.963 5.873.795 6.757.754a18.248 18.248 0 0 1 2.322.02 5.201 5.201 0 0 1 1.965.58 3.942 3.942 0 0 1 1.552 1.42c.389.613.662 1.245.82 1.895.156.65.316 1.304.476 1.961.161.657.239 1.351.233 2.082a4.307 4.307 0 0 1-.547 2.074 24.738 24.738 0 0 0-.859 1.686c-.214.472-.044.92.51 1.346.553.425 1.048.88 1.486 1.364.438.485.906.946 1.404 1.382.499.436.993.736 1.481.898.489.163.949.015 1.38-.443.432-.458.988-.767 1.67-.927a4.777 4.777 0 0 1 2.014-.05c.662.127 1.325.272 1.987.437.663.165 1.474.602 2.434 1.311.96.709 1.587 1.257 1.878 1.644.292.387.367.813.226 1.276a1.355 1.355 0 0 1-.9.933 1.354 1.354 0 0 1-1.284-.18c-.397-.278-.6-.66-.608-1.145a1.35 1.35 0 0 1 .568-1.164 1.355 1.355 0 0 1 1.276-.226c.463.142.774.442.932.9.158.459.098.887-.18 1.284s-.66.6-1.144.608c-.485.009-.973-.268-1.466-.832a4.126 4.126 0 0 0-1.812-1.21 15.123 15.123 0 0 0-2.219-.567c-.765-.136-1.442-.053-2.032.248a6.211 6.211 0 0 1-1.953.605 3.564 3.564 0 0 1-2.076-.323 10.421 10.421 0 0 1-1.909-1.173 23.646 23.646 0 0 1-3.281-3.074 9.042 9.042 0 0 1-1.218-1.754 2.846 2.846 0 0 1-.278-1.946 9.124 9.124 0 0 1 .699-2.071 4.073 4.073 0 0 0 .383-2.162 9.12 9.12 0 0 0-.492-2.192c-.256-.718-.67-1.179-1.24-1.383-.571-.203-1.282-.303-2.133-.3-.85.005-1.477.236-1.88.695-.402.459-.582 1.037-.538 1.735.043.697.158 1.403.345 2.118A23.363 23.363 0 0 0 6.26 12.28c.316.664.66 1.31 1.033 1.937.373.627.76 1.223 1.16 1.788a23.304 23.304 0 0 0 4.151 4.492 22.955 22.955 0 0 0 5.402 3.342c.67.296 1.348.558 2.035.786.688.229 1.602.46 2.741.693 1.14.233 2.065.247 2.776.043.71-.205 1.167-.598 1.37-1.18.201-.583.333-1.272.394-2.066.061-.795.117-1.614.167-2.458.05-.843.079-2.441.086-4.793.006-2.351-.119-4.193-.376-5.523-.256-1.33-.633-2.375-1.13-3.132a11.035 11.035 0 0 0-1.749-2.062c-.668-.617-1.353-1.092-2.054-1.424-.702-.333-1.13-.414-1.284-.244-.154.17.333 1.174 1.46 3.013a324.853 324.853 0 0 0 2.254 3.638c.374.587.501 1.015.383 1.284-.118.27-.304.478-.558.626Z" stroke="currentColor" stroke-width="2" stroke-linecap="round" stroke-linejoin="round"/></g><defs><clipPath id="a"><path fill="#fff" d="M0 0h30v30H0z"/></clipPath></defs></svg>