<svg width="30" height="30" fill="none" xmlns="http://www.w3.org/2000/svg"><g clip-path="url(#a)" fill="currentColor" stroke="currentColor" stroke-width="2" stroke-linecap="round" stroke-linejoin="round"><path d="M14.537 16.482a10246.077 10246.077 0 0 0 .76.596l.504.351c.336.234.753.4 1.252.5.5.098.98-.118 1.445-.648.464-.53 1.06-.836 1.788-.92a6.14 6.14 0 0 1 2.159.13c.71.172 1.393.34 2.046.506a8.066 8.066 0 0 1 1.93.773c.635.351 1.14.862 1.517 1.533a5.34 5.34 0 0 1 .665 2.193c.067.79.09 1.513.07 2.167-.02.654-.09 1.29-.21 1.906a4.175 4.175 0 0 1-.784 1.724c-.401.533-.96.924-1.678 1.172-.718.25-1.586.319-2.605.208-1.02-.111-1.898-.285-2.636-.521a32.502 32.502 0 0 1-2.22-.802 30.864 30.864 0 0 1-2.194-.984 35.979 35.979 0 0 1-2.15-1.16 60.988 60.988 0 0 1-2.147-1.314 12.138 12.138 0 0 1-2.124-1.763c-.699-.715-1.488-1.731-2.369-3.047A464.405 464.405 0 0 0 5.41 15.9a26.439 26.439 0 0 1-1.423-2.318 22.233 22.233 0 0 1-1.834-4.496 22.858 22.858 0 0 1-.535-2.3A9.395 9.395 0 0 1 1.473 4.6c.04-.69.27-1.304.69-1.84.419-.536.977-.928 1.673-1.177a7.446 7.446 0 0 1 2.25-.418 19.364 19.364 0 0 1 2.2.035 5.15 5.15 0 0 1 1.958.571c.642.33 1.157.8 1.546 1.41.388.611.661 1.24.82 1.89l.48 1.959c.162.657.24 1.35.235 2.08-.005.729-.35 1.585-1.034 2.567-.684.982-1.254 1.573-1.71 1.774a1.39 1.39 0 0 1-1.328-.075 1.39 1.39 0 0 1-.72-1.12 1.39 1.39 0 0 1 .483-1.24 1.39 1.39 0 0 1 1.286-.338c.487.106.83.386 1.03.842.2.455.176.898-.075 1.328-.25.43-.624.67-1.119.72a1.39 1.39 0 0 1-1.24-.482 1.39 1.39 0 0 1-.339-1.287c.106-.486.388-1.092.847-1.817.458-.725.639-1.447.541-2.165a10.73 10.73 0 0 0-.534-2.162c-.258-.723-.673-1.189-1.246-1.397-.573-.208-1.3-.306-2.185-.294-.883.013-1.527.251-1.93.715-.403.465-.585 1.047-.546 1.748.039.701.144 1.413.317 2.135.173.723.379 1.44.618 2.152.239.711.52 1.425.842 2.142.323.717.73 1.47 1.22 2.26.492.79 1.26 1.697 2.306 2.722a70.88 70.88 0 0 0 2.601 2.45 28.155 28.155 0 0 0 1.962 1.591c.62.454 1.255.863 1.908 1.227.653.363 1.315.684 1.986.963a20.445 20.445 0 0 0 4.096 1.22c.682.128 1.43.032 2.246-.287.816-.32 1.327-.784 1.534-1.395.208-.61.183-1.256-.074-1.935a2.545 2.545 0 0 0-1.379-1.469 8.778 8.778 0 0 0-2.116-.648c-.749-.132-1.396-.053-1.941.236a9.226 9.226 0 0 1-1.821.717c-.67.19-1.339.13-2.009-.175-.67-.306-1.193-.605-1.57-.896-.377-.29-.697-.556-.963-.797-.265-.241-.526-.482-.785-.722-.258-.24-.45-.47-.572-.691a1.137 1.137 0 0 1-.14-.706c.031-.25.132-.468.303-.653.172-.185.381-.302.629-.35l1.833.965Z"/><path d="m23.012 8.216-3.2 2.92-3.198 2.918-6.316 6.317c-4.211 4.21-6.384 6.338-6.52 6.382a.396.396 0 0 1-.374-.06.396.396 0 0 1-.172-.337c0-.142.057-.255.172-.338a.396.396 0 0 1 .375-.06.396.396 0 0 1 .268.269.396.396 0 0 1-.06.374.396.396 0 0 1-.337.172.396.396 0 0 1-.338-.172.396.396 0 0 1-.06-.374c.044-.135 2.172-2.308 6.383-6.52 4.21-4.21 7.29-7.382 9.235-9.514 1.946-2.133 3.512-3.792 4.698-4.978 1.186-1.186 1.858-1.82 2.017-1.9a.802.802 0 0 1 .502-.08.802.802 0 0 1 .453.23.802.802 0 0 1 .23.454l-3.758 4.297Z"/></g><defs><clipPath id="a"><path fill="#fff" d="M0 0h30v30H0z"/></clipPath></defs></svg>