<svg width="30" height="30" fill="none" xmlns="http://www.w3.org/2000/svg"><g clip-path="url(#a)" fill="currentColor" stroke="currentColor" stroke-width="2" stroke-linecap="round" stroke-linejoin="round"><path d="m26.766 7.818-.002-.834-.003-.834.014-1.008c.009-.671-.11-1.253-.359-1.746-.248-.492-1.065-.762-2.45-.81-1.387-.048-2.244-.157-2.573-.328a1.038 1.038 0 0 1-.576-.806c-.055-.367.05-.68.314-.94.264-.26.579-.36.945-.298.365.06.63.257.796.589.166.331.163.661-.008.99-.17.329-.44.52-.806.576-.366.055-.68-.05-.94-.314a1.035 1.035 0 0 1-.298-.944c.061-.366.257-.631.589-.797.331-.166 1.077-.251 2.236-.256 1.16-.006 2.074.013 2.742.055.668.042 1.245.38 1.73 1.017.485.635.783 1.295.892 1.98.109.683.168 1.36.177 2.032.009.672.013 1.286.01 1.842l-.002 1.32c0 .323-.038.603-.116.841-.077.238-.217.43-.42.578-.201.147-.428.22-.678.22-.25 0-.476-.073-.678-.22l-.536-1.905Z"/><path d="m21.278 7.03 1.02-.926 1.02-.927 2.071-1.949c1.38-1.299 2.198-1.99 2.454-2.073a.75.75 0 0 1 .708.112.75.75 0 0 1 .325.64.75.75 0 0 1-.325.638.75.75 0 0 1-.708.112.75.75 0 0 1-.507-.507.75.75 0 0 1 .112-.708.75.75 0 0 1 .639-.325.75.75 0 0 1 .638.325.75.75 0 0 1 .112.708c-.082.255-.773 1.073-2.073 2.453a263.008 263.008 0 0 0-2.875 3.091 47.883 47.883 0 0 1-1.493 1.586c-.377.378-.675.622-.893.733a1.105 1.105 0 0 1-.692.11 1.106 1.106 0 0 1-.623-.318 1.106 1.106 0 0 1-.318-.624l1.408-2.15Zm7.182 14.938.032.793.032.793-.01.623c-.006.415-.076.955-.21 1.62a3.674 3.674 0 0 1-.82 1.716c-.415.479-.963.82-1.645 1.024-.682.205-1.484.248-2.405.13-.92-.118-1.75-.29-2.488-.514a30.76 30.76 0 0 1-4.416-1.737 29.89 29.89 0 0 1-2.106-1.133 31.276 31.276 0 0 1-1.954-1.25 27.42 27.42 0 0 1-1.79-1.36 25.782 25.782 0 0 1-3.169-3.126 25.028 25.028 0 0 1-2.624-3.723 26.659 26.659 0 0 1-2.015-4.333 26.047 26.047 0 0 1-.707-2.297 28.218 28.218 0 0 1-.494-2.291A10.392 10.392 0 0 1 1.51 4.83c.02-.632.22-1.237.602-1.815.382-.578.927-1.014 1.634-1.307.708-.294 1.503-.462 2.387-.503a18.253 18.253 0 0 1 2.322.02 5.21 5.21 0 0 1 1.965.58 3.943 3.943 0 0 1 1.552 1.42 6.3 6.3 0 0 1 .82 1.896c.157.65.316 1.304.477 1.96a8.49 8.49 0 0 1 .232 2.083 4.309 4.309 0 0 1-.547 2.074 24.738 24.738 0 0 0-.859 1.686c-.214.472-.044.92.51 1.346.553.424 1.048.88 1.486 1.364.438.485.906.945 1.405 1.382.498.436.992.735 1.48.898.49.163.95.015 1.38-.443.432-.458.988-.768 1.67-.928a4.779 4.779 0 0 1 2.015-.05 37.16 37.16 0 0 1 1.986.438c.663.165 1.474.602 2.435 1.31.96.71 1.586 1.258 1.878 1.645.291.387.366.812.225 1.276a1.354 1.354 0 0 1-.9.933 1.354 1.354 0 0 1-1.284-.18c-.397-.279-.6-.66-.608-1.145-.009-.485.18-.873.568-1.165a1.354 1.354 0 0 1 1.276-.225c.464.142.774.442.932.9.158.458.098.886-.18 1.283-.278.398-.66.6-1.144.61-.485.008-.973-.27-1.466-.833a4.126 4.126 0 0 0-1.811-1.21 15.123 15.123 0 0 0-2.22-.567c-.764-.136-1.442-.053-2.032.248a6.214 6.214 0 0 1-1.953.605 3.564 3.564 0 0 1-2.076-.324 10.434 10.434 0 0 1-1.909-1.172 23.666 23.666 0 0 1-3.281-3.074 9.042 9.042 0 0 1-1.218-1.754 2.846 2.846 0 0 1-.278-1.946 9.125 9.125 0 0 1 .699-2.072 4.073 4.073 0 0 0 .383-2.161A9.12 9.12 0 0 0 9.57 5.72c-.256-.718-.67-1.179-1.24-1.382-.571-.204-1.282-.304-2.132-.3-.85.004-1.477.236-1.88.694-.402.459-.581 1.037-.537 1.734.043.698.159 1.404.346 2.118a23.315 23.315 0 0 0 1.514 4.144c.317.664.662 1.309 1.035 1.935.374.626.76 1.222 1.162 1.785A22.976 22.976 0 0 0 12 20.923a22.355 22.355 0 0 0 3.46 2.334c.634.347 1.286.662 1.957.947a21.6 21.6 0 0 0 4.094 1.27 23.13 23.13 0 0 0 2.025.32c.668.074 1.199-.09 1.592-.496s.632-.798.715-1.177c.084-.378.136-.832.157-1.36.022-.528.033-.916.033-1.163 0-.248.038-.49.115-.728.078-.238.218-.43.42-.577.202-.147.428-.22.678-.22.25 0 .477.073.679.22l.535 1.675Z"/></g><defs><clipPath id="a"><path fill="#fff" d="M0 0h30v30H0z"/></clipPath></defs></svg>