<svg width="30" height="30" fill="none" xmlns="http://www.w3.org/2000/svg"><g clip-path="url(#a)" fill="currentColor" stroke="currentColor" stroke-width="2" stroke-linecap="round" stroke-linejoin="round"><path d="M25.753 1.52a6003.503 6003.503 0 0 0 1.12 1.103l.78.86c.518.572.995 1.309 1.43 2.209.436.9.434 1.734-.005 2.501-.44.767-1.043 1.532-1.812 2.296-.768.763-1.33 1.21-1.686 1.343a1.06 1.06 0 0 1-1.007-.115 1.06 1.06 0 0 1-.499-.883 1.06 1.06 0 0 1 .421-.922 1.06 1.06 0 0 1 .994-.202c.366.102.615.33.747.686a1.06 1.06 0 0 1-.115 1.007 1.06 1.06 0 0 1-.883.499 1.06 1.06 0 0 1-.922-.421 1.06 1.06 0 0 1-.202-.994c.101-.365.667-1.018 1.697-1.959 1.03-.94 1.422-1.65 1.177-2.13-.244-.479-.613-.939-1.108-1.38-.494-.44-.925-.847-1.293-1.22-.368-.375-.66-.67-.875-.885a2.634 2.634 0 0 1-.494-.658 1.127 1.127 0 0 1-.112-.705c.04-.247.147-.459.324-.636.177-.176.39-.284.636-.324l1.687.93Z"/><path d="M21.087 5.043a74971.066 74971.066 0 0 0 2.225.053l2.297.046c1.531.03 2.44.119 2.726.265a.898.898 0 0 1 .506.695.898.898 0 0 1-.266.817.898.898 0 0 1-.817.266.898.898 0 0 1-.696-.505.898.898 0 0 1 0-.86.898.898 0 0 1 .696-.505c.317-.05.59.038.817.266a.9.9 0 0 1 .266.817.898.898 0 0 1-.506.695c-.286.146-1.195.235-2.726.265-1.531.03-2.668.055-3.41.072-.74.018-1.327.027-1.759.027-.43 0-.765-.038-1.001-.115a1.12 1.12 0 0 1-.574-.417 1.12 1.12 0 0 1-.22-.675c0-.249.074-.474.22-.675l2.222-.532Zm7.373 16.925.032.793.032.793-.01.623c-.006.415-.076.955-.21 1.62a3.674 3.674 0 0 1-.82 1.716c-.415.479-.963.82-1.645 1.024-.682.205-1.484.248-2.405.13-.92-.118-1.75-.29-2.488-.514a30.778 30.778 0 0 1-4.416-1.737 31.247 31.247 0 0 1-4.06-2.384 26.395 26.395 0 0 1-1.79-1.36 25.78 25.78 0 0 1-3.169-3.125 25.028 25.028 0 0 1-2.624-3.723 26.655 26.655 0 0 1-2.015-4.333 26.044 26.044 0 0 1-.707-2.297 28.218 28.218 0 0 1-.494-2.291A10.392 10.392 0 0 1 1.51 4.83c.02-.632.22-1.237.602-1.815.382-.578.927-1.014 1.634-1.307.708-.294 1.503-.462 2.387-.503a18.253 18.253 0 0 1 2.322.02 5.21 5.21 0 0 1 1.965.58 3.943 3.943 0 0 1 1.552 1.42 6.3 6.3 0 0 1 .82 1.896c.157.65.316 1.304.477 1.96a8.49 8.49 0 0 1 .232 2.083 4.307 4.307 0 0 1-.547 2.074 24.738 24.738 0 0 0-.859 1.686c-.214.472-.044.92.51 1.346.553.424 1.048.88 1.486 1.364.438.485.906.945 1.405 1.382.498.436.992.735 1.48.898.49.163.95.015 1.38-.443.432-.458.988-.768 1.67-.928a4.779 4.779 0 0 1 2.015-.05 37.16 37.16 0 0 1 1.986.438c.663.165 1.474.602 2.435 1.31.96.71 1.586 1.258 1.878 1.645.291.387.366.812.225 1.276a1.355 1.355 0 0 1-.9.933 1.354 1.354 0 0 1-1.284-.18c-.397-.279-.6-.66-.608-1.145-.009-.485.18-.873.568-1.165a1.354 1.354 0 0 1 1.276-.225c.464.142.774.442.932.9.158.458.098.886-.18 1.283-.278.398-.66.6-1.144.61-.485.008-.973-.27-1.466-.833a4.126 4.126 0 0 0-1.811-1.21 15.12 15.12 0 0 0-2.22-.567c-.764-.136-1.442-.053-2.032.248a6.214 6.214 0 0 1-1.953.605 3.564 3.564 0 0 1-2.076-.324 10.434 10.434 0 0 1-1.909-1.172 23.645 23.645 0 0 1-3.281-3.074 9.046 9.046 0 0 1-1.218-1.754 2.846 2.846 0 0 1-.278-1.946 9.125 9.125 0 0 1 .699-2.072 4.073 4.073 0 0 0 .383-2.161A9.12 9.12 0 0 0 9.57 5.72c-.256-.718-.67-1.179-1.24-1.382-.571-.204-1.282-.304-2.132-.3-.85.004-1.477.236-1.88.694-.402.459-.581 1.037-.537 1.734.043.698.159 1.404.346 2.118a23.315 23.315 0 0 0 1.514 4.144c.317.664.662 1.309 1.035 1.935.374.626.76 1.222 1.162 1.785A22.98 22.98 0 0 0 12 20.923a22.355 22.355 0 0 0 3.46 2.334c.634.347 1.286.662 1.957.947a21.6 21.6 0 0 0 4.094 1.27 23.13 23.13 0 0 0 2.025.32c.668.074 1.199-.09 1.592-.496s.632-.798.715-1.177c.084-.378.136-.832.157-1.36.022-.528.033-.916.033-1.163 0-.248.038-.49.115-.728.078-.238.218-.43.42-.577.202-.147.428-.22.678-.22.25 0 .477.073.679.22l.535 1.675Z"/></g><defs><clipPath id="a"><path fill="#fff" d="M0 0h30v30H0z"/></clipPath></defs></svg>