<svg width="30" height="30" fill="none" xmlns="http://www.w3.org/2000/svg"><g clip-path="url(#a)" fill="currentColor" stroke="currentColor" stroke-width="2" stroke-linecap="round" stroke-linejoin="round"><path d="m27.182 21.114-.311.544-.312.544-.497.654c-.332.435-.813.966-1.444 1.593a13.468 13.468 0 0 1-4.423 2.921 13.566 13.566 0 0 1-5.228 1 13.689 13.689 0 0 1-7.576-2.355 13.718 13.718 0 0 1-3.756-3.793 13.72 13.72 0 0 1-2.03-4.937 13.723 13.723 0 0 1 .001-5.339A13.74 13.74 0 0 1 3.638 7.01c.496-.75 1.295-1.616 2.396-2.602C7.135 3.422 7.89 2.862 8.298 2.73a1.2 1.2 0 0 1 1.134.18 1.2 1.2 0 0 1 .52 1.023c0 .43-.173.77-.52 1.022a1.2 1.2 0 0 1-1.134.18 1.2 1.2 0 0 1-.812-.812 1.2 1.2 0 0 1 .18-1.134 1.2 1.2 0 0 1 1.023-.52c.43 0 .77.173 1.023.52a1.2 1.2 0 0 1 .179 1.134c-.133.409-.706 1.052-1.72 1.931-1.013.88-1.721 1.614-2.123 2.206a10.943 10.943 0 0 0-1.895 6.035 10.93 10.93 0 0 0 .775 4.18 10.96 10.96 0 0 0 2.305 3.573 10.993 10.993 0 0 0 5.523 3.1 11.043 11.043 0 0 0 4.26.11 11.153 11.153 0 0 0 4.003-1.504c.614-.378 1.188-.81 1.722-1.299.534-.488.947-.904 1.238-1.25.291-.345.534-.664.729-.957a9.59 9.59 0 0 0 .562-.976c.18-.357.36-.625.537-.804.178-.179.391-.288.64-.328.25-.04.486-.003.711.111.225.114.395.283.51.508l-.486 2.155Z"/><path d="m26.138 13.765-.234-.941-.234-.94-.529-1.195a11.397 11.397 0 0 0-1.308-2.231A11.19 11.19 0 0 0 19.92 5.18a34.025 34.025 0 0 0-2.14-.99c-.659-.276-1.053-.423-1.183-.444-.13-.02-.231.483-.302 1.511a212.199 212.199 0 0 1-.247 3.21c-.094 1.113-.043 2.122.153 3.028.196.906.776 1.535 1.742 1.888.965.353 2.4.556 4.305.609 1.905.053 2.966.135 3.181.247a.678.678 0 0 1 .378.528.679.679 0 0 1-.206.617.679.679 0 0 1-.619.195.678.678 0 0 1-.522-.386.678.678 0 0 1 .005-.65.678.678 0 0 1 .529-.377.679.679 0 0 1 .615.206.68.68 0 0 1 .196.62.678.678 0 0 1-.386.521c-.217.109-1.287.18-3.21.215-1.923.034-3.543-.071-4.86-.317-1.316-.245-2.175-.694-2.577-1.348-.402-.653-.628-1.472-.677-2.457-.05-.985-.117-2.04-.203-3.166a26.001 26.001 0 0 1-.002-3.644c.085-1.303.575-2.207 1.47-2.713.894-.505 1.749-.713 2.562-.623.813.09 1.557.274 2.231.55a13.713 13.713 0 0 1 3.702 2.256 13.572 13.572 0 0 1 2.799 3.292c.374.619.695 1.263.964 1.932.269.67.463 1.22.582 1.652a11.14 11.14 0 0 1 .387 2.197c.027.336.054.682.079 1.04.025.357-.005.657-.092.898a1.156 1.156 0 0 1-.449.578 1.157 1.157 0 0 1-.703.205 1.156 1.156 0 0 1-.688-.248l-.595-2.047Z"/></g><defs><clipPath id="a"><path fill="#fff" d="M0 0h30v30H0z"/></clipPath></defs></svg>