<svg width="30" height="30" fill="none" xmlns="http://www.w3.org/2000/svg"><path d="M10.547 4.83a512375.43 512375.43 0 0 0 3.671 2.849s.766.53 2.297 1.594a400.417 400.417 0 0 0 4.294 2.941c1.331.899 2.145 1.783 2.44 2.654.297.871-.293 1.92-1.768 3.143a49.124 49.124 0 0 1-4.554 3.361 377.963 377.963 0 0 1-5.383 3.435c-2.03 1.274-3.09 1.893-3.18 1.858a.435.435 0 0 1-.213-.174.435.435 0 0 1-.07-.266c.005-.097-.026-.382-.093-.857-.067-.474-.203-1.68-.407-3.615-.205-1.935-.314-4.623-.327-8.063-.012-3.44.013-5.224.076-5.351a.396.396 0 0 1 .306-.225c.14-.023.26.015.361.115.101.1.141.22.12.36a.396.396 0 0 1-.221.308.396.396 0 0 1-.38.003.396.396 0 0 1-.224-.306.396.396 0 0 1 .115-.361c.1-.101.22-.141.36-.12.14.022.243.095.308.221s.104 1.906.117 5.34c.013 3.434.035 5.95.067 7.55.032 1.599.074 2.83.124 3.695.05.865.083 1.38.096 1.548.014.167-.024.233-.114.198a.435.435 0 0 1-.214-.174.435.435 0 0 1-.07-.266c.005-.097 1.005-.806 3.001-2.13 1.996-1.322 3.77-2.49 5.324-3.501a54.231 54.231 0 0 0 4.443-3.222c1.409-1.136 1.99-1.974 1.745-2.514-.245-.54-1.02-1.208-2.328-2.006a432.453 432.453 0 0 0-4.365-2.625 96.771 96.771 0 0 0-4.461-2.506C10.068 7 9.005 6.4 8.25 5.915c-.755-.486-1.202-.814-1.343-.986a1 1 0 0 1-.23-.59 1 1 0 0 1 .162-.612 1 1 0 0 1 .49-.401l3.218 1.504Z" fill="currentColor"/><path d="M8.365 26.665c.09.035 1.15-.584 3.179-1.858a377.963 377.963 0 0 0 5.383-3.434 49.124 49.124 0 0 0 4.553-3.362c1.476-1.224 2.066-2.272 1.77-3.143-.296-.87-1.11-1.755-2.44-2.654a400.417 400.417 0 0 1-4.295-2.941l-2.297-1.594-1.835-1.425-1.836-1.424L7.33 3.326a1 1 0 0 0-.49.4 1 1 0 0 0-.161.613 1 1 0 0 0 .23.59c.14.172.587.5 1.342.986.755.485 1.818 1.087 3.19 1.806a96.771 96.771 0 0 1 4.461 2.506c1.603.952 3.058 1.827 4.365 2.625 1.307.798 2.083 1.466 2.328 2.006.245.54-.337 1.378-1.745 2.514a54.231 54.231 0 0 1-4.443 3.222 814.873 814.873 0 0 0-5.324 3.502c-1.996 1.323-2.996 2.032-3.001 2.129m.284.44a.435.435 0 0 1-.214-.174m.214.174c.09.035.128-.031.114-.198-.013-.168-.045-.683-.096-1.548a103.76 103.76 0 0 1-.124-3.696 520.54 520.54 0 0 1-.067-7.55c-.013-3.433-.052-5.213-.117-5.339a.396.396 0 0 0-.308-.22.396.396 0 0 0-.36.119c-.1.1-.138.221-.115.361.023.14.098.242.225.306a.396.396 0 0 0 .379-.003.396.396 0 0 0 .22-.308.396.396 0 0 0-.119-.36.396.396 0 0 0-.361-.115.396.396 0 0 0-.306.225c-.063.127-.088 1.91-.076 5.35.013 3.44.122 6.129.327 8.064.204 1.936.34 3.14.407 3.615.067.475.098.76.093.857m.284.44a.435.435 0 0 1-.214-.174m0 0a.435.435 0 0 1-.07-.266" stroke="currentColor" stroke-width="2" stroke-linecap="round" stroke-linejoin="round"/></svg>