<svg width="30" height="30" fill="none" xmlns="http://www.w3.org/2000/svg"><path d="m7.646 2.792 2.224.199 2.225.198 2.686.112c1.79.074 3.44.11 4.948.11 1.508 0 2.705.003 3.593.007.887.004 1.67.061 2.348.172.678.11 1.254.408 1.729.892.475.485.799 1.162.972 2.034.173.872.266 1.842.28 2.912.012 1.07.018 1.963.017 2.68a47.449 47.449 0 0 1-.074 2.41c-.048.889-.151 1.668-.31 2.336a14 14 0 0 1-1.559 3.868 13.57 13.57 0 0 1-2.7 3.264 13.591 13.591 0 0 1-3.56 2.272 13.44 13.44 0 0 1-1.997.69c-.684.178-1.395.305-2.133.382-.737.076-1.508.105-2.313.086a12.122 12.122 0 0 1-2.272-.258c-.71-.153-1.4-.364-2.07-.631a13.273 13.273 0 0 1-3.661-2.204c-.533-.456-1-.937-1.403-1.443a14.505 14.505 0 0 1-1.136-1.658 14.492 14.492 0 0 1-.934-1.88 14.142 14.142 0 0 1-.657-2.02 15.952 15.952 0 0 1-.369-2.197 36.872 36.872 0 0 1-.158-2.5 50.396 50.396 0 0 1-.025-2.364c.01-.683.019-1.358.023-2.027.005-.67.053-1.368.143-2.097.09-.728.512-1.434 1.268-2.116.756-.683 1.332-1.118 1.729-1.308.396-.19.788-.18 1.174.03.386.21.608.532.666.968.058.436-.073.805-.391 1.107a1.227 1.227 0 0 1-1.127.335 1.227 1.227 0 0 1-.932-.715c-.19-.396-.18-.788.03-1.174a1.23 1.23 0 0 1 .968-.666c.436-.058.805.073 1.107.392.303.318.414.693.335 1.126-.08.432-.415.78-1.005 1.045-.59.265-.987.688-1.193 1.268a6 6 0 0 0-.338 1.838c-.02.644-.02 1.505-.004 2.582.017 1.078.06 2.111.13 3.101.07.99.276 2.002.617 3.035a11.533 11.533 0 0 0 1.434 2.902c.614.9 1.263 1.657 1.945 2.27a11.19 11.19 0 0 0 2.173 1.537 11.35 11.35 0 0 0 2.428.963c.852.23 1.747.343 2.683.339.936-.005 1.935-.17 2.998-.496a11.289 11.289 0 0 0 3.04-1.471 11.135 11.135 0 0 0 4.188-5.374c.4-1.085.66-2.109.782-3.07.123-.96.193-1.792.21-2.496.019-.704.033-1.586.044-2.646.012-1.06-.034-1.99-.138-2.793-.103-.802-.416-1.361-.939-1.678-.522-.316-1.219-.499-2.09-.548-.87-.05-2.059-.075-3.566-.075-1.508 0-3.157.037-4.948.111-1.79.074-3.428.178-4.91.31-1.484.133-2.657.199-3.52.199-.862 0-1.4-.035-1.613-.104a1.01 1.01 0 0 1-.518-.376 1.01 1.01 0 0 1-.197-.609c0-.224.066-.427.197-.608l3.426-.48Z" fill="currentColor" stroke="currentColor" stroke-width="2" stroke-linecap="round" stroke-linejoin="round"/><path d="M11.994 12.778a3281.551 3281.551 0 0 0 1.121 1.103l.66.742c.441.494.902.863 1.381 1.108.48.244 1.19-.148 2.13-1.178s1.593-1.595 1.959-1.697a1.06 1.06 0 0 1 .993.202c.297.236.438.543.422.922a1.06 1.06 0 0 1-.5.883 1.06 1.06 0 0 1-1.007.116 1.06 1.06 0 0 1-.685-.747 1.06 1.06 0 0 1 .201-.994 1.06 1.06 0 0 1 .923-.421c.379.016.673.182.883.498.21.317.248.652.115 1.008-.133.355-.58.917-1.344 1.686-.763.768-1.528 1.372-2.295 1.811-.768.44-1.601.441-2.502.006-.9-.435-1.636-.912-2.21-1.431a35.053 35.053 0 0 1-1.41-1.34c-.368-.373-.66-.668-.876-.883a2.632 2.632 0 0 1-.493-.658 1.127 1.127 0 0 1-.112-.705c.039-.247.147-.46.324-.636.177-.177.389-.285.636-.324l1.686.929Z" fill="currentColor" stroke="currentColor" stroke-width="2" stroke-linecap="round" stroke-linejoin="round"/></svg>