<svg width="30" height="30" fill="none" xmlns="http://www.w3.org/2000/svg"><path d="M24.753 8.493a4370.487 4370.487 0 0 0 .809 1.108l.41.8c.275.534.56 1.263.856 2.189.296.925.48 1.875.55 2.85a12.297 12.297 0 0 1-.955 5.707 12.321 12.321 0 0 1-3.46 4.651 12.378 12.378 0 0 1-5.202 2.572c-.956.216-1.925.319-2.908.306a12.387 12.387 0 0 1-5.628-1.428 12.406 12.406 0 0 1-4.367-3.829c-.565-.8-1.03-1.657-1.395-2.57a12.4 12.4 0 0 1-.833-5.747c.09-.978.447-2.206 1.072-3.686.625-1.479 1.088-2.363 1.389-2.652.301-.29.657-.398 1.068-.324.411.073.708.298.89.674.182.376.175.748-.022 1.116-.197.368-.502.58-.916.638a1.167 1.167 0 0 1-1.055-.366 1.166 1.166 0 0 1-.323-1.068c.073-.411.298-.708.674-.89a1.167 1.167 0 0 1 1.116.022c.368.197.58.502.638.916.057.414-.21 1.281-.8 2.602-.59 1.321-.926 2.363-1.007 3.126a9.687 9.687 0 0 0 .585 4.5 9.714 9.714 0 0 0 6.548 5.917 9.727 9.727 0 0 0 8.644-1.816 9.738 9.738 0 0 0 2.784-3.595 9.821 9.821 0 0 0 .866-4.476 9.99 9.99 0 0 0-.362-2.277c-.209-.746-.414-1.34-.616-1.78a9.17 9.17 0 0 0-.61-1.136 9.312 9.312 0 0 0-.73-.974c-.281-.332-.47-.614-.565-.847a1.135 1.135 0 0 1-.053-.717c.06-.245.187-.448.38-.61.191-.163.413-.254.664-.272l1.864 1.366Z" fill="currentColor" stroke="currentColor" stroke-width="2" stroke-linecap="round" stroke-linejoin="round"/><path d="m16.19 5.472-.069 1.39-.068 1.39-.089 2.872c-.059 1.914-.149 2.989-.269 3.225a.74.74 0 0 1-.573.416.74.74 0 0 1-.674-.218.74.74 0 0 1-.219-.674.74.74 0 0 1 .417-.573.74.74 0 0 1 .708 0 .74.74 0 0 1 .417.573.74.74 0 0 1-.22.674.74.74 0 0 1-.673.218.74.74 0 0 1-.573-.416c-.12-.236-.21-1.311-.27-3.225a254.791 254.791 0 0 0-.156-4.262 47.18 47.18 0 0 1-.069-2.199c0-.539.038-.925.114-1.158.076-.233.213-.422.41-.566.2-.144.42-.216.666-.216.245 0 .467.072.665.216l.525 2.533Z" fill="currentColor" stroke="currentColor" stroke-width="2" stroke-linecap="round" stroke-linejoin="round"/></svg>