<svg width="30" height="30" fill="none" xmlns="http://www.w3.org/2000/svg"><g clip-path="url(#a)" fill="currentColor" stroke="currentColor" stroke-width="2" stroke-linecap="round" stroke-linejoin="round"><path d="m6.446 9.954.01-.974.01-.973.032-1.175c.02-.784.059-1.54.115-2.269.057-.729.356-1.375.9-1.94.542-.564 1.579-.903 3.108-1.016a31.299 31.299 0 0 1 4.318-.038c1.349.087 2.598.142 3.747.165 1.15.024 2.072.155 2.77.396.696.24 1.215.839 1.556 1.796.341.957.52 2.112.539 3.465.018 1.354-.035 2.155-.158 2.406a.78.78 0 0 1-.598.447.78.78 0 0 1-.714-.22.78.78 0 0 1-.24-.707.78.78 0 0 1 .43-.61.78.78 0 0 1 .747-.011c.25.123.4.323.447.598a.78.78 0 0 1-.22.713.78.78 0 0 1-.708.241.78.78 0 0 1-.61-.43c-.13-.248-.197-1.035-.201-2.361a377.04 377.04 0 0 1 0-3.012c.003-.682-.233-1.109-.709-1.281-.476-.173-1.27-.246-2.382-.22a74.66 74.66 0 0 0-3.674.185c-1.337.098-2.572.24-3.705.425-1.132.185-1.827.582-2.084 1.19-.257.609-.375 1.304-.354 2.088a135.151 135.151 0 0 1 .051 3.688c0 .377-.038.684-.115.922-.077.237-.217.43-.419.576-.202.147-.428.22-.677.22-.25 0-.476-.073-.678-.22l-.534-2.064Z"/><path d="m7.16 23.625-.572.033-.573.032-.5.01a4.013 4.013 0 0 1-1.142-.17c-.428-.119-.941-.42-1.539-.902a3.903 3.903 0 0 1-1.268-1.816 7.007 7.007 0 0 1-.369-2.286c.002-.796.016-1.695.043-2.695.027-1 .1-1.848.22-2.544s.428-1.352.924-1.967c.497-.615 1.277-1.02 2.342-1.217 1.065-.196 2.574-.2 4.528-.01 1.954.189 3.827.337 5.62.445 1.792.108 3.442.162 4.95.162s2.706.002 3.594.005c.888.002 1.672.058 2.352.165.68.108 1.257.4 1.733.88.476.477.801 1.116.976 1.914.174.799.275 1.682.302 2.65.027.968.03 1.857.008 2.666a6.933 6.933 0 0 1-.429 2.269 3.59 3.59 0 0 1-1.305 1.702c-.607.43-1.38.694-2.323.79-.942.095-1.623.068-2.045-.081a1.25 1.25 0 0 1-.823-.868 1.25 1.25 0 0 1 .219-1.175 1.25 1.25 0 0 1 1.079-.514 1.25 1.25 0 0 1 1.05.57c.254.37.306.764.156 1.186a1.25 1.25 0 0 1-.867.822 1.25 1.25 0 0 1-1.176-.218 1.25 1.25 0 0 1-.514-1.08 1.25 1.25 0 0 1 .57-1.05c.37-.253 1.081-.544 2.137-.875 1.055-.33 1.647-.861 1.776-1.593.13-.732.206-1.576.231-2.533.025-.956-.013-1.797-.114-2.522-.1-.726-.412-1.244-.933-1.554-.521-.31-1.217-.492-2.087-.542-.87-.05-2.059-.076-3.567-.076s-3.158.054-4.95.163a81.635 81.635 0 0 0-4.919.434c-1.487.182-2.731.46-3.732.837-1.001.376-1.61.928-1.826 1.657-.216.728-.313 1.569-.292 2.523.02.954.174 1.765.46 2.434.286.668.599 1.079.94 1.232.34.153.7.24 1.083.262.381.022.655.033.82.033.164 0 .365.039.601.115.236.077.427.216.573.417.146.2.22.425.22.674 0 .248-.074.473-.22.674l-1.422.532Z"/><path d="M9.563 16.548a247468.8 247468.8 0 0 0 5.351.377 82.5 82.5 0 0 0 3.743.181c1.152.028 2.08.18 2.782.456.703.276 1.217.948 1.543 2.017.326 1.07.492 2.058.5 2.965a62.95 62.95 0 0 1-.032 2.579c-.028.811-.288 1.506-.782 2.085-.494.578-1.501.942-3.022 1.093a28.21 28.21 0 0 1-4.305.115c-1.349-.073-2.6-.12-3.752-.139-1.152-.019-2.078-.164-2.78-.436-.7-.272-1.213-.941-1.538-2.006-.325-1.066-.492-2.37-.5-3.913-.01-1.542.044-2.431.16-2.667a.734.734 0 0 1 .564-.42.734.734 0 0 1 .67.21.734.734 0 0 1 .225.664.734.734 0 0 1-.406.573.734.734 0 0 1-.702.009.734.734 0 0 1-.42-.563.734.734 0 0 1 .21-.67.734.734 0 0 1 .665-.226c.26.038.45.174.573.406.122.233.18 1.324.177 3.274-.004 1.95.24 3.187.732 3.713.493.527 1.298.804 2.416.833 1.118.03 2.346 0 3.683-.084a24.944 24.944 0 0 0 3.785-.52c1.186-.262 1.921-.75 2.205-1.462.284-.713.43-1.724.435-3.036.006-1.311-.236-2.228-.726-2.75-.49-.521-1.294-.793-2.412-.816a41.18 41.18 0 0 0-3.69.105c-1.344.094-2.571.18-3.684.26a39.473 39.473 0 0 1-2.639.117c-.647 0-1.084-.037-1.312-.11a1.08 1.08 0 0 1-.552-.402 1.079 1.079 0 0 1-.211-.65c0-.24.07-.456.21-.65l2.836-.512Z"/></g><defs><clipPath id="a"><path fill="#fff" d="M0 0h30v30H0z"/></clipPath></defs></svg>