<svg width="30" height="30" fill="none" xmlns="http://www.w3.org/2000/svg"><path d="m18.488 16.044-.21.477-.21.476s-.12.14-.356.422c-.237.28-.516.522-.838.726-.321.204-.72.34-1.195.408-.476.068-1.075-.009-1.799-.23a3.376 3.376 0 0 1-1.764-1.244A3.472 3.472 0 0 1 11.422 15c-.01-.777.208-1.48.655-2.107a3.597 3.597 0 0 1 1.723-1.326c.701-.257 1.46-.17 2.277.264a53.02 53.02 0 0 1 1.824 1c.399.233.621.58.666 1.04.046.46-.104.844-.45 1.15a1.291 1.291 0 0 1-1.195.313 1.291 1.291 0 0 1-.956-.784 1.291 1.291 0 0 1 .073-1.233c.234-.4.58-.621 1.04-.667.46-.045.844.105 1.151.45.307.346.411.745.312 1.196a1.29 1.29 0 0 1-.783.955c-.424.186-1.062.114-1.916-.216-.853-.33-1.211-.294-1.074.107.137.401.37.574.7.52.33-.055.537-.216.621-.485.084-.269.19-.52.315-.752a1.2 1.2 0 0 1 .546-.52 1.19 1.19 0 0 1 .748-.099c.26.048.48.168.663.359l.126 1.879Z" fill="currentColor" stroke="currentColor" stroke-width="2" stroke-linecap="round" stroke-linejoin="round"/><path d="M21.633 9.225a3796.64 3796.64 0 0 0 .806 1.036l.353.685a9.23 9.23 0 0 1 .64 1.682 8.607 8.607 0 0 1 .153 4.11c-.14.685-.741 1.32-1.8 1.908-1.06.588-2.985 1.017-5.774 1.287s-4.564.341-5.324.213c-.76-.128-1.407-.373-1.94-.735a4.334 4.334 0 0 1-1.312-1.42 7.062 7.062 0 0 1-.757-1.837 7.809 7.809 0 0 1-.239-1.971 8.066 8.066 0 0 1 .263-1.997c.171-.659.883-1.359 2.135-2.101 1.252-.742 3.588-1.509 7.008-2.3 3.42-.791 5.698-1.083 6.833-.875 1.136.209 1.99.566 2.56 1.073a6.7 6.7 0 0 1 1.378 1.668c.348.606.638 1.23.87 1.875.231.644.4 1.308.506 1.99.106.683.152 1.372.138 2.067a12.396 12.396 0 0 1-.216 2.066c-.13.683-.329 1.36-.598 2.033-.268.673-1.19 1.325-2.764 1.958-1.573.632-4.428 1.079-8.564 1.338-4.136.26-6.88.233-8.235-.082-1.354-.314-2.341-.738-2.962-1.272-.62-.534-1.102-1.11-1.444-1.732a10.236 10.236 0 0 1-.816-1.91 16.77 16.77 0 0 1-.485-1.987 11.267 11.267 0 0 1-.179-2.041 12.08 12.08 0 0 1 .184-2.052c.12-.679.412-1.551.876-2.616.463-1.066.798-1.697 1.006-1.894a.799.799 0 0 1 .733-.217.799.799 0 0 1 .606.466.799.799 0 0 1-.02.764.799.799 0 0 1-.63.433.799.799 0 0 1-.72-.255.799.799 0 0 1-.218-.734.799.799 0 0 1 .466-.606.799.799 0 0 1 .764.02.799.799 0 0 1 .433.63c.037.284-.289 1.443-.98 3.477-.69 2.035-1.05 3.438-1.083 4.21-.032.772.139 1.654.514 2.647.374.992.837 1.797 1.39 2.412.551.616 1.452 1.07 2.702 1.364 1.25.293 3.87.079 7.857-.644 3.988-.723 6.718-1.644 8.19-2.763 1.472-1.12 2.256-2.28 2.351-3.483a10.476 10.476 0 0 0-.312-3.53c-.303-1.15-.691-2.022-1.162-2.615-.472-.593-1.208-.986-2.208-1.178-1-.192-2.97.225-5.911 1.252-2.941 1.026-4.956 1.937-6.046 2.733-1.09.795-1.706 1.515-1.847 2.16a6.878 6.878 0 0 0-.136 1.984c.05.678.246 1.327.588 1.947.342.62.855 1.031 1.539 1.234.683.203 2.08.107 4.19-.287 2.112-.394 3.578-.875 4.401-1.445.823-.569 1.288-1.161 1.394-1.777a6.138 6.138 0 0 0 .035-1.864c-.083-.628-.193-1.131-.327-1.51a5.593 5.593 0 0 0-.45-.985 5.004 5.004 0 0 0-.484-.691 2.349 2.349 0 0 1-.38-.623 1.13 1.13 0 0 1-.06-.713 1.13 1.13 0 0 1 .371-.612c.19-.164.41-.257.66-.277l1.49.91Z" fill="currentColor" stroke="currentColor" stroke-width="2" stroke-linecap="round" stroke-linejoin="round"/></svg>