<svg width="30" height="30" fill="none" xmlns="http://www.w3.org/2000/svg"><g clip-path="url(#a)"><path d="M29.193 5.932a5218.228 5218.228 0 0 0 .005 1.668l-.013 1.008c-.01.671-.068 1.349-.177 2.033-.11.684-.407 1.344-.892 1.98-.485.635-1.062.974-1.73 1.016a43.08 43.08 0 0 1-2.742.055c-1.16-.005-1.905-.09-2.236-.256a1.035 1.035 0 0 1-.59-.797c-.06-.365.04-.68.3-.944.26-.264.573-.369.939-.314.366.055.635.247.806.576.17.329.174.659.008.99a1.035 1.035 0 0 1-.797.59 1.035 1.035 0 0 1-.944-.3 1.035 1.035 0 0 1-.314-.939c.055-.366.247-.635.576-.806.329-.17 1.186-.28 2.572-.328 1.386-.048 2.203-.318 2.451-.81.248-.493.367-1.075.358-1.746-.009-.672-.012-1.286-.01-1.842l.002-1.32c0-.323.039-.603.116-.841.077-.238.217-.43.42-.578.202-.147.428-.22.678-.22.25 0 .477.073.679.22l.535 1.905ZM.807 24.068l-.003-.834-.002-.834.013-1.008c.01-.671.068-1.349.177-2.033.11-.684.407-1.344.892-1.98.485-.635 1.062-.974 1.73-1.016.668-.042 1.582-.06 2.742-.055 1.16.005 1.905.09 2.236.256.332.166.528.431.589.797.061.365-.039.68-.298.944-.26.264-.573.369-.94.314a1.035 1.035 0 0 1-.806-.576 1.035 1.035 0 0 1-.008-.99c.166-.332.431-.528.797-.59.365-.06.68.04.944.3.264.26.369.572.314.939a1.035 1.035 0 0 1-.576.806c-.329.17-1.186.28-2.572.328-1.386.048-2.203.318-2.451.81-.248.493-.367 1.075-.358 1.746.009.672.012 1.286.01 1.842l-.002 1.32c0 .323-.039.604-.116.841-.077.238-.217.43-.42.578-.202.147-.428.22-.678.22a1.13 1.13 0 0 1-.679-.22l-.535-1.905Z" fill="currentColor" stroke="currentColor" stroke-width="2" stroke-linecap="round" stroke-linejoin="round"/><path d="m2.602 9.857.262-.527.262-.526.433-.639c.29-.426.715-.947 1.277-1.565a12.228 12.228 0 0 1 4.037-2.92 12.378 12.378 0 0 1 7.402-.862c.831.16 1.637.4 2.42.722.782.323 1.515.709 2.201 1.158.686.45 1.356.972 2.01 1.568.655.595 1.629 1.593 2.924 2.992 1.295 1.4 1.927 2.227 1.894 2.482a1.16 1.16 0 0 1-.313.665c-.176.188-.39.306-.643.354l-2.822.54c-1.629.311-5.063.987-10.302 2.028-5.24 1.04-8.339 1.823-9.297 2.348-.959.525-1.227 1.156-.803 1.895.423.739.875 1.34 1.356 1.806.48.465 1.009.925 1.585 1.38.575.454 1.184.837 1.827 1.15.642.312 1.297.565 1.965.757.667.193 1.341.323 2.02.391.68.068 1.355.073 2.026.015a10.542 10.542 0 0 0 1.973-.362 10.275 10.275 0 0 0 1.852-.725 10.144 10.144 0 0 0 1.668-1.064c.52-.409 1.154-1.11 1.902-2.105.748-.994 1.318-1.568 1.711-1.722a1.179 1.179 0 0 1 1.123.11c.355.228.545.552.57.973a1.18 1.18 0 0 1-.452 1.034 1.179 1.179 0 0 1-1.102.242 1.179 1.179 0 0 1-.843-.75 1.179 1.179 0 0 1 .11-1.122c.228-.355.552-.546.974-.57a1.18 1.18 0 0 1 1.033.451c.268.327.349.694.242 1.102-.107.409-.591 1.15-1.454 2.223-.863 1.074-1.635 1.857-2.317 2.347a12.089 12.089 0 0 1-4.539 2.014c-.816.173-1.637.26-2.464.257a11.401 11.401 0 0 1-2.443-.268 11.022 11.022 0 0 1-2.303-.781 10.57 10.57 0 0 1-2.04-1.25c-.624-.49-1.211-1-1.76-1.534a124.52 124.52 0 0 1-1.56-1.54c-.49-.494-.948-1.229-1.373-2.206-.425-.976-.095-1.838.99-2.585 1.086-.747 4.469-1.734 10.148-2.963 5.68-1.229 9.4-2.022 11.162-2.38 1.76-.359 2.625-.41 2.593-.155a1.16 1.16 0 0 1-.313.665c-.176.188-.39.306-.643.354-.253.048-.957-.386-2.111-1.303a74.454 74.454 0 0 1-2.928-2.431 27.917 27.917 0 0 0-2.151-1.742 10.12 10.12 0 0 0-1.856-1.076 9.754 9.754 0 0 0-3.809-.808A9.9 9.9 0 0 0 8.34 7.062c-.55.365-1.06.782-1.532 1.25-.47.468-.833.866-1.086 1.195a9.312 9.312 0 0 0-.628.911 8.308 8.308 0 0 0-.47.93c-.149.342-.307.607-.474.796-.167.188-.374.31-.62.364a1.136 1.136 0 0 1-.716-.07 1.137 1.137 0 0 1-.538-.478l.327-2.103Z" fill="currentColor"/><path d="M26.768 12.759c.253-.048.467-.166.643-.354.177-.188.281-.41.313-.665.032-.255-.599-1.083-1.894-2.482-1.295-1.4-2.27-2.397-2.924-2.992a16.08 16.08 0 0 0-2.01-1.568c-.686-.45-1.42-.835-2.202-1.158a12.46 12.46 0 0 0-7.432-.65A12.324 12.324 0 0 0 6.7 4.936 12.171 12.171 0 0 0 4.836 6.6c-.562.618-.988 1.14-1.277 1.565l-.433.639-.262.526-.262.527-.327 2.103c.127.218.307.377.538.478.23.1.47.124.716.07.246-.054.453-.176.62-.364.167-.189.325-.454.474-.796.148-.341.305-.651.47-.93.166-.278.375-.582.628-.911.253-.33.615-.727 1.086-1.195a10.126 10.126 0 0 1 3.272-2.174 9.9 9.9 0 0 1 3.835-.74 9.777 9.777 0 0 1 3.808.809c.6.26 1.22.62 1.856 1.076a27.917 27.917 0 0 1 2.151 1.742 74.454 74.454 0 0 0 2.928 2.431c1.154.917 1.858 1.351 2.11 1.303Zm0 0-2.822.54c-1.629.311-5.063.987-10.302 2.028-5.24 1.04-8.339 1.823-9.297 2.348-.959.525-1.227 1.156-.803 1.895.423.739.875 1.34 1.356 1.806.48.465 1.009.925 1.585 1.38.575.454 1.184.837 1.827 1.15.642.312 1.297.565 1.965.757.667.193 1.341.323 2.02.391.68.068 1.355.073 2.026.015a10.542 10.542 0 0 0 1.973-.362 10.275 10.275 0 0 0 1.852-.725 10.144 10.144 0 0 0 1.668-1.064c.52-.409 1.154-1.11 1.902-2.105.748-.994 1.318-1.568 1.711-1.722a1.179 1.179 0 0 1 1.123.11c.355.228.545.552.57.973a1.18 1.18 0 0 1-.452 1.034 1.179 1.179 0 0 1-1.102.242 1.179 1.179 0 0 1-.843-.75 1.179 1.179 0 0 1 .11-1.122c.228-.355.552-.546.974-.57a1.18 1.18 0 0 1 1.033.451c.268.327.349.694.242 1.102-.107.409-.591 1.15-1.454 2.223-.863 1.074-1.635 1.857-2.317 2.347a12.089 12.089 0 0 1-4.539 2.014c-.816.173-1.637.26-2.464.257a11.401 11.401 0 0 1-2.443-.268 11.022 11.022 0 0 1-2.303-.781 10.57 10.57 0 0 1-2.04-1.25c-.624-.49-1.211-1-1.76-1.534a124.52 124.52 0 0 1-1.56-1.54c-.49-.494-.948-1.229-1.373-2.206-.425-.976-.095-1.838.99-2.585 1.086-.747 4.469-1.734 10.148-2.963 5.68-1.229 9.4-2.022 11.162-2.38 1.76-.359 2.625-.41 2.593-.155a1.16 1.16 0 0 1-.313.665c-.176.188-.39.306-.643.354Z" stroke="currentColor" stroke-width="2" stroke-linecap="round" stroke-linejoin="round"/></g><defs><clipPath id="a"><path fill="#fff" d="M0 0h30v30H0z"/></clipPath></defs></svg>