<svg width="30" height="30" fill="none" xmlns="http://www.w3.org/2000/svg"><g clip-path="url(#a)"><path d="M3.234 5.932A26058.813 26058.813 0 0 0 3.239 7.6l-.014 1.008c-.009.671.11 1.253.359 1.745.248.493 1.065.763 2.45.81 1.387.049 2.244.158 2.573.33.329.17.52.439.576.805.055.367-.05.68-.314.94-.264.26-.579.36-.944.298a1.035 1.035 0 0 1-.797-.589 1.035 1.035 0 0 1 .008-.99c.17-.329.44-.52.806-.576.366-.055.68.05.94.314.26.264.359.579.298.944a1.034 1.034 0 0 1-.589.797c-.331.166-1.077.251-2.236.256a43.082 43.082 0 0 1-2.742-.055c-.668-.042-1.245-.38-1.73-1.017-.485-.635-.783-1.295-.892-1.98a14.094 14.094 0 0 1-.177-2.032 99.253 99.253 0 0 1-.01-1.842l.002-1.32c0-.323.038-.603.116-.841.077-.238.217-.43.42-.578.201-.147.428-.22.678-.22.25 0 .476.073.678.22l.536 1.905Zm23.532 18.136-.002-.834-.003-.834.014-1.008c.009-.671-.11-1.253-.359-1.745-.248-.493-1.065-.763-2.45-.81-1.387-.049-2.244-.158-2.573-.33a1.035 1.035 0 0 1-.576-.805c-.055-.367.05-.68.314-.94.264-.26.579-.359.945-.298.365.06.63.257.796.589.166.331.163.661-.008.99-.17.329-.44.52-.806.576-.366.055-.68-.05-.94-.314a1.035 1.035 0 0 1-.298-.944c.061-.366.257-.631.589-.797.331-.166 1.077-.251 2.236-.256 1.16-.006 2.074.013 2.742.055.668.042 1.245.38 1.73 1.017.485.635.783 1.295.892 1.98.109.683.168 1.36.177 2.032.009.672.013 1.286.01 1.842l-.002 1.32c0 .323-.038.604-.116.841-.077.238-.217.43-.42.578-.201.147-.428.22-.678.22-.25 0-.476-.073-.678-.22l-.536-1.905Z" fill="currentColor" stroke="currentColor" stroke-width="2" stroke-linecap="round" stroke-linejoin="round"/><path d="m25.075 10.836-.249-.418-.248-.418-.38-.493a12.636 12.636 0 0 0-1.085-1.195 10.129 10.129 0 0 0-1.533-1.25 9.954 9.954 0 0 0-3.621-1.485 9.809 9.809 0 0 0-5.761.63 10.1 10.1 0 0 0-1.856 1.076A27.912 27.912 0 0 0 8.19 9.025a74.501 74.501 0 0 1-2.928 2.431c-1.155.917-1.858 1.351-2.111 1.303a1.16 1.16 0 0 1-.644-.354 1.16 1.16 0 0 1-.313-.665c-.032-.255.833-.204 2.594.154 1.761.359 5.482 1.152 11.161 2.38 5.68 1.23 9.063 2.217 10.148 2.964 1.085.747 1.416 1.609.99 2.585-.424.977-.882 1.712-1.372 2.206-.49.494-1.01 1.007-1.56 1.54a21.92 21.92 0 0 1-1.761 1.534 10.52 10.52 0 0 1-2.04 1.25 11.02 11.02 0 0 1-2.303.781c-.8.177-1.615.267-2.442.268a11.724 11.724 0 0 1-2.464-.257 12.09 12.09 0 0 1-4.539-2.014c-.682-.49-1.454-1.273-2.317-2.347-.863-1.073-1.348-1.814-1.454-2.223a1.179 1.179 0 0 1 .242-1.102 1.179 1.179 0 0 1 1.033-.451c.421.024.746.215.973.57.228.356.264.73.11 1.123a1.179 1.179 0 0 1-.843.749 1.179 1.179 0 0 1-1.101-.242 1.179 1.179 0 0 1-.452-1.034 1.18 1.18 0 0 1 .57-.973 1.18 1.18 0 0 1 1.123-.11c.393.154.963.728 1.711 1.722.748.995 1.382 1.696 1.902 2.105a10.178 10.178 0 0 0 3.52 1.789c.644.183 1.301.303 1.972.362.671.058 1.347.053 2.026-.015a11.38 11.38 0 0 0 2.021-.39 12.2 12.2 0 0 0 1.965-.758 10.03 10.03 0 0 0 1.827-1.15 20.804 20.804 0 0 0 1.585-1.38c.48-.465.933-1.067 1.356-1.806.423-.739.156-1.37-.803-1.895-.959-.525-4.058-1.308-9.297-2.348a1940.71 1940.71 0 0 0-10.302-2.028l-2.822-.54a1.16 1.16 0 0 1-.644-.354 1.16 1.16 0 0 1-.313-.665c-.032-.255.6-1.083 1.895-2.482 1.295-1.4 2.27-2.397 2.923-2.992a16.083 16.083 0 0 1 2.01-1.568c.686-.45 1.42-.835 2.202-1.158a12.46 12.46 0 0 1 7.433-.65 12.325 12.325 0 0 1 4.56 2.046A12.104 12.104 0 0 1 25.082 6.6c.563.618.989 1.14 1.277 1.565.29.426.521.814.696 1.165.175.351.336.698.485 1.04.148.34.234.637.259.888.024.25-.027.485-.155.702a1.136 1.136 0 0 1-.538.478c-.231.1-.47.124-.716.07l-1.316-1.672Z" fill="currentColor"/><path d="M3.152 12.759c.253.048.956-.386 2.11-1.303a74.501 74.501 0 0 0 2.929-2.431 27.912 27.912 0 0 1 2.15-1.742 10.12 10.12 0 0 1 1.857-1.076 9.754 9.754 0 0 1 3.808-.808 9.9 9.9 0 0 1 5.574 1.663c.55.365 1.061.782 1.533 1.25.47.468.833.866 1.086 1.195l.38.493a2059.542 2059.542 0 0 0 .495.836l1.317 1.672c.246.054.485.03.716-.07.231-.101.41-.26.538-.478.128-.217.18-.451.155-.702-.025-.251-.111-.547-.26-.889-.148-.341-.31-.688-.484-1.039-.175-.35-.406-.74-.696-1.165-.288-.426-.714-.947-1.277-1.565a12.23 12.23 0 0 0-4.037-2.92 12.38 12.38 0 0 0-7.402-.862c-.83.16-1.637.4-2.419.722-.782.323-1.516.709-2.202 1.158a16.09 16.09 0 0 0-2.01 1.568c-.654.595-1.628 1.593-2.923 2.992-1.295 1.4-1.927 2.227-1.895 2.482m.957 1.019a1.16 1.16 0 0 1-.644-.354 1.16 1.16 0 0 1-.313-.665m.957 1.019 2.822.54c1.629.311 5.063.987 10.302 2.028 5.24 1.04 8.338 1.823 9.297 2.348.959.525 1.226 1.156.803 1.895-.423.739-.875 1.34-1.356 1.806-.48.465-1.01.925-1.585 1.38a10.03 10.03 0 0 1-1.827 1.15 12.2 12.2 0 0 1-1.965.757 11.38 11.38 0 0 1-2.02.391 10.9 10.9 0 0 1-2.027.015 10.542 10.542 0 0 1-1.972-.362 10.272 10.272 0 0 1-1.853-.725 10.178 10.178 0 0 1-1.667-1.064c-.52-.409-1.154-1.11-1.902-2.105-.748-.994-1.318-1.568-1.711-1.722a1.179 1.179 0 0 0-1.123.11 1.179 1.179 0 0 0-.57.973c-.025.422.125.766.452 1.034.326.268.693.348 1.101.242.409-.107.69-.356.844-.75a1.179 1.179 0 0 0-.11-1.122 1.179 1.179 0 0 0-.974-.57 1.179 1.179 0 0 0-1.033.451 1.179 1.179 0 0 0-.242 1.102c.106.409.59 1.15 1.454 2.223.863 1.074 1.635 1.857 2.317 2.347a12.09 12.09 0 0 0 4.539 2.014c.815.173 1.637.26 2.464.257a11.402 11.402 0 0 0 2.442-.268 11.02 11.02 0 0 0 2.304-.781c.734-.344 1.414-.76 2.039-1.25.625-.49 1.212-1 1.761-1.534.55-.533 1.07-1.046 1.56-1.54s.948-1.229 1.373-2.206c.425-.976.094-1.838-.991-2.585-1.085-.747-4.468-1.734-10.148-2.963s-9.4-2.022-11.161-2.38c-1.761-.359-2.626-.41-2.594-.155m.957 1.019a1.16 1.16 0 0 1-.644-.354 1.16 1.16 0 0 1-.313-.665" stroke="currentColor" stroke-width="2" stroke-linecap="round" stroke-linejoin="round"/></g><defs><clipPath id="a"><path fill="#fff" d="M0 0h30v30H0z"/></clipPath></defs></svg>