<svg width="30" height="30" fill="none" xmlns="http://www.w3.org/2000/svg"><g clip-path="url(#a)" fill="currentColor" stroke="currentColor" stroke-width="2" stroke-linecap="round" stroke-linejoin="round"><path d="M23.253 1.52a6003.503 6003.503 0 0 0 1.12 1.103l.78.86c.518.572.995 1.309 1.43 2.209.436.9.434 1.734-.005 2.501-.44.767-1.043 1.532-1.812 2.296-.768.763-1.33 1.21-1.686 1.343a1.06 1.06 0 0 1-1.007-.115 1.06 1.06 0 0 1-.499-.883 1.06 1.06 0 0 1 .421-.922 1.06 1.06 0 0 1 .994-.202c.366.102.615.33.747.686a1.06 1.06 0 0 1-.115 1.007 1.06 1.06 0 0 1-.883.499 1.06 1.06 0 0 1-.922-.421 1.06 1.06 0 0 1-.202-.994c.101-.365.667-1.018 1.697-1.959 1.03-.94 1.422-1.65 1.177-2.13-.244-.479-.613-.939-1.108-1.38-.494-.44-.925-.847-1.293-1.22-.368-.375-.66-.67-.875-.885a2.634 2.634 0 0 1-.494-.658 1.127 1.127 0 0 1-.112-.705c.04-.247.147-.459.324-.636.177-.176.39-.284.636-.324l1.687.93Z"/><path d="m4.594 13.346-.033-.573-.033-.573.038-.698c.025-.466.139-1.096.34-1.892.201-.796.493-1.461.876-1.996a6.181 6.181 0 0 1 1.375-1.39 5.95 5.95 0 0 1 1.836-.899c.69-.206 1.53-.31 2.518-.312.988-.001 2.14.074 3.457.224 1.316.151 3.316.284 6 .398 2.685.114 4.099.207 4.243.28.144.074.229.19.254.35a.452.452 0 0 1-.133.412.452.452 0 0 1-.412.133.452.452 0 0 1-.35-.254.452.452 0 0 1 0-.432.452.452 0 0 1 .35-.254.45.45 0 0 1 .411.133.452.452 0 0 1 .134.411.452.452 0 0 1-.254.35c-.144.074-1.558.168-4.241.283-2.683.115-4.678.25-5.983.404-1.305.154-2.418.28-3.339.374-.92.096-1.707.313-2.36.653a3.41 3.41 0 0 0-1.484 1.476c-.337.644-.543 1.18-.619 1.606a10.3 10.3 0 0 0-.147 1.213c-.022.382-.033.655-.033.82 0 .165-.038.365-.115.601a1.12 1.12 0 0 1-.416.574 1.12 1.12 0 0 1-.674.219 1.12 1.12 0 0 1-.674-.22l-.532-1.421ZM6.748 28.48l-.561-.551-.56-.552-.78-.86c-.518-.572-.995-1.308-1.43-2.209-.436-.9-.434-1.734.005-2.501.44-.767 1.043-1.532 1.812-2.296.768-.763 1.33-1.21 1.686-1.343a1.06 1.06 0 0 1 1.007.115c.316.21.483.504.499.883a1.06 1.06 0 0 1-.421.922 1.06 1.06 0 0 1-.994.202 1.06 1.06 0 0 1-.747-.686 1.06 1.06 0 0 1 .115-1.007 1.06 1.06 0 0 1 .883-.499 1.06 1.06 0 0 1 .922.421c.236.297.304.628.202.994-.102.365-.667 1.018-1.697 1.959-1.03.94-1.422 1.65-1.177 2.13.244.479.613.94 1.108 1.38.494.44.925.847 1.293 1.22.368.375.66.67.875.885.216.216.38.435.494.658.114.223.15.458.112.705-.04.247-.147.459-.324.636a1.127 1.127 0 0 1-.636.324l-1.686-.93Z"/><path d="M25.406 16.654a2472.085 2472.085 0 0 0 .066 1.146l-.038.698c-.025.466-.139 1.096-.34 1.892-.201.796-.493 1.461-.876 1.996a6.18 6.18 0 0 1-1.375 1.39 5.951 5.951 0 0 1-1.836.899c-.69.206-1.53.31-2.518.312-.988.001-2.14-.074-3.457-.224-1.316-.151-3.316-.284-6-.398-2.685-.114-4.099-.207-4.243-.28a.452.452 0 0 1-.254-.35.452.452 0 0 1 .133-.412.452.452 0 0 1 .411-.133.45.45 0 0 1 .35.254.452.452 0 0 1 0 .432.452.452 0 0 1-.35.254.452.452 0 0 1-.41-.133.452.452 0 0 1-.134-.411.452.452 0 0 1 .254-.35c.144-.074 1.558-.168 4.241-.283 2.683-.115 4.678-.25 5.983-.404a234.92 234.92 0 0 1 3.339-.374c.92-.096 1.707-.313 2.36-.653a3.41 3.41 0 0 0 1.484-1.476c.337-.644.543-1.18.619-1.607.076-.426.125-.83.147-1.212.022-.382.033-.655.033-.82 0-.165.038-.365.115-.601a1.12 1.12 0 0 1 .416-.574 1.12 1.12 0 0 1 .675-.219c.248 0 .473.073.674.22l.531 1.421Z"/></g><defs><clipPath id="a"><path fill="#fff" d="M0 0h30v30H0z"/></clipPath></defs></svg>