<svg width="30" height="30" fill="none" xmlns="http://www.w3.org/2000/svg"><path d="M10.584 23.136 9.396 22.08l-1.188-1.055-1.43-1.279a180.012 180.012 0 0 0-2.711-2.377c-.854-.732-1.395-1.472-1.624-2.22-.229-.748.139-1.637 1.103-2.668a20.645 20.645 0 0 1 3.009-2.67 137.64 137.64 0 0 0 3.605-2.699c1.362-1.05 2.114-1.555 2.257-1.514.142.04.259.12.35.236a.67.67 0 0 1 .145.397c.005.149.026.404.062.767.037.363.105 1.289.203 2.777.098 1.487.13 3.57.098 6.247-.033 2.677-.082 4.079-.146 4.206a.396.396 0 0 1-.305.224.396.396 0 0 1-.361-.115.4.4 0 0 1-.12-.36.396.396 0 0 1 .222-.308.397.397 0 0 1 .379-.002.396.396 0 0 1 .224.305.396.396 0 0 1-.115.362.4.4 0 0 1-.36.119.396.396 0 0 1-.308-.222c-.065-.126-.122-1.523-.172-4.193a320.13 320.13 0 0 0-.146-5.835c-.047-1.221-.047-2.22.002-2.998.05-.777.084-1.25.104-1.417.02-.168.101-.231.244-.19.142.04.259.12.35.236a.67.67 0 0 1 .145.397c.005.149-.667.755-2.015 1.82a104.906 104.906 0 0 0-3.463 2.84 158.11 158.11 0 0 0-2.774 2.45c-.89.805-1.276 1.382-1.157 1.732.119.35.6.818 1.443 1.405A225.03 225.03 0 0 0 7.8 18.43c1.061.714 2.03 1.369 2.906 1.963.877.595 1.558 1.08 2.043 1.458.485.378.795.666.93.866.136.2.2.42.192.661a1.088 1.088 0 0 1-.234.648c-.148.19-.338.32-.57.386l-2.484-1.277Z" fill="currentColor"/><path d="M12.912 6.232a.668.668 0 0 0-.145-.397.667.667 0 0 0-.35-.236c-.143-.041-.895.464-2.257 1.514a137.64 137.64 0 0 1-3.605 2.7 20.645 20.645 0 0 0-3.009 2.67c-.964 1.03-1.332 1.92-1.103 2.667.23.748.77 1.488 1.624 2.22.853.733 1.757 1.525 2.71 2.377l1.43 1.279 1.189 1.055 1.188 1.055 2.484 1.277c.232-.067.422-.195.57-.386.148-.19.226-.406.234-.648a1.088 1.088 0 0 0-.191-.661c-.136-.2-.446-.488-.931-.866a40.787 40.787 0 0 0-2.043-1.458c-.876-.594-1.845-1.248-2.906-1.963a225.03 225.03 0 0 1-2.855-1.952c-.843-.587-1.324-1.055-1.443-1.405-.119-.35.267-.927 1.157-1.732a158.11 158.11 0 0 1 2.774-2.45c.96-.828 2.114-1.775 3.463-2.84 1.348-1.065 2.02-1.671 2.015-1.82Zm0 0c.005.149.026.404.062.767.037.363.105 1.289.203 2.777.098 1.487.13 3.57.098 6.247-.033 2.677-.082 4.079-.146 4.206a.396.396 0 0 1-.305.224.396.396 0 0 1-.361-.115.4.4 0 0 1-.12-.36.396.396 0 0 1 .222-.308.397.397 0 0 1 .379-.002.396.396 0 0 1 .224.305.396.396 0 0 1-.115.362.4.4 0 0 1-.36.119.396.396 0 0 1-.308-.222c-.065-.126-.122-1.523-.172-4.193a320.13 320.13 0 0 0-.146-5.835c-.047-1.221-.047-2.22.002-2.998.05-.777.084-1.25.104-1.417.02-.168.101-.231.244-.19.142.04.259.12.35.236a.67.67 0 0 1 .145.397Z" stroke="currentColor" stroke-width="2" stroke-linecap="round" stroke-linejoin="round"/><path d="m24.334 23.136-1.188-1.055-1.188-1.055-1.43-1.279a179.662 179.662 0 0 0-2.711-2.377c-.854-.732-1.395-1.472-1.624-2.22-.229-.748.139-1.637 1.103-2.668a20.644 20.644 0 0 1 3.009-2.67 137.6 137.6 0 0 0 3.605-2.699c1.362-1.05 2.114-1.555 2.257-1.514.142.04.259.12.35.236a.67.67 0 0 1 .145.397c.005.149.026.404.062.767.037.363.105 1.289.203 2.777.098 1.487.13 3.57.098 6.247-.033 2.677-.082 4.079-.145 4.206a.396.396 0 0 1-.306.224.396.396 0 0 1-.361-.115.4.4 0 0 1-.12-.36.396.396 0 0 1 .222-.308.397.397 0 0 1 .379-.002.396.396 0 0 1 .225.305.396.396 0 0 1-.116.362.4.4 0 0 1-.36.119.396.396 0 0 1-.308-.222c-.065-.126-.122-1.523-.172-4.193a320.13 320.13 0 0 0-.146-5.835c-.047-1.221-.047-2.22.003-2.998.049-.777.083-1.25.103-1.417.02-.168.101-.231.244-.19.142.04.259.12.35.236a.67.67 0 0 1 .145.397c.005.149-.667.755-2.015 1.82a104.817 104.817 0 0 0-3.463 2.84 157.82 157.82 0 0 0-2.774 2.45c-.89.805-1.276 1.382-1.157 1.732.119.35.6.818 1.443 1.405.842.587 1.794 1.237 2.855 1.952 1.061.714 2.03 1.369 2.906 1.963.877.595 1.558 1.08 2.043 1.458.485.378.795.666.93.866.136.2.2.42.192.661a1.088 1.088 0 0 1-.234.648c-.148.19-.338.32-.57.386l-2.484-1.277Z" fill="currentColor"/><path d="M26.662 6.232a.668.668 0 0 0-.145-.397.667.667 0 0 0-.35-.236c-.143-.041-.895.464-2.257 1.514a137.6 137.6 0 0 1-3.605 2.7 20.644 20.644 0 0 0-3.009 2.67c-.964 1.03-1.332 1.92-1.103 2.667.23.748.77 1.488 1.624 2.22.853.733 1.757 1.525 2.71 2.377l1.43 1.279a13408.647 13408.647 0 0 0 2.377 2.11l2.484 1.277c.232-.067.422-.195.57-.386.148-.19.226-.406.234-.648a1.088 1.088 0 0 0-.191-.661c-.136-.2-.446-.488-.931-.866a40.787 40.787 0 0 0-2.043-1.458c-.876-.594-1.845-1.248-2.906-1.963a225.739 225.739 0 0 1-2.855-1.952c-.843-.587-1.324-1.055-1.443-1.405-.119-.35.267-.927 1.157-1.732a157.82 157.82 0 0 1 2.774-2.45c.96-.828 2.114-1.775 3.463-2.84 1.348-1.065 2.02-1.671 2.015-1.82Zm0 0c.005.149.026.404.062.767.037.363.105 1.289.203 2.777.098 1.487.13 3.57.098 6.247-.033 2.677-.082 4.079-.145 4.206a.396.396 0 0 1-.306.224.396.396 0 0 1-.361-.115.4.4 0 0 1-.12-.36.396.396 0 0 1 .222-.308.397.397 0 0 1 .379-.002.396.396 0 0 1 .225.305.396.396 0 0 1-.116.362.4.4 0 0 1-.36.119.396.396 0 0 1-.308-.222c-.065-.126-.122-1.523-.172-4.193a320.13 320.13 0 0 0-.146-5.835c-.047-1.221-.047-2.22.003-2.998.049-.777.083-1.25.103-1.417.02-.168.101-.231.244-.19.142.04.259.12.35.236a.67.67 0 0 1 .145.397Z" stroke="currentColor" stroke-width="2" stroke-linecap="round" stroke-linejoin="round"/></svg>