<svg width="30" height="30" fill="none" xmlns="http://www.w3.org/2000/svg"><g clip-path="url(#a)" fill="currentColor" stroke="currentColor" stroke-width="2" stroke-linecap="round" stroke-linejoin="round"><path d="M29.193 5.932a5218.228 5218.228 0 0 0 .005 1.668l-.013 1.008c-.01.671-.068 1.349-.177 2.033-.11.684-.407 1.344-.892 1.98-.485.635-1.062.974-1.73 1.016a43.08 43.08 0 0 1-2.742.055c-1.16-.005-1.905-.09-2.236-.256a1.035 1.035 0 0 1-.59-.797c-.06-.365.04-.68.3-.944.26-.264.573-.369.939-.314.366.055.635.247.806.576.17.329.174.659.008.99a1.035 1.035 0 0 1-.797.59 1.035 1.035 0 0 1-.944-.3 1.035 1.035 0 0 1-.314-.939c.055-.366.247-.635.576-.806.329-.17 1.186-.28 2.572-.328 1.386-.048 2.203-.318 2.451-.81.248-.493.367-1.075.358-1.746a111.5 111.5 0 0 1-.01-1.842l.002-1.32c0-.323.039-.603.116-.841.077-.238.217-.43.42-.578.202-.147.428-.22.678-.22.25 0 .477.073.679.22l.535 1.905Z"/><path d="m26.669 20.569-.504.8-.504.8-1.059 1.166a12.22 12.22 0 0 1-2.397 2.037 12.211 12.211 0 0 1-5.97 1.96 12.273 12.273 0 0 1-3.168-.227 12.292 12.292 0 0 1-5.646-2.792 12.295 12.295 0 0 1-3.534-5.217 12.32 12.32 0 0 1-.658-3.11 12.314 12.314 0 0 1 1.122-6.203A12.309 12.309 0 0 1 8.385 4.94a12.324 12.324 0 0 1 2.807-1.494 12.316 12.316 0 0 1 6.27-.643c1.058.166 2.076.463 3.053.892a13.97 13.97 0 0 1 2.716 1.57c.833.618 1.572 1.23 2.217 1.834a183.31 183.31 0 0 1 2.285 2.19c.88.854 1.383 1.459 1.51 1.814.128.355.085.688-.127 1a1.054 1.054 0 0 1-.883.485 1.054 1.054 0 0 1-.913-.43 1.053 1.053 0 0 1-.188-.99c.106-.362.336-.607.69-.734a1.053 1.053 0 0 1 1 .126c.313.213.474.507.486.884.012.377-.132.681-.43.912a1.054 1.054 0 0 1-.99.188c-.362-.105-.996-.57-1.901-1.394l-2.286-2.076a30.087 30.087 0 0 0-1.943-1.616 11.269 11.269 0 0 0-2.161-1.301 9.723 9.723 0 0 0-9.57.835 9.698 9.698 0 0 0-3.237 3.766 9.725 9.725 0 0 0-.48 7.332 9.707 9.707 0 0 0 2.718 4.158 9.747 9.747 0 0 0 4.417 2.281 9.788 9.788 0 0 0 7.27-1.217 10.045 10.045 0 0 0 1.968-1.575c.59-.607 1.031-1.123 1.326-1.55.295-.425.542-.855.74-1.289.198-.433.383-.742.553-.927.17-.184.379-.301.625-.35a1.13 1.13 0 0 1 .713.083c.228.105.404.267.527.487l-.498 2.378Z"/></g><defs><clipPath id="a"><path fill="#fff" d="M0 0h30v30H0z"/></clipPath></defs></svg>