<svg width="30" height="30" fill="none" xmlns="http://www.w3.org/2000/svg"><g clip-path="url(#a)" fill="currentColor" stroke="currentColor" stroke-width="2" stroke-linecap="round" stroke-linejoin="round"><path d="M3.234 5.932A26058.813 26058.813 0 0 0 3.239 7.6l-.014 1.008c-.009.671.11 1.253.359 1.745.248.493 1.065.763 2.45.81 1.387.049 2.244.158 2.573.33.329.17.52.439.576.805.055.367-.05.68-.314.94-.264.26-.579.36-.944.298a1.035 1.035 0 0 1-.797-.589 1.035 1.035 0 0 1 .008-.99c.17-.329.44-.52.806-.576.366-.055.68.05.94.314.26.264.359.579.298.944a1.034 1.034 0 0 1-.589.797c-.331.166-1.077.251-2.236.256a43.082 43.082 0 0 1-2.742-.055c-.668-.042-1.245-.38-1.73-1.017-.485-.635-.783-1.295-.892-1.98a14.094 14.094 0 0 1-.177-2.032 99.253 99.253 0 0 1-.01-1.842l.002-1.32c0-.323.038-.603.116-.841.077-.238.217-.43.42-.578.201-.147.428-.22.678-.22.25 0 .476.073.678.22l.536 1.905Z"/><path d="M5.546 19.55a9320.713 9320.713 0 0 0 .884 1.279l.882.911a10.045 10.045 0 0 0 1.967 1.576 9.815 9.815 0 0 0 9.625.372 9.744 9.744 0 0 0 3.694-3.326 9.71 9.71 0 0 0 1.091-2.253 9.719 9.719 0 0 0 .321-4.957 9.726 9.726 0 0 0-2.166-4.471 9.695 9.695 0 0 0-1.86-1.674 9.71 9.71 0 0 0-4.672-1.685 9.724 9.724 0 0 0-4.897.84A11.27 11.27 0 0 0 8.252 7.46a30.403 30.403 0 0 0-1.946 1.615c-.62.56-1.383 1.252-2.29 2.076-.907.824-1.542 1.288-1.904 1.393a1.053 1.053 0 0 1-.99-.189 1.053 1.053 0 0 1-.429-.912c.012-.377.174-.671.486-.883a1.053 1.053 0 0 1 1-.126c.355.128.585.373.69.735.105.362.042.692-.19.99-.23.298-.535.44-.912.429a1.053 1.053 0 0 1-.883-.486 1.053 1.053 0 0 1-.125-1c.127-.355.632-.96 1.513-1.814a184.01 184.01 0 0 1 2.29-2.19 24.954 24.954 0 0 1 2.22-1.833c.835-.617 1.74-1.14 2.718-1.567a12.311 12.311 0 0 1 3.053-.888 12.316 12.316 0 0 1 6.27.65c.999.378 1.934.877 2.804 1.497a12.307 12.307 0 0 1 4.03 4.847 12.31 12.31 0 0 1 1.115 6.203 12.317 12.317 0 0 1-.66 3.11 12.295 12.295 0 0 1-3.539 5.213 12.296 12.296 0 0 1-5.65 2.787 12.273 12.273 0 0 1-9.135-1.742 12.222 12.222 0 0 1-2.396-2.04c-.705-.777-1.225-1.433-1.56-1.966a12.592 12.592 0 0 1-.8-1.451c-.198-.434-.312-.775-.34-1.025-.03-.25.017-.484.14-.703.123-.22.3-.381.528-.486.228-.105.466-.133.712-.083l1.474 1.929Z"/></g><defs><clipPath id="a"><path fill="#fff" d="M0 0h30v30H0z"/></clipPath></defs></svg>