<svg width="30" height="30" fill="none" xmlns="http://www.w3.org/2000/svg"><path d="m7.05 13.862.887.21.886.209.884.351a12.46 12.46 0 0 1 4.697 3.296c.431.485.994 1.47 1.688 2.953.694 1.483 1.064 2.408 1.112 2.773a1.03 1.03 0 0 1-.33.929 1.03 1.03 0 0 1-.945.28 1.03 1.03 0 0 1-.781-.601 1.03 1.03 0 0 1 .027-.986 1.03 1.03 0 0 1 .812-.557 1.03 1.03 0 0 1 .929.33c.253.267.347.582.28.945a1.03 1.03 0 0 1-.602.781 1.03 1.03 0 0 1-.985-.026c-.324-.177-.772-.904-1.344-2.183-.572-1.278-1.214-2.302-1.927-3.072a9.812 9.812 0 0 0-2.414-1.908c-.895-.502-1.643-.848-2.243-1.037a9.168 9.168 0 0 0-1.766-.379c-.577-.063-.98-.146-1.206-.248a1.122 1.122 0 0 1-.525-.48 1.122 1.122 0 0 1-.143-.696 1.12 1.12 0 0 1 .294-.646l2.715-.238ZM8.659 6.38a1285191.753 1285191.753 0 0 0 2.982.855l1.469.643a22.59 22.59 0 0 1 2.842 1.495 21.647 21.647 0 0 1 4.913 4.181c.709.817 1.349 1.68 1.92 2.59.573.908 1.18 2.223 1.82 3.943.642 1.72.96 2.689.954 2.906a.607.607 0 0 1-.277.51.607.607 0 0 1-.576.076.607.607 0 0 1-.4-.422.607.607 0 0 1 .106-.57.607.607 0 0 1 .525-.25.607.607 0 0 1 .51.277c.123.179.148.37.076.575a.607.607 0 0 1-.422.4.607.607 0 0 1-.571-.106c-.172-.132-.566-1.034-1.182-2.704-.616-1.67-1.19-2.928-1.723-3.772a18.553 18.553 0 0 0-3.954-4.467 18.223 18.223 0 0 0-2.45-1.689 18.292 18.292 0 0 0-5.413-2.044 32.224 32.224 0 0 0-2.922-.45c-1.026-.111-1.64-.213-1.844-.304a1.002 1.002 0 0 1-.47-.426c-.11-.193-.153-.4-.129-.62.024-.222.111-.414.26-.58l3.956-.046ZM5.126 24.05l.02-.362.02-.362.23-.28c.152-.187.345-.312.578-.373.234-.062.463-.05.688.038.225.087.403.232.534.435.13.203.19.425.176.666a1.088 1.088 0 0 1-.249.642 1.088 1.088 0 0 1-.579.373 1.088 1.088 0 0 1-.688-.038l-.73-.74Z" fill="currentColor" stroke="currentColor" stroke-width="2" stroke-linecap="round" stroke-linejoin="round"/></svg>