<svg width="30" height="30" fill="none" xmlns="http://www.w3.org/2000/svg"><path d="m21.487 27.332-1.946-.172-1.947-.172-2.35-.152a65.33 65.33 0 0 0-4.33-.146c-1.319.003-2.375.013-3.167.03a12.05 12.05 0 0 1-2.18-.138c-.66-.108-1.232-.446-1.715-1.013-.482-.567-.795-1.391-.939-2.471-.143-1.08-.163-2.274-.06-3.58.104-1.308.202-2.745.293-4.314.091-1.569.134-3.013.129-4.333-.006-1.32-.016-2.375-.03-3.167-.015-.793.03-1.519.138-2.179.108-.66.432-1.232.974-1.714.541-.483 1.283-.804 2.225-.964a13.47 13.47 0 0 1 2.956-.16c1.03.053 2.16.117 3.393.192a67.14 67.14 0 0 0 3.41.128c1.04.01 1.932.077 2.677.201.745.124 1.565.488 2.458 1.093.894.605 1.629 1.19 2.205 1.754a27.91 27.91 0 0 1 1.66 1.773c.53.619.982 1.39 1.356 2.316.373.926.543 1.927.51 3.005a142.872 142.872 0 0 1-.152 3.475 71.306 71.306 0 0 0-.113 3.416 59.53 59.53 0 0 0 .026 2.532 7.746 7.746 0 0 1-.16 1.904 2.953 2.953 0 0 1-.865 1.564c-.446.424-.81.735-1.093.933a.964.964 0 0 1-.913.126.964.964 0 0 1-.64-.664.964.964 0 0 1 .162-.908.964.964 0 0 1 .83-.403.964.964 0 0 1 .813.434c.198.283.24.588.127.914a.964.964 0 0 1-.665.64.964.964 0 0 1-.908-.162.964.964 0 0 1-.403-.83c.007-.345.346-.866 1.017-1.562.67-.696 1.055-1.363 1.153-2.002.098-.639.142-1.477.133-2.514a64.674 64.674 0 0 0-.127-3.4 37.47 37.47 0 0 0-.473-3.961c-.24-1.41-.593-2.497-1.06-3.263a10.378 10.378 0 0 0-1.539-1.981 186.54 186.54 0 0 0-1.718-1.682c-.587-.566-1.193-.934-1.818-1.106-.626-.171-1.455-.251-2.49-.241-1.033.01-2.166.053-3.399.128-1.232.076-2.36.14-3.384.195a35.903 35.903 0 0 0-2.791.25c-.838.11-1.433.406-1.787.886-.354.48-.565 1.104-.632 1.872-.068.769-.104 1.813-.11 3.132-.005 1.32.038 2.764.13 4.332.091 1.569.19 3.004.295 4.306a70.68 70.68 0 0 0 .349 3.413c.127.973.43 1.648.91 2.025.48.377 1.104.6 1.872.67.768.069 1.811.105 3.13.108a65.22 65.22 0 0 0 4.33-.147c1.567-.1 2.999-.209 4.297-.324 1.297-.114 2.324-.172 3.078-.172.755 0 1.242.036 1.463.108.22.071.399.2.535.388s.204.398.204.63c0 .231-.068.44-.204.628l-3.13.496Z" fill="currentColor" stroke="currentColor" stroke-width="2" stroke-linecap="round" stroke-linejoin="round"/><path d="M19.913 24.841s.01-.37.027-1.112l.026-1.112.052-1.343c.035-.896-.05-1.695-.25-2.398-.203-.702-.765-1.163-1.69-1.383-.923-.22-1.94-.362-3.051-.427-1.111-.064-2.119-.018-3.023.14-.904.157-1.525.611-1.864 1.363-.337.751-.518 1.887-.54 3.408-.022 1.52-.1 2.406-.232 2.66a.798.798 0 0 1-.622.442.798.798 0 0 1-.724-.243.798.798 0 0 1-.229-.729.798.798 0 0 1 .455-.613.798.798 0 0 1 .764.008c.253.132.4.34.443.622a.798.798 0 0 1-.244.724.798.798 0 0 1-.728.229.798.798 0 0 1-.614-.456c-.127-.255-.192-1.154-.196-2.697-.004-1.542.138-2.858.427-3.948.288-1.09.75-1.794 1.387-2.11.636-.317 1.443-.488 2.418-.514.976-.027 2.028-.066 3.155-.118 1.127-.053 2.35.017 3.666.21 1.316.192 2.197.583 2.641 1.173.444.59.69 1.29.735 2.1a170.168 170.168 0 0 1 .198 5.013c.018.74.027 1.327.027 1.758 0 .431-.038.765-.115 1.002a1.12 1.12 0 0 1-.417.574 1.12 1.12 0 0 1-.675.219 1.12 1.12 0 0 1-.675-.22l-.532-2.222ZM11.027 4.554a3614.066 3614.066 0 0 0 .024 1.39l.203.828c.136.552.52 1.022 1.154 1.41.633.387 1.712.601 3.237.643 1.524.041 2.435.139 2.733.292a.936.936 0 0 1 .523.728.936.936 0 0 1-.282.85.936.936 0 0 1-.853.273.936.936 0 0 1-.722-.53.936.936 0 0 1 .004-.896.936.936 0 0 1 .728-.523.936.936 0 0 1 .85.281.936.936 0 0 1 .273.854.936.936 0 0 1-.53.722c-.3.15-1.218.242-2.757.274-1.538.032-2.848-.025-3.93-.173-1.08-.148-1.842-.67-2.285-1.565-.442-.896-.69-1.697-.742-2.405a19.803 19.803 0 0 1-.068-1.758c.008-.463.012-.83.012-1.1 0-.269.039-.522.116-.76.077-.238.217-.43.42-.577.202-.147.428-.22.678-.22.25 0 .476.073.678.22l.536 1.742Z" fill="currentColor" stroke="currentColor" stroke-width="2" stroke-linecap="round" stroke-linejoin="round"/></svg>