<svg width="30" height="30" fill="none" xmlns="http://www.w3.org/2000/svg"><path d="m12.153 8.918-.296.637-.295.637-.674.612c-.45.408-1.143.76-2.082 1.058a4.49 4.49 0 0 1-2.826-.02 4.43 4.43 0 0 1-2.28-1.678 4.533 4.533 0 0 1-.852-2.73 4.504 4.504 0 0 1 .904-2.72 4.526 4.526 0 0 1 2.336-1.656c.962-.302 2.079-.11 3.351.577 1.272.686 2.052 1.192 2.34 1.515.288.324.386.698.293 1.12a1.21 1.21 0 0 1-.735.896 1.21 1.21 0 0 1-1.155-.068 1.21 1.21 0 0 1-.625-.975 1.21 1.21 0 0 1 .422-1.078 1.21 1.21 0 0 1 1.12-.293c.423.093.722.338.895.734a1.21 1.21 0 0 1-.068 1.156 1.21 1.21 0 0 1-.975.625c-.43.042-1.03-.239-1.798-.844-.768-.606-1.475-.838-2.12-.698s-1.083.51-1.315 1.114a1.826 1.826 0 0 0 .17 1.72c.345.543.852.835 1.52.873.67.039 1.21-.108 1.623-.442.413-.333.673-.7.78-1.102.107-.401.221-.718.343-.95.121-.23.3-.405.534-.52.234-.117.48-.153.738-.109s.479.16.661.347l.067 2.262Zm0 15-.296.637-.295.637-.674.612c-.45.408-1.143.76-2.082 1.058a4.49 4.49 0 0 1-2.826-.02 4.43 4.43 0 0 1-2.28-1.678 4.533 4.533 0 0 1-.852-2.73 4.504 4.504 0 0 1 .904-2.72 4.526 4.526 0 0 1 2.336-1.656c.962-.302 2.079-.11 3.351.577 1.272.686 2.052 1.192 2.34 1.515.288.324.386.698.293 1.12a1.21 1.21 0 0 1-.735.896 1.21 1.21 0 0 1-1.155-.068 1.21 1.21 0 0 1-.625-.975 1.21 1.21 0 0 1 .422-1.078 1.21 1.21 0 0 1 1.12-.293c.423.093.722.338.895.734a1.21 1.21 0 0 1-.068 1.156 1.21 1.21 0 0 1-.975.625c-.43.042-1.03-.239-1.798-.844-.768-.606-1.475-.838-2.12-.698s-1.083.51-1.315 1.113c-.232.603-.175 1.177.17 1.72.345.544.852.836 1.52.874.67.039 1.21-.108 1.623-.441.413-.334.673-.701.78-1.102.107-.402.221-.719.343-.95.121-.232.3-.406.534-.522.234-.116.48-.152.738-.108s.479.16.661.347l.067 2.262Zm9.989-14.534-1.798 1.505-1.799 1.506-3.478 3.343c-2.319 2.229-3.546 3.365-3.68 3.409a.396.396 0 0 1-.376-.06.396.396 0 0 1-.172-.337c0-.142.058-.255.172-.338a.396.396 0 0 1 .375-.06.396.396 0 0 1 .268.269.396.396 0 0 1-.06.374.396.396 0 0 1-.337.172.396.396 0 0 1-.338-.172.396.396 0 0 1-.06-.374c.045-.135 1.18-1.362 3.41-3.681 2.228-2.32 3.845-4.078 4.848-5.277 1.004-1.199 1.826-2.119 2.466-2.76.64-.64 1.06-1.01 1.257-1.11a.997.997 0 0 1 .623-.1c.22.035.407.131.563.287a.997.997 0 0 1 .287.563l-2.17 2.841Zm-1.562 9.49a152786.444 152786.444 0 0 0 1.505 1.568l1.558 1.614c1.039 1.077 1.608 1.77 1.71 2.08a.91.91 0 0 1-.136.861.91.91 0 0 1-.776.396.91.91 0 0 1-.777-.395.91.91 0 0 1-.137-.86.91.91 0 0 1 .616-.617.91.91 0 0 1 .86.136.91.91 0 0 1 .397.776.91.91 0 0 1-.395.777.91.91 0 0 1-.86.137c-.31-.1-1.005-.67-2.084-1.706a1561.665 1561.665 0 0 0-2.402-2.306c-.524-.5-.935-.9-1.233-1.197-.298-.298-.504-.558-.617-.78a1.122 1.122 0 0 1-.112-.7c.04-.246.146-.457.322-.634a1.13 1.13 0 0 1 .633-.323l1.928 1.173Z" fill="currentColor" stroke="currentColor" stroke-width="2" stroke-linecap="round" stroke-linejoin="round"/><path d="m12.126 10.401.545.534.545.534 1.11 1.118c.74.746 1.167 1.294 1.28 1.644a1.03 1.03 0 0 1-.153.974 1.03 1.03 0 0 1-.879.447 1.03 1.03 0 0 1-.878-.447 1.03 1.03 0 0 1-.154-.974 1.03 1.03 0 0 1 .697-.697 1.03 1.03 0 0 1 .973.155c.299.216.448.51.448.878 0 .369-.15.661-.448.878a1.03 1.03 0 0 1-.973.154c-.35-.114-.899-.54-1.644-1.28-.746-.74-1.296-1.292-1.652-1.655-.356-.364-.639-.65-.848-.86a2.546 2.546 0 0 1-.484-.647 1.127 1.127 0 0 1-.112-.705c.04-.247.148-.46.324-.636a1.13 1.13 0 0 1 .636-.324l1.667.91Z" fill="currentColor" stroke="currentColor" stroke-width="2" stroke-linecap="round" stroke-linejoin="round"/></svg>