<svg width="30" height="30" fill="none" xmlns="http://www.w3.org/2000/svg"><path d="m23.873 16.999-.775 1.384-.775 1.385-1.146 1.144a10.8 10.8 0 0 1-2.595 1.91c-.965.51-1.995.862-3.09 1.056-1.095.195-2.19.218-3.286.072a10.51 10.51 0 0 1-3.11-.912 10.26 10.26 0 0 1-2.64-1.787 10.115 10.115 0 0 1-3.046-5.56 10.411 10.411 0 0 1-.095-3.265c.14-1.093.44-2.127.896-3.102a10.194 10.194 0 0 1 1.776-2.638 10.094 10.094 0 0 1 5.55-3.049 10.397 10.397 0 0 1 3.265-.096c1.092.14 2.126.437 3.1.893.976.456 2.053 1.356 3.233 2.7 1.18 1.346 1.815 2.12 1.905 2.322a.62.62 0 0 1-.033.591.619.619 0 0 1-.498.321.619.619 0 0 1-.552-.213.619.619 0 0 1-.151-.573.619.619 0 0 1 .374-.459c.203-.09.4-.078.591.033a.619.619 0 0 1 .321.498.619.619 0 0 1-.214.552.619.619 0 0 1-.572.151c-.217-.046-.868-.717-1.953-2.012-1.085-1.296-2.044-2.151-2.878-2.568a8.733 8.733 0 0 0-2.663-.83 8.907 8.907 0 0 0-2.82.037 8.89 8.89 0 0 0-4.846 2.532 8.775 8.775 0 0 0-2.42 4.9 8.893 8.893 0 0 0 .04 2.818A8.867 8.867 0 0 0 7.3 20.071a8.713 8.713 0 0 0 4.89 2.394c.937.13 1.87.11 2.798-.06a8.63 8.63 0 0 0 4.728-2.555 8.695 8.695 0 0 0 1.496-2.156c.383-.783.686-1.68.91-2.692.224-1.011.393-1.611.506-1.8a.994.994 0 0 1 .475-.414.994.994 0 0 1 .627-.055c.215.05.394.157.54.324l-.398 3.942Z" fill="currentColor" stroke="currentColor" stroke-width="2" stroke-linecap="round" stroke-linejoin="round"/><path d="m24.129 25.853-.606-.604-.605-.605-1.239-1.259c-.826-.84-1.294-1.43-1.405-1.771-.11-.342-.06-.658.15-.948.211-.29.496-.436.855-.436.36 0 .645.145.856.436.21.29.26.606.15.948a1.003 1.003 0 0 1-.679.678 1.003 1.003 0 0 1-.948-.15 1.003 1.003 0 0 1-.436-.855c0-.36.146-.644.436-.855.29-.211.607-.261.948-.15.342.11.932.579 1.772 1.405a313.314 313.314 0 0 1 2.82 2.8c.234.235.408.464.521.687.114.223.15.458.112.705a1.13 1.13 0 0 1-.324.635 1.127 1.127 0 0 1-.636.324l-1.742-.985Z" fill="currentColor" stroke="currentColor" stroke-width="2" stroke-linecap="round" stroke-linejoin="round"/></svg>