<svg width="30" height="30" fill="none" xmlns="http://www.w3.org/2000/svg"><path d="m24.893 6.664-1.666 1.392-1.667 1.392-3.243 3.074c-2.162 2.049-3.31 3.095-3.445 3.14a.397.397 0 0 1-.375-.06.396.396 0 0 1-.172-.338c0-.142.058-.255.172-.338a.397.397 0 0 1 .375-.06.397.397 0 0 1 .268.269.396.396 0 0 1-.06.374.396.396 0 0 1-.337.172.396.396 0 0 1-.338-.172.397.397 0 0 1-.06-.374c.045-.135 1.091-1.284 3.14-3.445 2.05-2.162 3.538-3.799 4.466-4.91.928-1.111 1.689-1.963 2.282-2.556s.99-.94 1.19-1.043a1.02 1.02 0 0 1 .637-.101c.223.035.415.133.574.292.16.16.258.351.293.574l-2.034 2.718Z" fill="currentColor" stroke="currentColor" stroke-width="2" stroke-linecap="round" stroke-linejoin="round"/><path d="m27.05 7.51-1.21 2.698-1.21 2.698-1.183 3.355c-.79 2.236-1.526 4.306-2.21 6.208-.683 1.901-1.315 3.228-1.894 3.98-.58.75-1.227.722-1.94-.087a11.638 11.638 0 0 1-1.78-2.698 51.593 51.593 0 0 0-1.432-2.786c-.481-.866-1.03-1.584-1.648-2.153a8.451 8.451 0 0 0-2.136-1.427c-.808-.382-1.708-.813-2.7-1.294a221.464 221.464 0 0 0-3.573-1.684c-1.389-.642-2.101-1.048-2.137-1.218a.783.783 0 0 1 .052-.493.782.782 0 0 1 .332-.368c.15-.086.5-.226 1.05-.42a16160.456 16160.456 0 0 0 13.214-4.645c3.82-1.344 5.802-2.007 5.942-1.988a.4.4 0 0 1 .313.215.4.4 0 0 1 .009.38.396.396 0 0 1-.301.23.396.396 0 0 1-.364-.108.396.396 0 0 1-.126-.358.396.396 0 0 1 .215-.312.396.396 0 0 1 .38-.01.396.396 0 0 1 .23.301.396.396 0 0 1-.108.364c-.098.103-2.056.826-5.875 2.169-3.818 1.343-6.61 2.382-8.375 3.117-1.765.735-3.183 1.26-4.255 1.574-1.072.314-1.72.494-1.943.539-.224.045-.354-.017-.39-.187a.783.783 0 0 1 .052-.493.782.782 0 0 1 .332-.368c.15-.086.929.173 2.336.777 1.407.605 2.625 1.12 3.653 1.549 1.028.428 1.984.848 2.87 1.262a6.54 6.54 0 0 1 2.313 1.83 12.878 12.878 0 0 1 1.663 2.641c.451.954.893 1.928 1.325 2.922.433.994.86 1.86 1.279 2.596.42.736.8.769 1.14.097.341-.671.83-1.94 1.465-3.808a1072.05 1072.05 0 0 1 2.12-6.162 79.714 79.714 0 0 0 1.904-6.224c.491-1.909.925-3.402 1.303-4.48.377-1.079.627-1.699.75-1.86a.917.917 0 0 1 .478-.331.917.917 0 0 1 .58.013.916.916 0 0 1 .462.352L27.05 7.51Z" fill="currentColor"/><path d="M2.049 12.61a.783.783 0 0 0-.052.492c.036.17.748.576 2.137 1.218s2.58 1.203 3.572 1.684c.993.481 1.893.912 2.7 1.294.808.382 1.52.857 2.137 1.427.617.57 1.167 1.287 1.648 2.153.481.866.958 1.795 1.432 2.786.473.99 1.066 1.89 1.78 2.698.713.809 1.36.837 1.94.086.58-.751 1.21-2.078 1.895-3.98.683-1.901 1.42-3.97 2.209-6.207l1.184-3.355 1.21-2.698C26.645 8.41 27.05 7.51 27.05 7.51l.972-4.095a.916.916 0 0 0-.462-.352.917.917 0 0 0-.58-.013.917.917 0 0 0-.477.33c-.124.162-.374.782-.751 1.86-.378 1.079-.812 2.572-1.303 4.481a79.714 79.714 0 0 1-1.904 6.224 1072.05 1072.05 0 0 0-2.12 6.162c-.636 1.867-1.124 3.137-1.464 3.808-.341.672-.721.64-1.141-.097a27.214 27.214 0 0 1-1.279-2.596 102.14 102.14 0 0 0-1.325-2.922 12.878 12.878 0 0 0-1.663-2.64 6.54 6.54 0 0 0-2.314-1.83 73.618 73.618 0 0 0-2.87-1.263 356.485 356.485 0 0 1-3.652-1.549c-1.407-.604-2.186-.863-2.336-.777a.782.782 0 0 0-.332.368Zm0 0a.782.782 0 0 1 .332-.369c.15-.086.5-.226 1.05-.42a16160.456 16160.456 0 0 0 13.214-4.645c3.82-1.344 5.802-2.007 5.942-1.988a.4.4 0 0 1 .313.215.4.4 0 0 1 .009.38.396.396 0 0 1-.301.23.396.396 0 0 1-.364-.108.396.396 0 0 1-.126-.358.396.396 0 0 1 .215-.312.396.396 0 0 1 .38-.01.396.396 0 0 1 .23.301.396.396 0 0 1-.108.364c-.098.103-2.056.826-5.875 2.169-3.818 1.343-6.61 2.382-8.375 3.117-1.765.735-3.183 1.26-4.255 1.574-1.072.314-1.72.494-1.943.539-.224.045-.354-.017-.39-.187a.783.783 0 0 1 .052-.493Z" stroke="currentColor" stroke-width="2" stroke-linecap="round" stroke-linejoin="round"/></svg>