<svg width="30" height="30" fill="none" xmlns="http://www.w3.org/2000/svg"><g clip-path="url(#a)" fill="currentColor" stroke="currentColor" stroke-width="2" stroke-linecap="round" stroke-linejoin="round"><path d="M7.595 1.397a457396.153 457396.153 0 0 0 4.449.398l2.686.111c1.791.074 3.44.111 4.948.111 1.508 0 2.714.01 3.62.028.905.018 1.718.108 2.438.27.72.162 1.296.523 1.726 1.083.431.56.726 1.307.885 2.242.16.934.237 1.847.233 2.737a9.616 9.616 0 0 1-.343 2.545c-.224.807-.666 1.432-1.324 1.876-.659.444-1.559.7-2.7.771-1.143.07-2.466.03-3.97-.123a95.409 95.409 0 0 0-4.95-.36 101.796 101.796 0 0 0-4.954-.132 192.4 192.4 0 0 1-3.622-.026 12.336 12.336 0 0 1-2.44-.268c-.721-.161-1.297-.522-1.728-1.083-.431-.56-.727-1.309-.886-2.244a16.492 16.492 0 0 1-.243-2.695c-.004-.862.21-1.752.64-2.67.43-.92.756-1.543.978-1.872a1.11 1.11 0 0 1 .928-.512c.397-.014.717.136.96.449.244.313.311.66.202 1.041a1.11 1.11 0 0 1-.725.775 1.108 1.108 0 0 1-1.052-.131 1.108 1.108 0 0 1-.513-.928 1.108 1.108 0 0 1 .45-.96c.313-.244.66-.311 1.04-.201.382.11.64.35.775.724.135.373-.023.865-.474 1.477-.451.612-.728 1.245-.83 1.898a19.64 19.64 0 0 0-.207 2.116 9.3 9.3 0 0 0 .133 2.14c.124.67.447 1.152.968 1.449.521.296 1.215.468 2.082.514.867.047 2.055.07 3.563.07 1.509 0 3.16-.045 4.953-.135 1.793-.089 3.614-.218 5.462-.388 1.849-.169 3.178-.446 3.989-.83.81-.385 1.285-.88 1.423-1.489.138-.607.225-1.29.26-2.047a9.313 9.313 0 0 0-.133-2.142c-.124-.67-.447-1.154-.969-1.45-.522-.295-1.216-.466-2.083-.512a71.113 71.113 0 0 0-3.562-.07c-1.508 0-3.157.038-4.948.112-1.79.074-3.428.177-4.91.31-1.484.132-2.657.199-3.52.199-.862 0-1.4-.035-1.613-.104a1.01 1.01 0 0 1-.517-.376 1.01 1.01 0 0 1-.198-.609c0-.224.066-.427.198-.609l3.425-.48Zm0 15a38248.59 38248.59 0 0 0 4.449.398l2.686.111c1.791.074 3.44.111 4.948.111 1.508 0 2.714.01 3.62.028.905.018 1.718.108 2.438.27.72.162 1.296.523 1.726 1.083.431.56.726 1.307.885 2.242.16.934.237 1.847.233 2.737a9.616 9.616 0 0 1-.343 2.545c-.224.807-.666 1.432-1.324 1.876-.659.444-1.559.7-2.7.771-1.143.07-2.466.03-3.97-.123a95.409 95.409 0 0 0-4.95-.36 101.796 101.796 0 0 0-4.954-.132 192.4 192.4 0 0 1-3.622-.026 12.336 12.336 0 0 1-2.44-.268c-.721-.161-1.297-.522-1.728-1.083-.431-.56-.727-1.309-.886-2.244a16.493 16.493 0 0 1-.243-2.695c-.004-.862.21-1.752.64-2.67.43-.92.756-1.543.978-1.872a1.11 1.11 0 0 1 .928-.512c.397-.014.717.136.96.449.244.313.311.66.202 1.041-.11.381-.352.64-.725.774a1.108 1.108 0 0 1-1.052-.13 1.108 1.108 0 0 1-.513-.928 1.108 1.108 0 0 1 .45-.96c.313-.244.66-.311 1.04-.201.382.11.64.35.775.724.135.373-.023.865-.474 1.477-.451.612-.728 1.245-.83 1.898a19.643 19.643 0 0 0-.207 2.116 9.3 9.3 0 0 0 .133 2.14c.124.67.447 1.152.968 1.449.521.297 1.215.468 2.082.514.867.047 2.055.07 3.563.07 1.509 0 3.16-.045 4.953-.135 1.793-.089 3.614-.218 5.462-.388 1.849-.169 3.178-.446 3.989-.83.81-.385 1.285-.88 1.423-1.489.138-.607.225-1.29.26-2.047a9.313 9.313 0 0 0-.133-2.143c-.124-.67-.447-1.153-.969-1.449-.522-.295-1.216-.466-2.083-.512a71.122 71.122 0 0 0-3.562-.07c-1.508 0-3.157.038-4.948.112-1.79.074-3.428.177-4.91.31-1.484.132-2.657.199-3.52.199-.862 0-1.4-.035-1.613-.104a1.01 1.01 0 0 1-.517-.377 1.01 1.01 0 0 1-.198-.608c0-.224.066-.427.198-.609l3.425-.48Z"/><path d="M7.506 6.355a7814.231 7814.231 0 0 0 .69.224l.212.294c.142.195.213.413.213.655 0 .242-.07.46-.213.655-.142.196-.327.33-.557.406a1.1 1.1 0 0 1-.69 0 1.089 1.089 0 0 1-.557-.406 1.089 1.089 0 0 1-.213-.655c0-.242.071-.46.213-.655l.902-.518Zm0 15a31877.703 31877.703 0 0 0 .69.224l.212.293c.142.196.213.414.213.656 0 .242-.07.46-.213.655-.142.196-.327.33-.557.406a1.09 1.09 0 0 1-.69 0 1.089 1.089 0 0 1-.557-.405 1.089 1.089 0 0 1-.213-.656c0-.242.071-.46.213-.655l.902-.518Z"/></g><defs><clipPath id="a"><path fill="#fff" d="M0 0h30v30H0z"/></clipPath></defs></svg>