<svg width="30" height="30" fill="none" xmlns="http://www.w3.org/2000/svg"><g clip-path="url(#a)" fill="currentColor" stroke="currentColor" stroke-width="2" stroke-linecap="round" stroke-linejoin="round"><path d="m19.653 16.418-.295.637-.296.637-.674.612c-.45.408-1.143.76-2.082 1.058a4.49 4.49 0 0 1-2.826-.02 4.43 4.43 0 0 1-2.281-1.678 4.532 4.532 0 0 1-.852-2.73 4.504 4.504 0 0 1 .904-2.72 4.526 4.526 0 0 1 2.336-1.656c.962-.302 2.079-.11 3.351.577 1.272.687 2.052 1.192 2.34 1.515.288.324.386.698.293 1.12a1.21 1.21 0 0 1-.735.896 1.21 1.21 0 0 1-1.155-.068 1.21 1.21 0 0 1-.625-.975 1.21 1.21 0 0 1 .422-1.078 1.21 1.21 0 0 1 1.12-.293c.423.093.722.337.895.734a1.21 1.21 0 0 1-.067 1.156 1.21 1.21 0 0 1-.976.625c-.43.042-1.03-.239-1.798-.844-.768-.606-1.475-.838-2.12-.698s-1.083.51-1.315 1.114a1.826 1.826 0 0 0 .17 1.72c.345.543.852.835 1.52.873.67.039 1.21-.108 1.623-.441.413-.334.673-.701.78-1.102.107-.402.222-.719.343-.95.122-.232.3-.406.534-.522a1.18 1.18 0 0 1 .738-.108c.258.044.479.16.661.347l.067 2.262Z"/><path d="M25.432 19.593a2216.734 2216.734 0 0 0 .572.947l.303.618c.203.413.322.966.357 1.66a3.737 3.737 0 0 1-.421 1.95c-.316.606-.733 1.076-1.252 1.41a3.8 3.8 0 0 1-1.71.594 9.596 9.596 0 0 1-1.848.006 2.566 2.566 0 0 0-1.692.419c-.516.337-.95.768-1.3 1.294a3.983 3.983 0 0 1-1.363 1.262 3.956 3.956 0 0 1-1.797.52 3.947 3.947 0 0 1-1.837-.352 3.96 3.96 0 0 1-1.476-1.149 33.042 33.042 0 0 1-1.08-1.421c-.319-.446-.807-.624-1.464-.533-.657.09-1.31.164-1.957.22a4.004 4.004 0 0 1-1.877-.285 4.01 4.01 0 0 1-1.543-1.106 4.016 4.016 0 0 1-.874-1.688 4.07 4.07 0 0 1-.022-1.894 49.5 49.5 0 0 0 .346-1.65c.088-.47-.185-.861-.82-1.173a6.953 6.953 0 0 1-1.665-1.124A4.01 4.01 0 0 1-.041 16.55a4.001 4.001 0 0 1-.23-1.876A3.987 3.987 0 0 1 .376 12.9a4.08 4.08 0 0 1 1.365-1.294 45.935 45.935 0 0 0 1.425-.863c.396-.252.477-.695.243-1.329a7.326 7.326 0 0 1-.435-1.925 4.02 4.02 0 0 1 .286-1.88 4.018 4.018 0 0 1 1.109-1.545 4.022 4.022 0 0 1 1.69-.874 4.075 4.075 0 0 1 1.897-.022c.63.142 1.185.258 1.664.347.478.089.885-.184 1.22-.818A7.83 7.83 0 0 1 12 1.031 4.013 4.013 0 0 1 13.57-.02a4.004 4.004 0 0 1 1.877-.23 3.99 3.99 0 0 1 1.775.646c.539.357.97.813 1.293 1.37.324.556.607 1.035.85 1.437.242.4.668.48 1.278.238a6.605 6.605 0 0 1 1.888-.446c.65-.055 1.276.04 1.88.286a4.02 4.02 0 0 1 1.546 1.109 4.01 4.01 0 0 1 .874 1.691 4.07 4.07 0 0 1 .022 1.897c-.143.63-.258 1.185-.347 1.664-.09.478.184.885.818 1.22a7.78 7.78 0 0 1 1.665 1.16 4.01 4.01 0 0 1 1.053 1.57c.226.606.303 1.232.23 1.876a3.989 3.989 0 0 1-.646 1.775c-.357.54-.814.97-1.37 1.294a8.933 8.933 0 0 1-1.727.775c-.594.194-1.077.442-1.45.747-.371.304-.811.373-1.319.207a1.492 1.492 0 0 1-1.007-1.013 1.492 1.492 0 0 1 .227-1.41c.315-.43.74-.645 1.274-.644.534.001.958.218 1.27.651.313.433.387.903.22 1.411a1.492 1.492 0 0 1-1.012 1.007 1.492 1.492 0 0 1-1.41-.227 1.492 1.492 0 0 1-.644-1.274 1.49 1.49 0 0 1 .651-1.27c.433-.313 1.005-.854 1.716-1.623.711-.768.876-1.262.493-1.481-.382-.22-.86-.52-1.435-.902a3.755 3.755 0 0 1-1.3-1.424c-.29-.568-.41-1.203-.357-1.905.052-.702.139-1.423.26-2.162.122-.739-.01-1.081-.397-1.027a16.16 16.16 0 0 0-1.616.344 3.967 3.967 0 0 1-2.065-.022 3.48 3.48 0 0 1-1.726-1.078 27.958 27.958 0 0 0-1.445-1.528c-.498-.489-.859-.55-1.081-.183a44.68 44.68 0 0 1-.906 1.413 3.754 3.754 0 0 1-1.425 1.298c-.568.291-1.203.41-1.905.359a26.277 26.277 0 0 0-2.122-.071c-.713.004-1.029.21-.947.617.081.406.18.954.296 1.643.115.688.048 1.36-.2 2.016a3.52 3.52 0 0 1-1.235 1.616 26.95 26.95 0 0 0-1.603 1.271c-.496.427-.57.743-.22.948.35.205.83.476 1.44.814.611.338 1.1.813 1.467 1.424.367.61.535 1.277.504 1.998a40.06 40.06 0 0 0-.036 2.154c.007.715.214 1.033.62.954.408-.08.954-.177 1.64-.292a3.787 3.787 0 0 1 2.009.202 3.503 3.503 0 0 1 1.607 1.23c.418.57.849 1.106 1.293 1.607.444.5.774.577.991.229.217-.349.493-.822.828-1.421a3.79 3.79 0 0 1 1.4-1.43 3.401 3.401 0 0 1 1.946-.479 6.45 6.45 0 0 1 2.077.462c.686.273 1.13.212 1.333-.182.203-.395.238-.802.108-1.223-.131-.42-.24-.82-.327-1.2a3.208 3.208 0 0 1-.063-1.117c.046-.364.072-.618.081-.76.01-.141.09-.318.246-.53.155-.211.357-.357.607-.437.25-.08.499-.08.748.002.25.082.45.23.604.442l.201 1.531Z"/></g><defs><clipPath id="a"><path fill="#fff" d="M0 0h30v30H0z"/></clipPath></defs></svg>