<svg width="30" height="30" fill="none" xmlns="http://www.w3.org/2000/svg"><path d="m6.22 16.23-.026 1.112-.026 1.113-.052 1.343a68.436 68.436 0 0 0-.053 2.55c-.001.804.12 1.5.361 2.09.242.588.805 1.018 1.689 1.29.884.271 1.883.457 3 .558 1.115.1 2.345.203 3.69.31 1.344.106 2.582.17 3.713.192 1.13.023 2.035-.014 2.713-.11a2.782 2.782 0 0 0 1.71-.902c.463-.505.733-1.357.808-2.555.076-1.199.13-2.565.16-4.098.031-1.532.12-2.442.265-2.728a.896.896 0 0 1 .694-.503.896.896 0 0 1 .816.265.896.896 0 0 1 .264.816.896.896 0 0 1-.504.693.896.896 0 0 1-.857 0 .896.896 0 0 1-.504-.694.896.896 0 0 1 .265-.816.896.896 0 0 1 .816-.264c.316.05.548.218.693.504.146.286.234 1.196.264 2.73.03 1.533.054 2.676.072 3.428a10.67 10.67 0 0 1-.22 2.357c-.166.819-.494 1.498-.987 2.036-.493.539-1.062.872-1.709.999a8.566 8.566 0 0 1-2.016.148 47.113 47.113 0 0 0-2.743-.01 63.18 63.18 0 0 0-3.715.192c-1.345.105-2.578.208-3.7.306-1.123.099-2.066.141-2.83.127a4.783 4.783 0 0 1-2.127-.524 3.486 3.486 0 0 1-1.51-1.491 4.925 4.925 0 0 1-.593-2.053 42.702 42.702 0 0 1-.07-2.283 78.82 78.82 0 0 0-.06-2.56c-.034-.896-.06-1.714-.078-2.456a77.86 77.86 0 0 1-.026-1.759c0-.431.038-.765.115-1.002a1.12 1.12 0 0 1 .417-.573 1.12 1.12 0 0 1 .675-.22c.248 0 .473.073.674.22l.533 2.222Zm11.786-9.008-.56-.551-.561-.552-.661-.742c-.44-.494-.9-.863-1.38-1.108-.48-.244-1.19.148-2.13 1.178s-1.593 1.595-1.959 1.697a1.06 1.06 0 0 1-.993-.202 1.06 1.06 0 0 1-.421-.922 1.06 1.06 0 0 1 .498-.883 1.06 1.06 0 0 1 1.008-.116c.355.133.584.382.685.747a1.06 1.06 0 0 1-.201.994 1.06 1.06 0 0 1-.923.421 1.06 1.06 0 0 1-.883-.498 1.06 1.06 0 0 1-.115-1.008c.133-.355.58-.917 1.344-1.686.763-.768 1.528-1.372 2.295-1.811.768-.44 1.601-.441 2.502-.006.9.435 1.636.912 2.21 1.431.572.52 1.043.966 1.41 1.34.368.373.66.668.876.884.215.215.38.434.493.657.114.223.151.458.112.705a1.13 1.13 0 0 1-.324.636 1.127 1.127 0 0 1-.636.324l-1.686-.929Z" fill="currentColor" stroke="currentColor" stroke-width="2" stroke-linecap="round" stroke-linejoin="round"/><path d="m16.145 6.422-.144 1.808-.145 1.807-.138 3.733c-.093 2.488-.179 3.81-.258 3.966a.49.49 0 0 1-.38.276.49.49 0 0 1-.445-.145.49.49 0 0 1-.144-.445.49.49 0 0 1 .275-.38.49.49 0 0 1 .468 0 .49.49 0 0 1 .275.38.49.49 0 0 1-.144.445.49.49 0 0 1-.446.145.49.49 0 0 1-.379-.276c-.08-.156-.165-1.478-.258-3.966-.092-2.489-.186-4.335-.283-5.54-.096-1.205-.144-2.158-.144-2.859 0-.7.037-1.163.11-1.388.072-.224.204-.405.395-.544.19-.139.404-.208.64-.208s.45.07.64.208l.505 2.983Z" fill="currentColor" stroke="currentColor" stroke-width="2" stroke-linecap="round" stroke-linejoin="round"/></svg>