<svg width="30" height="30" fill="none" xmlns="http://www.w3.org/2000/svg"><path d="m27.153 7.668-.295.637-.296.637-.674.612c-.45.408-1.143.76-2.082 1.058a4.49 4.49 0 0 1-2.826-.02 4.43 4.43 0 0 1-2.28-1.678 4.532 4.532 0 0 1-.852-2.73 4.504 4.504 0 0 1 .904-2.72 4.526 4.526 0 0 1 2.336-1.656c.962-.302 2.079-.11 3.351.577 1.272.686 2.052 1.192 2.34 1.515.288.324.386.698.293 1.12a1.21 1.21 0 0 1-.735.896 1.21 1.21 0 0 1-1.155-.068 1.21 1.21 0 0 1-.625-.975 1.21 1.21 0 0 1 .422-1.078 1.21 1.21 0 0 1 1.12-.293c.423.093.722.338.895.734a1.21 1.21 0 0 1-.067 1.156 1.21 1.21 0 0 1-.976.625c-.43.042-1.03-.239-1.798-.844-.768-.606-1.475-.838-2.12-.698s-1.083.51-1.315 1.114a1.826 1.826 0 0 0 .17 1.72c.345.543.852.835 1.52.873.67.039 1.21-.108 1.623-.442.413-.333.673-.7.78-1.102a4.71 4.71 0 0 1 .343-.95c.122-.23.3-.405.534-.52.235-.117.48-.153.738-.109s.479.16.661.347l.067 2.262Zm-15 8.75-.296.637-.295.637-.674.612c-.45.408-1.143.76-2.082 1.058a4.49 4.49 0 0 1-2.826-.02 4.43 4.43 0 0 1-2.28-1.678 4.533 4.533 0 0 1-.852-2.73 4.504 4.504 0 0 1 .904-2.72 4.526 4.526 0 0 1 2.336-1.656c.962-.302 2.079-.11 3.351.577 1.272.687 2.052 1.192 2.34 1.515.288.324.386.698.293 1.12a1.21 1.21 0 0 1-.735.896 1.21 1.21 0 0 1-1.155-.068 1.21 1.21 0 0 1-.625-.975 1.21 1.21 0 0 1 .422-1.078 1.21 1.21 0 0 1 1.12-.293c.423.093.722.337.895.734a1.21 1.21 0 0 1-.068 1.156 1.21 1.21 0 0 1-.975.625c-.43.042-1.03-.239-1.798-.844-.768-.606-1.475-.838-2.12-.698s-1.083.51-1.315 1.114a1.826 1.826 0 0 0 .17 1.72c.345.543.852.835 1.52.873.67.039 1.21-.108 1.623-.441.413-.334.673-.701.78-1.102.107-.402.221-.719.343-.95.121-.232.3-.406.534-.522a1.18 1.18 0 0 1 .739-.108c.257.044.478.16.66.347l.067 2.262Zm15 8.75-.295.637-.296.637-.674.612c-.45.408-1.143.76-2.082 1.058a4.49 4.49 0 0 1-2.826-.02 4.43 4.43 0 0 1-2.281-1.678 4.532 4.532 0 0 1-.852-2.73 4.504 4.504 0 0 1 .904-2.72 4.526 4.526 0 0 1 2.336-1.656c.962-.302 2.079-.11 3.351.577 1.272.686 2.052 1.192 2.34 1.515.288.324.386.698.293 1.12a1.21 1.21 0 0 1-.735.896 1.21 1.21 0 0 1-1.155-.068 1.21 1.21 0 0 1-.625-.975 1.21 1.21 0 0 1 .422-1.078 1.21 1.21 0 0 1 1.12-.293c.423.093.722.338.895.734a1.21 1.21 0 0 1-.067 1.156 1.21 1.21 0 0 1-.976.625c-.43.042-1.03-.239-1.798-.844-.768-.606-1.475-.838-2.12-.698s-1.083.51-1.315 1.113c-.232.603-.175 1.177.17 1.72.345.544.852.836 1.52.874.67.039 1.21-.108 1.623-.441.413-.334.673-.701.78-1.102.107-.402.222-.719.343-.95.122-.232.3-.406.534-.522a1.18 1.18 0 0 1 .738-.108c.258.044.479.16.661.347l.067 2.262Z" fill="currentColor" stroke="currentColor" stroke-width="2" stroke-linecap="round" stroke-linejoin="round"/><path d="m13.35 17.004.938.575.937.575 1.939 1.18c1.292.788 2.026 1.317 2.202 1.59.175.272.204.56.087.86a.905.905 0 0 1-.646.578.905.905 0 0 1-.846-.184.905.905 0 0 1-.349-.792.905.905 0 0 1 .436-.748.904.904 0 0 1 .861-.087.905.905 0 0 1 .577.646.905.905 0 0 1-.184.846.905.905 0 0 1-.792.349c-.323-.019-1.146-.396-2.468-1.133a1136.66 1136.66 0 0 0-2.945-1.636 81.691 81.691 0 0 1-1.514-.854c-.369-.214-.636-.414-.801-.6a1.12 1.12 0 0 1-.287-.65 1.121 1.121 0 0 1 .15-.693c.126-.215.303-.373.53-.473l2.176.651Zm4.519-6.614-.96.532-.961.532-1.98 1.105c-1.32.736-2.143 1.114-2.466 1.132a.905.905 0 0 1-.793-.348.905.905 0 0 1-.184-.847.905.905 0 0 1 .577-.646.905.905 0 0 1 .861.086.905.905 0 0 1 .437.748.905.905 0 0 1-.349.793.905.905 0 0 1-.846.184.905.905 0 0 1-.646-.576.905.905 0 0 1 .086-.862c.175-.273.908-.803 2.199-1.59 1.29-.786 2.248-1.372 2.872-1.755a81.69 81.69 0 0 1 1.487-.896c.368-.215.673-.349.916-.401.243-.053.479-.03.707.07.227.1.404.258.53.473.125.215.175.446.15.694L17.87 10.39Z" fill="currentColor" stroke="currentColor" stroke-width="2" stroke-linecap="round" stroke-linejoin="round"/></svg>