<svg width="30" height="30" fill="none" xmlns="http://www.w3.org/2000/svg"><path d="m15.816 25.337 1.11-.713 1.111-.714 1.38-1.113c.921-.743 1.77-1.63 2.544-2.663a10.845 10.845 0 0 0 1.721-3.393c.372-1.229.571-2.392.599-3.49a66.53 66.53 0 0 0 .018-2.837 8.386 8.386 0 0 0-.338-2.244c-.21-.703-.718-1.317-1.527-1.844a15.607 15.607 0 0 0-2.53-1.336 33.648 33.648 0 0 0-2.526-.94c-.805-.26-1.55-.384-2.232-.371a6.886 6.886 0 0 0-2.102.388c-.72.246-1.532.52-2.438.824-.906.304-1.724.67-2.454 1.099A3.347 3.347 0 0 0 6.64 7.818a7.495 7.495 0 0 0-.439 2.348 38.8 38.8 0 0 0 .043 2.555c.044.928.207 2.092.491 3.492.284 1.399.752 2.633 1.405 3.7.654 1.069 1.726 2.277 3.218 3.626 1.492 1.35 2.26 2.096 2.305 2.242a.425.425 0 0 1-.07.4.425.425 0 0 1-.366.18.426.426 0 0 1-.36-.192.426.426 0 0 1-.057-.403.425.425 0 0 1 .293-.282.425.425 0 0 1 .401.07.425.425 0 0 1 .178.366.425.425 0 0 1-.19.36.425.425 0 0 1-.403.056c-.144-.05-1.002-.758-2.572-2.125s-2.77-2.617-3.6-3.748c-.83-1.132-1.47-2.457-1.917-3.976-.448-1.518-.714-2.76-.797-3.727a32.386 32.386 0 0 1-.13-2.644c-.003-.797.02-1.57.07-2.317.049-.747.385-1.437 1.009-2.068a7.627 7.627 0 0 1 2.191-1.54 50.34 50.34 0 0 1 2.602-1.14 69.923 69.923 0 0 1 2.563-.983c.812-.292 1.693-.4 2.642-.323.95.076 1.87.254 2.762.535.892.28 1.793.58 2.706.896.912.317 1.77.639 2.575.964a3.798 3.798 0 0 1 1.882 1.615c.45.752.709 1.52.778 2.304.069.785.09 1.581.063 2.388-.027.807-.14 1.793-.338 2.958a31.02 31.02 0 0 1-.91 3.777 16.714 16.714 0 0 1-1.714 3.84 19.838 19.838 0 0 1-2.405 3.217c-.87.938-1.677 1.7-2.42 2.285-.742.585-1.329 1.006-1.76 1.264-.431.258-.767.413-1.008.464-.24.052-.473.029-.697-.07a1.11 1.11 0 0 1-.523-.469 1.108 1.108 0 0 1-.148-.686l1.823-1.69Z" fill="currentColor" stroke="currentColor" stroke-width="2" stroke-linecap="round" stroke-linejoin="round"/></svg>