<svg width="30" height="30" fill="none" xmlns="http://www.w3.org/2000/svg"><path d="m23.099 16.224.042-.628.043-.629.008-.97c.005-.647.028-1.59.069-2.83.04-1.24-.022-2.206-.188-2.896s-.625-1.284-1.38-1.783a15.914 15.914 0 0 0-2.438-1.316c-.872-.38-1.719-.7-2.541-.96-.822-.26-1.872-.267-3.15-.019-1.277.249-2.092.341-2.445.277a1.002 1.002 0 0 1-.763-.581 1.002 1.002 0 0 1 .022-.96c.17-.315.433-.497.788-.545.356-.048.658.058.905.317.248.26.34.566.276.919a1.002 1.002 0 0 1-.582.763 1.002 1.002 0 0 1-.958-.022 1.002 1.002 0 0 1-.546-.789 1.002 1.002 0 0 1 .317-.905c.26-.248.852-.51 1.777-.787.926-.277 1.787-.35 2.585-.218.797.132 1.617.342 2.46.629s1.723.582 2.642.884c.919.303 1.79.612 2.612.926.823.314 1.48.864 1.973 1.65.493.786.795 1.575.905 2.367.111.793.182 1.582.212 2.368.03.786.05 1.617.06 2.495.008.878-.007 1.573-.047 2.087-.039.513-.1.95-.182 1.312l-.2.873c-.051.22-.148.434-.291.642a1.14 1.14 0 0 1-.573.439c-.238.084-.478.09-.72.018a1.139 1.139 0 0 1-.594-.409l-.098-1.719ZM7.28 8.035l-.007.933-.007.933-.04 1.173a37.82 37.82 0 0 0 .01 2.568c.032.929.183 2.092.454 3.49.27 1.397.729 2.63 1.376 3.698a15.193 15.193 0 0 0 2.25 2.882c.853.852 1.693 1.515 2.52 1.989.828.473 1.645.645 2.453.516.808-.129 1.771-.63 2.89-1.504 1.119-.874 1.829-1.319 2.131-1.334a.845.845 0 0 1 .738.33c.19.236.245.5.166.792a.845.845 0 0 1-.542.6.845.845 0 0 1-.804-.086.845.845 0 0 1-.403-.702.845.845 0 0 1 .33-.738c.236-.19.5-.245.792-.166.292.079.492.26.6.543a.845.845 0 0 1-.087.803c-.165.254-.933.844-2.302 1.772-1.37.928-2.37 1.46-3 1.6a2.759 2.759 0 0 1-1.783-.172c-.557-.254-1.221-.684-1.992-1.29a37.864 37.864 0 0 1-2.564-2.24 22.763 22.763 0 0 1-2.66-3.028c-.837-1.131-1.485-2.457-1.947-3.977-.462-1.52-.742-2.763-.84-3.727a38.616 38.616 0 0 1-.184-2.624c-.025-.785-.042-1.51-.052-2.173-.01-.663.033-1.213.128-1.649.095-.436.323-.815.684-1.136.36-.321.58-.54.658-.658.078-.117.254-.193.526-.23.272-.036.53.012.77.143.242.13.422.32.54.568.12.248.154.507.104.777l-.907 1.324Z" fill="currentColor" stroke="currentColor" stroke-width="2" stroke-linecap="round" stroke-linejoin="round"/><path d="M8.216 6.988a1620732.014 1620732.014 0 0 0 5.838 6.398l6.317 6.316c4.21 4.211 6.338 6.384 6.382 6.52a.396.396 0 0 1-.06.374.396.396 0 0 1-.337.172.397.397 0 0 1-.338-.172.396.396 0 0 1-.06-.375.396.396 0 0 1 .269-.268.396.396 0 0 1 .374.06.396.396 0 0 1 .172.337.396.396 0 0 1-.172.338.397.397 0 0 1-.374.06c-.135-.044-2.308-2.172-6.52-6.383-4.21-4.21-7.382-7.29-9.514-9.235C8.06 9.184 6.4 7.618 5.215 6.432c-1.186-1.186-1.82-1.858-1.9-2.017a.802.802 0 0 1-.08-.502.802.802 0 0 1 .23-.452.802.802 0 0 1 .454-.231l4.297 3.758Z" fill="currentColor" stroke="currentColor" stroke-width="2" stroke-linecap="round" stroke-linejoin="round"/></svg>