<svg width="30" height="30" fill="none" xmlns="http://www.w3.org/2000/svg"><path d="m8.052 3.97-.408.564-.408.563-.56.75c-.375.501-.752 1.178-1.131 2.031-.38.854-.627 2.045-.743 3.575-.115 1.53-.227 3.078-.335 4.646a63.36 63.36 0 0 0-.163 4.332c0 1.32.035 2.363.105 3.131.07.768.293 1.392.67 1.872.376.479 1.05.782 2.023.91a70.8 70.8 0 0 0 3.412.349c1.302.105 2.737.204 4.306.296 1.568.091 3.012.135 4.332.13 1.32-.006 2.363-.043 3.132-.11.768-.068 1.392-.29 1.873-.668.48-.379.784-1.055.911-2.03a69.58 69.58 0 0 0 .348-3.414c.105-1.302.203-2.737.294-4.306.091-1.568.134-3.012.129-4.33-.005-1.32-.066-2.362-.182-3.127a4.799 4.799 0 0 0-.883-2.127c-.474-.652-1.147-1.32-2.02-2.003-.872-.682-2-1.109-3.388-1.28-1.386-.17-3.228-.294-5.524-.373-2.297-.08-3.531-.163-3.702-.25a.538.538 0 0 1-.302-.418.538.538 0 0 1 .16-.488.538.538 0 0 1 .49-.158c.19.03.329.132.416.303a.538.538 0 0 1-.002.515.538.538 0 0 1-.417.301.538.538 0 0 1-.489-.16.538.538 0 0 1-.157-.49.538.538 0 0 1 .303-.415c.172-.087 1.41-.167 3.712-.238a438.93 438.93 0 0 0 5.187-.185c1.156-.052 2.178.092 3.066.433.888.34 1.668.922 2.339 1.748.67.825 1.2 1.683 1.588 2.575.388.89.613 1.756.674 2.595.062.84.09 1.92.084 3.24a71.38 71.38 0 0 0 .128 4.333c.091 1.569.188 3.006.29 4.313.104 1.307.084 2.5-.06 3.58-.143 1.08-.456 1.902-.938 2.468-.483.566-1.054.903-1.714 1.01a12.2 12.2 0 0 1-2.179.14c-.792-.015-1.848-.025-3.167-.031a69.895 69.895 0 0 0-4.333.129 205.74 205.74 0 0 0-4.313.293c-1.307.103-2.5.084-3.581-.06-1.08-.142-1.905-.455-2.472-.938-.568-.483-.906-1.055-1.015-1.716a11.885 11.885 0 0 1-.136-2.181c.018-.793.027-1.849.028-3.17a65.29 65.29 0 0 0-.154-4.337 194.644 194.644 0 0 0-.333-4.361c-.118-1.336-.148-2.423-.089-3.26.06-.837.298-1.6.716-2.288.42-.688.821-1.289 1.207-1.802.386-.513.721-.952 1.006-1.318.284-.366.507-.657.67-.873.16-.215.344-.395.549-.539.204-.144.431-.214.681-.21.25.004.475.08.675.23.2.15.337.345.41.584L8.053 3.97Z" fill="currentColor" stroke="currentColor" stroke-width="2" stroke-linecap="round" stroke-linejoin="round"/><path d="M9.076 6.448a209998.106 209998.106 0 0 0 5.005.438l5.168.073c3.446.048 5.232.104 5.358.169.126.064.2.167.223.307a.396.396 0 0 1-.117.36c-.1.1-.22.14-.361.118a.396.396 0 0 1-.307-.223.396.396 0 0 1 0-.38.396.396 0 0 1 .307-.223c.14-.022.26.017.36.118.1.1.14.22.118.36a.396.396 0 0 1-.223.307c-.127.065-1.912.12-5.358.17-3.445.047-6.002.145-7.67.29-1.669.147-2.988.22-3.959.22-.97 0-1.558-.033-1.764-.1a.977.977 0 0 1-.5-.364.977.977 0 0 1-.192-.588c0-.217.064-.413.191-.588l3.72-.464Zm12.067 7.124-.207.777-.208.776-.23.429a5.151 5.151 0 0 1-.629.895c-.266.31-.661.662-1.186 1.054a6.168 6.168 0 0 1-3.656 1.218 6.198 6.198 0 0 1-1.945-.3 5.741 5.741 0 0 1-1.783-.958c-.556-.435-1.06-1.034-1.509-1.796-.45-.762-.74-1.364-.87-1.807a1.29 1.29 0 0 1 .225-1.213 1.289 1.289 0 0 1 1.114-.53c.461.013.823.21 1.084.59.26.38.314.788.16 1.223a1.29 1.29 0 0 1-.896.848 1.29 1.29 0 0 1-1.213-.226 1.289 1.289 0 0 1-.53-1.114c.013-.46.21-.822.59-1.083a1.29 1.29 0 0 1 1.223-.16c.435.155.954.687 1.558 1.598.603.91 1.245 1.481 1.925 1.71.68.23 1.36.236 2.04.018.68-.217 1.19-.482 1.534-.794.343-.313.595-.644.756-.994.161-.35.266-.684.316-1 .05-.317.131-.588.243-.812.113-.225.28-.395.504-.51.223-.116.458-.155.707-.118.248.038.462.145.64.321l.243 1.958Z" fill="currentColor" stroke="currentColor" stroke-width="2" stroke-linecap="round" stroke-linejoin="round"/></svg>