<svg width="30" height="30" fill="none" xmlns="http://www.w3.org/2000/svg"><g clip-path="url(#a)" fill="currentColor" stroke="currentColor" stroke-width="2" stroke-linecap="round" stroke-linejoin="round"><path d="m10.126 26.55.02-.362.02-.362.23-.28c.152-.187.345-.312.578-.373.234-.062.463-.05.688.038.225.087.403.232.534.435.13.203.19.425.176.666a1.088 1.088 0 0 1-.249.642 1.088 1.088 0 0 1-.579.373 1.088 1.088 0 0 1-.688-.038l-.73-.74Zm13.75 0 .02-.362.02-.362.23-.28c.152-.187.345-.312.578-.373.234-.062.463-.05.688.038.225.087.403.232.534.435.13.203.19.425.176.666a1.088 1.088 0 0 1-.249.642 1.088 1.088 0 0 1-.579.373 1.088 1.088 0 0 1-.688-.038l-.73-.74ZM2.285.127 2.84.11l.556-.017.866.061c.578.041 1.273.35 2.086.927.813.577 1.399 1.716 1.758 3.417.359 1.702.635 3.314.83 4.837a66.8 66.8 0 0 0 .657 4.18c.244 1.264.482 2.259.714 2.984.232.725.559 1.3.982 1.725.423.425.987.657 1.694.694.706.038 1.512.073 2.416.107a229.5 229.5 0 0 1 2.991.13 66.6 66.6 0 0 0 3.093.082c.972.001 1.811-.107 2.517-.324.707-.216 1.242-.674 1.605-1.372a9.348 9.348 0 0 0 .816-2.208c.18-.774.384-1.627.61-2.558a34.14 34.14 0 0 1 .677-2.435c.224-.692.221-1.112-.01-1.26-.23-.148-1.297-.327-3.2-.536-1.902-.208-4.478-.341-7.728-.399-3.25-.057-4.937-.118-5.063-.183a.397.397 0 0 1-.222-.308.396.396 0 0 1 .119-.36c.1-.1.221-.138.361-.116.14.023.242.098.306.225a.396.396 0 0 1-.002.379.396.396 0 0 1-.307.221.396.396 0 0 1-.36-.118.396.396 0 0 1-.116-.361.396.396 0 0 1 .224-.306c.127-.064 1.818-.117 5.073-.159 3.256-.041 5.9-.049 7.933-.022 2.032.027 3.357.377 3.974 1.049.617.672.887 1.453.81 2.342a52.95 52.95 0 0 1-.861 5.938c-.231 1.17-.549 2.096-.952 2.777-.403.682-.907 1.148-1.512 1.399-.605.25-1.294.378-2.066.383-.772.005-1.646.009-2.622.012-.975.003-2.008.032-3.097.085-1.09.053-2.09.096-2.998.128a13.983 13.983 0 0 1-2.619-.144c-.836-.129-1.518-.39-2.044-.782a2.991 2.991 0 0 1-1.084-1.47 12.795 12.795 0 0 1-.477-2.015 70.74 70.74 0 0 0-.577-3.022c-.262-1.26-.6-2.626-1.01-4.1a22.116 22.116 0 0 0-1.613-4.153c-.663-1.295-1.258-2.098-1.783-2.41-.526-.313-.974-.475-1.345-.487a29.34 29.34 0 0 0-.88-.017c-.215 0-.442-.039-.679-.116a1.124 1.124 0 0 1-.576-.418 1.124 1.124 0 0 1-.22-.677c0-.25.074-.475.22-.677l1.58-.535Z"/></g><defs><clipPath id="a"><path fill="#fff" d="M0 0h30v30H0z"/></clipPath></defs></svg>