<svg width="30" height="30" fill="none" xmlns="http://www.w3.org/2000/svg"><path d="m20.804 3.163.695-.012.695-.012 1.036.05c.69.033 1.469.206 2.335.518.865.312 1.412 1.337 1.64 3.076.227 1.738.26 2.787.096 3.146a1.102 1.102 0 0 1-.826.655 1.102 1.102 0 0 1-1.016-.282 1.102 1.102 0 0 1-.368-.988c.045-.391.239-.684.582-.878a1.1 1.1 0 0 1 1.053-.046c.36.164.578.44.656.826.079.386-.016.725-.282 1.016-.267.29-.596.413-.988.368a1.102 1.102 0 0 1-.879-.582c-.194-.344-.474-1.068-.841-2.173-.367-1.104-.825-1.752-1.374-1.944-.549-.191-1.055-.29-1.519-.299-.463-.008-.83-.012-1.1-.012-.269 0-.523-.038-.76-.116a1.126 1.126 0 0 1-.577-.42 1.127 1.127 0 0 1-.22-.678c0-.25.073-.476.22-.678l1.742-.535Z" fill="currentColor" stroke="currentColor" stroke-width="2" stroke-linecap="round" stroke-linejoin="round"/><path d="m9.318 19.325 2.536-2.191 2.536-2.192 4.88-4.881c3.254-3.254 4.949-4.903 5.084-4.947a.396.396 0 0 1 .374.06.396.396 0 0 1 .172.337.396.396 0 0 1-.172.338.396.396 0 0 1-.374.06.396.396 0 0 1-.268-.269.397.397 0 0 1 .059-.374.396.396 0 0 1 .338-.172c.142 0 .254.057.338.172.083.115.103.24.059.374-.044.135-1.693 1.83-4.947 5.084-3.254 3.254-5.611 5.726-7.072 7.416-1.462 1.69-2.65 2.994-3.567 3.91-.916.917-1.462 1.42-1.637 1.509a.886.886 0 0 1-.555.088.887.887 0 0 1-.5-.255.887.887 0 0 1-.255-.5l2.971-3.567Zm17.519 1.479a3755.278 3755.278 0 0 0 .024 1.39l-.05 1.036c-.033.69-.206 1.469-.518 2.335-.312.865-1.337 1.412-3.076 1.64-1.738.227-2.787.26-3.146.096a1.102 1.102 0 0 1-.655-.826 1.102 1.102 0 0 1 .282-1.016c.267-.29.596-.413.988-.368.391.045.684.239.878.582a1.1 1.1 0 0 1 .046 1.053 1.102 1.102 0 0 1-.826.656 1.101 1.101 0 0 1-1.015-.282 1.102 1.102 0 0 1-.37-.988c.046-.392.24-.685.583-.879.344-.194 1.068-.474 2.172-.841 1.105-.367 1.753-.825 1.945-1.374.191-.549.29-1.055.299-1.519.008-.463.012-.83.012-1.1 0-.269.038-.523.116-.76.077-.238.217-.43.42-.577a1.12 1.12 0 0 1 .678-.22c.25 0 .476.073.678.22l.535 1.742Z" fill="currentColor" stroke="currentColor" stroke-width="2" stroke-linecap="round" stroke-linejoin="round"/><path d="m21.395 19.685.809.86.809.859 1.683 1.762c1.123 1.174 1.732 1.908 1.827 2.203a.864.864 0 0 1-.13.816.864.864 0 0 1-.736.375.864.864 0 0 1-.736-.375.864.864 0 0 1-.13-.816.864.864 0 0 1 .585-.585.864.864 0 0 1 .816.13c.25.181.376.426.376.736s-.125.555-.376.736a.864.864 0 0 1-.816.13c-.294-.096-1.029-.705-2.203-1.827a534.975 534.975 0 0 0-2.621-2.493c-.573-.54-1.021-.97-1.345-1.294-.323-.323-.541-.596-.654-.817a1.117 1.117 0 0 1-.11-.698c.038-.245.145-.456.32-.63a1.12 1.12 0 0 1 .631-.322l2 1.25ZM7.325 5.604l.687.704.688.703 1.415 1.456c.943.97 1.468 1.618 1.573 1.944a.956.956 0 0 1-.143.904.956.956 0 0 1-.815.415.956.956 0 0 1-.815-.415.956.956 0 0 1-.143-.904.956.956 0 0 1 .647-.647.956.956 0 0 1 .903.143.956.956 0 0 1 .416.816.956.956 0 0 1-.416.815.956.956 0 0 1-.903.143c-.326-.106-.974-.63-1.945-1.574L6.315 8.005c-.469-.458-.838-.822-1.108-1.092-.269-.27-.46-.515-.574-.737a1.125 1.125 0 0 1-.111-.704c.039-.246.147-.458.323-.634.177-.177.388-.285.635-.324l1.845 1.09Z" fill="currentColor" stroke="currentColor" stroke-width="2" stroke-linecap="round" stroke-linejoin="round"/></svg>