<svg width="30" height="30" fill="none" xmlns="http://www.w3.org/2000/svg"><path d="M9.69 5.881a70954.92 70954.92 0 0 0 2.607 2.442l1.584 1.462c1.056.975 2.056 1.87 2.999 2.687.943.816 1.538 1.615 1.786 2.394.248.78-.158 1.744-1.218 2.89a24.195 24.195 0 0 1-3.324 3.009 130.53 130.53 0 0 0-3.941 3.066c-1.473 1.186-2.269 1.762-2.387 1.73a.555.555 0 0 1-.294-.193.555.555 0 0 1-.125-.328 27.11 27.11 0 0 0-.065-.817c-.038-.421-.113-1.492-.228-3.21-.114-1.72-.175-4.108-.183-7.166-.008-3.057.02-4.65.084-4.776a.396.396 0 0 1 .305-.225c.14-.023.26.016.362.116.1.1.14.22.119.36a.396.396 0 0 1-.222.308.396.396 0 0 1-.379.001.396.396 0 0 1-.224-.305.396.396 0 0 1 .115-.361c.1-.101.22-.141.36-.12.14.022.243.096.308.222s.103 1.715.113 4.768c.01 3.052.04 5.285.089 6.7.049 1.413.071 2.53.067 3.348a69.5 69.5 0 0 1-.015 1.477c-.006.166-.069.233-.187.2a.555.555 0 0 1-.294-.192.555.555 0 0 1-.125-.328c-.006-.123.728-.775 2.204-1.955a102.98 102.98 0 0 0 3.815-3.187 114.63 114.63 0 0 0 3.102-2.843c1-.951 1.43-1.664 1.292-2.139-.139-.474-.678-1.057-1.62-1.748a136.002 136.002 0 0 0-3.186-2.261 532.299 532.299 0 0 0-3.251-2.228c-.985-.67-1.747-1.22-2.286-1.65-.54-.432-.874-.746-1.004-.944a1.066 1.066 0 0 1-.179-.651c.011-.236.09-.447.239-.632.147-.185.335-.308.564-.37l2.623 1.45Z" fill="currentColor"/><path d="M7.796 25.56c.118.033.914-.543 2.387-1.73a130.53 130.53 0 0 1 3.94-3.065 24.195 24.195 0 0 0 3.325-3.009c1.06-1.146 1.466-2.11 1.218-2.89-.248-.78-.843-1.578-1.786-2.394a127.875 127.875 0 0 1-2.999-2.687l-1.584-1.462-1.303-1.22L9.69 5.88 7.067 4.43a1.066 1.066 0 0 0-.564.371 1.066 1.066 0 0 0-.239.632c-.01.236.049.453.179.65.13.199.465.513 1.004.944.539.432 1.3.982 2.286 1.65.984.67 2.068 1.413 3.25 2.229 1.183.816 2.245 1.57 3.187 2.261.941.691 1.481 1.274 1.62 1.748.138.475-.293 1.188-1.292 2.139-1 .95-2.034 1.898-3.102 2.843a102.98 102.98 0 0 1-3.816 3.187c-1.475 1.18-2.21 1.832-2.203 1.955a.555.555 0 0 0 .125.328c.077.096.175.16.294.193Zm0 0a.555.555 0 0 1-.294-.192.555.555 0 0 1-.125-.328 27.11 27.11 0 0 0-.065-.817c-.038-.421-.113-1.492-.228-3.21-.114-1.72-.175-4.108-.183-7.166-.008-3.057.02-4.65.084-4.776a.396.396 0 0 1 .305-.225c.14-.023.26.016.362.116.1.1.14.22.119.36a.396.396 0 0 1-.222.308.396.396 0 0 1-.379.001.396.396 0 0 1-.224-.305.396.396 0 0 1 .115-.361c.1-.101.22-.141.36-.12.14.022.243.096.308.222s.103 1.715.113 4.768c.01 3.052.04 5.285.089 6.7.049 1.413.071 2.53.067 3.348a69.5 69.5 0 0 1-.015 1.477c-.006.166-.069.233-.187.2Z" stroke="currentColor" stroke-width="2" stroke-linecap="round" stroke-linejoin="round"/><path d="m24.875 10.486-.172 1.947-.172 1.947-.15 4.02c-.1 2.679-.183 4.083-.25 4.213a.406.406 0 0 1-.314.229.407.407 0 0 1-.37-.12.407.407 0 0 1-.12-.37.407.407 0 0 1 .229-.315.407.407 0 0 1 .389 0c.13.066.205.17.228.315a.407.407 0 0 1-.12.37.407.407 0 0 1-.37.12.406.406 0 0 1-.315-.229c-.066-.13-.149-1.534-.249-4.214-.1-2.68-.207-4.668-.322-5.966-.115-1.298-.172-2.324-.172-3.079 0-.754.036-1.242.107-1.462.072-.22.201-.4.389-.535a1.04 1.04 0 0 1 .629-.205c.232 0 .442.068.629.205l.496 3.13Z" fill="currentColor" stroke="currentColor" stroke-width="2" stroke-linecap="round" stroke-linejoin="round"/></svg>