<svg width="30" height="30" fill="none" xmlns="http://www.w3.org/2000/svg"><path d="m20.31 24.119-1.304-1.221-1.303-1.221-1.584-1.462a128.103 128.103 0 0 0-2.998-2.687c-.944-.816-1.54-1.615-1.787-2.394-.248-.78.158-1.744 1.219-2.89a24.208 24.208 0 0 1 3.323-3.009 128.8 128.8 0 0 0 3.941-3.066c1.473-1.186 2.269-1.762 2.387-1.73a.555.555 0 0 1 .294.193.556.556 0 0 1 .125.328 194.968 194.968 0 0 1 .293 4.027c.114 1.72.175 4.108.183 7.166.008 3.057-.02 4.65-.084 4.776a.396.396 0 0 1-.305.225.396.396 0 0 1-.362-.116.4.4 0 0 1-.119-.36.396.396 0 0 1 .222-.308.396.396 0 0 1 .379-.001.396.396 0 0 1 .224.305.396.396 0 0 1-.115.361.398.398 0 0 1-.36.12.397.397 0 0 1-.308-.222c-.065-.126-.103-1.715-.113-4.768-.01-3.052-.04-5.285-.089-6.7a90.757 90.757 0 0 1-.067-3.348c.003-.819.008-1.311.015-1.477.006-.166.069-.233.187-.2a.555.555 0 0 1 .294.192.556.556 0 0 1 .125.328c.006.123-.728.775-2.204 1.955a102.99 102.99 0 0 0-3.815 3.187 114.63 114.63 0 0 0-3.102 2.843c-1 .951-1.43 1.664-1.292 2.139.138.474.678 1.057 1.62 1.748.942.691 2.004 1.445 3.186 2.261 1.183.816 2.267 1.559 3.252 2.228.984.67 1.746 1.22 2.285 1.65.54.432.874.746 1.004.944.13.198.19.415.179.651-.011.236-.09.447-.239.632a1.066 1.066 0 0 1-.564.37l-2.623-1.45ZM5.125 19.514l.172-1.947.172-1.947.15-4.019c.1-2.68.183-4.084.25-4.214a.406.406 0 0 1 .314-.229.406.406 0 0 1 .37.12.406.406 0 0 1 .12.37.406.406 0 0 1-.229.315.406.406 0 0 1-.388 0 .406.406 0 0 1-.229-.315.406.406 0 0 1 .12-.37.406.406 0 0 1 .37-.12.406.406 0 0 1 .315.229c.066.13.149 1.534.249 4.214.1 2.68.207 4.668.322 5.966.115 1.298.172 2.324.172 3.079 0 .754-.036 1.242-.107 1.462-.072.22-.202.4-.389.535a1.045 1.045 0 0 1-.629.205c-.232 0-.441-.068-.629-.204l-.496-3.13Z" fill="currentColor" stroke="currentColor" stroke-width="2" stroke-linecap="round" stroke-linejoin="round"/></svg>