<svg width="30" height="30" fill="none" xmlns="http://www.w3.org/2000/svg"><g clip-path="url(#a)" fill="currentColor" stroke="currentColor" stroke-width="2" stroke-linecap="round" stroke-linejoin="round"><path d="M17.022 13.42s-.218-.13-.654-.394l-.655-.394-.259-.396c-.173-.265-.306-.606-.399-1.025-.093-.418-.153-1.05-.18-1.894-.027-.844-.022-1.79.014-2.84.036-1.048.15-1.961.344-2.739.194-.777.545-1.36 1.053-1.75a2.93 2.93 0 0 1 1.746-.609 2.931 2.931 0 0 1 1.788.529c.536.37.928.876 1.177 1.52.248.642.379 1.392.391 2.248.012.857-.003 1.787-.047 2.793-.043 1.005-.23 1.896-.563 2.673-.332.777-.6 1.364-.801 1.76a1.246 1.246 0 0 1-.964.701c-.44.07-.818-.053-1.133-.368a1.245 1.245 0 0 1-.368-1.132c.07-.44.303-.762.7-.964a1.245 1.245 0 0 1 1.19 0c.398.202.631.523.701.963.07.44-.053.818-.368 1.133a1.245 1.245 0 0 1-1.133.368 1.245 1.245 0 0 1-.963-.7c-.203-.397-.11-1.233.276-2.51.386-1.275.458-2.414.215-3.417-.242-1.002-.406-1.326-.49-.973-.084.354-.122 1.003-.115 1.95.007.945.045 1.684.115 2.215.07.53.216.849.44.953.224.105.445.232.663.38.218.15.37.348.46.597.088.248.095.498.02.752-.074.252-.215.46-.424.62l-1.777-.05Zm8.481.26-.636-.02-.634-.02-.448-.326c-.299-.216-.54-.534-.723-.95a2.803 2.803 0 0 1-.25-1.25c.015-.417.125-.917.328-1.5a3.007 3.007 0 0 1 1.07-1.446 2.986 2.986 0 0 1 1.757-.597 2.96 2.96 0 0 1 1.8.535c.538.373.754 1.094.647 2.165-.106 1.07-.21 1.836-.31 2.298a1.32 1.32 0 0 1-.799.98 1.32 1.32 0 0 1-1.261-.072 1.32 1.32 0 0 1-.684-1.062 1.32 1.32 0 0 1 .457-1.178 1.32 1.32 0 0 1 1.222-.323c.462.1.788.367.979.8.19.432.167.853-.071 1.261a1.32 1.32 0 0 1-1.063.684 1.32 1.32 0 0 1-1.178-.457c-.315-.353-.448-.718-.401-1.096.047-.378-.044-.598-.273-.659-.23-.061-.21-.106.063-.136.271-.03.49-.045.652-.045.164 0 .364.039.6.115.236.077.428.216.574.417.146.201.22.426.22.675 0 .248-.074.473-.22.674l-1.418.533Zm-12.525 2.9a8482.78 8482.78 0 0 0 1.309.788l.259.396c.173.265.306.606.399 1.024.093.419.153 1.05.18 1.895.027.844.022 1.79-.014 2.84-.036 1.048-.15 1.961-.344 2.739-.194.777-.545 1.36-1.053 1.75a2.93 2.93 0 0 1-1.746.609 2.931 2.931 0 0 1-1.788-.529 3.196 3.196 0 0 1-1.177-1.52c-.248-.642-.379-1.392-.391-2.248a49.12 49.12 0 0 1 .047-2.793c.043-1.005.23-1.896.563-2.673.332-.777.6-1.364.802-1.76.202-.398.523-.631.963-.701.44-.07.818.053 1.133.368.315.315.438.692.368 1.132-.07.44-.303.762-.7.964a1.245 1.245 0 0 1-1.19 0 1.245 1.245 0 0 1-.701-.963c-.07-.44.053-.818.368-1.133a1.245 1.245 0 0 1 1.133-.368c.44.07.76.303.963.7.203.397.11 1.233-.276 2.51-.386 1.275-.458 2.415-.215 3.417.242 1.002.406 1.326.49.973.084-.354.123-1.003.115-1.95-.007-.945-.045-1.684-.115-2.215-.07-.53-.216-.849-.44-.953a4.676 4.676 0 0 1-.663-.38 1.189 1.189 0 0 1-.46-.596 1.188 1.188 0 0 1-.02-.752 1.19 1.19 0 0 1 .424-.622l1.777.05Zm-8.48-.26a1511.823 1511.823 0 0 0 1.27.04l.447.326c.299.216.54.534.723.95.184.418.267.835.25 1.25-.016.417-.125.917-.328 1.5a3.006 3.006 0 0 1-1.07 1.446 2.99 2.99 0 0 1-1.757.597 2.96 2.96 0 0 1-1.8-.535c-.538-.372-.754-1.094-.647-2.164.106-1.07.21-1.837.31-2.3.1-.461.366-.788.799-.978a1.32 1.32 0 0 1 1.261.071c.409.238.637.592.684 1.062a1.32 1.32 0 0 1-.457 1.178 1.32 1.32 0 0 1-1.222.323 1.32 1.32 0 0 1-.979-.8 1.32 1.32 0 0 1 .071-1.261 1.32 1.32 0 0 1 1.063-.684 1.32 1.32 0 0 1 1.178.457c.315.353.448.718.401 1.096-.047.378.044.598.273.659.23.061.21.107-.063.136a6.29 6.29 0 0 1-.652.045c-.164 0-.364-.039-.6-.115a1.12 1.12 0 0 1-.574-.417 1.12 1.12 0 0 1-.22-.675c0-.248.074-.473.22-.674l1.419-.533Zm12.082.702s.13-.218.394-.654l.394-.655.396-.259c.265-.173.606-.306 1.024-.399.419-.093 1.05-.153 1.895-.18.844-.027 1.79-.022 2.84.014 1.048.036 1.961.15 2.739.344.777.194 1.36.545 1.75 1.053a2.93 2.93 0 0 1 .609 1.746 2.931 2.931 0 0 1-.529 1.788c-.37.536-.876.928-1.52 1.177-.642.248-1.392.379-2.248.391a49.16 49.16 0 0 1-2.793-.047c-1.005-.043-1.896-.23-2.673-.563-.777-.332-1.364-.6-1.76-.801a1.245 1.245 0 0 1-.701-.964c-.07-.44.053-.818.368-1.133a1.245 1.245 0 0 1 1.132-.368c.44.07.762.303.964.7.203.397.203.794 0 1.19a1.243 1.243 0 0 1-.963.701c-.44.07-.818-.053-1.133-.368a1.245 1.245 0 0 1-.368-1.133c.07-.44.303-.76.7-.963.397-.203 1.233-.11 2.51.276 1.275.386 2.415.458 3.417.215 1.002-.242 1.326-.406.973-.49-.354-.084-1.003-.122-1.95-.115-.945.007-1.684.045-2.215.115-.53.07-.849.216-.953.44a4.676 4.676 0 0 1-.38.663c-.15.218-.348.37-.596.46-.249.088-.5.095-.752.02a1.188 1.188 0 0 1-.622-.424l.05-1.777Zm2.673 7.962-.408-.045-.408-.044.345-.092c.23-.062.32-.281.273-.659-.047-.378.086-.743.401-1.096a1.321 1.321 0 0 1 1.178-.457c.47.047.825.275 1.063.684.238.408.261.829.07 1.262a1.32 1.32 0 0 1-.978.799 1.32 1.32 0 0 1-1.222-.323 1.32 1.32 0 0 1-.457-1.178 1.32 1.32 0 0 1 .684-1.062 1.32 1.32 0 0 1 1.261-.071c.433.19.7.517.8.979.1.462.203 1.228.31 2.299.106 1.07-.11 1.791-.649 2.164a2.96 2.96 0 0 1-1.799.535 2.986 2.986 0 0 1-1.756-.597 3.007 3.007 0 0 1-1.071-1.446c-.203-.583-.313-1.083-.329-1.5a2.803 2.803 0 0 1 .25-1.25c.184-.416.425-.733.724-.95.298-.217.66-.332 1.082-.346.424-.013.717-.02.88-.02a2 2 0 0 1 .6.116c.236.076.428.215.574.417.146.2.22.426.22.674 0 .249-.074.474-.22.675l-1.418.532Zm-8.339-13.49-.797-.104-.796-.105-1.42-.01c-.946-.007-1.595.031-1.949.115-.353.084-.029.248.973.49 1.003.243 2.142.171 3.418-.215 1.276-.386 2.112-.479 2.51-.276.396.202.63.523.7.963.069.44-.054.818-.369 1.133a1.245 1.245 0 0 1-1.133.368 1.245 1.245 0 0 1-.963-.7 1.244 1.244 0 0 1 0-1.191c.202-.397.524-.63.964-.7.44-.07.817.053 1.132.368.316.315.438.693.368 1.133-.07.44-.303.761-.7.963-.397.203-.984.47-1.761.802-.777.332-1.668.52-2.673.563a49.161 49.161 0 0 1-2.793.047c-.856-.012-1.606-.143-2.249-.391a3.196 3.196 0 0 1-1.52-1.177 2.931 2.931 0 0 1-.528-1.788 2.93 2.93 0 0 1 .61-1.746c.389-.508.972-.86 1.75-1.053.777-.193 1.69-.308 2.739-.344a43.296 43.296 0 0 1 2.84-.014c.844.027 1.475.087 1.894.18.418.093.76.226 1.024.399.264.173.528.477.79.914.263.436.447.766.552.99.104.225.153.468.145.732-.007.264-.091.5-.252.709-.161.209-.368.35-.621.425a1.188 1.188 0 0 1-.752-.022l-1.133-1.458Zm-.166-6.478a6060.013 6060.013 0 0 0 .815.09l-.345.091c-.23.062-.32.281-.273.659.047.378-.086.743-.401 1.096a1.32 1.32 0 0 1-1.178.457 1.32 1.32 0 0 1-1.063-.684 1.32 1.32 0 0 1-.07-1.262 1.32 1.32 0 0 1 .978-.799c.462-.1.87.008 1.222.323.353.315.505.707.457 1.178a1.32 1.32 0 0 1-.684 1.062 1.32 1.32 0 0 1-1.261.071 1.32 1.32 0 0 1-.8-.979c-.1-.462-.203-1.228-.31-2.299-.106-1.07.11-1.791.649-2.164a2.96 2.96 0 0 1 1.799-.535 2.99 2.99 0 0 1 1.757.597c.51.381.867.863 1.07 1.446.203.583.312 1.083.329 1.5a2.82 2.82 0 0 1-.25 1.25c-.184.417-.425.734-.724.95-.298.217-.66.332-1.082.346-.424.013-.717.02-.88.02a2 2 0 0 1-.6-.116 1.12 1.12 0 0 1-.574-.417 1.12 1.12 0 0 1-.22-.674c0-.249.074-.474.22-.675l1.418-.532Z"/></g><defs><clipPath id="a"><path fill="#fff" d="M0 0h30v30H0z"/></clipPath></defs></svg>