<svg width="30" height="30" fill="none" xmlns="http://www.w3.org/2000/svg"><g clip-path="url(#a)" fill="currentColor" stroke="currentColor" stroke-width="2" stroke-linecap="round" stroke-linejoin="round"><path d="m3.788 24.223.01-.973.01-.974.028-2.01c.019-1.34.106-2.162.262-2.469a.96.96 0 0 1 .744-.54.96.96 0 0 1 .874.284.96.96 0 0 1 .284.874.96.96 0 0 1-.54.743.96.96 0 0 1-.92 0 .96.96 0 0 1-.54-.743.96.96 0 0 1 .284-.874.96.96 0 0 1 .874-.284.96.96 0 0 1 .744.54c.156.307.243 1.13.262 2.47l.038 2.983c.006.648.01 1.162.01 1.539s-.039.685-.116.922c-.077.238-.217.43-.419.576-.202.147-.427.22-.677.22-.25 0-.475-.073-.677-.22l-.535-2.064Zm0-13.75.01-.973.01-.974.028-2.01c.019-1.34.106-2.162.262-2.469a.96.96 0 0 1 .744-.54.96.96 0 0 1 .874.284.96.96 0 0 1 .284.874.96.96 0 0 1-.54.743.96.96 0 0 1-.92 0A.96.96 0 0 1 4 4.665a.96.96 0 0 1 .284-.874.96.96 0 0 1 .874-.284.96.96 0 0 1 .744.54c.156.307.243 1.13.262 2.47L6.202 9.5c.006.648.01 1.162.01 1.539s-.039.685-.116.922c-.077.237-.217.43-.419.576-.202.147-.427.22-.677.22-.25 0-.475-.073-.677-.22l-.535-2.064ZM13.8 23.598l.046-1.252.046-1.251.067-2.584c.044-1.723.133-2.716.267-2.979a.825.825 0 0 1 .638-.463.825.825 0 0 1 .75.243c.21.21.29.46.244.75a.824.824 0 0 1-.463.64.825.825 0 0 1-.79 0 .824.824 0 0 1-.463-.64.825.825 0 0 1 .244-.75.825.825 0 0 1 .75-.243c.292.046.504.2.638.463s.223 1.256.268 2.979c.043 1.723.08 3.001.112 3.835.03.834.046 1.494.046 1.98 0 .485-.038.845-.115 1.08a1.113 1.113 0 0 1-.414.57c-.2.145-.424.218-.671.218-.247 0-.47-.073-.67-.218l-.53-2.378Zm-.014-15.021-.011-.696-.013-.695V5.751c.001-.957.086-1.603.256-1.936.17-.334.44-.53.81-.589.37-.058.687.045.952.31.264.264.367.582.309.951-.059.37-.255.64-.588.81-.334.17-.668.17-1.001 0-.334-.17-.53-.44-.588-.81a1.04 1.04 0 0 1 .309-.951c.264-.265.582-.368.952-.31.37.059.64.255.81.589.17.333.254.979.255 1.936 0 .957-.004 1.667-.012 2.13-.008.464-.012.83-.012 1.1 0 .27-.039.523-.116.76a1.12 1.12 0 0 1-.42.578c-.202.147-.428.22-.678.22-.25 0-.476-.073-.678-.22l-.536-1.742Zm10 16.25-.012-.696-.012-.695v-1.435c.001-.957.086-1.603.256-1.936.17-.334.44-.53.81-.589.37-.058.687.045.951.31.265.264.368.582.31.951-.059.37-.255.64-.588.81-.334.17-.668.17-1.001 0-.334-.17-.53-.44-.588-.81a1.04 1.04 0 0 1 .309-.951c.264-.265.582-.368.952-.31.37.059.64.255.81.589.17.333.254.979.255 1.936 0 .957-.004 1.667-.012 2.13-.008.464-.012.83-.012 1.1 0 .27-.039.523-.116.76a1.12 1.12 0 0 1-.42.578c-.202.147-.428.22-.678.22-.25 0-.476-.073-.678-.22l-.536-1.742Zm.014-12.479.046-1.252.046-1.251.067-2.584c.044-1.723.133-2.716.267-2.979a.825.825 0 0 1 .638-.463.825.825 0 0 1 .75.243c.21.21.29.46.244.75a.824.824 0 0 1-.463.64.824.824 0 0 1-.79 0 .824.824 0 0 1-.463-.64.825.825 0 0 1 .244-.75.825.825 0 0 1 .75-.243c.291.046.504.2.638.463s.223 1.256.267 2.979c.044 1.723.082 3.001.113 3.835.03.835.046 1.494.046 1.98 0 .484-.038.845-.115 1.08a1.113 1.113 0 0 1-.414.57c-.2.145-.424.218-.671.218-.247 0-.47-.073-.67-.218l-.53-2.378Z"/><path d="m2.972 16.287.835-.003.834-.002 1.723.012c1.148.008 1.883.095 2.205.259.322.164.512.425.568.782a1.01 1.01 0 0 1-.298.919 1.01 1.01 0 0 1-.92.298 1.01 1.01 0 0 1-.781-.568 1.01 1.01 0 0 1 0-.966 1.01 1.01 0 0 1 .782-.568 1.01 1.01 0 0 1 .919.299c.255.255.355.562.298.919a1.01 1.01 0 0 1-.568.781c-.322.164-1.057.25-2.205.259a274.244 274.244 0 0 1-3.877.007c-.323 0-.604-.038-.842-.116a1.127 1.127 0 0 1-.577-.42 1.127 1.127 0 0 1-.22-.678c0-.25.073-.476.22-.679l1.904-.535Zm10-7.5.835-.003.834-.002 1.722.012c1.149.009 1.884.095 2.206.259.322.164.512.425.568.782a1.01 1.01 0 0 1-.298.919 1.01 1.01 0 0 1-.92.298 1.01 1.01 0 0 1-.781-.568 1.01 1.01 0 0 1 0-.966 1.01 1.01 0 0 1 .782-.568 1.01 1.01 0 0 1 .919.299c.255.255.355.562.298.918a1.01 1.01 0 0 1-.568.782c-.322.164-1.057.25-2.206.259a274.234 274.234 0 0 1-3.876.007c-.323 0-.604-.038-.842-.116a1.127 1.127 0 0 1-.577-.42 1.127 1.127 0 0 1-.22-.678c0-.25.073-.476.22-.679l1.904-.535Zm10 10 .835-.003.834-.002 1.723.012c1.148.008 1.883.095 2.205.259.322.164.512.425.568.782a1.01 1.01 0 0 1-.298.919 1.01 1.01 0 0 1-.92.298 1.01 1.01 0 0 1-.781-.568 1.01 1.01 0 0 1 0-.966 1.01 1.01 0 0 1 .782-.568 1.01 1.01 0 0 1 .919.299c.255.255.355.562.298.919a1.01 1.01 0 0 1-.568.781c-.322.164-1.057.25-2.206.259a274.234 274.234 0 0 1-3.876.007c-.323 0-.604-.038-.842-.116a1.128 1.128 0 0 1-.577-.42 1.127 1.127 0 0 1-.22-.678c0-.25.073-.476.22-.679l1.904-.535Z"/></g><defs><clipPath id="a"><path fill="#fff" d="M0 0h30v30H0z"/></clipPath></defs></svg>