<svg width="30" height="30" fill="none" xmlns="http://www.w3.org/2000/svg"><path d="M10.36 1.427a96571.184 96571.184 0 0 0 2.78.137l1.679.098a71.41 71.41 0 0 0 3.234.12c1.037.014 2 .048 2.89.103.89.054 1.626.274 2.208.658a3.42 3.42 0 0 1 1.286 1.552c.276.65.408 1.401.396 2.254-.011.852-.083 2.03-.213 3.534a105.313 105.313 0 0 0-.303 4.947 125.253 125.253 0 0 0-.107 4.955c0 1.509-.009 2.716-.027 3.621a12.249 12.249 0 0 1-.271 2.439c-.163.72-.502 1.292-1.018 1.718-.516.426-1.176.705-1.98.838-.803.133-1.68.189-2.63.168-.949-.02-1.985-.054-3.109-.1a86.312 86.312 0 0 0-3.241-.076c-1.038-.004-2-.031-2.889-.08-.888-.05-1.622-.265-2.2-.645a3.393 3.393 0 0 1-1.28-1.54c-.276-.646-.409-1.395-.399-2.246.01-.851.08-2.029.208-3.532.128-1.504.227-3.153.296-4.948.07-1.794.104-3.446.104-4.954 0-1.509.007-2.709.022-3.6.015-.89.215-1.783.6-2.678.384-.895.637-1.442.758-1.642a.65.65 0 0 1 .529-.328.65.65 0 0 1 .577.236.65.65 0 0 1 .148.604.65.65 0 0 1-.402.476.65.65 0 0 1-.621-.046.65.65 0 0 1-.328-.529.65.65 0 0 1 .235-.577.65.65 0 0 1 .605-.148.65.65 0 0 1 .476.402c.09.215-.14.755-.69 1.62-.55.867-.85 1.74-.898 2.623a67.81 67.81 0 0 0-.074 3.586c0 1.509.036 3.16.107 4.953.071 1.794.174 3.434.309 4.922.135 1.488.34 2.778.615 3.872.275 1.093.79 1.8 1.548 2.122.757.32 1.646.487 2.667.499a59.177 59.177 0 0 0 3.214-.055c1.121-.048 2.147-.086 3.076-.114a20.5 20.5 0 0 0 2.63-.239c.825-.132 1.407-.458 1.748-.978.34-.52.534-1.213.58-2.08.045-.868.068-2.055.068-3.564 0-1.508-.037-3.16-.11-4.953a96.297 96.297 0 0 0-.315-4.921c-.138-1.488-.343-2.775-.615-3.86-.273-1.086-.787-1.786-1.542-2.101-.755-.315-1.642-.473-2.663-.475a52.86 52.86 0 0 0-3.21.095c-1.118.066-2.141.122-3.068.167-.927.046-1.66.069-2.2.069-.538 0-.925-.038-1.158-.114a1.104 1.104 0 0 1-.565-.41 1.105 1.105 0 0 1-.216-.666c0-.245.072-.467.216-.665l2.532-.524Z" fill="currentColor" stroke="currentColor" stroke-width="2" stroke-linecap="round" stroke-linejoin="round"/><path d="m15.006 21.355.345.112.344.112.213.293c.142.196.213.414.213.656 0 .242-.07.46-.213.655-.142.196-.327.33-.557.406a1.1 1.1 0 0 1-.69 0 1.089 1.089 0 0 1-.557-.405 1.089 1.089 0 0 1-.213-.656c0-.242.071-.46.213-.655l.902-.518Z" fill="currentColor" stroke="currentColor" stroke-width="2" stroke-linecap="round" stroke-linejoin="round"/></svg>