<svg width="30" height="30" fill="none" xmlns="http://www.w3.org/2000/svg"><path d="m27.199 18.99-.98 1.667-.979 1.668-1.402 1.367a13.253 13.253 0 0 1-3.152 2.28 12.767 12.767 0 0 1-3.73 1.255c-1.319.23-2.639.257-3.96.081a12.498 12.498 0 0 1-3.744-1.103 12.306 12.306 0 0 1-5.523-5.213 12.314 12.314 0 0 1-1.307-3.68 12.514 12.514 0 0 1-.108-3.946 12.403 12.403 0 0 1 3.267-6.918 12.314 12.314 0 0 1 6.725-3.656 12.53 12.53 0 0 1 3.946-.107c1.32.172 2.567.538 3.743 1.098 1.176.559 2.487 1.672 3.932 3.34 1.446 1.667 2.198 2.566 2.255 2.695a.4.4 0 0 1-.021.38.396.396 0 0 1-.319.205.396.396 0 0 1-.353-.137.396.396 0 0 1-.098-.367.396.396 0 0 1 .24-.294.396.396 0 0 1 .379.021.396.396 0 0 1 .205.319.396.396 0 0 1-.137.353.396.396 0 0 1-.366.098c-.139-.03-.901-.862-2.287-2.494-1.386-1.633-2.622-2.715-3.707-3.246a11.494 11.494 0 0 0-3.46-1.056 11.614 11.614 0 0 0-3.661.06 11.411 11.411 0 0 0-6.27 3.32 11.497 11.497 0 0 0-3.097 6.38 11.614 11.614 0 0 0 .06 3.661 11.412 11.412 0 0 0 3.32 6.27 11.422 11.422 0 0 0 6.38 3.094c1.222.17 2.437.143 3.646-.083a11.147 11.147 0 0 0 3.381-1.21c1.045-.58 1.963-1.3 2.753-2.157.79-.858 1.42-1.798 1.89-2.82.472-1.022.848-2.166 1.128-3.43.28-1.263.47-1.979.567-2.145a.87.87 0 0 1 .414-.365.871.871 0 0 1 .55-.052.871.871 0 0 1 .474.28l-.594 4.587Z" fill="currentColor" stroke="currentColor" stroke-width="2" stroke-linecap="round" stroke-linejoin="round"/><path d="M11.625 17.221a2976.395 2976.395 0 0 0 1.224.843l.733.204c.488.136 1.158.173 2.01.112.85-.061 1.69-.34 2.515-.834.826-.494 1.432-.712 1.819-.655.387.058.67.26.851.606.18.347.184.695.01 1.045s-.454.557-.84.622a1.092 1.092 0 0 1-.996-.313 1.092 1.092 0 0 1-.332-.991c.057-.387.26-.67.606-.851.346-.18.694-.184 1.044-.01.35.174.558.454.623.84.064.385-.04.717-.314.996-.274.28-.904.675-1.89 1.189-.985.513-1.856.831-2.61.955-.755.123-1.456.132-2.104.026a7.262 7.262 0 0 1-1.76-.505 6.747 6.747 0 0 1-1.56-.982c-.516-.423-.86-.718-1.034-.883a1.964 1.964 0 0 1-.422-.582 1.119 1.119 0 0 1-.093-.702c.045-.244.157-.452.337-.623a1.12 1.12 0 0 1 .638-.306l1.545.8Zm-.369-7.116a3184.954 3184.954 0 0 0 .69.224l.212.293c.142.196.213.414.213.656 0 .242-.07.46-.213.655-.142.196-.327.33-.557.406a1.1 1.1 0 0 1-.69 0 1.089 1.089 0 0 1-.557-.405 1.089 1.089 0 0 1-.213-.656c0-.242.071-.46.213-.655l.902-.518Zm7.5 0a3184.954 3184.954 0 0 0 .69.224l.212.293c.142.196.213.414.213.656 0 .242-.07.46-.213.655-.142.196-.327.33-.557.406a1.1 1.1 0 0 1-.69 0 1.089 1.089 0 0 1-.557-.405 1.089 1.089 0 0 1-.213-.656c0-.242.071-.46.213-.655l.902-.518Z" fill="currentColor" stroke="currentColor" stroke-width="2" stroke-linecap="round" stroke-linejoin="round"/></svg>