<svg width="30" height="30" fill="none" xmlns="http://www.w3.org/2000/svg"><path d="m9.436 1.466 1.669.118 1.668.118 2.015.14a67.78 67.78 0 0 0 3.71.166c1.131.016 2.056.017 2.773 0a7.69 7.69 0 0 1 2.114.247c.69.18 1.254.57 1.688 1.171.435.602.698 1.455.79 2.559.093 1.103.08 2.407-.038 3.91a113.21 113.21 0 0 0-.27 4.947 144.434 144.434 0 0 0-.091 4.955c0 1.509-.01 2.716-.028 3.621-.019.906-.11 1.719-.273 2.438-.163.72-.511 1.291-1.043 1.717-.532.425-1.246.7-2.142.827-.896.126-1.91.163-3.044.112a371.89 371.89 0 0 1-3.721-.188 76.601 76.601 0 0 0-3.718-.122 88.364 88.364 0 0 0-2.774.018 7.634 7.634 0 0 1-2.11-.237 2.923 2.923 0 0 1-1.683-1.163c-.433-.599-.697-1.449-.79-2.55-.094-1.103-.082-2.406.034-3.909.116-1.503.205-3.152.265-4.947.06-1.794.09-3.446.09-4.954 0-1.509.008-2.708.023-3.599.015-.89.216-1.784.601-2.679.386-.895.639-1.441.759-1.64a.648.648 0 0 1 .527-.326.648.648 0 0 1 .574.234c.151.175.2.376.148.602a.648.648 0 0 1-.4.473.648.648 0 0 1-.619-.045.648.648 0 0 1-.326-.527.648.648 0 0 1 .234-.574.648.648 0 0 1 .602-.148.648.648 0 0 1 .473.4c.09.214-.14.754-.688 1.62-.55.866-.848 1.74-.897 2.622a68.27 68.27 0 0 0-.073 3.587c0 1.508.031 3.159.093 4.952.062 1.794.155 3.435.278 4.923.123 1.488.221 2.708.295 3.659.075.95.358 1.642.852 2.074a3.521 3.521 0 0 0 1.777.823c.691.116 1.603.17 2.734.162a75.06 75.06 0 0 0 3.716-.125c1.345-.076 2.576-.142 3.692-.2a30.967 30.967 0 0 0 3.048-.296c.915-.14 1.55-.47 1.906-.99.356-.52.557-1.214.602-2.081.046-.867.068-2.055.068-3.564 0-1.508-.032-3.16-.095-4.953a102.684 102.684 0 0 0-.282-4.922 733.162 733.162 0 0 1-.3-3.654c-.074-.947-.357-1.635-.848-2.064a3.488 3.488 0 0 0-1.771-.811c-.69-.113-1.6-.16-2.732-.144-1.13.016-2.367.071-3.71.165l-3.683.259a39.472 39.472 0 0 1-2.64.118c-.646 0-1.083-.037-1.311-.111a1.08 1.08 0 0 1-.553-.402 1.08 1.08 0 0 1-.211-.65c0-.24.07-.456.211-.65l2.835-.512Z" fill="currentColor" stroke="currentColor" stroke-width="2" stroke-linecap="round" stroke-linejoin="round"/><path d="m20.922 19.308-.58.927-.578.927-1.24 1.015c-.826.678-1.554 1.083-2.184 1.218a6.054 6.054 0 0 1-1.904.1A6.037 6.037 0 0 1 11.04 22a5.958 5.958 0 0 1-1.86-3.22 6.069 6.069 0 0 1-.1-1.912 6.054 6.054 0 0 1 1.504-3.403 5.968 5.968 0 0 1 3.226-1.86 6.092 6.092 0 0 1 1.914-.1c.641.068 1.519.55 2.632 1.448 1.113.898 1.8 1.493 2.061 1.787.262.294.35.633.266 1.018a1.099 1.099 0 0 1-.667.813 1.1 1.1 0 0 1-1.05-.062 1.1 1.1 0 0 1-.567-.886c-.038-.391.09-.717.383-.979a1.1 1.1 0 0 1 1.018-.266c.384.085.655.307.813.668.158.36.137.71-.062 1.05a1.097 1.097 0 0 1-.885.566c-.392.04-1.001-.331-1.828-1.11-.826-.78-1.617-1.214-2.37-1.305-.754-.09-1.44.041-2.057.396a3.192 3.192 0 0 0-1.363 1.523 3.281 3.281 0 0 0-.212 2.05c.15.707.49 1.3 1.02 1.78s1.16.758 1.891.833a3.358 3.358 0 0 0 2.046-.425c.634-.358 1.088-.724 1.363-1.096.275-.371.469-.81.58-1.316.113-.505.233-.864.363-1.077.13-.213.31-.367.539-.464.23-.096.466-.115.708-.058.243.058.445.181.608.37l-.032 2.545ZM15.006 6.355l.345.112.344.112.213.294c.142.195.213.413.213.655 0 .242-.07.46-.213.655-.142.196-.327.33-.557.406a1.1 1.1 0 0 1-.69 0 1.088 1.088 0 0 1-.557-.406 1.088 1.088 0 0 1-.213-.655c0-.242.071-.46.213-.655l.902-.518Z" fill="currentColor" stroke="currentColor" stroke-width="2" stroke-linecap="round" stroke-linejoin="round"/></svg>