<svg width="30" height="30" fill="none" xmlns="http://www.w3.org/2000/svg"><path d="m16.639 3.128.42.875.42.875.492 1.065c.327.71.71 1.361 1.148 1.956.438.594 1.053 1.049 1.843 1.365.79.317 1.568.543 2.332.679.764.136 1.731.322 2.902.559 1.17.236 1.81.46 1.92.67.11.21.148.433.113.668a1.07 1.07 0 0 1-.301.608c-.167.17-.295.32-.385.45-.09.13-.344.46-.761.987a15.18 15.18 0 0 1-1.483 1.604 11.567 11.567 0 0 0-1.499 1.718c-.427.604-.668 1.333-.723 2.186a11.91 11.91 0 0 0 .08 2.432c.11.768.233 1.745.372 2.93.139 1.184.125 1.861-.04 2.03a1.06 1.06 0 0 1-.599.313c-.233.04-.456.007-.668-.098a3.62 3.62 0 0 0-.546-.226 29.963 29.963 0 0 1-1.176-.42 15.245 15.245 0 0 1-1.986-.913 11.575 11.575 0 0 0-2.098-.894c-.707-.22-1.476-.223-2.305-.011-.829.212-1.592.488-2.289.83-.697.34-1.587.76-2.671 1.258-1.084.498-1.732.695-1.944.59a1.066 1.066 0 0 1-.482-.472 1.066 1.066 0 0 1-.113-.665c.034-.234.05-.43.046-.59-.004-.158.008-.574.035-1.247.026-.673.111-1.396.255-2.17.143-.774.21-1.531.2-2.271-.01-.74-.243-1.472-.701-2.194a11.916 11.916 0 0 0-1.496-1.92 129.26 129.26 0 0 1-2.023-2.15c-.809-.877-1.196-1.432-1.162-1.666.035-.234.135-.436.3-.605.165-.17.365-.273.598-.313a3.68 3.68 0 0 0 .574-.138c.15-.053.55-.17 1.198-.354a15.232 15.232 0 0 1 2.144-.43 11.59 11.59 0 0 0 2.222-.513c.702-.239 1.326-.688 1.872-1.347.547-.659 1.124-1.58 1.733-2.765.61-1.184 1.05-1.877 1.323-2.077a.948.948 0 0 1 .894-.148.946.946 0 0 1 .644.637.946.946 0 0 1-.136.895.946.946 0 0 1-.805.416.946.946 0 0 1-.809-.406.946.946 0 0 1-.147-.894.946.946 0 0 1 .636-.644.946.946 0 0 1 .896.136.946.946 0 0 1 .415.805c.003.338-.29 1.115-.876 2.329a83.285 83.285 0 0 1-1.399 2.792c-.345.648-.88 1.188-1.603 1.62a7.782 7.782 0 0 1-2.222.914 34.86 34.86 0 0 1-2.77.51c-1.089.162-2.058.21-2.909.143-.85-.067-1.367-.12-1.55-.156-.183-.037-.257-.173-.223-.407.035-.234.135-.436.3-.605.165-.17.365-.273.598-.313.233-.04.798.335 1.695 1.126.897.79 1.635 1.456 2.213 2a46.08 46.08 0 0 1 1.63 1.607c.51.528.858 1.203 1.045 2.025a7.77 7.77 0 0 1 .182 2.396 34.5 34.5 0 0 1-.374 2.79c-.183 1.084-.438 2.02-.765 2.808-.326.788-.536 1.263-.627 1.425-.092.163-.244.191-.456.086a1.066 1.066 0 0 1-.482-.472 1.066 1.066 0 0 1-.113-.665c.034-.234.566-.655 1.595-1.264a96.101 96.101 0 0 1 2.587-1.486 46.174 46.174 0 0 1 2.034-1.054c.66-.321 1.41-.444 2.249-.368a7.77 7.77 0 0 1 2.335.568c.718.302 1.565.708 2.54 1.218.974.51 1.786 1.041 2.434 1.596.649.554 1.036.9 1.162 1.038.126.138.106.291-.06.46-.165.17-.364.274-.598.313-.233.04-.456.007-.668-.098-.212-.105-.448-.741-.71-1.908a95.986 95.986 0 0 1-.613-2.919 46.07 46.07 0 0 1-.374-2.26c-.101-.726.014-1.477.346-2.252a7.78 7.78 0 0 1 1.261-2.046 35.038 35.038 0 0 1 1.942-2.037c.785-.77 1.542-1.376 2.271-1.822.73-.445 1.18-.706 1.35-.784.171-.077.311-.01.421.2.11.21.148.433.113.668a1.07 1.07 0 0 1-.301.608c-.167.17-.846.198-2.037.086a97.446 97.446 0 0 1-2.969-.318c-.787-.1-1.543-.213-2.267-.341-.724-.128-1.405-.47-2.043-1.027a7.85 7.85 0 0 1-1.567-1.838 38.13 38.13 0 0 1-1.156-2.04 134.467 134.467 0 0 1-1.674-3.275c-.166-.337-.268-.63-.304-.877a1.125 1.125 0 0 1 .12-.702c.117-.22.287-.387.51-.497.225-.11.46-.145.706-.103l1.392 1.612Z" fill="currentColor"/><path d="M28.116 11.172c-.11-.21-.75-.434-1.92-.67a133.06 133.06 0 0 0-2.902-.56 11.894 11.894 0 0 1-2.332-.678c-.79-.316-1.405-.771-1.843-1.365a11.158 11.158 0 0 1-1.148-1.956l-.491-1.065-.42-.875-.421-.875-1.392-1.612a1.125 1.125 0 0 0-.705.103 1.12 1.12 0 0 0-.51.497 1.125 1.125 0 0 0-.12.702c.035.247.137.54.303.877A158.423 158.423 0 0 0 15.89 6.97c.364.692.75 1.372 1.156 2.04a7.85 7.85 0 0 0 1.567 1.838c.638.556 1.319.899 2.043 1.027.724.128 1.48.242 2.267.341.787.1 1.777.205 2.969.318 1.191.112 1.87.083 2.037-.086m.188-1.276c.11.21.148.433.113.668a1.07 1.07 0 0 1-.301.608m.188-1.276c-.11-.21-.25-.277-.42-.2-.17.078-.62.339-1.35.784-.73.446-1.487 1.053-2.272 1.822a34.915 34.915 0 0 0-1.942 2.037 7.78 7.78 0 0 0-1.261 2.046c-.332.775-.447 1.526-.346 2.253.101.727.226 1.48.374 2.26.148.779.353 1.752.614 2.918.26 1.167.497 1.803.71 1.908m5.705-14.552c-.167.17-.295.32-.385.45-.09.13-.344.46-.761.987a15.18 15.18 0 0 1-1.483 1.604 11.567 11.567 0 0 0-1.499 1.718c-.427.604-.668 1.333-.723 2.186a11.91 11.91 0 0 0 .08 2.432c.11.768.233 1.745.372 2.93.139 1.184.125 1.861-.04 2.03m0 0a1.06 1.06 0 0 1-.599.313c-.233.04-.456.007-.668-.098m1.267-.215c.165-.169.185-.322.059-.46-.126-.137-.513-.484-1.162-1.038-.648-.555-1.46-1.087-2.434-1.596a34.855 34.855 0 0 0-2.54-1.218 7.774 7.774 0 0 0-2.335-.568c-.84-.076-1.59.047-2.25.368-.66.32-1.338.672-2.033 1.054-.696.382-1.558.877-2.587 1.486-1.03.609-1.561 1.03-1.595 1.264m15.61.923a3.62 3.62 0 0 0-.546-.226 29.963 29.963 0 0 1-1.176-.42 15.245 15.245 0 0 1-1.986-.913 11.575 11.575 0 0 0-2.098-.894c-.707-.22-1.476-.223-2.305-.011-.829.212-1.592.488-2.289.83-.697.34-1.587.76-2.671 1.258-1.084.498-1.732.695-1.944.59m0 0a1.066 1.066 0 0 1-.482-.472 1.066 1.066 0 0 1-.113-.665m.595 1.137c.212.105.364.077.456-.086.091-.162.3-.637.627-1.425s.582-1.724.765-2.808a34.5 34.5 0 0 0 .374-2.79 7.77 7.77 0 0 0-.182-2.396c-.187-.822-.535-1.497-1.045-2.025a46.08 46.08 0 0 0-1.63-1.607 95.657 95.657 0 0 0-2.213-2c-.897-.79-1.462-1.166-1.695-1.126-.233.04-.433.144-.598.313-.165.17-.265.37-.3.605m4.846 14.208c.034-.234.05-.43.046-.59-.004-.158.008-.574.035-1.247.026-.673.111-1.396.255-2.17.143-.774.21-1.531.2-2.271-.01-.74-.243-1.472-.701-2.194a11.916 11.916 0 0 0-1.496-1.92 129.26 129.26 0 0 1-2.023-2.15c-.809-.877-1.196-1.432-1.162-1.666m0 0c.035-.234.135-.436.3-.605.165-.17.365-.273.598-.313a3.68 3.68 0 0 0 .574-.138c.15-.053.55-.17 1.198-.354a15.232 15.232 0 0 1 2.144-.43 11.59 11.59 0 0 0 2.222-.513c.702-.239 1.326-.688 1.872-1.347.547-.659 1.124-1.58 1.733-2.765.61-1.184 1.05-1.877 1.323-2.077a.948.948 0 0 1 .894-.148.946.946 0 0 1 .644.637.946.946 0 0 1-.136.895.946.946 0 0 1-.805.416.946.946 0 0 1-.809-.406.946.946 0 0 1-.147-.894.946.946 0 0 1 .636-.644.946.946 0 0 1 .896.136.946.946 0 0 1 .415.805c.003.338-.29 1.115-.876 2.329a83.285 83.285 0 0 1-1.399 2.792c-.345.648-.88 1.188-1.603 1.62a7.782 7.782 0 0 1-2.222.914 34.86 34.86 0 0 1-2.77.51c-1.089.162-2.058.21-2.909.143-.85-.067-1.367-.12-1.55-.156-.183-.037-.257-.173-.223-.407Z" stroke="currentColor" stroke-width="2" stroke-linecap="round" stroke-linejoin="round"/></svg>