<svg width="30" height="30" fill="none" xmlns="http://www.w3.org/2000/svg"><path d="m27.199 18.99-.98 1.667-.979 1.668-1.402 1.367a13.25 13.25 0 0 1-3.152 2.28 12.767 12.767 0 0 1-3.73 1.255c-1.319.23-2.639.257-3.96.081a12.498 12.498 0 0 1-3.744-1.103 12.307 12.307 0 0 1-5.523-5.213 12.315 12.315 0 0 1-1.307-3.68 12.514 12.514 0 0 1-.108-3.946 12.403 12.403 0 0 1 3.267-6.918 12.314 12.314 0 0 1 6.725-3.656 12.53 12.53 0 0 1 3.946-.107c1.32.172 2.567.538 3.743 1.098 1.176.559 2.487 1.672 3.932 3.34 1.446 1.667 2.198 2.566 2.255 2.695a.4.4 0 0 1-.021.38.396.396 0 0 1-.319.205.396.396 0 0 1-.353-.137.396.396 0 0 1-.098-.367.396.396 0 0 1 .24-.294.396.396 0 0 1 .379.021.396.396 0 0 1 .205.319.396.396 0 0 1-.137.353.396.396 0 0 1-.366.098c-.139-.03-.901-.862-2.287-2.494-1.386-1.633-2.622-2.715-3.707-3.246a11.493 11.493 0 0 0-3.46-1.056 11.614 11.614 0 0 0-3.661.06 11.412 11.412 0 0 0-6.27 3.32 11.498 11.498 0 0 0-3.097 6.38 11.614 11.614 0 0 0 .06 3.661 11.412 11.412 0 0 0 3.32 6.27 11.422 11.422 0 0 0 6.38 3.094c1.222.17 2.437.143 3.646-.083a11.147 11.147 0 0 0 3.381-1.21 10.91 10.91 0 0 0 2.753-2.157c.79-.858 1.42-1.798 1.89-2.82.472-1.022.848-2.166 1.128-3.43.28-1.263.47-1.979.567-2.145a.87.87 0 0 1 .414-.365.871.871 0 0 1 .55-.052.871.871 0 0 1 .474.28l-.594 4.587Z" fill="currentColor" stroke="currentColor" stroke-width="2" stroke-linecap="round" stroke-linejoin="round"/><path d="m12.23 10.025.834-.002.834-.003 1.008.014a13.97 13.97 0 0 1 2.033.177c.684.109 1.343.406 1.98.891.635.486.974 1.062 1.016 1.73.042.669.06 1.344.052 2.028a13.832 13.832 0 0 1-.179 2.056c-.11.687-.411 1.35-.9 1.991-.49.64-1.07.981-1.739 1.022a27.32 27.32 0 0 1-2.03.049 14.07 14.07 0 0 1-2.057-.182c-.687-.112-1.352-.414-1.994-.905-.641-.49-.983-1.07-1.023-1.741a43.1 43.1 0 0 1-.052-2.745c.007-1.16.094-1.907.26-2.243a1.05 1.05 0 0 1 .806-.595c.37-.062.688.04.955.302.267.263.373.58.317.95-.055.37-.25.642-.582.815a1.047 1.047 0 0 1-1.001.008 1.047 1.047 0 0 1-.595-.806c-.062-.37.039-.688.302-.954.262-.268.579-.373.95-.318.37.056.642.25.814.582.173.333.281 1.188.325 2.566.044 1.379.31 2.189.8 2.43.49.242 1.185.34 2.088.295.902-.045 1.475-.313 1.718-.802.243-.49.34-1.189.292-2.097-.048-.909-.318-1.487-.81-1.735-.493-.248-1.075-.367-1.747-.358-.671.009-1.285.013-1.841.01l-1.32-.002c-.323 0-.604-.038-.841-.116a1.127 1.127 0 0 1-.578-.42 1.127 1.127 0 0 1-.22-.678c0-.25.073-.476.22-.679l1.905-.535Z" fill="currentColor" stroke="currentColor" stroke-width="2" stroke-linecap="round" stroke-linejoin="round"/></svg>