<svg width="30" height="30" fill="none" xmlns="http://www.w3.org/2000/svg"><g clip-path="url(#a)" fill="currentColor" stroke="currentColor" stroke-width="2" stroke-linecap="round" stroke-linejoin="round"><path d="m21.987 17.16-.479.946-.479.945-.752.799a7.184 7.184 0 0 1-3.828 2.118 7.23 7.23 0 0 1-2.259.093 7.169 7.169 0 0 1-2.154-.597 7.066 7.066 0 0 1-1.84-1.21 7.019 7.019 0 0 1-2.158-3.815 7.164 7.164 0 0 1-.097-2.255 7.146 7.146 0 0 1 .593-2.152 7.053 7.053 0 0 1 1.208-1.839 7.01 7.01 0 0 1 3.81-2.158 7.158 7.158 0 0 1 2.254-.097 7.152 7.152 0 0 1 2.15.59c.677.306 1.407.893 2.19 1.76.781.868 1.243 1.462 1.385 1.783a.98.98 0 0 1-.052.936.98.98 0 0 1-.788.508.98.98 0 0 1-.875-.338.98.98 0 0 1-.24-.907.98.98 0 0 1 .593-.727.98.98 0 0 1 .936.052.98.98 0 0 1 .508.788.98.98 0 0 1-.338.875.98.98 0 0 1-.907.24c-.343-.074-1.01-.58-1.999-1.516-.99-.936-1.983-1.445-2.98-1.527a4.51 4.51 0 0 0-2.757.632 4.386 4.386 0 0 0-1.833 2.127 4.49 4.49 0 0 0-.235 2.817 4.44 4.44 0 0 0 1.445 2.405c.738.64 1.604 1 2.597 1.079a4.521 4.521 0 0 0 2.749-.637c.839-.504 1.434-1.007 1.786-1.51.352-.502.597-1.07.738-1.702.14-.632.273-1.053.4-1.262.128-.21.305-.362.531-.457.226-.095.459-.114.698-.058a1.1 1.1 0 0 1 .598.363l-.12 2.909ZM16.194 1.992a4403.342 4403.342 0 0 0 .052 1.534l-.259.509a1.065 1.065 0 0 1-.824.598 1.064 1.064 0 0 1-.968-.315 1.064 1.064 0 0 1-.314-.968c.06-.376.259-.65.598-.823.34-.173.679-.173 1.018 0 .34.173.539.447.598.823.06.376-.045.7-.314.968-.27.27-.592.375-.968.315a1.064 1.064 0 0 1-.824-.598c-.173-.34-.25-.765-.233-1.276.018-.511.026-.85.026-1.014 0-.165.039-.366.116-.602a1.12 1.12 0 0 1 .416-.573 1.12 1.12 0 0 1 .674-.22c.248 0 .473.074.674.22l.532 1.422Zm0 25 .026.767.026.767-.259.509a1.065 1.065 0 0 1-.824.598 1.064 1.064 0 0 1-.968-.315 1.064 1.064 0 0 1-.314-.968c.06-.376.259-.65.598-.823.34-.173.679-.173 1.018 0 .34.173.539.447.598.823.06.376-.045.7-.314.968-.27.27-.592.374-.968.315a1.064 1.064 0 0 1-.824-.598c-.173-.34-.25-.765-.233-1.276.018-.512.026-.85.026-1.014 0-.165.039-.366.116-.602a1.12 1.12 0 0 1 .416-.573 1.12 1.12 0 0 1 .674-.22c.248 0 .473.074.674.22l.532 1.422ZM6.656 4.944a30459.03 30459.03 0 0 0 1.127 1.051l.176.544a1.06 1.06 0 0 1-.16 1.005 1.064 1.064 0 0 1-.906.462c-.381 0-.684-.154-.907-.462a1.064 1.064 0 0 1-.16-1.005c.118-.363.358-.602.72-.72a1.064 1.064 0 0 1 1.006.16c.308.223.462.525.462.906s-.154.683-.462.907a1.064 1.064 0 0 1-1.006.16c-.362-.118-.718-.365-1.07-.74-.35-.375-.583-.622-.7-.739a2.01 2.01 0 0 1-.345-.507 1.12 1.12 0 0 1-.11-.7 1.12 1.12 0 0 1 .32-.632 1.12 1.12 0 0 1 .632-.321l1.383.63Zm17.675 17.675.563.526.564.525.176.544a1.06 1.06 0 0 1-.16 1.005 1.064 1.064 0 0 1-.906.462c-.381 0-.684-.154-.908-.462a1.064 1.064 0 0 1-.159-1.005c.118-.362.358-.602.72-.72a1.064 1.064 0 0 1 1.006.16c.308.223.462.525.462.906s-.154.683-.462.907a1.064 1.064 0 0 1-1.006.16c-.362-.118-.718-.365-1.07-.74-.35-.375-.584-.622-.7-.739a2.01 2.01 0 0 1-.345-.507 1.12 1.12 0 0 1-.111-.7 1.12 1.12 0 0 1 .322-.632 1.12 1.12 0 0 1 .631-.321l1.383.63ZM1.992 13.806l.767-.026.767-.026.509.259c.339.173.538.447.598.823.06.377-.045.7-.315.969a1.063 1.063 0 0 1-.968.314 1.064 1.064 0 0 1-.823-.598 1.064 1.064 0 0 1 0-1.018 1.06 1.06 0 0 1 .823-.598c.376-.06.7.045.968.314.27.27.375.592.315.968s-.26.65-.598.824c-.34.173-.765.25-1.276.233-.511-.018-.85-.026-1.014-.026-.165 0-.366-.039-.602-.116a1.119 1.119 0 0 1-.573-.416 1.12 1.12 0 0 1-.22-.674c0-.248.074-.473.22-.674l1.422-.532Zm25 0 .767-.026.767-.026.509.259c.339.173.538.447.598.823.06.377-.045.7-.315.969a1.063 1.063 0 0 1-.968.314 1.064 1.064 0 0 1-.823-.598 1.064 1.064 0 0 1 0-1.018 1.06 1.06 0 0 1 .823-.598c.376-.06.7.045.968.314.27.27.374.592.315.968-.06.376-.26.65-.598.824-.34.173-.765.25-1.276.233a35.29 35.29 0 0 0-1.014-.026c-.165 0-.366-.039-.602-.116a1.119 1.119 0 0 1-.573-.416 1.12 1.12 0 0 1-.22-.674c0-.248.074-.473.22-.674l1.422-.532ZM4.944 23.344l.525-.563.526-.563s.181-.06.544-.177a1.064 1.064 0 0 1 1.005.16c.308.223.462.525.462.906s-.154.684-.462.907a1.064 1.064 0 0 1-1.005.16 1.064 1.064 0 0 1-.72-.72 1.064 1.064 0 0 1 .16-1.006c.223-.308.525-.462.906-.462s.683.154.907.462c.224.308.277.644.16 1.006-.118.362-.365.718-.74 1.069-.375.35-.622.584-.739.701a2.01 2.01 0 0 1-.507.345 1.12 1.12 0 0 1-.7.11 1.12 1.12 0 0 1-.632-.32 1.12 1.12 0 0 1-.321-.632l.63-1.383ZM22.619 5.669l.526-.563.525-.564.544-.176a1.064 1.064 0 0 1 1.005.16c.308.223.462.525.462.906s-.154.684-.462.907a1.064 1.064 0 0 1-1.005.16 1.064 1.064 0 0 1-.72-.72 1.064 1.064 0 0 1 .16-1.006c.223-.308.525-.462.906-.462s.683.154.907.462c.224.308.277.644.16 1.006-.118.362-.365.718-.74 1.07-.375.35-.622.583-.739.7a2.01 2.01 0 0 1-.507.345 1.12 1.12 0 0 1-.7.11 1.12 1.12 0 0 1-.632-.32 1.119 1.119 0 0 1-.321-.632l.63-1.383Z"/></g><defs><clipPath id="a"><path fill="#fff" d="M0 0h30v30H0z"/></clipPath></defs></svg>