<svg width="30" height="30" fill="none" xmlns="http://www.w3.org/2000/svg"><g clip-path="url(#a)" fill="currentColor" stroke="currentColor" stroke-width="2" stroke-linecap="round" stroke-linejoin="round"><path d="m19.826 21.514-.379-.764-.38-.764-.82-.766a4.656 4.656 0 0 0-1.881-1.079 4.593 4.593 0 0 0-2.14-.118c-.72.13-1.375.421-1.964.875-.59.454-1.095 1.095-1.516 1.922-.422.828-.83 1.35-1.223 1.564a1.253 1.253 0 0 1-1.198.032 1.253 1.253 0 0 1-.731-.95 1.251 1.251 0 0 1 .34-1.15 1.25 1.25 0 0 1 1.13-.401c.444.058.773.284.988.678.214.394.225.793.032 1.198a1.25 1.25 0 0 1-.95.73 1.253 1.253 0 0 1-1.15-.339 1.253 1.253 0 0 1-.401-1.13c.058-.444.273-1.053.645-1.827A7.178 7.178 0 0 1 9.61 17.24a7.511 7.511 0 0 1 4.1-2.103 7.385 7.385 0 0 1 6.424 2.078c.55.555.953 1.039 1.21 1.45.257.411.45.796.58 1.154a7.5 7.5 0 0 1 .3 1.068c.071.355.13.707.179 1.058.048.35.036.65-.034.898-.07.249-.207.453-.41.612-.203.16-.434.245-.692.254a1.163 1.163 0 0 1-.709-.2l-.732-1.995ZM16.212 4.527l-.01.973-.01.974-.029 2.01c-.018 1.34-.105 2.162-.261 2.469a.96.96 0 0 1-.744.54.96.96 0 0 1-.874-.284.96.96 0 0 1-.284-.874.96.96 0 0 1 .54-.743.96.96 0 0 1 .92 0 .96.96 0 0 1 .54.743.96.96 0 0 1-.284.874.96.96 0 0 1-.874.284.96.96 0 0 1-.744-.54c-.156-.307-.243-1.13-.262-2.47-.018-1.34-.03-2.334-.037-2.983-.007-.648-.01-1.162-.01-1.539s.038-.685.115-.922c.077-.237.217-.43.419-.576a1.12 1.12 0 0 1 .677-.22c.25 0 .476.073.678.22l.534 2.064Zm-9.556 7.917.563.525.564.526.176.544a1.06 1.06 0 0 1-.16 1.005 1.064 1.064 0 0 1-.906.463c-.381 0-.684-.155-.907-.463a1.064 1.064 0 0 1-.16-1.005c.118-.362.358-.602.72-.72a1.064 1.064 0 0 1 1.006.16c.308.223.462.525.462.906s-.154.684-.462.907a1.064 1.064 0 0 1-1.006.16c-.362-.118-.718-.365-1.07-.74a37.84 37.84 0 0 0-.7-.739 2.01 2.01 0 0 1-.345-.507 1.12 1.12 0 0 1-.11-.7 1.12 1.12 0 0 1 .32-.632 1.12 1.12 0 0 1 .632-.321l1.383.63Zm-4.664 8.862.767-.026.767-.026.509.259c.339.173.538.447.598.823.06.377-.045.7-.315.969a1.063 1.063 0 0 1-.968.314 1.064 1.064 0 0 1-.823-.598 1.064 1.064 0 0 1 0-1.018 1.06 1.06 0 0 1 .823-.598c.376-.06.7.045.968.314.27.27.375.592.315.968s-.26.65-.598.824c-.34.173-.765.25-1.276.233-.511-.018-.85-.026-1.014-.026-.165 0-.366-.039-.602-.116a1.119 1.119 0 0 1-.573-.416 1.12 1.12 0 0 1-.22-.674c0-.248.074-.473.22-.674l1.422-.532Zm25 0 .767-.026.767-.026.509.259c.339.173.538.447.598.823.06.377-.045.7-.315.969a1.063 1.063 0 0 1-.968.314 1.064 1.064 0 0 1-.823-.598 1.064 1.064 0 0 1 0-1.018 1.06 1.06 0 0 1 .823-.598c.376-.06.7.045.968.314.27.27.374.592.315.968-.06.376-.26.65-.598.824-.34.173-.765.25-1.276.233a35.29 35.29 0 0 0-1.014-.026c-.165 0-.366-.039-.602-.116a1.119 1.119 0 0 1-.573-.416 1.12 1.12 0 0 1-.22-.674c0-.248.074-.473.22-.674l1.422-.532Zm-4.373-8.137.526-.563.525-.563s.181-.06.544-.177a1.064 1.064 0 0 1 1.005.16c.308.223.462.526.462.906 0 .381-.154.684-.462.907a1.064 1.064 0 0 1-1.005.16 1.064 1.064 0 0 1-.72-.72 1.064 1.064 0 0 1 .16-1.006c.223-.308.525-.462.906-.462s.683.154.907.462c.224.308.277.644.16 1.006-.118.362-.365.719-.74 1.07-.375.35-.622.583-.739.7a2.01 2.01 0 0 1-.507.345 1.12 1.12 0 0 1-.7.11 1.119 1.119 0 0 1-.632-.32 1.12 1.12 0 0 1-.321-.632l.63-1.383Zm-.277 15.305-3.059-.252-3.059-.253H9.909c-4.21 0-6.38-.032-6.506-.097a.396.396 0 0 1-.223-.307.396.396 0 0 1 .117-.36c.1-.1.22-.14.361-.117.14.022.242.096.307.222a.396.396 0 0 1 0 .38.396.396 0 0 1-.307.223.396.396 0 0 1-.36-.118.394.394 0 0 1-.118-.36.396.396 0 0 1 .223-.307c.126-.064 2.295-.097 6.506-.097s7.336-.084 9.375-.253c2.04-.168 3.652-.252 4.838-.252s1.875.03 2.066.093c.19.062.345.174.463.336a.905.905 0 0 1 .177.545c0 .2-.06.382-.177.545l-4.308.43Z"/><path d="m10.27 5.498.551-.561.552-.56.86-.78c.572-.518 1.308-.995 2.209-1.43.9-.436 1.734-.434 2.501.005.767.44 1.532 1.043 2.296 1.812.763.768 1.21 1.33 1.343 1.686a1.06 1.06 0 0 1-.115 1.007 1.06 1.06 0 0 1-.883.499 1.06 1.06 0 0 1-.922-.421 1.06 1.06 0 0 1-.202-.994 1.06 1.06 0 0 1 .686-.747 1.06 1.06 0 0 1 1.007.115c.316.21.483.504.499.883a1.06 1.06 0 0 1-.421.922 1.06 1.06 0 0 1-.994.202c-.365-.102-1.018-.667-1.959-1.697-.94-1.03-1.65-1.422-2.13-1.177-.479.244-.939.613-1.38 1.108-.44.494-.847.925-1.22 1.293-.375.368-.67.66-.885.875a2.64 2.64 0 0 1-.658.494c-.223.114-.458.15-.705.112a1.127 1.127 0 0 1-.636-.324 1.127 1.127 0 0 1-.324-.636l.93-1.686Z"/></g><defs><clipPath id="a"><path fill="#fff" d="M0 0h30v30H0z"/></clipPath></defs></svg>