<svg width="30" height="30" fill="none" xmlns="http://www.w3.org/2000/svg"><path d="m10.67 5.263-.556.018-.556.018-.76.015a7.7 7.7 0 0 0-1.656.232c-.598.145-1.052.515-1.362 1.109-.31.594-.518 1.545-.623 2.852-.106 1.307-.28 2.049-.524 2.226a1.356 1.356 0 0 1-.817.264c-.3 0-.573-.088-.816-.265-.244-.177-.094-.521.447-1.032a259.77 259.77 0 0 1 3.56-3.229c1.832-1.641 3.185-2.645 4.06-3.012.875-.366 1.844-.61 2.907-.732a34.605 34.605 0 0 1 3.33-.214 229.4 229.4 0 0 0 3.256-.078 76.113 76.113 0 0 1 2.74-.042c.812.004 1.535.164 2.168.48a3.214 3.214 0 0 1 1.447 1.436c.332.641.49 1.811.475 3.511-.016 1.7-.132 2.628-.348 2.785a1.204 1.204 0 0 1-.724.236 1.2 1.2 0 0 1-.725-.235c-.216-.157-.756-.454-1.617-.89-.862-.438-2.683-1.3-5.463-2.586-2.78-1.286-4.487-1.718-5.12-1.295-.631.423-1.027 1.408-1.184 2.956a68.29 68.29 0 0 0-.307 5.287 420.43 420.43 0 0 0-.095 5.482c-.017 1.678.098 2.92.344 3.73.246.808.908 1.286 1.984 1.432 1.076.145 2.17.22 3.28.226a96.04 96.04 0 0 0 3.164-.036c1-.029 1.86-.133 2.58-.314.72-.18 1.232-.607 1.537-1.279.306-.671.476-1.616.511-2.833.036-1.217.122-2.862.26-4.933.139-2.071.274-3.155.406-3.251a.736.736 0 0 1 .444-.144c.164 0 .312.048.444.144.132.096-.285.574-1.25 1.432-.966.86-3.033 2.676-6.2 5.452-3.166 2.775-5.231 4.49-6.194 5.142-.962.652-1.8 1.07-2.513 1.251-.713.182-1.536.298-2.47.35-.933.05-1.747.025-2.44-.077a2.85 2.85 0 0 1-1.746-.935c-.47-.521-.79-1.226-.955-2.114-.166-.887-.233-1.8-.2-2.736.031-.937.075-1.965.13-3.087l.154-3.175c.048-.996.2-1.826.457-2.488.256-.663.824-1.074 1.702-1.233.88-.16 2.18-.204 3.903-.133 1.723.07 4.308.11 7.756.12 3.448.01 5.236.047 5.362.11a.396.396 0 0 1 .225.307.396.396 0 0 1-.116.36.395.395 0 0 1-.36.12.397.397 0 0 1-.308-.222.396.396 0 0 1-.002-.38.396.396 0 0 1 .306-.223c.14-.023.26.015.361.115a.4.4 0 0 1 .12.36.396.396 0 0 1-.222.308c-.126.065-1.91.112-5.353.14-3.443.028-6.172.128-8.188.298-2.017.17-3.226.424-3.63.76-.403.337-.58.95-.532 1.84.048.89.1 1.895.155 3.015.055 1.12.099 2.357.132 3.709.034 1.351.258 2.36.673 3.028.415.668.94 1.054 1.576 1.16.636.106 1.417.077 2.345-.085.928-.163 1.915-.566 2.962-1.207 1.047-.642 3.067-2.26 6.058-4.852 2.992-2.593 4.943-4.288 5.852-5.087.91-.8 1.43-1.247 1.562-1.343a.736.736 0 0 1 .444-.144c.164 0 .312.048.444.144.132.096.267 1.18.405 3.252.137 2.072.207 3.798.208 5.178.002 1.38-.157 2.48-.477 3.297-.32.818-.797 1.386-1.43 1.702-.632.316-1.353.476-2.163.48-.81.005-1.719-.009-2.727-.04a270.741 270.741 0 0 0-3.204-.08c-1.128-.023-2.324-.214-3.587-.573-1.263-.36-2.064-1.013-2.402-1.96-.339-.947-.505-2.273-.498-3.978.007-1.705.035-3.562.084-5.572.049-2.01.185-3.827.408-5.45.222-1.623.78-2.715 1.67-3.274.892-.56 2.994-.106 6.308 1.36 3.314 1.465 5.477 2.452 6.49 2.961 1.014.51 1.412.843 1.196 1a1.204 1.204 0 0 1-.724.236 1.2 1.2 0 0 1-.725-.235c-.216-.157-.35-.946-.402-2.368-.051-1.422-.223-2.437-.515-3.046-.292-.608-.798-1.003-1.52-1.183-.72-.18-1.584-.282-2.589-.307a73.372 73.372 0 0 0-3.202-.006c-1.13.021-2.185.054-3.166.099-.981.044-1.873.216-2.675.515-.803.3-1.893 1.175-3.271 2.626-1.378 1.45-2.265 2.402-2.661 2.854-.396.452-.715.766-.959.943a1.356 1.356 0 0 1-.817.264c-.3 0-.573-.088-.816-.265-.244-.177-.373-1.216-.39-3.116-.016-1.9.193-3.196.628-3.889.435-.693 1.002-1.177 1.701-1.452a6.393 6.393 0 0 1 2.074-.456 29.551 29.551 0 0 1 1.785-.027c.506.01.945.02 1.316.032.37.012.664.018.88.018.215 0 .442.038.679.115.237.078.429.217.575.419.147.202.22.427.22.677 0 .249-.073.475-.22.676l-1.578.534Z" fill="currentColor"/><path d="M4.633 11.733c.244-.177.418-.92.524-2.226.105-1.307.313-2.258.623-2.852.31-.594.764-.964 1.362-1.109a7.7 7.7 0 0 1 1.656-.232l.76-.016.556-.017.556-.018 1.579-.534c.146-.201.22-.427.22-.676 0-.25-.074-.475-.22-.677a1.124 1.124 0 0 0-.576-.419 2.197 2.197 0 0 0-.68-.115c-.215 0-.508-.006-.88-.018-.37-.012-.809-.022-1.315-.032a29.907 29.907 0 0 0-1.785.027 6.365 6.365 0 0 0-2.074.456c-.699.275-1.266.76-1.701 1.452-.435.693-.644 1.99-.628 3.89.017 1.9.146 2.938.39 3.115m1.633 0a1.356 1.356 0 0 1-.817.265c-.3 0-.573-.088-.816-.265m1.633 0c.244-.176.563-.49.959-.942.396-.452 1.283-1.403 2.66-2.854 1.379-1.451 2.469-2.326 3.271-2.626.803-.299 1.695-.47 2.676-.515.98-.045 2.036-.078 3.166-.099 1.13-.021 2.197-.02 3.202.006 1.005.025 1.868.127 2.59.307.72.18 1.227.575 1.519 1.183.292.609.464 1.624.515 3.046.052 1.422.186 2.211.402 2.368m-20.96.127a1.356 1.356 0 0 1-.817.264c-.3 0-.573-.088-.816-.265m0 0c-.244-.177-.094-.521.447-1.032a259.77 259.77 0 0 1 3.56-3.229c1.832-1.641 3.185-2.645 4.06-3.012.875-.366 1.844-.61 2.907-.732a34.605 34.605 0 0 1 3.33-.214 229.4 229.4 0 0 0 3.256-.078 76.113 76.113 0 0 1 2.74-.042c.812.004 1.535.164 2.168.48a3.214 3.214 0 0 1 1.447 1.436c.332.641.49 1.811.475 3.511-.016 1.7-.132 2.628-.348 2.785a1.204 1.204 0 0 1-.724.236m0 0a1.2 1.2 0 0 1-.725-.235m.725.235c.267 0 .508-.079.724-.236.216-.157-.182-.49-1.196-1-1.013-.509-3.176-1.496-6.49-2.962-3.314-1.465-5.416-1.918-6.307-1.359-.891.56-1.449 1.65-1.671 3.274-.223 1.623-.36 3.44-.408 5.45-.05 2.01-.077 3.867-.084 5.572-.007 1.705.16 3.03.498 3.978.338.947 1.139 1.6 2.402 1.96 1.263.36 2.46.55 3.588.572 1.128.022 2.196.05 3.203.08 1.008.032 1.917.046 2.727.042.81-.005 1.531-.165 2.164-.481.632-.317 1.109-.884 1.429-1.702.32-.818.48-1.917.477-3.297-.001-1.38-.071-3.106-.208-5.178-.138-2.072-.273-3.156-.405-3.252m-1.168-1.696c-.216-.157-.756-.454-1.617-.89-.862-.438-2.683-1.3-5.463-2.586-2.78-1.286-4.487-1.718-5.12-1.295-.631.423-1.027 1.408-1.184 2.956a68.29 68.29 0 0 0-.307 5.287 420.43 420.43 0 0 0-.095 5.482c-.017 1.678.098 2.92.344 3.73.246.808.908 1.286 1.984 1.432 1.076.145 2.17.22 3.28.226a96.04 96.04 0 0 0 3.164-.036c1-.029 1.86-.133 2.58-.314.72-.18 1.232-.607 1.537-1.279.306-.671.476-1.616.511-2.833.036-1.217.122-2.862.26-4.933.139-2.071.274-3.155.406-3.251m0 0a.736.736 0 0 1 .444-.144c.164 0 .312.048.444.144m-.888 0c-.132.096-.653.543-1.562 1.343-.91.799-2.86 2.494-5.852 5.087-2.991 2.593-5.01 4.21-6.058 4.852-1.047.641-2.034 1.044-2.962 1.207-.928.162-1.71.19-2.345.085-.636-.106-1.161-.492-1.576-1.16-.415-.667-.64-1.677-.673-3.029a152.814 152.814 0 0 0-.132-3.708 608.84 608.84 0 0 0-.155-3.015c-.049-.89.129-1.503.532-1.84.404-.336 1.613-.59 3.63-.76 2.016-.17 4.745-.27 8.188-.298 3.442-.028 5.227-.075 5.353-.14a.396.396 0 0 0 .221-.308.396.396 0 0 0-.119-.36.396.396 0 0 0-.36-.115.396.396 0 0 0-.307.224.396.396 0 0 0 .002.38c.065.125.168.2.308.22.14.022.26-.017.36-.118.1-.1.138-.221.116-.361a.396.396 0 0 0-.225-.306c-.126-.064-1.914-.1-5.362-.11-3.448-.01-6.033-.05-7.756-.121-1.723-.07-3.024-.026-3.903.133-.878.16-1.446.57-1.702 1.233-.257.662-.41 1.492-.457 2.488l-.155 3.175c-.054 1.122-.098 2.15-.13 3.087-.032.936.035 1.849.2 2.736.167.888.485 1.593.956 2.114a2.85 2.85 0 0 0 1.747.935c.692.102 1.506.128 2.44.076.933-.05 1.756-.167 2.469-.349.713-.181 1.55-.599 2.513-1.251.963-.653 3.027-2.367 6.194-5.142 3.167-2.776 5.234-4.593 6.2-5.452.965-.858 1.382-1.336 1.25-1.432" stroke="currentColor" stroke-width="2" stroke-linecap="round" stroke-linejoin="round"/></svg>