<svg width="30" height="30" fill="none" xmlns="http://www.w3.org/2000/svg"><path d="m25.516 18.729-1.047.946-1.048.946-1.276 1.131a61.661 61.661 0 0 0-2.352 2.19 278.04 278.04 0 0 0-1.885 1.873c-.54.544-1.11.95-1.707 1.22s-1.236.331-1.918.186c-.682-.145-1.387-.519-2.114-1.121a17.747 17.747 0 0 1-2.19-2.201 502.135 502.135 0 0 0-2.433-2.848 66.38 66.38 0 0 0-2.53-2.79c-.797-.826-1.435-1.606-1.913-2.34-.479-.735-.813-1.802-1.005-3.202-.191-1.401-.274-2.667-.25-3.8.025-1.132.045-2.189.062-3.17.017-.982.214-1.792.592-2.431.378-.64 1.216-1.082 2.515-1.33 1.299-.246 2.512-.354 3.64-.322 1.128.032 2.239.085 3.332.157 1.093.073 2.184.307 3.274.702a7.483 7.483 0 0 1 2.872 1.882c.826.858 1.7 1.795 2.622 2.81a84.627 84.627 0 0 0 2.597 2.74 54.002 54.002 0 0 0 1.998 1.928c.523.472.965.98 1.326 1.522.361.543.501 1.207.42 1.992-.08.785-.179 1.342-.295 1.67a.973.973 0 0 1-.674.642.973.973 0 0 1-.916-.168.973.973 0 0 1-.402-.84.973.973 0 0 1 .443-.819.973.973 0 0 1 .923-.123c.328.116.542.34.642.675.1.333.043.639-.168.915a.973.973 0 0 1-.84.403.973.973 0 0 1-.82-.443c-.197-.287-.18-.674.053-1.162.232-.488.29-1.033.175-1.633-.116-.601-.38-1.181-.793-1.74-.413-.56-1.026-1.242-1.84-2.048a74.655 74.655 0 0 0-2.744-2.571 902.766 902.766 0 0 0-2.763-2.464c-.827-.733-1.652-1.295-2.473-1.685-.822-.39-1.735-.617-2.74-.68a30.281 30.281 0 0 0-3.173-.024 10.43 10.43 0 0 0-3.167.62c-1 .367-1.618 1.007-1.851 1.92-.234.913-.332 1.928-.295 3.048.038 1.119.082 2.27.132 3.452s.256 2.12.617 2.815c.361.695.953 1.438 1.775 2.229.822.791 1.75 1.63 2.785 2.518 1.034.888 2.092 1.81 3.173 2.768 1.08.956 1.995 1.579 2.746 1.866.75.288 1.43.243 2.041-.134.61-.377 1.269-.922 1.974-1.637a60.493 60.493 0 0 0 2.19-2.35c.754-.85 1.446-1.624 2.077-2.323.63-.698 1.14-1.241 1.526-1.628.386-.386.689-.635.907-.746.218-.111.448-.147.69-.11.241.04.449.145.622.318.173.173.278.38.317.622l-1.436 2.177Z" fill="currentColor" stroke="currentColor" stroke-width="2" stroke-linecap="round" stroke-linejoin="round"/><path d="M8.756 7.605a7814.231 7814.231 0 0 0 .69.224l.212.294c.142.195.213.413.213.655 0 .242-.07.46-.213.655-.142.196-.327.33-.557.406a1.1 1.1 0 0 1-.69 0 1.089 1.089 0 0 1-.557-.406 1.089 1.089 0 0 1-.213-.655c0-.242.071-.46.213-.655l.902-.518Z" fill="currentColor" stroke="currentColor" stroke-width="2" stroke-linecap="round" stroke-linejoin="round"/></svg>