<svg width="30" height="30" fill="none" xmlns="http://www.w3.org/2000/svg"><path d="m27.199 18.99-.98 1.667-.979 1.668-1.402 1.367a13.253 13.253 0 0 1-3.152 2.28 12.767 12.767 0 0 1-3.73 1.255c-1.319.23-2.639.257-3.96.081a12.498 12.498 0 0 1-3.744-1.103 12.306 12.306 0 0 1-5.523-5.213 12.315 12.315 0 0 1-1.307-3.68 12.514 12.514 0 0 1-.108-3.946 12.403 12.403 0 0 1 3.267-6.918 12.314 12.314 0 0 1 6.725-3.656 12.53 12.53 0 0 1 3.946-.107c1.32.172 2.567.538 3.743 1.098 1.176.559 2.487 1.672 3.932 3.34 1.446 1.667 2.198 2.566 2.255 2.695a.4.4 0 0 1-.021.38.396.396 0 0 1-.319.205.396.396 0 0 1-.353-.137.396.396 0 0 1-.098-.367.396.396 0 0 1 .24-.294.396.396 0 0 1 .379.021.396.396 0 0 1 .205.319.396.396 0 0 1-.137.353.396.396 0 0 1-.366.098c-.139-.03-.901-.862-2.287-2.494-1.386-1.633-2.622-2.715-3.707-3.246a11.493 11.493 0 0 0-3.46-1.056 11.614 11.614 0 0 0-3.661.06 11.412 11.412 0 0 0-6.27 3.32 11.498 11.498 0 0 0-3.097 6.38 11.614 11.614 0 0 0 .06 3.661 11.412 11.412 0 0 0 3.32 6.27 11.422 11.422 0 0 0 6.38 3.094c1.222.17 2.437.143 3.646-.083a11.147 11.147 0 0 0 3.381-1.21c1.045-.58 1.963-1.3 2.753-2.157.79-.858 1.42-1.798 1.89-2.82.472-1.022.848-2.166 1.128-3.43.28-1.263.47-1.979.567-2.145a.87.87 0 0 1 .414-.365.871.871 0 0 1 .55-.052.871.871 0 0 1 .474.28l-.594 4.587Z" fill="currentColor" stroke="currentColor" stroke-width="2" stroke-linecap="round" stroke-linejoin="round"/><path d="m23.067 17.52-.575 1.094-.576 1.095-.884.916a8.378 8.378 0 0 1-2.02 1.537 8.242 8.242 0 0 1-2.436.867 8.351 8.351 0 0 1-2.606.084 8.293 8.293 0 0 1-2.476-.705 8.146 8.146 0 0 1-2.107-1.406 8.061 8.061 0 0 1-2.454-4.4 8.249 8.249 0 0 1-.095-2.594 8.228 8.228 0 0 1 .694-2.469A8.105 8.105 0 0 1 8.93 9.434a8.042 8.042 0 0 1 4.391-2.455 8.235 8.235 0 0 1 2.591-.097 8.23 8.23 0 0 1 2.467.691c.777.357 1.622 1.048 2.537 2.075.915 1.027 1.434 1.68 1.559 1.962a.86.86 0 0 1-.046.821.86.86 0 0 1-.69.446.86.86 0 0 1-.768-.297.86.86 0 0 1-.21-.795.86.86 0 0 1 .52-.638.86.86 0 0 1 .82.046.86.86 0 0 1 .446.69.86.86 0 0 1-.297.768.86.86 0 0 1-.795.21c-.3-.065-.843-.574-1.627-1.527-.785-.954-1.467-1.58-2.046-1.877a6.245 6.245 0 0 0-3.829-.598 6.198 6.198 0 0 0-3.406 1.731 6.124 6.124 0 0 0-1.726 3.405 6.231 6.231 0 0 0 .005 1.97 6.178 6.178 0 0 0 1.732 3.396 6.087 6.087 0 0 0 3.396 1.709c.654.1 1.307.094 1.958-.015a6.103 6.103 0 0 0 1.831-.612c.57-.299 1.171-.888 1.804-1.768s1.06-1.73 1.279-2.549c.22-.819.378-1.352.476-1.598.098-.247.26-.441.483-.583a1.2 1.2 0 0 1 .734-.188c.265.017.5.11.704.28l-.156 3.483Z" fill="currentColor" stroke="currentColor" stroke-width="2" stroke-linecap="round" stroke-linejoin="round"/><path d="m18.488 16.044-.21.477-.21.476s-.12.14-.356.422c-.237.28-.516.522-.838.726-.321.204-.72.34-1.195.408-.476.068-1.075-.009-1.799-.23a3.376 3.376 0 0 1-1.764-1.244A3.472 3.472 0 0 1 11.422 15c-.01-.777.208-1.48.655-2.107a3.597 3.597 0 0 1 1.723-1.326c.701-.257 1.46-.17 2.277.264a53.02 53.02 0 0 1 1.824 1c.399.233.621.58.666 1.04.046.46-.104.844-.45 1.15a1.291 1.291 0 0 1-1.195.313 1.291 1.291 0 0 1-.956-.784 1.291 1.291 0 0 1 .073-1.233c.234-.4.58-.621 1.04-.667.46-.045.844.105 1.151.45.307.346.411.745.312 1.196a1.29 1.29 0 0 1-.783.955c-.424.186-1.062.114-1.916-.216-.853-.33-1.211-.294-1.074.107.137.401.37.574.7.52.33-.055.537-.216.621-.485.084-.269.19-.52.315-.752a1.2 1.2 0 0 1 .546-.52 1.19 1.19 0 0 1 .748-.099c.26.048.48.168.663.359l.126 1.879Z" fill="currentColor" stroke="currentColor" stroke-width="2" stroke-linecap="round" stroke-linejoin="round"/></svg>