<svg width="30" height="30" fill="none" xmlns="http://www.w3.org/2000/svg"><path d="m5.754 18.581.86-.809.86-.809L8.523 16c.702-.642 1.26-1.284 1.677-1.927.416-.642.438-1.314.065-2.017-.373-.703-1.117-1.638-2.233-2.805C6.917 8.083 6.315 7.36 6.226 7.08a.82.82 0 0 1 .129-.774.82.82 0 0 1 .702-.35.82.82 0 0 1 .695.361.82.82 0 0 1 .117.775.82.82 0 0 1-.56.55.82.82 0 0 1-.773-.128.82.82 0 0 1-.35-.702.82.82 0 0 1 .362-.696A.82.82 0 0 1 7.323 6c.278.093 1.002.71 2.172 1.85 1.17 1.141 2.078 2.205 2.723 3.193s.889 1.825.732 2.512c-.157.687-.521 1.343-1.092 1.968l-1.82 1.99a191.24 191.24 0 0 1-1.772 1.91c-.54.573-.971 1.021-1.295 1.345-.323.323-.595.541-.816.654-.221.112-.454.15-.699.11a1.117 1.117 0 0 1-.63-.32 1.117 1.117 0 0 1-.322-.631l1.25-2Zm11.583 3.962a9071.142 9071.142 0 0 0 2.225.053l2.297.046c1.531.03 2.44.119 2.726.265a.898.898 0 0 1 .506.695.898.898 0 0 1-.266.817.898.898 0 0 1-.817.266.898.898 0 0 1-.696-.505.898.898 0 0 1 0-.86.898.898 0 0 1 .696-.505c.317-.05.59.038.817.266a.9.9 0 0 1 .266.817.898.898 0 0 1-.506.695c-.286.146-1.195.235-2.726.265-1.531.03-2.668.055-3.41.072a77.83 77.83 0 0 1-1.759.027c-.43 0-.765-.038-1.001-.115a1.121 1.121 0 0 1-.574-.417 1.121 1.121 0 0 1-.22-.675c0-.249.074-.474.22-.675l2.222-.532Z" fill="currentColor" stroke="currentColor" stroke-width="2" stroke-linecap="round" stroke-linejoin="round"/></svg>