<svg width="30" height="30" fill="none" xmlns="http://www.w3.org/2000/svg"><g clip-path="url(#a)"><path d="m16.174 16.516.1-1.565.1-1.566.13-1.89c.085-1.26.135-2.421.149-3.482.014-1.061-.022-1.919-.108-2.573a4.294 4.294 0 0 0-.621-1.759c-.328-.518-.8-.788-1.412-.81-.614-.021-1.102.341-1.465 1.088-.364.746-.596 1.808-.698 3.184a380.586 380.586 0 0 1-.313 3.957 57.038 57.038 0 0 0-.197 3.49 48.254 48.254 0 0 1-.116 2.61 5.367 5.367 0 0 1-.552 1.966 19.27 19.27 0 0 0-.81 1.87 4.7 4.7 0 0 0-.26 1.998c.052.723.266 1.38.643 1.973a4.028 4.028 0 0 0 1.469 1.388c.602.332 1.241.5 1.919.5a3.847 3.847 0 0 0 1.896-.482 3.81 3.81 0 0 0 1.413-1.33 3.733 3.733 0 0 0 .574-1.863c.029-.678-.2-1.465-.687-2.36-.487-.895-.705-1.582-.654-2.06a1.34 1.34 0 0 1 .701-1.078c.417-.24.845-.262 1.284-.066.44.196.709.53.808 1 .1.47-.011.885-.334 1.242-.322.357-.722.51-1.2.46a1.344 1.344 0 0 1-1.078-.702 1.344 1.344 0 0 1-.066-1.284c.196-.44.53-.709 1-.808.47-.1.884.012 1.242.334.357.322.816 1.106 1.377 2.35.561 1.246.811 2.316.75 3.212a6.86 6.86 0 0 1-.677 2.552 6.836 6.836 0 0 1-1.582 2.11 6.816 6.816 0 0 1-2.252 1.358 6.767 6.767 0 0 1-2.587.41 6.727 6.727 0 0 1-2.54-.59 6.655 6.655 0 0 1-2.115-1.496 6.56 6.56 0 0 1-1.377-2.166 6.446 6.446 0 0 1-.444-2.498 6.318 6.318 0 0 1 .532-2.428c.335-.763.727-1.41 1.176-1.94.45-.53.745-1.096.887-1.7.143-.603.202-1.434.178-2.492a57.377 57.377 0 0 0-.195-3.481 481.102 481.102 0 0 0-.305-3.479 17.647 17.647 0 0 1-.034-2.989c.074-.936.286-1.728.637-2.375.35-.648.813-1.152 1.387-1.512a4.079 4.079 0 0 1 1.859-.622 3.992 3.992 0 0 1 1.898.296c.6.251 1.104.624 1.51 1.119.405.494.669 1.089.79 1.786.12.696.17 1.387.15 2.071a61.564 61.564 0 0 0-.01 2.619 64.29 64.29 0 0 0 .15 3.482c.085 1.26.161 2.412.228 3.456.066 1.043.1 1.869.1 2.476s-.038 1.025-.112 1.255a1.09 1.09 0 0 1-.406.558 1.09 1.09 0 0 1-.656.213 1.09 1.09 0 0 1-.656-.213l-.518-2.724Z" fill="currentColor" stroke="currentColor" stroke-width="2" stroke-linecap="round" stroke-linejoin="round"/></g><defs><clipPath id="a"><path fill="#fff" d="M0 0h30v30H0z"/></clipPath></defs></svg>