<svg width="30" height="30" fill="none" xmlns="http://www.w3.org/2000/svg"><g clip-path="url(#a)"><path d="m16.393 10.648-.017-.556-.018-.556-.015-.76a17.272 17.272 0 0 0-.134-1.735c-.08-.65-.297-1.14-.65-1.47-.354-.331-.832-.173-1.434.475-.602.647-1.168 1.454-1.697 2.422a32.69 32.69 0 0 0-1.396 2.858 13.488 13.488 0 0 0-.868 2.822 22.306 22.306 0 0 0-.347 2.941l-.182 3.38c-.067 1.235.033 2.362.3 3.38.268 1.02.986 1.753 2.154 2.203 1.17.449 2.38.705 3.636.768 1.254.064 2.412.097 3.474.1 1.062.002 1.918-.049 2.566-.151.649-.103 1.228-.419 1.738-.949s.884-1.415 1.122-2.657c.239-1.24.46-2.362.664-3.363.204-1 .377-1.948.518-2.841.142-.893.178-1.666.11-2.32-.07-.652-.365-1.147-.887-1.484-.523-.337-1.126-.505-1.81-.504-.685 0-1.643.457-2.874 1.37-1.232.912-3.06 2.886-5.486 5.924-2.426 3.037-4.027 4.988-4.804 5.853-.776.865-1.585 1.444-2.426 1.738-.841.294-1.597.433-2.266.419a4.344 4.344 0 0 1-1.854-.442c-.567-.28-1.013-.767-1.336-1.457-.324-.691-.514-1.544-.57-2.559a40.378 40.378 0 0 1-.07-2.7c.01-.786.012-1.536.007-2.25-.006-.715.014-1.4.06-2.056.045-.655.246-1.312.603-1.97a3.562 3.562 0 0 1 1.511-1.495c.65-.34 1.55-.533 2.7-.582 1.15-.048 1.917.024 2.302.218.385.195.612.504.68.93.07.425-.047.79-.35 1.097a1.204 1.204 0 0 1-1.095.36 1.204 1.204 0 0 1-.935-.673 1.204 1.204 0 0 1-.004-1.152c.194-.385.504-.612.929-.681a1.2 1.2 0 0 1 1.097.352c.306.303.426.668.36 1.094a1.2 1.2 0 0 1-.673.934c-.383.197-1.193.377-2.428.539-1.236.162-1.976.53-2.22 1.104-.246.575-.377 1.227-.393 1.957-.017.73-.02 1.487-.01 2.271.01.785.006 1.587-.012 2.405-.017.818.09 1.555.323 2.21.233.656.66 1.08 1.277 1.275.618.194 1.279.202 1.981.023.703-.178 1.41-.676 2.124-1.493.714-.817 2.09-2.969 4.132-6.454 2.041-3.486 3.662-5.807 4.861-6.964 1.2-1.157 2.139-1.756 2.816-1.796.678-.04 1.408-.056 2.191-.047a7.51 7.51 0 0 1 2.153.32c.653.205 1.191.534 1.616.987.426.454.702.99.829 1.607a5.67 5.67 0 0 1 .036 1.977l-.351 2.394a69.017 69.017 0 0 0-.357 2.87 223.676 223.676 0 0 1-.307 2.797 16.234 16.234 0 0 1-.43 2.322c-.187.7-.496 1.295-.927 1.788-.432.492-1 .817-1.705.974a8.472 8.472 0 0 1-2.096.205 98.46 98.46 0 0 0-6.136.035c-1.27.046-2.624-.052-4.062-.295-1.438-.243-2.36-.703-2.765-1.38-.405-.677-.621-1.553-.647-2.626-.026-1.073-.07-2.23-.131-3.472a163.687 163.687 0 0 1-.137-3.473c-.03-1.075.092-2.15.365-3.227s.6-2.117.984-3.12c.383-1.002.76-2.027 1.13-3.074.372-1.046.725-2.023 1.06-2.93a4.668 4.668 0 0 1 1.68-2.21c.785-.568 1.562-.77 2.332-.607a3.51 3.51 0 0 1 1.939 1.124 4.912 4.912 0 0 1 1.088 1.958c.202.72.311 1.419.327 2.099.016.68.019 1.273.009 1.78-.01.507-.021.945-.033 1.316a29.5 29.5 0 0 0-.017.88 2.2 2.2 0 0 1-.116.679 1.12 1.12 0 0 1-.418.576 1.13 1.13 0 0 1-.677.22c-.25 0-.475-.074-.677-.22l-.534-1.579Z" fill="currentColor" stroke="currentColor" stroke-width="2" stroke-linecap="round" stroke-linejoin="round"/></g><defs><clipPath id="a"><path fill="#fff" d="M0 0h30v30H0z"/></clipPath></defs></svg>