<svg width="30" height="30" fill="none" xmlns="http://www.w3.org/2000/svg"><g clip-path="url(#a)"><path d="m13.608 19.352.018.556.017.556.015.76c.01.507.055 1.085.135 1.735.08.65.296 1.14.65 1.47.353.33.831.173 1.433-.475.603-.647 1.168-1.455 1.697-2.422.53-.968.995-1.92 1.397-2.859.401-.938.69-1.878.868-2.82a22.36 22.36 0 0 0 .347-2.942l.181-3.38c.068-1.235-.032-2.362-.3-3.38-.267-1.02-.985-1.753-2.154-2.203a11.711 11.711 0 0 0-3.635-.769 72.636 72.636 0 0 0-3.475-.098c-1.062-.003-1.917.047-2.566.15-.648.103-1.227.419-1.738.949-.51.53-.884 1.415-1.122 2.656-.238 1.242-.46 2.363-.663 3.364a65.816 65.816 0 0 0-.519 2.84c-.141.894-.178 1.667-.109 2.32.069.653.364 1.148.887 1.485.522.337 1.125.505 1.81.504.684 0 1.642-.457 2.874-1.37 1.231-.912 3.058-2.886 5.481-5.923s4.01-4.988 4.76-5.852c.75-.864 1.515-1.442 2.293-1.734.777-.292 1.484-.43 2.12-.414a5.08 5.08 0 0 1 1.862.404c.604.253 1.098.722 1.48 1.404.383.682.616 1.546.7 2.591a30.13 30.13 0 0 1 .113 2.747c-.01.786-.013 1.54-.012 2.263.002.722-.036 1.423-.114 2.105-.078.681-.332 1.35-.762 2.009a3.848 3.848 0 0 1-1.762 1.46c-.744.315-1.596.493-2.556.536-.959.042-1.635-.03-2.027-.215a1.212 1.212 0 0 1-.71-.918c-.08-.427.029-.798.326-1.114a1.213 1.213 0 0 1 1.093-.39c.43.055.75.272.958.653.208.38.22.767.034 1.16a1.212 1.212 0 0 1-.918.71 1.212 1.212 0 0 1-1.113-.327 1.212 1.212 0 0 1-.391-1.092c.055-.43.273-.75.654-.958.38-.208 1.215-.403 2.504-.583 1.289-.18 2.046-.551 2.27-1.111.225-.56.348-1.202.37-1.924a50.78 50.78 0 0 0 .019-2.26c-.01-.784-.008-1.607.006-2.467.015-.86-.136-1.61-.452-2.249-.317-.638-.783-1.044-1.399-1.217a3.428 3.428 0 0 0-1.89.012c-.644.181-1.311.68-2.002 1.499-.69.818-2.054 2.97-4.093 6.456s-3.658 5.807-4.858 6.964C10.44 19.361 9.502 19.96 8.824 20c-.678.04-1.408.056-2.191.047a7.486 7.486 0 0 1-2.153-.32c-.652-.205-1.19-.534-1.616-.987a3.265 3.265 0 0 1-.828-1.608 5.674 5.674 0 0 1-.037-1.976l.352-2.395c.132-.897.25-1.853.356-2.87.106-1.017.208-1.949.307-2.797.1-.847.242-1.621.43-2.32.187-.7.496-1.297.928-1.789.431-.492 1-.817 1.704-.974a8.474 8.474 0 0 1 2.097-.205 98.523 98.523 0 0 0 6.136-.035c1.27-.046 2.624.052 4.062.295 1.437.243 2.359.703 2.764 1.38.406.677.621 1.552.648 2.626.026 1.073.07 2.23.13 3.471.062 1.241.107 2.4.137 3.474.03 1.074-.091 2.15-.364 3.227a28.095 28.095 0 0 1-.984 3.12 136.87 136.87 0 0 0-1.131 3.073 240.619 240.619 0 0 1-1.06 2.93 4.668 4.668 0 0 1-1.68 2.211c-.785.568-1.562.77-2.332.607a3.513 3.513 0 0 1-1.938-1.124 4.91 4.91 0 0 1-1.088-1.958 8.46 8.46 0 0 1-.328-2.099 41.926 41.926 0 0 1-.008-1.78c.01-.507.02-.945.032-1.316.012-.371.018-.664.018-.88a2.2 2.2 0 0 1 .115-.68c.077-.236.217-.428.419-.575.201-.146.427-.22.677-.22.249 0 .475.074.676.22l.534 1.579Z" fill="currentColor" stroke="currentColor" stroke-width="2" stroke-linecap="round" stroke-linejoin="round"/></g><defs><clipPath id="a"><path fill="#fff" d="M0 0h30v30H0z"/></clipPath></defs></svg>