<svg width="30" height="30" fill="none" xmlns="http://www.w3.org/2000/svg"><g clip-path="url(#a)" fill="currentColor" stroke="currentColor" stroke-width="2" stroke-linecap="round" stroke-linejoin="round"><path d="m11.29 5.174 1.112.027 1.113.026a67797.361 67797.361 0 0 0 4.14.162c.968.04 2.062.147 3.282.322 1.22.176 2.254.483 3.104.922.85.438 1.623.992 2.318 1.66a9.37 9.37 0 0 1 1.743 2.284 9.442 9.442 0 0 1 1.059 5.689 9.358 9.358 0 0 1-.802 2.79 9.183 9.183 0 0 1-1.593 2.372 9.055 9.055 0 0 1-2.247 1.763 10.27 10.27 0 0 1-2.829 1.05c-1.04.228-2.159.385-3.356.471a38.144 38.144 0 0 1-3.162.112c-.91-.012-1.852-.03-2.824-.053a30.592 30.592 0 0 1-3.285-.281c-1.218-.164-2.252-.462-3.1-.895a9.754 9.754 0 0 1-2.317-1.645 9.313 9.313 0 0 1-2.72-5.017 9.391 9.391 0 0 1-.088-2.937c.124-.981.39-1.91.799-2.787.408-.876 1.205-1.838 2.392-2.886 1.187-1.047 1.902-1.625 2.146-1.732a.744.744 0 0 1 .71.039c.231.134.36.333.387.598a.744.744 0 0 1-.257.664.744.744 0 0 1-.689.183.744.744 0 0 1-.552-.45.744.744 0 0 1 .04-.711.744.744 0 0 1 .598-.386.744.744 0 0 1 .664.257.744.744 0 0 1 .182.688c-.056.26-.646.858-1.769 1.793-1.123.935-1.862 1.755-2.217 2.461a7.387 7.387 0 0 0-.71 2.256 7.519 7.519 0 0 0 .028 2.389 7.47 7.47 0 0 0 2.14 4.092c.555.544 1.18.993 1.872 1.347.693.354 1.592.617 2.699.789a25.4 25.4 0 0 0 3.08.304c.946.03 1.87.037 2.772.02.903-.017 1.9-.038 2.994-.063a19.742 19.742 0 0 0 2.965-.27 8.184 8.184 0 0 0 2.377-.781 7.44 7.44 0 0 0 3.935-5.53 7.493 7.493 0 0 0-.03-2.386 7.434 7.434 0 0 0-2.143-4.076 7.538 7.538 0 0 0-1.87-1.332c-.692-.348-1.59-.602-2.693-.763a24.422 24.422 0 0 0-3.072-.266 49.046 49.046 0 0 0-2.758.026c-.896.035-1.714.061-2.456.079-.741.017-1.327.026-1.759.026-.431 0-.765-.038-1.001-.115a1.12 1.12 0 0 1-.574-.417 1.12 1.12 0 0 1-.22-.675c0-.248.073-.473.22-.675l2.222-.532Z"/><path d="m24.653 16.418-.295.637-.296.637-.674.612c-.45.408-1.143.76-2.082 1.058a4.49 4.49 0 0 1-2.826-.02 4.43 4.43 0 0 1-2.281-1.678 4.532 4.532 0 0 1-.852-2.73 4.504 4.504 0 0 1 .904-2.72 4.526 4.526 0 0 1 2.336-1.656c.962-.302 2.079-.11 3.351.577 1.272.687 2.052 1.192 2.34 1.515.288.324.386.698.293 1.12a1.21 1.21 0 0 1-.735.896 1.21 1.21 0 0 1-1.155-.068 1.21 1.21 0 0 1-.625-.975 1.21 1.21 0 0 1 .422-1.078 1.21 1.21 0 0 1 1.12-.293c.423.093.722.337.895.734a1.21 1.21 0 0 1-.067 1.156 1.21 1.21 0 0 1-.976.625c-.43.042-1.03-.239-1.798-.844-.768-.606-1.475-.838-2.12-.698s-1.083.51-1.315 1.114a1.826 1.826 0 0 0 .17 1.72c.345.543.852.835 1.52.873.67.039 1.21-.108 1.623-.441.413-.334.673-.701.78-1.102.107-.402.222-.719.343-.95.122-.232.3-.406.534-.522a1.18 1.18 0 0 1 .738-.108c.258.044.479.16.661.347l.067 2.262Z"/></g><defs><clipPath id="a"><path fill="#fff" d="M0 0h30v30H0z"/></clipPath></defs></svg>