<svg width="30" height="30" fill="none" xmlns="http://www.w3.org/2000/svg"><path d="M19.494 9.2a5782.381 5782.381 0 0 0 1.441.631l1.05-.498c.7-.333 1.607-.978 2.724-1.938 1.116-.959 1.816-1.416 2.1-1.371a1.3 1.3 0 0 1 .73.372c.203.203.327.447.372.73.045.285.106.54.184.768.078.228.222.773.432 1.634.21.862.252 1.645.122 2.35a8.713 8.713 0 0 1-1.748 3.854 8.79 8.79 0 0 1-3.358 2.597 8.789 8.789 0 0 1-2.05.62 50.45 50.45 0 0 1-2.306.343c-.827.105-1.776.411-2.846.918a13.065 13.065 0 0 0-2.858 1.82c-.835.706-1.609 1.4-2.321 2.081a135.31 135.31 0 0 1-1.972 1.852 5.263 5.263 0 0 1-2.001 1.174 3.313 3.313 0 0 1-2.182-.053 3.674 3.674 0 0 1-1.747-1.306c-.442-.606-.683-1.217-.724-1.832-.042-.615.137-1.278.536-1.991.399-.713 1.1-1.545 2.104-2.497a73.782 73.782 0 0 1 2.759-2.501 21.358 21.358 0 0 0 2.193-2.149c.627-.717 1.015-1.44 1.164-2.168.148-.728.198-1.42.148-2.079a8.626 8.626 0 0 1 .672-4.016 8.557 8.557 0 0 1 2.544-3.309 8.68 8.68 0 0 1 3.838-1.73c.704-.128 1.78-.034 3.226.281 1.446.316 2.233.613 2.36.893.126.28.159.57.097.872a1.385 1.385 0 0 1-.434.762 6.134 6.134 0 0 0-.584.603c-.162.195-.565.663-1.207 1.402a39.487 39.487 0 0 1-1.775 1.925c-.54.544-1.013.883-1.417 1.017a1.19 1.19 0 0 1-1.126-.17 1.19 1.19 0 0 1-.524-1.011 1.19 1.19 0 0 1 .51-1.018 1.19 1.19 0 0 1 1.123-.186c.407.129.677.395.811.8.135.403.078.779-.17 1.125a1.19 1.19 0 0 1-1.01.524 1.19 1.19 0 0 1-1.019-.51 1.19 1.19 0 0 1-.186-1.123c.129-.406.464-.88 1.006-1.422.542-.542 1.114-1.118 1.717-1.73a7.275 7.275 0 0 1 2.12-1.484c.811-.379 1.327-.606 1.547-.682.22-.076.394.026.52.306.127.28.16.57.098.872a1.385 1.385 0 0 1-.434.762c-.227.207-1.144.274-2.752.2-1.608-.072-2.743.032-3.406.313-.664.28-1.26.67-1.79 1.17-.529.5-.959 1.08-1.288 1.741a6.415 6.415 0 0 0-.626 2.163c-.088.78-.165 1.59-.233 2.427-.067.837-.28 1.527-.637 2.068-.358.541-.857 1.152-1.498 1.832a63.64 63.64 0 0 0-2.032 2.273c-.714.834-1.367 1.599-1.957 2.293a9.056 9.056 0 0 0-1.394 2.184c-.34.762-.292 1.281.142 1.558.434.277.966.227 1.594-.15.628-.377 1.283-.918 1.966-1.623a52.117 52.117 0 0 0 2.102-2.315c.72-.838 1.618-1.713 2.696-2.625 1.077-.912 2.094-1.433 3.05-1.565.955-.132 1.81-.22 2.562-.262a6.053 6.053 0 0 0 2.105-.49 5.793 5.793 0 0 0 1.739-1.175c.51-.498.915-1.07 1.218-1.718a6.135 6.135 0 0 0 .543-2.143c.06-.78.146-1.614.258-2.5.11-.887.185-1.444.222-1.672.037-.228.198-.319.482-.274a1.3 1.3 0 0 1 .73.372c.203.203.327.447.372.73.045.285-.412.985-1.372 2.102-.96 1.116-1.732 1.972-2.314 2.566-.583.595-1.186 1.025-1.809 1.293-.623.267-1.232.312-1.828.135a4.106 4.106 0 0 1-1.596-.899 15.868 15.868 0 0 1-1.123-1.098 4.779 4.779 0 0 1-.686-.962 2.61 2.61 0 0 1-.303-1.06 2.37 2.37 0 0 1 .157-1.054c.13-.327.195-.55.195-.668-.001-.119.11-.264.333-.436a1.27 1.27 0 0 1 .757-.272c.282-.008.54.067.772.226.233.159.397.37.492.636L19.494 9.2Z" fill="currentColor"/><path d="M26.809 6.024c-.284-.045-.984.412-2.1 1.371-1.117.96-2.025 1.605-2.724 1.938l-1.05.498-.72-.315-.72-.316.091-1.565A1.27 1.27 0 0 0 19.094 7a1.27 1.27 0 0 0-.772-.226 1.27 1.27 0 0 0-.757.272c-.223.172-.334.317-.334.436.001.118-.064.341-.194.668a2.37 2.37 0 0 0-.157 1.055c.026.375.127.728.303 1.059.177.33.405.651.686.962.28.31.655.677 1.123 1.098a4.1 4.1 0 0 0 1.596.899c.596.177 1.205.132 1.828-.135.623-.268 1.226-.698 1.809-1.293.582-.594 1.354-1.45 2.314-2.566.96-1.117 1.417-1.817 1.372-2.101a1.295 1.295 0 0 0-.372-.73m-.73-.373a1.3 1.3 0 0 1 .73.372m-.73-.372c-.284-.045-.445.046-.482.274-.037.228-.111.785-.223 1.672-.11.886-.196 1.72-.257 2.5a6.135 6.135 0 0 1-.544 2.143 5.837 5.837 0 0 1-1.217 1.718c-.51.498-1.09.89-1.74 1.175a6.053 6.053 0 0 1-2.104.49c-.753.043-1.607.13-2.563.262-.955.132-1.972.653-3.05 1.565-1.077.912-1.976 1.787-2.695 2.625-.719.838-1.42 1.61-2.102 2.315-.683.705-1.338 1.246-1.966 1.623-.628.377-1.16.427-1.594.15-.434-.277-.481-.796-.142-1.558a9.06 9.06 0 0 1 1.394-2.184c.59-.694 1.243-1.459 1.957-2.293a63.64 63.64 0 0 1 2.032-2.273c.641-.68 1.14-1.29 1.498-1.832.358-.541.57-1.23.637-2.068.068-.838.145-1.647.233-2.427.088-.78.297-1.502.626-2.163a6.136 6.136 0 0 1 1.289-1.74c.53-.5 1.125-.89 1.789-1.171.663-.281 1.798-.385 3.406-.312 1.608.073 2.525.006 2.752-.201m3.796 2.082c.203.203.327.447.372.73.045.285.106.54.184.768.078.228.222.773.432 1.634.21.862.252 1.645.122 2.35a8.713 8.713 0 0 1-1.748 3.854 8.79 8.79 0 0 1-3.358 2.597 8.789 8.789 0 0 1-2.05.62 50.45 50.45 0 0 1-2.306.343c-.827.105-1.776.411-2.846.918a13.065 13.065 0 0 0-2.858 1.82c-.835.706-1.609 1.4-2.321 2.081a135.31 135.31 0 0 1-1.972 1.852 5.263 5.263 0 0 1-2.001 1.174 3.313 3.313 0 0 1-2.182-.053 3.674 3.674 0 0 1-1.747-1.306c-.442-.606-.683-1.217-.724-1.832-.042-.615.137-1.278.536-1.991.399-.713 1.1-1.545 2.104-2.497a73.782 73.782 0 0 1 2.759-2.501 21.358 21.358 0 0 0 2.193-2.149c.627-.717 1.015-1.44 1.164-2.168.148-.728.198-1.42.148-2.079a8.626 8.626 0 0 1 .672-4.016 8.557 8.557 0 0 1 2.544-3.309 8.68 8.68 0 0 1 3.838-1.73c.704-.128 1.78-.034 3.226.281 1.446.316 2.233.613 2.36.893.126.28.159.57.097.872a1.385 1.385 0 0 1-.434.762m0 0a6.134 6.134 0 0 0-.584.603c-.162.195-.565.663-1.207 1.402a39.487 39.487 0 0 1-1.775 1.925c-.54.544-1.013.883-1.417 1.017a1.19 1.19 0 0 1-1.126-.17 1.19 1.19 0 0 1-.524-1.011 1.19 1.19 0 0 1 .51-1.018 1.19 1.19 0 0 1 1.123-.186c.407.129.677.395.811.8.135.403.078.779-.17 1.125a1.19 1.19 0 0 1-1.01.524 1.19 1.19 0 0 1-1.019-.51 1.19 1.19 0 0 1-.186-1.123c.129-.406.464-.88 1.006-1.422.542-.542 1.114-1.118 1.717-1.73a7.275 7.275 0 0 1 2.12-1.484c.811-.379 1.327-.606 1.547-.682.22-.076.394.026.52.306.127.28.16.57.098.872a1.385 1.385 0 0 1-.434.762Z" stroke="currentColor" stroke-width="2" stroke-linecap="round" stroke-linejoin="round"/></svg>