<svg width="30" height="30" fill="none" xmlns="http://www.w3.org/2000/svg"><path d="m6.496 6.304.573-.033.573-.033 1.094.042c.729.028 2.044.12 3.945.273 1.901.153 4.384.273 7.449.359 3.064.086 4.66.16 4.786.225a.4.4 0 0 1 .223.307.396.396 0 0 1-.118.36c-.1.1-.22.14-.36.118a.396.396 0 0 1-.307-.223.396.396 0 0 1 0-.38.396.396 0 0 1 .307-.222c.14-.022.26.017.36.117.1.1.14.22.118.36a.396.396 0 0 1-.223.307c-.127.065-1.722.14-4.787.226-3.064.086-5.547.206-7.448.359-1.901.153-3.216.244-3.945.272-.73.029-1.285.032-1.667.01a16.31 16.31 0 0 0-.82-.033 2 2 0 0 1-.601-.115 1.12 1.12 0 0 1-.574-.417 1.12 1.12 0 0 1-.219-.674c0-.248.073-.473.22-.674l1.421-.531Z" fill="currentColor" stroke="currentColor" stroke-width="2" stroke-linecap="round" stroke-linejoin="round"/><path d="m24.893 9.874-.172 1.946-.173 1.947-.151 2.35c-.1 1.567-.15 3.01-.147 4.33.003 1.319.013 2.374.03 3.167.016.792-.03 1.518-.138 2.18-.108.66-.429 1.232-.963 1.716-.535.483-1.25.806-2.147.97-.896.162-1.813.225-2.75.188a246.41 246.41 0 0 1-3.086-.144 67.17 67.17 0 0 0-3.192-.095 131.324 131.324 0 0 1-2.732-.038c-.815-.02-1.545-.196-2.191-.527a3.285 3.285 0 0 1-1.464-1.466c-.33-.647-.5-1.395-.51-2.244-.008-.85.05-1.927.174-3.234.124-1.307.24-2.75.35-4.329.11-1.578.296-3.052.558-4.42.262-1.37.778-2.472 1.548-3.308.77-.836 1.212-1.57 1.326-2.204.115-.634.206-1.269.271-1.904.066-.636.311-1.232.735-1.788.424-.557 1.018-.959 1.782-1.207.764-.249 1.612-.388 2.545-.417.933-.03 1.741-.029 2.426.003a6.431 6.431 0 0 1 2.08.465 3.72 3.72 0 0 1 1.709 1.349c.436.621.7 1.406.791 2.354.092.949.06 1.642-.095 2.08a1.298 1.298 0 0 1-.901.854 1.298 1.298 0 0 1-1.221-.226A1.298 1.298 0 0 1 18.65 7.1c.012-.465.21-.828.593-1.091a1.298 1.298 0 0 1 1.23-.162c.439.155.724.456.855.901.132.446.056.853-.227 1.221a1.298 1.298 0 0 1-1.12.534 1.298 1.298 0 0 1-1.092-.593c-.263-.383-.545-1.075-.848-2.076-.302-1.002-.752-1.571-1.35-1.708-.597-.138-1.349-.219-2.255-.243-.905-.025-1.663.135-2.273.48-.61.346-1.012.813-1.205 1.4a9.639 9.639 0 0 1-.778 1.744c-.326.574-.878 1.212-1.655 1.912-.777.701-1.27 1.687-1.476 2.957-.206 1.27-.254 2.685-.144 4.243.11 1.559.226 3.153.349 4.782.122 1.63.339 2.845.65 3.645.31.8.822 1.29 1.535 1.47.712.178 1.57.267 2.571.266a59.7 59.7 0 0 0 3.184-.09c1.12-.059 2.146-.108 3.076-.146.93-.04 1.79-.113 2.582-.22.79-.107 1.358-.4 1.703-.88.344-.478.551-1.102.62-1.87.07-.768.106-1.811.11-3.13a65.215 65.215 0 0 0-.147-4.33c-.101-1.567-.21-3-.324-4.297-.115-1.298-.172-2.324-.172-3.078 0-.755.035-1.243.107-1.463.072-.22.201-.399.389-.535.187-.136.397-.205.629-.205.232 0 .441.069.629.205l.496 3.13Z" fill="currentColor" stroke="currentColor" stroke-width="2" stroke-linecap="round" stroke-linejoin="round"/><path d="m13.713 15.472.003.835.002.834-.012 1.723c-.008 1.148-.095 1.883-.259 2.205a1.01 1.01 0 0 1-.782.568 1.01 1.01 0 0 1-.919-.298 1.01 1.01 0 0 1-.298-.92 1.01 1.01 0 0 1 .568-.781 1.01 1.01 0 0 1 .966 0c.322.164.511.425.568.782a1.01 1.01 0 0 1-.299.919 1.01 1.01 0 0 1-.918.298 1.01 1.01 0 0 1-.782-.568c-.164-.322-.25-1.057-.259-2.206a274.234 274.234 0 0 1-.007-3.876c0-.323.038-.604.116-.842.077-.238.217-.43.42-.577.202-.147.428-.22.678-.22.25 0 .476.073.679.22l.535 1.904Zm5 0a5220.5 5220.5 0 0 0 .005 1.669l-.012 1.723c-.008 1.148-.095 1.883-.259 2.205a1.01 1.01 0 0 1-.782.568 1.01 1.01 0 0 1-.919-.298 1.01 1.01 0 0 1-.298-.92 1.01 1.01 0 0 1 .568-.781 1.01 1.01 0 0 1 .966 0c.322.164.512.425.568.782a1.01 1.01 0 0 1-.299.919 1.01 1.01 0 0 1-.919.298 1.01 1.01 0 0 1-.781-.568c-.164-.322-.25-1.057-.259-2.206a274.234 274.234 0 0 1-.007-3.876c0-.323.038-.604.116-.842.077-.238.217-.43.42-.577.202-.147.428-.22.678-.22.25 0 .476.073.679.22l.535 1.904Z" fill="currentColor" stroke="currentColor" stroke-width="2" stroke-linecap="round" stroke-linejoin="round"/></svg>