<svg width="30" height="30" fill="none" xmlns="http://www.w3.org/2000/svg"><path d="M8.511 2.735a541483.9 541483.9 0 0 0 3.894.345l2.35.151c1.567.101 3.01.15 4.33.147l3.195-.008c.812-.002 1.57.077 2.274.238.705.16 1.273.524 1.703 1.09.43.567.7 1.35.81 2.35.11 1 .12 2.158.028 3.477a246.02 246.02 0 0 0-.259 4.334 78.952 78.952 0 0 0-.113 4.336c.005 1.32.007 2.386.005 3.197a10.377 10.377 0 0 1-.24 2.273 2.861 2.861 0 0 1-1.085 1.7c-.565.429-1.347.699-2.345.809-.998.11-2.157.12-3.476.03a252.3 252.3 0 0 0-4.333-.256 79.792 79.792 0 0 0-4.337-.112c-1.32.005-2.385.007-3.197.005a10.382 10.382 0 0 1-2.272-.24 2.86 2.86 0 0 1-1.7-1.085c-.429-.565-.699-1.346-.809-2.345-.11-.998-.12-2.157-.03-3.475.09-1.319.175-2.763.255-4.334.08-1.57.118-3.016.113-4.336-.005-1.32-.01-2.377-.012-3.171s.185-1.625.564-2.493c.378-.868.635-1.412.77-1.633a.724.724 0 0 1 .592-.363.724.724 0 0 1 .64.266.724.724 0 0 1 .162.674.724.724 0 0 1-.45.527.726.726 0 0 1-.691-.055.724.724 0 0 1-.362-.59.724.724 0 0 1 .265-.641.724.724 0 0 1 .674-.162c.252.06.428.21.527.45.099.24-.13.776-.686 1.61-.556.833-.867 1.641-.934 2.425-.067.784-.103 1.835-.107 3.155-.005 1.32.034 2.765.115 4.335.082 1.569.171 3.005.268 4.307.097 1.303.176 2.393.236 3.271.06.878.36 1.539.898 1.982.538.442 1.204.712 1.999.81.795.098 1.852.15 3.172.154a78.57 78.57 0 0 0 4.334-.116c1.57-.081 3.006-.17 4.308-.268 1.303-.097 2.393-.176 3.27-.236.879-.06 1.54-.36 1.982-.898.442-.537.713-1.204.81-1.998.099-.795.15-1.853.155-3.172a77.76 77.76 0 0 0-.117-4.335c-.083-1.57-.173-3.005-.271-4.307a544.252 544.252 0 0 1-.238-3.268c-.061-.876-.36-1.534-.896-1.975-.536-.44-1.201-.71-1.995-.812-.794-.1-1.85-.153-3.17-.156a65.296 65.296 0 0 0-4.33.147c-1.566.1-2.998.208-4.296.323-1.298.115-2.324.173-3.079.173-.754 0-1.242-.036-1.462-.108a1.045 1.045 0 0 1-.536-.389 1.045 1.045 0 0 1-.204-.629c0-.231.068-.441.204-.629l3.13-.496Z" fill="currentColor" stroke="currentColor" stroke-width="2" stroke-linecap="round" stroke-linejoin="round"/><path d="m9.498 7.742.793-.032.793-.032.563.105c.376.07.782.369 1.219.897.436.529.683 1.364.74 2.506a30.05 30.05 0 0 1-.003 3.23c-.06 1.012-.125 1.99-.196 2.935-.072.945-.284 1.784-.634 2.515-.351.732-.934 1.13-1.747 1.195a3.18 3.18 0 0 1-2.219-.648c-.666-.497-1.03-1.313-1.093-2.448-.063-1.136-.072-2.567-.026-4.293.046-1.727.137-2.725.274-2.995a.846.846 0 0 1 .654-.478.844.844 0 0 1 .77.248c.215.214.3.47.253.77a.846.846 0 0 1-.474.656.846.846 0 0 1-.81.002.846.846 0 0 1-.478-.654.846.846 0 0 1 .248-.77.846.846 0 0 1 .77-.253.848.848 0 0 1 .656.474c.138.27.233 1.264.284 2.983.052 1.72.088 3.065.11 4.036.021.971-.033 1.467-.162 1.489-.13.02.046-.119.529-.42.483-.3.8-.845.953-1.636.153-.79.198-1.687.135-2.69a85.673 85.673 0 0 1-.136-2.953c-.028-.965.03-1.45.173-1.453.144-.003.12.03-.069.1-.19.07-.549.095-1.077.074a32.03 32.03 0 0 0-1.163-.033c-.248 0-.49-.038-.728-.115a1.127 1.127 0 0 1-.577-.42 1.127 1.127 0 0 1-.22-.678c0-.25.073-.477.22-.679l1.675-.535Zm8.752-.156.792-.033c.528-.02.792-.032.792-.032l.543.076c.361.05.75.26 1.168.628.417.37.697.986.84 1.849.142.863.172 1.805.09 2.825-.083 1.02-.341 1.823-.774 2.411-.433.589-1.066.894-1.897.917-.831.022-1.587-.159-2.267-.544-.68-.385-1.088-1.426-1.222-3.123-.134-1.696-.11-2.735.072-3.116.182-.381.48-.61.895-.687a1.18 1.18 0 0 1 1.082.321c.306.29.432.645.376 1.064a1.179 1.179 0 0 1-.639.93 1.179 1.179 0 0 1-1.128.029c-.38-.182-.61-.48-.686-.896-.077-.415.03-.775.32-1.081a1.182 1.182 0 0 1 1.064-.377c.419.056.728.269.93.64.2.37.215 1.083.042 2.138-.172 1.055-.049 1.756.372 2.106.42.349.685.297.795-.155.11-.453.234-1.037.374-1.754.14-.716.116-1.17-.07-1.36-.186-.19-.544-.295-1.072-.317a32.023 32.023 0 0 0-1.164-.032 2.34 2.34 0 0 1-.727-.116 1.127 1.127 0 0 1-.577-.42 1.127 1.127 0 0 1-.22-.678c0-.25.073-.476.22-.678l1.675-.535Z" fill="currentColor" stroke="currentColor" stroke-width="2" stroke-linecap="round" stroke-linejoin="round"/></svg>