<svg width="30" height="30" fill="none" xmlns="http://www.w3.org/2000/svg"><g clip-path="url(#a)" fill="currentColor" stroke="currentColor" stroke-width="2" stroke-linecap="round" stroke-linejoin="round"><path d="m25.324 20.69-1.21-1.432-1.21-1.431-1.488-1.703a73.004 73.004 0 0 0-2.803-3.045c-.877-.895-1.579-1.477-2.106-1.745-.528-.268-1.049-.157-1.565.332a65.097 65.097 0 0 0-1.59 1.566 51.455 51.455 0 0 1-1.609 1.568 3.004 3.004 0 0 1-1.85.824c-.706.057-1.596-.34-2.67-1.19-1.073-.85-2.312-2.013-3.716-3.489-1.405-1.476-2.143-2.323-2.215-2.541a.643.643 0 0 1 .093-.608.643.643 0 0 1 .547-.283c.23 0 .413.091.55.277a.646.646 0 0 1 .099.607.643.643 0 0 1-.433.437.643.643 0 0 1-.608-.093.643.643 0 0 1-.282-.546.643.643 0 0 1 .276-.55.643.643 0 0 1 .607-.1c.22.07 1.067.799 2.543 2.185 1.477 1.386 2.64 2.374 3.49 2.963.852.589 1.586.754 2.203.496.617-.258 1.22-.663 1.809-1.214.588-.55 1.344-1.033 2.266-1.447.922-.415 1.73-.44 2.427-.074.696.365 1.501.995 2.415 1.89a73.314 73.314 0 0 0 3.072 2.83c1.135.992 2.18 1.891 3.134 2.698.954.807 1.688 1.466 2.2 1.979.512.512.821.872.927 1.08.107.21.142.43.105.66-.037.232-.138.43-.303.596a1.056 1.056 0 0 1-.596.303l-2.509-1.8Z"/><path d="m22.182 20.516.834-.002.834-.003 1.008.014c.671.009 1.253-.11 1.745-.359.493-.248.763-1.065.81-2.45.049-1.387.158-2.244.33-2.573.17-.329.439-.52.805-.576.367-.055.68.05.94.314.26.264.36.579.298.944-.06.366-.257.631-.589.797a1.035 1.035 0 0 1-.99-.008c-.329-.17-.52-.44-.576-.806-.055-.366.05-.68.314-.94.264-.26.579-.359.944-.298.366.061.631.257.797.589.166.331.251 1.077.256 2.236a43.08 43.08 0 0 1-.055 2.742c-.042.668-.38 1.245-1.017 1.73-.635.485-1.295.783-1.98.892-.683.109-1.36.168-2.032.177-.672.009-1.286.013-1.842.01l-1.32-.002c-.323 0-.604-.038-.841-.116a1.127 1.127 0 0 1-.578-.42 1.127 1.127 0 0 1-.22-.678c0-.25.073-.476.22-.678l1.905-.536Z"/></g><defs><clipPath id="a"><path fill="#fff" d="M0 0h30v30H0z"/></clipPath></defs></svg>