<svg width="30" height="30" fill="none" xmlns="http://www.w3.org/2000/svg"><g clip-path="url(#a)" fill="currentColor" stroke="currentColor" stroke-width="2" stroke-linecap="round" stroke-linejoin="round"><path d="m26.939 10.925-1.432 1.21-1.431 1.21-1.703 1.488a73.25 73.25 0 0 0-3.072 2.83c-.914.895-1.719 1.525-2.415 1.89s-1.505.34-2.427-.074c-.922-.414-1.678-.896-2.266-1.447-.589-.551-1.192-.956-1.809-1.214s-1.351-.093-2.202.496c-.85.59-2.014 1.577-3.49 2.963-1.477 1.386-2.325 2.115-2.544 2.184a.643.643 0 0 1-.607-.099.643.643 0 0 1-.276-.55.643.643 0 0 1 .282-.546.643.643 0 0 1 .608-.093.643.643 0 0 1 .433.437.64.64 0 0 1-.1.607.643.643 0 0 1-.55.277.643.643 0 0 1-.546-.283.643.643 0 0 1-.093-.608c.072-.218.81-1.065 2.215-2.541 1.404-1.476 2.643-2.639 3.717-3.49 1.074-.85 1.963-1.246 2.67-1.188a3.003 3.003 0 0 1 1.85.823 51.568 51.568 0 0 1 1.607 1.568 64.559 64.559 0 0 0 1.591 1.566c.516.489 1.038.6 1.565.332.527-.268 1.23-.85 2.106-1.745a72.93 72.93 0 0 0 2.803-3.045 259.04 259.04 0 0 0 2.698-3.134c.807-.955 1.466-1.688 1.978-2.2.512-.512.873-.821 1.081-.928.21-.106.43-.14.66-.104.232.037.43.138.596.303.165.166.266.364.303.596l-1.8 2.509Z"/><path d="m22.182 7.057.834-.003.834-.002 1.008.013c.671.01 1.349.068 2.033.177.684.11 1.344.407 1.98.892.635.485.974 1.062 1.016 1.73.042.668.06 1.582.055 2.742-.005 1.16-.09 1.905-.256 2.236a1.035 1.035 0 0 1-.797.589 1.035 1.035 0 0 1-.944-.298 1.035 1.035 0 0 1-.314-.94c.055-.366.247-.635.576-.806.329-.17.659-.174.99-.008.332.166.528.431.59.797.06.365-.04.68-.3.944-.26.264-.572.369-.939.314a1.035 1.035 0 0 1-.806-.576c-.17-.329-.28-1.186-.328-2.572-.048-1.386-.318-2.203-.81-2.451-.493-.248-1.075-.367-1.746-.358-.672.009-1.286.012-1.842.01l-1.32-.002c-.323 0-.604-.039-.841-.116a1.127 1.127 0 0 1-.578-.42 1.127 1.127 0 0 1-.22-.678c0-.25.073-.477.22-.679l1.905-.535Z"/></g><defs><clipPath id="a"><path fill="#fff" d="M0 0h30v30H0z"/></clipPath></defs></svg>