<svg width="30" height="30" fill="none" xmlns="http://www.w3.org/2000/svg"><g clip-path="url(#a)" fill="currentColor" stroke="currentColor" stroke-width="2" stroke-linecap="round" stroke-linejoin="round"><path d="M3.95 2.955a3660492.901 3660492.901 0 0 0 4.171.376l2.519.13c1.678.087 3.234.136 4.666.147 1.432.011 2.559.239 3.381.681.822.443 1.382 1.465 1.68 3.064.3 1.6.435 3.131.407 4.593-.028 1.462-.046 2.82-.054 4.074s-.263 2.25-.764 2.99c-.5.738-1.67 1.225-3.507 1.458a38.902 38.902 0 0 1-5.28.326c-1.684-.017-3.242-.03-4.675-.038-1.432-.009-2.56-.234-3.38-.677-.82-.442-1.38-1.463-1.675-3.063-.295-1.6-.433-3.647-.412-6.142.021-2.494.064-3.805.127-3.932a.396.396 0 0 1 .304-.226.394.394 0 0 1 .362.114c.101.1.142.219.12.36a.396.396 0 0 1-.22.308.396.396 0 0 1-.378.004.396.396 0 0 1-.226-.305.396.396 0 0 1 .114-.362.396.396 0 0 1 .36-.12c.14.02.242.094.308.22s.123 1.43.171 3.911c.049 2.482.136 4.445.263 5.888.126 1.444.511 2.328 1.156 2.652.645.325 1.664.48 3.059.466a402.77 402.77 0 0 0 4.602-.074 87.909 87.909 0 0 0 5.024-.252c1.674-.132 2.704-.463 3.087-.995.383-.53.568-1.394.555-2.59a170.566 170.566 0 0 0-.096-3.967 86.231 86.231 0 0 0-.26-4.338c-.124-1.444-.507-2.328-1.151-2.653-.644-.325-1.663-.482-3.058-.47-1.395.01-2.932.06-4.61.146-1.68.087-3.214.193-4.604.319-1.39.125-2.49.188-3.299.188-.808 0-1.321-.035-1.538-.106a1.026 1.026 0 0 1-.525-.382 1.025 1.025 0 0 1-.201-.618c0-.228.067-.434.2-.618l3.277-.487Z"/><path d="m20.585 8.788.556-.018.557-.017.773-.012c.515-.007 1.122.043 1.819.15.697.108 1.394.416 2.09.923a12.816 12.816 0 0 1 1.935 1.742c.594.653 1.027 1.346 1.3 2.078.271.732.384 1.653.338 2.765-.046 1.11-.28 2.12-.705 3.025-.424.906-1.13 1.444-2.12 1.616-.99.172-1.882.243-2.674.213-.793-.03-1.55-.07-2.27-.12a3.66 3.66 0 0 1-1.922-.68c-.562-.404-.949-1.16-1.161-2.271-.212-1.11-.305-2.436-.28-3.977.027-1.54.113-2.457.26-2.749a.912.912 0 0 1 .702-.518c.322-.053.6.035.832.264.232.23.324.505.275.828a.912.912 0 0 1-.508.71.912.912 0 0 1-.872.006.912.912 0 0 1-.518-.703.912.912 0 0 1 .264-.832.912.912 0 0 1 .828-.275.915.915 0 0 1 .71.508c.15.29.296 1.41.439 3.358.143 1.948.515 3.099 1.117 3.451.602.352 1.436.334 2.5-.054 1.064-.389 1.705-1.05 1.922-1.987.218-.935.067-1.782-.45-2.54-.518-.757-1.15-1.315-1.897-1.675-.746-.36-1.388-.575-1.924-.646a13.95 13.95 0 0 0-1.36-.124 29.16 29.16 0 0 0-.88-.018 2.2 2.2 0 0 1-.678-.115 1.125 1.125 0 0 1-.576-.419 1.124 1.124 0 0 1-.22-.676c0-.25.073-.475.22-.677l1.578-.534Zm-9.623 15.637-.253.557-.252.557-.42.488c-.281.325-.668.604-1.162.837-.494.233-1.18.353-2.059.358a3.918 3.918 0 0 1-2.38-.759 3.955 3.955 0 0 1-1.472-2.033 4.02 4.02 0 0 1 0-2.54 3.975 3.975 0 0 1 1.492-2.053 4.158 4.158 0 0 1 2.386-.808c.871-.02 1.648.23 2.332.75.684.52 1.176.95 1.475 1.285.299.337.4.725.304 1.164-.097.44-.35.75-.763.93-.412.18-.813.157-1.2-.07a1.257 1.257 0 0 1-.65-1.013 1.257 1.257 0 0 1 .439-1.12c.336-.3.724-.4 1.163-.304.44.096.75.35.93.762.18.413.157.813-.07 1.201a1.257 1.257 0 0 1-1.013.649c-.448.044-.97-.186-1.566-.69-.596-.503-1.164-.662-1.704-.477-.54.186-.81.562-.812 1.13-.001.568.282.942.851 1.123.569.182 1.033.162 1.392-.058.36-.22.584-.496.672-.828a3.81 3.81 0 0 1 .318-.84c.124-.227.303-.396.537-.507.234-.111.478-.143.733-.095.255.048.47.165.649.354l.103 2.05Z"/><path d="m27.212 24.425-.253.557-.252.557-.42.488c-.281.325-.668.604-1.162.837-.494.233-1.18.353-2.059.358a3.918 3.918 0 0 1-2.38-.759 3.955 3.955 0 0 1-1.472-2.033 4.02 4.02 0 0 1 0-2.54 3.975 3.975 0 0 1 1.492-2.053 4.158 4.158 0 0 1 2.386-.808c.871-.02 1.649.23 2.332.75.684.52 1.176.95 1.475 1.285.299.337.4.725.304 1.164-.097.44-.35.75-.763.93-.412.18-.813.157-1.2-.07a1.257 1.257 0 0 1-.65-1.013 1.257 1.257 0 0 1 .439-1.12c.336-.3.724-.4 1.163-.304.44.096.75.35.93.762.18.413.157.813-.07 1.201a1.257 1.257 0 0 1-1.013.649c-.448.044-.97-.186-1.566-.69-.596-.503-1.164-.662-1.704-.477-.54.186-.81.562-.812 1.13-.001.568.282.942.851 1.123.569.182 1.033.162 1.393-.058.359-.22.583-.496.67-.828.089-.332.195-.612.319-.84.124-.227.303-.396.537-.507.234-.111.479-.143.733-.095.255.048.47.165.649.354l.103 2.05Z"/></g><defs><clipPath id="a"><path fill="#fff" d="M0 0h30v30H0z"/></clipPath></defs></svg>