<svg width="30" height="30" fill="none" xmlns="http://www.w3.org/2000/svg"><g clip-path="url(#a)" fill="currentColor" stroke="currentColor" stroke-width="2" stroke-linecap="round" stroke-linejoin="round"><path d="m7.586 7.73 2.225.2 2.225.198 2.686.111c1.79.074 3.44.112 4.948.112 1.507 0 2.714.009 3.62.027.905.018 1.718.108 2.438.27.72.163 1.293.506 1.719 1.031.425.525.703 1.212.833 2.062.13.85.176 1.796.14 2.838a214.02 214.02 0 0 1-.149 3.415 73.362 73.362 0 0 0-.1 3.41c-.004 1.037 0 1.89.01 2.561a7.24 7.24 0 0 1-.264 2.03c-.187.683-.584 1.242-1.192 1.678-.609.436-1.467.7-2.575.79-1.108.089-2.415.073-3.918-.049a110.947 110.947 0 0 0-4.947-.28 137.99 137.99 0 0 0-4.955-.096c-1.508 0-2.715-.01-3.621-.028a12.206 12.206 0 0 1-2.438-.273c-.72-.162-1.292-.506-1.717-1.03-.426-.524-.703-1.21-.833-2.06-.13-.85-.177-1.795-.141-2.837.036-1.042.085-2.18.147-3.415a72.83 72.83 0 0 0 .1-3.41 93.52 93.52 0 0 0-.017-2.53c-.016-.649.177-1.388.578-2.216.402-.828.684-1.372.846-1.631a.85.85 0 0 1 .701-.42.854.854 0 0 1 .752.32c.197.234.258.5.184.796a.854.854 0 0 1-.537.617.854.854 0 0 1-.815-.072.854.854 0 0 1-.42-.701.854.854 0 0 1 .32-.753.854.854 0 0 1 .797-.183.854.854 0 0 1 .616.537c.115.284-.072.792-.56 1.525-.487.734-.794 1.443-.92 2.128-.124.685-.185 1.546-.18 2.583a71.85 71.85 0 0 0 .103 3.406c.064 1.233.117 2.362.16 3.385.043 1.023.132 1.97.267 2.839.135.87.463 1.478.983 1.826.52.349 1.214.545 2.081.59.868.047 2.056.07 3.564.069 1.508 0 3.16-.034 4.953-.1 1.793-.066 3.434-.164 4.922-.292 1.488-.129 2.702-.231 3.643-.307.94-.076 1.62-.35 2.038-.82.418-.47.68-1.024.787-1.663.106-.639.157-1.477.153-2.514a71.662 71.662 0 0 0-.104-3.406 333.074 333.074 0 0 1-.161-3.385 25.486 25.486 0 0 0-.267-2.838c-.135-.868-.463-1.477-.983-1.826-.52-.348-1.212-.546-2.08-.592a71.11 71.11 0 0 0-3.561-.069c-1.508 0-3.157.037-4.948.111-1.79.074-3.428.178-4.91.31-1.484.133-2.657.199-3.52.199-.862 0-1.4-.035-1.613-.104a1.01 1.01 0 0 1-.518-.376 1.01 1.01 0 0 1-.197-.609c0-.224.065-.427.197-.608l3.425-.48Z"/><path d="m20.641 4.685-.703.687-.703.687-.863.816a98.546 98.546 0 0 1-1.662 1.54c-.533.481-1.118.79-1.756.928-.637.136-1.396-.067-2.277-.611-.88-.544-1.8-1.302-2.755-2.275-.957-.972-1.489-1.62-1.596-1.942a.949.949 0 0 1 .134-.898.949.949 0 0 1 .806-.42c.34-.002.61.133.813.407a.95.95 0 0 1 .15.895.95.95 0 0 1-.638.648.95.95 0 0 1-.898-.135.95.95 0 0 1-.419-.806.949.949 0 0 1 .406-.812.949.949 0 0 1 .896-.15c.324.103 1.137.709 2.44 1.82 1.304 1.11 2.28 1.56 2.93 1.352.65-.209 1.247-.6 1.791-1.176a137.088 137.088 0 0 1 2.595-2.673c.27-.27.516-.461.738-.574.223-.114.457-.15.703-.112.247.04.459.147.635.323.177.177.284.389.323.635l-1.09 1.846Z"/></g><defs><clipPath id="a"><path fill="#fff" d="M0 0h30v30H0z"/></clipPath></defs></svg>