<svg width="30" height="30" fill="none" xmlns="http://www.w3.org/2000/svg"><path d="m23.007 3.621-2.503-.22-2.502-.219-3.022-.072a327.51 327.51 0 0 0-5.538-.09c-1.677-.011-2.917.189-3.72.601-.802.412-1.3 1.516-1.492 3.31a54.028 54.028 0 0 0-.31 5.372c-.013 1.786-.022 3.43-.027 4.933-.004 1.503.118 2.611.368 3.325.249.713.874 1.099 1.875 1.156 1 .058 1.9.182 2.695.373.795.19 1.313.657 1.554 1.399.24.742.344 1.686.312 2.833-.032 1.146-.15 1.793-.35 1.94-.202.147-.427.22-.676.221a1.12 1.12 0 0 1-.677-.218c-.202-.146-.27-.3-.205-.465.065-.165.285-.583.658-1.256.373-.672.91-1.362 1.61-2.07.7-.708 1.42-1.341 2.155-1.902.736-.56 1.588-.914 2.556-1.062.968-.148 1.94-.268 2.918-.36.977-.091 1.73-.33 2.263-.716.532-.386 1.051-.82 1.558-1.3.507-.48 1.004-1.104 1.49-1.872.488-.767.767-1.788.838-3.06.07-1.274.192-3.115.364-5.523.173-2.409.306-3.647.401-3.716a.528.528 0 0 1 .319-.103c.117 0 .223.036.317.105.095.069-.256.397-1.054.983a427.94 427.94 0 0 1-5.137 3.66c-2.627 1.855-4.331 2.834-5.114 2.937-.783.104-1.297-.374-1.542-1.433-.245-1.058-.332-1.62-.26-1.686a.435.435 0 0 1 .25-.114.435.435 0 0 1 .27.054c.084.048.318.195.7.443.382.247 1.166.768 2.354 1.56 1.187.794 1.853 1.175 1.998 1.144.144-.03.253-.528.324-1.492.072-.965.169-1.506.292-1.623a.474.474 0 0 1 .434-.13c.167.03.287.121.361.274a.474.474 0 0 1-.01.453.474.474 0 0 1-.373.259.474.474 0 0 1-.428-.15.474.474 0 0 1-.13-.434.474.474 0 0 1 .274-.361.474.474 0 0 1 .454.01c.15.08.235.204.258.373.023.168-.027.729-.15 1.682-.124.954-.436 1.502-.937 1.644-.5.143-1.433-.25-2.795-1.18-1.363-.93-2.246-1.548-2.649-1.854-.402-.307-.569-.492-.497-.558a.435.435 0 0 1 .25-.114.435.435 0 0 1 .27.054c.084.048.465.437 1.143 1.17.678.731 2.243.264 4.694-1.404 2.452-1.667 4.06-2.762 4.825-3.284a122.79 122.79 0 0 0 1.29-.885.528.528 0 0 1 .318-.103c.117 0 .223.036.317.105.095.069.225 1.311.39 3.727l.364 5.37c.078 1.163.066 2.124-.039 2.883-.104.758-.435 1.485-.993 2.18a27.143 27.143 0 0 1-1.609 1.84 15.37 15.37 0 0 1-1.88 1.625c-.74.551-1.536.9-2.39 1.044-.854.146-1.753.203-2.697.172-.944-.03-1.78.188-2.506.655-.726.467-1.502 1.08-2.327 1.84-.824.76-1.348 1.24-1.569 1.44-.221.2-.432.374-.633.52a1.116 1.116 0 0 1-.676.222 1.12 1.12 0 0 1-.677-.218c-.202-.146-.335-.906-.4-2.28-.064-1.375-.521-2.181-1.37-2.418a15.262 15.262 0 0 1-2.5-.943c-.816-.391-1.315-1.008-1.496-1.85-.181-.841-.27-2.018-.268-3.53.002-1.513.01-3.167.023-4.963.014-1.795.053-3.457.118-4.986.065-1.528.232-2.682.5-3.462.269-.78.871-1.258 1.807-1.434.936-.176 2.262-.27 3.977-.281 1.715-.012 3.58-.042 5.595-.09a87.7 87.7 0 0 0 5.524-.292c1.669-.146 2.988-.22 3.959-.22.97 0 1.558.034 1.764.101a.977.977 0 0 1 .5.364.976.976 0 0 1 .192.588.976.976 0 0 1-.191.588l-3.72.464Z" fill="currentColor"/><path d="M10.347 28.262c.2-.147.318-.794.35-1.94.032-1.147-.072-2.09-.312-2.833-.24-.742-.759-1.209-1.554-1.4a15.47 15.47 0 0 0-2.695-.372c-1-.057-1.626-.443-1.875-1.156-.25-.714-.372-1.822-.368-3.325.005-1.503.014-3.147.027-4.933.014-1.786.117-3.577.31-5.372.193-1.794.69-2.898 1.493-3.31.802-.412 2.042-.612 3.719-.6 1.677.01 3.523.04 5.538.09l3.022.071a422991.111 422991.111 0 0 0 5.005.44l3.72-.465a.976.976 0 0 0 .192-.588.976.976 0 0 0-.191-.588.977.977 0 0 0-.5-.364c-.207-.067-.795-.1-1.765-.1-.97 0-2.29.073-3.959.22a87.7 87.7 0 0 1-5.524.29c-2.015.05-3.88.079-5.595.09-1.715.012-3.04.106-3.977.282-.936.176-1.538.654-1.807 1.434-.268.78-.435 1.934-.5 3.462-.065 1.529-.104 3.19-.118 4.986-.013 1.796-.021 3.45-.023 4.962-.003 1.513.087 2.69.268 3.532.181.841.68 1.458 1.496 1.85.817.39 1.65.705 2.5.942.849.237 1.306 1.043 1.37 2.417.065 1.375.198 2.135.4 2.281m1.353-.003c-.202.147-.427.22-.676.221a1.12 1.12 0 0 1-.677-.218m1.353-.003c.2-.147.412-.32.633-.521.221-.2.745-.68 1.57-1.44.824-.76 1.6-1.373 2.326-1.84.727-.467 1.562-.685 2.506-.654.944.03 1.843-.027 2.697-.172a5.511 5.511 0 0 0 2.39-1.045 15.37 15.37 0 0 0 1.88-1.625 27.143 27.143 0 0 0 1.609-1.84c.558-.695.89-1.422.993-2.18.104-.759.117-1.72.039-2.884l-.365-5.37c-.164-2.415-.294-3.657-.389-3.726a.528.528 0 0 0-.317-.105M8.994 28.265c-.202-.146-.27-.3-.205-.465.065-.165.285-.583.658-1.256.373-.672.91-1.362 1.61-2.07.7-.708 1.42-1.341 2.155-1.902.736-.56 1.588-.914 2.556-1.062.968-.148 1.94-.268 2.918-.36.977-.091 1.73-.33 2.263-.716.532-.386 1.051-.82 1.558-1.3.507-.48 1.004-1.104 1.49-1.872.488-.767.767-1.788.838-3.06.07-1.274.192-3.115.364-5.523.173-2.409.306-3.647.401-3.716m0 0a.528.528 0 0 1 .319-.103m-.319.103c-.095.069-.524.364-1.29.885-.764.522-2.372 1.617-4.824 3.284-2.451 1.668-4.016 2.135-4.694 1.403-.678-.732-1.059-1.121-1.143-1.169a.435.435 0 0 0-.27-.054.435.435 0 0 0-.25.114c-.072.066.095.251.497.558.403.306 1.286.924 2.649 1.854 1.362.93 2.294 1.323 2.795 1.18.501-.142.813-.69.936-1.644.124-.954.174-1.514.151-1.682a.474.474 0 0 0-.258-.373.474.474 0 0 0-.454-.01.474.474 0 0 0-.275.36.474.474 0 0 0 .131.435c.117.123.26.173.428.15a.474.474 0 0 0 .373-.259c.08-.15.084-.3.01-.453a.474.474 0 0 0-.361-.275.474.474 0 0 0-.434.13c-.123.118-.22.66-.292 1.624-.071.964-.18 1.462-.324 1.492-.145.03-.811-.35-1.998-1.143a256.807 256.807 0 0 0-2.354-1.561 20.86 20.86 0 0 0-.7-.443.435.435 0 0 0-.27-.054.435.435 0 0 0-.25.114c-.072.066.015.628.26 1.686.245 1.059.759 1.537 1.542 1.433.783-.103 2.488-1.082 5.114-2.936a427.94 427.94 0 0 0 5.137-3.661c.798-.586 1.15-.914 1.054-.983a.528.528 0 0 0-.317-.105" stroke="currentColor" stroke-width="2" stroke-linecap="round" stroke-linejoin="round"/></svg>