<svg width="30" height="30" fill="none" xmlns="http://www.w3.org/2000/svg"><path d="m4.091 7.869-.032-.793-.032-.793.124-.575c.083-.384.505-.784 1.266-1.201.762-.418 2.105-.584 4.031-.5 1.926.083 3.785.169 5.577.256 1.793.087 3.443.13 4.952.13 1.51 0 2.681.058 3.517.174.835.116 1.466.673 1.895 1.671.428.998.615 1.607.56 1.826a.633.633 0 0 1-.398.457.633.633 0 0 1-.604-.053.633.633 0 0 1-.311-.52.633.633 0 0 1 .237-.557.633.633 0 0 1 .59-.136c.22.055.373.188.457.398a.633.633 0 0 1-.053.603.633.633 0 0 1-.52.312.633.633 0 0 1-.557-.237c-.146-.174-.608-.718-1.387-1.632-.78-.913-1.922-1.37-3.428-1.369a98.1 98.1 0 0 0-4.944.139c-1.79.092-3.594.221-5.414.39-1.82.168-2.823.19-3.006.065-.184-.124-.234-.095-.152.087.083.182.113.537.092 1.065-.021.529-.032.916-.032 1.163 0 .248-.039.49-.116.728-.077.238-.217.43-.42.577-.202.147-.428.22-.678.22-.25 0-.476-.073-.678-.22L4.09 7.87Zm8.881 15.918.835-.003.834-.002 1.722.012c1.149.008 1.884.095 2.206.259.322.164.512.425.568.782a1.01 1.01 0 0 1-.298.919 1.01 1.01 0 0 1-.92.298 1.01 1.01 0 0 1-.781-.568 1.01 1.01 0 0 1 0-.966 1.01 1.01 0 0 1 .782-.568 1.01 1.01 0 0 1 .919.299c.255.255.355.562.298.919a1.01 1.01 0 0 1-.568.781c-.322.164-1.057.25-2.206.259a274.234 274.234 0 0 1-3.876.007c-.323 0-.604-.038-.842-.116a1.128 1.128 0 0 1-.577-.42 1.127 1.127 0 0 1-.22-.678c0-.25.073-.476.22-.679l1.904-.535Z" fill="currentColor" stroke="currentColor" stroke-width="2" stroke-linecap="round" stroke-linejoin="round"/><path d="m16.089 9.784-.2 2.224-.198 2.225-.111 4.594c-.074 3.062-.143 4.657-.208 4.783a.396.396 0 0 1-.307.223.396.396 0 0 1-.36-.117c-.1-.1-.14-.22-.117-.36a.396.396 0 0 1 .222-.308.396.396 0 0 1 .38 0 .4.4 0 0 1 .223.307.396.396 0 0 1-.118.36c-.1.101-.22.14-.36.118a.396.396 0 0 1-.307-.223c-.065-.126-.134-1.72-.208-4.783-.074-3.063-.177-5.336-.31-6.819-.132-1.483-.199-2.656-.199-3.518 0-.863.035-1.4.104-1.614a1.01 1.01 0 0 1 .376-.517A1.01 1.01 0 0 1 15 6.16c.224 0 .427.066.609.198l.48 3.425Z" fill="currentColor" stroke="currentColor" stroke-width="2" stroke-linecap="round" stroke-linejoin="round"/></svg>