<svg width="30" height="30" fill="none" xmlns="http://www.w3.org/2000/svg"><g clip-path="url(#a)"><path d="m26.73 13.412-.403-1.038-.403-1.037-.978-1.542a12.325 12.325 0 0 0-2.373-2.744 12.275 12.275 0 0 0-6.587-2.896 12.318 12.318 0 0 0-3.644.109A12.368 12.368 0 0 0 5.927 7.55a17.827 17.827 0 0 0-2.321 2.73c-.663.964-1.142 1.75-1.437 2.356-.296.608.031 1.001.982 1.18.95.18 2.41.363 4.38.549 1.97.185 5.104.299 9.402.34 4.298.04 6.476.1 6.532.178a.435.435 0 0 1 .084.262.44.44 0 0 1-.086.262c-.057.078-.111.376-.161.896l-.33 3.38c-.171 1.734-.315 2.956-.431 3.667a10.032 10.032 0 0 1-.6 2.122c-.284.704-.668 1.285-1.152 1.744a4.06 4.06 0 0 1-1.73.967 4.182 4.182 0 0 1-2.058.045 4.376 4.376 0 0 1-1.905-.955c-.567-.48-.997-1.123-1.291-1.93-.294-.805-.458-1.759-.491-2.86a73.966 73.966 0 0 1-.01-3.669c.025-1.343.121-2.177.286-2.501.165-.324.427-.515.786-.572.36-.057.668.043.925.3s.357.565.3.924c-.056.36-.246.622-.57.787a1.016 1.016 0 0 1-.972 0 1.016 1.016 0 0 1-.572-.786 1.015 1.015 0 0 1 .3-.924c.257-.258.565-.358.924-.301.36.056.622.247.787.57.165.325.261 1.158.289 2.5.027 1.342.057 2.521.09 3.538.034 1.017.202 1.862.506 2.537.303.674.775 1.127 1.416 1.357.64.23 1.264.238 1.872.024a2.335 2.335 0 0 0 1.35-1.18 6.27 6.27 0 0 0 .601-1.886c.109-.685.365-1.976.768-3.871.404-1.896.67-3.13.798-3.704.128-.574.22-.822.277-.743a.435.435 0 0 1 .084.262.44.44 0 0 1-.086.262c-.057.078-2.237.126-6.54.145-4.303.02-7.501.088-9.595.207-2.095.118-3.644.133-4.648.044-1.004-.09-1.632-.586-1.884-1.488-.253-.903-.293-1.752-.122-2.547a8.49 8.49 0 0 1 .762-2.158 14.769 14.769 0 0 1 2.557-3.513A14.829 14.829 0 0 1 7.47 3.47a14.71 14.71 0 0 1 4.072-1.494 14.871 14.871 0 0 1 8.58.772 14.849 14.849 0 0 1 3.75 2.205 15.017 15.017 0 0 1 2.968 3.199 15.38 15.38 0 0 1 1.902 3.808c.22.653.394 1.308.526 1.965.13.657.182 1.107.154 1.351a1.109 1.109 0 0 1-.292.639c-.166.18-.37.296-.61.345a1.108 1.108 0 0 1-.698-.08l-1.092-2.767Z" fill="currentColor"/><path d="M23.465 14.883c-.056-.079-2.234-.138-6.532-.179-4.298-.04-7.432-.154-9.402-.34-1.97-.185-3.43-.368-4.38-.547-.95-.18-1.278-.573-.982-1.18.295-.608.774-1.393 1.437-2.357a17.827 17.827 0 0 1 2.321-2.73 12.368 12.368 0 0 1 13.57-2.44 12.191 12.191 0 0 1 3.076 1.941c.93.802 1.72 1.717 2.373 2.744a21432 21432 0 0 0 .978 1.542 25679.337 25679.337 0 0 0 .806 2.075l1.092 2.766c.224.103.456.13.697.08.241-.048.445-.163.611-.344.167-.181.264-.394.292-.639.028-.244-.023-.694-.154-1.351a16.137 16.137 0 0 0-.526-1.965A15.38 15.38 0 0 0 26.84 8.15a15.025 15.025 0 0 0-6.718-5.404 14.763 14.763 0 0 0-6.415-1.057 14.871 14.871 0 0 0-4.256.881 14.71 14.71 0 0 0-3.815 2.082 14.829 14.829 0 0 0-4.2 4.957 8.49 8.49 0 0 0-.762 2.158c-.171.795-.13 1.644.122 2.547.252.902.88 1.398 1.884 1.488 1.004.089 2.553.074 4.648-.045 2.094-.118 5.292-.187 9.595-.206 4.303-.019 6.483-.067 6.54-.145m.002-.524a.435.435 0 0 1 .084.262.44.44 0 0 1-.086.262m.002-.524c-.056-.079-.149.169-.277.743-.128.574-.394 1.808-.797 3.704-.404 1.895-.66 3.186-.769 3.871a6.27 6.27 0 0 1-.601 1.886 2.335 2.335 0 0 1-1.35 1.18c-.608.214-1.232.206-1.872-.024-.64-.23-1.113-.683-1.416-1.357-.304-.675-.472-1.52-.506-2.537a283.66 283.66 0 0 1-.09-3.538c-.028-1.342-.124-2.175-.29-2.5a1.016 1.016 0 0 0-.786-.57 1.016 1.016 0 0 0-.924.3 1.016 1.016 0 0 0-.3.925c.057.36.248.621.572.786.324.165.648.165.972 0 .324-.165.514-.428.57-.787a1.016 1.016 0 0 0-.3-.924 1.016 1.016 0 0 0-.925-.3 1.016 1.016 0 0 0-.786.572c-.165.324-.26 1.158-.287 2.501a73.966 73.966 0 0 0 .01 3.669c.034 1.101.198 2.055.492 2.86.294.807.724 1.45 1.29 1.93.567.48 1.202.798 1.906.955.704.156 1.39.14 2.058-.045a4.06 4.06 0 0 0 1.73-.967c.484-.459.868-1.04 1.151-1.744.284-.703.484-1.41.6-2.122.117-.71.261-1.933.431-3.666l.33-3.38c.051-.52.105-.82.162-.897" stroke="currentColor" stroke-width="2" stroke-linecap="round" stroke-linejoin="round"/></g><defs><clipPath id="a"><path fill="#fff" d="M0 0h30v30H0z"/></clipPath></defs></svg>