<svg width="30" height="30" fill="none" xmlns="http://www.w3.org/2000/svg"><path d="m8.626 4.882-.01.973-.01.973-.032 1.176c-.02.783-.028 1.552-.022 2.305.007.753.055 1.504.146 2.253.091.748.26 1.426.506 2.032a6.23 6.23 0 0 0 .982 1.647 6.122 6.122 0 0 0 3.129 2.006 6.006 6.006 0 0 0 5.287-1.112 5.92 5.92 0 0 0 1.247-1.372c.344-.523.604-1.156.78-1.9.175-.744.293-1.668.353-2.772.06-1.104.107-2.328.14-3.672.032-1.345.134-2.185.306-2.52a1.05 1.05 0 0 1 .814-.59c.371-.058.69.046.956.312.265.266.369.585.31.957a1.05 1.05 0 0 1-.592.812c-.336.17-.67.17-1.006 0a1.05 1.05 0 0 1-.59-.815 1.05 1.05 0 0 1 .311-.956 1.05 1.05 0 0 1 .957-.31c.372.06.643.257.813.592.17.336.271 1.177.303 2.524.031 1.348.059 2.362.083 3.044a19.2 19.2 0 0 1-.054 2.193c-.06.781-.23 1.597-.508 2.446a8.943 8.943 0 0 1-1.214 2.396 8.62 8.62 0 0 1-1.899 1.944 8.574 8.574 0 0 1-2.401 1.257 8.56 8.56 0 0 1-2.672.447 8.54 8.54 0 0 1-5.08-1.612 8.43 8.43 0 0 1-1.9-1.896 8.416 8.416 0 0 1-1.208-2.368 10.017 10.017 0 0 1-.48-2.536 50.369 50.369 0 0 1-.078-2.413c-.005-.766-.018-1.54-.039-2.323a135.152 135.152 0 0 1-.052-3.688c0-.377.039-.685.116-.922.077-.238.217-.43.419-.577.202-.146.427-.22.677-.22.25 0 .476.074.677.22l.535 2.065Zm1.158 20.279a17979.492 17979.492 0 0 0 4.45.398l4.593.111c3.062.074 4.657.143 4.783.208.127.064.2.166.223.307a.396.396 0 0 1-.117.36c-.1.1-.22.14-.36.117a.396.396 0 0 1-.308-.222.396.396 0 0 1 0-.38.396.396 0 0 1 .307-.223c.14-.022.26.017.36.118.101.1.14.22.118.36a.396.396 0 0 1-.223.307c-.126.064-1.72.134-4.783.208-3.063.074-5.336.177-6.819.31-1.483.132-2.656.199-3.518.199-.863 0-1.4-.035-1.614-.104a1.01 1.01 0 0 1-.517-.377 1.01 1.01 0 0 1-.198-.608c0-.224.066-.427.198-.609l3.425-.48Z" fill="currentColor" stroke="currentColor" stroke-width="2" stroke-linecap="round" stroke-linejoin="round"/></svg>