<svg width="30" height="30" fill="none" xmlns="http://www.w3.org/2000/svg"><g clip-path="url(#a)" fill="currentColor" stroke="currentColor" stroke-width="2" stroke-linecap="round" stroke-linejoin="round"><path d="m18.006 19.722-.56-.552-.561-.551-.66-.742c-.442-.494-.902-.863-1.381-1.108-.48-.244-1.19.148-2.13 1.178s-1.593 1.595-1.959 1.697a1.06 1.06 0 0 1-.993-.202 1.06 1.06 0 0 1-.421-.922 1.06 1.06 0 0 1 .498-.883 1.06 1.06 0 0 1 1.008-.116c.355.133.584.382.685.747a1.06 1.06 0 0 1-.201.994 1.06 1.06 0 0 1-.923.421 1.06 1.06 0 0 1-.883-.498 1.06 1.06 0 0 1-.115-1.008c.133-.355.58-.917 1.344-1.686.763-.768 1.528-1.372 2.295-1.811.768-.44 1.601-.441 2.502-.006.9.435 1.636.912 2.21 1.431.572.52 1.043.966 1.41 1.34.368.373.66.668.876.883.215.216.38.435.493.658.114.223.151.458.112.705-.039.247-.147.46-.324.636a1.128 1.128 0 0 1-.636.324l-1.686-.929Z"/><path d="m16.2 17.652-.046 1.252-.046 1.251-.067 2.584c-.044 1.723-.133 2.716-.267 2.979a.825.825 0 0 1-.638.463.824.824 0 0 1-.75-.243.824.824 0 0 1-.244-.75.824.824 0 0 1 .463-.64.825.825 0 0 1 .79 0 .824.824 0 0 1 .463.64.824.824 0 0 1-.244.75.824.824 0 0 1-.75.244.825.825 0 0 1-.638-.464c-.134-.263-.223-1.256-.268-2.979a375.857 375.857 0 0 0-.112-3.835 56.847 56.847 0 0 1-.046-1.98c0-.485.038-.845.115-1.08.076-.235.214-.425.414-.57.2-.145.424-.218.671-.218.247 0 .47.073.67.218l.53 2.378Z"/><path d="m25.67 21.538.448-.567.448-.568.343-.891a4.782 4.782 0 0 0 .324-1.828 4.378 4.378 0 0 0-.452-1.835c-.289-.598-.748-1.148-1.377-1.65a5.894 5.894 0 0 0-2.147-1.083c-.803-.22-1.567-.48-2.293-.781-.725-.3-1.275-.756-1.651-1.366a37.662 37.662 0 0 0-1.216-1.848 8.267 8.267 0 0 0-7.83-3.467 8.264 8.264 0 0 0-4.099 1.722 8.27 8.27 0 0 0-1.557 1.618 8.277 8.277 0 0 0-1.566 4.163 8.214 8.214 0 0 0 .118 2.274c.145.764.418 1.57.817 2.417.399.848.556 1.5.47 1.958a1.3 1.3 0 0 1-.757.986 1.3 1.3 0 0 1-1.243-.033 1.3 1.3 0 0 1-.704-1.026 1.3 1.3 0 0 1 .415-1.172 1.3 1.3 0 0 1 1.193-.352 1.3 1.3 0 0 1 .987.757c.2.42.189.835-.034 1.244a1.3 1.3 0 0 1-1.025.704 1.3 1.3 0 0 1-1.172-.416c-.32-.338-.705-.998-1.155-1.98-.45-.98-.738-1.805-.865-2.472a11.47 11.47 0 0 1 2.576-9.628 11.414 11.414 0 0 1 3.2-2.579 11.43 11.43 0 0 1 5.967-1.379 11.434 11.434 0 0 1 4.01.913 11.46 11.46 0 0 1 3.431 2.27c.5.478.952.996 1.356 1.553.405.557.843 1.087 1.312 1.59.47.504 1.018.865 1.642 1.083a34.8 34.8 0 0 1 1.871.715c.622.258 1.2.594 1.733 1.007a7.516 7.516 0 0 1 2.867 5.09 7.37 7.37 0 0 1-.605 3.863c-.273.602-.526 1.07-.761 1.405a5.89 5.89 0 0 1-.97 1.038 16.36 16.36 0 0 1-1.027.833 2.77 2.77 0 0 1-.768.414 1.14 1.14 0 0 1-.719-.002 1.136 1.136 0 0 1-.58-.425 1.136 1.136 0 0 1-.22-.684l1.265-1.585Z"/><path d="m18.006 19.722-.56-.552-.561-.551-.66-.742c-.442-.494-.902-.863-1.381-1.108-.48-.244-1.19.148-2.13 1.178s-1.593 1.595-1.959 1.697a1.06 1.06 0 0 1-.993-.202 1.06 1.06 0 0 1-.421-.922 1.06 1.06 0 0 1 .498-.883 1.06 1.06 0 0 1 1.008-.116c.355.133.584.382.685.747a1.06 1.06 0 0 1-.201.994 1.06 1.06 0 0 1-.923.421 1.06 1.06 0 0 1-.883-.498 1.06 1.06 0 0 1-.115-1.008c.133-.355.58-.917 1.344-1.686.763-.768 1.528-1.372 2.295-1.811.768-.44 1.601-.441 2.502-.006.9.435 1.636.912 2.21 1.431.572.52 1.043.966 1.41 1.34.368.373.66.668.876.883.215.216.38.435.493.658.114.223.151.458.112.705-.039.247-.147.46-.324.636a1.128 1.128 0 0 1-.636.324l-1.686-.929Z"/></g><defs><clipPath id="a"><path fill="#fff" d="M0 0h30v30H0z"/></clipPath></defs></svg>