<svg width="30" height="30" fill="none" xmlns="http://www.w3.org/2000/svg"><g clip-path="url(#a)" fill="currentColor" stroke="currentColor" stroke-width="2" stroke-linecap="round" stroke-linejoin="round"><path d="m18.884 25.905-.033-.573-.032-.573-.114-.64c-.076-.426-.283-.962-.62-1.606-.336-.644-.879-1.138-1.627-1.48-.748-.343-1.674-.553-2.78-.631-1.105-.078-2.05-.137-2.836-.18a53.84 53.84 0 0 0-2.273-.075c-.73-.009-1.44.047-2.13.165a4.573 4.573 0 0 0-1.931.83 3.536 3.536 0 0 0-1.27 1.656 6.197 6.197 0 0 0-.384 2.115c-.007.741-.127 1.308-.36 1.7a1.273 1.273 0 0 1-1.03.65A1.273 1.273 0 0 1 .33 26.81c-.3-.343-.4-.736-.3-1.181.1-.445.36-.757.78-.937.418-.18.824-.154 1.215.08.392.233.61.576.65 1.03a1.27 1.27 0 0 1-.45 1.132 1.273 1.273 0 0 1-1.182.3c-.445-.1-.757-.36-.937-.779-.18-.419-.24-1.106-.177-2.06.062-.955.2-1.748.412-2.378.213-.63.516-1.21.908-1.74a6.135 6.135 0 0 1 1.392-1.361 6.08 6.08 0 0 1 1.734-.853 7.944 7.944 0 0 1 1.998-.331c.712-.03 1.438-.053 2.18-.07a74.276 74.276 0 0 0 2.293-.085c.788-.041 1.518-.077 2.19-.106.671-.03 1.34-.022 2.004.023a7.792 7.792 0 0 1 1.943.383 6.293 6.293 0 0 1 3.124 2.295c.382.535.674 1.2.876 1.996.201.796.314 1.427.34 1.892.025.466.027.89.005 1.271-.022.382-.033.655-.033.82 0 .165-.038.365-.115.601a1.12 1.12 0 0 1-.417.574 1.12 1.12 0 0 1-.674.219 1.12 1.12 0 0 1-.674-.22l-.532-1.421Zm-2.337-15.347-.58.927-.578.927-1.24 1.015c-.826.678-1.554 1.083-2.183 1.218a6.054 6.054 0 0 1-1.905.1 6.036 6.036 0 0 1-3.396-1.494 5.958 5.958 0 0 1-1.86-3.22 6.07 6.07 0 0 1-.1-1.913A6.054 6.054 0 0 1 6.21 4.715a5.97 5.97 0 0 1 3.226-1.86 6.092 6.092 0 0 1 1.914-.1c.641.068 1.519.55 2.632 1.448 1.113.897 1.8 1.493 2.062 1.787.26.294.35.634.265 1.018a1.099 1.099 0 0 1-.667.813c-.36.158-.71.137-1.05-.062a1.1 1.1 0 0 1-.567-.885c-.038-.392.09-.718.383-.98.294-.261.634-.35 1.018-.266.384.085.655.307.813.667.158.36.137.71-.062 1.05-.199.34-.494.529-.885.567-.392.04-1.001-.331-1.828-1.11-.826-.78-1.617-1.214-2.37-1.305-.754-.09-1.44.041-2.057.396a3.192 3.192 0 0 0-1.363 1.523 3.282 3.282 0 0 0-.212 2.05c.15.707.49 1.3 1.02 1.78s1.16.758 1.891.833a3.358 3.358 0 0 0 2.046-.425c.634-.358 1.088-.724 1.363-1.096.275-.371.468-.81.58-1.316.113-.505.233-.864.363-1.077.13-.213.31-.368.539-.464.23-.096.466-.115.708-.058.243.058.445.181.608.37l-.032 2.545Zm6.523 2.729a2514.28 2514.28 0 0 0 .875 1.059l.2-.014c.132-.009.704-.54 1.715-1.594 1.011-1.054 1.704-1.638 2.08-1.752a1.1 1.1 0 0 1 1.033.187c.313.238.465.553.456.945-.008.393-.174.7-.496.925a1.1 1.1 0 0 1-1.04.142 1.097 1.097 0 0 1-.726-.758 1.096 1.096 0 0 1 .187-1.033c.237-.313.552-.465.945-.456.392.008.7.174.924.496.224.323.271.67.142 1.04-.13.37-.573.942-1.332 1.716-.759.773-1.458 1.394-2.099 1.865-.64.47-1.328.617-2.062.442-.735-.176-1.337-.469-1.81-.88-.471-.41-.79-.698-.954-.863a2.27 2.27 0 0 1-.418-.58 1.126 1.126 0 0 1-.111-.705c.039-.246.147-.458.323-.635.177-.176.389-.284.636-.323l1.532.776Z"/></g><defs><clipPath id="a"><path fill="#fff" d="M0 0h30v30H0z"/></clipPath></defs></svg>