<svg width="30" height="30" fill="none" xmlns="http://www.w3.org/2000/svg"><path d="m23.87 25.896-.032-.573-.033-.573-.114-.64c-.076-.426-.282-.961-.619-1.606a3.48 3.48 0 0 0-1.413-1.47 4.665 4.665 0 0 0-1.88-.588 91.2 91.2 0 0 0-2.093-.153l-2.465-.155a51.73 51.73 0 0 0-2.589-.102c-.828-.01-1.617.048-2.368.177-.75.128-1.43.417-2.038.865a3.603 3.603 0 0 0-1.285 1.69 6.282 6.282 0 0 0-.379 2.132c-.005.742-.122 1.307-.351 1.692-.23.385-.567.598-1.014.64a1.252 1.252 0 0 1-1.112-.445 1.252 1.252 0 0 1-.295-1.161 1.25 1.25 0 0 1 .766-.921c.412-.177.81-.151 1.195.078.386.23.599.567.64 1.013.04.447-.107.818-.444 1.113a1.252 1.252 0 0 1-1.162.295 1.252 1.252 0 0 1-.92-.766c-.178-.412-.234-1.094-.17-2.047.065-.952.204-1.741.418-2.367.214-.625.517-1.2.91-1.724a6.024 6.024 0 0 1 3.115-2.175 8.128 8.128 0 0 1 2.075-.308c.765-.022 1.567-.042 2.405-.06a64.93 64.93 0 0 0 2.607-.112c.9-.056 1.731-.106 2.495-.149s1.501-.044 2.212-.003c.71.041 1.386.167 2.026.377a6.24 6.24 0 0 1 3.136 2.294c.383.535.675 1.2.876 1.996.202.796.315 1.427.34 1.892.026.466.027.89.005 1.271-.022.382-.033.655-.033.82 0 .165-.038.365-.115.601a1.12 1.12 0 0 1-.416.574 1.12 1.12 0 0 1-.675.219 1.12 1.12 0 0 1-.674-.22l-.531-1.421Zm-2.948-15.338-.58.927-.578.927-1.24 1.015c-.826.678-1.554 1.083-2.184 1.218a6.054 6.054 0 0 1-1.904.1 6.037 6.037 0 0 1-3.396-1.494 5.958 5.958 0 0 1-1.86-3.22 6.069 6.069 0 0 1-.1-1.913 6.054 6.054 0 0 1 1.504-3.403 5.97 5.97 0 0 1 3.226-1.86 6.092 6.092 0 0 1 1.914-.1c.641.068 1.519.55 2.632 1.448 1.113.897 1.8 1.493 2.061 1.787a1.1 1.1 0 0 1 .266 1.018 1.099 1.099 0 0 1-.667.813c-.36.158-.71.137-1.05-.062a1.1 1.1 0 0 1-.567-.885 1.1 1.1 0 0 1 .383-.98 1.1 1.1 0 0 1 1.018-.266c.384.085.655.307.813.667.158.36.137.71-.062 1.05-.199.34-.494.529-.885.567-.392.04-1.001-.331-1.828-1.11-.826-.78-1.617-1.214-2.37-1.305-.754-.09-1.44.041-2.057.396a3.192 3.192 0 0 0-1.364 1.523 3.282 3.282 0 0 0-.21 2.05 3.24 3.24 0 0 0 1.02 1.78c.53.48 1.16.758 1.89.833a3.358 3.358 0 0 0 2.046-.425c.634-.358 1.088-.724 1.363-1.096.275-.371.469-.81.58-1.316.113-.505.233-.864.363-1.077.13-.213.31-.368.539-.464.23-.096.466-.115.708-.058.243.058.445.181.608.37l-.032 2.545Z" fill="currentColor" stroke="currentColor" stroke-width="2" stroke-linecap="round" stroke-linejoin="round"/></svg>