<svg width="30" height="30" fill="none" xmlns="http://www.w3.org/2000/svg"><g clip-path="url(#a)" fill="currentColor" stroke="currentColor" stroke-width="2" stroke-linecap="round" stroke-linejoin="round"><path d="m20.12 25.896-.032-.573-.033-.573-.114-.64c-.076-.426-.282-.961-.619-1.606a3.48 3.48 0 0 0-1.413-1.47 4.665 4.665 0 0 0-1.88-.588 91.2 91.2 0 0 0-2.092-.153l-2.466-.155a51.73 51.73 0 0 0-2.589-.102c-.828-.01-1.617.048-2.368.177a4.74 4.74 0 0 0-2.038.865 3.603 3.603 0 0 0-1.285 1.69 6.282 6.282 0 0 0-.379 2.132c-.005.742-.122 1.307-.351 1.692-.23.385-.567.598-1.014.64a1.252 1.252 0 0 1-1.112-.445 1.252 1.252 0 0 1-.295-1.161 1.25 1.25 0 0 1 .766-.921c.412-.177.81-.151 1.195.078.386.23.599.567.64 1.013.04.447-.107.818-.444 1.113a1.252 1.252 0 0 1-1.162.295 1.252 1.252 0 0 1-.92-.766c-.178-.412-.234-1.094-.17-2.047.065-.952.204-1.741.418-2.367.214-.625.517-1.2.91-1.724a6.024 6.024 0 0 1 3.115-2.175 8.128 8.128 0 0 1 2.075-.308 366.37 366.37 0 0 1 2.405-.06 64.929 64.929 0 0 0 2.607-.112c.9-.056 1.731-.106 2.495-.149s1.501-.044 2.212-.003c.71.041 1.386.167 2.026.377a6.24 6.24 0 0 1 3.136 2.294c.383.535.675 1.2.876 1.996.202.796.315 1.427.34 1.892.026.466.027.89.005 1.271-.022.382-.033.655-.033.82 0 .165-.038.365-.115.601a1.12 1.12 0 0 1-.416.574 1.12 1.12 0 0 1-.675.219 1.12 1.12 0 0 1-.674-.22l-.531-1.421Zm-2.948-15.338-.58.927-.578.927-1.24 1.015c-.826.678-1.554 1.083-2.183 1.218a6.054 6.054 0 0 1-1.905.1 6.036 6.036 0 0 1-3.396-1.494 5.958 5.958 0 0 1-1.86-3.22 6.069 6.069 0 0 1-.1-1.913 6.054 6.054 0 0 1 1.504-3.403 5.97 5.97 0 0 1 3.226-1.86 6.092 6.092 0 0 1 1.914-.1c.641.068 1.519.55 2.632 1.448 1.113.897 1.8 1.493 2.062 1.787.26.294.35.634.265 1.018a1.099 1.099 0 0 1-.667.813c-.36.158-.71.137-1.05-.062a1.1 1.1 0 0 1-.567-.885 1.1 1.1 0 0 1 .383-.98 1.1 1.1 0 0 1 1.018-.266c.384.085.655.307.813.667.158.36.137.71-.062 1.05-.199.34-.494.529-.885.567-.392.04-1.001-.331-1.828-1.11-.826-.78-1.617-1.214-2.37-1.305-.754-.09-1.44.041-2.057.396a3.192 3.192 0 0 0-1.363 1.523 3.282 3.282 0 0 0-.212 2.05c.15.707.49 1.3 1.02 1.78s1.16.758 1.891.833a3.358 3.358 0 0 0 2.046-.425c.634-.358 1.088-.724 1.363-1.096.275-.371.468-.81.58-1.316.113-.505.233-.864.363-1.077.13-.213.31-.368.539-.464.23-.096.466-.115.708-.058.243.058.445.181.608.37l-.032 2.545Zm9.983 15.131-.033-.573-.033-.572-.042-.495a4.671 4.671 0 0 0-.229-1.064c-.125-.38-.579-.958-1.36-1.734-.783-.777-1.22-1.383-1.314-1.82-.093-.437.01-.821.308-1.153.298-.333.67-.476 1.114-.43.444.046.778.263 1.002.65.224.386.245.783.064 1.191-.181.409-.49.66-.927.753a1.248 1.248 0 0 1-1.153-.307 1.248 1.248 0 0 1-.43-1.115c.046-.444.263-.778.65-1.002a1.248 1.248 0 0 1 1.191-.064c.409.181.895.514 1.46 1a5.72 5.72 0 0 1 1.38 1.78c.355.702.584 1.329.688 1.88.103.552.152 1.011.148 1.378a25.57 25.57 0 0 1-.04 1.124c-.022.382-.033.655-.033.82 0 .165-.038.365-.115.601a1.12 1.12 0 0 1-.416.574 1.12 1.12 0 0 1-.675.219 1.12 1.12 0 0 1-.674-.22l-.531-1.421ZM21.173 3.035a5234.437 5234.437 0 0 0 1.367.741l.638.658c.425.438.816 1.027 1.17 1.768.356.74.552 1.525.59 2.353a6.154 6.154 0 0 1-.362 2.398c-.278.77-.779 1.505-1.501 2.208-.723.702-1.297 1.148-1.723 1.337-.426.188-.84.166-1.244-.068a1.301 1.301 0 0 1-.676-1.046c-.048-.463.102-.85.449-1.162a1.302 1.302 0 0 1 1.203-.32c.456.098.778.36.967.786a1.3 1.3 0 0 1-.068 1.244 1.301 1.301 0 0 1-1.046.676 1.301 1.301 0 0 1-1.161-.449 1.302 1.302 0 0 1-.32-1.203c.097-.456.442-.929 1.033-1.418a4.109 4.109 0 0 0 1.266-1.768c.253-.69.314-1.347.183-1.975-.13-.627-.308-1.104-.532-1.43a3.188 3.188 0 0 0-.732-.777 3.585 3.585 0 0 0-.771-.44c-.25-.1-.473-.23-.666-.39a1.13 1.13 0 0 1-.384-.604 1.13 1.13 0 0 1 .045-.714 1.13 1.13 0 0 1 .456-.551l1.82.146Z"/></g><defs><clipPath id="a"><path fill="#fff" d="M0 0h30v30H0z"/></clipPath></defs></svg>