<svg width="30" height="30" fill="none" xmlns="http://www.w3.org/2000/svg"><g clip-path="url(#a)"><path d="m21.285 20.313.02.53.021.532-.081.5a3.854 3.854 0 0 1-.33 1.026c-.167.352-.436.686-.808 1.003-.371.317-1.007.59-1.907.816-.9.227-2.032.298-3.398.212a184.85 184.85 0 0 1-3.897-.283A55.234 55.234 0 0 0 7.5 24.46a51.498 51.498 0 0 0-2.532-.004 8.028 8.028 0 0 1-1.937-.178c-.64-.138-1.21-.49-1.707-1.057-.498-.567-.825-1.31-.98-2.23a12.568 12.568 0 0 1-.158-2.785c.05-.937.11-1.966.18-3.088.069-1.12.108-2.185.118-3.192.01-1.006.026-1.918.05-2.733.023-.815.201-1.547.533-2.195A3.336 3.336 0 0 1 2.55 5.523c.655-.337 1.527-.5 2.616-.49 1.089.01 2.544.102 4.364.274 1.821.173 3.197.219 4.128.137a56.47 56.47 0 0 1 2.539-.171 8.563 8.563 0 0 1 2.19.18c.698.152 1.3.496 1.805 1.031.505.536.84 1.166 1.006 1.89.166.725.282 1.422.347 2.091.066.67.133 1.232.2 1.688.07.456.023.625-.136.506-.16-.118.06-.41.662-.875.602-.464 1.252-.92 1.95-1.364a428.97 428.97 0 0 1 2.656-1.673c1.072-.67 1.726-.967 1.962-.89.236.078.427.217.572.419.146.201.218.426.218.675-.001.248.011.493.037.735.025.241.066.867.123 1.878.058 1.01.06 2.474.007 4.39-.054 1.916-.14 2.994-.26 3.232a.745.745 0 0 1-.575.422.745.745 0 0 1-.68-.217.745.745 0 0 1-.223-.677.745.745 0 0 1 .416-.58.745.745 0 0 1 .713-.003c.239.12.38.312.422.575a.745.745 0 0 1-.217.68.745.745 0 0 1-.677.223.745.745 0 0 1-.579-.416c-.122-.237-.216-1.308-.28-3.212a211.58 211.58 0 0 0-.166-4.094 7.383 7.383 0 0 1 .252-2.397c.214-.772.358-1.256.431-1.453.075-.197.23-.257.466-.18.236.078.427.217.572.419.146.201.218.426.218.675-.001.248-.488.776-1.461 1.584-.974.808-1.784 1.474-2.43 2a22.586 22.586 0 0 1-2.216 1.572c-.831.523-1.64.71-2.428.56-.787-.15-1.358-.532-1.712-1.146a4.6 4.6 0 0 1-.607-2.01 55.065 55.065 0 0 1-.106-2.072c-.02-.656-.263-1.162-.726-1.517-.465-.354-1.062-.586-1.792-.696a40.544 40.544 0 0 0-2.493-.286c-.93-.082-2.227-.034-3.888.146-1.66.179-2.976.29-3.946.333-.97.044-1.732.201-2.284.472-.553.27-.917.762-1.093 1.474-.176.712-.26 1.569-.255 2.57.006 1.002.044 2.063.114 3.183.07 1.12.144 2.366.222 3.737.079 1.37.35 2.346.815 2.926.464.58 1.014.922 1.65 1.023.634.1 1.47.14 2.507.118a54.99 54.99 0 0 0 3.404-.189 265.93 265.93 0 0 0 4.065-.376c1.478-.147 2.47-.351 2.977-.612.506-.26.79-.564.85-.912.059-.347.089-.582.089-.706s.038-.303.114-.538c.077-.236.215-.426.415-.571.2-.146.424-.218.672-.218.247 0 .47.072.67.218l.53 1.295Z" fill="currentColor"/><path d="M29.41 8.276a1.12 1.12 0 0 0-.572-.418c-.236-.078-.89.219-1.962.89-1.072.67-1.957 1.227-2.655 1.672-.699.445-1.349.9-1.95 1.364-.602.465-.823.757-.663.875.16.119.205-.05.137-.506a33.849 33.849 0 0 1-.2-1.688 16.627 16.627 0 0 0-.348-2.09 4.012 4.012 0 0 0-1.006-1.89 3.439 3.439 0 0 0-1.805-1.032 8.563 8.563 0 0 0-2.19-.18 56.47 56.47 0 0 0-2.539.17c-.93.083-2.307.037-4.128-.136-1.82-.172-3.275-.264-4.364-.274-1.089-.01-1.961.153-2.616.49a3.336 3.336 0 0 0-1.482 1.476c-.332.648-.51 1.38-.533 2.195-.024.815-.04 1.726-.05 2.733a62.205 62.205 0 0 1-.119 3.193 434.74 434.74 0 0 0-.18 3.087c-.05.937.002 1.865.158 2.785.156.92.483 1.663.98 2.23.499.567 1.068.92 1.708 1.057.64.138 1.286.197 1.937.178.65-.02 1.495-.018 2.532.004s2.172.085 3.405.188c1.233.103 2.532.197 3.897.283 1.366.086 2.498.015 3.398-.212.9-.227 1.536-.499 1.907-.816.372-.317.64-.651.807-1.003.166-.35.276-.693.33-1.026l.082-.5-.02-.531-.02-.531-.53-1.295a1.114 1.114 0 0 0-.671-.218c-.248 0-.472.072-.672.218-.2.145-.338.335-.415.57-.076.236-.114.415-.114.539 0 .124-.03.36-.09.706-.06.348-.343.652-.85.912-.506.26-1.498.465-2.976.612a265.93 265.93 0 0 1-4.065.376 54.99 54.99 0 0 1-3.404.19c-1.037.021-1.873-.018-2.508-.12-.635-.1-1.185-.441-1.65-1.022-.464-.58-.735-1.555-.814-2.926a805.94 805.94 0 0 0-.222-3.737 57.026 57.026 0 0 1-.114-3.183c-.006-1.001.08-1.858.255-2.57.176-.712.54-1.203 1.093-1.474.552-.271 1.313-.428 2.284-.472.97-.043 2.285-.154 3.946-.333 1.661-.18 2.957-.228 3.888-.146a41.34 41.34 0 0 1 2.493.286c.73.11 1.328.342 1.792.696.463.355.706.86.726 1.517.02.656.056 1.347.106 2.072a4.6 4.6 0 0 0 .607 2.01c.354.614.925.996 1.712 1.146.788.15 1.597-.037 2.428-.56a22.586 22.586 0 0 0 2.216-1.572c.646-.526 1.456-1.192 2.43-2 .973-.808 1.46-1.336 1.46-1.584m-.217-.675c.146.201.218.426.218.675m-.218-.675a1.12 1.12 0 0 0-.572-.418c-.236-.078-.392-.018-.466.179-.073.197-.217.681-.431 1.453a7.383 7.383 0 0 0-.252 2.397c.047.826.102 2.19.166 4.095.064 1.903.158 2.974.28 3.21a.745.745 0 0 0 .58.417.744.744 0 0 0 .676-.224.745.745 0 0 0 .217-.679.745.745 0 0 0-.422-.575.745.745 0 0 0-.713.004.745.745 0 0 0-.416.579c-.04.264.034.49.224.677.19.188.416.26.679.217a.745.745 0 0 0 .575-.422c.12-.238.206-1.316.26-3.232.053-1.916.05-3.38-.007-4.39a57.881 57.881 0 0 0-.123-1.878 6.893 6.893 0 0 1-.037-.735" stroke="currentColor" stroke-width="2" stroke-linecap="round" stroke-linejoin="round"/><path d="M8.216 6.988a875527.963 875527.963 0 0 0 5.838 6.398l6.317 6.316c4.21 4.211 6.338 6.384 6.382 6.52a.396.396 0 0 1-.06.374.396.396 0 0 1-.337.172.396.396 0 0 1-.338-.172.396.396 0 0 1-.06-.375.396.396 0 0 1 .269-.268.396.396 0 0 1 .374.06.396.396 0 0 1 .172.337.396.396 0 0 1-.172.338.397.397 0 0 1-.374.06c-.135-.044-2.308-2.172-6.52-6.383-4.21-4.21-7.382-7.29-9.514-9.235C8.06 9.184 6.4 7.618 5.215 6.432c-1.186-1.186-1.82-1.858-1.9-2.017a.802.802 0 0 1-.08-.502.802.802 0 0 1 .23-.452.802.802 0 0 1 .454-.231l4.297 3.758Z" fill="currentColor" stroke="currentColor" stroke-width="2" stroke-linecap="round" stroke-linejoin="round"/></g><defs><clipPath id="a"><path fill="#fff" d="M0 0h30v30H0z"/></clipPath></defs></svg>