<svg width="30" height="30" fill="none" xmlns="http://www.w3.org/2000/svg"><g clip-path="url(#a)"><path d="m27.566 10.795-.995.664-.996.664-1.213.787c-.808.524-1.534.971-2.176 1.34-.643.37-1.001.594-1.076.672-.074.077.22.378.881.903.663.524 1.37 1.078 2.12 1.662.752.584 1.677 1.299 2.775 2.144 1.098.845 1.647 1.37 1.649 1.575a.925.925 0 0 1-.178.559.925.925 0 0 1-.472.347c-.195.065-.318.01-.37-.166a26.034 26.034 0 0 1-.305-1.326 9.737 9.737 0 0 1-.194-2.306c.023-.829.059-2.195.107-4.098.049-1.903.128-2.962.24-3.178a.678.678 0 0 1 .527-.378.678.678 0 0 1 .615.204.68.68 0 0 1 .197.618.677.677 0 0 1-.384.522.678.678 0 0 1-.649-.003.678.678 0 0 1-.378-.527.678.678 0 0 1 .204-.616.678.678 0 0 1 .618-.197.68.68 0 0 1 .523.384c.108.217.18 1.283.216 3.2.036 1.915.009 3.381-.082 4.398a54.309 54.309 0 0 1-.186 1.89c-.034.243-.05.468-.05.673a.925.925 0 0 1-.177.559.925.925 0 0 1-.472.347c-.195.065-.87-.288-2.025-1.058a672.064 672.064 0 0 1-2.94-1.968 15.831 15.831 0 0 1-2.378-1.995c-.78-.787-1.072-1.533-.876-2.24.196-.706.632-1.345 1.31-1.918a75.455 75.455 0 0 1 2.152-1.751c.758-.595 1.454-1.135 2.088-1.619.635-.484 1.14-.86 1.518-1.13.377-.27.684-.442.92-.517.236-.074.472-.072.707.006.235.079.425.219.569.42.144.202.215.427.213.675l-1.577 1.778Z" fill="currentColor"/><path d="M28.535 21.206c-.002-.205-.551-.73-1.649-1.575a780.025 780.025 0 0 1-2.774-2.144 295.395 295.395 0 0 1-2.12-1.662c-.663-.525-.956-.826-.882-.903.075-.078.433-.302 1.076-.671.642-.37 1.368-.817 2.176-1.341l1.213-.787.996-.664.995-.664 1.577-1.778a1.117 1.117 0 0 0-.213-.675 1.117 1.117 0 0 0-.569-.42 1.117 1.117 0 0 0-.707-.006c-.236.075-.543.247-.92.517-.378.27-.883.646-1.518 1.13-.634.484-1.33 1.024-2.088 1.619a75.455 75.455 0 0 0-2.153 1.751c-.677.573-1.113 1.212-1.309 1.918-.196.707.096 1.453.876 2.24.78.787 1.573 1.452 2.378 1.994.805.543 1.785 1.2 2.94 1.97s1.83 1.122 2.025 1.057m.65-.906a.925.925 0 0 1-.178.559.925.925 0 0 1-.472.347m.65-.906c-.002-.205.015-.43.049-.673.034-.244.096-.874.186-1.89.09-1.017.118-2.483.082-4.399-.035-1.916-.108-2.982-.216-3.199a.678.678 0 0 0-.523-.384.678.678 0 0 0-.618.197.678.678 0 0 0-.204.616.68.68 0 0 0 .378.527.678.678 0 0 0 .649.003.677.677 0 0 0 .384-.522.678.678 0 0 0-.197-.618.678.678 0 0 0-.615-.204.678.678 0 0 0-.527.378c-.112.216-.191 1.275-.24 3.178-.049 1.903-.084 3.27-.107 4.098a9.737 9.737 0 0 0 .195 2.306c.151.709.253 1.15.304 1.326.052.175.175.23.37.166" stroke="currentColor" stroke-width="2" stroke-linecap="round" stroke-linejoin="round"/><path d="M5.528 5.145a187976.034 187976.034 0 0 0 3.06.188s.615.04 1.846.124c1.231.082 2.365.13 3.402.144 1.036.013 1.89.016 2.561.008a7.303 7.303 0 0 1 2.035.274c.685.19 1.247.565 1.687 1.126.44.561.72 1.258.842 2.091.123.833.163 1.725.123 2.676-.04.952-.092 1.99-.154 3.113a73.887 73.887 0 0 0-.11 3.242 59.333 59.333 0 0 1-.097 2.89c-.054.89-.272 1.626-.655 2.207-.383.58-1 1.004-1.85 1.27-.851.266-1.987.383-3.408.352a90.498 90.498 0 0 1-3.985-.169 63.575 63.575 0 0 0-3.41-.141 113.174 113.174 0 0 0-2.562-.008 7.295 7.295 0 0 1-2.035-.272 3.16 3.16 0 0 1-1.687-1.126c-.44-.56-.72-1.258-.842-2.09a14.264 14.264 0 0 1-.123-2.676c.04-.951.092-1.989.153-3.112a73.79 73.79 0 0 0 .11-3.241c.011-1.037.22-2.218.625-3.541.406-1.324.697-2.125.873-2.404a.921.921 0 0 1 .758-.45.92.92 0 0 1 .81.348c.21.253.275.54.194.86a.921.921 0 0 1-.582.662.921.921 0 0 1-.877-.08.921.921 0 0 1-.45-.759.921.921 0 0 1 .347-.81.921.921 0 0 1 .86-.194c.32.082.54.275.663.582.122.306-.106 1.095-.683 2.367-.577 1.272-.868 2.418-.872 3.44a53.136 53.136 0 0 0 .089 3.215c.063 1.121.136 2.371.216 3.75.081 1.38.359 2.36.833 2.941.475.581 1.031.923 1.67 1.026.637.103 1.475.148 2.512.135a62.35 62.35 0 0 0 3.406-.144l3.382-.229a13.795 13.795 0 0 0 2.823-.467c.86-.243 1.43-.742 1.707-1.495.277-.753.417-1.64.421-2.661a53.235 53.235 0 0 0-.09-3.214 1963.69 1963.69 0 0 0-.216-3.75c-.08-1.38-.358-2.36-.833-2.94-.474-.58-1.03-.922-1.668-1.025-.638-.103-1.475-.148-2.511-.134a63.03 63.03 0 0 0-3.402.144c-1.231.082-2.356.155-3.376.218a41.73 41.73 0 0 1-2.419.093c-.593 0-1.005-.037-1.235-.112a1.093 1.093 0 0 1-.56-.407 1.093 1.093 0 0 1-.214-.658c0-.242.071-.462.214-.658l2.684-.52Z" fill="currentColor" stroke="currentColor" stroke-width="2" stroke-linecap="round" stroke-linejoin="round"/></g><defs><clipPath id="a"><path fill="#fff" d="M0 0h30v30H0z"/></clipPath></defs></svg>