<svg width="30" height="30" fill="none" xmlns="http://www.w3.org/2000/svg"><path d="m13.776 7.95-.697.554-.696.555-.852.656c-.569.437-1.131.861-1.688 1.274a9.585 9.585 0 0 1-1.89 1.077c-.703.306-1.443.598-2.219.878-.776.28-1.283.861-1.523 1.745-.239.884-.246 1.566-.02 2.047.226.481.776.752 1.652.813.875.06 1.703.267 2.482.618.78.351 1.627.906 2.54 1.666.914.76 1.79 1.525 2.626 2.296.837.77 1.25 1.286 1.238 1.545a1.18 1.18 0 0 1-.26.694 1.17 1.17 0 0 1-.62.408c-.25.069-.415-.008-.495-.231-.08-.223-.224-.808-.433-1.755-.208-.947-.248-2.037-.119-3.268.13-1.231.249-3.183.357-5.856.11-2.673.198-4.077.268-4.212a.425.425 0 0 1 .33-.238.425.425 0 0 1 .386.127.425.425 0 0 1 .124.387.425.425 0 0 1-.24.328.425.425 0 0 1-.406-.002.425.425 0 0 1-.238-.33.425.425 0 0 1 .127-.385.425.425 0 0 1 .386-.125c.15.025.26.104.329.24.068.136.152 1.543.252 4.223.1 2.679.169 4.767.207 6.263.039 1.497.059 2.428.06 2.794.002.366-.003.679-.015.938a1.18 1.18 0 0 1-.26.694 1.17 1.17 0 0 1-.62.408c-.25.069-.843-.22-1.779-.865a48.302 48.302 0 0 1-2.738-2.034c-.89-.711-1.697-1.17-2.423-1.376a13.155 13.155 0 0 0-2.461-.427c-.914-.078-1.622-.435-2.122-1.072-.5-.636-.795-1.295-.885-1.976a19.024 19.024 0 0 1-.159-2.043 39.63 39.63 0 0 1 .002-1.986c.018-.645.303-1.234.857-1.769.554-.534 1.248-.862 2.082-.982a42.66 42.66 0 0 0 2.292-.389 5.179 5.179 0 0 0 1.873-.76 19.326 19.326 0 0 0 1.657-1.24c.551-.457 1.058-.872 1.52-1.244l1.099-.882a2.87 2.87 0 0 1 .755-.455c.234-.089.471-.1.713-.034.24.067.44.197.595.392.157.196.24.418.252.668L13.776 7.95Z" fill="currentColor"/><path d="M14.729 23.674c.012-.26-.4-.775-1.238-1.546a68.628 68.628 0 0 0-2.626-2.295c-.913-.76-1.76-1.315-2.54-1.666a7.215 7.215 0 0 0-2.482-.618c-.876-.061-1.426-.332-1.652-.813-.226-.481-.219-1.163.02-2.047.24-.884.747-1.465 1.523-1.745a37.5 37.5 0 0 0 2.22-.878 9.585 9.585 0 0 0 1.889-1.077c.557-.413 1.12-.837 1.688-1.274.567-.438.852-.656.852-.656l.696-.555.697-.554 1.203-1.648a1.126 1.126 0 0 0-.252-.668 1.127 1.127 0 0 0-.595-.392 1.127 1.127 0 0 0-.713.034c-.234.088-.486.24-.755.455l-1.098.882c-.463.372-.97.787-1.52 1.245-.552.458-1.104.871-1.658 1.24a5.179 5.179 0 0 1-1.873.76c-.694.138-1.458.268-2.292.388-.834.12-1.528.448-2.082.982-.554.535-.84 1.124-.857 1.769a39.63 39.63 0 0 0-.002 1.986c.016.68.069 1.361.159 2.043.09.681.385 1.34.885 1.976.5.637 1.208.994 2.122 1.072.914.079 1.734.22 2.46.427.727.206 1.535.665 2.424 1.376.89.711 1.802 1.39 2.738 2.034.936.645 1.529.934 1.78.865m.879-1.102a1.18 1.18 0 0 1-.26.694 1.17 1.17 0 0 1-.62.408m.88-1.102c.012-.26.017-.572.015-.938a172.39 172.39 0 0 0-.06-2.794 578.74 578.74 0 0 0-.207-6.264c-.1-2.679-.184-4.086-.252-4.222a.425.425 0 0 0-.329-.24.425.425 0 0 0-.387.125.425.425 0 0 0-.126.386c.023.15.103.26.238.33.135.069.27.07.406 0a.425.425 0 0 0 .24-.327.425.425 0 0 0-.124-.387.425.425 0 0 0-.387-.127.425.425 0 0 0-.33.238c-.069.135-.158 1.54-.267 4.212-.108 2.673-.228 4.625-.357 5.856-.13 1.232-.09 2.32.12 3.268.208.947.352 1.532.432 1.755.08.223.245.3.495.23" stroke="currentColor" stroke-width="2" stroke-linecap="round" stroke-linejoin="round"/><path d="m25.416 7.98.52.856.521.857.407.962a13.795 13.795 0 0 1 1.026 4.078 13.666 13.666 0 0 1-.265 4.23c-.153.691-.544 1.666-1.172 2.923-.629 1.258-1.057 1.92-1.284 1.988a1.07 1.07 0 0 1-.677-.018 1.07 1.07 0 0 1-.537-.413c-.135-.195-.36-.647-.678-1.356a639.643 639.643 0 0 1-2.253-5.16c-1.185-2.731-1.756-4.14-1.714-4.228a.435.435 0 0 1 .19-.198.435.435 0 0 1 .271-.05c.096.014.188.11.276.291.089.181.272.63.55 1.345a6.21 6.21 0 0 1 .44 2.104c.017.687-.086 1.422-.309 2.206-.223.783-.404 1.266-.544 1.447a.64.64 0 0 1-.552.262.639.639 0 0 1-.537-.292.64.64 0 0 1-.079-.606.639.639 0 0 1 .444-.42.639.639 0 0 1 .601.112.64.64 0 0 1 .263.552.639.639 0 0 1-.293.537.639.639 0 0 1-.606.079.639.639 0 0 1-.42-.444c-.065-.22.085-.952.451-2.198.366-1.245.457-2.237.273-2.974-.184-.737-.31-1.192-.38-1.364-.068-.172-.081-.302-.04-.389a.435.435 0 0 1 .191-.198.435.435 0 0 1 .271-.05c.096.014.879 1.505 2.349 4.475l2.797 5.651c.395.797.48 1.23.252 1.297a1.07 1.07 0 0 1-.677-.018 1.07 1.07 0 0 1-.537-.413c-.135-.195.072-1.12.62-2.776.548-1.656.84-3.067.875-4.234a11.03 11.03 0 0 0-.43-3.417c-.32-1.111-.647-1.98-.979-2.604a10.73 10.73 0 0 0-1.103-1.691c-.404-.503-.65-.87-.737-1.101a1.113 1.113 0 0 1-.032-.704c.066-.238.195-.434.388-.588.193-.154.413-.237.66-.248l2.2 1.9Z" fill="currentColor"/><path d="M25.169 23.874c.227-.068.655-.73 1.284-1.988.628-1.257 1.019-2.232 1.172-2.922a13.628 13.628 0 0 0 .265-4.23 13.668 13.668 0 0 0-1.026-4.079l-.407-.962-.52-.857-.52-.856-2.2-1.9a1.113 1.113 0 0 0-.66.248c-.193.154-.322.35-.388.588-.065.238-.055.473.032.704.087.23.333.598.737 1.1a10.73 10.73 0 0 1 1.103 1.692c.332.625.658 1.493.98 2.604a11.03 11.03 0 0 1 .429 3.417c-.035 1.167-.327 2.578-.875 4.234-.548 1.655-.755 2.58-.62 2.776m1.214.43a1.07 1.07 0 0 1-.677-.017m.677.018c.227-.068.143-.5-.252-1.297l-2.797-5.65c-1.47-2.97-2.253-4.462-2.349-4.475m4.72 11.404a1.07 1.07 0 0 1-.536-.413m.537.413a1.07 1.07 0 0 1-.537-.413m0 0c-.135-.195-.36-.647-.678-1.356a639.643 639.643 0 0 1-2.253-5.16c-1.185-2.731-1.756-4.14-1.714-4.228m0 0a.435.435 0 0 1 .19-.198m-.19.198c-.042.087-.029.217.04.389.069.172.195.627.38 1.364.183.737.092 1.729-.274 2.974-.366 1.246-.516 1.978-.451 2.198.064.22.204.367.42.444.215.076.418.05.606-.08a.639.639 0 0 0 .293-.536.639.639 0 0 0-.263-.552.639.639 0 0 0-.601-.113.639.639 0 0 0-.444.42.64.64 0 0 0 .08.607.637.637 0 0 0 .536.293.64.64 0 0 0 .552-.263c.14-.181.321-.664.544-1.447.223-.784.326-1.519.31-2.206a6.21 6.21 0 0 0-.442-2.104c-.277-.716-.46-1.164-.549-1.345-.088-.18-.18-.277-.276-.29m-.461.247a.435.435 0 0 1 .19-.198m0 0a.435.435 0 0 1 .271-.05" stroke="currentColor" stroke-width="2" stroke-linecap="round" stroke-linejoin="round"/></svg>