<svg width="30" height="30" fill="none" xmlns="http://www.w3.org/2000/svg"><g clip-path="url(#a)"><path d="m13.776 7.95-.697.554-.696.555-.852.656c-.569.437-1.131.861-1.688 1.274a9.585 9.585 0 0 1-1.89 1.077c-.703.306-1.443.598-2.219.878-.776.28-1.283.861-1.523 1.745-.239.884-.246 1.566-.02 2.047.226.481.776.752 1.652.813.875.06 1.703.267 2.482.618.78.351 1.627.906 2.54 1.666.914.76 1.79 1.525 2.626 2.296.837.77 1.25 1.286 1.238 1.545a1.18 1.18 0 0 1-.26.694 1.17 1.17 0 0 1-.62.408c-.25.069-.415-.008-.495-.231-.08-.223-.224-.808-.433-1.755-.208-.947-.248-2.037-.119-3.268.13-1.231.249-3.183.357-5.856.11-2.673.198-4.077.268-4.212a.425.425 0 0 1 .33-.238.425.425 0 0 1 .386.127.425.425 0 0 1 .124.387.425.425 0 0 1-.24.328.425.425 0 0 1-.406-.002.425.425 0 0 1-.238-.33.425.425 0 0 1 .127-.385.425.425 0 0 1 .386-.125c.15.025.26.104.329.24.068.136.152 1.543.252 4.223.1 2.679.169 4.767.207 6.263.039 1.497.059 2.428.06 2.794.002.366-.003.679-.015.938a1.18 1.18 0 0 1-.26.694 1.17 1.17 0 0 1-.62.408c-.25.069-.843-.22-1.779-.865a48.302 48.302 0 0 1-2.738-2.034c-.89-.711-1.697-1.17-2.423-1.376a13.155 13.155 0 0 0-2.461-.427c-.914-.078-1.622-.435-2.122-1.072-.5-.636-.795-1.295-.885-1.976a19.024 19.024 0 0 1-.159-2.043 39.63 39.63 0 0 1 .002-1.986c.018-.645.303-1.234.857-1.769.554-.534 1.248-.862 2.082-.982a42.66 42.66 0 0 0 2.292-.389 5.179 5.179 0 0 0 1.873-.76 19.326 19.326 0 0 0 1.657-1.24c.551-.457 1.058-.872 1.52-1.244l1.099-.882a2.87 2.87 0 0 1 .755-.455c.234-.089.471-.1.713-.034.24.067.44.197.595.392.157.196.24.418.252.668L13.776 7.95Z" fill="currentColor"/><path d="M14.729 23.674c.012-.26-.4-.775-1.238-1.546a68.628 68.628 0 0 0-2.626-2.295c-.913-.76-1.76-1.315-2.54-1.666a7.215 7.215 0 0 0-2.482-.618c-.876-.061-1.426-.332-1.652-.813-.226-.481-.219-1.163.02-2.047.24-.884.747-1.465 1.523-1.745a37.5 37.5 0 0 0 2.22-.878 9.585 9.585 0 0 0 1.889-1.077c.557-.413 1.12-.837 1.688-1.274.567-.438.852-.656.852-.656l.696-.555.697-.554 1.203-1.648a1.126 1.126 0 0 0-.252-.668 1.127 1.127 0 0 0-.595-.392 1.127 1.127 0 0 0-.713.034c-.234.088-.486.24-.755.455l-1.098.882c-.463.372-.97.787-1.52 1.245-.552.458-1.104.871-1.658 1.24a5.179 5.179 0 0 1-1.873.76c-.694.138-1.458.268-2.292.388-.834.12-1.528.448-2.082.982-.554.535-.84 1.124-.857 1.769a39.63 39.63 0 0 0-.002 1.986c.016.68.069 1.361.159 2.043.09.681.385 1.34.885 1.976.5.637 1.208.994 2.122 1.072.914.079 1.734.22 2.46.427.727.206 1.535.665 2.424 1.376.89.711 1.802 1.39 2.738 2.034.936.645 1.529.934 1.78.865m.879-1.102a1.18 1.18 0 0 1-.26.694 1.17 1.17 0 0 1-.62.408m.88-1.102c.012-.26.017-.572.015-.938a172.39 172.39 0 0 0-.06-2.794 578.74 578.74 0 0 0-.207-6.264c-.1-2.679-.184-4.086-.252-4.222a.425.425 0 0 0-.329-.24.425.425 0 0 0-.387.125.425.425 0 0 0-.126.386c.023.15.103.26.238.33.135.069.27.07.406 0a.425.425 0 0 0 .24-.327.425.425 0 0 0-.124-.387.425.425 0 0 0-.387-.127.425.425 0 0 0-.33.238c-.069.135-.158 1.54-.267 4.212-.108 2.673-.228 4.625-.357 5.856-.13 1.232-.09 2.32.12 3.268.208.947.352 1.532.432 1.755.08.223.245.3.495.23" stroke="currentColor" stroke-width="2" stroke-linecap="round" stroke-linejoin="round"/><path d="m27.815 13.895-.86.809-.859.809-1.762 1.683c-1.174 1.123-1.908 1.732-2.203 1.827a.864.864 0 0 1-.816-.13.864.864 0 0 1-.375-.736c0-.309.125-.555.375-.736a.864.864 0 0 1 .816-.13c.295.096.49.29.585.585a.864.864 0 0 1-.13.816.864.864 0 0 1-.736.376.864.864 0 0 1-.736-.376.864.864 0 0 1-.13-.816c.096-.294.705-1.029 1.827-2.203a539.676 539.676 0 0 0 2.493-2.621c.54-.573.97-1.021 1.294-1.345.323-.323.596-.541.817-.654.22-.113.454-.15.698-.11.245.038.456.145.63.32.176.176.283.386.322.631l-1.25 2Z" fill="currentColor" stroke="currentColor" stroke-width="2" stroke-linecap="round" stroke-linejoin="round"/><path d="m23.895 12.185.809.86.809.859 1.683 1.761c1.123 1.175 1.732 1.91 1.827 2.204a.864.864 0 0 1-.13.816.864.864 0 0 1-.736.375.864.864 0 0 1-.736-.375.864.864 0 0 1-.13-.816.864.864 0 0 1 .585-.585.864.864 0 0 1 .816.13c.25.181.376.427.376.736a.86.86 0 0 1-.376.736.864.864 0 0 1-.816.13c-.294-.096-1.029-.705-2.203-1.827a528.98 528.98 0 0 0-2.621-2.493c-.573-.54-1.021-.97-1.345-1.294-.323-.323-.541-.596-.654-.817a1.117 1.117 0 0 1-.11-.698c.038-.245.145-.456.32-.63a1.12 1.12 0 0 1 .631-.322l2 1.25Z" fill="currentColor" stroke="currentColor" stroke-width="2" stroke-linecap="round" stroke-linejoin="round"/></g><defs><clipPath id="a"><path fill="#fff" d="M0 0h30v30H0z"/></clipPath></defs></svg>