<svg width="30" height="30" fill="none" xmlns="http://www.w3.org/2000/svg"><g clip-path="url(#a)" fill="currentColor" stroke="currentColor" stroke-width="2" stroke-linecap="round" stroke-linejoin="round"><path d="m24.085 17.883-.674 1.241-.675 1.24-1.016 1.032a9.585 9.585 0 0 1-2.31 1.724 9.376 9.376 0 0 1-2.764.962 9.496 9.496 0 0 1-2.948.076 9.41 9.41 0 0 1-2.794-.81 9.211 9.211 0 0 1-2.373-1.597 9.09 9.09 0 0 1-2.75-4.982 9.33 9.33 0 0 1-.095-2.93 9.31 9.31 0 0 1 .795-2.785 9.15 9.15 0 0 1 1.588-2.371 9.07 9.07 0 0 1 4.971-2.752 9.314 9.314 0 0 1 2.927-.097c.98.122 1.908.386 2.784.792.875.407 1.837 1.203 2.884 2.388 1.048 1.186 1.625 1.9 1.732 2.142a.739.739 0 0 1-.04.706.74.74 0 0 1-.594.383.739.739 0 0 1-.659-.255.739.739 0 0 1-.18-.684.739.739 0 0 1 .446-.548.739.739 0 0 1 .706.04.739.739 0 0 1 .383.593.739.739 0 0 1-.255.66.74.74 0 0 1-.684.18c-.258-.055-.855-.645-1.79-1.77-.934-1.124-1.755-1.864-2.462-2.221a7.427 7.427 0 0 0-2.26-.716 7.578 7.578 0 0 0-2.396.02 7.542 7.542 0 0 0-4.126 2.132 7.45 7.45 0 0 0-2.072 4.152 7.57 7.57 0 0 0 .022 2.394 7.519 7.519 0 0 0 2.134 4.115 7.394 7.394 0 0 0 4.142 2.049 7.435 7.435 0 0 0 2.376-.039 7.36 7.36 0 0 0 4.037-2.145c.53-.551.963-1.16 1.3-1.827.337-.666.604-1.442.8-2.326.196-.885.354-1.426.473-1.624a1.04 1.04 0 0 1 .498-.432c.213-.09.432-.109.657-.056.225.052.413.165.564.34l-.302 3.606Z"/><path d="m16.395 12.122.032.793.033.793.738 1.148c.492.766.74 1.36.745 1.78.005.422-.161.759-.5 1.01a1.177 1.177 0 0 1-1.11.19 1.177 1.177 0 0 1-.806-.788c-.135-.4-.08-.77.164-1.114.243-.344.576-.519.997-.523.422-.005.758.161 1.01.5.252.337.315.708.189 1.11a1.18 1.18 0 0 1-.787.806c-.4.134-.771.08-1.115-.164s-.755-.767-1.233-1.57c-.478-.803-.739-1.401-.783-1.795a9.29 9.29 0 0 1-.033-1.383c.021-.529.032-.916.032-1.163 0-.248.039-.49.116-.728.077-.238.217-.43.42-.577.201-.147.428-.22.678-.22.25 0 .476.073.678.22l.535 1.675Z"/><path d="m21.698 22.308-.031.534-.03.534-.051.73a30.27 30.27 0 0 1-.174 1.704 6.427 6.427 0 0 1-.584 1.945c-.306.646-.803 1.165-1.49 1.557-.688.391-1.521.624-2.5.697a28.93 28.93 0 0 1-2.776.083 15.842 15.842 0 0 1-2.27-.19c-.641-.107-1.265-.387-1.873-.839-.607-.452-1.058-1.063-1.351-1.833-.294-.77-.436-2.03-.428-3.78.009-1.75.126-4.26.35-7.532.226-3.271.346-5.42.361-6.45a238.353 238.353 0 0 1 .141-5.392 5.45 5.45 0 0 1 .403-1.87c.243-.593.674-1.076 1.292-1.45.618-.375 1.4-.612 2.345-.712a25.04 25.04 0 0 1 2.8-.141c.92.005 1.758.086 2.515.241a3.734 3.734 0 0 1 1.922 1.015c.525.52.894 1.154 1.108 1.9.213.744.363 1.614.45 2.61.088.994.049 1.7-.115 2.114a1.245 1.245 0 0 1-.895.788c-.431.11-.82.023-1.163-.26a1.246 1.246 0 0 1-.473-1.095c.029-.445.23-.787.607-1.025a1.245 1.245 0 0 1 1.187-.112c.415.164.677.462.788.894.11.432.024.82-.26 1.163a1.246 1.246 0 0 1-1.094.473 1.246 1.246 0 0 1-1.026-.607c-.239-.377-.433-1.225-.582-2.544-.15-1.32-.473-2.133-.97-2.439-.497-.306-1.184-.487-2.061-.544a65.16 65.16 0 0 0-2.398-.117c-.722-.02-1.33.142-1.826.488a2.823 2.823 0 0 0-1.06 1.414c-.212.598-.37 1.363-.475 2.295a35.12 35.12 0 0 0-.202 2.927c-.029 1.018.092 2.976.363 5.873.271 2.898.488 5.103.65 6.615.161 1.512.419 2.663.773 3.453.353.789.853 1.28 1.499 1.472.646.192 1.382.282 2.208.27.826-.01 1.55-.158 2.174-.441.623-.283 1.031-.708 1.224-1.274.192-.565.316-1.09.371-1.574.055-.485.105-.904.15-1.258.044-.353.076-.634.095-.84a2.14 2.14 0 0 1 .176-.653c.098-.23.254-.408.468-.535.214-.128.446-.18.694-.158.248.023.466.116.654.28l.39 1.596Z"/></g><defs><clipPath id="a"><path fill="#fff" d="M0 0h30v30H0z"/></clipPath></defs></svg>