<svg width="30" height="30" fill="none" xmlns="http://www.w3.org/2000/svg"><path d="m8.24 13.588.859-.451.858-.452.949-.35a15.07 15.07 0 0 1 6.038-.91c.688.039 1.368.123 2.04.255.673.132 1.54.407 2.603.826 1.062.42 1.72.752 1.974 1a.99.99 0 0 1 .305.897.99.99 0 0 1-.547.773.99.99 0 0 1-.947.013.99.99 0 0 1-.567-.76.99.99 0 0 1 .28-.904.99.99 0 0 1 .898-.305.99.99 0 0 1 .773.547.99.99 0 0 1 .013.947.99.99 0 0 1-.76.567c-.349.06-1.23-.146-2.642-.618-1.413-.472-2.693-.723-3.842-.753a12.337 12.337 0 0 0-3.38.375c-1.106.28-1.975.566-2.607.857a11.81 11.81 0 0 0-1.726.966c-.518.353-.896.564-1.134.633a1.116 1.116 0 0 1-.706-.022 1.116 1.116 0 0 1-.558-.434 1.116 1.116 0 0 1-.197-.678l2.023-2.018ZM5.189 8.486l1.275-.647 1.276-.647 1.394-.5c.93-.333 1.881-.604 2.855-.814a21.704 21.704 0 0 1 5.954-.44c.998.065 1.984.2 2.957.403.973.204 2.242.631 3.808 1.282 1.566.652 2.435 1.064 2.61 1.238a.687.687 0 0 1 .203.625.687.687 0 0 1-.386.532.687.687 0 0 1-.657 0 .687.687 0 0 1-.387-.53.687.687 0 0 1 .202-.626.687.687 0 0 1 .626-.204c.242.038.42.167.532.386a.687.687 0 0 1 0 .658.687.687 0 0 1-.531.386c-.243.04-1.12-.258-2.63-.892-1.51-.634-2.712-1.044-3.608-1.23a18.512 18.512 0 0 0-5.464-.304 18.225 18.225 0 0 0-7.616 2.473 30.89 30.89 0 0 0-2.273 1.49c-.771.554-1.266.866-1.485.935a1.03 1.03 0 0 1-.654-.004 1.033 1.033 0 0 1-.527-.388 1.033 1.033 0 0 1-.198-.623L5.19 8.486Zm6.146 10.095.446-.227.446-.227.494-.182c.33-.122.714-.223 1.153-.306.44-.082 1.372-.027 2.798.163 1.425.191 2.325.387 2.699.588.374.2.59.511.648.932.057.42-.067.778-.374 1.072a1.186 1.186 0 0 1-1.087.328 1.186 1.186 0 0 1-.904-.687 1.187 1.187 0 0 1 .024-1.135c.201-.374.512-.59.933-.647.42-.058.778.067 1.072.373.293.307.403.669.327 1.087-.075.418-.304.72-.686.904-.383.185-1.3.165-2.753-.059s-2.453-.267-2.999-.13c-.545.138-.965.288-1.258.452a4.084 4.084 0 0 1-.808.356 1.167 1.167 0 0 1-.734-.018 1.158 1.158 0 0 1-.582-.445 1.158 1.158 0 0 1-.21-.703l1.355-1.489Zm3.671 5.274.345.112.344.112.213.293c.142.196.213.414.213.656 0 .242-.07.46-.213.655-.142.196-.327.33-.557.406a1.1 1.1 0 0 1-.69 0 1.089 1.089 0 0 1-.557-.405 1.089 1.089 0 0 1-.213-.656c0-.242.071-.46.213-.655l.902-.518Z" fill="currentColor" stroke="currentColor" stroke-width="2" stroke-linecap="round" stroke-linejoin="round"/></svg>