<svg width="30" height="30" fill="none" xmlns="http://www.w3.org/2000/svg"><path d="M8.216 6.988a875527.963 875527.963 0 0 0 5.838 6.398l6.317 6.316c4.21 4.211 6.338 6.384 6.382 6.52a.396.396 0 0 1-.06.374.396.396 0 0 1-.337.172.396.396 0 0 1-.338-.172.396.396 0 0 1-.06-.375.396.396 0 0 1 .269-.268.396.396 0 0 1 .374.06.396.396 0 0 1 .172.337.396.396 0 0 1-.172.338.397.397 0 0 1-.374.06c-.135-.044-2.308-2.172-6.52-6.383-4.21-4.21-7.382-7.29-9.514-9.235C8.06 9.184 6.4 7.618 5.215 6.432c-1.186-1.186-1.82-1.858-1.9-2.017a.802.802 0 0 1-.08-.502.802.802 0 0 1 .23-.452.802.802 0 0 1 .454-.231l4.297 3.758Zm14.375 6.405.772.463.773.463.27.512c.182.342.187.687.017 1.034a1.08 1.08 0 0 1-.827.62 1.08 1.08 0 0 1-.987-.304 1.08 1.08 0 0 1-.335-.978 1.08 1.08 0 0 1 .595-.845 1.08 1.08 0 0 1 1.033-.016c.347.17.554.445.62.826.066.381-.035.71-.304.988a1.08 1.08 0 0 1-.978.334c-.383-.054-.782-.226-1.2-.517-.416-.29-.747-.502-.993-.637a2.53 2.53 0 0 1-.627-.478 1.136 1.136 0 0 1-.307-.65c-.031-.25.013-.486.134-.707.122-.221.296-.385.524-.493l1.82.385Z" fill="currentColor" stroke="currentColor" stroke-width="2" stroke-linecap="round" stroke-linejoin="round"/><path d="m7.632 13.606 1.75-.875 1.749-.874.57-.05c.381-.034.697.093.947.381.251.288.334.618.248.99a1.067 1.067 0 0 1-.655.783c-.352.15-.691.126-1.019-.07a1.067 1.067 0 0 1-.542-.866 1.07 1.07 0 0 1 .382-.947c.288-.25.618-.333.99-.247.373.085.633.304.783.655.15.352.126.691-.07 1.019-.197.327-.864.757-2.003 1.288-1.138.532-1.9.936-2.283 1.212-.384.276-.696.452-.936.529-.24.076-.479.074-.717-.005a1.134 1.134 0 0 1-.578-.425 1.134 1.134 0 0 1-.217-.684l1.601-1.814ZM15.8 5.738a48205.771 48205.771 0 0 0 2.02.12l1.657.284a21.04 21.04 0 0 1 3.252.83c1.064.363 2.192.87 3.383 1.52 1.191.651 1.908 1.125 2.15 1.421.242.297.314.63.216 1a1.07 1.07 0 0 1-.682.763 1.07 1.07 0 0 1-1.017-.103 1.069 1.069 0 0 1-.515-.884 1.07 1.07 0 0 1 .412-.936 1.07 1.07 0 0 1 1-.217c.37.098.625.325.763.682a1.07 1.07 0 0 1-.103 1.018 1.069 1.069 0 0 1-.884.515c-.382.021-1.145-.285-2.288-.92-1.143-.635-2.19-1.121-3.14-1.458a19.047 19.047 0 0 0-2.892-.779c-.978-.182-1.768-.298-2.37-.348a15.778 15.778 0 0 0-1.695-.055c-.527.013-.91-.017-1.15-.088a1.13 1.13 0 0 1-.59-.407 1.13 1.13 0 0 1-.236-.674c-.006-.251.062-.48.204-.686l2.505-.598ZM2.925 9.039l.547-.406.547-.407 1.028-.613c.686-.409 1.218-.644 1.597-.706a1.07 1.07 0 0 1 .976.312c.272.27.38.594.321.973a1.071 1.071 0 0 1-.598.832c-.34.176-.682.178-1.025.005a1.071 1.071 0 0 1-.606-.826 1.071 1.071 0 0 1 .312-.976c.27-.273.594-.38.973-.322.379.058.656.258.832.598.176.341.177.683.005 1.025-.172.343-.605.714-1.297 1.114-.692.4-1.212.718-1.561.953-.35.236-.701.495-1.056.78-.355.284-.65.47-.886.56-.235.088-.474.1-.717.033a1.134 1.134 0 0 1-.6-.395 1.135 1.135 0 0 1-.254-.673l1.462-1.86Zm8.41 9.542.446-.227.446-.227.494-.182c.33-.122.714-.223 1.153-.306.44-.082 1.372-.027 2.798.163 1.425.191 2.325.387 2.699.588.374.2.59.511.648.932.057.42-.067.778-.374 1.072a1.186 1.186 0 0 1-1.087.328 1.186 1.186 0 0 1-.904-.687 1.187 1.187 0 0 1 .024-1.135c.201-.374.512-.59.933-.647.42-.058.778.067 1.072.373.293.307.403.669.327 1.087-.075.418-.304.72-.686.904-.383.185-1.3.165-2.753-.059s-2.453-.267-2.999-.13c-.545.138-.965.288-1.258.452a4.084 4.084 0 0 1-.808.356 1.167 1.167 0 0 1-.734-.018 1.158 1.158 0 0 1-.582-.445 1.158 1.158 0 0 1-.21-.703l1.355-1.489Zm3.671 5.274.345.112.344.112.213.293c.142.196.213.414.213.656 0 .242-.07.46-.213.655-.142.196-.327.33-.557.406a1.1 1.1 0 0 1-.69 0 1.089 1.089 0 0 1-.557-.405 1.089 1.089 0 0 1-.213-.656c0-.242.071-.46.213-.655l.902-.518Z" fill="currentColor" stroke="currentColor" stroke-width="2" stroke-linecap="round" stroke-linejoin="round"/></svg>