<svg width="30" height="30" fill="none" xmlns="http://www.w3.org/2000/svg"><path d="m10.553 5.115.442-.275.443-.275.53-.145a3.651 3.651 0 0 1 1.086-.127c.371.012.756.102 1.156.27.4.168.82.47 1.263.906.443.436.756.956.94 1.558.184.603.214 1.216.088 1.841a3.747 3.747 0 0 1-.806 1.68c-.411.495-1.009.86-1.793 1.096-.784.236-1.827.334-3.13.295-1.304-.04-2.916-.148-4.837-.326-1.921-.178-2.943-.35-3.065-.518a.934.934 0 0 1-.183-.563c0-.207.061-.394.183-.562.122-.168.57.216 1.345 1.151s2.416 2.922 4.925 5.961a834.956 834.956 0 0 0 4.786 5.766c.681.805 1.288 1.332 1.82 1.581.53.25 1.013.19 1.447-.18.434-.369.529-.812.285-1.33-.243-.518-.785-.838-1.625-.959-.84-.12-1.818-.227-2.934-.319a499.061 499.061 0 0 0-5.288-.392c-2.41-.17-3.65-.302-3.718-.397a.53.53 0 0 1-.104-.32.53.53 0 0 1 .104-.319c.069-.095.633-.463 1.693-1.104 1.06-.64 3.316-2.01 6.772-4.107a682.22 682.22 0 0 0 6.656-4.07c.982-.616 1.787-1.078 2.415-1.385a4.638 4.638 0 0 1 1.976-.478 4.055 4.055 0 0 1 1.94.442c.604.308 1.07.727 1.4 1.259.33.53.509 1.122.538 1.774a3.8 3.8 0 0 1-.404 1.884c-.3.604-.793 1.103-1.482 1.496-.688.393-1.665.623-2.93.691-1.265.068-2.712.018-4.34-.149-1.629-.167-4.119-.286-7.47-.358-3.351-.071-5.09-.139-5.216-.203a.396.396 0 0 1-.223-.307.396.396 0 0 1 .117-.36c.1-.101.22-.14.36-.118.14.022.243.096.307.223a.396.396 0 0 1 0 .379.396.396 0 0 1-.306.223.396.396 0 0 1-.361-.117c-.1-.1-.14-.22-.117-.36a.396.396 0 0 1 .223-.308c.126-.064 1.865-.132 5.216-.204 3.351-.072 5.84-.192 7.466-.36a52.253 52.253 0 0 0 4.245-.59c1.204-.227 2-.617 2.387-1.17.388-.554.459-1.107.213-1.658-.246-.551-.67-.888-1.27-1.01-.602-.123-1.207-.046-1.816.23-.608.274-1.401.72-2.38 1.335-.98.614-3.258 1.986-6.837 4.115a4870.016 4870.016 0 0 1-7.018 4.17c-1.1.651-1.685.929-1.754.834a.53.53 0 0 1-.104-.32.53.53 0 0 1 .104-.319c.069-.095 1.309-.228 3.719-.397 2.41-.17 4.174-.3 5.292-.39a17.425 17.425 0 0 1 3.087 0c.94.09 1.71.343 2.311.756.6.413 1.009.934 1.223 1.561.215.627.236 1.245.063 1.854a2.72 2.72 0 0 1-1.062 1.493 3.208 3.208 0 0 1-1.8.617 2.86 2.86 0 0 1-1.78-.504c-.52-.361-1.118-.949-1.791-1.763a3907.012 3907.012 0 0 0-9.052-10.822c-.713-.848-1.131-1.355-1.253-1.523a.934.934 0 0 1-.183-.563c0-.207.061-.394.183-.562.122-.168 1.143-.34 3.064-.519 1.921-.178 3.496-.335 4.724-.471 1.229-.136 1.936-.448 2.122-.934.185-.486.133-.784-.157-.895-.29-.111-.495-.13-.616-.056-.121.073-.3.16-.534.26a1.15 1.15 0 0 1-.727.066 1.153 1.153 0 0 1-.627-.374 1.153 1.153 0 0 1-.287-.67l.72-1.262Z" fill="currentColor"/><path d="M2.87 11.095c.122.168 1.144.34 3.065.518s3.533.287 4.837.326c1.303.039 2.346-.06 3.13-.295.784-.236 1.382-.601 1.793-1.096.411-.495.68-1.055.806-1.68a3.702 3.702 0 0 0-.088-1.84 3.65 3.65 0 0 0-.94-1.559c-.442-.436-.864-.738-1.263-.906a3.248 3.248 0 0 0-1.156-.27c-.37-.012-.733.03-1.086.127l-.53.145-.443.275-.442.275-.721 1.261c.023.255.118.479.287.671.168.193.377.318.627.375.249.056.491.034.726-.066.236-.101.414-.188.535-.261.12-.074.326-.055.616.056.29.11.342.409.157.895-.186.486-.893.798-2.121.934-1.23.136-2.804.293-4.725.471-1.92.178-2.942.351-3.064.519m0 1.125a.934.934 0 0 1-.183-.563c0-.207.061-.394.183-.562m0 1.125c.122.168.54.675 1.253 1.523a3907.012 3907.012 0 0 1 9.052 10.822c.673.814 1.27 1.402 1.792 1.763a2.86 2.86 0 0 0 1.779.504 3.208 3.208 0 0 0 1.8-.617 2.72 2.72 0 0 0 1.062-1.493 3.038 3.038 0 0 0-.063-1.854c-.215-.627-.622-1.148-1.223-1.561-.6-.413-1.371-.665-2.311-.757-.94-.09-1.97-.09-3.087 0a521.02 521.02 0 0 1-5.292.391c-2.41.17-3.65.302-3.72.397M2.87 9.97c.122-.168.57.216 1.345 1.151s2.416 2.922 4.925 5.961a834.956 834.956 0 0 0 4.786 5.766c.681.805 1.288 1.332 1.82 1.581.53.25 1.013.19 1.447-.18.434-.369.529-.812.285-1.33-.243-.518-.785-.838-1.625-.959-.84-.12-1.818-.227-2.934-.319a499.061 499.061 0 0 0-5.288-.392c-2.41-.17-3.65-.302-3.718-.397m0 0a.53.53 0 0 1-.104-.32.53.53 0 0 1 .104-.319m0 .639c.069.095.654-.183 1.754-.834 1.1-.652 3.44-2.042 7.018-4.17 3.579-2.129 5.858-3.5 6.837-4.116.979-.614 1.772-1.06 2.38-1.335.609-.275 1.213-.352 1.815-.23.602.123 1.025.46 1.271 1.011.246.551.175 1.104-.213 1.657-.387.554-1.183.944-2.387 1.17a52.253 52.253 0 0 1-4.245.592c-1.626.167-4.115.287-7.466.359-3.351.072-5.09.14-5.216.204a.396.396 0 0 0-.223.307c-.022.14.017.26.117.36.1.101.22.14.36.118a.396.396 0 0 0 .307-.223.396.396 0 0 0 0-.38.396.396 0 0 0-.306-.222.396.396 0 0 0-.361.117c-.1.1-.14.22-.117.36.022.14.096.243.223.308.126.064 1.865.132 5.216.204 3.351.071 5.841.19 7.47.357 1.628.167 3.075.216 4.34.149 1.265-.068 2.242-.298 2.93-.69.689-.394 1.183-.893 1.482-1.497a3.8 3.8 0 0 0 .404-1.884 3.622 3.622 0 0 0-.538-1.774c-.33-.532-.796-.951-1.4-1.259a4.055 4.055 0 0 0-1.94-.442 4.638 4.638 0 0 0-1.976.478c-.628.307-1.433.769-2.415 1.385-.982.617-3.201 1.974-6.656 4.07a6950.606 6950.606 0 0 1-6.772 4.107c-1.06.64-1.624 1.009-1.693 1.104" stroke="currentColor" stroke-width="2" stroke-linecap="round" stroke-linejoin="round"/></svg>