<svg width="30" height="30" fill="none" xmlns="http://www.w3.org/2000/svg"><path d="m27.199 18.99-.98 1.667-.979 1.668-1.402 1.367a13.253 13.253 0 0 1-3.152 2.28 12.767 12.767 0 0 1-3.73 1.255c-1.319.23-2.639.257-3.96.081a12.498 12.498 0 0 1-3.744-1.103 12.306 12.306 0 0 1-5.523-5.213 12.315 12.315 0 0 1-1.307-3.68 12.514 12.514 0 0 1-.108-3.946 12.403 12.403 0 0 1 3.267-6.918 12.314 12.314 0 0 1 6.725-3.656 12.53 12.53 0 0 1 3.946-.107c1.32.172 2.567.538 3.743 1.098 1.176.559 2.487 1.672 3.932 3.34 1.446 1.667 2.198 2.566 2.255 2.695a.4.4 0 0 1-.021.38.396.396 0 0 1-.319.205.396.396 0 0 1-.353-.137.396.396 0 0 1-.098-.367.396.396 0 0 1 .24-.294.396.396 0 0 1 .379.021.396.396 0 0 1 .205.319.396.396 0 0 1-.137.353.396.396 0 0 1-.366.098c-.139-.03-.901-.862-2.287-2.494-1.386-1.633-2.622-2.715-3.707-3.246a11.493 11.493 0 0 0-3.46-1.056 11.614 11.614 0 0 0-3.661.06 11.412 11.412 0 0 0-6.27 3.32 11.498 11.498 0 0 0-3.097 6.38 11.614 11.614 0 0 0 .06 3.661 11.412 11.412 0 0 0 3.32 6.27 11.422 11.422 0 0 0 6.38 3.094c1.222.17 2.437.143 3.646-.083a11.147 11.147 0 0 0 3.381-1.21c1.045-.58 1.963-1.3 2.753-2.157.79-.858 1.42-1.798 1.89-2.82.472-1.022.848-2.166 1.128-3.43.28-1.263.47-1.979.567-2.145a.87.87 0 0 1 .414-.365.871.871 0 0 1 .55-.052.871.871 0 0 1 .474.28l-.594 4.587Z" fill="currentColor" stroke="currentColor" stroke-width="2" stroke-linecap="round" stroke-linejoin="round"/><path d="m17.815 13.895-.86.809-.859.809-1.761 1.683c-1.175 1.123-1.91 1.732-2.204 1.827a.864.864 0 0 1-.816-.13.864.864 0 0 1-.375-.736c0-.309.125-.555.375-.736a.864.864 0 0 1 .817-.13c.294.096.489.29.584.585a.864.864 0 0 1-.13.816.864.864 0 0 1-.736.376.864.864 0 0 1-.736-.376.864.864 0 0 1-.13-.816c.096-.294.705-1.029 1.827-2.203a539.676 539.676 0 0 0 2.493-2.621c.54-.573.97-1.021 1.294-1.345.323-.323.596-.541.817-.654.22-.113.454-.15.698-.11.245.038.456.145.63.32.176.176.283.386.322.631l-1.25 2Z" fill="currentColor" stroke="currentColor" stroke-width="2" stroke-linecap="round" stroke-linejoin="round"/><path d="m13.895 12.185.809.86.809.859 1.683 1.761c1.123 1.175 1.732 1.91 1.827 2.204a.864.864 0 0 1-.13.816.864.864 0 0 1-.736.375.864.864 0 0 1-.736-.375.864.864 0 0 1-.13-.816.864.864 0 0 1 .585-.585.864.864 0 0 1 .816.13c.25.181.376.427.376.736a.86.86 0 0 1-.376.736.864.864 0 0 1-.816.13c-.294-.096-1.029-.705-2.203-1.827a528.98 528.98 0 0 0-2.621-2.493c-.573-.54-1.021-.97-1.345-1.294-.323-.323-.541-.596-.654-.817a1.117 1.117 0 0 1-.11-.698c.038-.245.145-.456.32-.63a1.12 1.12 0 0 1 .631-.322l2 1.25Z" fill="currentColor" stroke="currentColor" stroke-width="2" stroke-linecap="round" stroke-linejoin="round"/></svg>