<svg width="30" height="30" fill="none" xmlns="http://www.w3.org/2000/svg"><g clip-path="url(#a)" fill="currentColor" stroke="currentColor" stroke-width="2" stroke-linecap="round" stroke-linejoin="round"><path d="m11.162 1.389 1.151.032 1.152.031 1.39.058c.926.039 1.843.09 2.75.154a11.28 11.28 0 0 1 2.701.532c.894.291 1.643.73 2.248 1.32a66.16 66.16 0 0 1 1.877 1.906c.645.682 1.27 1.365 1.871 2.048a11.11 11.11 0 0 1 1.546 2.272c.428.833.65 1.67.663 2.512.014.843.01 1.733-.014 2.67a76.046 76.046 0 0 1-.12 2.77 11.054 11.054 0 0 1-.512 2.698c-.285.89-.72 1.638-1.306 2.244a64.096 64.096 0 0 1-1.9 1.88 76.03 76.03 0 0 1-2.043 1.875 11.07 11.07 0 0 1-2.27 1.548c-.83.428-1.667.65-2.509.664-.842.014-1.732.01-2.67-.013a75.397 75.397 0 0 1-2.769-.119 11.044 11.044 0 0 1-2.697-.51c-.89-.286-1.639-.721-2.245-1.307a63.98 63.98 0 0 1-1.88-1.899 76.101 76.101 0 0 1-1.875-2.043 11.064 11.064 0 0 1-1.547-2.27c-.429-.83-.65-1.666-.665-2.509a63.82 63.82 0 0 1 .013-2.67c.024-.938.063-1.86.119-2.769.056-.908.226-1.807.511-2.697.285-.89.72-1.639 1.306-2.245.586-.606 1.45-1.467 2.595-2.583 1.144-1.116 1.855-1.72 2.135-1.813a.822.822 0 0 1 .777.119c.24.172.36.405.362.699a.822.822 0 0 1-.354.703.822.822 0 0 1-.776.127.822.822 0 0 1-.56-.553.822.822 0 0 1 .12-.777.822.822 0 0 1 .698-.362.822.822 0 0 1 .703.354.822.822 0 0 1 .128.776c-.09.28-.684.992-1.783 2.134a420.57 420.57 0 0 0-2.4 2.509c-.5.53-.876 1.084-1.127 1.662-.251.578-.396 1.272-.433 2.083-.037.812-.04 1.68-.007 2.603.032.925.058 1.75.079 2.479.02.728.146 1.385.378 1.971.231.587.62 1.18 1.169 1.78.547.6 1.16 1.217 1.837 1.848.676.631 1.28 1.197 1.81 1.698.53.5 1.084.876 1.662 1.127.578.252 1.272.396 2.083.433.812.037 1.68.04 2.603.008.925-.033 1.75-.059 2.479-.08.728-.02 1.385-.146 1.971-.378.587-.231 1.18-.62 1.78-1.169.6-.548 1.216-1.16 1.848-1.837.63-.677 1.197-1.28 1.697-1.81s.876-1.084 1.127-1.662c.251-.578.395-1.272.432-2.083.037-.811.039-1.68.006-2.603-.032-.925-.059-1.75-.08-2.478-.021-.728-.148-1.384-.38-1.97-.231-.584-.621-1.176-1.17-1.776a32.13 32.13 0 0 0-1.84-1.843c-.679-.63-1.283-1.193-1.814-1.69-.531-.498-1.084-.87-1.658-1.116-.574-.246-1.266-.384-2.076-.415a32.7 32.7 0 0 0-2.604.011c-.927.039-1.774.068-2.542.09-.767.02-1.374.031-1.82.031-.447 0-.788-.038-1.024-.115a1.119 1.119 0 0 1-.573-.416 1.119 1.119 0 0 1-.22-.674c0-.248.074-.473.22-.674l2.266-.531Z"/><path d="m17.815 13.895-.86.809-.859.809-1.761 1.683c-1.175 1.123-1.91 1.732-2.204 1.827a.864.864 0 0 1-.816-.13.864.864 0 0 1-.375-.736c0-.309.125-.555.375-.736a.864.864 0 0 1 .817-.13c.294.096.489.29.584.585a.864.864 0 0 1-.13.816.864.864 0 0 1-.736.376.864.864 0 0 1-.736-.376.864.864 0 0 1-.13-.816c.096-.294.705-1.029 1.827-2.203a539.676 539.676 0 0 0 2.493-2.621c.54-.573.97-1.021 1.294-1.345.323-.323.596-.541.817-.654.22-.113.454-.15.698-.11.245.038.456.145.63.32.176.176.283.386.322.631l-1.25 2Z"/><path d="m13.895 12.185.809.86.809.859 1.683 1.761c1.123 1.175 1.732 1.91 1.827 2.204a.864.864 0 0 1-.13.816.864.864 0 0 1-.736.375.864.864 0 0 1-.736-.375.864.864 0 0 1-.13-.816.864.864 0 0 1 .585-.585.864.864 0 0 1 .816.13c.25.181.376.427.376.736a.86.86 0 0 1-.376.736.864.864 0 0 1-.816.13c-.294-.096-1.029-.705-2.203-1.827a528.98 528.98 0 0 0-2.621-2.493c-.573-.54-1.021-.97-1.345-1.294-.323-.323-.541-.596-.654-.817a1.117 1.117 0 0 1-.11-.698c.038-.245.145-.456.32-.63a1.12 1.12 0 0 1 .631-.322l2 1.25Z"/></g><defs><clipPath id="a"><path fill="#fff" d="M0 0h30v30H0z"/></clipPath></defs></svg>