<svg width="30" height="30" fill="none" xmlns="http://www.w3.org/2000/svg"><path d="M8.511 2.735a1624437.897 1624437.897 0 0 0 3.894.345l2.35.151c1.567.101 3.01.15 4.33.147l3.195-.008c.812-.002 1.57.077 2.274.238.705.16 1.273.524 1.703 1.09.43.567.7 1.35.81 2.35.11 1 .12 2.158.028 3.477a246.02 246.02 0 0 0-.259 4.334 78.949 78.949 0 0 0-.113 4.336c.005 1.32.007 2.386.006 3.197a10.377 10.377 0 0 1-.24 2.273 2.861 2.861 0 0 1-1.086 1.7c-.565.429-1.347.699-2.345.809-.998.11-2.157.12-3.476.03a249.58 249.58 0 0 0-4.333-.256 79.888 79.888 0 0 0-4.337-.112c-1.32.005-2.385.007-3.197.005a10.388 10.388 0 0 1-2.272-.24 2.86 2.86 0 0 1-1.7-1.085c-.429-.565-.699-1.347-.809-2.345-.11-.998-.12-2.157-.03-3.475.09-1.319.175-2.763.255-4.334a79.8 79.8 0 0 0 .113-4.336c-.005-1.32-.01-2.378-.012-3.171-.002-.794.185-1.625.564-2.493.378-.868.635-1.412.77-1.633a.724.724 0 0 1 .592-.363.724.724 0 0 1 .64.266.724.724 0 0 1 .162.674.724.724 0 0 1-.45.527.726.726 0 0 1-.691-.055.724.724 0 0 1-.362-.59.724.724 0 0 1 .265-.641.724.724 0 0 1 .674-.162c.252.06.428.21.527.45.099.24-.13.776-.686 1.61-.556.833-.867 1.641-.934 2.425-.067.783-.103 1.835-.107 3.155-.005 1.32.034 2.765.115 4.335.082 1.569.171 3.005.268 4.307.097 1.303.176 2.393.236 3.271.06.878.36 1.539.898 1.981.538.443 1.204.713 1.999.811.795.098 1.852.15 3.172.154a77.89 77.89 0 0 0 4.334-.116c1.57-.081 3.006-.17 4.308-.268a578.7 578.7 0 0 1 3.27-.236c.879-.06 1.54-.36 1.982-.898.443-.537.713-1.204.81-1.998.099-.795.15-1.853.155-3.173a77.76 77.76 0 0 0-.117-4.334c-.083-1.57-.173-3.005-.271-4.308a543.86 543.86 0 0 1-.238-3.267c-.061-.876-.36-1.534-.896-1.975-.536-.44-1.201-.71-1.995-.812-.794-.1-1.85-.153-3.17-.156a65.296 65.296 0 0 0-4.33.147c-1.566.1-2.998.208-4.296.323-1.298.115-2.324.173-3.079.173-.754 0-1.242-.036-1.462-.108a1.045 1.045 0 0 1-.535-.389 1.045 1.045 0 0 1-.205-.629c0-.231.068-.441.205-.629l3.13-.496Z" fill="currentColor" stroke="currentColor" stroke-width="2" stroke-linecap="round" stroke-linejoin="round"/><path d="m13.895 12.185.809.86.809.859 1.683 1.761c1.123 1.175 1.732 1.91 1.827 2.204a.864.864 0 0 1-.13.816.864.864 0 0 1-.736.375.864.864 0 0 1-.736-.375.864.864 0 0 1-.13-.816.864.864 0 0 1 .585-.585.864.864 0 0 1 .816.13c.25.181.376.427.376.736a.86.86 0 0 1-.376.736.864.864 0 0 1-.816.13c-.294-.096-1.029-.705-2.203-1.827a528.98 528.98 0 0 0-2.621-2.493c-.573-.54-1.021-.97-1.345-1.294-.323-.323-.541-.596-.654-.817a1.117 1.117 0 0 1-.11-.698c.038-.245.145-.456.32-.63a1.12 1.12 0 0 1 .631-.322l2 1.25Z" fill="currentColor" stroke="currentColor" stroke-width="2" stroke-linecap="round" stroke-linejoin="round"/><path d="m17.815 13.895-.86.809-.859.809-1.761 1.683c-1.175 1.123-1.91 1.732-2.204 1.827a.864.864 0 0 1-.816-.13.864.864 0 0 1-.375-.736c0-.309.125-.555.375-.736a.864.864 0 0 1 .817-.13c.294.096.489.29.584.585a.864.864 0 0 1-.13.816.864.864 0 0 1-.736.376.864.864 0 0 1-.736-.376.864.864 0 0 1-.13-.816c.096-.294.705-1.029 1.827-2.203a539.676 539.676 0 0 0 2.493-2.621c.54-.573.97-1.021 1.294-1.345.323-.323.596-.541.817-.654.22-.113.454-.15.698-.11.245.038.456.145.63.32.176.176.283.386.322.631l-1.25 2Z" fill="currentColor" stroke="currentColor" stroke-width="2" stroke-linecap="round" stroke-linejoin="round"/></svg>