<svg width="30" height="30" fill="none" xmlns="http://www.w3.org/2000/svg"><path d="m19.608 11.914-1.816 1.52-1.817 1.522-3.51 3.38c-2.34 2.253-3.578 3.401-3.713 3.445a.396.396 0 0 1-.375-.06.396.396 0 0 1-.172-.337c0-.142.057-.254.172-.338a.396.396 0 0 1 .375-.06.397.397 0 0 1 .268.269.396.396 0 0 1-.06.375.396.396 0 0 1-.337.172.396.396 0 0 1-.338-.172.396.396 0 0 1-.06-.375c.044-.135 1.193-1.373 3.446-3.713s3.887-4.116 4.9-5.327c1.015-1.21 1.845-2.14 2.492-2.786.647-.647 1.069-1.02 1.265-1.121a.995.995 0 0 1 .622-.099c.218.035.405.13.561.286a.994.994 0 0 1 .286.561l-2.19 2.858Z" fill="currentColor" stroke="currentColor" stroke-width="2" stroke-linecap="round" stroke-linejoin="round"/><path d="M11.914 10.392a19347.343 19347.343 0 0 0 3.042 3.633l3.38 3.51c2.253 2.34 3.401 3.578 3.445 3.713a.396.396 0 0 1-.06.375.396.396 0 0 1-.337.172.397.397 0 0 1-.338-.172.396.396 0 0 1-.06-.375.396.396 0 0 1 .269-.268.396.396 0 0 1 .375.06.396.396 0 0 1 .172.337.396.396 0 0 1-.172.338.396.396 0 0 1-.375.06c-.135-.044-1.373-1.193-3.713-3.446s-4.116-3.887-5.327-4.9c-1.21-1.015-2.14-1.845-2.787-2.492-.646-.647-1.02-1.069-1.12-1.265a.995.995 0 0 1-.099-.622.995.995 0 0 1 .286-.561.995.995 0 0 1 .561-.286l2.858 2.19Z" fill="currentColor" stroke="currentColor" stroke-width="2" stroke-linecap="round" stroke-linejoin="round"/></svg>