<svg width="30" height="30" fill="none" xmlns="http://www.w3.org/2000/svg"><g clip-path="url(#a)"><path d="m26.808 7.915-.342-.344-.342-.344-.825-.243c-.55-.162-1.388-.312-2.517-.45a69.517 69.517 0 0 0-3.01-.31 40.115 40.115 0 0 0-2.485-.12 44.67 44.67 0 0 0-2.258.02c-.726.026-1.44.04-2.14.043-.7.003-1.491.004-2.373.003-.883 0-1.75.018-2.601.057-.852.039-1.606.134-2.262.286a3.203 3.203 0 0 0-1.675.982c-.46.503-.773 1.228-.937 2.176a23.945 23.945 0 0 0-.322 2.693 38.539 38.539 0 0 0 .044 5.133c.065.856.196 1.667.392 2.433a2.97 2.97 0 0 0 1.274 1.798c.653.432 1.564.736 2.735.912a52.91 52.91 0 0 0 3.069.382c.876.078 1.703.126 2.481.143.779.018 1.53.015 2.256-.007a72.33 72.33 0 0 1 2.138-.036c.7-.001 1.492 0 2.374.002a55.4 55.4 0 0 0 2.6-.053 12.597 12.597 0 0 0 2.262-.283 3.2 3.2 0 0 0 1.674-.978c.46-.5.771-1.222.935-2.163.165-.942.272-1.833.322-2.675a38.323 38.323 0 0 0-.316-7.637c-.116-.81-.093-1.41.07-1.798.163-.39.45-.632.86-.728a1.177 1.177 0 0 1 1.096.268c.32.275.462.623.426 1.043-.035.42-.232.74-.593.959a1.18 1.18 0 0 1-1.124.083 1.178 1.178 0 0 1-.729-.86 1.178 1.178 0 0 1 .269-1.096 1.178 1.178 0 0 1 1.043-.426c.42.035.74.233.959.593.218.36.399 1.175.54 2.442a44.93 44.93 0 0 1 .263 3.275c.033.916.035 1.83.007 2.742-.029.911-.09 1.811-.183 2.7a13.469 13.469 0 0 1-.544 2.626c-.27.862-.635 1.559-1.098 2.09a3.858 3.858 0 0 1-1.632 1.129 9.972 9.972 0 0 1-2.016.479c-.717.096-1.513.183-2.387.26-.874.075-1.757.145-2.65.207-.895.063-1.696.105-2.407.128-.71.023-1.435.02-2.174-.006a103.94 103.94 0 0 0-2.299-.058 86.594 86.594 0 0 0-2.549.002c-.906.013-1.8.019-2.683.016a17.438 17.438 0 0 1-2.515-.182c-.793-.119-1.487-.35-2.08-.693a4.342 4.342 0 0 1-1.466-1.384 6.002 6.002 0 0 1-.826-1.885 17.237 17.237 0 0 1-.388-2.313 40.969 40.969 0 0 1-.196-5.433c.029-.917.09-1.823.182-2.718.093-.895.275-1.775.545-2.64.27-.867.636-1.565 1.098-2.095a3.852 3.852 0 0 1 1.632-1.13 9.948 9.948 0 0 1 2.015-.477 51.301 51.301 0 0 1 2.387-.257c.874-.075 1.757-.143 2.65-.204a63.49 63.49 0 0 1 2.406-.123c.71-.02 1.435-.017 2.173.013a92.36 92.36 0 0 0 4.842.073c.904-.009 2.024.026 3.36.104 1.336.077 2.302.187 2.897.328.595.141 1.028.31 1.299.505.27.196.517.417.738.664.22.246.428.562.623.947.195.385.33.663.404.836.075.172.116.383.125.633.01.25-.056.48-.196.687-.14.208-.328.355-.563.44a1.129 1.129 0 0 1-.714.026l-1.049-1.212Z" fill="currentColor" stroke="currentColor" stroke-width="2" stroke-linecap="round" stroke-linejoin="round"/><path d="m12.7 17.055.802-.45.802-.451.977-.528a84.073 84.073 0 0 1 2.523-1.295c1.03-.51 1.657-.716 1.88-.615.222.101.394.258.515.47.12.212.167.44.14.683-.027.242-.138.353-.333.33-.194-.023-.708-.138-1.541-.347-.833-.209-1.698-.569-2.595-1.08a58.419 58.419 0 0 1-2.79-1.7c-.963-.621-1.457-1.053-1.484-1.294-.026-.24.02-.467.14-.677.121-.21.292-.366.513-.465.22-.1.37-.06.447.12.077.178.232.678.465 1.499.232.82.35 2 .352 3.54.002 1.539-.077 2.462-.236 2.77a.968.968 0 0 1-.753.539.967.967 0 0 1-.879-.293.968.968 0 0 1-.28-.882.968.968 0 0 1 .55-.745.967.967 0 0 1 .926.006.97.97 0 0 1 .539.753.967.967 0 0 1-.293.879.967.967 0 0 1-.882.28.967.967 0 0 1-.745-.55c-.156-.31-.182-1.295-.08-2.955.103-1.66.171-2.65.205-2.973a4.02 4.02 0 0 0 .011-.846c-.026-.24.02-.467.14-.677.121-.21.292-.366.513-.465.22-.1.845.107 1.873.621a25.479 25.479 0 0 1 2.981 1.755c.96.655 1.575 1.078 1.844 1.268.268.19.514.335.737.436.222.101.394.258.515.47.12.212.167.44.14.683-.027.242-.523.676-1.49 1.3a83.676 83.676 0 0 1-4.152 2.536c-.532.306-.952.547-1.262.723a2.93 2.93 0 0 1-.832.34c-.245.05-.481.024-.709-.08a1.127 1.127 0 0 1-.527-.48 1.126 1.126 0 0 1-.144-.698l1.477-1.455Z" fill="currentColor"/><path d="M19.684 13.716c-.223-.1-.85.104-1.88.615a85.05 85.05 0 0 0-2.523 1.295l-.977.528-.802.45-.802.45-1.476 1.456c-.028.248.02.481.143.698.124.218.3.378.527.48.228.104.464.13.709.08a2.93 2.93 0 0 0 .832-.34c.31-.176.73-.417 1.262-.723a83.676 83.676 0 0 0 4.153-2.535c.966-.625 1.462-1.059 1.49-1.301m-.656-1.153c.222.101.394.258.515.47.12.212.167.44.14.683m-.655-1.153a4.593 4.593 0 0 1-.737-.436c-.27-.19-.884-.613-1.844-1.268a25.479 25.479 0 0 0-2.98-1.755c-1.029-.514-1.653-.721-1.874-.621a1.09 1.09 0 0 0-.512.465c-.12.21-.167.436-.14.677m8.087 2.938c.222.101.394.258.515.47.12.212.167.44.14.683m0 0c-.027.242-.138.353-.333.33-.194-.023-.708-.138-1.541-.347-.833-.209-1.698-.569-2.595-1.08a58.419 58.419 0 0 1-2.79-1.7c-.963-.621-1.457-1.053-1.484-1.294m0 0c-.026-.24.02-.467.14-.677.121-.21.292-.366.513-.465.22-.1.37-.06.447.12.077.178.232.678.465 1.499.232.82.35 2 .352 3.54.002 1.539-.077 2.462-.236 2.77a.968.968 0 0 1-.753.539.967.967 0 0 1-.879-.293.968.968 0 0 1-.28-.882.968.968 0 0 1 .55-.745.967.967 0 0 1 .926.006.97.97 0 0 1 .539.753.967.967 0 0 1-.293.879.967.967 0 0 1-.882.28.967.967 0 0 1-.745-.55c-.156-.31-.182-1.295-.08-2.955.103-1.66.171-2.65.205-2.973a4.02 4.02 0 0 0 .011-.846Z" stroke="currentColor" stroke-width="2" stroke-linecap="round" stroke-linejoin="round"/></g><defs><clipPath id="a"><path fill="#fff" d="M0 0h30v30H0z"/></clipPath></defs></svg>