<svg width="30" height="30" fill="none" xmlns="http://www.w3.org/2000/svg"><path d="m14.199 7.416.069-.662.068-.662.366-2.148c.244-1.432.482-2.213.715-2.341.232-.129.48-.177.745-.144.263.033.492.14.686.321.195.182.256.35.185.504-.07.155-.499.852-1.285 2.09-.787 1.24-1.365 1.932-1.737 2.078a1.115 1.115 0 0 1-1.062-.103 1.115 1.115 0 0 1-.541-.92 1.115 1.115 0 0 1 .426-.978c.308-.253.655-.33 1.042-.23.386.1.652.336.798.707.146.372.112.726-.102 1.062a1.115 1.115 0 0 1-.92.541 1.115 1.115 0 0 1-.978-.425 1.115 1.115 0 0 1-.23-1.042c.1-.387.49-.954 1.174-1.704.683-.749 1.095-1.197 1.237-1.344.142-.147.33-.285.562-.413.232-.129.48-.177.745-.144.263.033.492.14.686.321.195.182.235.997.12 2.445-.113 1.449-.202 2.392-.266 2.832-.063.439-.11.786-.143 1.042-.032.256-.1.498-.206.724-.106.226-.269.4-.487.521-.22.12-.453.166-.7.135a1.127 1.127 0 0 1-.647-.302l-.32-1.76Z" fill="currentColor" stroke="currentColor" stroke-width="2" stroke-linecap="round" stroke-linejoin="round"/><path d="m22.074 14.935.324-.416.323-.417 1.23-1.334c.82-.889 1.366-1.324 1.637-1.306.272.018.512.115.72.29.21.173.347.393.414.656.066.264.011.44-.164.526-.176.087-.645.26-1.407.52-.761.26-1.777.388-3.046.386-1.27-.002-2.077-.096-2.421-.282a1.093 1.093 0 0 1-.595-.86 1.093 1.093 0 0 1 .347-.988c.284-.27.618-.37 1.003-.3.385.071.662.283.831.636.17.353.161.701-.025 1.046a1.094 1.094 0 0 1-.86.594 1.093 1.093 0 0 1-.988-.347 1.093 1.093 0 0 1-.299-1.002c.07-.385.282-.662.635-.832.353-.169 1.215-.23 2.586-.185 1.37.046 2.19.077 2.46.092.268.015.538.032.81.05.27.018.51.115.72.29.208.173.346.393.413.656.066.264-.265.879-.994 1.844-.729.965-1.21 1.58-1.445 1.841a24.79 24.79 0 0 0-.549.628 2.152 2.152 0 0 1-.513.434c-.21.133-.44.19-.69.174a1.123 1.123 0 0 1-.66-.265 1.123 1.123 0 0 1-.377-.602l.58-1.527Z" fill="currentColor"/><path d="M25.588 11.462c-.271-.018-.817.417-1.637 1.306l-1.23 1.334-.323.417-.324.416-.58 1.527c.06.242.187.442.378.602.191.16.411.248.66.265.248.017.478-.041.69-.174.21-.132.381-.277.512-.434.131-.157.314-.366.549-.628.234-.262.716-.876 1.445-1.84.729-.966 1.06-1.58.994-1.845a1.226 1.226 0 0 0-.413-.657 1.226 1.226 0 0 0-.72-.289Zm0 0c.272.018.512.115.72.29.21.173.347.393.414.656.066.264.011.44-.164.526-.176.087-.645.26-1.407.52-.761.26-1.777.388-3.046.386-1.27-.002-2.077-.096-2.421-.282a1.093 1.093 0 0 1-.595-.86 1.093 1.093 0 0 1 .347-.988c.284-.27.618-.37 1.003-.3.385.071.662.283.831.636.17.353.161.701-.025 1.046a1.094 1.094 0 0 1-.86.594 1.093 1.093 0 0 1-.988-.347 1.093 1.093 0 0 1-.299-1.002c.07-.385.282-.662.635-.832.353-.169 1.215-.23 2.586-.185 1.37.046 2.19.077 2.46.092.268.015.538.032.81.05Z" stroke="currentColor" stroke-width="2" stroke-linecap="round" stroke-linejoin="round"/><path d="m10.635 12.066-.713.819-.713.82-.876.976c-.584.651-1.314 1.455-2.19 2.412-.876.956-1.427 1.427-1.651 1.412a1.015 1.015 0 0 1-.597-.239 1.014 1.014 0 0 1-.342-.543c-.055-.219.006-.356.184-.412a27.48 27.48 0 0 1 1.303-.337 8.246 8.246 0 0 1 2.13-.228c.73.016 1.592.045 2.589.088l2.836.124c.894.04 1.638.243 2.231.612s.95 1.104 1.07 2.206c.121 1.102.118 2.104-.01 3.008-.126.904-.293 2.007-.5 3.31-.207 1.304-.403 2.008-.588 2.11a.954.954 0 0 1-.593.116.954.954 0 0 1-.547-.255c-.155-.145-.156-.336-.003-.575.152-.24.53-.8 1.133-1.682.603-.881 1.386-1.886 2.35-3.014.963-1.128 1.582-1.75 1.856-1.866a.832.832 0 0 1 .795.056c.255.154.395.38.421.676a.832.832 0 0 1-.3.738.832.832 0 0 1-.772.192.832.832 0 0 1-.61-.512.832.832 0 0 1 .057-.795.833.833 0 0 1 .676-.421.832.832 0 0 1 .738.299.834.834 0 0 1 .192.773c-.068.29-.576 1.012-1.525 2.167-.948 1.154-1.711 2.03-2.288 2.628-.577.598-.938.968-1.084 1.11a2.332 2.332 0 0 1-.496.365.954.954 0 0 1-.593.116.954.954 0 0 1-.547-.255c-.155-.145-.175-.873-.06-2.184.115-1.312.214-2.411.297-3.299.084-.887.05-1.677-.103-2.37-.152-.695-.614-1.114-1.387-1.26-.773-.144-1.665-.2-2.675-.165a24.8 24.8 0 0 1-2.882-.062 51.705 51.705 0 0 1-1.693-.155c-.217-.029-.439-.05-.663-.065a1.015 1.015 0 0 1-.597-.239 1.014 1.014 0 0 1-.342-.543c-.055-.219.309-.845 1.091-1.88a317.353 317.353 0 0 1 1.977-2.588c.536-.692 1.03-1.321 1.48-1.887.452-.566.813-1.011 1.082-1.335.27-.323.51-.551.72-.684.211-.132.44-.19.689-.174.248.017.468.105.66.264.19.16.317.36.378.601l-.995 2.026Z" fill="currentColor"/><path d="M14.798 28.204c.185-.102.381-.806.588-2.11.207-1.303.374-2.406.5-3.31.128-.904.131-1.906.01-3.008-.12-1.102-.477-1.837-1.07-2.206-.593-.369-1.337-.573-2.231-.612l-2.836-.124c-.997-.043-1.86-.072-2.588-.088a8.246 8.246 0 0 0-2.13.229 27.48 27.48 0 0 0-1.304.336c-.178.056-.24.193-.184.412.055.218.17.4.342.543.173.144.372.224.597.239.224.015.775-.456 1.65-1.412a315.474 315.474 0 0 0 3.067-3.389l.713-.82c.476-.545.713-.819.713-.819l.995-2.025a1.121 1.121 0 0 0-.379-.601 1.121 1.121 0 0 0-.659-.264 1.122 1.122 0 0 0-.688.174c-.211.133-.451.361-.72.684-.27.324-.63.769-1.082 1.335-.452.566-.945 1.195-1.48 1.887-.536.691-1.195 1.555-1.978 2.589-.782 1.034-1.146 1.66-1.09 1.879a1 1 0 0 0 .341.543c.173.144.372.224.597.239.224.015.446.036.663.065.218.028.782.08 1.693.155a24.8 24.8 0 0 0 2.882.062c1.01-.035 1.902.02 2.675.166.773.145 1.235.564 1.387 1.258.152.694.187 1.484.104 2.372-.084.887-.183 1.986-.298 3.298-.115 1.311-.095 2.04.06 2.184m1.14.14a.954.954 0 0 1-.593.115.954.954 0 0 1-.547-.255m1.14.14c.185-.103.35-.225.496-.367.146-.141.507-.511 1.084-1.11.577-.597 1.34-1.473 2.288-2.627.95-1.154 1.457-1.877 1.525-2.167a.832.832 0 0 0-.192-.773.832.832 0 0 0-.738-.3.833.833 0 0 0-.676.422.832.832 0 0 0-.057.795c.116.274.32.445.61.512.29.068.548.004.773-.192a.832.832 0 0 0 .3-.738.832.832 0 0 0-.422-.676.832.832 0 0 0-.795-.056c-.274.116-.893.738-1.857 1.866-.963 1.128-1.746 2.133-2.349 3.014-.603.882-.98 1.442-1.133 1.682-.153.239-.152.43.003.575" stroke="currentColor" stroke-width="2" stroke-linecap="round" stroke-linejoin="round"/><path d="M8.216 6.988a1620732.014 1620732.014 0 0 0 5.838 6.398l6.317 6.316c4.21 4.211 6.338 6.384 6.382 6.52a.396.396 0 0 1-.06.374.396.396 0 0 1-.337.172.397.397 0 0 1-.338-.172.396.396 0 0 1-.06-.375.396.396 0 0 1 .269-.268.396.396 0 0 1 .374.06.396.396 0 0 1 .172.337.396.396 0 0 1-.172.338.397.397 0 0 1-.374.06c-.135-.044-2.308-2.172-6.52-6.383-4.21-4.21-7.382-7.29-9.514-9.235C8.06 9.184 6.4 7.618 5.215 6.432c-1.186-1.186-1.82-1.858-1.9-2.017a.802.802 0 0 1-.08-.502.802.802 0 0 1 .23-.452.802.802 0 0 1 .454-.231l4.297 3.758Z" fill="currentColor" stroke="currentColor" stroke-width="2" stroke-linecap="round" stroke-linejoin="round"/></svg>