<svg width="30" height="30" fill="none" xmlns="http://www.w3.org/2000/svg"><path d="m15.474 5.421-1.54 1.544-1.54 1.544-1.77 1.939a177.197 177.197 0 0 0-3.183 3.574c-.942 1.09-1.538 1.848-1.787 2.272-.249.423.042.657.872.7.83.044 1.74.065 2.731.065.992 0 1.93.007 2.818.019.887.012 1.618.19 2.194.534.576.344.924 1.058 1.046 2.143.121 1.084.122 2.078.003 2.982a162.9 162.9 0 0 1-.477 3.305c-.199 1.3-.389 2-.57 2.1a.931.931 0 0 1-.579.113.932.932 0 0 1-.534-.25c-.151-.14-.18-.297-.084-.468.096-.171.399-.627.909-1.365.51-.74 1.25-1.61 2.222-2.61.97-1 2.037-2.15 3.2-3.449a285.463 285.463 0 0 0 3.155-3.58c.942-1.089 1.537-1.845 1.786-2.27.249-.423-.041-.658-.872-.703a50.2 50.2 0 0 0-2.731-.066c-.991.001-1.93-.004-2.817-.016-.888-.011-1.619-.189-2.194-.533-.575-.343-.924-1.057-1.045-2.141-.122-1.084-.084-2.395.112-3.935.196-1.539.372-2.426.528-2.66a.785.785 0 0 1 .655-.368.785.785 0 0 1 .683.312c.174.22.224.466.148.737a.785.785 0 0 1-.509.553.785.785 0 0 1-.746-.087.785.785 0 0 1-.369-.654.785.785 0 0 1 .313-.683.785.785 0 0 1 .737-.149c.27.076.455.246.553.509.098.263.062 1.157-.108 2.68-.17 1.523-.17 2.65-.003 3.382.168.731.642 1.188 1.42 1.369.778.18 1.672.28 2.68.3 1.009.018 2.011.174 3.007.466.997.292 1.396.812 1.2 1.56-.196.748-.766 1.707-1.708 2.877a330.815 330.815 0 0 0-3.027 3.818 419.809 419.809 0 0 1-3.25 4.107 608.248 608.248 0 0 1-2.05 2.549c-.273.336-.5.555-.682.655a.931.931 0 0 1-.579.113.932.932 0 0 1-.534-.25c-.151-.14-.166-.864-.044-2.17.121-1.306.227-2.403.319-3.29.091-.887.053-1.695-.115-2.426-.168-.73-.64-1.186-1.42-1.367-.777-.18-1.67-.28-2.68-.297a11.28 11.28 0 0 1-3.007-.468c-.996-.294-1.396-.816-1.199-1.564.197-.749.766-1.709 1.708-2.88a174.797 174.797 0 0 0 3.002-3.847 109.072 109.072 0 0 0 2.829-3.884c.827-1.195 1.51-2.116 2.05-2.763.538-.647.903-1.03 1.094-1.15.191-.121.4-.174.624-.159.225.015.425.095.598.24.173.144.287.325.343.544l-1.786 2.897Z" fill="currentColor"/><path d="M14.271 28.142c.181-.1.371-.8.57-2.1.2-1.3.358-2.402.477-3.305.12-.904.118-1.898-.003-2.982-.122-1.085-.47-1.799-1.046-2.143-.576-.344-1.307-.522-2.194-.534a225.93 225.93 0 0 0-2.818-.019c-.99 0-1.901-.021-2.731-.065-.83-.043-1.12-.277-.872-.7.25-.424.845-1.182 1.787-2.272a175.57 175.57 0 0 1 3.183-3.574l1.77-1.94 1.54-1.543 1.54-1.544 1.786-2.897c-.056-.219-.17-.4-.343-.545a1.017 1.017 0 0 0-.598-.239 1.017 1.017 0 0 0-.624.158c-.19.12-.556.504-1.095 1.15-.539.648-1.222 1.569-2.05 2.764-.826 1.196-1.77 2.49-2.828 3.884a174.797 174.797 0 0 1-3.002 3.847c-.942 1.171-1.511 2.131-1.708 2.88-.196.748.203 1.27 1.2 1.564.996.294 1.998.45 3.007.468 1.008.018 1.902.117 2.68.297.778.18 1.251.636 1.419 1.367.168.73.206 1.54.115 2.426-.091.887-.198 1.984-.32 3.29-.121 1.306-.106 2.03.045 2.17m1.113.137a.931.931 0 0 1-.579.113.932.932 0 0 1-.534-.25m1.113.137c.181-.1.409-.319.682-.655.274-.337.958-1.186 2.05-2.549a419.809 419.809 0 0 0 3.25-4.107 330.815 330.815 0 0 1 3.027-3.819c.942-1.17 1.512-2.128 1.708-2.876.197-.748-.203-1.268-1.2-1.56a11.388 11.388 0 0 0-3.007-.466c-1.008-.02-1.902-.12-2.68-.3-.778-.181-1.252-.638-1.42-1.369-.168-.731-.167-1.859.003-3.382.17-1.523.206-2.417.108-2.68a.785.785 0 0 0-.553-.509.785.785 0 0 0-.737.149.785.785 0 0 0-.313.683c.012.28.135.499.37.654a.785.785 0 0 0 .745.087.785.785 0 0 0 .51-.553.785.785 0 0 0-.15-.737.785.785 0 0 0-.682-.312.785.785 0 0 0-.655.368c-.156.234-.332 1.121-.528 2.66-.196 1.54-.234 2.851-.112 3.935.121 1.084.47 1.798 1.045 2.141.575.344 1.306.522 2.194.533.887.012 1.826.017 2.817.016a50.2 50.2 0 0 1 2.732.066c.83.045 1.12.28.871.704-.249.424-.844 1.18-1.786 2.269a285.463 285.463 0 0 1-3.156 3.58 117.924 117.924 0 0 1-3.2 3.45c-.97 1-1.71 1.87-2.221 2.609-.51.738-.813 1.194-.909 1.365-.095.171-.067.328.084.469" stroke="currentColor" stroke-width="2" stroke-linecap="round" stroke-linejoin="round"/></svg>