<svg xmlns="http://www.w3.org/2000/svg" width="30" height="31" fill="none"><path fill="#000" fill-rule="evenodd" d="M8 2.208v2h10v-2H8Zm-2-.5a1.5 1.5 0 0 1 1.5-1.5h11a1.5 1.5 0 0 1 1.5 1.5v.5h1a3 3 0 0 1 3 3v9h-2v-9a1 1 0 0 0-1-1h-1v.5a1.5 1.5 0 0 1-1.5 1.5h-11a1.5 1.5 0 0 1-1.5-1.5v-.5H5a1 1 0 0 0-1 1v20a1 1 0 0 0 1 1h7v2H5a3 3 0 0 1-3-3v-20a3 3 0 0 1 3-3h1v-.5Z" clip-rule="evenodd"/><path fill="#000" d="M28 29.209a1 1 0 1 1-2 0 1 1 0 0 1 2 0ZM28 25.209a1 1 0 1 1-2 0 1 1 0 0 1 2 0ZM28 21.209a1 1 0 1 1-2 0 1 1 0 0 1 2 0ZM28 17.209a1 1 0 1 1-2 0 1 1 0 0 1 2 0ZM24 17.209a1 1 0 1 1-2 0 1 1 0 0 1 2 0ZM20 17.209a1 1 0 1 1-2 0 1 1 0 0 1 2 0ZM16 17.209a1 1 0 1 1-2 0 1 1 0 0 1 2 0ZM16 21.209a1 1 0 1 1-2 0 1 1 0 0 1 2 0ZM16 25.209a1 1 0 1 1-2 0 1 1 0 0 1 2 0ZM16 29.209a1 1 0 1 1-2 0 1 1 0 0 1 2 0ZM20 29.209a1 1 0 1 1-2 0 1 1 0 0 1 2 0ZM24 29.209a1 1 0 1 1-2 0 1 1 0 0 1 2 0Z"/></svg>