<svg xmlns="http://www.w3.org/2000/svg" width="30" height="31" fill="none"><path fill="#000" d="M17 4a2 2 0 1 1-4 0 2 2 0 0 1 4 0ZM17 26a2 2 0 1 1-4 0 2 2 0 0 1 4 0ZM22.232 6.474a2 2 0 1 1-3.464-2 2 2 0 0 1 3.464 2ZM11.232 25.526a2 2 0 1 1-3.464-2 2 2 0 0 1 3.464 2ZM25.526 11.232a2 2 0 1 1-2-3.464 2 2 0 0 1 2 3.464ZM6.474 22.232a2 2 0 1 1-2-3.464 2 2 0 0 1 2 3.464ZM26 17a2 2 0 1 1 0-4 2 2 0 0 1 0 4ZM4 17a2 2 0 1 1 0-4 2 2 0 0 1 0 4ZM23.526 22.232a2 2 0 1 1 2-3.464 2 2 0 0 1-2 3.464ZM4.474 11.232a2 2 0 1 1 2-3.464 2 2 0 0 1-2 3.464ZM18.768 25.526a2 2 0 1 1 3.464-2 2 2 0 0 1-3.464 2ZM7.768 6.474a2 2 0 1 1 3.464-2 2 2 0 0 1-3.464 2Z"/></svg>