<svg xmlns="http://www.w3.org/2000/svg" width="30" height="30" fill="none"><path fill="#000" d="M17 3.792a2 2 0 1 1-4 0 2 2 0 0 1 4 0Zm0 21.999a2 2 0 1 1-4 0 2 2 0 0 1 4 0Zm5.232-19.526a2 2 0 1 1-3.464-2 2 2 0 0 1 3.464 2Zm-11 19.053a2 2 0 1 1-3.464-2 2 2 0 0 1 3.464 2Zm14.294-14.294a2 2 0 1 1-2-3.465 2 2 0 0 1 2 3.465Zm-19.052 11a2 2 0 1 1-2-3.465 2 2 0 0 1 2 3.465ZM26 16.791a2 2 0 1 1 0-4 2 2 0 0 1 0 4Zm-22 0a2 2 0 1 1 0-4 2 2 0 0 1 0 4Zm19.526 5.233a2 2 0 1 1 2-3.465 2 2 0 0 1-2 3.465Zm-19.052-11a2 2 0 1 1 2-3.465 2 2 0 0 1-2 3.465Zm14.294 14.294a2 2 0 1 1 3.464-2 2 2 0 0 1-3.464 2Zm-11-19.053a2 2 0 1 1 3.464-2 2 2 0 0 1-3.464 2Z"/></svg>