<svg xmlns="http://www.w3.org/2000/svg" width="30" height="30" fill="none"><path fill="#000" d="M19.416 7.728c0 .043-.052.087-.113.087-.052 0-.2.243-.313.539-.348.904-3.824 7.779-3.833 7.561 0-.113-.052-.191-.139-.191-.122 0-.139.07-.087.408.052.392.018.479-1.216 2.877a128.342 128.342 0 0 1-1.66 3.173c-.226.4-.4.834-.418 1.017-.026.312.009.356.765 1.008.435.382.99.86 1.234 1.078 1.095.999 1.608 1.399 1.747 1.373.209-.035 3.433-3.416 3.442-3.607 0-.087-.156-1.408-.348-2.938-.33-2.607-.643-5.658-.608-5.954.026-.182-.104-1.103-.2-1.503-.078-.313-.043-.443.582-1.869.365-.843.843-1.877 1.052-2.294.2-.417.374-.783.374-.809 0-.026-.061-.043-.13-.043-.07 0-.131.035-.131.087Zm-1.999 6.492c.096.609.287 2.069.426 3.242.27 2.156.582 4.546.67 5.154.051.304.016.365-.549.991-.981 1.104-2.024 2.19-2.38 2.468l-.331.261-1.695-1.582c-1.564-1.442-1.695-1.59-1.6-1.764l.983-1.79c.487-.887 1.13-2.069 1.425-2.625.304-.565.583-1.052.635-1.078.06-.035.078.843.06 2.712-.034 2.79-.025 2.798.253 2.737.034 0 .06-1.408.06-3.12v-3.111l.913-1.825c.504-1.009.921-1.817.939-1.808.017.008.104.521.191 1.138ZM13.706 3.704a40.98 40.98 0 0 0-2.416 2.13l-.617.582.113.764c.06.418.173 1.235.243 1.808.078.574.156 1.113.182 1.191.035.104 0 .156-.095.156-.165 0-.174-.043.278 1.391.11.369.224.736.339 1.104.017.06.087.087.165.06.078-.034.122-.104.096-.165-.026-.07.017-.139.087-.165.095-.035.087-.104-.061-.356-.235-.391-.835-3.729-.87-4.806-.026-.765-.026-.774.296-1.208.313-.426 1.034-1.07 2.147-1.886.313-.235.626-.496.713-.583.13-.156.19-.113 1.286 1.052.634.67 1.338 1.356 1.564 1.53l.418.312-.322.678a149.42 149.42 0 0 1-1.573 3.112c-1.452 2.816-1.156 2.546-2.842 2.572l-1.095.01-.365.416c-.383.444-.435.609-.253.887a.7.7 0 0 1 .122.348c0 .156.061.182.409.2.217.008.417.034.443.06.026.026.06.565.087 1.2l.035 1.147-.583 1.251c-.965 2.087-1.347 3.043-1.347 3.355 0 .166.035.305.07.305.087 0 .087-.01 3.624-7.388 1.643-3.424 3.198-6.649 3.46-7.18.26-.53.495-1.016.512-1.086.017-.078-.582-.677-1.538-1.52-.86-.765-1.617-1.46-1.687-1.539-.2-.243-.495-.165-1.025.26Zm-.435 11.385c-.07.183-.252.566-.4.852-.243.487-.269.504-.33.304-.035-.121-.06-.478-.07-.8-.008-.634-.025-.625.705-.668l.234-.01-.139.322Zm.73-1.39c-.4.773-.417.782-1.512.834-.965.053-.982.044-.982-.139a.691.691 0 0 0-.078-.313c-.052-.078-.018-.217.104-.408l.191-.296h.87c.477-.008 1.025-.043 1.216-.078.191-.035.356-.052.374-.043.017.008-.07.208-.183.443Zm-.034-7.927c-.157.113-.2.226-.2.513 0 .34.026.391.26.487.235.096.296.087.565-.096.357-.243.365-.304.105-.695-.226-.339-.452-.4-.73-.209Z"/><path fill="#000" fill-rule="evenodd" d="M19.186 7.565a.409.409 0 0 1 .36-.199c.148 0 .271.062.318.11a.287.287 0 0 1 .088.208.318.318 0 0 1-.022.113c-.031.084-.194.428-.381.819a59.066 59.066 0 0 0-1.046 2.282c-.306.697-.469 1.077-.544 1.322-.055.178-.051.257-.023.372.102.427.233 1.412.206 1.6-.034.292.281 3.308.608 5.887.194 1.547.35 2.884.35 2.972v.012a.432.432 0 0 1-.082.21c-.093.136-.354.442-.697.82-.777.855-1.98 2.099-2.505 2.575-.125.113-.22.188-.27.216a.34.34 0 0 1-.112.044c-.075.014-.224-.003-.43-.135-.274-.176-.768-.59-1.55-1.303-.244-.218-.8-.695-1.231-1.075a9.017 9.017 0 0 1-.625-.567.85.85 0 0 1-.213-.337.87.87 0 0 1-.021-.338c.019-.202.202-.685.452-1.127.216-.381.96-1.802 1.654-3.162.612-1.19.927-1.806 1.082-2.173.124-.294.128-.387.108-.537-.033-.214-.036-.345-.02-.423a.364.364 0 0 1 .106-.201c.063-.06.149-.1.272-.1.037 0 .072.004.105.012.746-1.332 3.315-6.439 3.61-7.206.108-.28.248-.518.33-.603a.374.374 0 0 1 .123-.088Zm-2.092 6.35c-.19.364-.377.73-.56 1.098l-.884 1.767v3.046c0 1.558-.023 2.866-.053 3.113a.301.301 0 0 1-.254.28l.03-.004a.502.502 0 0 1-.302-.009c-.09-.038-.194-.115-.244-.332-.06-.263-.061-.953-.04-2.668.007-.782.009-1.39.003-1.829-.06.107-.122.218-.18.326-.297.558-.94 1.741-1.428 2.629l-.954 1.739c.024.034.065.09.112.141.213.236.632.628 1.405 1.34l1.523 1.422.146-.115c.351-.274 1.378-1.347 2.347-2.436.164-.182.283-.315.366-.42a.608.608 0 0 0 .124-.194c.012-.045 0-.087-.01-.146v-.008c-.088-.609-.4-3.001-.67-5.16-.14-1.17-.33-2.625-.425-3.232l-.001-.004a22.358 22.358 0 0 0-.051-.345Zm-3.56-10.426c.306-.246.55-.384.74-.433.282-.072.492 0 .664.205.072.08.816.763 1.661 1.514.783.69 1.331 1.223 1.51 1.45.127.158.125.292.115.337a.167.167 0 0 1-.002.007c-.018.073-.259.585-.532 1.14-.261.53-1.816 3.754-3.458 7.178-2.843 5.93-3.414 7.12-3.572 7.36-.091.138-.163.157-.204.17a.318.318 0 0 1-.096.013.289.289 0 0 1-.251-.14.95.95 0 0 1-.094-.439c0-.11.035-.291.123-.555.175-.525.568-1.44 1.25-2.915l.555-1.193-.033-1.079a28.11 28.11 0 0 0-.06-.98 2.81 2.81 0 0 0-.209-.017 1.625 1.625 0 0 1-.372-.048.4.4 0 0 1-.232-.17.462.462 0 0 1-.066-.256.38.38 0 0 0-.069-.187l-.007-.01c-.114-.174-.157-.322-.145-.478.016-.188.132-.407.418-.74l.295-.336a94.71 94.71 0 0 1-.331-1.078c-.286-.906-.389-1.254-.394-1.386-.007-.152.051-.228.104-.276a.281.281 0 0 1 .074-.049c-.04-.226-.1-.64-.16-1.077a89.419 89.419 0 0 0-.242-1.8l-.113-.765a.274.274 0 0 1 .083-.24l.616-.581a41.27 41.27 0 0 1 2.434-2.146Zm-.71 13.065a.317.317 0 0 1-.158.08.283.283 0 0 1-.19-.024l.018.626v.004l.33-.687Zm2.276.27a8.149 8.149 0 0 1-.18.41.266.266 0 0 1 .176.002l.004.002v-.415Zm.279-.733-.006.007a.29.29 0 0 1-.158.092.963.963 0 0 1 0 .229l.164-.328Zm-2.395-1.023c-.104.01-.19.021-.232.027a.965.965 0 0 0-.007.075c-.002.073 0 .163.001.268l.005.131c.09-.182.178-.37.233-.501Zm.822-.564a.793.793 0 0 1-.162.12c.025.04.039.086.04.132l.052-.107.07-.145Zm-.055-.919c-.253.03-.73.06-1.153.067h-.724l-.11.168a1.063 1.063 0 0 0-.078.16c.04.082.073.197.088.306h.002c.142.002.36-.009.7-.027.482-.023.729-.02.897-.113a.445.445 0 0 0 .15-.152c.069-.101.137-.234.228-.409Zm.828-.69c-.06.061-.128.116-.201.163a.245.245 0 0 1 .07.109l.13-.273Zm2.792-.572-.258.51a.306.306 0 0 1 .236.003c.014.007.056.027.095.078a5.002 5.002 0 0 0-.042-.191.951.951 0 0 1-.03-.4Zm-2.947-8.337c-.139.123-.403.34-.668.539-1.08.793-1.784 1.414-2.089 1.828-.109.147-.178.234-.216.33-.058.147-.04.309-.026.706.024.744.323 2.581.579 3.75.101.463.187.816.253.926.097.165.141.275.154.346a.357.357 0 0 1-.07.296l.492-.004c.334-.005.59.001.796-.007.165-.007.29-.02.4-.073.13-.061.232-.177.358-.37.24-.366.532-.973 1.048-1.975a146.597 146.597 0 0 0 1.569-3.102l.225-.475-.24-.18c-.23-.178-.95-.877-1.597-1.56a23.094 23.094 0 0 0-.968-.975Zm-2.173 8.643-.005-.012.005.012Zm-.275-.323.01-.004a.27.27 0 0 0-.01.004Zm7.714-4.559v.004-.004ZM13.806 5.55c-.228.164-.314.318-.314.735 0 .305.046.448.133.55.061.072.15.131.299.191a.87.87 0 0 0 .324.081c.135 0 .267-.047.498-.203.274-.187.38-.335.402-.48.02-.136-.035-.314-.223-.595-.16-.24-.33-.368-.5-.416-.19-.053-.393-.019-.614.133l-.005.004Zm.78.785a2.43 2.43 0 0 0-.118-.202c-.073-.11-.126-.188-.206-.193-.044-.003-.086.022-.136.056-.085.062-.085.132-.085.29 0 .076.008.161.011.194.018.01.052.026.08.037.051.021.085.04.12.04.015 0 .028-.01.047-.02a1.656 1.656 0 0 0 .288-.202Z" clip-rule="evenodd"/></svg>