<svg xmlns="http://www.w3.org/2000/svg" width="30" height="31" fill="none"><path fill="#000" fill-rule="evenodd" d="M26 4.208H8v2h14a2 2 0 0 1 2 2v14h2v-18Zm-20 0v2H4a2 2 0 0 0-2 2v18a2 2 0 0 0 2 2h18a2 2 0 0 0 2-2v-2h2a2 2 0 0 0 2-2v-18a2 2 0 0 0-2-2H8a2 2 0 0 0-2 2Zm16 22H4v-18h18v18Z" clip-rule="evenodd"/><mask id="a" width="18" height="19" x="4" y="8" maskUnits="userSpaceOnUse" style="mask-type:alpha"><path fill="#D9D9D9" d="M22 26.208H4v-18h18z"/></mask><g mask="url(#a)"><path fill="#000" fill-rule="evenodd" d="M23.438 15.761a.968.968 0 0 1 0 1.418l-1.49 1.417a1.091 1.091 0 0 1-1.49 0 .969.969 0 0 1 0-1.418l1.49-1.417a1.091 1.091 0 0 1 1.49 0Zm-4.468 5.67a.968.968 0 0 0 0-1.418 1.091 1.091 0 0 0-1.49 0l-1.49 1.418a.969.969 0 0 0 0 1.417 1.091 1.091 0 0 0 1.49 0l1.49-1.417Zm-4.468 2.835a.968.968 0 0 1 0 1.417l-1.49 1.418a1.091 1.091 0 0 1-1.49 0 .968.968 0 0 1 0-1.418l1.49-1.417a1.091 1.091 0 0 1 1.49 0Zm0-17.01a.968.968 0 0 1 0 1.418l-1.49 1.417a1.091 1.091 0 0 1-1.49 0 .969.969 0 0 1 0-1.417l1.49-1.418a1.091 1.091 0 0 1 1.49 0Zm-4.469 5.67a.968.968 0 0 0 0-1.418 1.091 1.091 0 0 0-1.489 0l-1.49 1.418a.968.968 0 0 0 0 1.418 1.091 1.091 0 0 0 1.49 0l1.49-1.418Zm-4.467 2.835a.968.968 0 0 1 0 1.417l-1.49 1.418a1.091 1.091 0 0 1-1.49 0 .968.968 0 0 1 0-1.418l1.49-1.417a1.091 1.091 0 0 1 1.49 0Zm17.872-4.253a.968.968 0 0 0 0-1.417 1.091 1.091 0 0 0-1.49 0l-1.49 1.417a.968.968 0 0 0 0 1.418 1.091 1.091 0 0 0 1.49 0l1.49-1.418Zm-4.468 2.835a.968.968 0 0 1 0 1.418l-1.49 1.417a1.091 1.091 0 0 1-1.49 0 .968.968 0 0 1 0-1.417l1.49-1.418a1.091 1.091 0 0 1 1.49 0Zm-4.468 5.67a.968.968 0 0 0 0-1.417 1.091 1.091 0 0 0-1.49 0l-1.49 1.417a.968.968 0 0 0 0 1.418 1.091 1.091 0 0 0 1.49 0l1.49-1.418Zm-4.468 2.835a.969.969 0 0 1 0 1.418l-1.49 1.417a1.091 1.091 0 0 1-1.49 0 .968.968 0 0 1 0-1.417l1.49-1.418a1.091 1.091 0 0 1 1.49 0Zm0-17.01a.968.968 0 0 1 0 1.418l-1.49 1.417a1.091 1.091 0 0 1-1.49 0 .968.968 0 0 1 0-1.417l1.49-1.418a1.091 1.091 0 0 1 1.49 0Zm-4.468 5.67a.968.968 0 0 0 0-1.417 1.091 1.091 0 0 0-1.49 0l-1.49 1.417a.968.968 0 0 0 0 1.418 1.091 1.091 0 0 0 1.49 0l1.49-1.418Zm17.871 9.923a.968.968 0 0 1 0 1.417l-1.489 1.418a1.091 1.091 0 0 1-1.49 0 .969.969 0 0 1 0-1.418l1.49-1.417a1.091 1.091 0 0 1 1.49 0ZM18.97 27.1a.968.968 0 0 0 0-1.418 1.091 1.091 0 0 0-1.489 0l-1.49 1.418a.969.969 0 0 0 0 1.417 1.091 1.091 0 0 0 1.49 0l1.49-1.417Zm0-17.01a.968.968 0 0 0 0-1.418 1.091 1.091 0 0 0-1.489 0l-1.49 1.418a.968.968 0 0 0 0 1.417 1.091 1.091 0 0 0 1.49 0l1.49-1.417Zm-4.468 2.835a.968.968 0 0 1 0 1.417l-1.489 1.418a1.091 1.091 0 0 1-1.49 0 .969.969 0 0 1 0-1.418l1.49-1.417a1.091 1.091 0 0 1 1.49 0Zm-4.467 5.67a.968.968 0 0 0 0-1.418 1.091 1.091 0 0 0-1.49 0l-1.49 1.418a.968.968 0 0 0 0 1.417 1.091 1.091 0 0 0 1.49 0l1.49-1.417ZM5.566 21.43a.968.968 0 0 1 0 1.417l-1.49 1.418a1.091 1.091 0 0 1-1.49 0 .968.968 0 0 1 0-1.418l1.49-1.417a1.091 1.091 0 0 1 1.49 0Z" clip-rule="evenodd"/></g></svg>