<svg xmlns="http://www.w3.org/2000/svg" width="30" height="31" fill="none"><path fill="#000" d="m11.358 24.144-1.277-4.611H4.69l-1.25 4.61H0L5.106 5.962h4.741l5.132 18.183h-3.621ZM7.503 9.32h-.209l-2.006 7.425h4.22L7.503 9.32ZM28.046 24.144c-.816 0-1.45-.2-1.901-.6-.435-.416-.695-.99-.782-1.719h-.13A3.407 3.407 0 0 1 23.8 23.78c-.712.452-1.59.677-2.631.677-1.355 0-2.431-.356-3.23-1.068-.8-.712-1.199-1.702-1.199-2.97 0-2.709 1.989-4.063 5.966-4.063h2.37v-.886c0-.851-.208-1.494-.625-1.928-.417-.434-1.094-.651-2.032-.651-.85 0-1.537.165-2.058.495-.52.33-.964.755-1.328 1.276l-1.902-1.615c.417-.746 1.085-1.372 2.006-1.875.938-.521 2.145-.782 3.621-.782 1.771 0 3.152.417 4.142 1.25 1.007.817 1.51 2.041 1.51 3.674v6.33H30v2.5h-1.954Zm-5.757-1.98c.799 0 1.459-.182 1.98-.547.538-.382.808-.895.808-1.537v-1.797h-2.293c-1.823 0-2.735.573-2.735 1.719v.52c0 .54.2.947.599 1.225.4.278.946.417 1.641.417Z"/></svg>