<svg xmlns="http://www.w3.org/2000/svg" width="30" height="31" fill="none"><path fill="#000" d="M0 22.212h1.262L6.706 6.424H9.8l5.445 15.788h1.262v1.484H9.65v-1.484h2.054l-1.287-3.886H4.454l-1.286 3.886H5.22v1.484H0v-1.484Zm4.9-5.445h5.073l-2.475-7.67h-.124L4.9 16.766ZM21.685 23.993c-1.336 0-2.326-.321-2.97-.965-.643-.643-.964-1.534-.964-2.672 0-1.254.453-2.203 1.36-2.846.925-.644 2.36-.965 4.306-.965h1.757v-1.56c0-1.006-.206-1.764-.618-2.276-.413-.528-1.089-.792-2.03-.792-.725 0-1.286.107-1.682.322v.099c.165.099.322.256.47.47.165.198.248.479.248.841 0 .479-.149.875-.446 1.188-.28.297-.701.446-1.262.446-.478 0-.874-.157-1.188-.47-.297-.314-.445-.726-.445-1.238 0-.396.107-.775.322-1.138.23-.38.569-.71 1.014-.99.446-.297.99-.528 1.633-.693.66-.181 1.42-.272 2.277-.272 1.65 0 2.887.38 3.712 1.138.825.743 1.237 1.79 1.237 3.143v7.473H30v1.238c-.247.165-.577.288-.99.37a5.39 5.39 0 0 1-1.262.15c-.825 0-1.419-.199-1.782-.595-.363-.412-.544-.932-.544-1.559v-.074h-.124a4.39 4.39 0 0 1-.445.817 3.159 3.159 0 0 1-.693.717c-.28.198-.627.363-1.04.495-.395.132-.874.198-1.435.198Zm1.262-1.98c.66 0 1.196-.156 1.609-.47.412-.313.618-.84.618-1.583V17.88h-1.41c-.99 0-1.7.181-2.128.544-.413.347-.619.85-.619 1.51v.445c0 .561.173.974.52 1.238.363.264.833.396 1.41.396Z"/></svg>