<svg width="31" height="31" viewBox="0 0 31 31" fill="none" xmlns="http://www.w3.org/2000/svg">
<path fill-rule="evenodd" clip-rule="evenodd" d="M8.0625 6.20856V9.20848C8.0625 9.76076 7.61478 10.2085 7.0625 10.2085C6.51022 10.2085 6.0625 9.76076 6.0625 9.20848V5.2086C6.0625 5.1018 6.07924 4.99891 6.11024 4.90242C6.23955 4.49988 6.61701 4.20856 7.06251 4.20856H23.0625C23.4077 4.20856 23.712 4.38345 23.8917 4.64945C23.9996 4.80905 24.0625 5.00145 24.0625 5.20856L24.0625 5.2086V9.20848C24.0625 9.76076 23.6148 10.2085 23.0625 10.2085C22.5102 10.2085 22.0625 9.76076 22.0625 9.20848V6.20856H16.0625V24.2086H18.5712C19.1235 24.2086 19.5712 24.6563 19.5712 25.2086C19.5712 25.7609 19.1235 26.2086 18.5712 26.2086H11.5712C11.0189 26.2086 10.5712 25.7609 10.5712 25.2086C10.5712 24.6563 11.0189 24.2086 11.5712 24.2086H14.0625V6.20856H8.0625Z" fill="black"/>
</svg>
