<svg width="31" height="31" viewBox="0 0 31 31" fill="none" xmlns="http://www.w3.org/2000/svg">
<path fill-rule="evenodd" clip-rule="evenodd" d="M4.5625 2.2085H25.5625C26.9432 2.2085 28.0625 3.32779 28.0625 4.7085V21.2075V21.2095V25.7085C28.0625 27.0892 26.9432 28.2085 25.5625 28.2085H20.0683H20.0575H4.5625C3.18179 28.2085 2.0625 27.0892 2.0625 25.7085V19.2087V19.2083V4.7085C2.0625 3.32778 3.18179 2.2085 4.5625 2.2085ZM26.0625 4.7085V18.7943L22.7696 15.5014C22.3791 15.1109 21.7459 15.1109 21.3554 15.5014L15.8121 21.0447L8.7935 13.5261C8.60845 13.3279 8.35083 13.2133 8.07969 13.2086C7.80855 13.204 7.54715 13.3096 7.35539 13.5014L4.0625 16.7943V4.7085C4.0625 4.43235 4.28636 4.2085 4.5625 4.2085H25.5625C25.8386 4.2085 26.0625 4.43235 26.0625 4.7085ZM4.0625 25.7085V19.6227L8.03776 15.6474L15.0511 23.1604L17.8099 26.2085H4.5625C4.28636 26.2085 4.0625 25.9846 4.0625 25.7085ZM25.5625 26.2085H20.5074L17.1672 22.518L22.0625 17.6227L26.0625 21.6227V25.7085C26.0625 25.9846 25.8386 26.2085 25.5625 26.2085ZM13.4609 11.2085C13.4609 10.324 14.178 9.60693 15.0625 9.60693C15.947 9.60693 16.6641 10.324 16.6641 11.2085C16.6641 12.093 15.947 12.8101 15.0625 12.8101C14.178 12.8101 13.4609 12.093 13.4609 11.2085ZM15.0625 7.60693C13.0734 7.60693 11.4609 9.21941 11.4609 11.2085C11.4609 13.1976 13.0734 14.8101 15.0625 14.8101C17.0516 14.8101 18.6641 13.1976 18.6641 11.2085C18.6641 9.21941 17.0516 7.60693 15.0625 7.60693Z" fill="black"/>
</svg>
