<svg width="31" height="31" viewBox="0 0 31 31" fill="none" xmlns="http://www.w3.org/2000/svg">
<path d="M8.69837 16.2303C8.50802 15.5071 8.31767 14.6128 7.91794 13.2807C7.16192 10.791 5.84387 8.48049 5.19595 5.95432C4.77002 4.14462 6.3146 2.31148 8.24153 2.98572C11.1904 4.02152 12.1099 9.09408 12.5244 11.6632L12.6767 12.5195C12.4731 8.81221 12.2078 6.3938 12.6767 3.34728C13.1393 0.456561 17.5647 0.522358 17.9303 3.38534C18.1193 5.46445 18.1206 7.53933 18.1206 9.62702C18.1206 10.0647 18.1206 12.7098 18.1587 12.4244C18.2729 11.1684 18.33 6.35394 18.8059 4.92673C19.8449 1.73641 23.6988 2.89833 23.8882 5.80209C24.0457 7.90177 23.8266 10.0932 23.774 12.196C23.774 12.2721 23.7549 12.7669 23.812 12.5385C24.3863 10.7525 23.8882 5.80209 26.9998 6.41977C28.0264 6.62357 29.931 8.00973 28.5419 12.7085C26.5816 19.3395 24.042 22.2066 24.042 29.2085H10.042C10.042 24.2085 3.43108 20.3881 1.54193 16.6109C1.12317 15.8116 0.915476 14.803 1.18196 14.0799C1.61977 12.9572 2.43589 12.3673 3.7493 12.5005C5.8918 12.7064 6.75753 14.5329 8.69837 16.2303Z" stroke="black" stroke-width="2" stroke-linecap="round" stroke-linejoin="round"/>
</svg>
