<svg xmlns="http://www.w3.org/2000/svg" width="30" height="30" fill="none"><g clip-path="url(#a)"><path fill="#24292F" fill-rule="evenodd" d="M14.973 6C10.011 6 6 10.125 6 15.228c0 4.08 2.57 7.532 6.136 8.755.445.091.609-.199.609-.443 0-.214-.015-.948-.015-1.712-2.496.55-3.016-1.1-3.016-1.1-.401-1.07-.995-1.344-.995-1.344-.817-.565.06-.565.06-.565.905.06 1.38.947 1.38.947.803 1.405 2.095 1.008 2.615.764.075-.596.313-1.009.565-1.238-1.99-.214-4.085-1.008-4.085-4.553 0-1.008.356-1.833.92-2.475-.089-.229-.4-1.176.09-2.444 0 0 .757-.245 2.466.947a8.463 8.463 0 0 1 2.243-.306c.758 0 1.53.107 2.243.306 1.709-1.192 2.467-.947 2.467-.947.49 1.268.178 2.215.089 2.444.58.642.92 1.467.92 2.475 0 3.545-2.094 4.324-4.1 4.553.327.29.61.84.61 1.711 0 1.238-.015 2.231-.015 2.537 0 .244.163.534.609.443 3.565-1.223 6.136-4.676 6.136-8.755C23.945 10.125 19.92 6 14.973 6Z" clip-rule="evenodd"/></g><defs><clipPath id="a"><path fill="#fff" d="M6 6h18v18H6z"/></clipPath></defs></svg>