<svg xmlns="http://www.w3.org/2000/svg" width="30" height="31" fill="none"><path fill="#000" fill-rule="evenodd" d="M14.999.709C6.993.709.5 7.2.5 15.209c0 6.405 4.154 11.84 9.916 13.759.726.133.99-.315.99-.7 0-.344-.012-1.256-.02-2.465-4.033.875-4.884-1.945-4.884-1.945-.66-1.675-1.61-2.12-1.61-2.12-1.317-.9.1-.882.1-.882 1.455.102 2.22 1.495 2.22 1.495 1.294 2.215 3.395 1.575 4.22 1.204.133-.936.507-1.576.921-1.938-3.22-.367-6.605-1.61-6.605-7.166 0-1.584.566-2.877 1.493-3.891-.15-.367-.647-1.841.142-3.838 0 0 1.217-.39 3.987 1.486A13.925 13.925 0 0 1 15 7.72a13.94 13.94 0 0 1 3.63.488c2.769-1.876 3.984-1.486 3.984-1.486.791 1.997.294 3.471.145 3.838.93 1.014 1.49 2.307 1.49 3.89 0 5.571-3.39 6.797-6.62 7.156.52.447.984 1.332.984 2.685 0 1.938-.018 3.502-.018 3.977 0 .388.262.84.997.698 5.757-1.922 9.908-7.352 9.908-13.757 0-8.009-6.493-14.5-14.501-14.5" clip-rule="evenodd"/></svg>