<svg xmlns="http://www.w3.org/2000/svg" width="30" height="31" fill="none"><path fill="#000" d="M2.9 2.108a1 1 0 0 0-1 1v4a1 1 0 0 0 2 0v-3h3a1 1 0 1 0 0-2h-4ZM11.9 2.108a1 1 0 1 0 0 2h6a1 1 0 1 0 0-2h-6ZM10.9 27.108a1 1 0 0 1 1-1h6a1 1 0 1 1 0 2h-6a1 1 0 0 1-1-1ZM3.9 12.108a1 1 0 1 0-2 0v6a1 1 0 1 0 2 0v-6ZM26.9 11.108a1 1 0 0 1 1 1v6a1 1 0 1 1-2 0v-6a1 1 0 0 1 1-1ZM22.9 2.108a1 1 0 1 0 0 2h3v3a1 1 0 1 0 2 0v-4c0-.552-.45-1-1.002-1H22.9ZM2.9 22.108a1 1 0 0 1 1 1v3h3a1 1 0 1 1 0 2h-4a1 1 0 0 1-1-1v-4a1 1 0 0 1 1-1ZM27.9 23.108a1 1 0 1 0-2 0l-.002 3H22.9a1 1 0 1 0 0 2h4a1 1 0 0 0 1-1v-4Z"/></svg>