<svg xmlns="http://www.w3.org/2000/svg" width="30" height="30" fill="none"><path fill="#000" d="M2.9 1.9a1 1 0 0 0-1 1v4a1 1 0 0 0 2 0v-3h3a1 1 0 1 0 0-2h-4Zm9 0a1 1 0 1 0 0 2h6a1 1 0 1 0 0-2h-6Zm-1 25a1 1 0 0 1 1-1h6a1 1 0 1 1 0 2h-6a1 1 0 0 1-1-1Zm-7-15a1 1 0 1 0-2 0v6a1 1 0 1 0 2 0v-6Zm23-1a1 1 0 0 1 1 1v6a1 1 0 1 1-2 0v-6a1 1 0 0 1 1-1Zm-4-9a1 1 0 1 0 0 2h3v3a1 1 0 1 0 2 0v-4c0-.552-.45-1-1.002-1H22.9Zm-20 20a1 1 0 0 1 1 1v3h3a1 1 0 1 1 0 2h-4a1 1 0 0 1-1-1v-4a1 1 0 0 1 1-1Zm25 1a1 1 0 1 0-2 0l-.002 3H22.9a1 1 0 1 0 0 2h4a1 1 0 0 0 1-1v-4Z"/></svg>