<svg xmlns="http://www.w3.org/2000/svg" width="30" height="31" fill="none"><path stroke="#000" stroke-linecap="round" stroke-width="2" d="M11 9.209H9.25c-1.162 0-1.742 0-2.225.092-1.984.378-3.534 1.867-3.929 3.771C3 13.536 3 14.093 3 15.21c0 1.115 0 1.672.096 2.136.395 1.904 1.945 3.393 3.929 3.771.483.093 1.063.093 2.225.093H11m8-12h1.75c1.162 0 1.742 0 2.226.092 1.983.378 3.533 1.867 3.928 3.771.096.464.096 1.021.096 2.137 0 1.115 0 1.672-.096 2.136-.395 1.904-1.945 3.393-3.928 3.771-.483.093-1.064.093-2.226.093H19M10.002 15.209h10"/></svg>