<svg xmlns="http://www.w3.org/2000/svg" width="36" height="36" fill="none"><path fill="#000" fill-rule="evenodd" d="M8 0a8 8 0 0 0-8 8v20a8 8 0 0 0 8 8h20a8 8 0 0 0 8-8V8a8 8 0 0 0-8-8H8Zm12.08 12.51c.594-.606.892-1.344.892-2.214 0-.87-.298-1.608-.893-2.215a2.928 2.928 0 0 0-2.172-.91c-.879 0-1.616.304-2.21.91-.595.607-.893 1.345-.893 2.215 0 .87.298 1.608.893 2.215.594.606 1.331.91 2.21.91.854 0 1.578-.304 2.172-.91Zm-4.422 6.52c-.595.607-.892 1.345-.892 2.215 0 .817.271 1.503.814 2.056.543.554 1.073.844 1.59.87.207 0 .298.106.272.317a4.07 4.07 0 0 1-.504 1.384 3.62 3.62 0 0 1-.97 1.107c-.698.58-.827 1.081-.388 1.503.466.448 1.06.461 1.784.04 1.32-.739 2.328-1.807 3.026-3.204.724-1.397.982-2.808.775-4.231-.103-.765-.465-1.45-1.086-2.057-.62-.633-1.344-.949-2.172-.949-.879 0-1.629.317-2.25.95Z" clip-rule="evenodd"/></svg>