<svg width="36" height="36" viewBox="0 0 36 37" fill="none" xmlns="http://www.w3.org/2000/svg">
<path fill-rule="evenodd" clip-rule="evenodd" d="M8 0.644989C3.58172 0.644989 0 4.22671 0 8.64499V28.645C0 33.0633 3.58172 36.645 8 36.645H28C32.4183 36.645 36 33.0633 36 28.645V8.64499C36 4.22671 32.4183 0.644989 28 0.644989H8ZM20.0794 13.1556C20.6741 12.5492 20.9715 11.811 20.9715 10.941C20.9715 10.071 20.6741 9.3328 20.0794 8.72643C19.4847 8.12005 18.7606 7.81686 17.9073 7.81686C17.0282 7.81686 16.2912 8.12005 15.6965 8.72643C15.1018 9.3328 14.8044 10.071 14.8044 10.941C14.8044 11.811 15.1018 12.5492 15.6965 13.1556C16.2912 13.762 17.0282 14.0652 17.9073 14.0652C18.7606 14.0652 19.4847 13.762 20.0794 13.1556ZM15.6577 19.6752C15.063 20.2816 14.7656 21.0198 14.7656 21.8898C14.7656 22.7071 15.0371 23.3926 15.5801 23.9462C16.1232 24.4999 16.6532 24.7899 17.1704 24.8162C17.3773 24.8162 17.4678 24.9217 17.4419 25.1326C17.3643 25.6072 17.1963 26.0685 16.9377 26.5167C16.6791 26.9649 16.3559 27.334 15.968 27.624C15.2699 28.204 15.1406 28.705 15.5801 29.1268C16.0456 29.575 16.6403 29.5882 17.3643 29.1663C18.6831 28.4281 19.6915 27.3604 20.3897 25.9631C21.1137 24.5658 21.3723 23.1553 21.1654 21.7316C21.062 20.9671 20.7 20.2816 20.0794 19.6752C19.4588 19.0425 18.7348 18.7261 17.9073 18.7261C17.0282 18.7261 16.2783 19.0425 15.6577 19.6752Z" fill="black"/>
</svg>
