<svg xmlns="http://www.w3.org/2000/svg" width="30" height="30" fill="none"><path fill="#000" d="M27.25 14.5a2.25 2.25 0 1 1-4.5 0 2.25 2.25 0 0 1 4.5 0Zm-20 0a2.25 2.25 0 1 1-4.5 0 2.25 2.25 0 0 1 4.5 0Zm10-10a2.25 2.25 0 1 1-4.5 0 2.25 2.25 0 0 1 4.5 0Zm0 20a2.25 2.25 0 1 1-4.5 0 2.25 2.25 0 0 1 4.5 0ZM6.5 4.75a1.5 1.5 0 1 1-3 0 1.5 1.5 0 0 1 3 0Zm0 20a1.5 1.5 0 1 1-3 0 1.5 1.5 0 0 1 3 0Zm10-10.25a1.5 1.5 0 1 1-3 0 1.5 1.5 0 0 1 3 0Zm10 10.25a1.5 1.5 0 1 1-3 0 1.5 1.5 0 0 1 3 0Zm0-20a1.5 1.5 0 1 1-3 0 1.5 1.5 0 0 1 3 0Z"/></svg>