<svg xmlns="http://www.w3.org/2000/svg" width="30" height="31" fill="none"><path fill="#000" d="M27.25 14.709a2.25 2.25 0 1 1-4.5 0 2.25 2.25 0 0 1 4.5 0ZM7.25 14.709a2.25 2.25 0 1 1-4.5 0 2.25 2.25 0 0 1 4.5 0ZM17.25 4.708a2.25 2.25 0 1 1-4.5 0 2.25 2.25 0 0 1 4.5 0ZM17.25 24.709a2.25 2.25 0 1 1-4.5 0 2.25 2.25 0 0 1 4.5 0ZM6.5 4.958a1.5 1.5 0 1 1-3 0 1.5 1.5 0 0 1 3 0ZM6.5 24.959a1.5 1.5 0 1 1-3 0 1.5 1.5 0 0 1 3 0ZM16.5 14.709a1.5 1.5 0 1 1-3 0 1.5 1.5 0 0 1 3 0ZM26.5 24.959a1.5 1.5 0 1 1-3 0 1.5 1.5 0 0 1 3 0ZM26.5 4.958a1.5 1.5 0 1 1-3 0 1.5 1.5 0 0 1 3 0Z"/></svg>