<svg xmlns="http://www.w3.org/2000/svg" width="30" height="31" fill="none"><path fill="#000" d="M14.403 7.425A.25.25 0 0 1 14 7.228V5.24c-3.963 0-6.37.727-7.821 2.179C4.727 8.87 4 11.276 4 15.239a1 1 0 0 1-2 0c0-4.112.735-7.206 2.765-9.235C6.795 3.974 9.888 3.239 14 3.239V1.25a.25.25 0 0 1 .403-.197l3.843 2.989a.25.25 0 0 1 0 .395l-3.843 2.988Z"/><path fill="#000" fill-rule="evenodd" d="M26.5 9.24a1.5 1.5 0 0 1 1.5 1.5v17a1.5 1.5 0 0 1-1.5 1.5h-17a1.5 1.5 0 0 1-1.5-1.5v-17a1.5 1.5 0 0 1 1.5-1.5h17Zm-.5 2v16H10v-16h16Z" clip-rule="evenodd"/></svg>