<svg xmlns="http://www.w3.org/2000/svg" width="30" height="32" fill="none"><path fill="#000" d="M15.597 7.395A.25.25 0 0 0 16 7.198v-1.99c3.963 0 6.37.728 7.821 2.18C25.273 8.837 26 11.245 26 15.207a1 1 0 1 0 2 0c0-4.112-.735-7.205-2.765-9.235-2.03-2.03-5.122-2.764-9.235-2.765V1.22a.25.25 0 0 0-.403-.197L11.754 4.01a.25.25 0 0 0 0 .395l3.843 2.989Z"/><path fill="#000" fill-rule="evenodd" d="M3.5 9.209a1.5 1.5 0 0 0-1.5 1.5v17a1.5 1.5 0 0 0 1.5 1.5h17a1.5 1.5 0 0 0 1.5-1.5v-17a1.5 1.5 0 0 0-1.5-1.5h-17Zm.5 2v16h16v-16H4Z" clip-rule="evenodd"/></svg>