<svg xmlns="http://www.w3.org/2000/svg" width="30" height="31" fill="none"><path fill="#000" d="M18.065 11.276c-.069-.69-.362-1.226-.881-1.608-.519-.382-1.223-.573-2.112-.573-.604 0-1.115.086-1.53.257-.417.165-.736.396-.959.693a1.666 1.666 0 0 0-.325 1.009c-.011.313.055.587.197.82.148.234.35.437.607.608.257.165.553.31.89.436.336.12.695.222 1.077.308l1.573.376c.764.17 1.465.399 2.104.684a6.386 6.386 0 0 1 1.659 1.052c.467.416.83.906 1.086 1.47.262.565.396 1.212.402 1.942-.006 1.071-.28 2-.821 2.787-.536.781-1.311 1.388-2.326 1.822-1.01.427-2.226.641-3.651.641-1.414 0-2.646-.217-3.694-.65-1.044-.433-1.859-1.075-2.446-1.924-.582-.855-.886-1.912-.915-3.172h3.583c.04.587.208 1.077.504 1.47.303.388.704.682 1.206.881.508.194 1.08.291 1.719.291.627 0 1.171-.091 1.633-.274.468-.182.83-.436 1.086-.76.257-.326.385-.7.385-1.12 0-.394-.117-.725-.35-.993-.229-.268-.565-.496-1.01-.684-.439-.188-.977-.36-1.616-.513l-1.907-.479c-1.476-.359-2.642-.92-3.497-1.684-.855-.764-1.28-1.793-1.274-3.087-.006-1.06.276-1.987.846-2.78.576-.792 1.366-1.41 2.369-1.855C12.68 6.222 13.82 6 15.097 6c1.3 0 2.435.222 3.404.667.974.445 1.733 1.063 2.274 1.856.542.792.821 1.71.838 2.753h-3.548Z"/></svg>