<svg xmlns="http://www.w3.org/2000/svg" width="30" height="31" fill="none"><path fill="#000" fill-rule="evenodd" d="M15 8.03a3.602 3.602 0 1 0 0 7.203 3.602 3.602 0 0 0 0-7.204Zm-1.602 3.601a1.602 1.602 0 1 1 3.204 0 1.602 1.602 0 0 1-3.204 0Z" clip-rule="evenodd"/><path fill="#000" fill-rule="evenodd" d="M4.5 2.631h21a2.5 2.5 0 0 1 2.5 2.5v21a2.5 2.5 0 0 1-2.5 2.5h-21a2.5 2.5 0 0 1-2.5-2.5v-21a2.5 2.5 0 0 1 2.5-2.5Zm21.5 2.5v14.086l-3.293-3.293a1 1 0 0 0-1.414 0l-5.543 5.543L8.73 13.95a1 1 0 0 0-1.438-.025L4 17.217V5.13a.5.5 0 0 1 .5-.5h21a.5.5 0 0 1 .5.5Zm-22 21v-6.086l3.975-3.975 7.014 7.513 2.758 3.048H4.5a.5.5 0 0 1-.5-.5Zm21.5.5h-5.055l-3.34-3.69L22 18.044l4 4v4.086a.5.5 0 0 1-.5.5Z" clip-rule="evenodd"/></svg>