<svg width="31" height="30" viewBox="0 0 31 30" fill="none" xmlns="http://www.w3.org/2000/svg">
<path d="M15.8204 3.22448L22.9028 6.12478C23.3936 6.32579 23.7845 6.71354 23.9895 7.20275L26.9045 14.1602C27.1116 14.6546 27.1116 15.2115 26.9045 15.7059L23.9895 22.6633C23.7845 23.1525 23.3936 23.5403 22.9028 23.7413L15.8204 26.6416C15.3347 26.8405 14.7903 26.8405 14.3046 26.6416L7.2222 23.7413C6.73135 23.5403 6.34045 23.1525 6.13549 22.6633L3.22052 15.7059C3.01338 15.2115 3.01338 14.6546 3.22052 14.1602L6.13549 7.20275C6.34045 6.71354 6.73135 6.32579 7.2222 6.12478L14.3046 3.22448C14.7903 3.02557 15.3347 3.02557 15.8204 3.22448Z" stroke="black" stroke-width="2"/>
</svg>
