<svg xmlns="http://www.w3.org/2000/svg" width="30" height="31" fill="none"><path fill="#000" fill-rule="evenodd" d="M10 2.208v2h10v-2H10Zm12 2v-2.5a1.5 1.5 0 0 0-1.5-1.5h-11a1.5 1.5 0 0 0-1.5 1.5v2.5H2a1 1 0 1 0 0 2h2.179c0 .057.002.114.007.172l1.889 22a2 2 0 0 0 1.993 1.829h13.864a2 2 0 0 0 1.993-1.83l1.889-22c.005-.057.007-.114.007-.17H28a1 1 0 1 0 0-2h-6Zm1.821 2H6.179l1.889 22h13.864l1.889-22Z" clip-rule="evenodd"/><path stroke="#000" stroke-linecap="round" stroke-width="2" d="m12 24.209-1-12M18 24.209l1-12"/></svg>