<svg xmlns="http://www.w3.org/2000/svg" width="30" height="30" fill="none"><path fill="#000" d="M2.9 1.9a1 1 0 0 0-1 1v4a1 1 0 0 0 2 0v-3h3a1 1 0 1 0 0-2h-4Zm9 0a1 1 0 1 0 0 2h6a1 1 0 1 0 0-2h-6Zm-1 25a1 1 0 0 1 1-1h6a1 1 0 1 1 0 2h-6a1 1 0 0 1-1-1Zm-7-15a1 1 0 1 0-2 0v6a1 1 0 1 0 2 0v-6Zm23-1a1 1 0 0 1 1 1v6a1 1 0 1 1-2 0v-6a1 1 0 0 1 1-1Zm1 12a1 1 0 1 0-2 0l-.002 3H22.9a1 1 0 1 0 0 2h4a1 1 0 0 0 1-1v-4Z"/><path fill="#000" fill-rule="evenodd" d="M27.293 3.707 3.707 27.293a1 1 0 0 1-1.414-1.414L25.879 2.293a1 1 0 1 1 1.414 1.414Z" clip-rule="evenodd"/></svg>